<svg width="93" height="18" viewBox="0 0 93 18" fill="none" xmlns="http://www.w3.org/2000/svg">
<path d="M12.3813 1.89259C12.8945 2.59826 13.1511 3.43224 13.1511 4.42659C13.1511 5.45302 12.8945 6.25492 12.3813 6.86436C12.0926 7.2172 11.6756 7.53796 11.0983 7.82664C11.9322 8.1474 12.5738 8.62853 13.0228 9.30212C13.4398 9.97572 13.6643 10.7776 13.6643 11.7399C13.6643 12.7343 13.4077 13.6003 12.9266 14.4022C12.6058 14.9154 12.2209 15.3645 11.7398 15.7173C11.1945 16.1343 10.5851 16.3909 9.84731 16.5513C9.10957 16.7117 8.33975 16.7758 7.50577 16.7758H0V0.128418H8.05105C10.1039 0.160494 11.5473 0.737861 12.3813 1.89259ZM3.3359 3.01525V6.6719H7.37746C8.11521 6.6719 8.69258 6.54359 9.14164 6.25491C9.5907 5.96623 9.81522 5.4851 9.81522 4.77943C9.81522 4.0096 9.52655 3.49638 8.9171 3.23978C8.40389 3.0794 7.76238 2.98317 6.96048 2.98317H3.3359V3.01525ZM3.3359 9.43044V13.8569H7.37746C8.11521 13.8569 8.6605 13.7607 9.07748 13.5682C9.81523 13.2154 10.1681 12.5097 10.1681 11.4833C10.1681 10.6172 9.81524 10.0078 9.10957 9.68704C8.72466 9.49458 8.14729 9.39835 7.44162 9.39835H3.3359V9.43044Z" fill="#0F0F0F"/>
<path d="M21.2022 9.26994C21.8116 9.20579 22.2286 9.10955 22.4852 8.98125C22.9343 8.78879 23.1909 8.46803 23.1909 8.05105C23.1909 7.53783 22.9984 7.185 22.6456 6.99255C22.2928 6.80009 21.7796 6.70386 21.0739 6.70386C20.3041 6.70386 19.7588 6.89632 19.438 7.28123C19.2135 7.56991 19.0531 7.92275 18.989 8.40388H15.8776C15.9417 7.3133 16.2625 6.44726 16.7757 5.74159C17.6418 4.65101 19.0852 4.10571 21.1701 4.10571C22.5173 4.10571 23.7362 4.36232 24.7626 4.90761C25.8211 5.4529 26.3343 6.44725 26.3343 7.92275V13.5681C26.3343 13.953 26.3343 14.4342 26.3664 14.9794C26.3985 15.3964 26.4626 15.6851 26.5589 15.8455C26.6551 16.0059 26.8155 16.1342 27.04 16.2304V16.7116H23.5758C23.4796 16.4549 23.4154 16.2304 23.3834 16.0059C23.3513 15.7814 23.3192 15.5247 23.2871 15.2681C22.8381 15.7493 22.3248 16.1663 21.7475 16.487C21.0418 16.8719 20.272 17.0965 19.3739 17.0965C18.2512 17.0965 17.321 16.7757 16.5833 16.1342C15.8455 15.4927 15.4927 14.5945 15.4927 13.4398C15.4927 11.9322 16.07 10.8417 17.2569 10.1681C17.8984 9.81523 18.8607 9.52654 20.1116 9.36616L21.2022 9.26994ZM23.1909 10.7775C22.9984 10.9058 22.7739 11.002 22.5815 11.0983C22.3569 11.1624 22.0682 11.2586 21.7154 11.3228L20.9777 11.4511C20.3041 11.5794 19.7908 11.7077 19.5022 11.9002C18.989 12.1889 18.7324 12.6379 18.7324 13.2794C18.7324 13.8247 18.8927 14.2417 19.1814 14.4662C19.5022 14.7228 19.855 14.8191 20.3041 14.8191C21.0097 14.8191 21.6513 14.6266 22.2607 14.2096C22.8381 13.7926 23.1588 13.0549 23.1909 11.9964V10.7775Z" fill="#0F0F0F"/>
<path d="M31.6588 12.8303C31.7229 13.4076 31.8833 13.8246 32.1078 14.0491C32.5248 14.4661 33.2626 14.6907 34.3211 14.6907C34.9626 14.6907 35.4758 14.5944 35.8286 14.402C36.1815 14.2095 36.406 13.9208 36.406 13.568C36.406 13.2152 36.2456 12.9265 35.9569 12.734C35.6682 12.5416 34.5456 12.2208 32.589 11.7718C31.1776 11.4189 30.2154 11.0019 29.638 10.4887C29.0606 9.97551 28.7719 9.23777 28.7719 8.27549C28.7719 7.15283 29.221 6.15847 30.1191 5.35658C31.0172 4.55468 32.2682 4.1377 33.9041 4.1377C35.4437 4.1377 36.6947 4.45845 37.657 5.0679C38.6192 5.67734 39.1966 6.73584 39.3249 8.24341H36.1173C36.0852 7.82642 35.9569 7.50566 35.7645 7.24905C35.4116 6.79999 34.8022 6.60754 33.9682 6.60754C33.2626 6.60754 32.7814 6.70376 32.4607 6.92829C32.172 7.15283 32.0116 7.40943 32.0116 7.69812C32.0116 8.08303 32.172 8.33963 32.4927 8.50001C32.8135 8.66039 33.9361 8.98115 35.8607 9.39814C37.1437 9.68682 38.106 10.168 38.7475 10.7774C39.3891 11.3869 39.7098 12.1567 39.7098 13.0869C39.7098 14.3058 39.2608 15.3001 38.3306 16.0699C37.4324 16.8398 36.0211 17.2247 34.1286 17.2247C32.2041 17.2247 30.7606 16.8077 29.8304 16.0058C28.9002 15.2039 28.4512 14.1454 28.4512 12.8944H31.6588V12.8303Z" fill="#0F0F0F"/>
<path d="M50.0705 4.71515C50.9365 5.10006 51.6422 5.70951 52.1875 6.54348C52.7007 7.28123 53.0215 8.1152 53.1818 9.07748C53.2781 9.65485 53.3101 10.4567 53.278 11.5153H44.2968C44.3609 12.7662 44.7779 13.6323 45.5798 14.1134C46.061 14.4342 46.6704 14.5625 47.344 14.5625C48.0817 14.5625 48.6591 14.37 49.1402 13.9851C49.3969 13.7926 49.6214 13.504 49.8139 13.1511H53.0856C52.9894 13.8889 52.6045 14.6266 51.8988 15.3644C50.8082 16.5512 49.2365 17.1606 47.2799 17.1606C45.644 17.1606 44.2006 16.6474 42.9496 15.653C41.6987 14.6587 41.0571 12.9907 41.0571 10.7134C41.0571 8.59634 41.6345 6.96047 42.7572 5.80573C43.8798 4.68308 45.3553 4.10571 47.1516 4.10571C48.2421 4.13779 49.2044 4.33024 50.0705 4.71515ZM45.227 7.47368C44.7779 7.95482 44.4893 8.56426 44.361 9.36616H49.9101C49.8459 8.50011 49.5573 7.85859 49.044 7.40953C48.5308 6.96047 47.8893 6.73593 47.1516 6.73593C46.3497 6.76801 45.7081 7.02462 45.227 7.47368Z" fill="#0F0F0F"/>
<path d="M58.4425 16.7758H55.2349V0.128418H58.4425V16.7758Z" fill="#0F0F0F"/>
<path d="M64.665 2.98307H61.4253V0H64.697V2.98307H64.665ZM61.4253 4.45856H64.697V16.7757H61.4253V4.45856Z" fill="#0F0F0F"/>
<path d="M77.5272 5.16412C78.3291 5.83771 78.7461 6.9283 78.7461 8.46795V16.7435H75.4422V9.26984C75.4422 8.62832 75.346 8.11511 75.1856 7.79435C74.8649 7.15283 74.2875 6.83207 73.3894 6.83207C72.2988 6.83207 71.5611 7.28113 71.1441 8.21133C70.9195 8.69247 70.8233 9.33399 70.8233 10.0717V16.7435H67.6157V4.45845H70.7271V6.2547C71.1441 5.61318 71.529 5.16412 71.8818 4.87544C72.5554 4.36222 73.3894 4.1377 74.3837 4.1377C75.6668 4.16977 76.7253 4.49052 77.5272 5.16412Z" fill="#0F0F0F"/>
<path d="M89.7804 4.71515C90.6465 5.10006 91.3521 5.70951 91.8974 6.54348C92.4106 7.28123 92.7314 8.1152 92.8918 9.07748C92.988 9.65485 93.0201 10.4567 92.988 11.5153H84.0068C84.0709 12.7662 84.4879 13.6323 85.2898 14.1134C85.7709 14.4342 86.3804 14.5625 87.054 14.5625C87.7917 14.5625 88.3691 14.37 88.8502 13.9851C89.1068 13.7926 89.3313 13.504 89.5238 13.1511H92.7956C92.6993 13.8889 92.3144 14.6266 91.6087 15.3644C90.5181 16.5512 88.9464 17.1606 86.9898 17.1606C85.3539 17.1606 83.9105 16.6474 82.6595 15.653C81.4086 14.6587 80.7671 12.9907 80.7671 10.7134C80.7671 8.59634 81.3444 6.96047 82.4671 5.80573C83.5897 4.68308 85.0653 4.10571 86.8615 4.10571C87.9521 4.13779 88.9144 4.33024 89.7804 4.71515ZM84.969 7.47368C84.52 7.95482 84.2313 8.56426 84.103 9.36616H89.6521C89.588 8.50011 89.2993 7.85859 88.7861 7.40953C88.2729 6.96047 87.6313 6.73593 86.8936 6.73593C86.0596 6.76801 85.4181 7.02462 84.969 7.47368Z" fill="#0F0F0F"/>
</svg>
