<svg width="293" height="440" viewBox="0 0 293 440" fill="none" xmlns="http://www.w3.org/2000/svg">
<path d="M220 22.6L219.403 23.402L219.412 23.4091L219.422 23.416L220 22.6ZM264.4 75.4L263.499 75.8338L263.504 75.8439L263.509 75.8539L264.4 75.4ZM286 145.6L285.01 145.739L285.011 145.747L285.012 145.754L286 145.6ZM286 294.4L285.012 294.246L285.011 294.253L285.01 294.261L286 294.4ZM264.4 365.2L263.506 364.753L263.502 364.76L264.4 365.2ZM220 418L220.586 418.81L220.589 418.808L220 418ZM73 418L72.4027 418.802L72.4123 418.809L72.422 418.816L73 418ZM28.6 365.2L27.699 365.634L27.7039 365.644L27.709 365.654L28.6 365.2ZM7 294.4L6.00974 294.539L6.01081 294.547L6.01199 294.554L7 294.4ZM7 145.6L6.01199 145.446L6.01081 145.453L6.00974 145.461L7 145.6ZM28.6 75.4L27.7055 74.9528L27.7022 74.9596L28.6 75.4ZM73 22.6L73.5861 23.4102L73.5892 23.408L73 22.6ZM184 368.8L184.643 369.566L184.652 369.558L184.661 369.551L184 368.8ZM207.4 334L206.473 333.624L206.471 333.631L206.468 333.638L207.4 334ZM220 282.4L219.007 282.278L219.007 282.278L220 282.4ZM220 158.2L219.007 158.322L219.008 158.324L220 158.2ZM207.4 106.6L206.465 106.954L206.469 106.965L206.473 106.976L207.4 106.6ZM184 71.8L183.339 72.5507L183.348 72.5583L183.357 72.5657L184 71.8ZM109 71.8L109.659 72.5526L109.661 72.5507L109 71.8ZM85.6 106.6L84.6733 106.224L84.6689 106.235L84.6647 106.246L85.6 106.6ZM73.6 158.2L74.5923 158.324L74.5926 158.322L73.6 158.2ZM73.6 282.4L72.6074 282.522L72.6074 282.522L73.6 282.4ZM85.6 334L84.6647 334.354L84.6706 334.369L84.6769 334.385L85.6 334ZM109 368.8L108.324 369.537L108.34 369.552L108.357 369.566L109 368.8ZM146.8 2.59997C176.645 2.59997 200.818 9.56257 219.403 23.402L220.597 21.7979C201.582 7.63739 176.955 0.599972 146.8 0.599972V2.59997ZM219.422 23.416C238.481 36.9161 253.171 54.3835 263.499 75.8338L265.301 74.9662C254.829 53.2165 239.919 35.4838 220.578 21.784L219.422 23.416ZM263.509 75.8539C274.255 96.947 281.424 120.239 285.01 145.739L286.99 145.461C283.376 119.761 276.146 96.2529 265.291 74.9461L263.509 75.8539ZM285.012 145.754C289.005 171.307 291 196.056 291 220H293C293 195.944 290.995 171.093 286.988 145.446L285.012 145.754ZM291 220C291 243.944 289.005 268.693 285.012 294.246L286.988 294.554C290.995 268.907 293 244.056 293 220H291ZM285.01 294.261C281.424 319.761 274.254 343.256 263.506 364.753L265.294 365.647C276.146 343.944 283.376 320.239 286.99 294.539L285.01 294.261ZM263.502 364.76C253.174 385.813 238.481 403.287 219.411 417.192L220.589 418.808C239.92 404.713 254.826 386.987 265.298 365.64L263.502 364.76ZM219.414 417.19C200.828 430.635 176.651 437.4 146.8 437.4V439.4C176.949 439.4 201.572 432.565 220.586 418.81L219.414 417.19ZM146.8 437.4C116.95 437.4 92.5678 430.635 73.578 417.184L72.422 418.816C91.8322 432.565 116.65 439.4 146.8 439.4V437.4ZM73.5973 417.198C54.9226 403.291 40.2223 385.811 29.491 364.746L27.709 365.654C38.5777 386.989 53.4774 404.709 72.4027 418.802L73.5973 417.198ZM29.501 364.766C19.1468 343.261 11.9741 319.757 7.98801 294.246L6.01199 294.554C10.0259 320.243 17.2532 343.939 27.699 365.634L29.501 364.766ZM7.99026 294.261C4.39625 268.703 2.6 243.95 2.6 220H0.600001C0.600001 244.05 2.40375 268.897 6.00974 294.539L7.99026 294.261ZM2.6 220C2.6 196.05 4.39625 171.297 7.99026 145.739L6.00974 145.461C2.40375 171.103 0.600001 195.95 0.600001 220H2.6ZM7.98801 145.754C11.974 120.244 19.1462 96.9418 29.4978 75.8404L27.7022 74.9596C17.2538 96.2581 10.026 119.756 6.01199 145.446L7.98801 145.754ZM29.4944 75.8472C40.2254 54.3852 54.922 36.9119 73.5861 23.4102L72.4139 21.7898C53.478 35.4881 38.5746 53.2148 27.7056 74.9528L29.4944 75.8472ZM73.5892 23.408C92.5777 9.56216 116.956 2.59997 146.8 2.59997V0.599972C116.644 0.599972 91.8223 7.6378 72.4108 21.792L73.5892 23.408ZM146.8 382.4C161.802 382.4 174.439 378.137 184.643 369.566L183.357 368.034C173.561 376.263 161.398 380.4 146.8 380.4V382.4ZM184.661 369.551C194.799 360.629 202.683 348.888 208.332 334.362L206.468 333.638C200.917 347.912 193.201 359.371 183.339 368.049L184.661 369.551ZM208.327 334.376C214.366 319.478 218.584 302.189 220.993 282.522L219.007 282.278C216.616 301.811 212.434 318.922 206.473 333.624L208.327 334.376ZM220.993 282.522C223.398 262.877 224.6 242.036 224.6 220H222.6C222.6 241.964 221.402 262.723 219.007 282.278L220.993 282.522ZM224.6 220C224.6 197.964 223.398 177.322 220.992 158.076L219.008 158.324C221.402 177.478 222.6 198.036 222.6 220H224.6ZM220.993 158.078C218.584 138.411 214.366 121.122 208.327 106.224L206.473 106.976C212.434 121.678 216.616 138.789 219.007 158.322L220.993 158.078ZM208.335 106.246C202.688 91.3198 194.799 79.5654 184.643 71.0343L183.357 72.5657C193.201 80.8346 200.913 92.2802 206.465 106.954L208.335 106.246ZM184.661 71.0493C174.457 62.0704 161.814 57.6 146.8 57.6V59.6C161.386 59.6 173.543 63.9296 183.339 72.5507L184.661 71.0493ZM146.8 57.6C131.393 57.6 118.548 62.066 108.339 71.0493L109.661 72.5507C119.452 63.934 131.807 59.6 146.8 59.6V57.6ZM108.341 71.0474C98.598 79.573 90.7175 91.3151 84.6733 106.224L86.5267 106.976C92.4825 92.2849 100.202 80.827 109.659 72.5526L108.341 71.0474ZM84.6647 106.246C79.0304 121.137 75.0149 138.418 72.6074 158.078L74.5926 158.322C76.9851 138.782 80.9696 121.663 86.5353 106.954L84.6647 106.246ZM72.6077 158.076C70.2019 177.322 69 197.964 69 220H71C71 198.036 72.1981 177.478 74.5923 158.324L72.6077 158.076ZM69 220C69 242.036 70.202 262.877 72.6074 282.522L74.5926 282.278C72.198 262.723 71 241.964 71 220H69ZM72.6074 282.522C75.0149 302.182 79.0304 319.463 84.6647 334.354L86.5353 333.646C80.9696 318.937 76.9851 301.818 74.5926 282.278L72.6074 282.522ZM84.6769 334.385C90.7219 348.893 98.5981 360.622 108.324 369.537L109.676 368.063C100.202 359.378 92.4781 347.907 86.5231 333.615L84.6769 334.385ZM108.357 369.566C118.566 378.141 131.405 382.4 146.8 382.4V380.4C131.795 380.4 119.434 376.259 109.643 368.034L108.357 369.566Z" fill="white"/>
</svg>
