<svg width="181" height="422" viewBox="0 0 181 422" fill="none" xmlns="http://www.w3.org/2000/svg">
<path d="M1.8 70.6V69.6H0.800002V70.6H1.8ZM80.4 55L79.9528 54.1056L79.9462 54.1089L79.9397 54.1122L80.4 55ZM108.6 33.4L107.86 32.7273L107.852 32.7367L107.843 32.7464L108.6 33.4ZM124.2 0.999971V-2.86102e-05H123.37L123.217 0.815683L124.2 0.999971ZM180 0.999971H181V-2.86102e-05H180V0.999971ZM180 421V422H181V421H180ZM105 421H104V422H105V421ZM105 124.6H106V123.6H105V124.6ZM1.8 124.6H0.800002V125.6H1.8V124.6ZM1.8 71.6C16.2558 71.6 30.314 70.3953 43.9738 67.9848L43.6262 66.0152C30.086 68.4046 16.1442 69.6 1.8 69.6V71.6ZM43.9738 67.9848C57.6604 65.5695 69.9591 61.5403 80.8603 55.8877L79.9397 54.1122C69.241 59.6597 57.1396 63.6305 43.6262 66.0152L43.9738 67.9848ZM80.8472 55.8944C92.1561 50.24 101.664 42.961 109.357 34.0536L107.843 32.7464C100.336 41.439 91.0439 48.56 79.9528 54.1056L80.8472 55.8944ZM109.34 34.0727C117.476 25.1226 122.752 14.1485 125.183 1.18426L123.217 0.815683C120.848 13.4514 115.724 24.0773 107.86 32.7273L109.34 34.0727ZM124.2 1.99997H180V-2.86102e-05H124.2V1.99997ZM179 0.999971V421H181V0.999971H179ZM180 420H105V422H180V420ZM106 421V124.6H104V421H106ZM105 123.6H1.8V125.6H105V123.6ZM2.8 124.6V70.6H0.800002V124.6H2.8Z" fill="white"/>
</svg>
