<svg width="200" height="100" viewBox="0 0 200 100" fill="none" xmlns="http://www.w3.org/2000/svg">
<mask id="mask0" style="mask-type:alpha" maskUnits="userSpaceOnUse" x="0" y="0" width="200" height="100">
<rect width="200" height="100" fill="#222222"/>
</mask>
<g mask="url(#mask0)">
<path fill-rule="evenodd" clip-rule="evenodd" d="M60.4658 56.5354C60.4658 56.5354 57.8127 59.5679 58.5441 59.7353C59.2754 59.9027 59.238 59.3163 59.1975 59.2332C59.1714 59.1797 59.3473 58.9357 59.6279 58.5462L59.628 58.546C59.784 58.3295 59.9724 58.068 60.1765 57.7694C60.6879 57.0222 61.7854 55.6427 62.537 55.7171C62.0872 56.9645 61.6544 58.1581 61.3034 59.1262C60.9737 60.0353 60.7162 60.7456 60.5843 61.1149C60.409 61.6061 60.1465 62.2244 59.8697 62.8763L59.8696 62.8765L59.8696 62.8766C59.1804 64.4998 58.4028 66.3313 58.6626 66.9284C59.0266 67.7653 60.9548 63.7963 62.5071 60.279C63.9634 56.9794 63.7998 56.2265 63.5721 55.1786L63.5716 55.176C63.5567 55.1077 63.5416 55.0382 63.5267 54.9666C63.5094 54.8811 63.4728 54.8009 63.4199 54.7325C63.8342 53.6177 64.194 52.6615 64.3424 52.2906C65.0363 52.7501 65.2808 52.1233 65.2808 52.1233C64.6681 52.1659 65.2389 50.576 65.9743 48.5276L65.9748 48.5262C66.7104 46.4771 66.3421 46.1008 66.0976 46.0592L66.0855 46.0571C65.8522 46.0168 65.8198 46.0112 65.1783 48.1498C64.858 49.2099 63.9068 51.9099 62.9363 54.5979C62.2157 54.7445 61.0391 55.8221 60.4594 56.5354H60.4658ZM62.9481 56.0124C63.3207 56.7564 62.4377 58.7474 61.4459 60.826C60.6024 62.5832 60.8818 61.7996 61.315 60.585L61.3152 60.5845L61.3174 60.5781L61.3176 60.5775C61.4501 60.2061 61.5967 59.7948 61.7299 59.4038C61.9872 58.6545 62.4655 57.3307 62.9481 56.0124Z" fill="white"/>
<path fill-rule="evenodd" clip-rule="evenodd" d="M67.0371 34.9966C67.9552 32.801 70.7097 23.9144 69.0773 23.5993C67.9445 23.3807 64.7947 31.9535 62.1219 39.2282L62.1217 39.2284L62.1216 39.2289L62.1212 39.2301C60.9427 42.4375 59.857 45.3924 59.0779 47.2298C55.859 54.8254 54.8725 58.7737 54.8191 60.7473C53.0127 64.503 50.8881 68.1723 49.435 67.7763C48.9791 67.6515 48.85 66.8693 48.9546 65.6397C55.1597 52.6867 57.7049 46.232 60.4498 39.0718C63.6121 30.811 65.9193 23.1781 66.4285 21.2964C66.9378 19.4147 67.1428 16.1732 64.8975 19.3097C62.6523 22.4462 58.3636 32.6959 52.9561 48.3807C49.5215 58.3361 47.982 63.3685 47.9382 65.9996C46.1969 69.5704 44.478 73.0012 43.7275 74.4562C43.7275 74.4562 41.6862 78.2852 41.3605 79.0368C41.3072 79.1598 41.2577 79.2694 41.2135 79.3673L41.2133 79.3678C40.9875 79.8675 40.9003 80.0607 41.1555 80.1658C41.3406 80.2294 41.5419 80.2221 41.7221 80.1452C41.9023 80.0684 42.0492 79.9272 42.1356 79.7479C42.1876 79.6411 42.3798 79.2391 42.6557 78.662C43.4614 76.9764 44.9811 73.7972 45.8083 72.1151C46.6261 70.4478 47.3926 68.8757 48.1122 67.3835C48.3258 68.0104 48.7154 68.3987 49.2781 68.6635C50.7407 69.3516 52.9304 65.9361 54.9568 61.9605C55.3369 63.0009 56.3447 62.3981 56.523 61.9726C55.8259 62.1071 55.4992 61.7374 55.4447 60.988C56.4953 58.8544 57.4804 56.6546 58.2698 54.8916L58.5633 54.2369C60.9121 49.0086 66.1136 37.1945 67.0328 34.9977L67.0371 34.9966ZM66.3218 34.8927C64.2815 39.493 57.8533 53.9743 57.8533 53.9743C57.6621 54.3949 57.4154 54.9635 57.1257 55.6312C56.7311 56.5407 56.2567 57.6341 55.7341 58.7879C56.336 56.2768 57.7853 52.5537 59.3402 48.5597C60.0715 46.681 60.8262 44.7424 61.527 42.8417C64.9958 33.4333 68.6695 24.6485 68.8734 24.6485C69.0773 24.6485 68.3631 30.2913 66.3218 34.8927ZM55.9722 41.6577C54.0426 47.2144 50.5898 57.1572 49.3666 63.0471C49.8719 61.9895 50.3559 60.9648 50.793 60.0231C53.0789 55.0924 56.3234 47.9092 59.996 37.9242C63.6687 27.9392 65.8125 21.1969 65.9652 20.2549C66.1178 19.313 65.4559 19.523 64.8431 20.7254C64.2303 21.9277 58.9754 32.9574 56.5775 39.9109C56.4002 40.425 56.1965 41.0117 55.9722 41.6576L55.9722 41.6577Z" fill="white"/>
<path fill-rule="evenodd" clip-rule="evenodd" d="M99.0159 53.0302C98.0779 53.4149 97.2507 53.7732 96.5829 54.0624C95.6157 54.4813 94.9828 54.7554 94.8318 54.7554C94.774 54.7554 94.6952 54.7393 94.6062 54.7212C94.3025 54.6592 93.8798 54.573 93.7642 55.018C93.6147 55.5934 93.1535 56.3242 92.388 56.4293C92.1473 56.4584 91.9033 56.4338 91.6727 56.357C92.4841 55.297 93.351 53.6921 92.1318 53.5531C91.2136 53.4492 90.9574 54.0246 90.7033 54.704C90.5158 55.1748 90.3856 55.6676 90.3157 56.1711C90.2185 56.151 90.1253 56.114 90.0403 56.0617C89.971 56.0192 89.9083 55.9777 89.8494 55.9386C89.4744 55.6901 89.2527 55.5431 88.4591 55.9052C88.3372 55.9609 88.1792 56.0442 87.9958 56.141C86.798 56.7728 84.5137 57.9778 84.0712 55.7958C83.5608 53.2796 82.8968 53.7041 81.7224 54.855C80.548 56.0059 77.8437 58.5669 78.4565 55.379C78.4993 55.2469 78.5466 55.1196 78.591 55.0003C78.7578 54.5515 78.8821 54.2171 78.5632 54.1756C78.231 54.1324 78.1687 54.302 78.0712 54.5672C78.0503 54.6241 78.0278 54.6854 78.0006 54.75C77.9674 54.8288 77.9415 54.9052 77.9171 54.9772L77.9168 54.978L77.9168 54.9781C77.8281 55.2394 77.7596 55.4416 77.4401 55.4818C77.0323 55.5333 76.2155 56.0048 75.9102 56.2662C75.6048 56.5277 74.9397 56.6327 74.5831 56.0573C74.2996 55.5999 74.3839 55.3996 74.4963 55.1322C74.5253 55.0633 74.5562 54.9899 74.5831 54.9064C74.6066 54.8236 74.6181 54.7377 74.6173 54.6515C74.724 54.029 74.5895 53.68 74.423 53.5072C74.3244 53.4074 74.2007 53.3378 74.0657 53.3059C73.9307 53.274 73.7898 53.2812 73.6585 53.3267C73.1557 53.4722 72.719 54.0137 72.5546 54.6778C72.5546 54.6818 72.552 54.6849 72.5491 54.6882C72.5466 54.6912 72.5439 54.6944 72.5429 54.6985C72.3217 55.2976 72.0483 55.875 71.7261 56.4238C71.6667 56.5209 71.6044 56.6239 71.5407 56.7293L71.5405 56.7296L71.5403 56.73L71.5401 56.7302C71.3305 57.0769 71.1049 57.45 70.9094 57.73C70.8816 57.7698 70.8501 57.8178 70.8167 57.8687C70.5435 58.2851 70.1382 58.9031 70.5016 56.9467C70.565 56.6053 70.6284 56.2803 70.6884 55.9729C71.0143 54.3032 71.2389 53.1525 70.808 52.7118C70.2976 52.19 69.7403 52.0839 69.2257 52.7118C68.7111 53.3398 68.0022 54.1756 68.0022 54.1756C68.0022 54.1756 69.4809 50.3597 71.1645 44.7125C72.8482 39.0652 73.1546 37.7109 73.1546 37.7109C73.6649 35.4134 73.7664 33.9475 73.461 33.9475C73.252 33.9475 73.109 34.6036 72.8434 35.8225C72.721 36.3843 72.5725 37.0657 72.3795 37.8574C71.7678 40.3671 68.536 51.2043 66.8994 54.9633C66.663 55.5062 66.4254 56.0428 66.1947 56.5637L66.1942 56.5648C64.8283 59.65 63.7074 62.1815 64.5367 62.1815C65.0686 62.1815 65.4689 61.0411 65.8168 60.0503L65.8169 60.0502L65.8169 60.05L65.8169 60.0499C65.9033 59.8038 65.9865 59.5669 66.0677 59.359C66.4755 58.3142 70.2507 50.6814 70.1492 53.8693C70.1185 54.8258 69.9722 55.8542 69.8444 56.7533L69.8444 56.7534C69.6439 58.163 69.4886 59.2551 69.8941 59.2551C70.5581 59.2551 70.9617 58.8361 71.5777 57.7902C72.1937 56.7443 72.2407 56.6962 72.2407 56.6962C72.2407 56.6962 72.8012 57.1677 73.618 56.1218C74.2308 56.9587 75.0465 57.8985 75.9668 57.1677C76.1992 56.9831 76.3858 56.8251 76.5439 56.6911C77.0119 56.2948 77.2304 56.1097 77.6493 56.0737C77.6493 56.7006 77.9045 58.9498 80.3537 56.9095C81.0734 56.3099 81.6037 55.81 81.9988 55.4375C82.9482 54.5424 83.1176 54.3827 83.2608 55.3429C83.4637 56.7028 84.0776 58.8973 86.7306 57.59C86.8104 57.5507 86.8875 57.5126 86.9622 57.4758C87.0304 57.4421 87.0965 57.4095 87.1606 57.3778L87.1686 57.3739C88.6924 56.6212 89.0841 56.4278 89.3423 56.5445C89.4316 56.5849 89.5049 56.6624 89.6036 56.7667C89.6303 56.7949 89.6589 56.8251 89.6901 56.857C89.6901 56.857 90.13 57.59 90.7246 57.3263C90.9102 57.4188 91.1172 57.4567 91.3225 57.4357C92.8521 57.3332 93.0384 57.1001 93.4731 56.5563C93.5023 56.5198 93.5326 56.4818 93.5646 56.4424C94.0717 55.8166 94.33 55.5004 94.5852 55.5004C94.8404 55.5004 96.7792 55.0311 99.2283 53.7227C101.677 52.4143 101.32 52.1025 99.0244 53.0433L99.0159 53.0302ZM91.1229 55.9194C91.0161 55.6919 91.0321 55.3954 91.2702 55.0202C91.9332 53.9743 92.4446 54.0782 91.7805 55.123C91.6021 55.4212 91.3803 55.6897 91.1229 55.9194ZM73.8657 54.8856C73.7084 55.1533 73.4881 55.3763 73.2251 55.5344C73.1183 55.6131 73.0447 55.6438 73.0116 55.6153C73.0116 55.6153 72.9913 55.6219 72.9902 55.6153C72.99 55.614 72.9899 55.6126 72.9898 55.6111C72.9897 55.6094 72.9897 55.6077 72.9897 55.606C72.9898 55.6015 72.9902 55.5967 72.9902 55.5923C72.99 55.5727 72.9925 55.5532 72.9977 55.5344C73.0628 54.7412 73.7696 53.9021 73.9052 54.0257V54.0312C73.9052 54.0312 73.9052 54.0443 73.9126 54.0487C74.076 54.2161 74.0717 54.4611 73.8561 54.8834L73.8657 54.8856Z" fill="white"/>
<path fill-rule="evenodd" clip-rule="evenodd" d="M121.028 32.3371C122.558 28.9457 123.517 25.0171 122.66 24.8082C121.825 24.6047 120.952 26.8197 117.178 36.3935C117.075 36.6529 116.971 36.9177 116.865 37.1879C114.92 42.1186 113.918 45.0516 113.258 47.2396C110.157 53.4754 106.979 59.6992 105.395 62.6782C101.979 69.1098 105.241 57.916 107.103 52.5587C107.837 50.444 108.547 48.2833 109.228 46.1391L111.032 41.9983C116.542 29.3461 118.176 22.7591 116.95 21.0864C116.037 19.8401 113.877 27.6484 112.119 34.0023L112.119 34.003C111.517 36.1767 110.963 38.1801 110.522 39.5925C110.383 40.0374 110.217 40.5681 110.029 41.1683C109.526 42.7716 108.869 44.8704 108.161 47.151C108.001 47.5163 107.844 47.8711 107.694 48.2134L107.693 48.2149C106.822 50.1936 106.135 51.7535 105.828 52.5051C105.1 54.2902 103.233 58.3277 101.409 62.2719L101.409 62.2731L101.408 62.2738L101.408 62.2741C100.293 64.6865 99.1933 67.0637 98.3806 68.8692C98.3806 68.8692 94.3236 78.2163 93.9713 79.1779C93.7774 79.7071 93.6056 80.3187 93.4663 80.8141L93.4663 80.8143C93.3525 81.2192 93.2605 81.5464 93.1962 81.6876C93.0532 82.0016 93.2774 82.1055 93.5432 81.8758C93.809 81.646 93.8902 81.4163 94.0941 80.5794C94.2754 79.8354 95.8274 76.449 97.2454 73.3552L97.3125 73.2087C97.4668 72.872 97.6192 72.5394 97.7678 72.2146C98.8974 69.7476 102.58 61.3621 106.645 52.0554C104.735 58.253 102.952 64.2339 103.066 64.5861C104.019 67.5165 107.292 60.7697 109.712 55.7814L109.713 55.7801C109.883 55.4297 110.048 55.0879 110.209 54.7587C110.514 54.1315 110.888 53.3637 111.312 52.4939C111.654 51.7934 112.027 51.0268 112.423 50.2142C112.165 51.1988 111.917 52.1408 111.576 53.2774C110.31 57.4806 110.964 58.6927 111.801 58.6927C112.638 58.6927 112.402 58.16 112.097 58.16C110.931 58.1089 111.526 55.8954 113.282 49.3666L113.321 49.2209C113.498 48.5645 113.709 47.8479 113.944 47.0963C116.768 41.2893 120.029 34.5568 121.025 32.3459L121.028 32.3371ZM121.127 30.5386C120.486 32.3601 118.06 37.4756 115.255 43.2006C116.913 38.5258 119.006 33.3358 120.331 30.0498L120.331 30.0495C120.792 28.9054 121.16 27.9922 121.385 27.4119C122.559 24.3804 122.608 26.3562 121.13 30.5386H121.127ZM110.758 41.1734C111.931 37.2822 112.977 33.6133 113.846 30.564C114.932 26.7549 115.743 23.9126 116.18 22.8116C117.303 19.9891 116.385 25.3213 115.058 30.1305C114.437 32.3852 112.626 36.8116 110.758 41.1734Z" fill="white"/>
<path fill-rule="evenodd" clip-rule="evenodd" d="M133.981 54.3813C133.605 54.2955 133.261 54.1772 132.915 54.0581C132.083 53.7717 131.239 53.481 129.899 53.6286C128.002 53.8376 127.839 53.796 127.511 53.3989C127.462 53.3397 127.424 53.2828 127.389 53.23C127.188 52.9283 127.075 52.7584 125.511 53.0433C124.964 53.143 124.544 53.2407 124.206 53.3194C123.407 53.5052 123.062 53.5855 122.574 53.3365C121.879 52.982 121.593 52.7501 121.553 52.4154C121.512 52.0806 120.776 51.8301 120.776 52.353C120.776 52.8759 120.696 53.1265 120.287 53.4623C119.878 53.7982 118.94 54.3813 118.736 54.4469C118.64 54.4765 118.532 54.4327 118.375 54.308C118.24 53.8343 117.948 53.4186 117.414 53.3518C117.174 53.1057 116.748 52.7107 116.454 52.7107C116.026 52.7107 114.862 53.0236 114.33 54.4666C113.798 55.9096 113.796 57.52 115.473 57.52C117.054 57.52 117.94 56.257 118.274 55.78L118.275 55.7793L118.276 55.7766C118.296 55.7488 118.314 55.7237 118.329 55.7017C118.408 55.5923 118.462 55.3604 118.47 55.0858C118.872 55.0146 119.255 54.8605 119.597 54.6329C120.432 54.0986 120.824 53.7497 121.032 53.5644C121.231 53.3874 121.262 53.3597 121.352 53.4623C121.535 53.6724 122.577 54.6329 124.044 54.1723C125.511 53.7117 126.699 53.5881 126.902 53.8802C126.911 53.8929 126.92 53.9062 126.93 53.9199C127.136 54.2215 127.494 54.7446 129.27 54.5071C131.026 54.2723 131.466 54.4433 132.062 54.6752C132.097 54.6886 132.132 54.7023 132.168 54.716C132.273 54.7562 132.374 54.7984 132.473 54.8398C132.997 55.0581 133.469 55.2547 134.09 55.0092C134.191 54.9693 134.286 54.934 134.373 54.9021C134.918 54.7008 135.098 54.6343 133.983 54.3813H133.981ZM117.675 55.0924C117.675 55.0924 117.656 56.0124 116.247 56.5562C114.517 57.2246 114.533 55.6361 115.104 54.4228C115.675 53.2096 116.45 53.0433 116.757 53.4612C116.042 54.8834 117.675 55.0924 117.675 55.0924Z" fill="white"/>
<path fill-rule="evenodd" clip-rule="evenodd" d="M143.342 51.7469C143.342 51.1616 142.567 51.0566 142.199 51.0566C141.832 51.0566 140.755 51.3224 140.698 52.5751C140.499 52.6174 140.285 52.6674 140.067 52.7181C139.936 52.7487 139.804 52.7796 139.673 52.8092C139.621 52.3278 139.266 51.8935 138.199 51.8935C136.199 51.8935 136.491 53.6713 138.281 53.6713C138.476 53.6625 138.67 53.6402 138.862 53.6045C138.798 53.6891 138.727 53.7675 138.649 53.8387C137.466 54.925 135.792 54.6329 135.792 52.8344C135.792 52.4996 135.874 52.1233 136.078 52.1233C136.136 52.1233 136.194 52.1402 136.254 52.1576C136.404 52.2015 136.567 52.2488 136.771 52.039C137.056 51.7458 136.893 51.2032 136.159 51.2032C135.424 51.2032 134.894 52.248 134.894 52.8344C134.894 53.2938 135.261 55.2182 136.853 55.2182C138.445 55.2182 139.057 54.4228 139.383 53.9218C139.471 53.7822 139.541 53.6319 139.591 53.4743C139.976 53.3989 140.382 53.3146 140.766 53.2326C141.01 54.1253 141.866 54.4819 143.136 55.0092C144.646 55.6361 145.504 56.473 144.035 56.8493C142.566 57.2257 141.748 57.2257 141.422 57.1414C141.297 57.1091 141.178 57.0586 141.06 57.0086C140.87 56.9283 140.684 56.8493 140.483 56.8493C140.156 56.8493 139.544 57.9784 141.299 57.9784C143.055 57.9784 145.544 57.811 145.544 56.1393C145.544 55.04 144.017 54.4976 143.107 54.1742C142.874 54.0915 142.681 54.0231 142.565 53.9634C142.138 53.7446 141.795 53.4962 141.655 53.0455L141.869 53.0017C142.723 52.8344 143.339 52.3322 143.339 51.7469H143.342ZM142.403 51.9143C142.403 52.1856 142.234 52.2928 141.605 52.4121C141.691 51.736 142.403 51.5992 142.403 51.9143ZM139.014 52.9448C138.48 53.0346 138.077 53.0378 138.077 52.7917C138.077 52.4361 138.825 52.5313 139.014 52.9448Z" fill="white"/>
<path d="M158.971 53.0017C158.808 52.5412 157.951 52.2064 156.522 52.6243C155.092 53.0422 152.278 53.6713 150.65 53.5466C149.022 53.4218 148.202 53.5028 147.59 53.6713C146.978 53.8397 145.385 54.0892 145.385 53.0017C145.385 52.248 146.239 52.2064 146.447 52.2064C146.654 52.2064 147.099 52.3738 147.14 52.4996C147.182 52.6254 147.528 53.1057 147.712 53.0466C147.895 52.9875 147.834 51.5828 146.365 51.5828C144.896 51.5828 144.733 53.0882 144.733 53.0882C144.733 53.715 145.344 54.5104 146.466 54.5104C147.274 54.5104 147.585 54.3798 147.834 54.2757C147.93 54.2353 148.017 54.1988 148.119 54.1756C148.487 54.0925 149.467 54.0925 149.874 54.2391C150.28 54.3857 151.507 54.762 153.344 54.3003C154.078 54.1161 154.927 53.8727 155.707 53.6493L155.707 53.6493C156.882 53.3128 157.898 53.0216 158.119 53.0466C158.228 53.059 158.363 53.1009 158.494 53.1417C158.803 53.2381 159.091 53.3279 158.973 53.005L158.971 53.0017Z" fill="white"/>
<path d="M104.178 71.5856H104.543L104.015 67.8091H103.953L102.47 70.9095L100.974 67.8091H100.91L100.388 71.5856H100.745L101.101 68.8615L102.422 71.5856H102.515L103.819 68.8823L104.178 71.5856Z" fill="white"/>
<path fill-rule="evenodd" clip-rule="evenodd" d="M108.337 67.8568C108.576 67.9534 108.793 68.0978 108.976 68.2817C109.246 68.5597 109.431 68.9133 109.506 69.2983C109.582 69.6832 109.545 70.0824 109.4 70.4459C109.255 70.8093 109.008 71.1209 108.691 71.3415C108.374 71.5621 108.001 71.682 107.618 71.6862C107.362 71.6918 107.108 71.6443 106.871 71.5467C106.634 71.4492 106.418 71.3035 106.237 71.1184C106.053 70.9384 105.908 70.7209 105.81 70.48C105.712 70.2391 105.665 69.98 105.67 69.7192C105.668 69.3681 105.755 69.0225 105.922 68.716C106.087 68.4119 106.329 68.1589 106.622 67.9836C106.915 67.8082 107.249 67.7169 107.588 67.7194C107.844 67.7135 108.099 67.7602 108.337 67.8568ZM108.392 71.1053C108.631 70.9691 108.828 70.7681 108.963 70.5244V70.5189C109.099 70.2694 109.17 69.9877 109.167 69.7017C109.178 69.4179 109.111 69.1365 108.973 68.8901C108.835 68.6437 108.632 68.4423 108.388 68.309C108.148 68.1662 107.877 68.0907 107.6 68.0902C107.325 68.0904 107.056 68.166 106.82 68.309C106.582 68.4484 106.385 68.6515 106.251 68.8965C106.113 69.1475 106.042 69.4312 106.045 69.7192C106.041 69.9294 106.079 70.1382 106.156 70.3329C106.233 70.5276 106.348 70.7041 106.495 70.8515C106.638 71.0027 106.81 71.122 107 71.202C107.19 71.282 107.394 71.321 107.6 71.3164C107.877 71.318 108.15 71.2452 108.392 71.1053Z" fill="white"/>
<path d="M114.462 71.5856H114.829L114.3 67.8091H114.237L112.754 70.9095L111.258 67.8091H111.195L110.672 71.5856H111.03L111.387 68.8615L112.706 71.5856H112.799L114.105 68.8823L114.462 71.5856Z" fill="white"/>
<path fill-rule="evenodd" clip-rule="evenodd" d="M118.62 67.8555C118.859 67.9521 119.078 68.097 119.261 68.2817C119.532 68.5601 119.717 68.9145 119.792 69.3001C119.867 69.6858 119.83 70.0856 119.684 70.4494C119.538 70.8131 119.29 71.1246 118.972 71.3446C118.654 71.5647 118.28 71.6835 117.896 71.6862C117.64 71.6919 117.386 71.6446 117.149 71.547C116.912 71.4494 116.696 71.3036 116.515 71.1184C116.331 70.9384 116.186 70.7209 116.088 70.48C115.991 70.2391 115.943 69.98 115.949 69.7192C115.947 69.3682 116.034 69.0227 116.2 68.716C116.366 68.409 116.61 68.1544 116.906 67.9797C117.198 67.8068 117.53 67.7169 117.867 67.7194C118.124 67.7126 118.38 67.7589 118.62 67.8555ZM118.677 71.1053C118.916 70.9699 119.113 70.7687 119.245 70.5244V70.5189C119.383 70.27 119.455 69.988 119.452 69.7017C119.464 69.4178 119.396 69.1364 119.258 68.89C119.12 68.6436 118.917 68.4422 118.672 68.309C118.433 68.1659 118.161 68.0904 117.884 68.0902C117.61 68.0904 117.341 68.166 117.105 68.309C116.867 68.4484 116.67 68.6515 116.536 68.8965C116.398 69.1475 116.327 69.4312 116.33 69.7192C116.326 69.9293 116.363 70.1381 116.441 70.3327C116.518 70.5274 116.633 70.7039 116.779 70.8515C116.922 71.0027 117.094 71.122 117.284 71.202C117.474 71.282 117.679 71.321 117.884 71.3164C118.162 71.3181 118.435 71.2453 118.677 71.1053Z" fill="white"/>
<path d="M121.608 69.0715C121.539 69.0104 121.482 68.9354 121.442 68.8512C121.402 68.7669 121.379 68.6751 121.374 68.5814C121.372 68.5153 121.385 68.4495 121.411 68.3889C121.437 68.3283 121.476 68.2745 121.525 68.2314C121.623 68.1437 121.751 68.0972 121.881 68.1012C122.023 68.1009 122.161 68.1512 122.271 68.2434C122.379 68.3407 122.475 68.4509 122.557 68.5716L122.857 68.3375C122.564 67.9254 122.244 67.7194 121.896 67.7194C121.738 67.7179 121.582 67.7574 121.443 67.8342C121.305 67.9046 121.19 68.0144 121.112 68.1503C121.033 68.2862 120.995 68.4424 121.002 68.6C121.003 68.809 121.072 69.0118 121.197 69.1766C121.373 69.3853 121.574 69.5692 121.797 69.7236C122.026 69.8848 122.231 70.0794 122.404 70.3012C122.483 70.4088 122.527 70.5388 122.529 70.6732C122.53 70.7846 122.5 70.894 122.444 70.9893C122.384 71.0957 122.297 71.1829 122.191 71.2409C122.086 71.2989 121.967 71.3254 121.847 71.3175C121.558 71.3175 121.302 71.1108 121.082 70.6972L120.769 70.8898C121.052 71.4215 121.423 71.6873 121.88 71.6873C122.151 71.6924 122.413 71.5883 122.609 71.3974C122.711 71.3072 122.792 71.1954 122.848 71.0698C122.903 70.9441 122.931 70.8077 122.93 70.6699C122.922 70.4111 122.825 70.1634 122.656 69.9708C122.489 69.7781 122.3 69.606 122.094 69.4577C121.822 69.251 121.667 69.1295 121.618 69.0792L121.608 69.0715Z" fill="white"/>
<path fill-rule="evenodd" clip-rule="evenodd" d="M125.624 67.8091H125.713L127.434 71.5845H127.037L126.459 70.3439H124.87L124.294 71.5845H123.883L125.624 67.8091ZM125.668 68.6099L125.034 69.9741L126.295 69.9785L125.668 68.6099Z" fill="white"/>
<path d="M76.2433 71.5856H76.6084L76.0799 67.8091H76.0169L74.534 70.9095L73.0382 67.8091H72.9752L72.4521 71.5856H72.8108L73.1664 68.8615L74.487 71.5856H74.5788L75.8845 68.8823L76.2433 71.5856Z" fill="white"/>
<path d="M77.9291 67.8091H78.2953V71.5856H77.9291V67.8091Z" fill="white"/>
<path d="M82.0459 71.5856H82.4142V67.8091H82.0459V69.3899H80.1668V67.8091H79.7985V71.5856H80.1668V69.763H82.0459V71.5856Z" fill="white"/>
<path fill-rule="evenodd" clip-rule="evenodd" d="M85.3128 67.8091H85.4014L87.1214 71.5845H86.7264L86.1466 70.3439H84.5591L83.9815 71.5845H83.5715L85.3128 67.8091ZM85.3587 68.6099L84.7245 69.9741L85.9833 69.9785L85.3587 68.6099Z" fill="white"/>
<path d="M91.0908 71.5856H91.1741V67.8091H90.8079V70.6994L88.3598 67.8091H88.2798V71.5856H88.6588V68.7302L91.0908 71.5856Z" fill="white"/>
<path fill-rule="evenodd" clip-rule="evenodd" d="M95.1961 67.8551C95.436 67.9517 95.6545 68.0968 95.8386 68.2817C96.1097 68.5603 96.2945 68.9148 96.3695 69.3007C96.4446 69.6865 96.4067 70.0865 96.2605 70.4504C96.1144 70.8142 95.8665 71.1256 95.5481 71.3455C95.2297 71.5654 94.8549 71.684 94.471 71.6862C94.2153 71.6917 93.9611 71.6442 93.7237 71.5466C93.4864 71.449 93.2706 71.3034 93.0894 71.1184C92.9056 70.9381 92.7604 70.7207 92.663 70.4798C92.5656 70.2389 92.5181 69.9799 92.5236 69.7192C92.5213 69.3678 92.609 69.0219 92.7777 68.716C92.9411 68.4085 93.1847 68.1536 93.4813 67.9797C93.7732 67.8067 94.1049 67.7168 94.4421 67.7194C94.6998 67.7123 94.9562 67.7585 95.1961 67.8551ZM95.2525 71.1053C95.4918 70.9698 95.6896 70.7686 95.8236 70.5244V70.5189C95.9599 70.2679 96.0295 69.9846 96.0254 69.6973C96.0373 69.4137 95.9707 69.1324 95.8331 68.886C95.6956 68.6395 95.4928 68.438 95.2482 68.3047C95.0081 68.162 94.7357 68.0866 94.4582 68.0859C94.1844 68.0879 93.9159 68.1633 93.6793 68.3045C93.4428 68.4458 93.2464 68.648 93.1097 68.891C92.9725 69.1422 92.9022 69.4259 92.9058 69.7137C92.9013 69.9247 92.9388 70.1345 93.0161 70.3301C93.0934 70.5257 93.2088 70.7032 93.3553 70.8515C93.4984 71.0027 93.6704 71.122 93.8605 71.202C94.0506 71.282 94.2548 71.321 94.4603 71.3164C94.7378 71.3182 95.0109 71.2454 95.2525 71.1053Z" fill="white"/>
</g>
</svg>
