<svg width="200" height="100" viewBox="0 0 200 100" fill="none" xmlns="http://www.w3.org/2000/svg">
<mask id="mask0" style="mask-type:alpha" maskUnits="userSpaceOnUse" x="0" y="0" width="200" height="100">
<rect width="200" height="100" fill="#222222"/>
</mask>
<g mask="url(#mask0)">
<path d="M50.4069 52.2142L50.4068 52.214L50.4014 52.2066L50.4001 52.2049C49.8626 51.4726 49.3174 50.7296 48.7564 49.971L48.7569 49.9738C48.7569 49.9738 42.1161 41.0973 41.7281 40.5576C40.2079 38.602 38.6791 37.6145 36.8381 36.9071C33.9836 35.6982 31.0716 35.6841 29.058 36.4027L29 36.294C34.8944 33.6473 41.1994 35.2733 45.0878 39.2416C45.6574 39.7404 47.5274 41.8338 47.7999 42.1813C48.8295 43.3655 49.7498 44.6366 50.6699 45.9075C51.6821 47.3057 52.6942 48.7037 53.8517 49.9856V43.1745C53.8448 42.8092 53.7205 42.4569 53.4987 42.174L56.0888 42.1768C55.8704 42.4604 55.7473 42.8109 55.7385 43.1745V59.2751C53.858 56.9166 52.1746 54.6228 50.4071 52.2144L50.4069 52.2142Z" fill="white"/>
<path d="M53.6518 59.047L47.1878 50.4541V50.4564C46.6347 49.708 46.0969 48.975 45.5667 48.2524L45.5666 48.2523L45.5662 48.2518L45.5661 48.2516L45.5658 48.2512C43.7875 45.8277 42.0956 43.5219 40.2058 41.1523V57.2512C40.1967 57.6148 40.0732 57.9652 39.8543 58.2483L42.4509 58.2533C42.2267 57.9709 42.1004 57.6178 42.0925 57.2512V50.4396C43.2481 51.7196 44.2586 53.1156 45.2694 54.5118L45.2694 54.5119L45.2695 54.5119C46.8589 56.7075 48.4488 58.9038 50.6039 60.6511C55.6046 64.8817 63.5545 66.5637 69.5 63.2467L69.4537 63.175C64.202 65.3334 56.9298 63.3392 53.6518 59.047Z" fill="white"/>
<path fill-rule="evenodd" clip-rule="evenodd" d="M168.208 55.216H169.259C169.739 55.216 169.985 55.447 169.985 55.8359C169.985 56.2759 169.694 56.3892 169.623 56.4144V56.4205C169.755 56.4402 169.949 56.5433 169.949 56.9059C169.949 57.1727 169.985 57.4165 170.069 57.5101H169.656C169.597 57.4098 169.597 57.2859 169.597 57.1738C169.597 56.7529 169.515 56.5657 169.16 56.5657H168.594V57.5113H168.208V55.216ZM168.595 56.2597H169.226C169.468 56.2597 169.602 56.1347 169.602 55.8937C169.602 55.6017 169.42 55.5439 169.22 55.5439H168.595V56.2597Z" fill="white"/>
<path fill-rule="evenodd" clip-rule="evenodd" d="M167.443 55.3095C167.23 55.6427 167.116 56.0344 167.116 56.4351C167.116 56.9722 167.32 57.4873 167.685 57.867C168.049 58.2468 168.542 58.4602 169.057 58.4602C169.442 58.4603 169.817 58.3415 170.137 58.119C170.456 57.8965 170.705 57.5801 170.852 57.21C170.999 56.8398 171.038 56.4325 170.963 56.0395C170.888 55.6465 170.703 55.2856 170.431 55.0022C170.16 54.7189 169.813 54.526 169.437 54.4478C169.06 54.3697 168.669 54.4099 168.315 54.5632C167.96 54.7166 167.656 54.9763 167.443 55.3095ZM170.026 57.9501C169.739 58.1504 169.401 58.2573 169.055 58.2573C168.592 58.2571 168.147 58.065 167.82 57.723C167.492 57.3811 167.308 56.9175 167.308 56.434C167.308 56.0735 167.41 55.7212 167.603 55.4215C167.795 55.1218 168.068 54.8883 168.387 54.7504C168.706 54.6126 169.058 54.5765 169.397 54.6469C169.735 54.7173 170.047 54.891 170.291 55.1459C170.535 55.4008 170.702 55.7256 170.769 56.0792C170.837 56.4327 170.802 56.7992 170.67 57.1322C170.537 57.4652 170.313 57.7499 170.026 57.9501Z" fill="white"/>
<path fill-rule="evenodd" clip-rule="evenodd" d="M151.355 50.1509C151.341 58.283 158.193 58.5179 159.197 58.5112C160.2 58.5179 167.053 58.283 167.038 50.1509C167.024 42.0395 160.248 41.9269 159.196 41.9336C158.144 41.9269 151.369 42.0395 151.355 50.1509ZM159.254 56.2654L159.247 56.2654C159.239 56.2653 159.232 56.2653 159.226 56.2653H159.168C159.16 56.2653 159.15 56.2653 159.14 56.2654C158.613 56.2686 155.567 56.2868 155.596 49.8354C155.622 43.8682 158.57 43.9085 159.169 43.9167C159.181 43.9169 159.192 43.917 159.203 43.9171L159.2 43.9172H159.205L159.203 43.9171C159.208 43.9171 159.213 43.917 159.218 43.917L159.236 43.9167C159.834 43.9085 162.771 43.8683 162.797 49.8354C162.825 56.2869 159.778 56.2686 159.254 56.2654Z" fill="white"/>
<path d="M149.39 42.8472V42.8508C145.986 41.8848 140.544 40.96 138.399 44.3117C137.602 45.6928 137.397 48.1903 139.673 49.6476C140.663 50.4189 141.924 51.0163 143.076 51.5618C144.596 52.2823 145.926 52.9122 146.189 53.733C146.482 54.5087 146.142 55.2715 145.589 55.8012C143.561 57.6508 140.293 56.4856 138.197 55.572L138.187 57.5611C140.468 58.5706 143.354 58.829 145.912 58.2763C147.669 57.8941 149.634 56.383 149.956 54.5087C150.273 52.6697 149.875 51.4681 148.631 50.4407C147.512 49.4876 146.249 48.9236 145.068 48.3964C144.249 48.0308 143.47 47.6829 142.806 47.2352C141.662 46.3794 141.836 45.264 142.415 44.657C143.743 43.1979 146.487 43.8334 147.24 44.0077C147.259 44.0122 147.278 44.0164 147.294 44.0203C147.936 44.2034 148.35 44.3928 148.864 44.6276C149.026 44.7017 149.198 44.7805 149.39 44.8649V42.8508L149.393 42.8517L149.39 42.8472Z" fill="white"/>
<path d="M136.241 44.8649V42.8466C132.838 41.8803 127.392 40.9539 125.247 44.3067C124.45 45.6877 124.244 48.1853 126.52 49.6425C127.511 50.4163 128.774 51.0145 129.927 51.5605C131.447 52.2802 132.775 52.9093 133.039 53.7302C133.332 54.5059 132.992 55.2687 132.439 55.7984C130.412 57.648 127.144 56.4828 125.048 55.5692L125.037 57.5583C127.318 58.5678 130.204 58.8262 132.762 58.2735C134.519 57.8913 136.484 56.3802 136.806 54.5059C137.123 52.6669 136.725 51.4653 135.481 50.4379C134.363 49.4851 133.099 48.9211 131.919 48.3941C131.1 48.0283 130.32 47.6803 129.657 47.2324C128.513 46.3766 128.686 45.2612 129.265 44.6542C130.593 43.1936 133.344 43.8339 134.094 44.0085C134.112 44.0127 134.129 44.0166 134.145 44.0203C134.788 44.2037 135.202 44.3934 135.717 44.6287C135.878 44.7025 136.05 44.7809 136.241 44.8649Z" fill="white"/>
<path d="M82.3813 42.8472V44.8649C82.1897 44.7808 82.0183 44.7023 81.8567 44.6284C81.3428 44.3932 80.9286 44.2037 80.2855 44.0203C80.2688 44.0165 80.2507 44.0123 80.2313 44.0078C79.4797 43.8336 76.7352 43.1976 75.4062 44.657C74.8269 45.264 74.6539 46.3794 75.7979 47.2353C76.4614 47.6828 77.2405 48.0307 78.0593 48.3963C79.2399 48.9235 80.5031 49.4875 81.6219 50.4407C82.8633 51.4636 83.2609 52.6653 82.9439 54.5042C82.6215 56.3785 80.6568 57.8896 78.9007 58.2718C76.3418 58.8245 73.4572 58.5661 71.176 57.5566L71.1862 55.5675C73.282 56.4811 76.5497 57.6463 78.5777 55.7967C79.1307 55.2671 79.4709 54.5042 79.1775 53.7285C78.9151 52.9088 77.588 52.2803 76.0694 51.561C74.9164 51.015 73.653 50.4166 72.6613 49.6425C70.3845 48.1853 70.5897 45.6877 71.3877 44.3067C73.5329 40.955 78.9781 41.8809 82.3813 42.8472Z" fill="white"/>
<path d="M62.9849 56.6156C64.3774 56.7609 65.9804 56.6567 67.4969 56.5582C68.2388 56.51 68.96 56.4631 69.6257 56.4474L69.6289 58.2489H58.6451C58.8704 57.9682 58.9932 57.6133 58.9917 57.2473V43.179C58.9934 42.8127 58.8706 42.4576 58.6451 42.1768H69.6289L69.6257 43.9777C68.963 43.9617 68.2452 43.9151 67.5067 43.8671C65.9872 43.7684 64.38 43.664 62.9849 43.8095C62.9849 43.8095 62.9779 48.7766 62.9779 49.1168C64.6846 49.2289 66.6911 49.2474 68.285 49.0271V50.9373C66.7266 50.7865 64.6722 50.7506 62.9811 50.8465L62.9838 56.6145L62.9849 56.6156Z" fill="white"/>
<path d="M121.421 56.5582C119.905 56.6567 118.302 56.7608 116.91 56.6156L116.908 56.6145V50.8465C118.599 50.7506 120.651 50.7865 122.212 50.9373V49.0271C120.618 49.2474 118.612 49.2289 116.906 49.1168C116.906 48.7766 116.912 43.8095 116.912 43.8095C118.307 43.664 119.914 43.7684 121.433 43.8671C122.172 43.9151 122.89 43.9617 123.553 43.9777V42.1768H112.57C112.795 42.4576 112.918 42.8127 112.917 43.179V57.2473C112.918 57.6132 112.796 57.9679 112.571 58.2489H123.551V56.4474C122.885 56.4631 122.164 56.51 121.421 56.5582Z" fill="white"/>
<path fill-rule="evenodd" clip-rule="evenodd" d="M101.988 51.6043V57.2389C101.987 57.6071 102.11 57.964 102.335 58.2477H97.6372C97.862 57.9668 97.9845 57.6121 97.9833 57.2461V43.1779C97.9847 42.8115 97.8617 42.4565 97.6361 42.1757H105.643C107.813 42.2682 110.115 43.5209 110.189 46.2488C110.206 48.4779 109.261 49.758 107.843 50.4676C107.725 50.5236 107.662 50.5492 107.621 50.5657C107.566 50.5879 107.551 50.594 107.498 50.6357C108.505 53.0868 109.421 54.877 110.637 57.2495C110.806 57.6381 111.06 57.9808 111.377 58.2511H106.527C106.527 58.2511 106.815 57.8588 106.518 57.2495C106.518 57.2495 104.798 53.0178 103.992 51.611H101.99L101.988 51.6043ZM101.967 44.2058V49.619C102.119 49.6197 102.276 49.6226 102.434 49.6255C103.651 49.6483 105.001 49.6735 105.816 48.6948C106.594 47.6141 106.468 46.2079 105.943 45.2225C105.022 43.5971 101.967 44.2058 101.967 44.2058Z" fill="white"/>
<path fill-rule="evenodd" clip-rule="evenodd" d="M89.1693 58.2494C88.9449 57.9654 88.8223 57.6086 88.8227 57.2405H88.8249L88.8093 52.3592C88.8093 52.3592 93.997 52.6821 95.5635 50.4962C96.7392 49.1028 96.808 46.8664 96.3244 45.1368C95.6758 43.1784 94.1749 42.2441 92.2312 42.1774H84.4695C84.6948 42.4583 84.8175 42.8133 84.8161 43.1796V57.2478C84.8173 57.6139 84.6946 57.9686 84.4695 58.2494H89.1693ZM88.791 50.2462L88.8012 44.2176C88.8012 44.2176 91.8465 43.6044 92.7675 45.2265C93.2915 46.2124 93.4183 48.3091 92.6407 49.3909C91.7485 50.461 90.2286 50.3506 88.9195 50.2555C88.8764 50.2524 88.8336 50.2492 88.791 50.2462Z" fill="white"/>
</g>
</svg>
