<svg width="200" height="100" viewBox="0 0 200 100" fill="none" xmlns="http://www.w3.org/2000/svg">
<mask id="mask0" style="mask-type:alpha" maskUnits="userSpaceOnUse" x="0" y="0" width="200" height="100">
<rect width="200" height="100" fill="#222222"/>
</mask>
<g mask="url(#mask0)">
<path d="M125.242 35.4359H130.827C132.679 35.4398 134.531 35.4398 136.384 35.4359L136.849 35.3906C137.221 35.316 137.465 35.0577 137.478 34.666C137.499 34.0721 137.506 33.4788 137.472 32.8894C137.439 32.2662 137.115 31.9644 136.516 32.0033C135.727 32.0543 134.939 32.1364 134.152 32.2184L133.766 32.2585C132.872 32.3492 131.978 32.4416 131.085 32.5341L130.088 32.6372C129.729 32.6742 129.37 32.7111 129.011 32.7478C127.685 32.8849 126.355 33.0164 125.029 33.1573C124.611 33.2026 124.379 33.4667 124.369 33.8941C124.364 34.2092 124.362 34.525 124.373 34.8402C124.383 35.1457 124.545 35.3396 124.832 35.3964L125.242 35.4359Z" fill="white"/>
<path d="M65.9709 38.6478V51.3565C65.971 51.6796 65.9712 52.0053 65.8048 52.3017C65.5839 52.6914 65.2512 52.9192 64.8168 52.9364C64.2632 52.9581 63.7096 52.9619 63.1602 52.9364C62.545 52.9089 62.0966 52.4426 62.0265 51.8124L62.0056 51.4124V33.7716C62.0056 33.3526 62.0603 32.9513 62.3611 32.6336C62.4696 32.5151 62.5998 32.4202 62.7441 32.3545C62.8884 32.2888 63.0439 32.2535 63.2014 32.2509C63.3516 32.2487 63.5018 32.246 63.652 32.2434C64.4245 32.2297 65.1964 32.2161 65.9654 32.2668C66.7737 32.3217 67.3593 32.7548 67.7542 33.4833C68.7438 35.312 69.7363 37.1407 70.7316 38.9693C72.0054 41.3232 73.2786 43.6771 74.5511 46.031L74.7572 46.2779V33.8463C74.7485 33.6091 74.7772 33.3721 74.8421 33.1446C75.0106 32.647 75.4573 32.3293 76.0213 32.3038H106.498L106.855 32.3274C107.303 32.4116 107.535 32.6821 107.55 33.1522C107.565 33.6224 107.564 34.1091 107.55 34.5863C107.537 35.0488 107.297 35.3243 106.851 35.4028L106.385 35.4366C97.2569 35.4366 88.1299 35.4351 79.0043 35.4321C78.7299 35.4321 78.677 35.5068 78.6788 35.7772C78.6866 41.0141 78.6887 46.2524 78.685 51.4921C78.685 52.2698 78.3448 52.768 77.7007 52.916L77.2621 52.9517C77.0212 52.9531 76.7802 52.9521 76.5393 52.951L76.2568 52.9499C75.9462 52.949 75.6358 52.9498 75.3256 52.9574C74.3211 52.9848 73.6032 52.5281 73.111 51.6312C71.8241 49.2629 70.5323 46.8966 69.2356 44.5326C68.2103 42.6558 67.1877 40.7791 66.1678 38.9024L65.9709 38.6478Z" fill="white"/>
<path fill-rule="evenodd" clip-rule="evenodd" d="M132.18 46.5828C131.755 46.5828 131.33 46.5833 130.905 46.5838C129.799 46.5851 128.693 46.5863 127.59 46.579C127.374 46.579 127.312 46.6166 127.343 46.8609C127.617 48.7651 129.189 50.0384 131.029 49.8782C132.117 49.7838 132.992 49.3494 133.608 48.3951C133.696 48.2542 133.818 48.1386 133.96 48.0588C134.103 47.979 134.263 47.9376 134.425 47.9383C135.217 47.9135 136.011 47.8975 136.802 47.9466C137.182 47.9677 137.371 48.2018 137.378 48.6069C137.388 49.0706 137.21 49.4802 137.009 49.8782C136.34 51.1789 135.286 52.0248 133.995 52.5638C132.088 53.3593 130.139 53.5118 128.193 52.7928C125.87 51.9368 124.421 50.1774 123.764 47.7533C123.026 45.0301 123.382 42.4619 125.085 40.1935C126.292 38.5834 127.939 37.7586 129.883 37.578C131.404 37.4333 132.882 37.6253 134.258 38.3659C136.175 39.3942 137.227 41.0968 137.711 43.2242C137.891 43.9769 137.951 44.7549 137.89 45.5277C137.829 46.1879 137.473 46.5662 136.831 46.5719C135.729 46.5847 134.626 46.5822 133.523 46.5797C133.077 46.5787 132.631 46.5777 132.185 46.5777L132.18 46.5828ZM130.688 43.6172L131.376 43.6168C132.179 43.6161 132.98 43.6154 133.781 43.6229C133.987 43.6229 134.034 43.5623 133.994 43.3607C133.801 42.3968 133.327 41.6345 132.5 41.128C131.818 40.7108 131.074 40.6088 130.295 40.6617C129.586 40.7055 128.913 40.996 128.383 41.4864C127.853 41.9767 127.499 42.638 127.377 43.3633C127.342 43.5725 127.398 43.6235 127.596 43.6184C128.396 43.611 129.198 43.6116 130 43.6123C130.229 43.6125 130.459 43.6127 130.688 43.6127V43.6172Z" fill="white"/>
<path fill-rule="evenodd" clip-rule="evenodd" d="M87.5915 46.5836C87.9839 46.5832 88.3763 46.5828 88.7687 46.5828L88.7693 46.5777C89.1971 46.5777 89.625 46.5784 90.0529 46.5792C91.1653 46.5811 92.2779 46.583 93.3885 46.5719C94.0363 46.5681 94.4085 46.172 94.4595 45.5079C94.5162 44.6671 94.4369 43.8223 94.2252 43.0086C93.6961 40.9149 92.6005 39.2615 90.6849 38.288C89.3931 37.6329 88.0139 37.4536 86.5953 37.5691C84.4583 37.7433 82.6958 38.674 81.4507 40.5035C79.9522 42.703 79.6538 45.1475 80.3435 47.7119C80.9783 50.0709 82.3532 51.82 84.5918 52.7169C86.6907 53.5558 88.7878 53.3752 90.8239 52.4566C92.05 51.9061 93.0268 51.0462 93.6463 49.7927C93.8167 49.4508 93.9545 49.0961 93.9809 48.7083C94.0129 48.2445 93.7995 47.9702 93.3596 47.9428C92.8293 47.9078 92.298 47.9146 91.7658 47.9214C91.551 47.9241 91.3361 47.9269 91.121 47.9269C90.6787 47.9288 90.365 48.1405 90.114 48.5163C89.8936 48.8531 89.6098 49.1402 89.2796 49.3605C88.9495 49.5807 88.5799 49.7295 88.1929 49.7979C87.7216 49.8923 87.2389 49.9089 86.7626 49.847C85.3287 49.6569 84.0898 48.3421 83.9384 46.8533C83.9176 46.6408 83.9612 46.577 84.1784 46.577C85.3159 46.586 86.4538 46.5848 87.5915 46.5836ZM87.7233 43.6168C87.5687 43.617 87.4142 43.6172 87.2597 43.6172L86.4902 43.6167C85.7235 43.6159 84.958 43.6152 84.1932 43.621C84.0061 43.6229 83.9366 43.6012 83.976 43.3722C84.227 41.8973 85.3373 40.818 86.8057 40.6726C87.9351 40.559 88.9631 40.8161 89.7806 41.697C90.2075 42.1557 90.4554 42.71 90.5834 43.3314C90.6271 43.5508 90.5896 43.6267 90.3534 43.6229C89.5799 43.6143 88.8064 43.6153 88.0332 43.6164L87.7233 43.6168Z" fill="white"/>
<path d="M105.447 42.3311C105.311 42.3314 105.176 42.3309 105.04 42.3286C104.728 42.3203 104.458 42.2125 104.309 41.9031C103.935 41.1312 103.314 40.728 102.513 40.5845C101.766 40.4518 101.026 40.4455 100.308 40.7262C99.8114 40.9175 99.454 41.2531 99.4239 41.8482C99.3993 42.2871 99.5789 42.6003 99.9529 42.8051C100.335 43.0174 100.749 43.1272 101.164 43.2372L101.168 43.2381C101.25 43.26 101.333 43.2819 101.415 43.3046C101.839 43.4225 102.266 43.5315 102.693 43.6405C103.471 43.8395 104.251 44.0386 105.016 44.2921C106.148 44.6678 107.101 45.3025 107.676 46.4252C108.639 48.3134 108.045 50.7114 106.317 51.9355C105.322 52.6423 104.199 52.9906 103.021 53.1437C101.386 53.3612 99.7874 53.2075 98.255 52.5307C97.3539 52.1352 96.5492 51.5885 95.9353 50.7796C95.4838 50.1857 95.223 49.514 95.2309 48.7459C95.2346 48.2356 95.4628 47.976 95.9655 47.9428C96.6734 47.9004 97.3832 47.9029 98.0908 47.9505C98.2306 47.9535 98.3671 47.9953 98.4861 48.0714C98.6051 48.1476 98.7022 48.2554 98.7675 48.3836C99.1366 49.0987 99.6613 49.6154 100.425 49.8368C101.369 50.1136 102.316 50.1308 103.249 49.7883C103.753 49.602 104.124 49.269 104.216 48.6815C104.282 48.2618 104.158 47.9288 103.819 47.6883C103.48 47.4485 103.093 47.3437 102.706 47.2388L102.648 47.2229L102.586 47.206C102.13 47.0792 101.671 46.964 101.212 46.8488C100.34 46.6298 99.4665 46.4106 98.6149 46.1114C97.6559 45.7701 96.8082 45.2489 96.2011 44.3788C95.1356 42.8529 95.3847 40.5514 96.7547 39.1971C97.6774 38.2842 98.8155 37.8491 100.049 37.6597C101.776 37.395 103.467 37.5047 105.082 38.2568C106.017 38.6918 106.811 39.3125 107.328 40.2528C107.57 40.6917 107.719 41.158 107.676 41.6734C107.64 42.1104 107.447 42.3113 107.028 42.3279C106.939 42.331 106.85 42.3324 106.762 42.3329C106.632 42.3336 106.503 42.3321 106.374 42.3307L106.364 42.3305L106.245 42.3292C106.174 42.3285 106.103 42.3279 106.032 42.3279L106.036 42.3286C105.84 42.3286 105.643 42.3306 105.447 42.3311Z" fill="white"/>
<path d="M109.955 41.1937C109.946 42.4274 109.949 43.6593 109.949 44.8936L109.954 44.8955C109.954 45.0816 109.952 45.2677 109.952 45.4538C109.952 45.5733 109.952 45.6927 109.954 45.8122C109.959 46.1198 109.954 46.4277 109.95 46.7355C109.94 47.5178 109.929 48.2993 110.058 49.0738C110.353 50.8549 111.314 52.0733 112.971 52.6646C113.972 53.023 115.014 52.9816 116.046 52.9406L116.057 52.9402L116.06 52.94C116.153 52.9363 116.246 52.9327 116.34 52.9293C116.768 52.914 117.041 52.5428 117.052 52.0848C117.063 51.6267 117.065 51.1681 117.052 50.7075C117.036 50.2163 116.73 49.8986 116.252 49.8521L115.865 49.8457C114.612 49.8323 113.84 49.0917 113.824 47.7948C113.806 46.3558 113.807 44.9166 113.807 43.4769C113.808 42.6981 113.808 41.9192 113.806 41.1401C113.806 40.9558 113.868 40.9245 114.028 40.9245C114.148 40.9251 114.268 40.9259 114.387 40.9267C115.041 40.931 115.697 40.9353 116.35 40.9073C116.893 40.8824 117.14 40.573 117.145 40.0143C117.149 39.6621 117.151 39.3074 117.145 38.9546C117.14 38.4156 116.883 38.1024 116.362 38.0807C115.608 38.0494 114.85 38.0494 114.095 38.0616C113.859 38.0654 113.811 37.9927 113.811 37.7598C113.822 36.343 113.82 34.9307 113.817 33.5165C113.815 32.7861 113.356 32.3057 112.659 32.3C112.143 32.2962 111.627 32.2962 111.112 32.3C110.564 32.3076 110.126 32.6426 110.01 33.1618C109.973 33.358 109.955 33.5577 109.957 33.7576C109.95 35.1074 109.948 36.4547 109.957 37.8045C109.957 38.0003 109.91 38.0731 109.711 38.0597C109.49 38.0482 109.268 38.0546 109.048 38.0788C108.61 38.1254 108.368 38.3671 108.315 38.8271C108.269 39.2554 108.267 39.6876 108.31 40.1163C108.355 40.6215 108.597 40.8588 109.094 40.9099C109.295 40.9334 109.498 40.9373 109.7 40.9213C109.917 40.8997 109.955 40.9883 109.955 41.1937Z" fill="white"/>
<path d="M118.154 33.669C118.154 32.7306 118.566 32.2994 119.466 32.2994C119.953 32.2994 120.442 32.2955 120.93 32.2994C121.593 32.307 122.037 32.7497 122.078 33.4355V51.5872C122.078 52.5339 121.676 52.9529 120.767 52.9529H119.414C118.585 52.9491 118.154 52.5122 118.154 51.651V33.669Z" fill="white"/>
<path d="M62.0063 61.9599C62.0073 60.8493 62.0084 59.7376 62 58.6265C62 58.3956 62.0615 58.3363 62.2756 58.3484C62.6349 58.3637 62.9953 58.3637 63.3546 58.3484C63.5453 58.3388 63.5773 58.4122 63.5773 58.5914C63.5738 59.1316 63.5736 59.6707 63.5734 60.2097C63.5732 60.8165 63.573 61.4232 63.5681 62.031C63.5681 62.2562 63.6246 62.3175 63.8437 62.3155C64.8845 62.3036 65.9253 62.3036 66.9662 62.3155C67.2061 62.3155 67.2516 62.2352 67.2479 62.0074C67.2455 61.7274 67.2443 61.4473 67.2437 61.167C67.243 60.8788 67.243 60.5905 67.243 60.3021C67.243 59.7333 67.243 59.1643 67.2381 58.5953C67.2381 58.3937 67.2891 58.3369 67.4842 58.3465C67.8533 58.3618 68.2224 58.358 68.5915 58.3465C68.7483 58.3427 68.8184 58.3662 68.8166 58.5602C68.8121 61.5796 68.8121 64.5991 68.8166 67.6185C68.8166 67.8099 68.7446 67.8379 68.5878 67.8335C68.2186 67.8239 67.8496 67.8182 67.4805 67.8335C67.2799 67.843 67.2381 67.7697 67.2381 67.5726C67.2414 67.1812 67.2425 66.7895 67.2428 66.3977L67.243 65.8113C67.243 65.5859 67.243 65.3605 67.2433 65.135C67.2438 64.7727 67.2449 64.4104 67.2479 64.0481C67.2516 63.8229 67.1932 63.7604 66.9742 63.7623C65.9327 63.7745 64.8919 63.7764 63.851 63.7623C63.6093 63.7585 63.5662 63.8389 63.5681 64.0679C63.573 64.5875 63.5735 65.1076 63.5736 65.6279V65.8174C63.5736 66.4007 63.5736 66.9841 63.5791 67.5668C63.5791 67.7863 63.5176 67.843 63.3165 67.8335C62.9755 67.8127 62.6337 67.8127 62.2929 67.8335C62.0677 67.845 61.9982 67.7824 62 67.5375C62.0084 66.4194 62.0073 65.3013 62.0063 64.1832C62.0059 63.8105 62.0056 63.4378 62.0056 63.0651V63.0696C62.0056 62.7 62.0059 62.3298 62.0063 61.9599Z" fill="white"/>
<path d="M96.8211 66.8849C97.7752 67.651 98.8635 67.9821 100.057 67.9859L100.059 67.9834C100.473 68.0049 100.887 67.9619 101.289 67.8558C103.023 67.3876 103.747 66.0167 103.414 64.2695C103.336 63.8739 103.147 63.5113 102.87 63.2271C102.321 62.6415 101.622 62.41 100.873 62.2887C100.842 62.2838 100.811 62.279 100.78 62.2743C100.701 62.2623 100.621 62.2513 100.541 62.2401C100.098 62.1787 99.6545 62.1171 99.2449 61.906C98.5042 61.5239 98.3682 60.6563 98.96 60.0606C99.3525 59.665 99.8514 59.6453 100.352 59.6906C100.989 59.7473 101.563 59.9999 102.102 60.3444C102.279 60.4586 102.404 60.4305 102.508 60.2391L102.79 59.7771C103.184 59.1362 103.185 59.134 102.517 58.7796C101.522 58.2508 100.462 58.0377 99.3642 58.2253C98.2668 58.4128 97.424 58.9812 97.0801 60.1486C96.6968 61.4416 97.0973 62.6307 98.1345 63.2558C98.6574 63.5729 99.2411 63.7062 99.8366 63.7904C99.8984 63.7993 99.9603 63.8077 100.022 63.8161C100.442 63.873 100.863 63.9302 101.252 64.1336C101.937 64.4959 102.092 65.389 101.554 65.9631C101.027 66.5251 100.35 66.5372 99.6736 66.4447C98.9748 66.3529 98.3572 66.0333 97.8109 65.5772C97.6128 65.412 97.4843 65.4394 97.3373 65.641C97.1986 65.832 97.0461 66.0098 96.8935 66.1878C96.8505 66.238 96.8074 66.2883 96.7646 66.3389C96.5456 66.5991 96.5529 66.6718 96.8211 66.8849Z" fill="white"/>
<path d="M92.0585 61.7089C92.9425 60.7176 94.4275 60.8311 95.1109 61.3899C95.7083 61.8818 96.0159 62.5165 96.0239 63.2941C96.032 64.0854 96.0312 64.8775 96.0303 65.6693C96.0296 66.3125 96.0289 66.9556 96.0331 67.598C96.0331 67.7977 95.9673 67.8373 95.7932 67.8309C95.453 67.8194 95.1091 67.8137 94.7695 67.8309C94.5653 67.843 94.5296 67.7569 94.5315 67.5687C94.537 66.3618 94.537 65.1593 94.5315 63.9543C94.5378 63.7622 94.5256 63.5699 94.4952 63.3802C94.3519 62.6421 93.8628 62.2696 93.1449 62.334C92.5384 62.387 92.0641 62.9413 92.0604 63.6373C92.0493 64.9382 92.0493 66.2382 92.0604 67.5375C92.0641 67.7862 91.9903 67.8411 91.7675 67.829C91.4787 67.8111 91.1903 67.8167 90.9005 67.8223C90.849 67.8233 90.7974 67.8243 90.7458 67.8252L90.5662 67.6491V67.4201C90.5662 66.7676 90.5664 66.1152 90.5666 65.4629C90.5672 63.1893 90.5678 60.9165 90.5606 58.6437C90.5606 58.3847 90.6264 58.3203 90.8627 58.3382C91.185 58.3567 91.508 58.3567 91.8303 58.3382C92.0149 58.328 92.0585 58.3911 92.0567 58.5774C92.05 59.2497 92.0511 59.9208 92.0522 60.5944V60.5964C92.0526 60.8501 92.053 61.1041 92.053 61.3587L92.0585 61.7089Z" fill="white"/>
<path fill-rule="evenodd" clip-rule="evenodd" d="M71.7478 64.9597H73.5447L73.5441 64.9629C73.7492 64.9629 73.9548 64.962 74.1605 64.9612C74.5724 64.9595 74.9848 64.9578 75.3951 64.9629C75.5975 64.9673 75.6879 64.8965 75.6707 64.6809C75.6621 64.5619 75.6583 64.4409 75.6546 64.3195C75.6528 64.2593 75.6509 64.1989 75.6485 64.1387C75.6313 63.6111 75.571 63.0925 75.3742 62.6007C74.9178 61.4627 73.875 60.8764 72.4829 60.9785C71.2587 61.0684 70.3576 61.8307 70.0838 63.053C69.8757 63.9576 69.8742 64.9002 70.0795 65.8056C70.3256 66.8945 70.9623 67.6038 72.0234 67.8781C72.422 67.9821 72.8305 67.984 73.2328 67.9528C74.0473 67.8896 74.7707 67.5987 75.3692 67.0035C75.5501 66.8237 75.6116 66.6903 75.3656 66.5143C75.1801 66.3728 75.0068 66.2148 74.8476 66.0422C74.7043 65.891 74.5892 65.8655 74.4361 66.0378C74.2617 66.2228 74.0484 66.3636 73.8129 66.4492C72.7075 66.9072 71.6777 66.4039 71.4624 65.301C71.4021 64.9833 71.4211 64.9597 71.7478 64.9597ZM73.843 63.7974H72.7942V63.7961C72.6997 63.7961 72.6053 63.7959 72.511 63.7957C72.3589 63.7952 72.207 63.7949 72.0549 63.7955C71.9243 63.796 71.7938 63.7973 71.6629 63.8C71.4833 63.8 71.4193 63.7292 71.4304 63.5448C71.4833 62.7965 71.9878 62.3015 72.7358 62.2658C73.4838 62.2301 74.0337 62.6753 74.1506 63.4096C74.2035 63.7483 74.1641 63.7974 73.843 63.7974Z" fill="white"/>
<path fill-rule="evenodd" clip-rule="evenodd" d="M115.748 64.9911C115.451 64.9916 115.154 64.9915 114.857 64.9897C114.652 64.9897 114.597 65.0426 114.631 65.2774C114.754 66.1392 115.464 66.6744 116.41 66.5532C116.859 66.4967 117.281 66.2985 117.617 65.9854L117.956 65.9752C118.005 66.0216 118.054 66.0683 118.104 66.115L118.113 66.124C118.265 66.2672 118.417 66.4111 118.571 66.5494C118.74 66.7005 118.718 66.8294 118.571 66.9825C118.004 67.5815 117.299 67.8934 116.512 67.9674C115.916 68.0312 115.316 68.0185 114.743 67.7716C113.789 67.3627 113.328 66.573 113.144 65.5663C112.981 64.684 113.014 63.7747 113.24 62.9075C113.379 62.3906 113.665 61.9289 114.059 61.5821C114.454 61.2354 114.94 61.0195 115.455 60.9626C116.335 60.8624 117.14 61.0034 117.841 61.5934C118.353 62.0202 118.614 62.602 118.733 63.252C118.811 63.7209 118.85 64.196 118.85 64.672C118.854 64.9093 118.752 64.9954 118.531 64.991C118.122 64.9859 117.712 64.9876 117.302 64.9892H117.297L117.066 64.9902C116.937 64.9906 116.808 64.991 116.679 64.991L116.682 64.9897L116.481 64.9898L115.748 64.9911ZM115.943 63.7783C116.312 63.7783 116.681 63.7745 117.05 63.7783C117.203 63.7783 117.309 63.7349 117.286 63.5512C117.244 63.2475 117.177 62.9535 116.959 62.7219C116.542 62.2709 116.03 62.2007 115.483 62.3634C114.923 62.5318 114.664 62.9707 114.602 63.5544C114.583 63.7458 114.685 63.7795 114.837 63.7776C115.206 63.7738 115.575 63.7776 115.944 63.7776L115.943 63.7783Z" fill="white"/>
<path fill-rule="evenodd" clip-rule="evenodd" d="M134.081 64.9903H135.876L135.874 64.9922L135.993 64.9921L136.173 64.9917L136.401 64.9908C136.834 64.9891 137.265 64.9874 137.697 64.996C137.927 65.0005 138.009 64.9144 137.999 64.6771C137.996 64.5728 137.995 64.4684 137.993 64.3639C137.989 64.0504 137.984 63.7365 137.938 63.4236C137.807 62.5637 137.462 61.8409 136.723 61.3727C136.09 60.9727 135.397 60.8751 134.658 60.9593C133.564 61.0825 132.667 61.8543 132.395 62.963C132.172 63.8716 132.157 64.8217 132.352 65.7373C132.55 66.7018 133.051 67.4258 133.969 67.7863C134.674 68.0606 135.395 68.035 136.117 67.8902C136.706 67.7634 137.251 67.4718 137.692 67.0469C137.933 66.8154 137.937 66.7158 137.705 66.4964C137.634 66.4278 137.562 66.3595 137.49 66.2919C137.385 66.1936 137.278 66.0968 137.168 66.0027L136.779 65.9733C136.441 66.3299 136.03 66.4875 135.553 66.5513C134.709 66.6674 134.012 66.2125 133.811 65.3565C133.744 65.0669 133.797 64.9903 134.081 64.9903ZM135.436 63.7756C135.385 63.7762 135.333 63.7769 135.282 63.7773C135.224 63.7779 135.166 63.7783 135.107 63.7783H134.086C133.798 63.7764 133.753 63.7177 133.795 63.414C133.91 62.6147 134.642 62.1331 135.442 62.3245C136.052 62.4756 136.415 62.9101 136.439 63.4963C136.448 63.7017 136.405 63.7917 136.186 63.7821C135.937 63.7697 135.686 63.7727 135.436 63.7756Z" fill="white"/>
<path fill-rule="evenodd" clip-rule="evenodd" d="M80.445 67.2798C79.5764 68.0867 78.594 68.1397 77.574 67.7595C76.818 67.4775 76.4212 66.7216 76.4704 65.8343C76.5319 64.843 76.9841 64.2357 77.8607 63.9671C78.4481 63.7909 79.048 63.7951 79.6485 63.7994L79.7561 63.8001L79.832 63.8005L79.8754 63.8006H79.9731L79.9843 63.8005C80.2379 63.7987 80.3648 63.7977 80.425 63.7315C80.4855 63.6651 80.4787 63.533 80.4652 63.2684C80.4388 62.6867 80.1214 62.357 79.481 62.29C78.8105 62.2263 78.1529 62.255 77.574 62.69L77.3113 62.6262C77.2436 62.4948 77.1745 62.3638 77.1036 62.2338C77.0341 62.1065 76.963 61.98 76.89 61.855L76.9847 61.5316C77.5383 61.1609 78.1596 61.0027 78.8129 60.9734C79.3838 60.9479 79.9559 60.9498 80.5114 61.1105C81.3726 61.3593 81.8205 61.9194 81.8525 62.9751C81.8853 64.0204 81.8828 65.0672 81.8803 66.114C81.879 66.6329 81.8777 67.1519 81.8807 67.6708L81.7146 67.8297L81.586 67.8269C81.3338 67.8215 81.0809 67.816 80.8307 67.8297C80.5699 67.8456 80.4431 67.7588 80.4794 67.4731L80.445 67.2798ZM79.5475 64.961V64.9495C79.5077 64.9515 79.4679 64.9534 79.4281 64.9552L79.1838 64.9663C79.1488 64.968 79.114 64.9697 79.0791 64.9716C78.97 64.9774 78.861 64.9844 78.752 64.9941L78.4328 65.0841C78.0489 65.2257 77.8791 65.4879 77.8927 65.907C77.9019 66.2948 78.0963 66.55 78.4875 66.6572C78.9169 66.7761 79.371 66.7563 79.7892 66.6004C80.2309 66.4403 80.4597 66.0901 80.4659 65.5995V65.1983C80.4733 65.0292 80.4044 64.9552 80.2377 64.9591C80.1645 64.9609 80.0912 64.9616 80.0177 64.9616C79.938 64.9617 79.8582 64.961 79.7783 64.9603L79.6964 64.9597C79.647 64.9593 79.5975 64.9591 79.5481 64.9591L79.5475 64.961Z" fill="white"/>
<path d="M122.069 61.1613C121.813 61.2894 121.585 61.4728 121.402 61.6993V61.4525C121.44 61.1686 121.335 61.055 121.049 61.0742C120.736 61.0933 120.422 61.0946 120.109 61.078C119.945 61.0723 119.883 61.1271 119.883 61.3058C119.887 63.4155 119.887 65.5266 119.883 67.6389C119.882 67.8233 119.955 67.8679 120.114 67.8641C120.444 67.8526 120.779 67.8443 121.109 67.8641C121.338 67.8794 121.406 67.8016 121.406 67.5604C121.4 66.87 121.4 66.179 121.4 65.4875C121.401 64.9843 121.401 64.4809 121.399 63.9773C121.398 63.8353 121.407 63.6936 121.426 63.5532C121.435 63.4861 121.446 63.4192 121.46 63.3528C121.579 62.7551 122.04 62.3615 122.61 62.3557C123.226 62.3494 123.672 62.7021 123.802 63.3215C123.847 63.5264 123.871 63.7358 123.872 63.9461C123.87 64.2525 123.87 64.5592 123.869 64.8659C123.869 65.1339 123.869 65.4019 123.869 65.6699C123.869 66.3089 123.87 66.9479 123.865 67.586C123.863 67.8003 123.921 67.8718 124.129 67.8641C124.469 67.8488 124.811 67.8564 125.153 67.8641C125.308 67.866 125.385 67.8309 125.385 67.6428C125.384 67.3277 125.384 67.0128 125.385 66.6978L125.386 66.1584C125.388 65.1254 125.391 64.092 125.366 63.0568C125.353 62.4183 125.048 61.8811 124.567 61.4544C124.074 61.0206 123.506 60.9275 122.891 60.9568C122.606 60.9635 122.326 61.0333 122.069 61.1613Z" fill="white"/>
<path d="M105.851 64.4793C105.852 64.5623 105.852 64.6453 105.851 64.7282C105.849 64.9785 105.847 65.2283 105.902 65.477C106.004 65.9235 106.168 66.3331 106.62 66.4875C107.132 66.6642 107.659 66.6348 108.072 66.2406C108.109 66.2065 108.141 66.1752 108.17 66.147L108.174 66.1425C108.292 66.0282 108.358 65.9636 108.43 65.957C108.526 65.9481 108.632 66.0456 108.887 66.2699L109.223 66.5678C109.506 66.8287 109.503 66.9404 109.214 67.2006C108.768 67.6064 108.259 67.8979 107.668 67.961C106.8 68.0548 105.957 67.9668 105.243 67.3537C104.778 66.9529 104.47 66.3911 104.375 65.7724C104.218 64.8793 104.19 63.9779 104.395 63.0829C104.682 61.8269 105.517 61.0984 106.755 60.9574C107.654 60.8534 108.445 61.0652 109.138 61.6725L109.354 61.89L109.325 62.2817C109.116 62.4514 108.915 62.6326 108.723 62.8246C108.539 63.0102 108.416 63.0006 108.226 62.8086C107.866 62.4444 107.418 62.276 106.912 62.3838C106.235 62.5248 105.887 63.0064 105.855 63.8197C105.846 64.0411 105.855 64.2586 105.855 64.4793H105.851Z" fill="white"/>
<path d="M131.451 61.8913C130.852 61.2266 130.121 60.9211 129.252 60.9568L129.255 60.9561C127.842 60.8872 126.757 61.7867 126.498 63.1148C126.341 63.9013 126.32 64.7104 126.437 65.5044C126.564 66.3688 126.904 67.1094 127.667 67.577C128.332 67.9866 129.057 68.0478 129.8 67.9496C130.463 67.8583 131.018 67.5394 131.472 67.0291L131.453 66.6744C131.26 66.5282 131.078 66.3676 130.907 66.194C130.643 65.8987 130.574 65.8751 130.246 66.194C129.464 66.9531 128.287 66.6182 128.041 65.5561C127.863 64.7823 127.841 63.9849 128.087 63.2112C128.258 62.6728 128.667 62.373 129.205 62.357C129.655 62.3417 130.043 62.4827 130.344 62.8335C130.5 63.0153 130.627 63.0313 130.799 62.8526C130.904 62.7441 131.016 62.6419 131.13 62.5425C131.198 62.483 131.267 62.4245 131.336 62.3663L131.424 62.2907L131.451 61.8913Z" fill="white"/>
<path d="M86.818 64.4647C86.818 64.2959 86.8173 64.127 86.8165 63.9581V63.9531C86.8145 63.5216 86.8126 63.0898 86.8236 62.6587C86.8291 62.3902 86.7461 62.253 86.476 62.2926C86.2189 62.3315 86.1229 62.2218 86.1605 61.9615L86.1641 61.7025C86.1652 61.651 86.1623 61.5976 86.1594 61.5442C86.1526 61.4188 86.1457 61.2933 86.1906 61.1922C86.2483 61.064 86.3692 61.0789 86.4902 61.0939C86.5432 61.1005 86.5962 61.107 86.6439 61.1016C86.8144 61.0786 86.818 60.9587 86.818 60.8318C86.818 60.6816 86.8187 60.5315 86.8193 60.3813C86.8208 60.0065 86.8223 59.6316 86.8144 59.2568C86.8106 59.0839 86.8537 59.0233 87.0296 59.0316C87.2273 59.0379 87.4251 59.0408 87.6229 59.0401C87.7839 59.0396 87.945 59.0367 88.1062 59.0316L88.3012 59.2427C88.2914 59.7856 88.3012 60.3304 88.2932 60.8745C88.2895 61.0448 88.3295 61.1156 88.5066 61.1042C88.6371 61.0935 88.7684 61.0956 88.8999 61.0976C88.9893 61.099 89.0787 61.1004 89.1679 61.0978L89.3648 61.2834C89.3537 61.5596 89.3574 61.8358 89.3648 62.1127L89.1876 62.2913C89.0582 62.2866 88.9276 62.2872 88.7973 62.2878C88.6972 62.2883 88.5972 62.2888 88.4981 62.2868L88.2956 62.4731C88.2997 63.0619 88.2997 63.6496 88.2997 64.237C88.2997 64.8244 88.2997 65.4116 88.3037 65.9995C88.3073 66.3503 88.5054 66.5143 88.8887 66.534C89.1271 66.5469 89.2456 66.5533 89.3046 66.618C89.363 66.6821 89.363 66.8032 89.363 67.0444V67.734L89.2368 67.9004C89.1717 67.8987 89.1064 67.8982 89.041 67.8983C88.9908 67.8984 88.9406 67.8988 88.8903 67.8992C88.5563 67.9019 88.2214 67.9046 87.8915 67.8098C87.24 67.6261 86.8697 67.1184 86.8316 66.351L86.8223 66.1213V64.4628L86.818 64.4647Z" fill="white"/>
<path d="M83.237 61.5336C83.2368 61.8149 83.2366 62.0962 83.2366 62.3774L83.2384 62.378C83.2384 62.7929 83.2376 63.2076 83.2368 63.622C83.2363 63.8568 83.2358 64.0916 83.2355 64.3263C83.2347 64.9194 83.2349 65.5119 83.2384 66.1041C83.2421 67.061 83.6069 67.6351 84.3174 67.8264C84.6371 67.9143 84.965 67.9109 85.293 67.9075C85.389 67.9065 85.485 67.9055 85.5809 67.9068L85.7113 67.7422C85.7111 67.7016 85.7105 67.6607 85.7097 67.6197C85.7089 67.58 85.708 67.5401 85.707 67.5002C85.7022 67.2936 85.6974 67.0853 85.7151 66.8843C85.7397 66.6042 85.6468 66.5238 85.3786 66.5353C84.8858 66.5513 84.7252 66.3707 84.7154 65.8496C84.7145 65.7932 84.7141 65.7367 84.7139 65.6802C84.7138 65.6448 84.7138 65.6093 84.7139 65.5738C84.714 65.5125 84.7143 65.4512 84.7146 65.3898L84.715 65.3118C84.7153 65.2612 84.7154 65.2105 84.7154 65.16C84.7154 64.6724 84.7152 64.1849 84.7149 63.6973C84.7139 62.016 84.7129 60.3347 84.7234 58.6533C84.7234 58.3905 84.6539 58.328 84.4158 58.3458C84.1032 58.3643 83.7897 58.3643 83.4771 58.3458C83.284 58.3337 83.231 58.3886 83.231 58.5927C83.2382 59.5727 83.2376 60.5531 83.237 61.5336Z" fill="white"/>
<path d="M111.998 64.4851C111.998 64.7717 111.998 65.0583 111.997 65.345C111.995 66.0792 111.993 66.814 112.004 67.5509C112.009 67.8118 111.926 67.8819 111.688 67.866C111.395 67.845 111.1 67.845 110.806 67.866C110.56 67.8819 110.475 67.8073 110.477 67.5349C110.487 66.2288 110.486 64.9223 110.484 63.6157C110.484 63.1553 110.483 62.6949 110.483 62.2345C110.483 62.1435 110.485 62.0525 110.486 61.9614C110.487 61.8986 110.488 61.8357 110.488 61.7729C110.49 61.6304 110.488 61.4878 110.48 61.3446C110.468 61.1233 110.551 61.0665 110.751 61.0767C111.064 61.094 111.377 61.094 111.69 61.0767C111.926 61.0608 112.009 61.1271 112.006 61.3899C111.993 62.1463 111.995 62.902 111.997 63.658C111.998 63.9336 111.998 64.2093 111.998 64.4851Z" fill="white"/>
<path d="M111.042 59.8347C111.103 59.8354 111.164 59.836 111.224 59.836C111.224 59.836 111.223 59.836 111.223 59.836H111.226C111.226 59.836 111.225 59.836 111.224 59.836C111.289 59.836 111.353 59.8351 111.417 59.8343C111.546 59.8326 111.674 59.8309 111.803 59.836L111.995 59.6319C111.992 59.26 111.992 58.8862 111.995 58.5136L111.819 58.3222C111.433 58.3261 111.045 58.3261 110.656 58.3222L110.48 58.5136C110.486 58.8862 110.486 59.2581 110.48 59.63L110.673 59.836C110.796 59.8322 110.919 59.8334 111.042 59.8347Z" fill="white"/>
</g>
</svg>
