<svg width="200" height="100" viewBox="0 0 200 100" fill="none" xmlns="http://www.w3.org/2000/svg">
<mask id="mask0" style="mask-type:alpha" maskUnits="userSpaceOnUse" x="0" y="0" width="200" height="100">
<rect width="200" height="100" fill="#222222"/>
</mask>
<g mask="url(#mask0)">
<path fill-rule="evenodd" clip-rule="evenodd" d="M56.088 45.4855C56.088 50.7827 51.7451 53.971 45.7036 53.971C39.647 53.971 35.3133 50.7827 35.3133 45.4855C35.3133 40.1883 39.6484 37 45.7036 37C51.7464 37 56.088 40.1973 56.088 45.4855ZM49.8482 45.4855C49.8482 42.2993 48.2869 40.3301 45.7036 40.3301C43.1203 40.3301 41.5611 42.2993 41.5611 45.4855C41.5611 48.6717 43.1164 50.6457 45.7036 50.6457C48.2908 50.6457 49.8482 48.6752 49.8482 45.4855Z" fill="white"/>
<path d="M157.642 41.7967H163.99C163.655 38.1789 158.836 37.0959 155.106 37.0959C151.375 37.0959 146.524 38.386 146.524 42.3347C146.524 45.2213 149.189 46.1444 151.064 46.5476C151.626 46.668 152.352 46.8095 153.084 46.9523C154.073 47.1451 155.074 47.3404 155.706 47.4901C157.251 47.8452 158.05 48.1796 158.05 49.1346C158.05 50.164 157.152 50.6895 155.307 50.6895C153.57 50.6895 152.527 50.1168 152.237 48.8128H145.77C146.149 53.1063 151.345 54.0467 155.448 54.0467C159.576 54.0467 164.513 53.0041 164.513 48.7482C164.513 46.4433 163.102 44.9023 159.64 44.1746C157.833 43.7937 155.317 43.2911 154.357 43.1153C153.075 42.881 152.618 42.3889 152.618 41.7251C152.618 41.0363 153.24 40.3224 155.031 40.3224C156.547 40.3224 157.37 40.7833 157.641 41.7981L157.642 41.7967Z" fill="white"/>
<path d="M63.698 37.6047H57.4937V53.369H71.503V49.8172H63.698V37.6047Z" fill="white"/>
<path d="M127.246 48.2776C127.246 52.4759 131.317 54.0002 136.155 54.0002C140.989 54.0002 145.056 52.4759 145.056 48.2776V37.6047H139.053V47.8008C139.053 49.7685 137.679 50.6721 136.155 50.6721C134.63 50.6721 133.251 49.7693 133.251 47.8008V37.6047H127.246V48.2776Z" fill="white"/>
<path fill-rule="evenodd" clip-rule="evenodd" d="M126.112 42.6364C126.112 44.5534 124.976 47.5679 120.509 47.5679L114.394 47.5693V53.3683H108.494V37.604H120.514C125.149 37.604 126.112 40.8646 126.112 42.6364ZM114.392 41.0474V44.1266H118.325C119.672 44.1266 120.154 43.4204 120.154 42.5356C120.154 41.534 119.319 41.0474 118.333 41.0474H114.392Z" fill="white"/>
<path d="M78.9691 37.9884L79.1379 37.6047H85.3613L78.885 48.0649V53.369H72.99V48.0649L66.5334 37.6047H72.7451L72.9171 37.9884L75.7218 43.2133C75.9077 43.5476 75.9648 43.5476 76.171 43.2133L78.9691 37.9884Z" fill="white"/>
<path d="M97.9107 53.0521L97.801 53.369L94.5772 53.3704L94.4663 53.0535L91.3076 45.2686C91.2248 45.0643 91.0311 45.1185 91.0311 45.2985V53.369H85.9472V37.604H92.0853L92.1989 37.9446L95.9815 46.9875C96.1215 47.3309 96.2534 47.3351 96.3908 46.9875L100.177 37.9446L100.29 37.604H106.434V53.369H101.352V45.2971C101.349 45.1171 101.161 45.0629 101.078 45.2672L97.9107 53.0521Z" fill="white"/>
<path d="M99.9928 63L35 61.2262V60.4136L99.9928 58.6419L165 60.4136V61.2262L99.9928 63Z" fill="white"/>
</g>
</svg>
