<svg width="200" height="100" viewBox="0 0 200 100" fill="none" xmlns="http://www.w3.org/2000/svg">
<mask id="mask0" style="mask-type:alpha" maskUnits="userSpaceOnUse" x="0" y="0" width="200" height="100">
<rect width="200" height="100" fill="#222222"/>
</mask>
<g mask="url(#mask0)">
<path d="M171.743 59.484C172.42 60.9356 173 61.7099 173 61.7099H168.844C168.844 61.7099 168.554 61.0324 168.07 59.8713L166.717 56.6788H157.53L156.273 59.8713C155.789 61.1293 155.693 61.6131 155.693 61.7099H151.535C151.535 61.7099 152.115 60.9356 152.792 59.484L159.947 42.4512C160.431 41.3868 160.527 40.8058 160.527 40.8058H163.815C163.815 40.8058 164.008 41.3868 164.395 42.4512L171.743 59.484ZM158.883 53.1935H165.168L161.881 45.8383L158.883 53.1935ZM144.573 54.6452L146.604 58.0323C147.957 60.3543 149.216 61.8067 149.216 61.8067H144.379C144.379 61.8067 143.799 60.355 142.349 58.0323L140.609 55.3226C139.835 54.1614 139.061 53.7741 137.031 53.7741V57.7418C137.031 60.2582 137.224 61.7099 137.224 61.7099H133.163C133.163 61.7099 133.357 60.2582 133.357 57.7418V44.8707C133.357 42.3543 133.163 40.9026 133.163 40.9026H139.932C144.089 40.9026 146.797 43.9996 146.797 47.3868C146.797 49.9032 144.766 52.516 142.542 52.9998C143.317 53.0966 144.09 53.7741 144.573 54.6452V54.6452ZM138.965 50.3869C141.673 50.3869 142.833 48.9353 142.833 47.3868C142.833 45.7418 141.576 44.2901 139.352 44.2901H137.032V50.2891C137.612 50.3869 138.482 50.3869 138.965 50.3869V50.3869ZM118.564 40.5157C124.752 40.5157 129.394 45.1608 129.394 51.258C129.394 57.3552 124.656 62 118.564 62C112.472 62 107.734 57.3549 107.734 51.258C107.734 45.1612 112.473 40.5157 118.564 40.5157ZM118.564 58.516C122.528 58.516 125.622 55.3236 125.622 51.258C125.622 47.0967 122.528 43.9997 118.564 43.9997C114.6 43.9997 111.603 47.1921 111.603 51.258C111.603 55.4194 114.696 58.516 118.564 58.516ZM93.714 40.8058C100.289 40.8058 104.737 45.1608 104.737 51.3548C104.737 57.4517 100.095 62 93.6173 62C91.7803 62 90.2333 61.8067 88.7829 61.8067H86.559C86.559 61.8067 86.7525 60.355 86.7525 57.8386V44.8707C86.7525 42.3543 86.559 40.9026 86.559 40.9026L93.714 40.8058V40.8058ZM93.5223 58.516C97.9701 58.516 100.968 55.4194 100.968 51.3548C100.968 47.2903 98.0668 44.1933 93.4259 44.1933H90.622V57.5478C90.622 58.1284 90.7183 58.2252 91.0075 58.322C91.4912 58.4196 92.4582 58.516 93.5223 58.516ZM82.2097 40.8058C82.2097 40.8058 82.0166 42.2575 82.0166 44.7739V57.6453C82.0166 60.1614 82.2097 61.6131 82.2097 61.6131H78.7289L67.2232 46.9998V57.7418C67.2232 60.2582 67.4163 61.7099 67.4163 61.7099H63.7418C63.7418 61.7099 63.9349 60.2582 63.9349 57.7418V42.9349C63.9349 42.4511 63.645 41.8705 63.2581 40.9026H67.3193L78.7282 55.5162V44.8707C78.7282 42.3543 78.5351 40.9026 78.5351 40.9026L82.209 40.8058H82.2097ZM52.5262 42.548L60.0675 59.5825C60.7443 61.0342 61.3244 61.8085 61.3244 61.8085H57.1668C57.1668 61.8085 56.8766 61.131 56.3933 59.9695L55.0396 56.7771H45.8549L44.598 59.9695C44.1143 61.2279 44.018 61.7116 44.018 61.8085H39.86C39.86 61.8085 40.4405 61.0342 41.1173 59.5825L48.2733 42.548C48.7567 41.4836 48.8534 40.9026 48.8534 40.9026H52.1407C51.9455 40.8058 52.1389 41.4836 52.5255 42.548H52.5262ZM47.2078 53.1935H53.4926L50.2053 45.8383L47.2078 53.1935ZM33.188 40.8058C37.3456 40.8058 40.9231 43.1286 40.9231 47.2899C40.9231 51.5481 37.3456 54.0646 33.188 54.0646C32.8025 54.0646 31.5442 53.9677 30.9641 53.9677V57.7418C30.9641 60.2582 31.1576 61.7099 31.1576 61.7099H27C27 61.7099 27.1931 60.2582 27.1931 57.7418V44.8707C27.1931 42.2575 27 40.8058 27 40.8058H33.188V40.8058ZM32.9945 50.5806C35.6054 50.5806 37.0554 49.419 37.0554 47.2899C37.0554 45.064 35.4119 44.2901 33.2847 44.2901H30.9641V50.4838C31.4474 50.5806 32.5112 50.5806 32.9945 50.5806ZM115.857 38.7735C115.857 38.3876 116.147 38.0961 116.63 38.0961C116.72 38.094 116.809 38.11 116.892 38.1433C116.975 38.1766 117.051 38.2264 117.114 38.2897C117.177 38.3531 117.227 38.4286 117.26 38.5118C117.293 38.5949 117.309 38.684 117.307 38.7735C117.309 38.8631 117.293 38.9522 117.26 39.0353C117.227 39.1185 117.177 39.194 117.114 39.2574C117.051 39.3207 116.975 39.3705 116.892 39.4038C116.809 39.4371 116.72 39.4531 116.63 39.451C116.147 39.5478 115.857 39.2577 115.857 38.7735ZM115.663 37.5162L114.793 32.8711H114.987L116.92 37.2261L115.663 37.5162ZM118.564 39.2584C118.179 39.2584 117.791 38.9679 117.791 38.5809C117.791 38.194 118.081 37.9035 118.564 37.9035C118.654 37.9014 118.743 37.9174 118.826 37.9507C118.909 37.984 118.984 38.0338 119.048 38.0971C119.111 38.1605 119.161 38.236 119.194 38.3192C119.227 38.4023 119.243 38.4914 119.241 38.5809C119.338 38.9672 118.951 39.2577 118.564 39.2577V39.2584ZM120.595 39.5485C120.209 39.5485 119.821 39.2584 119.821 38.8711C119.821 38.4838 120.111 38.1937 120.595 38.1937C120.684 38.1915 120.773 38.2075 120.856 38.2408C120.939 38.2741 121.015 38.3239 121.078 38.3872C121.141 38.4506 121.191 38.5261 121.224 38.6093C121.258 38.6925 121.274 38.7815 121.271 38.8711C121.368 39.2577 120.982 39.5478 120.595 39.5478V39.5485ZM121.562 37.5162L120.305 37.2261L122.239 32.8711H122.432L121.562 37.5162ZM118.565 32H118.758L119.241 37.1303H118.081L118.564 32.0011L118.565 32Z" fill="white"/>
</g>
</svg>
