<svg width="200" height="100" viewBox="0 0 200 100" fill="none" xmlns="http://www.w3.org/2000/svg">
<mask id="mask0" style="mask-type:alpha" maskUnits="userSpaceOnUse" x="0" y="0" width="200" height="100">
<rect width="200" height="100" fill="#222222"/>
</mask>
<g mask="url(#mask0)">
<path d="M169.237 60.0805H167.952V61.4118H169.237V60.0805ZM153.767 54.6579H152.579V61.4124H153.767V54.6579ZM149.168 55.7377C150.048 55.7377 150.57 56.1342 150.57 56.8578V56.878C150.57 57.563 150.029 58.0066 149.18 58.0066H147.441V55.7366L149.168 55.7377ZM149.265 54.6579H146.25V61.4124H147.439V59.0601H148.926L150.588 61.4124H151.998L150.172 58.8551C151.11 58.5846 151.777 57.9186 151.777 56.8091V56.7901C151.777 56.202 151.574 55.6996 151.216 55.3339C150.781 54.9088 150.114 54.6584 149.264 54.6584L149.265 54.6579ZM133.111 55.7556H135.256V61.4124H136.454V55.7556H138.599V54.6562H133.111V55.7556ZM128.569 53.3697H133.313V52.2887H129.757V46.6146H128.569V53.3697ZM130.279 55.7366C131.159 55.7366 131.681 56.1331 131.681 56.8567V56.8769C131.681 57.5619 131.141 58.0054 130.29 58.0054H128.552V55.7366H130.279ZM130.376 54.6568H127.359V61.4113H128.548V59.0589H130.037L131.698 61.4113H133.111L131.283 58.854C132.22 58.5834 132.887 57.9175 132.887 56.808V56.789C132.887 56.2009 132.684 55.6985 132.326 55.3328C131.891 54.9077 131.224 54.6573 130.374 54.6573L130.376 54.6568ZM126.625 54.6573H121.61V61.4113H126.673V60.3499H122.799V58.5353H126.19V57.4711H122.799V55.7181H126.626L126.625 54.6573ZM123.426 50.6869L124.587 47.9829L125.756 50.6853L123.426 50.6869ZM124.055 46.5659L121.079 53.3691H122.296L122.992 51.7388H126.189L126.874 53.3691H128.13L125.157 46.5659H124.055ZM117.101 52.3078V50.4937H120.492V49.4324H117.098V47.676H120.925V46.6146H115.909V53.3697H120.972V52.3056L117.101 52.3078ZM116.106 54.6562H114.914V58.5454C114.914 60.5056 116.036 61.5182 117.794 61.5182C119.562 61.5182 120.703 60.5039 120.703 58.4877V54.6562H119.514V58.5454C119.514 59.7904 118.866 60.4171 117.813 60.4171C116.748 60.4171 116.103 59.7512 116.103 58.4972L116.106 54.6562ZM111.864 55.7366C112.753 55.7366 113.322 56.1516 113.322 56.9435V56.9626C113.322 57.6672 112.761 58.169 111.864 58.169H110.48V55.7366H111.864ZM111.961 54.6562H109.291V61.4107H110.48V59.2404H111.822C113.311 59.2404 114.528 58.4501 114.528 56.9346V56.915C114.528 55.5546 113.542 54.6573 111.958 54.6573L111.961 54.6562ZM110.479 46.6146H109.291V53.3697H110.479V50.5228H113.708V53.3697H114.895V46.6146H113.708V49.4228H110.479V46.6146ZM87.4817 59.9909H88.0986C88.7547 59.9909 89.1848 60.5107 89.1848 61.2152V61.2259C89.1848 61.9333 88.7547 62.4401 88.0986 62.4401H87.4817V59.9909ZM88.0986 59.414H86.9321V63.0164H88.0986C89.0817 63.0164 89.7613 62.2323 89.7613 61.2152V61.2074C89.7613 60.1937 89.0817 59.4152 88.0986 59.4152V59.414ZM83.4613 59.4152H82.951V63.0176H83.4938V60.4547L85.2188 63.0164H85.6798V59.414H85.1398V61.9069L83.4613 59.4152ZM79.7936 61.586L80.3281 60.1461L80.8681 61.586H79.7936ZM80.0824 59.3905L78.7051 63.0164H79.2693L79.5917 62.1461H81.0689L81.388 63.0164H81.9701L80.5928 59.3905H80.0824ZM76.3099 59.414H75.7581V63.0164H77.9548V62.4401H76.3099V59.414ZM72.5716 62.0408L72.2391 62.4939C72.6154 62.8781 73.0685 63.0702 73.5452 63.0702C74.203 63.0702 74.6668 62.6675 74.6668 61.9949V61.9848C74.6668 61.3877 74.3258 61.115 73.6657 60.929C73.0573 60.7644 72.9159 60.6406 72.9159 60.3606V60.3527C72.9159 60.1152 73.1032 59.9237 73.4251 59.9237C73.7123 59.9237 73.9927 60.0542 74.2736 60.2939L74.5686 59.8173C74.4188 59.6707 74.2414 59.5551 74.0467 59.4772C73.8521 59.3992 73.6439 59.3604 73.4341 59.3631C72.8116 59.3631 72.3647 59.7904 72.3647 60.4093V60.4194C72.3647 61.0814 72.7404 61.3082 73.4066 61.4953C73.9882 61.6487 74.1149 61.7888 74.1149 62.0453V62.0565C74.1149 62.3225 73.903 62.5045 73.5609 62.5045C73.1767 62.5045 72.8744 62.3365 72.5739 62.038L72.5716 62.0408ZM71.1718 59.4118H70.6234V63.0142H71.1718V59.4118ZM66.4729 59.9887C66.8806 59.9887 67.12 60.2021 67.12 60.5857V60.5964C67.12 60.9626 66.8722 61.2001 66.4762 61.2001H65.6743V59.9909L66.4729 59.9887ZM66.5177 59.4118H65.1241V63.0142H65.6743V61.7608H66.3618L67.1313 63.0148H67.7779L66.9322 61.6515C67.3651 61.5076 67.6741 61.1525 67.6741 60.5627V60.5521C67.6741 60.2373 67.5821 59.9696 67.4156 59.7758C67.2165 59.5485 66.9058 59.4124 66.5127 59.4124L66.5177 59.4118ZM61.9556 61.5843L62.4929 60.1444L63.0335 61.5843H61.9556ZM62.2472 59.3888L60.8699 63.0148H61.4352L61.7571 62.1444H63.2354L63.5522 63.0148H64.1326L62.7576 59.3888H62.2472ZM60.5121 59.4124H57.9733V59.9999H58.9654V63.0148H59.52V60.0016H60.5121V59.4124ZM55.0779 62.0408L54.7448 62.4939C55.1222 62.8781 55.5714 63.0702 56.052 63.0702C56.7093 63.0702 57.1703 62.6675 57.1703 61.9949V61.9848C57.1703 61.3877 56.8293 61.115 56.167 60.929C55.563 60.7655 55.4217 60.6406 55.4217 60.3622V60.3544C55.4217 60.1169 55.6107 59.9254 55.932 59.9254C56.2158 59.9254 56.499 60.0559 56.7805 60.2956L57.0749 59.819C56.9252 59.6723 56.748 59.5567 56.5534 59.4788C56.3588 59.4008 56.1507 59.3621 55.941 59.3647C55.3185 59.3647 54.8704 59.7921 54.8704 60.411V60.4211C54.8704 61.0831 55.2473 61.3099 55.9135 61.497C56.4939 61.6487 56.6179 61.7888 56.6179 62.0453V62.0565C56.6179 62.3225 56.4025 62.5045 56.0644 62.5045C55.6797 62.5045 55.374 62.3365 55.0762 62.038L55.0779 62.0408ZM49.6078 59.414H49.0599V63.0164H51.2532V62.4401H49.6078V59.414ZM46.3944 59.414H45.8437V63.0164H48.0376V62.4401H46.3922L46.3944 59.414ZM42.6842 61.586L43.2192 60.1455L43.7615 61.586H42.6842ZM42.9735 59.3905L41.5985 63.0164H42.1593L42.48 62.1472H43.9589L44.278 63.0164H44.8595L43.4822 59.3905H42.9735ZM38.9543 59.414H36.6331V63.0164H38.9761V62.4502H37.1844V61.4852H38.7546V60.9206H37.1844V59.9825H38.9526L38.9543 59.414ZM33.3389 59.414H32.7888V63.0164H33.3389V61.4981H34.8318V63.0164H35.3808V59.414H34.8318V60.9145H33.3389V59.414ZM31.7603 59.414H29.2204V60.0016H30.2136V63.0164H30.7649V60.0016H31.7575L31.7603 59.414ZM14.6698 62.5398C14.5358 63.0618 14.3064 64.2419 14.3064 65.0478C14.3064 65.7586 14.4786 66.4329 15.1291 66.4329C15.1779 66.4355 15.2268 66.4283 15.2727 66.4117C15.3187 66.3951 15.3608 66.3694 15.3966 66.3361C15.4324 66.3029 15.4612 66.2628 15.4811 66.2182C15.501 66.1736 15.5118 66.1255 15.5127 66.0767C15.5127 65.7967 15.3585 65.8527 15.3007 65.1599C15.2446 64.56 15.6075 63.045 15.7224 62.6132C16.2193 60.686 17.1003 58.6462 17.9993 56.719C19.3963 53.722 21.1577 51.0476 22.9747 48.2388C23.0908 48.0708 23.1856 47.8843 23.1856 47.6597C23.1856 47.2845 22.899 47.0968 22.5351 47.0968C22.1133 47.0968 21.847 47.2649 21.7314 47.5091C21.635 47.714 21.7314 47.8451 21.4634 48.2584C21.368 48.4074 19.2628 51.8513 17.5209 55.2196C16.507 57.1861 15.1656 60.5174 14.6698 62.5398ZM37.3263 53.8547C37.4031 53.424 37.7861 52.9748 38.016 52.8259C38.0721 52.7867 38.1495 52.7306 38.2067 52.7306C38.2841 52.7306 38.2258 52.8259 38.1876 52.8987C38.016 53.2168 37.7087 53.536 37.3263 53.8542V53.8547ZM25.5763 55.4829C24.4283 56.2496 23.2608 56.8483 22.3427 57.2045C21.7113 57.4465 20.9648 57.6711 20.2762 57.6907C20.0702 57.6998 19.864 57.681 19.6632 57.6347C20.2762 57.0186 22.4762 56.23 25.5763 55.4829V55.4829ZM50.5124 52.8791C50.5124 52.599 50.7995 51.9068 50.9712 51.6822C51.0099 51.8704 51.4495 51.9824 51.4114 52.3543C51.3923 52.6343 50.8181 53.1014 50.6263 53.1014C50.5141 53.1014 50.5141 52.9334 50.5141 52.8774L50.5124 52.8791ZM69.0767 44.1962C69.0767 39.4613 64.1775 38.0007 59.7954 38.0007C52.8874 38.0007 42.8978 42.1934 42.8978 46.9854C42.8978 49.0622 45.7299 49.8491 47.6248 49.998C47.2013 50.4824 46.747 50.939 46.2649 51.3652C45.4046 52.1325 44.5264 52.9194 43.5871 53.6105C43.3566 53.7786 43.1272 53.9113 42.9741 53.9113C42.8619 53.9113 42.7823 53.8553 42.7823 53.6873C42.7823 53.3512 43.0128 53.0712 43.0128 52.7323C43.0128 52.2652 42.5154 52.2092 42.3813 52.1532C42.4767 52.0412 42.6107 51.9292 42.6107 51.7612C42.6107 51.5534 42.3813 51.4811 42.152 51.4811C41.6534 51.4811 41.479 51.8356 41.4616 52.1162C40.926 52.7536 39.9693 53.5579 38.9745 54.1196C38.6879 54.2877 38.1518 54.5884 37.8069 54.5884C37.7055 54.595 37.6047 54.5684 37.5197 54.5128C38.0374 54.1023 38.5157 53.6525 38.8023 53.2213C38.9363 53.0152 39.0317 52.8102 39.0317 52.5856C39.0317 52.2288 38.707 52.0608 38.3436 52.0608C37.7497 52.0608 37.2337 52.4529 36.8894 53.0549C36.6976 53.391 36.5826 53.8217 36.5826 54.1191C36.579 54.2195 36.5852 54.3201 36.6011 54.4193C35.6068 55.0914 34.4589 55.5988 33.9609 55.5988C33.7124 55.5988 33.7124 55.4868 33.7124 55.4106C33.7124 55.223 33.9418 54.7564 34.2099 54.2871C34.266 54.1751 34.322 54.0821 34.322 53.9511C34.322 53.82 34.2458 53.6895 34.0153 53.6895C33.6906 53.6895 33.4612 53.895 33.2128 54.1762C32.9823 54.4198 32.6957 54.7184 32.4473 54.9424C32.0833 55.2628 31.2219 56.0099 30.8585 56.0099C30.7822 56.0099 30.7626 55.9365 30.7626 55.88C30.7626 55.5803 31.3756 54.8304 31.988 54.2507C32.1792 54.0827 32.2173 53.9707 32.2173 53.895C32.2173 53.6895 32.0833 53.5209 31.873 53.5209C31.7523 53.523 31.634 53.5549 31.5287 53.6139C31.5287 53.6139 30.1698 53.8217 28.5811 54.118C30.2074 52.5083 31.3554 50.6001 31.3554 48.6343C31.3554 45.3214 28.6574 43.8428 25.6531 43.8428C18.9364 43.8428 10 49.252 10 53.932C10 55.0522 10.7453 55.615 11.8176 55.615C12.564 55.615 13.6733 55.223 13.6733 54.6427C13.6733 54.5307 13.6357 54.4372 13.5011 54.4372C13.2532 54.4372 12.9655 54.7172 12.0654 54.7172C11.3364 54.7172 11.0134 54.3986 11.0134 53.6884C11.0134 49.8513 19.2045 44.7602 25.366 44.7602C27.9502 44.7602 30.1889 45.8647 30.1889 48.6544C30.1889 50.9182 28.7157 52.902 26.9363 54.4378L26.6301 54.4938C24.2567 54.9978 22.7044 55.4459 21.5015 55.894C20.6199 56.216 19.6049 56.6081 18.974 57.0735C18.8024 57.2051 18.6493 57.3742 18.6493 57.5775C18.6493 58.3252 19.8937 58.3252 20.3524 58.3252C21.2799 58.3163 22.1967 58.126 23.051 57.7652C24.6867 57.0688 26.214 56.1418 27.5862 55.0124C28.5811 54.8074 29.6528 54.603 30.7828 54.3963C30.4188 54.827 29.9018 55.3714 29.9018 55.9701C29.9018 56.3829 30.1323 56.7755 30.5719 56.7755C30.8972 56.7755 31.301 56.5515 31.7014 56.2877C32.1347 55.9832 32.5441 55.6461 32.9262 55.2796C32.9016 55.3585 32.8888 55.4406 32.8881 55.5232C32.8881 56.0833 33.1943 56.2905 33.7108 56.2905C34.4398 56.2905 35.4324 55.8424 36.3129 55.3176C36.485 55.223 36.6572 55.1104 36.8294 54.9984C37.0021 55.2056 37.2696 55.3176 37.633 55.3176C38.0357 55.3176 38.4742 55.1496 39.03 54.8696C40.0063 54.3442 41.1549 53.4655 41.7863 52.6987C41.862 52.7161 42.0729 52.7911 42.1301 52.8841C42.0571 53.1007 42.0193 53.3276 42.0179 53.5562C42.0179 54.044 42.171 54.6427 42.7829 54.6427C43.1093 54.6427 43.3953 54.5111 43.6802 54.342C44.8668 53.6313 46.4556 52.1342 47.202 51.3865C47.0293 51.8732 46.8184 52.2826 46.8184 52.7867C46.8184 53.3854 47.0478 53.7982 47.6035 53.7982C48.2344 53.7982 49.0005 53.2 49.5551 52.7306L49.766 52.5626C49.766 52.6556 49.7458 52.7503 49.7458 52.8427C49.7458 53.368 49.881 53.7982 50.5511 53.7982C51.2392 53.7982 52.1578 53.1613 52.1578 52.3767C52.1578 51.6486 51.6789 51.065 50.9521 51.1602C50.9207 51.1252 50.8824 51.0971 50.8395 51.0778C50.7966 51.0585 50.7501 51.0484 50.7031 51.0482C50.3778 51.0482 49.8232 51.7203 49.3443 52.0955C48.8283 52.5066 48.101 53.0684 47.7179 53.0684C47.5648 53.0684 47.5648 52.9754 47.5648 52.8443C47.5648 52.2652 48.1385 51.1417 48.8659 50.0384C50.8943 50.0188 52.3872 49.8703 53.88 49.0834C54.129 48.9518 54.4734 48.7261 54.4734 48.4113C54.4734 48.1677 54.3012 48.0546 54.0909 48.0546C53.6894 48.0546 53.5548 48.3548 53.5548 48.3548C53.387 48.4731 53.2076 48.5739 53.0192 48.6555C52.2537 48.9731 51.2392 49.2907 49.3443 49.3097C49.7845 48.6936 50.2444 48.1106 50.6083 47.6636C50.7603 47.476 50.8753 47.4004 50.8753 47.1596C50.8753 46.9355 50.7031 46.8235 50.4934 46.8235C50.1103 46.8235 50.0335 47.0112 49.9763 47.1596C49.2871 47.9997 48.7896 48.6751 48.2529 49.2929C46.3406 49.1809 43.8333 48.6578 43.8333 46.8599C43.8333 42.9288 53.077 38.8301 59.9283 38.8301C63.4109 38.8301 68.0599 40.1217 68.0599 43.9397C68.0599 48.0395 62.4334 51.0907 57.5342 51.0907C57.1905 51.0907 56.4631 51.0711 56.2915 50.8667C57.6688 48.1347 59.4107 45.4205 60.9215 43.1746C60.9978 43.0626 61.171 42.7624 61.171 42.5378C61.171 42.1637 60.8071 42.0338 60.4818 42.0338C60.004 42.0338 59.8313 42.1648 59.7348 42.3888C59.6591 42.5765 59.7163 42.7635 59.5055 43.0811C57.0379 47.0313 55.8316 49.41 54.7605 51.7119C53.7841 53.7982 53.1157 55.764 52.5801 58.1203C52.4679 58.7005 51.795 62.0694 53.1745 62.0694C53.3652 62.0694 53.557 61.9394 53.557 61.7333C53.557 61.3788 53.2704 61.4902 53.2704 60.7773C53.2704 59.7131 53.4421 59.1312 53.5957 58.2888C53.9395 56.5857 54.6091 54.5643 55.6236 52.2803L55.9685 51.5326C56.0442 52.1487 57.0205 52.3554 57.4417 52.4489C62.8002 53.5719 66.7808 54.4708 68.9241 55.0695C69.6324 55.2751 69.9953 55.4263 70.2252 55.4616C70.2552 55.4656 70.2858 55.4635 70.3149 55.4552C70.3441 55.4469 70.3712 55.4327 70.3946 55.4134C70.4179 55.3942 70.4371 55.3703 70.4508 55.3433C70.4645 55.3163 70.4725 55.2868 70.4742 55.2566C70.4742 54.9362 69.8994 54.5459 69.4025 54.2815C68.9056 54.0171 67.9478 53.5534 65.9003 53.0656C63.776 52.5615 61.1738 52.0373 59.4898 51.7007C61.0202 51.5489 62.264 51.1378 63.4311 50.6326C66.857 49.1355 69.0767 46.833 69.0767 44.1917V44.1962ZM70.6845 47.0184C70.6845 46.7384 70.4355 46.5877 70.168 46.5877C69.9005 46.5877 69.67 46.7558 69.67 47.0739C69.67 47.3539 69.8612 47.578 70.1865 47.578C70.4742 47.578 70.6845 47.3332 70.6845 47.0179V47.0184ZM94.7396 42.3004C93.0701 43.2222 91.3501 44.3458 89.5129 45.6743L89.4748 44.1396C91.0248 43.6154 92.7661 42.9976 94.7374 42.3048L94.7396 42.3004ZM88.8433 53.554C88.1143 52.9379 87.637 52.3565 86.6416 51.3842C86.221 50.9726 85.7813 50.5441 85.3798 50.1095C86.4128 49.2694 87.485 48.4444 88.6521 47.6015C88.767 49.9241 88.9011 52.0395 88.8433 53.554ZM88.8046 39.5168C88.6347 40.933 88.5517 42.3582 88.5562 43.7846C88.3649 43.859 88.1541 43.9156 87.9438 43.9901C87.1783 44.2522 86.3556 44.5138 85.4364 44.8134C86.5278 42.8851 87.6566 41.0704 88.8046 39.5168V39.5168ZM84.9384 45.7123L88.5556 44.4578L88.6117 46.3301C87.3493 47.2654 86.0673 48.2948 84.7091 49.3988C84.3451 48.9888 83.9621 48.5754 83.6177 48.1666C84.0389 47.3422 84.4786 46.5194 84.9379 45.7151L84.9384 45.7123ZM83.8858 46.0708C83.5981 46.5749 83.3497 47.0789 83.0827 47.5869L82.2415 46.6129L83.8858 46.0708ZM83.2347 48.8969L84.132 49.8709C83.3682 50.5032 82.5831 51.1753 81.7817 51.8709C82.26 50.879 82.7384 49.8855 83.2358 48.8941L83.2347 48.8969ZM97.0333 41.8781C97.0333 41.598 96.7663 41.4658 96.5173 41.4658C96.1921 41.4658 95.8853 41.5594 95.5601 41.6535C94.4889 41.9716 92.8811 42.3816 89.4557 43.4877C89.4388 41.6991 89.5221 39.911 89.7053 38.1317C89.7428 37.7576 89.5135 37.589 89.1691 37.589C88.7676 37.589 88.9201 37.8321 88.7485 38.0751C88.5567 38.3378 88.384 38.5994 88.2124 38.8592C86.6982 41.0682 85.4566 43.183 84.3659 45.1668C83.5617 45.4469 82.7008 45.7269 81.7626 46.0657C81.4183 45.6737 81.093 45.299 80.8092 44.9982C80.4836 44.6663 80.1171 44.3771 79.7185 44.1374C79.6063 44.0624 79.4504 43.9879 79.3545 43.9879C79.2783 43.9879 79.2424 44.0254 79.2424 44.0814C79.2424 44.1564 79.2984 44.2309 79.3545 44.2869C79.5717 44.5057 79.7759 44.7369 79.9664 44.9792C80.3118 45.4273 80.6752 45.8596 81.0386 46.3094C80.1772 46.6079 79.2597 46.9456 78.3025 47.3007C78.2515 47.2663 78.1918 47.2468 78.1303 47.2447C77.8426 47.2447 77.7467 47.5623 77.7467 47.7874C77.7467 48.2915 78.4359 47.9924 78.4359 48.7222C78.4359 49.1529 77.8045 49.5657 77.4024 49.5657C77.1921 49.5657 77.0973 49.4901 77.0973 49.2649C77.0973 48.8549 77.6704 48.6107 77.6704 48.1447C77.6704 47.9566 77.5173 47.8832 77.3839 47.8832C77.2308 47.8832 77.0973 47.9762 76.9627 48.0686C76.3545 48.4928 75.7215 48.8805 75.0672 49.2296C74.3028 49.6424 73.461 50.0697 72.9058 50.0697C72.6765 50.0697 72.6563 49.9577 72.6563 49.9017C72.6563 49.3198 73.7285 48.3671 73.9013 48.4791C73.9573 48.5166 73.8244 48.6471 73.8244 48.7592C73.8244 48.8712 73.9203 48.9081 74.0347 48.9081C74.4178 48.9081 74.6471 48.4774 74.6471 48.1408C74.6471 47.7846 74.3981 47.5808 73.9972 47.5808C73.461 47.5808 72.9631 47.9168 72.483 48.1604C71.3334 48.767 70.3015 49.5477 69.1322 50.1112L68.826 50.2434C68.6735 50.2994 68.6157 50.2803 68.6533 50.1677C68.7492 49.9067 69.0554 49.42 69.3262 49.0834C69.4384 48.9339 69.5169 48.7827 69.5169 48.6354C69.5169 48.4477 69.384 48.2993 69.0767 48.2993C68.5596 48.2993 68.5411 48.6354 68.5411 48.6354C68.5411 48.6354 67.8715 49.4195 67.8715 50.245C67.8715 50.6186 68.0628 51.0123 68.5215 51.0123C68.9432 51.0123 69.4025 50.7883 69.785 50.5643L72.063 49.2548C71.9329 49.47 71.8601 49.7149 71.8515 49.9661C71.8515 50.5643 72.3114 50.7721 72.847 50.7721C73.9383 50.7721 75.7177 49.685 76.3682 49.3478C76.3492 49.7959 76.4832 50.3033 77.1719 50.3033C78.1673 50.3033 79.0865 49.6872 79.0865 48.6371C79.0905 48.4849 79.0637 48.3336 79.0076 48.1921C78.9515 48.0506 78.8673 47.9219 78.7601 47.8137C79.4678 47.5696 80.3488 47.2537 81.4783 46.8773L82.7216 48.3195C81.8007 50.1112 81.0162 51.7589 80.2709 53.2C80.1739 53.368 80.1167 53.498 79.963 53.666C79.888 53.7479 79.8478 53.8558 79.8508 53.9667C79.8508 54.2468 80.0426 54.4708 80.3298 54.4708C80.3839 54.469 80.4372 54.4564 80.4865 54.4337C80.5357 54.411 80.5798 54.3787 80.6163 54.3386C81.2478 53.7595 81.7839 53.1989 82.3772 52.6735C83.1999 51.9454 84.0036 51.2515 84.8078 50.5581L86.0516 51.8138C86.8743 52.6366 87.7739 53.5159 88.8259 54.4904C88.9605 54.6203 89.094 54.7144 89.2858 54.7144C89.5729 54.7144 89.6682 54.4904 89.6873 54.2468C89.8208 51.9073 89.6682 49.5315 89.5752 46.9479C91.469 45.6373 93.6314 44.2332 96.33 42.605C96.6368 42.418 97.0378 42.269 97.0378 41.8769L97.0333 41.8781ZM102.093 68H102.504V32H102.093V68ZM114.074 43.4076V43.3903C114.074 42.2701 113.34 41.7593 111.909 41.4121C110.605 41.1029 110.296 40.871 110.296 40.3479V40.3289C110.296 39.8847 110.702 39.528 111.397 39.528C112.014 39.528 112.625 39.7694 113.233 40.2225L113.871 39.3264C113.186 38.7758 112.402 38.4773 111.417 38.4773C110.074 38.4773 109.108 39.2782 109.108 40.4375V40.4571C109.108 41.7022 109.918 42.1267 111.358 42.4734C112.615 42.7624 112.886 43.0234 112.886 43.5056V43.5252C112.886 44.0293 112.422 44.3743 111.687 44.3743C110.856 44.3743 110.199 44.0556 109.552 43.4961L108.837 44.3424C109.609 45.0421 110.615 45.4275 111.658 45.4228C113.078 45.4228 114.074 44.67 114.074 43.4065V43.4076ZM117.465 39.673H119.61V38.5736H114.123V39.6736H116.267V45.3304H117.465V39.673ZM123.369 42.6454H121.041L122.2 39.9436L123.369 42.6454ZM124.491 45.3276H125.746L122.77 38.5249H121.671L118.693 45.3276H119.91L120.606 43.6972H123.802L124.491 45.3276ZM129.109 41.9217H127.37V39.654H129.101C129.98 39.654 130.503 40.0494 130.503 40.7741V40.7938C130.503 41.4787 129.962 41.9229 129.112 41.9229L129.109 41.9217ZM131.933 45.3292L130.107 42.7719C131.044 42.502 131.711 41.8355 131.711 40.7254V40.7069C131.711 40.1183 131.508 39.6159 131.15 39.2507C130.715 38.8262 130.049 38.5753 129.198 38.5753H126.181V45.3281H127.369V42.9758H128.858L130.519 45.3281L131.933 45.3292ZM135.721 47.7157H137.866V46.6146H132.375V47.7146H134.519V53.3714H135.717L135.721 47.7157ZM142.813 53.3725H144.002V46.6146H142.813V49.4228H139.586V46.6146H138.398V53.3697H139.586V50.5228H142.813V53.3725ZM144.292 58.0559C144.292 59.3681 143.354 60.43 142.011 60.43C140.668 60.43 139.712 59.3485 139.712 58.0362V58.0172C139.712 56.7044 140.649 55.6335 141.992 55.6335C143.334 55.6335 144.291 56.724 144.291 58.0362L144.292 58.0559ZM145.538 58.0172C145.538 56.1163 144.089 54.5447 142.011 54.5447C139.934 54.5447 138.465 56.1365 138.465 58.0374V58.057C138.465 59.9579 139.914 61.5294 141.992 61.5294C144.07 61.5294 145.538 59.9371 145.538 58.0357V58.0172ZM145.963 49.9947V49.9756C145.963 48.6539 146.91 47.592 148.195 47.592C148.968 47.592 149.547 47.928 150.089 48.4321L150.852 47.5544C150.205 46.9383 149.45 46.5032 148.205 46.5032C146.156 46.5032 144.717 48.0759 144.717 49.9958V50.0154C144.717 51.9549 146.185 53.4879 148.157 53.4879C149.422 53.4879 150.196 53.0241 150.901 52.2915L150.137 51.5192C149.558 52.0591 149.026 52.3873 148.195 52.3873C146.9 52.3873 145.963 51.3165 145.963 49.9941V49.9947ZM155.519 50.6892H153.188L154.347 47.9829L155.519 50.6892ZM156.641 53.3714H157.897L154.917 46.5659H153.815L150.84 53.3691H152.056L152.752 51.7388H155.949L156.641 53.3714ZM160.689 55.5943C160.042 54.9782 159.287 54.5431 158.041 54.5431C155.993 54.5431 154.554 56.1157 154.554 58.0357V58.0553C154.554 59.9954 156.022 61.5278 157.993 61.5278C159.26 61.5278 160.032 61.0635 160.741 60.3314L159.977 59.5591C159.397 60.0996 158.866 60.4278 158.035 60.4278C156.74 60.4278 155.803 59.3563 155.803 58.034V58.015C155.803 56.6932 156.749 55.6313 158.035 55.6313C158.808 55.6313 159.388 55.9673 159.929 56.4714L160.689 55.5943ZM161.26 49.9656H159.521V47.6956H161.251C162.131 47.6956 162.653 48.0915 162.653 48.8157V48.8353C162.653 49.5209 162.112 49.9644 161.262 49.9644L161.26 49.9656ZM164.083 53.3708L162.257 50.8135C163.194 50.543 163.861 49.8771 163.861 48.7676V48.7479C163.861 48.1599 163.658 47.658 163.3 47.2918C162.865 46.8667 162.199 46.6163 161.348 46.6163H158.334V53.3708H159.522V51.0185H161.01L162.672 53.3708H164.083ZM166.591 58.053C166.591 59.3653 165.654 60.4272 164.311 60.4272C162.967 60.4272 162.011 59.3457 162.011 58.0334V58.0144C162.011 56.7016 162.949 55.6307 164.292 55.6307C165.635 55.6307 166.591 56.7212 166.591 58.0334V58.053ZM164.311 54.5408C162.236 54.5408 160.765 56.1326 160.765 58.0334V58.053C160.765 59.9539 162.214 61.5255 164.292 61.5255C166.37 61.5255 167.838 59.9332 167.838 58.0318V58.0127C167.838 56.1118 166.388 54.5403 164.311 54.5403V54.5408ZM164.591 53.3691H169.654V52.305H165.779V50.4937H169.171V49.4324H165.779V47.676H169.606V46.6146H164.591V53.3691ZM170.602 58.0329V58.0138C170.602 56.6921 171.548 55.6302 172.834 55.6302C173.605 55.6302 174.186 55.9662 174.727 56.4703L175.49 55.5921C174.843 54.976 174.088 54.5408 172.843 54.5408C170.794 54.5408 169.354 56.1135 169.354 58.0334V58.053C169.354 59.9932 170.823 61.5255 172.794 61.5255C174.06 61.5255 174.833 61.0612 175.538 60.3292L174.775 59.5569C174.195 60.0973 173.664 60.4255 172.834 60.4255C171.538 60.4255 170.602 59.3541 170.602 58.0318V58.0329ZM181.394 58.0514C181.394 59.3636 180.456 60.4255 179.114 60.4255C177.771 60.4255 176.814 59.344 176.814 58.0318V58.0127C176.814 56.6999 177.751 55.629 179.094 55.629C180.437 55.629 181.393 56.7195 181.393 58.0318L181.394 58.0514ZM182.641 58.0318V58.0127C182.641 56.1118 181.191 54.5403 179.114 54.5403C177.036 54.5403 175.564 56.1326 175.564 58.0334V58.053C175.564 59.9539 177.013 61.5255 179.091 61.5255C181.168 61.5255 182.638 59.9332 182.638 58.0318H182.641ZM190 61.4096V54.6562H188.734L186.675 57.8486L184.617 54.6562H183.352V61.4113H184.521V56.5862L186.637 59.7512H186.675L188.81 56.5666V61.4113L190 61.4096Z" fill="white"/>
</g>
</svg>
