<svg width="200" height="100" viewBox="0 0 200 100" fill="none" xmlns="http://www.w3.org/2000/svg">
<mask id="mask0" style="mask-type:alpha" maskUnits="userSpaceOnUse" x="0" y="0" width="200" height="100">
<rect width="200" height="100" fill="#222222"/>
</mask>
<g mask="url(#mask0)">
<path d="M48.8156 62C46.0256 62 38.0691 61.0699 38 53.7543H45.5806C45.5806 54.3315 45.6836 54.8451 45.8562 55.262C46.4051 56.6414 48.0588 56.9305 49.4707 56.9305C50.7109 56.9305 52.6054 56.546 52.6054 54.8451C52.6054 53.658 51.5373 53.337 47.3006 52.2134C47.1621 52.1769 47.0229 52.1404 46.8832 52.1037C43.098 51.1116 38.9655 50.0284 38.9655 45.5722C38.9655 40.2776 43.8221 38 48.8856 38C54.2247 38 58.943 39.8918 59.1495 45.4759H51.985C52.1233 44.6101 51.7099 44.0304 51.0896 43.6467C50.4697 43.2303 49.6085 43.0692 48.8508 43.0692C47.8175 43.0692 46.1295 43.3257 46.1295 44.6101C46.2362 45.8969 48.4339 46.3898 51.0606 46.9789C51.7726 47.1385 52.516 47.3052 53.2578 47.4967C56.7368 48.3949 60.181 49.9039 60.181 54.1069C60.181 60.075 54.292 62 48.8156 62Z" fill="white"/>
<path fill-rule="evenodd" clip-rule="evenodd" d="M158.533 42.6872H158.013V39.5311H159.305C160.101 39.5311 160.476 39.8283 160.476 40.4339C160.476 41.0047 160.093 41.243 159.596 41.2929L160.553 42.6872H159.994L159.083 41.3291H158.533V42.6872ZM159.222 39.9292H158.534V40.9327H159.077C159.536 40.9327 159.956 40.9109 159.956 40.4126C159.956 39.9936 159.574 39.9292 159.222 39.9292Z" fill="white"/>
<path fill-rule="evenodd" clip-rule="evenodd" d="M159.13 43.813C157.561 43.813 156.245 42.651 156.245 41.0977C156.245 39.575 157.561 38.4122 159.13 38.4122C160.69 38.4122 162 39.5755 162 41.0977C162.003 41.4545 161.931 41.8083 161.788 42.1387C161.645 42.469 161.434 42.7692 161.167 43.0219C160.9 43.2746 160.582 43.4746 160.233 43.6104C159.883 43.7462 159.508 43.8151 159.13 43.813ZM159.13 38.8099C157.791 38.8099 156.765 39.8065 156.765 41.0977C156.765 42.4195 157.791 43.4157 159.13 43.4157C160.454 43.4157 161.479 42.4191 161.479 41.0977C161.479 39.8065 160.454 38.8099 159.13 38.8099Z" fill="white"/>
<path fill-rule="evenodd" clip-rule="evenodd" d="M60.7656 49.9998C60.7656 56.9944 65.76 62 73.2357 62C80.7115 62 85.7058 56.9944 85.7058 49.9998C85.7058 43.0052 80.7115 38 73.2357 38C65.76 38 60.7656 43.0048 60.7656 49.9998ZM68.3435 49.9998C68.3435 44.8982 71.3056 43.7111 73.2344 43.7111C75.1632 43.7111 78.1257 44.8982 78.1257 49.9998C78.1257 55.1013 75.1632 56.2889 73.2344 56.2889C71.3056 56.2889 68.3435 55.1022 68.3435 49.9998Z" fill="white"/>
<path d="M94.4431 61.4544H87.2791V38.5456H95.0286L102.193 50.802H102.262V38.5456H109.426V61.4544H102.055L94.5122 48.9414H94.4431V61.4544Z" fill="white"/>
<path fill-rule="evenodd" clip-rule="evenodd" d="M109.48 61.4544H117.092L118.194 58.1815H126.011L127.044 61.4544H139.407L143.747 54.6205L147.949 61.4544H157.077L148.294 49.3259L156.181 38.5456H147.777L144.126 44.7695L140.406 38.5456H131.52L139.614 49.2615L133.442 57.7298L125.944 38.5456H118.539L109.48 61.4544ZM119.848 53.2744L122.224 46.2137H122.293L124.498 53.2744H119.848Z" fill="white"/>
</g>
</svg>
