<svg width="200" height="100" viewBox="0 0 200 100" fill="none" xmlns="http://www.w3.org/2000/svg">
<mask id="mask0" style="mask-type:alpha" maskUnits="userSpaceOnUse" x="0" y="0" width="200" height="100">
<rect width="200" height="100" fill="#222222"/>
</mask>
<g mask="url(#mask0)">
<path d="M164.598 37V37.5585H165.749V40.3356H166.447V37.5585H167.598V37H164.598Z" fill="white"/>
<path d="M170.096 39.3861L169.197 37L168.201 37.0022V40.3356H168.846V37.6457L169.828 40.3356H170.392L171.359 37.6457V40.3356H172V37H171L170.096 39.3861Z" fill="white"/>
<path d="M38.2096 42.248C37.917 42.2495 37.6371 42.3609 37.4312 42.5578C37.2254 42.7547 37.1105 43.0209 37.1117 43.298C37.1111 43.4352 37.139 43.5711 37.1939 43.6981C37.2487 43.825 37.3294 43.9405 37.4313 44.0379C37.5333 44.1353 37.6545 44.2127 37.788 44.2657C37.9215 44.3188 38.0648 44.3464 38.2096 44.347C38.3543 44.3464 38.4975 44.3188 38.631 44.2657C38.7644 44.2127 38.8856 44.1352 38.9874 44.0378C39.0892 43.9404 39.1698 43.8249 39.2245 43.698C39.2792 43.571 39.307 43.4351 39.3062 43.298C39.307 43.1609 39.2793 43.0249 39.2246 42.8979C39.1699 42.7709 39.0893 42.6554 38.9875 42.5578C38.8856 42.4603 38.7645 42.3828 38.6311 42.3296C38.4976 42.2765 38.3544 42.2487 38.2096 42.248Z" fill="white"/>
<path d="M31.5777 42.5578C31.7835 42.3609 32.0635 42.2495 32.356 42.248C32.6485 42.2495 32.9285 42.3609 33.1343 42.5578C33.3402 42.7547 33.4551 43.0209 33.4538 43.298C33.4544 43.4352 33.4265 43.5711 33.3717 43.6981C33.3169 43.825 33.2362 43.9405 33.1342 44.0379C33.0323 44.1353 32.9111 44.2127 32.7776 44.2657C32.644 44.3188 32.5008 44.3464 32.356 44.347C32.2112 44.3464 32.0679 44.3188 31.9344 44.2657C31.8009 44.2127 31.6797 44.1353 31.5777 44.0379C31.4758 43.9405 31.3951 43.825 31.3403 43.6981C31.2854 43.5711 31.2575 43.4352 31.2581 43.298C31.2569 43.0209 31.3718 42.7547 31.5777 42.5578Z" fill="white"/>
<path fill-rule="evenodd" clip-rule="evenodd" d="M28 43.9973C28 40.13 31.2711 37.0022 35.3111 37.0022H35.3182C39.3534 37.0022 42.6292 40.1345 42.6292 43.9973V47.84C41.9049 47.8431 41.1883 47.9814 40.5204 48.2469C39.8525 48.5125 39.2463 48.9002 38.7367 49.3878C38.227 49.8754 37.8237 50.4533 37.55 51.0886C37.2762 51.7239 37.1373 52.4041 37.1412 53.0903C37.1393 53.9037 37.337 54.7065 37.7187 55.4352C38.1003 56.1639 38.6555 56.7986 39.3404 57.2893H38.4112C32.6614 57.2893 28 52.8333 28 47.3362V43.9973ZM36.4993 46.8935C37.0153 46.5981 37.6067 46.4422 38.2096 46.4426C38.6441 46.4417 39.0741 46.3596 39.475 46.201C39.876 46.0423 40.2399 45.8103 40.546 45.5182C40.8521 45.2261 41.0943 44.8796 41.2587 44.4986C41.4231 44.1176 41.5066 43.7096 41.5043 43.298C41.5063 42.8864 41.4227 42.4784 41.2581 42.0973C41.0936 41.7163 40.8515 41.3697 40.5455 41.0773C40.2395 40.785 39.8757 40.5527 39.4749 40.3936C39.0741 40.2345 38.6441 40.1517 38.2096 40.1501C37.6031 40.1511 37.0087 40.3109 36.4922 40.6119C35.9757 40.913 35.5571 41.3435 35.2828 41.8559C35.0085 41.3435 34.5899 40.913 34.0734 40.6119C33.5568 40.3109 32.9625 40.1511 32.356 40.1501C31.9216 40.152 31.4919 40.235 31.0914 40.3942C30.6908 40.5534 30.3273 40.7858 30.0216 41.0781C29.7159 41.3704 29.4739 41.7169 29.3095 42.0978C29.1452 42.4787 29.0616 42.8866 29.0636 43.298C29.0613 43.7094 29.1447 44.1172 29.309 44.4981C29.4733 44.8789 29.7153 45.2253 30.0211 45.5174C30.3269 45.8095 30.6906 46.0416 31.0913 46.2003C31.4919 46.3591 31.9217 46.4414 32.356 46.4426C32.9588 46.4422 33.5503 46.5981 34.0662 46.8935C34.5822 47.1888 35.0029 47.6124 35.2828 48.1182C35.5627 47.6124 35.9834 47.1888 36.4993 46.8935Z" fill="white"/>
<path d="M38.5659 54.6905C38.3467 54.1827 38.2352 53.6389 38.2379 53.0903C38.2352 52.5416 38.3467 51.9979 38.5659 51.49C38.7851 50.9822 39.1077 50.5202 39.5154 50.1305C39.9231 49.7408 40.4078 49.431 40.9418 49.2187C41.4759 49.0064 42.0489 48.8959 42.628 48.8934V57.2871C42.0489 57.2846 41.4759 57.1741 40.9418 56.9618C40.4078 56.7496 39.9231 56.4397 39.5154 56.05C39.1077 55.6603 38.7851 55.1983 38.5659 54.6905Z" fill="white"/>
<path fill-rule="evenodd" clip-rule="evenodd" d="M91.3187 41.2292C86.6856 41.2292 82.9157 44.8329 82.9157 49.2621C82.916 50.5025 83.2195 51.726 83.8024 52.8367C83.4995 53.2406 83.0977 53.569 82.6315 53.7937C82.1654 54.0184 81.6486 54.1327 81.1256 54.1269C79.3332 54.1068 77.9111 52.6669 77.9111 50.9522V44.4531H80.6775C80.7285 44.4529 80.7789 44.4433 80.8259 44.4247C80.8729 44.4061 80.9156 44.3789 80.9515 44.3446C80.9874 44.3104 81.0159 44.2698 81.0352 44.2252C81.0546 44.1805 81.0645 44.1327 81.0643 44.0844V41.6548C81.0646 41.6065 81.0548 41.5585 81.0356 41.5138C81.0163 41.469 80.9878 41.4283 80.9519 41.3939C80.916 41.3596 80.8733 41.3323 80.8262 41.3136C80.7791 41.2949 80.7286 41.2852 80.6775 41.2851H77.9135V37.4021C77.9138 37.3498 77.9032 37.298 77.8823 37.2495C77.8614 37.2011 77.8306 37.157 77.7918 37.1199C77.7529 37.0827 77.7066 37.0532 77.6557 37.033C77.6047 37.0128 77.5501 37.0024 77.4948 37.0022H75.0185C74.9633 37.0024 74.9086 37.0128 74.8577 37.033C74.8067 37.0532 74.7605 37.0827 74.7216 37.1199C74.6827 37.157 74.6519 37.2011 74.631 37.2495C74.6102 37.298 74.5996 37.3498 74.5999 37.4021V41.2851H73.5268C73.4759 41.2854 73.4255 41.2952 73.3785 41.3139C73.3316 41.3326 73.289 41.36 73.2532 41.3943C73.2174 41.4286 73.189 41.4693 73.1698 41.514C73.1506 41.5587 73.1409 41.6066 73.1412 41.6548V44.0844C73.1409 44.1327 73.1506 44.1805 73.1699 44.2251C73.1891 44.2697 73.2174 44.3103 73.2532 44.3446C73.2891 44.3788 73.3317 44.406 73.3786 44.4247C73.4256 44.4433 73.4759 44.4529 73.5268 44.4531H74.5999V50.9176C74.5999 54.4017 77.5821 57.3262 81.227 57.296C82.0991 57.288 82.9607 57.1142 83.7606 56.7849C84.5605 56.4556 85.2824 55.9776 85.8837 55.3791C87.3939 56.6151 89.3229 57.2955 91.3187 57.296C95.9518 57.296 99.7217 53.6924 99.7217 49.2621C99.7217 44.8318 95.9518 41.2292 91.3187 41.2292ZM91.3187 54.128C90.3008 54.1369 89.3031 53.859 88.4522 53.3298C87.6013 52.8005 86.9356 52.0437 86.5396 51.1554C86.1435 50.267 86.0351 49.2873 86.2279 48.3405C86.4207 47.3936 86.9062 46.5224 87.6227 45.8374C88.3391 45.1524 89.2543 44.6845 90.2519 44.4931C91.2496 44.3017 92.2848 44.3955 93.2262 44.7624C94.1675 45.1293 94.9725 45.753 95.5391 46.5541C96.1056 47.3552 96.4081 48.2978 96.4081 49.2621C96.4128 50.5462 95.8796 51.7797 94.9255 52.6919C93.9714 53.6042 92.6743 54.1206 91.3187 54.128Z" fill="white"/>
<path d="M70.4769 41.5138C70.4962 41.5585 70.506 41.6065 70.5057 41.6548L70.5069 55.7198C70.5069 59.1828 67.5588 62 63.9375 62C62.7787 61.9971 61.6414 61.7036 60.6413 61.1493C59.6411 60.595 58.8136 59.7997 58.2431 58.8443L57.8552 58.1807C57.804 58.0959 57.7901 57.9953 57.8166 57.9008C57.8431 57.8063 57.9078 57.7255 57.9967 57.6758L60.1971 56.4616C60.241 56.4371 60.2896 56.4212 60.3401 56.4148C60.3906 56.4083 60.442 56.4115 60.4912 56.4241C60.5403 56.4367 60.5864 56.4584 60.6266 56.4881C60.6668 56.5177 60.7004 56.5547 60.7253 56.5967L61.1062 57.2603C61.3886 57.7363 61.7994 58.1326 62.2968 58.4086C62.7941 58.6846 63.3599 58.8303 63.9363 58.8309C64.8033 58.8261 65.6328 58.4958 66.243 57.9124C66.8532 57.3289 67.1941 56.54 67.1909 55.7187V53.3092C66.1838 53.8649 65.037 54.1528 63.8715 54.1425C60.2548 54.109 57.3681 51.246 57.3681 47.7831V41.6548C57.3678 41.6066 57.3776 41.5587 57.3968 41.514C57.416 41.4693 57.4443 41.4286 57.4801 41.3943C57.5159 41.36 57.5585 41.3326 57.6055 41.3139C57.6524 41.2952 57.7028 41.2854 57.7537 41.2851H60.2949C60.346 41.2852 60.3965 41.2949 60.4436 41.3136C60.4907 41.3323 60.5334 41.3596 60.5693 41.3939C60.6053 41.4283 60.6337 41.469 60.653 41.5138C60.6723 41.5585 60.682 41.6065 60.6817 41.6548V47.8088C60.6817 49.5503 62.1722 51.0047 63.9929 50.9756C64.8498 50.9564 65.6646 50.6197 66.2624 50.0379C66.8603 49.4561 67.1936 48.6754 67.1909 47.8635V41.6548C67.1906 41.6065 67.2004 41.5585 67.2197 41.5138C67.239 41.469 67.2674 41.4283 67.3033 41.3939C67.3392 41.3596 67.382 41.3323 67.4291 41.3136C67.4762 41.2949 67.5267 41.2852 67.5777 41.2851H70.1189C70.17 41.2852 70.2205 41.2949 70.2675 41.3136C70.3146 41.3323 70.3574 41.3596 70.3933 41.3939C70.4292 41.4283 70.4577 41.469 70.4769 41.5138Z" fill="white"/>
<path d="M55.2644 54.128H53.9933C53.6209 54.1267 53.2525 54.0558 52.9091 53.9194C52.5657 53.7829 52.2542 53.5836 51.9922 53.3329C51.7303 53.0822 51.5232 52.785 51.3828 52.4583C51.2423 52.1316 51.1713 51.7819 51.1738 51.4292V44.4531H54.0852C54.2185 44.4531 54.3211 44.2878 54.3211 44.0844V41.6548C54.3211 41.4504 54.2126 41.2851 54.0852 41.2851H51.1738V37.372C51.1741 37.3236 51.1643 37.2757 51.145 37.2309C51.1257 37.1861 51.0973 37.1454 51.0614 37.1111C51.0255 37.0767 50.9827 37.0494 50.9356 37.0307C50.8885 37.0121 50.838 37.0024 50.787 37.0022H48.2458C48.1948 37.0025 48.1445 37.0123 48.0975 37.0311C48.0506 37.0498 48.008 37.0771 47.9722 37.1115C47.9364 37.1458 47.908 37.1865 47.8888 37.2312C47.8696 37.2759 47.8599 37.3237 47.8602 37.372V51.4292C47.8602 54.6687 50.6066 57.296 53.9921 57.296H55.2633C55.3147 57.2965 55.3657 57.2872 55.4134 57.2688C55.461 57.2504 55.5043 57.2232 55.5407 57.1888C55.5771 57.1544 55.606 57.1134 55.6256 57.0684C55.6451 57.0233 55.6551 56.975 55.6548 56.9263V54.4978C55.6551 54.4491 55.6452 54.4009 55.6257 54.3559C55.6062 54.3109 55.5774 54.27 55.5411 54.2357C55.5048 54.2013 55.4617 54.174 55.4142 54.1556C55.3667 54.1371 55.3158 54.1277 55.2644 54.128Z" fill="white"/>
<path d="M102.744 49.4732C102.744 45.063 105.889 41.5051 110.606 41.5051C113.72 41.5051 116.161 42.8735 117.412 45.5802L115.558 46.3711C114.531 44.5156 113.055 43.355 110.55 43.355C107.339 43.355 104.933 45.8494 104.933 49.4687C104.933 53.1182 107.339 55.5813 110.647 55.5813C113.022 55.5813 114.531 54.4263 115.558 52.5708L117.42 53.3919C116.169 55.9466 113.825 57.4368 110.614 57.4368C105.889 57.4412 102.744 53.8834 102.744 49.4732Z" fill="white"/>
<path fill-rule="evenodd" clip-rule="evenodd" d="M126.665 41.5051C122.138 41.5051 118.929 45.0328 118.929 49.4732C118.929 53.9135 122.138 57.4412 126.667 57.4468C129.554 57.4468 131.673 55.8896 132.445 54.4307L132.734 57.076H134.594V41.8693H132.732L132.444 44.4553C131.61 43.0255 129.495 41.5051 126.665 41.5051ZM126.986 43.3595C130.294 43.3595 132.734 45.7936 132.734 49.4732C132.734 53.1528 130.299 55.5858 126.986 55.5858C123.519 55.5858 121.111 52.9059 121.111 49.4732C121.111 46.0404 123.519 43.3595 126.986 43.3595Z" fill="white"/>
<path d="M138.811 41.8693H140.641L140.897 44.242C141.605 42.5999 143.113 41.5051 145.135 41.5051C146.155 41.4886 147.154 41.7758 147.993 42.3262L147.383 44.3023C146.612 43.7549 145.614 43.5427 144.815 43.5427C142.31 43.5427 140.93 45.4584 140.93 48.6521V57.076H138.808L138.811 41.8693Z" fill="white"/>
<path fill-rule="evenodd" clip-rule="evenodd" d="M148.462 49.5335C148.462 53.9437 151.319 57.4412 156.295 57.4412C160.083 57.4412 162.33 55.464 163.262 53.2746L161.464 52.5753C160.661 54.309 159.05 55.5858 156.456 55.5858C153.341 55.5858 150.773 53.8521 150.548 49.9591H163.646C163.7 49.6886 163.722 49.4132 163.711 49.1381C163.711 44.9111 161.014 41.5051 156.199 41.5051C151.646 41.5051 148.462 44.8195 148.462 49.5335ZM161.56 48.3785H150.581C150.965 45.063 153.31 43.3595 156.199 43.3595C159.121 43.3595 161.335 45.0932 161.56 48.3785Z" fill="white"/>
</g>
</svg>
