<svg width="200" height="100" viewBox="0 0 200 100" fill="none" xmlns="http://www.w3.org/2000/svg">
<mask id="mask0" style="mask-type:alpha" maskUnits="userSpaceOnUse" x="0" y="0" width="200" height="100">
<rect width="200" height="100" fill="#222222"/>
</mask>
<g mask="url(#mask0)">
<path d="M170.711 65.0459C170.853 65.3953 170.711 65.8346 170.276 65.8752C170.024 65.8849 169.778 65.8491 169.538 65.8334V66.8344C169.794 66.8613 170.052 66.8752 170.31 66.8762C171.182 66.8762 171.617 66.5856 171.895 65.8752L173.814 60.9005H172.505L171.503 63.929H171.485L170.446 60.9005H169.092L170.711 65.0459ZM164.541 63.1749C164.541 64.5017 165.474 65.4439 166.861 65.4439C168.07 65.4439 168.915 64.8002 169.074 63.6287H167.857C167.776 64.168 167.44 64.5278 166.853 64.5278C166.061 64.5278 165.803 63.767 165.803 63.1324C165.803 62.4833 166.071 61.697 166.88 61.697C167.404 61.697 167.733 61.9609 167.812 62.4578H169.047C168.968 61.3282 167.975 60.7797 166.887 60.7797C165.395 60.7797 164.541 61.7977 164.541 63.1755V63.1749ZM160.806 60.9011H159.608V65.3231H160.869V63.0014C160.869 62.1023 161.164 61.734 161.848 61.734C162.434 61.734 162.657 62.098 162.657 62.8206V65.3195H163.918V62.5986C163.918 61.5065 163.579 60.7785 162.237 60.7785C161.956 60.7759 161.68 60.8423 161.434 60.9713C161.188 61.1003 160.981 61.2877 160.831 61.5156H160.805L160.806 60.9011ZM145.267 62.9607L146.092 60.7197H146.11L146.911 62.9607H145.267ZM145.399 59.2145L142.989 65.3195H144.404L144.902 63.9605H147.275L147.755 65.3195H149.205L146.83 59.2109L145.399 59.2145ZM137.676 62.6319C137.693 62.291 137.924 61.6934 138.723 61.6934C139.338 61.6934 139.614 62.0174 139.728 62.6319H137.676ZM136.415 63.113C136.415 64.4817 137.313 65.4408 138.761 65.4408C139.803 65.4408 140.559 64.9943 140.913 63.9508H139.798C139.718 64.2238 139.307 64.5248 138.803 64.5248C138.099 64.5248 137.709 64.1729 137.674 63.4036H140.988C141.078 62.0422 140.322 60.7761 138.757 60.7761C137.361 60.7761 136.41 61.7868 136.41 63.113H136.415ZM129.635 63.0524C129.635 63.6851 129.281 64.2748 128.559 64.2748C127.785 64.2748 127.537 63.582 127.537 62.9492C127.537 62.2904 127.848 61.6928 128.559 61.6928C129.379 61.6928 129.635 62.3334 129.635 63.0524V63.0524ZM129.635 64.5084V65.0914C129.643 65.7242 129.324 66.1864 128.622 66.1864C128.181 66.1864 127.796 66.0324 127.68 65.5798H126.425C126.488 66.5881 127.546 67 128.452 67C130.57 67 130.835 65.7672 130.835 65.0398V60.8974H129.637V61.4877H129.619C129.319 60.9733 128.856 60.7761 128.25 60.7761C126.96 60.7761 126.278 61.8214 126.278 62.9668C126.278 64.1802 126.864 65.1921 128.24 65.1921C128.792 65.1921 129.344 64.9688 129.619 64.506L129.635 64.5084ZM122.603 60.8974H121.342V63.6172C121.342 64.7122 121.679 65.4408 123.022 65.4408C123.302 65.4435 123.578 65.3771 123.824 65.2481C124.069 65.1191 124.277 64.9317 124.426 64.7037H124.453V65.3195H125.651V60.8974H124.388V63.2143C124.388 64.1134 124.096 64.4817 123.412 64.4817C122.825 64.4817 122.603 64.1225 122.603 63.3951V60.8974ZM118.816 60.8974H118.059V61.7098H118.816V65.3195H120.077V61.7098H120.948V60.8974H120.078V60.6323C120.078 60.2635 120.222 60.127 120.558 60.127C120.712 60.1271 120.867 60.1354 121.021 60.1518V59.2467C120.808 59.237 120.576 59.2109 120.353 59.2109C119.323 59.2109 118.816 59.7751 118.816 60.5541V60.8974ZM100.652 59.2109H99.2652V65.3195H100.572V61.2335H100.59L103.231 65.3219H104.627V59.2109H103.32V63.309H103.299L100.652 59.2109ZM86.9154 62.6319C86.9337 62.291 87.1676 61.6934 87.9645 61.6934C88.5786 61.6934 88.8534 62.0174 88.9694 62.6319H86.9154ZM85.6546 63.113C85.6546 64.4817 86.5542 65.4408 88.003 65.4408C89.0432 65.4408 89.7985 64.9943 90.1547 63.9508H89.0407C88.96 64.2238 88.5521 64.5248 88.0439 64.5248C87.3429 64.5248 86.9514 64.1729 86.9154 63.4036H90.2322C90.3211 62.0422 89.5652 60.7761 88.0004 60.7761C86.6046 60.7761 85.652 61.7868 85.652 63.113H85.6546ZM82.0617 59.2109H80.8008V65.3195H82.0617V63.0014C82.0617 62.1023 82.3554 61.734 83.0395 61.734C83.6264 61.734 83.8477 62.098 83.8477 62.8206V65.3195H85.1086V62.5986C85.1086 61.5065 84.7707 60.7785 83.4285 60.7785C83.1585 60.7837 82.8941 60.8539 82.6596 60.9827C82.425 61.1114 82.2277 61.2947 82.0856 61.5156H82.0598L82.0617 59.2109ZM63.2542 54.3611C63.0954 53.2545 63.5695 54.0851 63.6193 51.9951C63.5669 49.8037 63.0954 49.7273 63.0166 48.3696C62.441 48.9726 62.2304 51.392 62.2304 52.1449C62.2304 53.6828 62.5456 54.3617 62.6761 55.4962C65.7653 54.5146 67.4158 51.0887 67.4158 49.4015C66.4455 51.4642 65.0832 51.4406 63.2549 54.3617L63.2542 54.3611ZM59.145 59.9547C60.8976 59.3255 61.3415 59.8042 63.4623 58.5199C64.4319 58.0157 66.1864 55.8996 66.0799 54.3884C63.9868 56.6331 63.594 56.3783 62.5992 57.2094C61.6573 57.9375 60.8724 59.0252 60.1896 58.873C60.1386 58.2663 61.7361 56.9571 61.5527 53.1805C61.1082 53.6052 59.9539 55.3209 59.6418 56.5033C59.4054 57.6378 59.3266 58.9724 59.145 59.9547V59.9547ZM57.9938 62.6756C58.8556 62.6756 61.9959 61.8693 63.0418 59.8042C61.2374 60.7361 61.2135 60.5092 58.8027 61.0176C57.0752 61.3943 55.8711 61.9215 55.3743 61.8724C55.479 61.6467 56.8407 61.1171 57.7309 60.008C58.6451 58.8244 58.4376 57.4897 59.2755 56.5063C58.6986 56.3552 56.5532 58.7741 56.1069 59.3286C55.5842 60.0845 55.7141 60.4115 54.2742 61.9731C54.6411 62.1254 56.6308 62.6271 57.9938 62.6786V62.6756ZM34.905 64.3664C34.905 64.3664 37.8908 65.4742 41.5821 64.2645C43.3271 63.693 44.7803 63.2331 46.2366 63.3387C43.4948 64.3986 41.9742 66.1767 41.9742 66.1767L42.4987 66.4285C44.2224 64.6085 45.651 63.7446 47.0234 63.4431C48.3947 63.7464 49.8157 64.6115 51.5286 66.4285L52.0538 66.1767C52.0538 66.1767 50.5407 64.3986 47.8083 63.3351C49.2653 63.2319 50.7122 63.6894 52.4465 64.2609C56.1365 65.4706 59.1192 64.3628 59.1192 64.3628C59.1192 64.3628 59.7212 63.9345 59.382 63.9605C56.3181 64.1614 56.7127 62.8758 51.0066 62.5743C49.6591 62.5008 48.3091 62.6668 47.0241 63.0639C45.7406 62.6666 44.392 62.5006 43.046 62.5743C37.3159 62.8776 37.7067 64.1614 34.6453 63.9605C34.3074 63.9345 34.9063 64.3628 34.9063 64.3628L34.905 64.3664ZM35.1169 61.0139C32.7098 60.5086 32.6802 60.7355 30.8778 59.8006C31.9249 61.8633 35.0671 62.672 35.9547 62.672C37.2906 62.6204 39.303 62.1187 39.6441 61.9664C38.2319 60.4078 38.3611 60.0808 37.8133 59.3249C37.3676 58.7704 35.2228 56.3522 34.673 56.5027C35.4844 57.4861 35.2745 58.8208 36.1918 60.0044C37.1072 61.1134 38.4431 61.6424 38.5477 61.8687C38.0762 61.9179 36.8455 61.3907 35.1181 61.0139H35.1169ZM27.868 54.3878C27.7621 55.899 29.4908 58.0151 30.4572 58.5193C32.5774 59.8036 33.0225 59.3249 34.8035 59.9541C34.6213 58.9718 34.5167 57.6372 34.2784 56.5027C33.9632 55.3203 32.8126 53.6064 32.3952 53.1799C32.1872 56.9565 33.7822 58.2675 33.7311 58.8723C33.0477 59.0246 32.2893 57.9387 31.35 57.2088C30.3286 56.3777 29.963 56.6301 27.868 54.3878V54.3878ZM26.5283 49.4033C26.5283 51.0905 28.1517 54.5164 31.2686 55.498C31.3947 54.3635 31.6872 53.6847 31.6872 52.1467C31.6872 51.3938 31.4767 48.9744 30.9017 48.3714C30.8223 49.7291 30.3507 49.8056 30.2984 51.9969C30.3507 54.0875 30.8223 53.2569 30.6653 54.3629C28.8572 51.4399 27.474 51.466 26.5283 49.4033ZM27.7596 46.9075C27.2886 45.6498 26.6323 45.3222 26.162 43.8134C25.4055 45.8027 27.4444 49.8074 29.2512 50.8151C29.4334 50.3109 29.3023 49.7837 30.0632 48.7239C30.9005 47.3152 31.1867 46.1813 30.7958 44.7938C30.4282 45.122 30.0393 46.0812 29.5349 46.8098C29.1951 47.6664 28.8528 48.8252 28.9593 49.8074C28.4367 49.3827 28.5672 48.8003 27.7552 46.9093L27.7596 46.9075ZM28.7765 38.7501C27.9903 39.102 27.4683 41.4935 27.416 42.5279C27.4935 44.0136 27.5994 45.2986 28.6182 47.0622C28.5401 47.4153 28.7765 45.8785 30.4251 44.3163C31.8373 42.5788 31.4723 42.1742 32.2578 40.8656C28.6706 43.2577 28.9593 44.9212 28.6447 44.9703C28.6447 44.8696 28.9064 43.0059 28.9064 42.9076C29.1447 41.1198 28.5401 40.9165 28.7765 38.7519V38.7501ZM30.92 38.5499C30.9988 37.3159 31.3418 36.4089 31.5504 35.7531C30.5272 36.1571 29.9277 37.4421 29.5595 38.6008C29.2826 39.8176 29.3277 41.0817 29.6906 42.2773C30.7409 41.0439 31.5504 40.7673 32.3095 40.086C33.5653 38.852 34.1674 37.8207 34.2702 37.4924C33.5906 37.9699 32.544 38.147 31.7074 38.9527C30.9988 39.6334 30.4238 40.5149 30.3204 40.5149C30.2158 40.2892 30.4768 40.2383 30.92 38.5499V38.5499ZM33.6939 36.9385C34.2431 36.3088 35.1856 35.4279 34.9221 34.8479C34.5829 34.9226 33.4052 35.7021 32.8012 36.1826C31.9905 36.8633 31.3115 38.0215 31.5719 38.4989C32.2534 37.6174 33.2476 37.3408 33.6939 36.9385ZM46.4359 34.6162C46.5676 34.2667 46.9049 33.3858 46.3318 33.0073C45.5205 33.0073 43.4066 35.0936 42.8064 35.724C42.1243 36.4277 37.1362 40.123 36.2214 42.0589C35.7801 42.9877 36.3267 50.6834 36.3519 51.1851C36.6129 53.6725 36.8228 54.9041 36.8228 56.4632C37.6317 56.5882 39.5407 57.0699 40.2436 56.3886C40.5078 55.0315 39.8811 51.0844 40.7146 49.8268C41.7094 48.3192 42.1243 45.2033 42.6488 43.7194C43.068 42.5127 44.426 39.776 43.3795 38.8411C41.2656 38.741 41.3942 44.5487 39.6958 43.9196C38.8611 42.3107 40.1415 40.3754 40.9497 39.5467C42.1243 38.4656 45.6276 36.5545 46.4346 34.6174L46.4359 34.6162ZM46.9881 37.7497C46.1686 37.7497 45.7399 38.0755 45.5715 38.599C44.9114 40.9086 46.7328 40.9086 46.0979 41.9752C45.6491 42.7639 44.0679 42.4065 44.0679 44.5639V52.4768C44.0679 53.2606 44.3144 53.3401 45.2292 53.3401C45.487 53.3401 45.4442 53.4814 45.4442 53.9219V56.0525C45.4442 56.4917 45.39 56.7284 45.8224 56.7284H48.1551C48.585 56.7284 48.5334 56.4917 48.5334 56.0525V53.9219C48.5334 53.4814 48.4886 53.3401 48.7496 53.3401C49.6618 53.3401 49.9102 53.2606 49.9102 52.4768V44.5554C49.9102 42.398 48.3266 42.7542 47.8796 41.9667C47.2454 40.9001 49.0648 40.9001 48.4041 38.5905C48.237 38.0682 47.8102 37.7412 46.9888 37.7412L46.9881 37.7497ZM57.6925 51.1779C57.7454 50.6761 58.2945 42.9804 57.8501 42.0516C56.9372 40.1157 51.9466 36.4204 51.2695 35.7167C50.639 35.0864 48.5516 33 47.739 33C47.1369 33.3786 47.5051 34.2595 47.6343 34.6089C48.4451 36.546 51.9447 38.4571 53.1192 39.5382C53.9016 40.3669 55.1814 42.3022 54.3725 43.9111C52.6483 44.5402 52.7788 38.7325 50.6643 38.8326C49.6448 39.7651 51.0015 42.5042 51.4208 43.7109C51.956 45.196 52.3765 48.3113 53.3663 49.8195C54.1784 51.0772 53.5744 55.0242 53.8077 56.3813C54.5377 57.0596 56.4215 56.5809 57.2549 56.456C57.2549 54.898 57.4403 53.6652 57.6994 51.1779H57.6925ZM61.1038 36.1753C60.5295 35.6949 59.3512 34.9153 58.983 34.8407C58.7207 35.4206 59.6626 36.3015 60.2376 36.9313C60.6574 37.3335 61.6788 37.6101 62.3319 38.4916C62.62 38.0142 61.9139 36.8536 61.1038 36.1753V36.1753ZM64.2176 42.27C64.5819 41.0747 64.6272 39.8102 64.3493 38.5936C64.0089 37.4348 63.381 36.1499 62.3584 35.7458C62.5948 36.4016 62.9081 37.3086 62.9888 38.5426C63.4339 40.231 63.6974 40.2819 63.5922 40.5076C63.4875 40.5076 62.9106 39.6261 62.2052 38.9454C61.3925 38.1398 60.3447 37.9626 59.6399 37.4852C59.7439 37.8134 60.3725 38.8447 61.6283 40.0787C62.3609 40.76 63.1723 41.0367 64.2201 42.27H64.2176ZM65.295 47.0555C66.3396 45.2925 66.4172 44.0075 66.4972 42.5224C66.4443 41.488 65.9216 39.0965 65.1638 38.7446C65.3719 40.9092 64.7698 41.1107 65.0302 42.9004C65.0302 43.0005 65.2672 44.8642 65.2672 44.9631C64.9804 44.9139 65.2414 43.2504 61.6813 40.8583C62.4378 42.1669 62.0722 42.5715 63.4875 44.3091C64.8593 45.5873 65.242 46.8316 65.295 47.0537V47.0555ZM65.295 47.0537C65.3089 47.118 65.3076 47.1016 65.295 47.0537V47.0537ZM67.7537 43.8061C67.3086 45.3168 66.6277 45.6444 66.1845 46.9002C65.3448 48.7912 65.4772 49.3712 64.9804 49.7983C65.0838 48.8161 64.7175 47.6573 64.3777 46.8007C63.9055 46.0727 63.4875 45.1129 63.1168 44.7847C62.7511 46.1722 63.0128 47.3061 63.8777 48.7148C64.6103 49.7728 64.4779 50.3018 64.6639 50.806C66.4689 49.7983 68.5355 45.7936 67.7531 43.8043L67.7537 43.8061ZM80.362 59.206H75.1608V60.3357H77.0648V65.3147H78.4599V60.3405H80.3632L80.362 59.206ZM92.336 49.3069V38.2107H86.5466V48.065C86.5466 49.9135 86.5466 52.2189 83.8086 52.2189C80.9905 52.2189 80.9905 49.9135 80.9905 48.065V38.2107H75.1986V49.3069C75.1986 54.3217 78.0419 56.7296 83.7828 56.7296C89.5236 56.7296 92.3385 54.3217 92.3385 49.3069H92.336ZM95.6225 64.3355C94.4928 64.3355 94.3156 63.6772 94.3156 63.0099V59.2109H92.9141V63.0099C92.9141 64.6691 93.9109 65.4657 95.6181 65.4657C97.3253 65.4657 98.329 64.6607 98.329 63.0099V59.2109H96.9351V63.0099C96.9351 63.9163 96.6155 64.3355 95.62 64.3355H95.6225ZM107.105 56.2976H112.737V38.2107H107.261V47.8866H107.209L101.733 38.2101H95.8072V56.2976H101.286V46.4179H101.339L107.105 56.2976ZM111.357 61.1013C111.357 61.7183 111.017 61.9743 110.396 61.9743H108.864V60.2538H110.396C111.017 60.2538 111.357 60.511 111.357 61.1031V61.1013ZM111.747 62.4469V62.4293C112.45 62.1551 112.75 61.6163 112.75 60.8986C112.75 59.9741 112.033 59.2121 110.894 59.2121H107.471V65.3195H108.864V62.9322H110.26C110.962 62.9322 111.22 63.2131 111.318 63.8562C111.389 64.3415 111.37 64.9331 111.539 65.3183H112.937C112.688 64.9761 112.697 64.2572 112.669 63.872C112.625 63.2574 112.428 62.6149 111.744 62.4445L111.747 62.4469ZM116.688 62.6307H114.639C114.654 62.2898 114.885 61.6922 115.685 61.6922C116.299 61.6922 116.576 62.0162 116.691 62.6307H116.688ZM115.72 60.7749C114.325 60.7749 113.374 61.7856 113.374 63.1118C113.374 64.4805 114.273 65.4396 115.72 65.4396C116.763 65.4396 117.518 64.9931 117.872 63.9496H116.763C116.681 64.2226 116.271 64.5235 115.766 64.5235C115.064 64.5235 114.673 64.1717 114.639 63.4024H117.953C118.041 62.041 117.286 60.7749 115.72 60.7749V60.7749ZM127.51 56.2964H133.3V38.2107H127.508V44.4923H122.083V38.2107H116.291V56.2976H122.083V49.1285H127.508L127.51 56.2964ZM134.785 62.6307H132.73C132.746 62.2898 132.982 61.6922 133.778 61.6922C134.392 61.6922 134.668 62.0162 134.783 62.6307H134.785ZM136.044 63.4024C136.132 62.041 135.377 60.7749 133.812 60.7749C132.417 60.7749 131.465 61.7856 131.465 63.1118C131.465 64.4805 132.362 65.4396 133.812 65.4396C134.851 65.4396 135.608 64.9931 135.963 63.9496H134.854C134.774 64.2226 134.366 64.5235 133.86 64.5235C133.158 64.5235 132.766 64.1717 132.73 63.4024H136.044ZM141.509 47.2539C141.509 44.8199 142.377 42.2876 145.09 42.2876C147.486 42.2876 148.012 44.2897 148.116 44.9485H153.752C153.254 40.4118 150.411 37.8037 145.249 37.7794C139.458 37.7794 135.718 41.5529 135.718 47.2539C135.718 52.5981 139.169 56.7284 145.249 56.7284C150.75 56.7284 153.831 52.8523 153.831 49.2056H148.145C147.802 50.9043 147.038 52.2195 145.092 52.2195C142.381 52.2195 141.51 49.6873 141.51 47.2557L141.509 47.2539ZM152.646 63.0536C152.646 63.6863 152.289 64.276 151.569 64.276C150.796 64.276 150.547 63.5832 150.547 62.9504C150.547 62.2916 150.858 61.694 151.569 61.694C152.389 61.694 152.646 62.3347 152.646 63.0536V63.0536ZM153.843 65.038V60.8974H152.646V61.4877H152.627C152.325 60.9733 151.862 60.7761 151.259 60.7761C149.969 60.7761 149.285 61.8214 149.285 62.9668C149.285 64.1802 149.871 65.1921 151.249 65.1921C151.801 65.1921 152.352 64.9688 152.627 64.506H152.646V65.089C152.653 65.7217 152.33 66.184 151.631 66.184C151.19 66.184 150.804 66.0299 150.691 65.5773H149.433C149.497 66.5856 150.555 66.9976 151.464 66.9976C153.578 66.9976 153.845 65.7648 153.845 65.0374L153.843 65.038ZM156.788 61.6934C157.402 61.6934 157.678 62.0174 157.792 62.6319H155.738C155.756 62.291 155.99 61.6934 156.788 61.6934ZM156.824 60.7761C155.426 60.7761 154.478 61.7868 154.478 63.113C154.478 64.4817 155.374 65.4408 156.824 65.4408C157.864 65.4408 158.62 64.9943 158.975 63.9508H157.864C157.784 64.2238 157.373 64.5248 156.868 64.5248C156.166 64.5248 155.774 64.1729 155.738 63.4036H159.056C159.143 62.0422 158.388 60.7761 156.824 60.7761ZM167.626 44.3157C167.626 45.9362 166.152 46.1145 165.075 46.1145H162.049V42.5151H164.76C166.971 42.5151 167.628 43.174 167.628 44.3157H167.626ZM173.422 43.3784C173.422 39.9562 170.577 38.2107 167.288 38.2107H156.255V56.2976H162.046V49.9882H165.126C167.418 49.9882 167.573 51.787 167.733 53.5111C167.813 54.4485 167.917 55.3858 168.207 56.2958H174C173.472 55.4604 173.446 53.3067 173.366 52.4209C173.156 50.1653 172.183 48.4927 170.601 47.9115C172.524 47.2266 173.42 45.2512 173.42 43.3766" fill="white"/>
</g>
</svg>
