<svg width="200" height="100" viewBox="0 0 200 100" fill="none" xmlns="http://www.w3.org/2000/svg">
<mask id="mask0" style="mask-type:alpha" maskUnits="userSpaceOnUse" x="0" y="0" width="200" height="100">
<rect width="200" height="100" fill="#222222"/>
</mask>
<g mask="url(#mask0)">
<path d="M119.596 45.5609V63.0569H123.487V45.5609H128.241V42.9065H123.486V39.2159C123.365 37.0124 124.637 36.4442 126.844 36.4442C127.25 36.4442 127.654 36.4778 128.059 36.5116C128.311 36.5326 128.564 36.5536 128.818 36.5666V33.3971C128.569 33.3554 128.323 33.3081 128.078 33.261C127.393 33.1295 126.719 33 126.027 33C123.118 33 119.723 34.1618 119.596 38.5779V42.9065H116.057V45.5609H119.596Z" fill="white"/>
<path fill-rule="evenodd" clip-rule="evenodd" d="M152.96 33.0201C145.437 33.0201 139.317 39.0148 139.317 46.3852C139.317 53.7556 145.437 59.7495 152.96 59.7495C160.483 59.7495 166.602 53.7534 166.602 46.3847C166.602 39.016 160.481 33.0201 152.96 33.0201ZM163.6 38.9261C162.899 39.3906 162.165 39.807 161.405 40.1722C160.954 39.286 160.408 38.4493 159.776 37.6766C160.333 37.3446 160.864 36.972 161.365 36.562C162.208 37.2549 162.959 38.0492 163.6 38.9261ZM157.861 34.4933C158.955 34.9278 159.983 35.5058 160.919 36.2114C160.445 36.5944 159.942 36.9417 159.414 37.2501C158.742 36.4959 157.989 35.8141 157.169 35.2165C157.419 34.9936 157.65 34.7517 157.861 34.4933ZM158.918 37.5273C158.186 37.9139 157.416 38.2287 156.62 38.4669C156.287 37.7187 155.907 36.9912 155.483 36.2887C155.925 36.0993 156.342 35.8598 156.727 35.5751C157.527 36.1466 158.262 36.8011 158.918 37.5273ZM157.304 34.2897C157.119 34.5062 156.917 34.708 156.7 34.8933C155.98 34.4107 155.214 33.996 154.414 33.6547C155.399 33.7561 156.369 33.9692 157.304 34.2897ZM156.236 35.2454C155.91 35.4725 155.559 35.6646 155.191 35.8181C154.784 35.1973 154.345 34.5981 153.874 34.023C154.7 34.3546 155.492 34.764 156.237 35.2454H156.236ZM153.239 34.1167C153.747 34.7179 154.217 35.349 154.647 36.0067C154.19 36.145 153.717 36.2264 153.239 36.249V34.1167ZM153.239 36.8016C153.822 36.7761 154.4 36.6716 154.954 36.4912C155.373 37.1757 155.747 37.8859 156.073 38.6174C155.146 38.8506 154.195 38.9791 153.239 39.0005V36.8016ZM152.67 36.2497V34.1438C152.17 34.738 151.707 35.3602 151.281 36.0074C151.732 36.1434 152.198 36.2248 152.67 36.2497ZM150.745 35.8206C150.376 35.6675 150.025 35.475 149.698 35.2466C150.44 34.7664 151.228 34.3581 152.051 34.0276C151.582 34.6007 151.146 35.1994 150.745 35.8206ZM151.532 33.6489C150.726 33.9924 149.955 34.4088 149.229 34.8928C149.014 34.704 148.812 34.5017 148.624 34.2871C149.565 33.9643 150.541 33.7497 151.532 33.6477V33.6489ZM160.88 56.5854C159.063 55.6089 159.028 54.2576 159.125 53.7597C159.2 53.3674 159.43 53.4124 159.635 53.4524C159.694 53.464 159.751 53.4753 159.802 53.4753C160.994 53.4753 162.249 53.1288 163.795 51.5829C165.538 49.8396 166.085 45.9675 163.406 43.4432C160.519 40.7215 157.449 41.1974 155.469 43.6431C155.064 44.1449 154.073 44.5117 153.216 44.4834C152.221 44.4454 152.498 45.0404 152.664 45.3968C152.709 45.4948 152.746 45.5748 152.746 45.6186C152.746 45.8214 152.553 45.9675 152.441 45.9357C152.093 45.8384 152.14 46.2297 152.171 46.4826C152.178 46.5421 152.184 46.5939 152.184 46.6299C152.184 46.8194 152.006 46.9151 151.912 46.9151C151.434 46.9151 151.502 47.2921 151.533 47.4643C151.536 47.4844 151.539 47.5017 151.541 47.5152C151.556 47.6395 151.509 47.8576 151.331 47.9545C151.161 48.0488 150.96 48.46 150.96 48.7754C150.96 49.3436 151.491 49.7366 152.38 50.3853C153.263 51.0327 153.376 51.6469 153.392 52.0898C153.408 52.5327 153.449 53.2429 153.652 53.7132C153.89 54.2799 153.859 55.3223 152.635 55.3686C151.333 55.42 149.152 56.3136 148.46 56.5971L148.46 56.5972L148.459 56.5975C148.356 56.6396 148.286 56.6681 148.257 56.6784C147.413 56.9716 146.296 57.078 145.426 56.864C144.957 56.5385 144.51 56.1836 144.088 55.8013C143.912 55.2116 144.216 54.5789 144.521 54.1537C144.974 54.5978 145.628 54.6121 146.056 54.6216C146.099 54.6225 146.14 54.6234 146.178 54.6247C146.597 54.6426 148.642 54.3277 148.932 54.2327C149.222 54.1377 149.351 54.1694 149.528 54.2327C150.308 54.5101 151.38 54.5937 151.814 53.1285C152.249 51.6634 151.221 52.0716 151.091 52.1351C150.961 52.1986 150.783 52.1836 150.848 52.0576C151.017 51.7282 150.815 51.7191 150.653 51.7118L150.653 51.7118L150.653 51.7118L150.652 51.7118L150.652 51.7118C150.646 51.7115 150.64 51.7112 150.634 51.7109C150.628 51.7107 150.622 51.7104 150.617 51.71C150.613 51.7098 150.609 51.7096 150.605 51.7093C150.6 51.709 150.595 51.7086 150.591 51.7082C150.173 51.668 149.626 52.1036 149.448 52.2601C149.27 52.4167 149.094 52.4024 149.029 52.3709C148.835 52.2765 148.508 52.2628 148.141 52.2476C147.458 52.2191 146.641 52.1851 146.307 51.6132C146.355 51.3787 145.887 47.8125 145.649 47.1978C145.608 47.1036 145.593 47.0009 145.604 46.8992C145.615 46.7976 145.652 46.7002 145.711 46.6163C145.992 46.203 146.603 46.3626 147.165 46.5094C147.443 46.5823 147.71 46.652 147.919 46.6471C148.57 46.6291 148.747 46.3963 148.918 46.1728L148.918 46.1727C148.944 46.1382 148.97 46.1039 148.998 46.0707C149.127 45.9125 149.233 45.9157 149.322 45.9184C149.369 45.9199 149.411 45.9211 149.448 45.8979C149.531 45.845 149.517 45.7606 149.503 45.6813C149.494 45.6296 149.485 45.5801 149.505 45.543C149.53 45.4934 149.558 45.4826 149.597 45.4675C149.633 45.4539 149.677 45.4368 149.737 45.385C149.811 45.3206 149.794 45.2161 149.779 45.1209C149.768 45.0498 149.757 44.9839 149.786 44.9435C149.847 44.853 149.944 44.8164 150.035 44.7819C150.218 44.7122 150.378 44.6515 150.174 44.1725C150.008 43.7781 150.239 43.3502 150.464 43.0669C150.829 42.6066 152.238 40.6643 149.755 38.6487C147.388 36.7268 144.987 36.8813 143.442 38.5222C141.989 40.0641 142.584 42.2758 142.795 43.0594C142.808 43.1096 142.82 43.154 142.83 43.192C142.991 43.8217 142.527 44.3954 141.993 44.6436C141.569 44.8396 140.604 45.4698 139.876 46.0913C139.99 40.9442 143.181 36.4169 148.07 34.4879C148.282 34.7461 148.513 34.9879 148.763 35.2112C148.215 35.6025 147.028 36.6444 147.028 36.6444C147.028 36.6444 147.19 36.6686 147.34 36.7047C147.446 36.7289 147.668 36.7944 147.668 36.7944C147.668 36.7944 148.715 35.9221 149.205 35.5751C149.59 35.8603 150.007 36.0997 150.449 36.2884C150.212 36.6827 149.616 37.7815 149.616 37.7815C149.616 37.7815 149.754 37.8619 149.877 37.9426C149.948 37.9884 150.016 38.0394 150.079 38.0953C150.079 38.0953 150.73 36.8939 150.976 36.4925C151.524 36.6711 152.095 36.7744 152.671 36.7994V39.0007C152.352 38.992 151.527 38.9593 151.193 38.9256L150.983 38.905L151.1 39.0763C151.181 39.1942 151.254 39.3168 151.319 39.4434L151.343 39.4918L151.398 39.4965C151.64 39.5161 152.393 39.5422 152.672 39.5493V43.5547H153.241V42.6383C154.073 42.5991 154.764 42.5426 155.601 42.4721L155.638 42.4677L156.37 41.8295L155.97 41.8634C155.086 41.9768 154.31 42.0292 153.606 42.0675L153.24 42.0885V39.5461C154.273 39.5244 155.3 39.3834 156.3 39.1262C156.574 39.7865 157.091 41.3915 157.091 41.3915L157.625 41.2277C157.625 41.2277 157.108 39.6355 156.837 38.9743C157.687 38.7153 158.508 38.373 159.288 37.9528C159.916 38.7107 160.458 39.534 160.902 40.4077C160.537 40.5741 159.9 40.7987 159.785 40.839C159.774 40.8431 159.768 40.8453 159.768 40.8453C160.117 40.8826 160.463 40.9496 160.801 41.0457C160.801 41.0457 161.009 40.9587 161.141 40.9003C161.193 41.0149 161.295 41.2475 161.295 41.2475L162.03 41.5674L161.945 41.3675C161.945 41.3675 161.702 40.7976 161.645 40.6648C162.431 40.2849 163.19 39.8545 163.918 39.3765C165.31 41.459 166.051 43.8951 166.048 46.3847C166.048 50.5415 164.018 54.2407 160.88 56.5854Z" fill="white"/>
<path d="M138.082 36.5717L137.869 36.7558C137.068 37.45 135.241 39.282 135.522 41.2919C135.522 41.2987 135.55 41.4319 135.55 41.4319L135.642 41.8307L135.896 41.6025C137.016 40.5984 137.856 38.8977 138.198 36.9359L138.296 36.3844L138.082 36.5717Z" fill="white"/>
<path d="M134.276 40.2875L134.369 40.0438L134.457 39.8022L134.652 40.2803C135.215 41.6895 135.472 44.8454 135.277 46.3515L135.104 47.2034L134.968 47.0338C134.968 47.0338 134.837 46.8683 134.839 46.8683C133.662 45.4681 133.621 43.5915 133.795 42.2647C133.918 41.3272 134.149 40.6231 134.276 40.2875Z" fill="white"/>
<path d="M133.014 45.4724L132.996 45.7208C132.897 47.0716 132.969 50.4042 135.724 52.1715C135.724 52.1732 136.051 52.3784 136.051 52.3784L136.037 52.0004C135.989 50.7354 134.482 46.9606 133.351 45.6072L133.029 45.2239L133.014 45.4724Z" fill="white"/>
<path d="M133.535 51.6641L133.488 51.4356L133.438 51.2081L133.838 51.4572C135.611 52.557 138.371 55.8943 138.905 57.3268L139.046 57.705L138.655 57.581C135.792 56.6816 133.937 53.5782 133.535 51.6641Z" fill="white"/>
<path d="M139.013 39.5922C136.881 40.8662 135.884 42.4105 135.96 44.3169L135.979 44.7531L136.289 44.4984C137.442 43.5629 138.883 41.1739 139.31 39.8185L139.464 39.3235L139.013 39.5922Z" fill="white"/>
<path d="M137.824 43.7788L137.987 43.6291L138.144 43.4798L138.162 43.9123C138.223 45.3402 137.104 48.4096 136.26 49.5726L136.032 49.8861L135.908 49.5227C135.77 49.1299 135.69 48.7553 135.665 48.4047C135.512 46.1276 137.278 44.2876 137.824 43.7788Z" fill="white"/>
<path d="M138.077 47.5807L137.956 47.7546C137.066 49.0497 136.612 50.3797 136.64 51.605C136.665 52.5109 136.96 53.3781 137.518 54.183L137.704 54.4551L137.861 54.1677C138.246 53.4585 138.55 51.1608 138.506 49.3436C138.489 48.7018 138.422 48.1702 138.314 47.8079L138.197 47.4067L138.077 47.5807Z" fill="white"/>
<path d="M139.054 51.9878L139.11 51.8049L139.169 51.6268L139.405 51.9299C140.26 53.034 141.353 56.6508 141.395 58.0869C141.395 58.0869 141.372 58.3515 141.372 58.3578L141.316 58.697L141.059 58.5376C139.533 57.58 138.735 56.1979 138.683 54.4318C138.658 53.6509 138.787 52.8286 139.054 51.9878Z" fill="white"/>
<path d="M136.105 57.4092L136.216 57.5909C137.364 59.4755 139.311 61.9074 142.955 61.283L143.259 61.2312L143.086 60.9811C142.405 59.9904 137.984 57.5461 136.42 57.296L135.993 57.2267L136.105 57.4092Z" fill="white"/>
<path d="M140.923 62.3462L141.495 62.1955C146.57 60.8462 150.535 61.4948 152.987 62.4934C155.439 61.4944 159.403 60.8466 164.477 62.1965L165.05 62.3472L164.501 62.5677C162.182 63.4962 159.279 63.7712 157.597 63.2161C156.961 63.0048 156.577 62.6653 156.107 62.2166C155.314 62.2971 154.535 62.5288 153.787 62.8628C154.463 63.2275 156.589 64.4723 158.024 66.3097L158.126 66.4422L158.012 66.5634C157.895 66.6872 157.615 66.8997 157.432 66.9605L157.307 66.999L157.22 66.9021C156.192 65.6496 154.698 64.2195 152.986 63.2653C151.272 64.2197 149.777 65.6507 148.751 66.9031L148.664 67L148.54 66.9615C148.357 66.9007 148.079 66.6882 147.962 66.5644L147.847 66.4432L147.95 66.3107C149.383 64.4727 151.511 63.2276 152.186 62.8634C151.437 62.5284 150.657 62.2961 149.862 62.2156C149.392 62.6643 149.008 63.0038 148.376 63.2151C146.692 63.7702 143.788 63.4952 141.471 62.5667L140.923 62.3462Z" fill="white"/>
<path d="M141.617 56.1604L141.65 56.3503C141.996 58.4886 142.883 61.2932 146.569 60.9831L146.805 60.9649L146.747 60.7391C146.497 59.767 143.12 56.943 141.94 56.149L141.586 55.9692L141.617 56.1604Z" fill="white"/>
<path d="M167.773 36.9368L167.676 36.3854L167.89 36.5717L168.104 36.7568C168.905 37.451 170.732 39.2818 170.45 41.2928C170.449 41.2996 170.421 41.4302 170.421 41.4329C170.421 41.4355 170.333 41.8317 170.333 41.8317L170.077 41.6035C168.957 40.5994 168.116 38.8994 167.773 36.9368Z" fill="white"/>
<path d="M171.514 39.8042L171.32 40.2822C170.754 41.6914 170.496 44.8473 170.692 46.3534L170.866 47.2054L171.003 47.0357C171.003 47.0357 171.134 46.869 171.134 46.8703C172.309 45.4688 172.35 43.5922 172.176 42.2666C172.052 41.3292 171.823 40.6251 171.697 40.2895L171.604 40.0457L171.514 39.8042Z" fill="white"/>
<path d="M172.62 45.6072L172.942 45.2239L172.957 45.4724L172.976 45.7208C173.073 47.0716 173.002 50.4042 170.246 52.1715C170.246 52.1732 169.923 52.3784 169.923 52.3784L169.937 52.0004C169.983 50.7354 171.492 46.9602 172.62 45.6072Z" fill="white"/>
<path d="M172.533 51.2081L172.133 51.4572C170.36 52.557 167.6 55.8943 167.067 57.3268L166.924 57.705L167.317 57.581C170.18 56.6816 172.034 53.5792 172.437 51.6641L172.488 51.4356L172.533 51.2081Z" fill="white"/>
<path d="M166.763 39.7552L166.616 39.2578L166.837 39.3964L167.062 39.5357C169.166 40.8502 170.135 42.4137 170.019 44.3169L169.995 44.7531L169.687 44.4936C168.553 43.5365 167.159 41.1203 166.763 39.7552Z" fill="white"/>
<path d="M167.826 43.48L167.809 43.9125C167.751 45.3404 168.866 48.4096 169.711 49.5728L169.94 49.8864L170.067 49.5229C170.203 49.1302 170.283 48.7556 170.306 48.405C170.46 46.1274 168.694 44.2883 168.147 43.779L167.988 43.6293L167.826 43.48Z" fill="white"/>
<path d="M167.657 47.8079L167.779 47.4067L167.897 47.5807L168.015 47.7546C168.907 49.05 169.36 50.3797 169.33 51.605C169.307 52.5112 169.013 53.3781 168.457 54.183L168.268 54.4551L168.11 54.1677C167.727 53.4585 167.421 51.1608 167.467 49.3436C167.484 48.7018 167.548 48.1714 167.657 47.8079Z" fill="white"/>
<path d="M166.8 51.6256L166.567 51.9287C165.712 53.0328 164.618 56.6496 164.578 58.0857C164.578 58.0857 164.599 58.3503 164.6 58.3566L164.656 58.6958C164.656 58.6958 164.914 58.5363 164.914 58.5363C166.439 57.5788 167.239 56.1967 167.291 54.4306C167.313 53.6497 167.187 52.8274 166.917 51.9866L166.8 51.6256Z" fill="white"/>
<path d="M169.552 57.2953L169.977 57.226L169.867 57.4085L169.757 57.5902C168.609 59.4748 166.664 61.9067 163.017 61.2823L162.714 61.2304L162.885 60.9804C163.566 59.9896 167.988 57.5454 169.552 57.2953Z" fill="white"/>
<path d="M164.032 56.1492L164.386 55.9692L164.355 56.1606L164.323 56.3506C163.975 58.4889 163.088 61.2939 159.401 60.9833L159.168 60.9651L159.225 60.7393C159.474 59.7672 162.851 56.9432 164.032 56.1492Z" fill="white"/>
<path d="M70.0949 33.9639H74.7541V38.1251H70.0949V33.9639Z" fill="white"/>
<path d="M70.4641 63.1259V42.851H74.3818V63.1259H70.4641Z" fill="white"/>
<path d="M44.8124 42.8685H40.895L40.8965 53.2901C40.8965 53.7747 40.8522 56.1577 40.1117 58.0573C39.2878 60.1549 37.1035 60.9634 35.4945 60.9634C31.7428 60.9634 30.9187 58.3798 30.9187 54.8651V42.8685H27V56.4395C27 60.5191 29.4734 63.7498 33.8019 63.7498C36.6889 63.7498 39.3278 62.7002 40.8955 60.1549H40.9771V63.1446H44.8124V42.8685Z" fill="white"/>
<path d="M52.6329 45.8565H52.7158C54.0341 43.3124 56.9206 42.2635 58.9825 42.2635C60.4247 42.2635 66.8158 42.6269 66.8158 49.1294V63.1446H62.9009V50.3826C62.9009 47.0299 61.4564 45.2134 58.1581 45.2134C58.1581 45.2134 56.0121 45.0923 54.3643 46.7072C54.354 46.7173 54.3435 46.7276 54.3328 46.7379C54.3263 46.7443 54.3196 46.7507 54.313 46.7572L54.2991 46.7706C53.7111 47.3408 52.7158 48.3059 52.7158 52.1194V63.1446H48.7981V42.8685H52.6319L52.6329 45.8565Z" fill="white"/>
<path d="M86.564 45.0809C89.3525 45.0809 90.5786 46.8431 90.7841 49.3722H94.6709C94.471 44.9992 91.1967 42.3068 86.8548 42.3068C80.3366 42.3068 77.3074 47.2383 77.3074 53.1448C77.3074 59.0861 79.9285 63.6578 86.5214 63.6578C91.0703 63.6578 94.5081 60.8912 94.8406 56.3559H90.9434C90.7401 59.2506 89.1423 60.8912 86.564 60.8912C82.8407 60.8912 81.4036 57.7232 81.4036 52.9844C81.4036 48.2455 82.84 45.0809 86.564 45.0809Z" fill="white"/>
<path fill-rule="evenodd" clip-rule="evenodd" d="M100.689 53.7045C100.403 57.2369 101.877 60.8912 105.848 60.8912C108.88 60.8912 110.395 59.7282 110.844 56.7921H114.945C114.327 61.3741 110.722 63.6578 105.81 63.6578C99.2136 63.6578 96.5873 59.0861 96.5873 53.1448C96.5873 47.2383 99.6252 42.3068 106.137 42.3068C112.279 42.4324 115.186 46.2393 115.186 51.8238V53.7045H100.689ZM111.094 51.061C111.176 47.6899 109.616 45.0809 105.848 45.0809C102.608 45.0809 100.689 47.7612 100.689 51.0598L111.094 51.061Z" fill="white"/>
</g>
</svg>
