<svg width="290" height="431" viewBox="0 0 290 431" fill="none" xmlns="http://www.w3.org/2000/svg">
<path d="M288.2 430V431H289.2V430H288.2ZM1.4 430L0.400066 429.989L0.388441 431H1.4V430ZM26.6 338.8L25.7542 338.266L26.6 338.8ZM93.8 271L94.3601 271.828L94.3765 271.817L94.3924 271.806L93.8 271ZM136.4 242.2L136.928 243.049L136.936 243.044L136.944 243.039L136.4 242.2ZM207.8 176.8L208.64 177.342L208.644 177.336L208.648 177.33L207.8 176.8ZM220.4 133L221.4 133.024L221.4 133.012V133H220.4ZM217.4 109L216.416 109.179L216.421 109.205L216.427 109.232L217.4 109ZM207.2 85L206.375 85.5647L206.382 85.5751L206.389 85.5855L207.2 85ZM185.6 66.4L185.108 67.2706L185.123 67.2788L185.137 67.2866L185.6 66.4ZM115.4 67L115.909 67.861L115.92 67.8542L115.4 67ZM93.8 89.2L92.9361 88.6961L92.9294 88.7079L93.8 89.2ZM81.8 122.2L80.8231 121.986L80.8199 122.001L80.8171 122.016L81.8 122.2ZM77.6 163.6V164.6H78.5733L78.5996 163.627L77.6 163.6ZM9.2 163.6H8.2V164.6H9.2V163.6ZM18.2 99.4L17.2475 99.0952L17.2438 99.1073L18.2 99.4ZM91.4 14.2L91.8138 15.1104L91.8229 15.1062L91.4 14.2ZM218 14.2L217.561 15.0986L218 14.2ZM259.4 46L258.624 46.6306L258.63 46.6378L258.636 46.6448L259.4 46ZM282.2 88L281.239 88.278L281.241 88.2849L282.2 88ZM281 176.2L280.066 175.843L281 176.2ZM260 214L260.786 214.618L260.792 214.611L260.797 214.604L260 214ZM230 245.2L229.349 244.441L230 245.2ZM159.2 296.2L159.735 297.045L159.2 296.2ZM125.6 319L125.01 318.193L125.002 318.198L124.995 318.204L125.6 319ZM99.2 343L99.925 343.689L99.9334 343.68L99.9415 343.671L99.2 343ZM83.6 368.8L82.6433 368.509L82.2504 369.8H83.6V368.8ZM288.2 368.8H289.2V367.8H288.2V368.8ZM288.2 429H1.4V431H288.2V429ZM2.39993 430.011C2.7981 395.371 11.157 365.157 27.4458 339.333L25.7542 338.266C9.24299 364.443 0.801905 395.029 0.400066 429.989L2.39993 430.011ZM27.4458 339.333C43.7639 313.463 66.0615 290.96 94.3601 271.828L93.2399 270.172C64.7386 289.44 42.2361 312.137 25.7542 338.266L27.4458 339.333ZM94.3924 271.806C107.971 261.822 122.149 252.236 136.928 243.049L135.872 241.351C121.051 250.564 106.829 260.178 93.2076 270.194L94.3924 271.806ZM136.944 243.039C151.781 233.415 165.419 223.187 177.857 212.354L176.543 210.846C164.181 221.613 150.619 231.785 135.856 241.361L136.944 243.039ZM177.857 212.354C190.32 201.499 200.584 189.829 208.64 177.342L206.96 176.258C199.016 188.57 188.88 200.101 176.543 210.846L177.857 212.354ZM208.648 177.33C216.751 164.365 220.996 149.587 221.4 133.024L219.4 132.976C219.004 149.213 214.849 163.635 206.952 176.27L208.648 177.33ZM221.4 133C221.4 125.312 220.388 117.234 218.373 108.768L216.427 109.232C218.412 117.566 219.4 125.488 219.4 133H221.4ZM218.384 108.821C216.757 99.8754 213.299 91.7363 208.011 84.4145L206.389 85.5855C211.501 92.6637 214.843 100.525 216.416 109.179L218.384 108.821ZM208.025 84.4353C202.721 76.6834 195.389 70.3795 186.063 65.5134L185.137 67.2866C194.211 72.0204 201.279 78.1165 206.375 85.5647L208.025 84.4353ZM186.092 65.5294C176.694 60.2173 164.507 57.6 149.6 57.6V59.6C164.293 59.6 176.106 62.1827 185.108 67.2706L186.092 65.5294ZM149.6 57.6C135.864 57.6 124.273 60.4284 114.88 66.1458L115.92 67.8542C124.927 62.3716 136.136 59.6 149.6 59.6V57.6ZM114.891 66.1391C105.932 71.4333 98.6145 78.962 92.9362 88.6961L94.6638 89.7039C100.186 80.238 107.268 72.9667 115.909 67.8609L114.891 66.1391ZM92.9294 88.7079C87.6702 98.0128 83.6395 109.111 80.8231 121.986L82.7769 122.414C85.5605 109.689 89.5298 98.7872 94.6706 89.692L92.9294 88.7079ZM80.8171 122.016C78.4062 134.874 77.0016 148.727 76.6004 163.573L78.5996 163.627C78.9984 148.873 80.3938 135.126 82.7829 122.384L80.8171 122.016ZM77.6 162.6H9.2V164.6H77.6V162.6ZM10.2 163.6C10.2 140.486 13.1888 119.186 19.1562 99.6927L17.2438 99.1073C11.2112 118.814 8.2 140.314 8.2 163.6H10.2ZM19.1524 99.7048C25.5158 79.8191 34.8541 62.7406 47.1578 48.4525L45.6422 47.1475C33.1459 61.6593 23.6842 78.9809 17.2476 99.0952L19.1524 99.7048ZM47.1578 48.4525C59.4615 34.1643 74.3434 23.0514 91.8138 15.1104L90.9862 13.2896C73.2566 21.3485 58.1385 32.6356 45.6422 47.1475L47.1578 48.4525ZM91.8229 15.1062C109.668 6.77849 130.319 2.59998 153.8 2.59998V0.599976C130.081 0.599976 109.132 4.82146 90.9771 13.2938L91.8229 15.1062ZM153.8 2.59998C179.297 2.59998 200.536 6.78387 217.561 15.0986L218.439 13.3014C201.064 4.81609 179.503 0.599976 153.8 0.599976V2.59998ZM217.561 15.0986C234.651 23.445 248.329 33.9601 258.624 46.6306L260.176 45.3694C249.671 32.4399 235.749 21.755 218.439 13.3014L217.561 15.0986ZM258.636 46.6448C269.351 59.3441 276.881 73.2205 281.239 88.278L283.161 87.7219C278.719 72.3795 271.049 58.2559 260.164 45.3551L258.636 46.6448ZM281.241 88.2849C285.618 103.005 287.8 117.108 287.8 130.6H289.8C289.8 116.891 287.582 102.595 283.159 87.715L281.241 88.2849ZM287.8 130.6C287.8 147.296 285.216 162.373 280.066 175.843L281.934 176.557C287.184 162.827 289.8 147.504 289.8 130.6H287.8ZM280.066 175.843C274.9 189.354 267.946 201.871 259.203 213.396L260.797 214.604C269.654 202.929 276.7 190.246 281.934 176.557L280.066 175.843ZM259.214 213.382C250.456 224.529 240.501 234.882 229.349 244.441L230.651 245.959C241.899 236.318 251.944 225.871 260.786 214.618L259.214 213.382ZM229.349 244.441C218.174 254.02 206.6 263 194.627 271.381L195.773 273.019C207.8 264.6 219.426 255.58 230.651 245.959L229.349 244.441ZM194.627 271.381C182.639 279.772 170.652 287.764 158.665 295.355L159.735 297.045C171.748 289.436 183.761 281.428 195.773 273.019L194.627 271.381ZM158.665 295.355C146.648 302.966 135.43 310.578 125.01 318.193L126.19 319.807C136.57 312.222 147.752 304.634 159.735 297.045L158.665 295.355ZM124.995 318.204C114.951 325.837 106.104 333.879 98.4585 342.329L99.9415 343.671C107.496 335.321 116.249 327.363 126.205 319.796L124.995 318.204ZM98.475 342.311C90.7838 350.407 85.4949 359.14 82.6433 368.509L84.5567 369.091C87.3052 360.06 92.4162 351.593 99.925 343.689L98.475 342.311ZM83.6 369.8H288.2V367.8H83.6V369.8ZM287.2 368.8V430H289.2V368.8H287.2Z" fill="white"/>
</svg>
