<svg width="200" height="100" viewBox="0 0 200 100" fill="none" xmlns="http://www.w3.org/2000/svg">
<mask id="mask0" style="mask-type:alpha" maskUnits="userSpaceOnUse" x="0" y="0" width="200" height="100">
<rect width="200" height="100" fill="#222222"/>
</mask>
<g mask="url(#mask0)">
<path d="M40.5081 40.8019L41.0111 40.6344L41.2961 40.7303L41.5619 40.511L41.5767 40.4369L41.0833 40.1897L40.9504 40.184L40.3481 40.4899L40.1816 40.4313L40.111 40.5385L40.4303 40.8019H40.5081Z" fill="white"/>
<path d="M44.2529 41.7047L44.033 41.3551L43.6885 41.3316V41.534L44.2218 41.7622L44.2529 41.7047Z" fill="white"/>
<path d="M44.6529 49.0501L44.6597 49.2419L44.9371 49.4879L45.0644 49.3499L45.0772 49.2123L44.8425 49.0432L44.6529 49.0501Z" fill="white"/>
<path fill-rule="evenodd" clip-rule="evenodd" d="M30.3962 48.1194C30.3962 43.081 34.424 39 39.3925 39C44.3615 39 48.3897 43.0814 48.3897 48.1194C48.3897 53.1573 44.3611 57.2403 39.3925 57.2403C34.424 57.2403 30.3962 53.1577 30.3962 48.1194ZM45.9828 47.8151H47.7814C47.7131 45.7693 46.9165 43.8179 45.539 42.3214L44.8985 42.971L45.3534 43.4496L45.3135 43.7932L45.6328 43.9955L46.2107 44.9315L46.162 45.184L45.6851 45.3839L45.2811 44.6765L45.0976 44.7572C45.6291 45.6827 45.9361 46.7311 45.9828 47.8151ZM45.1127 41.8905L44.4807 42.5314L43.9512 41.9742L43.0008 41.7391L42.905 42.1438L43.3393 42.4606L43.3024 42.7331C42.2568 41.9513 41.0013 41.4979 39.6931 41.4389V39.6159C41.7113 39.6855 43.6365 40.4934 45.1127 41.8905ZM40.2411 48.9786C40.3868 48.8309 40.4911 48.6491 40.5467 48.4518L40.5501 48.3573L40.289 48.0445L40.5018 47.7669L40.3186 47.6572L40.3668 47.461L40.1238 47.465L39.7817 47.0482L39.6556 47.164L39.4875 46.908C39.456 46.9054 39.4243 46.9042 39.3925 46.9042C39.3604 46.9042 39.3283 46.9055 39.2965 46.9081L39.3478 47.0604L38.8485 47.1498L38.8373 47.484L38.512 47.6143L38.5475 48.1614L38.3959 48.1946L38.1942 48.0604C38.1932 48.0796 38.1927 48.0989 38.1927 48.1181C38.1927 48.2732 38.2219 48.4253 38.2772 48.5667L38.4653 48.5147L38.4893 48.3468L38.684 48.2994L38.7132 48.4661L38.4933 48.9238C38.5096 48.9425 38.5266 48.9608 38.5441 48.9786C38.5724 49.0073 38.6021 49.0345 38.6328 49.06L38.878 48.7963L38.9978 48.4726L39.4959 48.4548L39.5566 48.5038L39.3977 49.0452L39.0441 49.2827C39.1561 49.3172 39.2734 49.3353 39.3925 49.3354C39.7109 49.3351 40.0161 49.2068 40.2411 48.9786ZM39.6931 51.5462V51.1602L40.0627 50.9163L40.5628 51.1567L40.8107 51.0972V50.9637L40.9396 50.8314L41.0941 51.011L41.427 50.7472L41.5958 51.0019C41.208 51.3075 40.7635 51.5277 40.2908 51.6507L40.1094 51.4675H39.8013L39.6931 51.5462ZM41.2536 50.434L40.9875 50.1646L40.8346 50.2572L40.8183 50.519L41.0833 50.5671L41.2536 50.434ZM39.0932 49.9148V51.5619L38.8583 51.7239C38.1999 51.625 37.5803 51.3408 37.0711 50.9014L38.3508 49.6036C38.5712 49.7641 38.8253 49.8706 39.0932 49.9148ZM36.6464 51.3352C37.136 51.7656 37.7148 52.0725 38.3355 52.2358L38.2031 52.4852L38.4162 53.0113L39.0932 53.3705V54.1925C37.9144 54.1349 36.7838 53.7246 35.8411 53.0201L35.9631 52.968L36.4021 53.0287L36.5219 52.8607L35.8919 52.0994L36.6464 51.3352ZM39.6919 54.1941L39.6922 53.6885L40.0128 53.8586L40.5109 53.7846L40.4227 54.1124C40.1821 54.1547 39.938 54.1821 39.6919 54.1941ZM41.8122 55.6622L40.6878 54.6788C40.3613 54.7447 40.0287 54.7857 39.6927 54.8007V56.6244C41.711 56.5544 43.6361 55.7462 45.1123 54.3491L43.8406 53.0578C43.6668 53.2194 43.4852 53.3707 43.2969 53.5113L43.5061 53.6911L42.7617 55.145L42.0732 55.6488L41.8122 55.6622ZM42.8519 52.7778L43.1635 52.8495C43.2493 52.7789 43.3333 52.7058 43.4155 52.6301L43.1123 52.3226L42.8316 52.4905L42.8519 52.7778ZM43.3888 51.6488L43.3783 51.7306L43.8394 52.1983C44.7696 51.1597 45.3149 49.8257 45.3821 48.4245H43.8336L44.0813 48.8283L44.3527 49.0201L44.5663 49.5268L43.7504 49.7651L43.5712 49.6437L43.5153 49.8897L43.3556 49.9395L43.2819 49.7138C43.2025 49.9131 43.1082 50.1062 42.9995 50.2914L43.2191 50.4732L42.9314 51.2774L43.0945 51.4429L43.1517 51.2024L43.3062 51.1818L43.3888 51.6488ZM44.6691 47.8141L44.0754 47.8146L44.1759 47.6006L44.4254 47.5168L44.6273 47.1931L44.8413 46.141L44.7451 45.7436L44.4844 45.6712L44.5794 45.3709L44.3659 45.309L44.4597 45.1128L44.4014 45.0043L44.1619 45.1289L43.8546 44.6106L43.6782 44.5875L43.7133 44.4062L43.5925 44.2903L43.8402 44.0392C44.7704 45.078 45.3157 46.4121 45.3829 47.8134L45.1236 47.8137L45.1031 47.4784L44.985 47.2874L45.1047 47.1895V46.8285L44.9023 46.9365L44.8524 47.1761L44.6529 47.6099L44.6691 47.8141ZM42.3777 43.1251L43.1575 43.8731L43.4155 43.6119C42.391 42.6687 41.0753 42.1156 39.6931 42.0471V43.879C40.5963 43.9434 41.4544 44.3035 42.1383 44.9052L42.8527 44.1817L42.4376 43.6552L42.3179 43.2101L42.3777 43.1251ZM43.7947 45.3766L43.2289 44.6589L42.5629 45.3341C42.7219 45.5198 42.8637 45.7181 42.9875 45.9266L43.263 45.9662L43.5824 46.351L43.5001 46.5651L43.5947 46.6743L43.8546 46.472L44.2593 46.8576L44.0925 47.4092L44.3056 47.3631L44.4852 47.0134L44.3312 46.2583L43.7855 45.9107L43.7947 45.3766ZM42.1383 45.7647C42.2051 45.8446 42.2682 45.9273 42.3277 46.0123L42.1087 46.3534L41.8835 46.0236L42.1383 45.7647ZM40.4335 46.633C40.3577 46.5783 40.2781 46.5297 40.1953 46.4877L40.2411 46.3903L40.7145 46.1155L40.8095 45.7424L40.7029 45.6089L40.2411 46.0062L39.6931 45.846V44.4867C40.4375 44.5495 41.1443 44.8456 41.7152 45.3341L40.4335 46.633ZM39.0932 44.4851V45.7165L38.8174 45.8739L38.7232 46.332L37.819 46.0934L37.0711 45.3349C37.6412 44.8447 38.3482 44.5475 39.0932 44.4851ZM36.6476 45.7647L36.9376 46.0595L36.1968 46.4478C36.3204 46.2049 36.4714 45.9755 36.6476 45.7647ZM36.2193 50.9038C35.6727 50.2654 35.3284 49.4768 35.2283 48.6409L35.0307 48.7441L35.0985 49.2435L35.5476 50.2887L35.4813 50.9362L35.7537 51.3758L36.2193 50.9038ZM34.7616 48.6822L34.9451 48.4245L33.4014 48.4249C33.4146 48.7082 33.4475 48.9889 33.4992 49.2649L33.9386 48.8886L34.1382 48.8522L34.8016 49.394L34.7616 48.6822ZM32.7982 48.4245C32.8246 49.021 32.9296 49.6066 33.1073 50.167L32.5041 49.8853L32.3149 49.9468L32.2558 50.1127L32.1385 50.1487L32.0311 50.0273H31.8403L31.6974 50.57L31.8934 51.1713L32.4203 51.529L32.5468 51.2947L32.8465 51.7584L33.5251 52.1073L33.7374 52.5742L34.2272 52.9234L33.2477 53.9177C31.8698 52.4214 31.0722 50.4703 31.0021 48.4245H32.7982ZM36.074 47.3521L35.8793 47.342C35.8459 47.4973 35.8225 47.6553 35.8094 47.8151H36.093L36.074 47.3521ZM35.8082 48.4245H36.1179L36.1315 48.7563L35.847 48.7347C35.8297 48.6322 35.8168 48.5287 35.8082 48.4245ZM37.2679 48.8457L37.4663 48.4245H37.6203C37.6376 48.5276 37.6636 48.6288 37.6977 48.7269L37.2679 48.8457ZM36.6464 50.4745C36.2804 50.0366 36.0235 49.5192 35.8935 48.9658L37.1505 49.1978L37.115 49.3305L37.4446 49.665L36.6464 50.4745ZM42.1383 51.3352C42.0348 51.4262 41.9273 51.5117 41.8163 51.5915L42.2851 51.8616L42.5901 51.7932L42.1383 51.3352ZM36.6464 44.9039C37.3308 44.3022 38.1895 43.9421 39.0932 43.8777L39.0928 42.0442C37.7102 42.1126 36.394 42.6657 35.3691 43.609L36.6464 44.9039ZM41.9638 49.9877L41.8151 50.1465L41.4957 49.8222L41.4366 49.6801L41.6936 49.5223L41.88 49.7485L41.9638 49.9877ZM34.9449 43.1813C36.0833 42.1253 37.5516 41.5085 39.0932 41.4389V39.6159C37.0746 39.6855 35.149 40.4934 33.6724 41.8905L34.9449 43.1813ZM35.2079 47.8151C35.2715 46.8993 35.6264 46.0292 36.2193 45.3353L34.9437 44.0408C34.0137 45.0796 33.4688 46.4138 33.4022 47.8151H35.2079ZM39.0912 54.8007C37.5492 54.7326 36.0803 54.1155 34.9429 53.0578L33.6704 54.3491C35.1471 55.7462 37.0725 56.5544 39.0912 56.6244V54.8007ZM33.2475 42.3216L34.521 43.6119C33.479 44.7649 32.8703 46.2528 32.8014 47.8151H31.0053C31.0745 45.7696 31.8709 43.8186 33.2475 42.3216ZM45.537 53.9177L44.7207 53.0898L44.7231 53.0898L44.8596 52.8292L44.7399 52.2598L44.6357 52.1803C45.4502 51.1013 45.9226 49.7912 45.982 48.4245H47.7806C47.7121 50.4702 46.9151 52.4216 45.537 53.9177Z" fill="white"/>
<path d="M50.7714 48.7243L51.0727 48.7413C51.2215 48.0832 51.3881 47.712 51.5321 47.3911C51.7929 46.8099 51.9796 46.3939 51.8523 44.7376C51.9045 44.7235 51.9462 44.7115 51.9877 44.6996L51.9878 44.6996L51.9879 44.6995C52.0343 44.6862 52.0806 44.6729 52.1412 44.6567C53.7869 48.2917 51.0528 51.3 50.5187 51.7855L50.2345 51.6917C50.3278 50.3385 50.0286 49.6379 49.7341 48.9482C49.406 48.1797 49.0836 47.4247 49.3165 45.7958L49.6091 45.7274C49.7856 46.2078 49.9576 46.4958 50.1168 46.7625L50.1169 46.7625C50.3834 47.2089 50.6142 47.5955 50.7714 48.7243Z" fill="white"/>
<path d="M48.5763 52.9096C48.5819 52.1565 48.5874 51.4076 49.4362 49.9148V49.914C49.4362 49.914 49.6366 49.952 49.7304 49.9666C49.6486 50.4663 49.6805 50.8254 49.7133 51.195C49.764 51.7664 49.817 52.3627 49.4554 53.5422L49.7184 53.6834C50.0486 53.0555 50.5206 52.5451 50.9876 52.0402L50.9876 52.0402C51.6186 51.358 52.2402 50.6858 52.4905 49.7473L52.7879 49.7878C52.7886 54.6149 48.401 56.1463 47.8542 56.3372L47.854 56.3372L47.8537 56.3373L47.8534 56.3374L47.8529 56.3376L47.8371 56.3431L47.8261 56.347C47.8164 56.3504 47.8092 56.3531 47.8045 56.3549C47.8045 56.3549 47.6936 56.24 47.5934 56.1433C48.5645 54.4899 48.5704 53.6975 48.5763 52.9096Z" fill="white"/>
<path d="M49.9048 42.924L49.639 43.0555V43.0547C48.5448 42.2606 48.1973 41.6697 47.859 41.0946C47.6075 40.6671 47.3612 40.2483 46.817 39.7612L47.0166 39.5382C49.1864 40.7222 49.5795 41.7642 49.9048 42.924Z" fill="white"/>
<path d="M49.3567 43.5383C49.6607 43.7943 49.9399 44.0293 50.1719 44.3597L50.4549 44.2638C50.4112 44.0138 50.399 43.7722 50.3867 43.527C50.3503 42.8058 50.3125 42.0543 49.4674 40.9719L49.7112 40.7967C52.2837 42.2745 51.4 46.4214 51.0408 47.0867C51.0408 47.0867 50.9075 47.0968 50.7442 47.1142C50.3623 45.8591 49.8214 45.3676 49.2873 44.8823C48.6871 44.3371 48.0957 43.7997 47.7483 42.1956L47.9969 42.0244C48.4579 42.7817 48.9316 43.1805 49.3567 43.5383Z" fill="white"/>
<path d="M46.2491 57.3504L46.4319 57.5895V57.5887C47.1264 57.1312 47.7158 56.9271 48.2844 56.7303C49.163 56.4261 49.9916 56.1392 51.0807 54.9609C51.0807 54.9609 51.222 55.0438 51.3418 55.1122C48.4974 60.0349 44.9666 59.0459 42.8823 57.8344C42.8823 57.8344 42.8236 57.6725 42.7781 57.5511C44.615 57.6442 45.192 56.8443 45.8997 55.8634C46.3636 55.2204 46.8837 54.4995 47.8516 53.9015C47.9382 53.9671 48.0979 54.0751 48.0979 54.0751C47.8737 54.477 47.7355 54.8214 47.6014 55.1553C47.3391 55.8089 47.0928 56.4227 46.2491 57.3504Z" fill="white"/>
<path d="M35.5394 58.597C36.756 58.0706 37.9329 57.5615 39.3925 58.0565V58.0557C40.8523 57.5607 42.0289 58.0698 43.2454 58.5962C44.6402 59.1998 46.0875 59.8261 48.0744 58.9872L48.2635 59.2248C45.9003 61.4395 44.2587 60.3464 42.7318 59.3298C41.8197 58.7226 40.9487 58.1426 39.9893 58.3111C40.7021 58.6728 41.4841 59.2733 42.3698 60.219C42.198 60.404 42.0806 60.5274 41.9434 60.6716L41.9434 60.6716C41.8546 60.7649 41.7576 60.8669 41.6321 61C40.8059 59.6056 40.0711 58.8525 39.3925 58.513C38.712 58.8525 37.9784 59.6068 37.1533 61C37.051 60.8918 36.9675 60.8041 36.8921 60.7249L36.8908 60.7235C36.7309 60.5556 36.6073 60.4258 36.4177 60.219C37.3014 59.2733 38.0841 58.6728 38.7978 58.3111C37.8373 58.1426 36.9658 58.723 36.0534 59.3305C34.5264 60.3474 32.8852 61.4403 30.5219 59.2248L30.7115 58.9872C32.6971 59.8266 34.1444 59.2005 35.5394 58.597Z" fill="white"/>
<path d="M36.009 57.5515C35.9615 57.6729 35.904 57.8348 35.904 57.8348V57.834C33.8181 59.0455 30.2892 60.0345 27.4437 55.111C27.5627 55.0406 27.7032 54.9597 27.7032 54.9597C28.7934 56.1389 29.6232 56.4265 30.5021 56.7311C31.0708 56.9282 31.66 57.1324 32.3536 57.59L32.5364 57.3508C31.6934 56.4231 31.4468 55.8093 31.1843 55.1557C31.0501 54.8218 30.9118 54.4774 30.6876 54.0755C30.6876 54.0755 30.8468 53.9675 30.9338 53.9019C31.9016 54.4998 32.4216 55.2206 32.8856 55.8637C33.5935 56.8451 34.1709 57.6454 36.009 57.5515Z" fill="white"/>
<path d="M28.5545 51.6925L28.2691 51.7864V51.7855C27.7319 51.2979 24.9989 48.293 26.6446 44.6571C26.7038 44.6728 26.7488 44.6858 26.7932 44.6985L26.7933 44.6986C26.8368 44.7111 26.8797 44.7234 26.9348 44.738C26.8075 46.3947 26.9942 46.8107 27.255 47.392C27.399 47.7128 27.5655 48.084 27.7143 48.7421L28.0121 48.7251C28.1701 47.5977 28.4015 47.2107 28.668 46.765C28.8278 46.4978 29.0001 46.2096 29.1768 45.7282L29.4698 45.7966C29.7025 47.4248 29.3807 48.1794 29.0532 48.9475C28.7589 49.6374 28.4601 50.3381 28.5545 51.6925Z" fill="white"/>
<path d="M30.9277 41.0947C30.5897 41.6702 30.2424 42.2612 29.1473 43.0555L28.8814 42.924C29.2059 41.7638 29.5995 40.7222 31.7693 39.5382C31.8403 39.6175 31.9688 39.7612 31.9688 39.7612C31.4249 40.2484 31.1788 40.6673 30.9277 41.0947Z" fill="white"/>
<path d="M31.1933 56.1433C31.0947 56.24 30.9833 56.3549 30.9833 56.3549L30.9817 56.3541C30.9775 56.3524 30.971 56.35 30.9624 56.347C30.9541 56.344 30.9439 56.3405 30.9318 56.3362C30.3834 56.1448 25.9966 54.613 26 49.7898L26.299 49.7493C26.5479 50.688 27.1692 51.3603 27.7997 52.0426C28.2662 52.5474 28.7378 53.0577 29.0674 53.6854L29.3309 53.5442C28.9697 52.3634 29.0231 51.7673 29.0742 51.1963C29.1072 50.827 29.1394 50.4682 29.0579 49.9686C29.1521 49.9525 29.3516 49.9148 29.3516 49.9148C30.2003 51.4078 30.2058 52.1571 30.2113 52.9105C30.2171 53.6984 30.2228 54.4909 31.1933 56.1433Z" fill="white"/>
<path d="M29.4981 44.8821C28.9639 45.3674 28.4229 45.8589 28.0404 47.1142C27.8776 47.0968 27.7455 47.0867 27.7455 47.0867C27.385 46.4214 26.5013 42.2745 29.0738 40.7967L29.3185 40.9719C28.4738 42.0526 28.4356 42.8035 28.399 43.5237C28.3865 43.77 28.3742 44.0127 28.3298 44.2638L28.6132 44.3589C28.8454 44.0287 29.1249 43.7937 29.4291 43.538C29.8549 43.18 30.3292 42.7813 30.7901 42.0236L31.0384 42.1948C30.69 43.7993 30.0983 44.3368 29.4981 44.8821Z" fill="white"/>
<path d="M79.1275 55.1001V39.4973H73.4357V54.6631C73.4357 56.3541 72.2015 57.3253 69.1141 57.3253C66.0267 57.3253 64.7934 56.3537 64.7934 54.6631V39.4973H59.0996V55.1001C59.0996 58.2645 61.3707 60.9976 69.1141 60.9976C76.8575 60.9976 79.1275 58.2645 79.1275 55.1001Z" fill="white"/>
<path d="M89.4741 46.145V60.3562H84.0709V39.4973H91.1633L99.8583 54.3673V39.4973H105.263V60.3562H98.1304L89.4741 46.145Z" fill="white"/>
<path fill-rule="evenodd" clip-rule="evenodd" d="M145.337 39.4973H135.407L135.408 60.3562H138.95V52.902H145.337C151.223 52.902 153.284 50.9609 153.284 47.7341V44.6328C153.284 41.4397 151.223 39.4973 145.337 39.4973ZM138.949 41.9095H145.21C148.59 41.9095 149.892 42.7439 149.892 45.0306V47.3675C149.892 49.7675 148.59 50.4915 145.21 50.4915H138.949V41.9095Z" fill="white"/>
<path fill-rule="evenodd" clip-rule="evenodd" d="M120.657 39C113.575 39 110.731 41.0306 110.731 44.5062V55.3469C110.731 58.8229 113.575 60.8503 120.657 60.8503C127.74 60.8503 130.584 58.8221 130.584 55.3469V44.5062C130.584 41.0306 127.743 39 120.657 39ZM127.051 55.2603C127.051 57.8283 124.987 58.447 120.665 58.447C116.343 58.447 114.276 57.8283 114.276 55.2603V44.5948C114.276 42.0256 116.34 41.4069 120.665 41.4069C124.99 41.4069 127.051 42.0256 127.051 44.5948V55.2603Z" fill="white"/>
<path d="M157.393 59.6642C159.742 60.3853 162.424 60.7613 165.063 60.7613C172.601 60.7613 174 58.6926 174 55.0588C174 50.99 173.629 50.0832 166.341 48.7017C160.904 47.6686 160.904 47.4525 160.904 44.5713C160.904 42.16 161.727 41.4996 166.218 41.4996C168.484 41.4996 170.591 41.7213 172.774 42.0944L173.064 39.7786C170.781 39.3223 168.46 39.0919 166.133 39.0906C159.339 39.0906 157.362 40.8456 157.362 44.4787C157.362 48.8008 158.147 49.8634 164.773 50.9916C170.418 51.9632 170.46 52.3047 170.46 55.1256C170.46 57.5025 169.552 58.3523 165.144 58.3523C162.632 58.3523 160.483 58.0683 157.972 57.4722L157.393 59.6642Z" fill="white"/>
</g>
</svg>
