<svg width="200" height="100" viewBox="0 0 200 100" fill="none" xmlns="http://www.w3.org/2000/svg">
<mask id="mask0" style="mask-type:alpha" maskUnits="userSpaceOnUse" x="0" y="0" width="200" height="100">
<rect width="200" height="100" fill="#222222"/>
</mask>
<g mask="url(#mask0)">
<path d="M150.141 53.3488L150.323 52.1204H150.337L150.511 52.48L150.893 53.2277L150.141 53.3488Z" fill="white"/>
<path d="M148.115 53.8715C148.129 54.0139 148.1 54.1188 148.031 54.1937C147.952 54.2739 147.847 54.3243 147.734 54.3361L147.239 54.4181L146.943 54.4628L146.814 53.6777L147.239 53.6102L147.612 53.5493C147.72 53.5354 147.83 53.5485 147.931 53.5873C148.031 53.632 148.091 53.7296 148.115 53.8715Z" fill="white"/>
<path d="M147.849 52.6838C147.858 52.7281 147.856 52.7738 147.842 52.817C147.829 52.8602 147.805 52.8994 147.772 52.9312C147.696 53.0052 147.598 53.0524 147.491 53.0652L147.239 53.102L146.728 53.1774L146.632 52.5425L147.241 52.4526L147.355 52.4292C147.522 52.4074 147.644 52.4158 147.711 52.4604C147.789 52.5062 147.825 52.5794 147.849 52.6838Z" fill="white"/>
<path d="M150.923 49.1113C150.89 49.2104 150.828 49.2982 150.746 49.3645C150.664 49.4307 150.564 49.4726 150.458 49.4854L150.268 49.5144L149.85 49.5747L149.539 47.6611L150.154 47.564C150.173 47.564 150.192 47.5622 150.211 47.5603C150.23 47.5585 150.249 47.5567 150.268 47.5567C150.377 47.5457 150.486 47.5692 150.58 47.6237C150.688 47.6947 150.775 47.7928 150.831 47.9079C150.891 48.0556 150.937 48.2082 150.968 48.3641C151.016 48.6131 151 48.8697 150.923 49.1113Z" fill="white"/>
<path d="M157.122 46.871C157.142 46.9791 157.123 47.0904 157.069 47.1865C157.016 47.2674 156.908 47.32 156.742 47.3423L156.482 47.3869L155.97 47.4618L155.844 46.6795L156.482 46.5829L156.634 46.5533C156.787 46.5304 156.902 46.5533 156.975 46.613C157.05 46.6799 157.101 46.7688 157.12 46.8665L157.122 46.871Z" fill="white"/>
<path fill-rule="evenodd" clip-rule="evenodd" d="M149.623 59.6754H150.043V59.6217C150.026 59.6178 150.01 59.6085 149.999 59.5953C149.988 59.5822 149.982 59.5657 149.981 59.5486C149.963 59.4902 149.956 59.4292 149.958 59.3682V59.2119C149.959 59.1257 149.946 59.04 149.92 58.9578C149.901 58.9216 149.875 58.89 149.842 58.8654C149.809 58.8407 149.771 58.8236 149.731 58.8154C149.789 58.7967 149.841 58.7632 149.882 58.7183C149.905 58.6956 149.925 58.6705 149.942 58.6435C149.958 58.6175 149.971 58.5898 149.981 58.5608C149.997 58.5188 150.007 58.475 150.01 58.4306C150.012 58.4121 150.012 58.3935 150.012 58.3749C150.011 58.2915 149.99 58.2095 149.951 58.1353C149.908 58.0555 149.842 57.9903 149.761 57.9482C149.664 57.8941 149.553 57.8682 149.442 57.8735H148.521V59.6754H148.894V58.9729H149.298C149.36 58.9679 149.422 58.9781 149.478 59.0025C149.487 59.0054 149.496 59.0093 149.504 59.0142C149.512 59.0196 149.521 59.0262 149.528 59.0338C149.541 59.0482 149.551 59.0656 149.556 59.0846C149.565 59.1075 149.571 59.1312 149.575 59.1554C149.578 59.177 149.579 59.1989 149.578 59.2208L149.578 59.2401L149.578 59.2682L149.579 59.2948C149.58 59.3245 149.582 59.3542 149.586 59.3839C149.584 59.4365 149.587 59.4891 149.594 59.5413C149.597 59.5623 149.601 59.5832 149.605 59.6039C149.61 59.6279 149.616 59.6518 149.623 59.6754ZM149.62 58.5151C149.61 58.5461 149.593 58.5746 149.571 58.5988C149.535 58.6434 149.465 58.6663 149.364 58.6663H148.894V58.1867H149.373C149.409 58.1835 149.446 58.188 149.48 58.1998C149.492 58.2041 149.504 58.2092 149.515 58.2152C149.522 58.2188 149.529 58.2227 149.535 58.2269C149.548 58.2352 149.56 58.2448 149.571 58.2554C149.583 58.2675 149.594 58.2809 149.602 58.2954C149.609 58.3066 149.615 58.3185 149.619 58.3308C149.623 58.3425 149.627 58.3545 149.629 58.3667C149.632 58.3839 149.633 58.4015 149.631 58.419C149.633 58.4371 149.633 58.4553 149.63 58.4732C149.629 58.481 149.628 58.4889 149.626 58.4966L149.624 58.5052L149.62 58.5151Z" fill="white"/>
<path d="M156.598 75.2018H156.81V75.4051H156.598V75.2018Z" fill="white"/>
<path d="M141.827 74.3799H141.627V75.4051H141.827V74.3799Z" fill="white"/>
<path d="M141.627 74.0002H141.827V74.1928H141.627V74.0002Z" fill="white"/>
<path fill-rule="evenodd" clip-rule="evenodd" d="M141.653 72.832H142.177C142.179 72.7812 142.176 72.7306 142.168 72.681C142.154 72.5991 142.126 72.5197 142.086 72.4462C142.062 72.3949 142.026 72.3505 141.98 72.3172C141.934 72.2882 141.885 72.2631 141.834 72.2424C141.779 72.2266 141.722 72.219 141.664 72.2195H141.653C141.62 72.2204 141.588 72.2244 141.556 72.2312C141.526 72.2376 141.497 72.2466 141.469 72.258C141.428 72.2718 141.389 72.2904 141.352 72.3133C141.329 72.3276 141.307 72.3436 141.287 72.3613C141.231 72.4175 141.187 72.4839 141.158 72.5567C141.146 72.5933 141.137 72.6307 141.131 72.6684C141.123 72.7128 141.12 72.7578 141.12 72.803C141.114 72.9235 141.151 73.0423 141.226 73.138C141.274 73.1943 141.334 73.2401 141.401 73.2726C141.476 73.3029 141.556 73.3175 141.637 73.3156H141.653C141.714 73.3175 141.775 73.3104 141.834 73.2944C141.856 73.2899 141.876 73.2838 141.897 73.2764C141.917 73.2689 141.937 73.26 141.956 73.2497C142.017 73.2142 142.069 73.1658 142.108 73.1079C142.112 73.1009 142.116 73.0938 142.12 73.0866L142.126 73.0747C142.129 73.0677 142.132 73.0606 142.135 73.0534L142.141 73.0393C142.151 73.0155 142.159 72.991 142.165 72.966H141.961C141.956 72.9987 141.943 73.0296 141.923 73.056C141.895 73.0896 141.858 73.1154 141.817 73.1308C141.798 73.1395 141.778 73.1466 141.758 73.1521C141.727 73.1604 141.695 73.1649 141.663 73.1654H141.653C141.647 73.1658 141.642 73.166 141.636 73.1661C141.629 73.1662 141.623 73.1661 141.616 73.1658C141.607 73.1654 141.598 73.1646 141.589 73.1635C141.566 73.1605 141.543 73.155 141.521 73.1469C141.506 73.1414 141.491 73.1347 141.476 73.1269C141.452 73.1134 141.429 73.0967 141.408 73.0772C141.378 73.0423 141.355 73.002 141.341 72.959C141.327 72.9177 141.322 72.8739 141.325 72.8298L141.653 72.832ZM141.973 72.6913H141.325C141.326 72.6407 141.342 72.5915 141.37 72.5495C141.383 72.5261 141.399 72.5044 141.417 72.4849C141.437 72.4637 141.459 72.4451 141.484 72.4294C141.537 72.4047 141.595 72.3919 141.654 72.392C141.698 72.3881 141.743 72.3934 141.784 72.4074C141.826 72.4215 141.864 72.444 141.896 72.4735C141.924 72.5097 141.945 72.5504 141.958 72.5934C141.967 72.6251 141.973 72.658 141.973 72.6913Z" fill="white"/>
<path d="M143.016 72.4211C142.919 72.4169 142.824 72.4404 142.74 72.4886H142.742C142.71 72.5086 142.685 72.5363 142.667 72.5689C142.65 72.6014 142.642 72.6379 142.643 72.6746V73.2888H142.444V72.2642H142.627V72.4361C142.639 72.4196 142.653 72.4037 142.666 72.3884L142.677 72.3772C142.685 72.3689 142.693 72.3608 142.701 72.3529L142.715 72.3397C142.724 72.3318 142.732 72.3241 142.741 72.3167C142.753 72.3068 142.766 72.2973 142.779 72.2882C142.827 72.2653 142.879 72.2507 142.932 72.2448C142.942 72.2436 142.953 72.2428 142.964 72.2424C142.975 72.2419 142.987 72.2418 142.999 72.2422L143.016 72.243V72.4211Z" fill="white"/>
<path d="M142.832 75.4051H143.03V74.7105C143.032 74.6425 143.016 74.5753 142.985 74.515C142.952 74.4626 142.905 74.4211 142.848 74.3961C142.786 74.3678 142.718 74.3524 142.65 74.351C142.581 74.3496 142.514 74.362 142.45 74.3877C142.404 74.4072 142.36 74.4325 142.32 74.4631C142.31 74.4721 142.301 74.4818 142.293 74.4923C142.283 74.5045 142.275 74.5178 142.267 74.5317V74.3804H142.078V75.4051H142.278V74.8143C142.277 74.76 142.291 74.7063 142.317 74.6585C142.331 74.6307 142.351 74.606 142.375 74.5858C142.379 74.5819 142.384 74.5782 142.389 74.5746C142.395 74.5702 142.401 74.566 142.407 74.5621C142.417 74.5564 142.427 74.5513 142.437 74.5468C142.489 74.5187 142.548 74.5061 142.607 74.5105C142.698 74.5105 142.759 74.5334 142.79 74.5776C142.799 74.5931 142.807 74.6093 142.813 74.6258C142.818 74.6393 142.822 74.6532 142.826 74.6672C142.834 74.7013 142.837 74.7365 142.835 74.7718L142.832 75.4051Z" fill="white"/>
<path d="M143.753 72.4065H143.554V73.2899H143.365V72.4077H143.198V72.2653H143.365V72.1022C143.361 72.0304 143.386 71.9599 143.434 71.9056C143.464 71.8839 143.499 71.8685 143.535 71.8602C143.561 71.8541 143.589 71.8518 143.617 71.8538C143.642 71.8538 143.667 71.8548 143.691 71.8565C143.712 71.858 143.732 71.86 143.753 71.8627V72.0179H143.678C143.648 72.0155 143.618 72.0236 143.593 72.0408C143.579 72.0511 143.569 72.0647 143.562 72.0802C143.555 72.0958 143.553 72.1128 143.554 72.1296V72.2642H143.753V72.4065Z" fill="white"/>
<path d="M143.881 74.3799V75.5402C143.883 75.5677 143.881 75.5954 143.874 75.6223C143.873 75.6243 143.872 75.6262 143.871 75.628C143.868 75.6316 143.865 75.6346 143.861 75.6373C143.853 75.6431 143.842 75.6471 143.827 75.6508C143.815 75.6549 143.803 75.6579 143.79 75.6597C143.785 75.6605 143.78 75.6611 143.774 75.6614C143.77 75.6616 143.767 75.6618 143.763 75.6618C143.754 75.6618 143.746 75.6613 143.737 75.6603H143.691V75.8082L143.704 75.8102C143.71 75.8112 143.716 75.812 143.722 75.8127L143.735 75.8141L143.746 75.8149C143.752 75.8153 143.759 75.8157 143.765 75.8159C143.771 75.8161 143.777 75.8161 143.783 75.8161C143.904 75.8161 143.989 75.7948 144.026 75.7406C144.033 75.7294 144.039 75.7179 144.045 75.7061C144.05 75.6955 144.054 75.6847 144.058 75.6737C144.066 75.6523 144.071 75.6303 144.075 75.6079L144.076 75.6007L144.077 75.5894C144.078 75.5785 144.079 75.5674 144.079 75.5564V74.3799H143.881Z" fill="white"/>
<path d="M143.882 73.989H144.079V74.1906H143.882V73.989Z" fill="white"/>
<path d="M144.21 72.4864C144.251 72.4627 144.294 72.4449 144.34 72.4335C144.386 72.4219 144.435 72.4168 144.483 72.4188V72.2407C144.442 72.2385 144.401 72.2413 144.361 72.249C144.352 72.2509 144.342 72.2531 144.332 72.2556C144.324 72.2576 144.316 72.2599 144.307 72.2625C144.287 72.2689 144.266 72.2768 144.246 72.2859C144.232 72.2958 144.219 72.3063 144.206 72.3173C144.194 72.3275 144.183 72.3381 144.172 72.3492C144.164 72.3566 144.157 72.3641 144.15 72.3719C144.143 72.3793 144.137 72.3869 144.131 72.3946C144.12 72.4073 144.11 72.4204 144.101 72.4339V72.2619H143.911V73.2865H144.11V72.6723C144.109 72.6355 144.118 72.5991 144.135 72.5665C144.153 72.5339 144.179 72.5064 144.21 72.4864Z" fill="white"/>
<path d="M144.826 72.0749H144.628V71.8811H144.826V72.0749Z" fill="white"/>
<path d="M144.628 73.2865H144.826V72.2642H144.628V73.2865Z" fill="white"/>
<path fill-rule="evenodd" clip-rule="evenodd" d="M145.035 74.3559C145.086 74.3762 145.135 74.4017 145.18 74.4318V74.4301C145.223 74.4648 145.26 74.5072 145.287 74.5552C145.352 74.6752 145.384 74.8101 145.379 74.9461H144.527C144.526 74.9536 144.526 74.9612 144.526 74.9686L144.526 74.9786L144.527 74.985C144.528 75.0187 144.535 75.0518 144.546 75.0834C144.548 75.0896 144.551 75.0958 144.553 75.1019L144.558 75.112C144.56 75.1161 144.562 75.1201 144.564 75.1241L144.569 75.135C144.574 75.1438 144.58 75.1525 144.585 75.161C144.593 75.1722 144.601 75.1831 144.61 75.1934C144.642 75.224 144.68 75.2478 144.722 75.2633C144.744 75.2714 144.766 75.2771 144.789 75.2804C144.81 75.2834 144.832 75.2844 144.853 75.2834H144.868C144.921 75.2828 144.973 75.2696 145.02 75.2448C145.037 75.238 145.054 75.2296 145.069 75.2197C145.079 75.2132 145.089 75.2062 145.098 75.1985C145.101 75.1954 145.105 75.1921 145.109 75.1888C145.112 75.186 145.115 75.1831 145.117 75.1802C145.121 75.1769 145.124 75.1735 145.127 75.17C145.146 75.1439 145.159 75.1137 145.165 75.0818H145.371C145.355 75.1324 145.332 75.1802 145.301 75.2236C145.266 75.2814 145.217 75.33 145.159 75.3654C145.063 75.4097 144.959 75.4328 144.853 75.433H144.837C144.756 75.4347 144.677 75.419 144.603 75.3872C144.534 75.3574 144.473 75.3112 144.427 75.2526C144.396 75.2146 144.371 75.1726 144.352 75.1281C144.324 75.062 144.311 74.9902 144.313 74.9176C144.313 74.833 144.328 74.749 144.358 74.6697C144.388 74.5978 144.432 74.5322 144.487 74.4765C144.539 74.4321 144.599 74.3967 144.663 74.372C144.723 74.3477 144.788 74.3348 144.853 74.3341H144.868C144.925 74.3344 144.981 74.3417 145.035 74.3559ZM144.527 74.8048H145.172C145.172 74.7695 145.166 74.7347 145.155 74.7017C145.141 74.6606 145.119 74.6224 145.089 74.5893C145.043 74.5295 144.959 74.5066 144.853 74.5066C144.795 74.5031 144.737 74.5156 144.686 74.5429C144.639 74.5732 144.6 74.6142 144.572 74.6624C144.542 74.7038 144.526 74.7538 144.527 74.8048Z" fill="white"/>
<path d="M145.294 72.5902C145.278 72.5708 145.271 72.5462 145.273 72.5216C145.272 72.5043 145.276 72.4871 145.284 72.4716C145.292 72.4561 145.303 72.4428 145.318 72.4328C145.344 72.4126 145.375 72.3974 145.407 72.3881C145.44 72.3824 145.474 72.3799 145.507 72.3809C145.691 72.3809 145.782 72.4411 145.782 72.5534H145.97V72.5449C145.97 72.5417 145.97 72.5385 145.969 72.5354L145.969 72.529C145.968 72.5239 145.968 72.5188 145.967 72.5138C145.966 72.5038 145.963 72.4939 145.961 72.4842C145.955 72.4663 145.948 72.4491 145.939 72.4328C145.914 72.3718 145.868 72.3214 145.81 72.2904C145.72 72.2461 145.621 72.2256 145.521 72.2312C145.481 72.2313 145.441 72.2353 145.402 72.2429C145.37 72.2492 145.338 72.2579 145.307 72.2692C145.245 72.288 145.19 72.3241 145.149 72.3731C145.104 72.425 145.082 72.4919 145.087 72.5595C145.086 72.6086 145.102 72.6565 145.132 72.6952C145.165 72.7284 145.204 72.7558 145.246 72.7762C145.291 72.793 145.346 72.8069 145.405 72.822C145.425 72.8263 145.444 72.8303 145.463 72.8339C145.502 72.8412 145.541 72.8471 145.581 72.8516C145.643 72.8666 145.704 72.887 145.763 72.9124C145.77 72.9168 145.776 72.9219 145.781 72.9276L145.785 72.9321C145.79 72.9378 145.794 72.9441 145.798 72.9509C145.806 72.9664 145.81 72.9838 145.809 73.0012C145.811 73.0265 145.804 73.0516 145.791 73.0731C145.785 73.0826 145.778 73.0911 145.769 73.0985C145.759 73.108 145.747 73.1158 145.733 73.1213C145.676 73.1525 145.61 73.1674 145.544 73.1643C145.422 73.1643 145.346 73.1425 145.299 73.1084C145.261 73.0675 145.239 73.0144 145.238 72.9588H145.041C145.048 73.0165 145.063 73.073 145.086 73.1263C145.115 73.185 145.164 73.232 145.224 73.2592C145.324 73.3035 145.434 73.324 145.544 73.3189C145.626 73.319 145.708 73.3066 145.786 73.2821C145.85 73.2579 145.906 73.2165 145.946 73.1626C145.987 73.1088 146.008 73.0435 146.007 72.9766C146.008 72.9283 145.993 72.881 145.963 72.8426C145.926 72.804 145.882 72.7732 145.833 72.7522C145.818 72.7478 145.802 72.7428 145.786 72.7376C145.771 72.7327 145.755 72.7276 145.738 72.7226C145.711 72.7142 145.681 72.7063 145.65 72.7002C145.582 72.6869 145.529 72.6757 145.48 72.6623C145.436 72.6547 145.393 72.6443 145.351 72.631C145.328 72.6246 145.307 72.6123 145.29 72.5953L145.294 72.5902Z" fill="white"/>
<path fill-rule="evenodd" clip-rule="evenodd" d="M146.063 74.3542C146.125 74.3554 146.186 74.3734 146.238 74.4061L146.24 74.4033C146.258 74.4147 146.276 74.4271 146.293 74.4404C146.307 74.4516 146.321 74.4636 146.334 74.4762C146.349 74.4909 146.364 74.5065 146.378 74.5228V73.9912H146.575V75.4079H146.393V75.2661C146.373 75.302 146.344 75.3329 146.31 75.3559C146.278 75.3754 146.244 75.3927 146.209 75.4079C146.191 75.4165 146.172 75.4229 146.152 75.4269C146.141 75.429 146.13 75.4305 146.12 75.4313C146.101 75.437 146.082 75.4394 146.063 75.4386H146.056C145.947 75.443 145.84 75.4114 145.752 75.3486C145.677 75.2945 145.621 75.2188 145.593 75.132C145.561 75.0452 145.545 74.9535 145.546 74.8612C145.545 74.8102 145.55 74.7595 145.562 74.7101C145.565 74.6961 145.569 74.6822 145.574 74.6684C145.576 74.6601 145.579 74.6518 145.582 74.6435C145.588 74.629 145.593 74.6146 145.6 74.6004C145.636 74.5257 145.694 74.4633 145.766 74.4212C145.844 74.376 145.934 74.3528 146.025 74.3542H146.063ZM146.379 74.9422C146.379 74.6518 146.279 74.51 146.066 74.51L146.063 74.5116C146.004 74.5116 145.952 74.5193 145.91 74.5349C145.861 74.5533 145.825 74.5826 145.804 74.6233C145.764 74.7072 145.745 74.7992 145.748 74.8919C145.743 74.9522 145.751 75.0123 145.77 75.0689C145.783 75.1063 145.8 75.1422 145.823 75.1756C145.837 75.1955 145.855 75.2133 145.875 75.2285C145.886 75.2374 145.898 75.2455 145.911 75.2526C145.916 75.2554 145.921 75.258 145.927 75.2604C145.939 75.2662 145.951 75.2711 145.964 75.2751C145.978 75.2791 145.991 75.2822 146.005 75.2843L146.012 75.2853L146.022 75.2864L146.03 75.2869L146.039 75.2873C146.046 75.2876 146.052 75.2875 146.059 75.2873H146.066C146.145 75.2857 146.221 75.256 146.279 75.2035C146.347 75.1527 146.379 75.0628 146.379 74.9422Z" fill="white"/>
<path d="M146.454 73.0794C146.4 73.0275 146.369 72.9376 146.362 72.8108C146.362 72.5406 146.467 72.406 146.674 72.3926C146.744 72.3882 146.814 72.408 146.871 72.4484C146.898 72.4668 146.921 72.4912 146.937 72.5196C146.952 72.548 146.961 72.5796 146.963 72.612H147.152C147.148 72.5438 147.126 72.4781 147.087 72.422C147.079 72.4105 147.07 72.3993 147.061 72.3887C147.019 72.3318 146.959 72.2898 146.89 72.2686C146.824 72.2511 146.755 72.2413 146.686 72.2396C146.664 72.2397 146.642 72.241 146.62 72.2435C146.59 72.2469 146.56 72.2525 146.531 72.2603C146.495 72.2699 146.46 72.2827 146.426 72.2988C146.353 72.3355 146.291 72.3896 146.244 72.4562C146.196 72.5277 146.167 72.6102 146.161 72.6958C146.159 72.7313 146.153 72.7665 146.146 72.8013C146.148 72.8935 146.169 72.9845 146.207 73.0688C146.215 73.0852 146.225 73.101 146.235 73.1162C146.246 73.1315 146.257 73.1461 146.269 73.1599C146.291 73.1849 146.316 73.2075 146.343 73.2274C146.395 73.2621 146.453 73.2869 146.514 73.3005C146.535 73.3066 146.556 73.3114 146.578 73.315C146.591 73.3171 146.604 73.3188 146.617 73.32C146.634 73.3215 146.65 73.3222 146.666 73.3223C146.749 73.3245 146.832 73.3099 146.909 73.2793C146.932 73.2676 146.953 73.2542 146.973 73.2393C147.009 73.2126 147.041 73.181 147.069 73.1453C147.114 73.083 147.142 73.0106 147.152 72.9348H146.963C146.959 72.9518 146.955 72.9684 146.949 72.9845C146.931 73.0313 146.902 73.0733 146.863 73.1068C146.807 73.15 146.738 73.1733 146.666 73.1726L146.661 73.1727H146.654L146.645 73.1724C146.629 73.1715 146.612 73.1692 146.596 73.1656C146.587 73.1635 146.578 73.1608 146.569 73.1577L146.562 73.1553L146.55 73.1508C146.514 73.1355 146.481 73.1127 146.454 73.0839V73.0794Z" fill="white"/>
<path fill-rule="evenodd" clip-rule="evenodd" d="M147.333 74.3408H147.356L147.357 74.3391C147.367 74.3392 147.376 74.3395 147.386 74.3401C147.392 74.3404 147.398 74.3408 147.404 74.3413L147.416 74.3424L147.432 74.3441L147.449 74.3465C147.456 74.3477 147.464 74.349 147.472 74.3504L147.483 74.3526L147.497 74.3558C147.504 74.3574 147.511 74.359 147.518 74.3609C147.568 74.3817 147.616 74.4072 147.661 74.4368C147.671 74.4446 147.681 74.4528 147.691 74.4613L147.7 74.4697L147.708 74.4776L147.714 74.4841L147.726 74.4971C147.731 74.5025 147.736 74.508 147.74 74.5136C147.753 74.529 147.764 74.5451 147.775 74.5619C147.84 74.682 147.872 74.8168 147.867 74.9528H147.015C147.015 75.0583 147.035 75.1482 147.097 75.2001C147.127 75.2314 147.164 75.2556 147.205 75.2712C147.217 75.2757 147.229 75.2795 147.242 75.2826L147.249 75.2841C147.254 75.2852 147.258 75.2861 147.263 75.2869L147.272 75.2882C147.292 75.2908 147.313 75.2915 147.333 75.29H147.348C147.37 75.2901 147.391 75.288 147.412 75.2838C147.442 75.2775 147.472 75.2667 147.5 75.2515C147.541 75.2349 147.578 75.2093 147.607 75.1767C147.629 75.1509 147.644 75.1208 147.652 75.0885H147.851C147.842 75.116 147.832 75.1431 147.82 75.1695C147.815 75.1794 147.811 75.1891 147.806 75.1988C147.801 75.2094 147.795 75.2199 147.79 75.2303C147.751 75.2883 147.698 75.3368 147.637 75.3721C147.6 75.394 147.559 75.409 147.516 75.4162C147.457 75.4339 147.395 75.4418 147.333 75.4397H147.324C147.275 75.4407 147.227 75.4358 147.18 75.4251C147.147 75.4176 147.114 75.4071 147.082 75.3939C147.042 75.375 147.004 75.351 146.97 75.3226C146.947 75.3034 146.926 75.2822 146.907 75.2593C146.835 75.1623 146.797 75.0444 146.801 74.9243C146.8 74.8732 146.806 74.8224 146.817 74.7728C146.824 74.74 146.834 74.7078 146.847 74.6764C146.87 74.6012 146.915 74.5341 146.976 74.4832C147.026 74.437 147.086 74.4015 147.151 74.3787C147.209 74.3552 147.27 74.3424 147.333 74.3408ZM147.572 74.596C147.518 74.5362 147.442 74.5133 147.328 74.5133H147.333C147.277 74.5089 147.222 74.5216 147.174 74.5496C147.123 74.5779 147.081 74.6192 147.051 74.6691C147.047 74.6763 147.043 74.6838 147.039 74.6913C147.034 74.7014 147.03 74.7118 147.026 74.7224C147.017 74.751 147.013 74.7812 147.015 74.8115H147.655C147.652 74.7327 147.622 74.6571 147.572 74.596Z" fill="white"/>
<path d="M148.103 73.2916H148.301V72.5941C148.308 72.5166 148.286 72.4394 148.238 72.377C148.2 72.3261 148.147 72.2873 148.087 72.2653C148.023 72.2439 147.956 72.2339 147.889 72.2357C147.875 72.2353 147.86 72.2356 147.846 72.2367C147.831 72.2378 147.816 72.2396 147.802 72.2421C147.78 72.2461 147.758 72.2517 147.736 72.2591C147.705 72.2711 147.675 72.2858 147.647 72.3032C147.636 72.3125 147.626 72.322 147.615 72.3316L147.599 72.3468L147.582 72.3629C147.57 72.3747 147.559 72.3869 147.547 72.3993V71.8772H147.35V73.2899H147.547V72.7315C147.547 72.612 147.578 72.5283 147.647 72.4702C147.711 72.4184 147.792 72.3917 147.874 72.3954C147.965 72.3954 148.026 72.4088 148.057 72.4512C148.091 72.5018 148.107 72.5621 148.102 72.6226L148.103 73.2916Z" fill="white"/>
<path d="M149.015 73.3206C148.967 73.327 148.919 73.33 148.87 73.3296V73.3268C148.835 73.3276 148.799 73.3235 148.765 73.3147C148.741 73.3084 148.717 73.2998 148.694 73.2888C148.674 73.2738 148.658 73.2547 148.646 73.2328C148.634 73.2109 148.628 73.1867 148.627 73.162V72.4211H148.467V72.2597H148.627V71.9744H148.817V72.2575H149.015V72.4211H148.817V73.0761C148.818 73.0832 148.819 73.0903 148.82 73.0972L148.822 73.1032C148.823 73.1075 148.825 73.1116 148.826 73.1157C148.828 73.1202 148.831 73.1247 148.833 73.129L148.835 73.1328L148.837 73.1359L148.838 73.1378C148.841 73.1419 148.845 73.1459 148.848 73.1497C148.856 73.157 148.866 73.1626 148.876 73.1663C148.886 73.1699 148.897 73.1715 148.908 73.171C148.941 73.171 148.965 73.1687 148.984 73.1669C148.996 73.1658 149.006 73.1648 149.015 73.1648V73.3206Z" fill="white"/>
<path d="M149.471 75.4051H149.67V74.6954C149.671 74.6209 149.649 74.548 149.605 74.4871C149.569 74.4393 149.519 74.4027 149.462 74.3815C149.41 74.361 149.355 74.3511 149.299 74.3525C149.234 74.3492 149.169 74.3617 149.11 74.3888C149.05 74.4223 148.996 74.4653 148.951 74.5161C148.944 74.5061 148.936 74.4964 148.928 74.4869L148.92 74.4767C148.915 74.4715 148.911 74.4664 148.906 74.4614C148.885 74.4383 148.862 74.4168 148.837 74.3972C148.778 74.362 148.709 74.3464 148.639 74.3525C148.57 74.3517 148.502 74.3668 148.44 74.3964C148.412 74.4096 148.386 74.4255 148.362 74.4437C148.332 74.4667 148.305 74.4934 148.282 74.5234V74.3815H148.1V75.4062H148.288V74.8478C148.284 74.7768 148.303 74.7063 148.342 74.6462L148.344 74.6417C148.346 74.6387 148.348 74.6357 148.35 74.6327L148.355 74.6248L148.362 74.6157C148.365 74.6111 148.369 74.6067 148.373 74.6024C148.398 74.5753 148.428 74.554 148.463 74.5407C148.482 74.5319 148.501 74.5251 148.521 74.5202C148.536 74.5166 148.551 74.514 148.567 74.5127C148.578 74.5117 148.589 74.5113 148.601 74.5116C148.627 74.5085 148.654 74.5114 148.679 74.5201C148.704 74.5288 148.726 74.5431 148.745 74.5619C148.77 74.6029 148.783 74.6501 148.783 74.6982V75.4079H148.981V74.7758C148.98 74.7321 148.99 74.689 149.011 74.6507C149.037 74.6093 149.071 74.5734 149.11 74.5451C149.15 74.5175 149.199 74.5046 149.247 74.5088C149.392 74.5088 149.468 74.582 149.468 74.7406L149.471 75.4051Z" fill="white"/>
<path fill-rule="evenodd" clip-rule="evenodd" d="M150.902 73.286H150.72V73.143C150.701 73.1802 150.671 73.2115 150.636 73.2335C150.604 73.2535 150.571 73.2709 150.536 73.2854C150.507 73.2985 150.476 73.306 150.445 73.3078C150.428 73.3128 150.41 73.3151 150.392 73.3145H150.383C150.276 73.3179 150.171 73.2897 150.08 73.2335C150.005 73.1765 149.95 73.0986 149.921 73.0101C149.889 72.9241 149.874 72.8331 149.875 72.7416C149.872 72.6512 149.891 72.5615 149.928 72.4791C149.964 72.404 150.023 72.3415 150.096 72.2999C150.174 72.2543 150.263 72.2311 150.353 72.2329H150.392C150.455 72.2346 150.515 72.254 150.566 72.2887C150.619 72.3189 150.665 72.3586 150.703 72.406V71.8755H150.902V73.286ZM150.702 72.9315L150.705 72.9181L150.707 72.9095C150.712 72.8822 150.714 72.8543 150.711 72.8264V72.8237C150.711 72.5316 150.605 72.3892 150.392 72.3892C150.263 72.3892 150.171 72.4272 150.134 72.5009C150.093 72.5848 150.072 72.6772 150.073 72.7706C150.068 72.8721 150.098 72.9722 150.156 73.056C150.168 73.0741 150.183 73.0904 150.2 73.1047C150.216 73.1191 150.235 73.1315 150.255 73.1413C150.261 73.1442 150.267 73.1469 150.273 73.1493C150.276 73.1508 150.28 73.1522 150.284 73.1536C150.29 73.1557 150.296 73.1576 150.303 73.1593C150.329 73.1662 150.356 73.169 150.383 73.1676H150.392C150.426 73.1674 150.459 73.162 150.491 73.1518C150.533 73.1383 150.572 73.1165 150.605 73.0872C150.642 73.0549 150.671 73.0146 150.69 72.9692C150.695 72.9569 150.699 72.9443 150.702 72.9315Z" fill="white"/>
<path d="M151.177 72.0743H151.381V71.8805H151.177V72.0743Z" fill="white"/>
<path d="M151.381 73.286H151.177V72.2642H151.381V73.286Z" fill="white"/>
<path fill-rule="evenodd" clip-rule="evenodd" d="M151.527 74.002C151.485 73.9948 151.443 73.9912 151.401 73.9912H150.641V75.4051H150.855V74.8003H151.401C151.442 74.7969 151.483 74.8021 151.522 74.8152C151.549 74.8248 151.576 74.8385 151.6 74.8562C151.607 74.8623 151.614 74.869 151.62 74.876C151.627 74.8837 151.633 74.8919 151.638 74.9006C151.65 74.9211 151.658 74.9439 151.661 74.9679C151.672 75.0397 151.677 75.1123 151.677 75.1851C151.675 75.2071 151.675 75.2291 151.676 75.2511C151.677 75.2667 151.679 75.2822 151.681 75.2977C151.684 75.317 151.687 75.3362 151.692 75.3552C151.696 75.3709 151.701 75.3864 151.706 75.4017H151.973V75.371C151.956 75.3663 151.941 75.357 151.928 75.3442C151.916 75.3314 151.908 75.3156 151.904 75.2984C151.897 75.2697 151.891 75.2405 151.887 75.211C151.886 75.2034 151.885 75.1957 151.885 75.188C151.883 75.169 151.882 75.15 151.882 75.1309C151.882 75.1127 151.883 75.0944 151.882 75.0762L151.882 75.0577C151.882 75.0489 151.882 75.0402 151.881 75.0314C151.88 75.0131 151.879 74.9947 151.878 74.9763C151.876 74.9601 151.875 74.9438 151.873 74.9276C151.868 74.8772 151.85 74.8288 151.82 74.7869C151.787 74.7474 151.742 74.7188 151.691 74.7049C151.742 74.6834 151.786 74.6514 151.822 74.6109C151.858 74.5704 151.884 74.5226 151.898 74.4708C151.913 74.4192 151.916 74.3649 151.906 74.3121C151.897 74.2592 151.875 74.2091 151.844 74.1655C151.826 74.1452 151.806 74.1265 151.785 74.1094C151.746 74.0774 151.702 74.0511 151.655 74.0315V74.037C151.613 74.0214 151.57 74.0097 151.527 74.002ZM151.626 74.228C151.67 74.2749 151.694 74.3367 151.693 74.4005C151.69 74.4188 151.686 74.4368 151.68 74.4543C151.674 74.4743 151.666 74.4937 151.656 74.5122C151.641 74.5353 151.623 74.5561 151.603 74.574C151.591 74.5846 151.578 74.5942 151.564 74.6027C151.513 74.6242 151.458 74.6339 151.402 74.6311H150.855V74.1576H151.426C151.463 74.1555 151.499 74.1609 151.533 74.1735C151.567 74.1861 151.599 74.2056 151.624 74.2308L151.626 74.228Z" fill="white"/>
<path fill-rule="evenodd" clip-rule="evenodd" d="M152.68 72.8264H152.157L151.827 72.8242C151.821 72.9141 151.85 73.0029 151.91 73.0716C151.942 73.1024 151.98 73.1262 152.023 73.1414C152.041 73.1481 152.061 73.1531 152.08 73.1563L152.091 73.1579C152.099 73.1589 152.107 73.1596 152.115 73.1601C152.128 73.1608 152.142 73.1607 152.155 73.1598H152.161C152.216 73.1597 152.271 73.1479 152.321 73.1252C152.362 73.1074 152.398 73.082 152.429 73.0504C152.436 73.0409 152.442 73.031 152.447 73.0207C152.453 73.0082 152.458 72.9953 152.462 72.9819C152.463 72.9749 152.465 72.9677 152.466 72.9605H152.664C152.661 72.981 152.655 73.0012 152.648 73.0206C152.637 73.0498 152.622 73.0773 152.603 73.1023C152.583 73.1333 152.559 73.1617 152.533 73.1869C152.51 73.2084 152.485 73.2276 152.458 73.2441C152.419 73.2633 152.378 73.2783 152.336 73.2888C152.303 73.2978 152.27 73.3039 152.235 73.3073C152.209 73.31 152.182 73.3108 152.155 73.31H152.139C152.058 73.312 151.978 73.2973 151.903 73.267C151.835 73.2363 151.775 73.1902 151.728 73.1324C151.651 73.0375 151.611 72.9188 151.615 72.7974C151.614 72.7132 151.63 72.6296 151.661 72.5512L151.664 72.5428L151.669 72.5317C151.674 72.5219 151.678 72.5123 151.683 72.5027C151.697 72.4763 151.713 72.4509 151.73 72.4268C151.739 72.4151 151.748 72.4037 151.757 72.3925C151.768 72.3798 151.779 72.3676 151.79 72.3557C151.842 72.3115 151.901 72.2766 151.965 72.2524C152.026 72.228 152.091 72.2149 152.157 72.2139H152.171C152.227 72.2141 152.283 72.2218 152.338 72.2368C152.388 72.2575 152.436 72.2826 152.482 72.3116C152.526 72.3477 152.562 72.3915 152.59 72.4406C152.654 72.5593 152.685 72.6923 152.68 72.8264ZM151.829 72.6857H152.475C152.475 72.64 152.465 72.5951 152.447 72.5538C152.433 72.5228 152.414 72.4938 152.391 72.4679C152.345 72.4099 152.262 72.3865 152.157 72.3865C152.098 72.3867 152.04 72.3995 151.986 72.4238C151.937 72.4524 151.898 72.494 151.873 72.5439C151.845 72.5862 151.83 72.6354 151.829 72.6857Z" fill="white"/>
<path fill-rule="evenodd" clip-rule="evenodd" d="M153.107 75.4146C153.151 75.4203 153.195 75.4151 153.236 75.3995V75.2727C153.225 75.2727 153.213 75.2747 153.201 75.2767C153.196 75.2776 153.191 75.2784 153.186 75.2791L153.178 75.28C153.174 75.2803 153.171 75.2806 153.167 75.2806C153.159 75.2811 153.151 75.2801 153.143 75.2775C153.135 75.2749 153.128 75.2708 153.122 75.2655C153.111 75.2441 153.106 75.2205 153.107 75.1968V74.6205C153.108 74.6071 153.107 74.5937 153.105 74.5804C153.103 74.565 153.099 74.55 153.093 74.5354C153.083 74.5083 153.067 74.4837 153.046 74.4631C152.999 74.4206 152.941 74.392 152.879 74.381C152.845 74.3705 152.81 74.3627 152.775 74.3576C152.759 74.3554 152.743 74.3537 152.728 74.3525C152.705 74.3508 152.681 74.3502 152.658 74.3508H152.627C152.602 74.3527 152.576 74.3556 152.551 74.3595L152.54 74.3613L152.525 74.364L152.505 74.3679C152.469 74.3753 152.434 74.3847 152.4 74.3961C152.338 74.4242 152.286 74.4677 152.247 74.5222C152.212 74.5732 152.193 74.6337 152.194 74.6954H152.378C152.392 74.5686 152.476 74.501 152.628 74.4938H152.65C152.826 74.501 152.917 74.5591 152.917 74.6719C152.918 74.6877 152.915 74.7034 152.909 74.7178C152.902 74.7322 152.892 74.7448 152.88 74.7545C152.854 74.7752 152.822 74.7884 152.789 74.7925C152.766 74.7972 152.74 74.799 152.712 74.8011C152.692 74.8025 152.672 74.804 152.65 74.8065H152.545C152.46 74.8159 152.378 74.8385 152.3 74.8735C152.25 74.8985 152.208 74.9373 152.179 74.9852C152.169 75.005 152.16 75.0255 152.153 75.0467C152.144 75.0727 152.138 75.0996 152.134 75.127V75.1426C152.133 75.1947 152.152 75.2452 152.187 75.2845C152.221 75.331 152.265 75.3692 152.317 75.3962C152.344 75.407 152.372 75.4156 152.401 75.4218C152.413 75.4245 152.426 75.4268 152.439 75.4286C152.461 75.432 152.484 75.4338 152.508 75.4341C152.548 75.4335 152.589 75.4283 152.628 75.4185C152.739 75.3964 152.842 75.3449 152.925 75.2694C152.932 75.3727 152.993 75.4185 153.108 75.4185L153.107 75.4146ZM152.916 75.0561C152.916 75.0803 152.91 75.1042 152.9 75.1261C152.896 75.1333 152.892 75.1402 152.888 75.1468C152.885 75.1506 152.882 75.1543 152.88 75.1579C152.877 75.1614 152.874 75.1647 152.871 75.168L152.864 75.1743C152.861 75.1773 152.858 75.1801 152.855 75.1828C152.813 75.2174 152.764 75.2427 152.711 75.2571L152.685 75.2644L152.675 75.2673L152.674 75.2676L152.65 75.2745C152.643 75.2765 152.635 75.2785 152.627 75.2806C152.599 75.2856 152.571 75.2877 152.544 75.2867C152.421 75.2867 152.353 75.2348 152.338 75.1387C152.338 75.1216 152.342 75.1047 152.348 75.0888C152.351 75.0804 152.355 75.0722 152.36 75.0644C152.373 75.0418 152.393 75.023 152.416 75.0097C152.474 74.9764 152.538 74.9539 152.604 74.9433H152.627C152.702 74.9276 152.764 74.9198 152.809 74.9064C152.847 74.9061 152.884 74.8955 152.916 74.8757V75.0561Z" fill="white"/>
<path d="M153.457 74.3726H153.647V75.1142C153.647 75.1289 153.648 75.1437 153.651 75.1581C153.653 75.1698 153.657 75.1812 153.662 75.1923C153.668 75.2073 153.677 75.2214 153.687 75.2342C153.693 75.2424 153.701 75.2501 153.709 75.2571C153.711 75.2592 153.713 75.2613 153.716 75.2633L153.722 75.2677C153.729 75.2736 153.737 75.2789 153.746 75.2835L153.749 75.285L153.754 75.2877L153.759 75.29C153.786 75.3025 153.815 75.3091 153.845 75.309C153.849 75.309 153.852 75.3087 153.856 75.3082L153.865 75.3066L153.866 75.3065C153.876 75.3048 153.886 75.3029 153.899 75.3029C153.977 75.2918 154.05 75.2546 154.104 75.1973C154.133 75.1719 154.156 75.1407 154.171 75.1059C154.174 75.0995 154.177 75.0929 154.179 75.0863L154.183 75.0754C154.185 75.0694 154.187 75.0633 154.188 75.0572L154.189 75.0502L154.191 75.0433C154.194 75.0274 154.195 75.0113 154.195 74.9952V74.3754H154.392V75.4017H154.195V75.29C154.143 75.3419 154.081 75.3828 154.012 75.4101C153.942 75.4336 153.867 75.4461 153.793 75.4469C153.704 75.4521 153.617 75.4231 153.55 75.366C153.519 75.3371 153.495 75.3023 153.479 75.2639C153.464 75.2254 153.456 75.1841 153.457 75.1426V74.3726Z" fill="white"/>
<path d="M153.61 73.2871H154.636V73.1146H153.822V71.8761H153.61V73.2871Z" fill="white"/>
<path d="M155.77 73.2871H155.571L155.567 73.176C155.517 73.2305 155.454 73.2715 155.384 73.2949C155.313 73.3188 155.239 73.3316 155.164 73.3329C155.075 73.3358 154.989 73.3066 154.92 73.2508C154.866 73.1888 154.836 73.1094 154.837 73.0275V72.2575H155.027V72.9973C155.026 73.0145 155.026 73.0319 155.03 73.0487C155.032 73.0577 155.034 73.0665 155.037 73.0751C155.046 73.1 155.061 73.1225 155.081 73.1408C155.122 73.1733 155.172 73.1913 155.225 73.1922C155.233 73.1922 155.242 73.1905 155.25 73.1888L155.262 73.1866C155.268 73.1856 155.274 73.1849 155.281 73.1849C155.36 73.1752 155.433 73.1377 155.486 73.0794C155.513 73.053 155.534 73.0215 155.548 72.9869C155.563 72.9523 155.57 72.9152 155.569 72.8778V72.2575H155.77V73.2871Z" fill="white"/>
<path d="M155.997 74.3594C155.966 74.3523 155.933 74.349 155.9 74.3497C155.832 74.3469 155.764 74.3594 155.702 74.386C155.641 74.4188 155.588 74.4619 155.543 74.5133C155.51 74.4688 155.472 74.4288 155.429 74.3944C155.37 74.359 155.3 74.3433 155.231 74.3497C155.162 74.3492 155.094 74.3644 155.032 74.394C154.97 74.4237 154.916 74.467 154.874 74.5206H154.867V74.3787H154.684V75.4034H154.883V74.845C154.878 74.7735 154.898 74.7026 154.939 74.6434C154.953 74.6183 154.971 74.596 154.993 74.5776C155.004 74.5677 155.017 74.5588 155.031 74.5513C155.04 74.5462 155.049 74.5417 155.059 74.5379C155.102 74.5176 155.148 74.5076 155.196 74.5088C155.222 74.5054 155.249 74.5082 155.274 74.5169C155.3 74.5256 155.323 74.5401 155.341 74.5591C155.367 74.6 155.38 74.6472 155.38 74.6954V75.4051H155.569V74.7758C155.568 74.7322 155.579 74.6891 155.599 74.6507C155.625 74.609 155.659 74.573 155.699 74.5451C155.742 74.5182 155.793 74.5055 155.843 74.5088C155.987 74.5088 156.064 74.582 156.064 74.7406V75.4051H156.254V74.6954C156.259 74.6219 156.241 74.5488 156.202 74.486C156.18 74.4585 156.155 74.4347 156.126 74.4154C156.12 74.4113 156.114 74.4075 156.107 74.4038C156.091 74.3947 156.075 74.3869 156.057 74.3804L156.06 74.3787C156.039 74.3706 156.019 74.3641 155.997 74.3594Z" fill="white"/>
<path d="M156.505 72.4065H156.306L156.308 73.2899H156.111V72.4077H155.951V72.2653H156.111V72.1022C156.113 72.0301 156.14 71.9609 156.187 71.9056C156.24 71.8682 156.305 71.8498 156.37 71.8538C156.416 71.854 156.461 71.857 156.507 71.8627V72.0179H156.43C156.422 72.0173 156.414 72.0175 156.407 72.0183C156.395 72.0196 156.384 72.0224 156.373 72.0267C156.364 72.0303 156.355 72.035 156.347 72.0408C156.333 72.0511 156.322 72.0646 156.316 72.0802C156.312 72.0886 156.309 72.0975 156.308 72.1066L156.308 72.1103C156.307 72.1123 156.307 72.1144 156.307 72.1164C156.307 72.1208 156.307 72.1252 156.308 72.1296V72.2642H156.505V72.4065Z" fill="white"/>
<path d="M156.809 73.9912H156.597V74.4703L156.65 75.0695H156.755L156.809 74.4631V73.9912Z" fill="white"/>
<path d="M156.999 72.4211V73.0733H157.001C157.001 73.0787 157.001 73.0841 157.002 73.0894C157.003 73.0977 157.005 73.1057 157.008 73.1134C157.014 73.1261 157.022 73.1375 157.032 73.1469C157.04 73.155 157.049 73.161 157.06 73.1647C157.07 73.1684 157.082 73.1696 157.093 73.1682C157.117 73.1682 157.14 73.1664 157.158 73.1647C157.173 73.1633 157.184 73.162 157.191 73.162V73.3178C157.143 73.3244 157.095 73.3274 157.047 73.3268C156.988 73.3287 156.929 73.3156 156.876 73.2888C156.863 73.281 156.851 73.2714 156.841 73.2601C156.834 73.2525 156.827 73.244 156.822 73.235C156.809 73.2128 156.802 73.1877 156.801 73.162V72.4211H156.65V72.2597H156.801V71.9744H156.999V72.2575H157.189V72.4211H156.999Z" fill="white"/>
<path fill-rule="evenodd" clip-rule="evenodd" d="M160.234 70.4108V76.8697H160.235C160.235 77.0199 160.204 77.1685 160.145 77.3069C160.085 77.4453 159.998 77.5707 159.889 77.6758C159.78 77.781 159.651 77.8638 159.509 77.9194C159.367 77.975 159.215 78.0024 159.063 77.9998H139.218C138.911 78.0006 138.617 77.8822 138.399 77.6705C138.181 77.4588 138.057 77.171 138.054 76.8697V70.4075C138.054 69.7871 138.585 69.279 139.21 69.2706H142.028C142.154 69.2734 142.28 69.2441 142.392 69.1854C142.504 69.1267 142.598 69.0407 142.667 68.9356C143.192 68.1698 143.556 67.3082 143.737 66.4017C143.791 66.1871 143.784 65.9622 143.717 65.7513C143.651 65.5404 143.526 65.3515 143.358 65.205C143.09 65.0646 142.866 64.8554 142.709 64.5998C142.552 64.3442 142.469 64.0517 142.468 63.7532C142.469 63.672 142.475 63.5912 142.487 63.5111C142.495 63.4571 142.505 63.4034 142.519 63.3503C142.532 63.2968 142.548 63.2438 142.566 63.1915C142.571 63.1515 142.562 63.111 142.542 63.0762C142.521 63.0413 142.49 63.0138 142.452 62.9977C142.353 62.9551 142.244 62.9362 142.136 62.9425C142.089 62.9452 142.044 62.9524 141.999 62.964C141.977 62.9698 141.955 62.9767 141.933 62.9846C141.897 62.9981 141.862 63.0146 141.828 63.034C141.359 63.3022 140.826 63.442 140.284 63.4388C140.001 63.4388 139.475 63.3562 139.234 63.2373C138.594 62.8994 138.108 62.2434 138.009 61.6509C137.972 61.2909 137.754 61.3578 137.4 61.4665L137.332 61.4873C137.318 61.491 137.304 61.4953 137.288 61.5001L137.254 61.5111C137.231 61.5187 137.207 61.527 137.182 61.5353C137.126 61.5543 137.07 61.5734 137.027 61.585C136.682 61.6857 136.323 61.7332 135.963 61.7257C135.108 61.7198 134.277 61.4474 133.59 60.9479C133.417 60.8263 133.276 60.6658 133.18 60.4798C133.083 60.2939 133.033 60.0879 133.035 59.8791C133.035 59.848 133.038 59.8169 133.041 59.7861C133.046 59.7422 133.054 59.6987 133.065 59.6558C133.127 59.3383 133.29 59.0482 133.529 58.8266C133.818 58.5913 134.119 58.3717 134.432 58.1688C135.187 57.6856 135.893 57.1322 136.54 56.516C136.622 56.4332 136.684 56.3336 136.722 56.2245C136.733 56.1715 136.728 56.1166 136.708 56.0663C136.688 56.0161 136.653 55.9725 136.609 55.9409C136.583 55.9235 136.555 55.9096 136.526 55.8995C136.491 55.8876 136.455 55.8808 136.418 55.8794C135.787 55.881 135.156 55.8411 134.53 55.7599C134.123 55.7198 133.725 55.6138 133.353 55.4461C133.062 55.3155 132.815 55.1063 132.641 54.8429C132.467 54.5794 132.373 54.2727 132.37 53.9586C132.371 53.6391 132.468 53.327 132.649 53.0618C132.851 52.7707 133.078 52.4977 133.328 52.2461C133.414 52.1644 133.463 52.0529 133.466 51.9356C133.469 51.8183 133.425 51.7045 133.343 51.6189C133.304 51.5826 133.264 51.5483 133.222 51.5162C133.21 51.5072 133.198 51.4984 133.186 51.4897C133.177 51.4833 133.168 51.4771 133.159 51.4709L133.139 51.4571L133.122 51.4463L133.111 51.4391C133.102 51.4334 133.093 51.4277 133.084 51.4221L133.06 51.4081L133.037 51.3953L133.028 51.3899L133.007 51.3789C132.788 51.2621 132.605 51.0892 132.478 50.8785C132.351 50.6679 132.284 50.4273 132.285 50.1823C132.283 50.0559 132.301 49.9301 132.338 49.8092C132.397 49.6199 132.493 49.4441 132.622 49.2922C133.181 48.6037 133.909 48.0658 134.736 47.7287C135.203 47.5615 135.663 47.3685 136.128 47.173L136.129 47.1726L136.281 47.1089C136.478 47.0241 136.642 46.8798 136.75 46.697C136.858 46.5142 136.904 46.3023 136.882 46.0921C136.87 46.0328 136.865 45.9722 136.867 45.9117C136.864 45.6795 136.922 45.4505 137.035 45.2464C137.148 45.0424 137.312 44.8702 137.512 44.7464C138.107 44.3658 138.729 44.0286 139.374 43.7374C139.729 43.5821 140.073 43.402 140.402 43.1985C140.532 43.1191 140.628 42.9973 140.676 42.8545C140.689 42.8003 140.681 42.743 140.653 42.6944C140.625 42.6458 140.579 42.6096 140.525 42.5932C139.928 42.3821 139.398 42.0211 138.988 41.5463C138.864 41.3829 138.79 41.1882 138.775 40.9851V40.9331C138.772 40.6798 138.87 40.4353 139.048 40.2525C139.193 40.0787 139.365 39.9296 139.56 39.8113C140.371 39.3006 141.105 38.6786 141.738 37.9642C141.851 37.8377 141.916 37.6763 141.921 37.508C141.919 37.4491 141.905 37.3917 141.882 37.3386C141.859 37.288 141.828 37.2412 141.788 37.201C141.706 37.1184 141.596 37.0686 141.479 37.0613C141.199 37.0535 140.917 37.0535 140.636 37.0613H140.613C140.443 37.06 140.276 37.0242 140.121 36.9561C139.967 36.8881 139.828 36.7893 139.715 36.666C139.656 36.6122 139.605 36.5519 139.561 36.4864C139.546 36.464 139.532 36.4411 139.519 36.4175C139.504 36.3909 139.491 36.3636 139.479 36.3356C139.424 36.2107 139.396 36.0761 139.396 35.9401C139.403 35.834 139.42 35.7289 139.448 35.6263C139.638 34.9977 139.969 34.4186 140.415 33.931C140.861 33.4435 141.412 33.0597 142.028 32.8075C142.173 32.7518 142.315 32.69 142.454 32.6225C142.502 32.599 142.551 32.5747 142.598 32.5498C142.634 32.5313 142.669 32.5124 142.704 32.4932C142.93 32.3794 143.112 32.1955 143.221 31.97C143.306 31.7978 143.379 31.6206 143.442 31.4395C143.649 30.7577 144.092 30.1976 144.692 29.7872C144.723 29.7672 144.754 29.7467 144.785 29.7257C144.807 29.7104 144.829 29.6949 144.851 29.679C144.88 29.6577 144.909 29.6359 144.938 29.6137C145.019 29.5506 145.097 29.4836 145.171 29.4131C145.258 29.3466 145.333 29.2653 145.391 29.173C145.427 29.1205 145.448 29.0597 145.452 28.9968C145.454 28.9586 145.45 28.9204 145.441 28.8836C145.437 28.8713 145.433 28.8592 145.429 28.8472C145.427 28.8432 145.426 28.8392 145.424 28.8352C145.421 28.8283 145.418 28.8214 145.414 28.8145C145.235 28.5211 145.14 28.1853 145.14 27.8429C145.142 27.551 145.207 27.2628 145.331 26.9972C145.454 26.7317 145.633 26.4947 145.856 26.3018C146.6 25.6509 147.243 24.8968 147.766 24.0632C148.229 23.2938 148.449 22.9576 148.952 22.1424C148.998 22.0725 149.068 22.0217 149.15 22C149.207 22.0116 149.259 22.0374 149.303 22.0744C149.316 22.0858 149.328 22.0983 149.34 22.1117C149.348 22.1215 149.356 22.1317 149.363 22.1424C149.55 22.4615 149.697 22.7072 149.834 22.9342C149.898 23.0388 149.959 23.1396 150.022 23.2417C150.087 23.3477 150.153 23.4551 150.224 23.5701L150.25 23.6123L150.252 23.6155C150.335 23.7506 150.425 23.8967 150.527 24.0632C151.048 24.8988 151.691 25.6546 152.436 26.3063C152.657 26.4997 152.835 26.7369 152.957 27.0025C153.079 27.2681 153.142 27.556 153.143 27.8474C153.146 28.189 153.054 28.5248 152.877 28.819C152.846 28.8749 152.832 28.938 152.836 29.0013C152.84 29.0646 152.862 29.1256 152.899 29.1775C152.926 29.2191 152.957 29.2586 152.99 29.2956C153.03 29.34 153.073 29.3808 153.121 29.4176C153.266 29.5589 153.427 29.6844 153.6 29.7917C154.202 30.2021 154.643 30.7622 154.846 31.4439C154.91 31.6245 154.983 31.8016 155.067 31.9744C155.175 32.201 155.357 32.3852 155.585 32.4976C155.799 32.6186 156.023 32.7237 156.253 32.812C156.869 33.0654 157.421 33.4495 157.868 33.9368C158.315 34.4241 158.647 35.0025 158.841 35.6308C158.851 35.6694 158.859 35.7084 158.866 35.7477L158.871 35.7798C158.873 35.7894 158.874 35.799 158.875 35.8086L158.878 35.8328C158.882 35.8699 158.884 35.9072 158.886 35.9445C158.887 36.0097 158.881 36.0746 158.869 36.1382C158.856 36.2079 158.835 36.276 158.806 36.3415C158.751 36.4667 158.669 36.5788 158.566 36.6704C158.454 36.7937 158.317 36.8925 158.164 36.9605C158.1 36.9891 158.033 37.0119 157.966 37.0289C157.91 37.043 157.853 37.053 157.796 37.0591L157.779 37.0608C157.768 37.0618 157.756 37.0627 157.745 37.0634C157.722 37.0648 157.699 37.0656 157.677 37.0658H157.655C157.374 37.058 157.092 37.058 156.803 37.0658C156.752 37.0697 156.702 37.0817 156.656 37.1009C156.636 37.1092 156.617 37.1188 156.598 37.1297C156.562 37.151 156.529 37.1771 156.499 37.2077C156.419 37.2901 156.373 37.3987 156.37 37.5125C156.375 37.6807 156.439 37.8419 156.551 37.9687C157.185 38.6802 157.916 39.3015 158.723 39.8147C158.921 39.9303 159.096 40.0797 159.241 40.2558C159.417 40.4393 159.513 40.6839 159.508 40.9365V40.9885C159.498 41.1916 159.426 41.3872 159.302 41.5496C158.89 42.0265 158.357 42.3877 157.757 42.5966C157.705 42.6154 157.662 42.6523 157.635 42.7005C157.609 42.7487 157.601 42.8047 157.614 42.8579C157.656 43.0015 157.751 43.1244 157.881 43.2019C158.211 43.4023 158.554 43.5822 158.908 43.7407C159.555 44.0284 160.179 44.3658 160.773 44.7497C160.973 44.8726 161.138 45.0445 161.251 45.2488C161.364 45.453 161.421 45.6826 161.417 45.9151L161.417 45.9382V45.9628C161.417 45.9803 161.416 45.9978 161.415 46.0152L161.414 46.039C161.413 46.0578 161.412 46.0766 161.41 46.0954C161.357 46.5142 161.576 46.9179 162.01 47.1122C162.519 47.3295 163.036 47.5467 163.547 47.7321C164.377 48.0698 165.107 48.6075 165.67 49.2955C165.795 49.4495 165.892 49.6247 165.954 49.8126C165.971 49.8733 165.984 49.9353 165.992 49.9979C165.999 50.06 166.002 50.1228 165.999 50.1856C166.001 50.431 165.935 50.6724 165.808 50.8834C165.68 51.0945 165.496 51.267 165.276 51.3822C165.157 51.4469 165.047 51.5277 164.95 51.6223C164.908 51.6636 164.874 51.713 164.852 51.7674C164.83 51.8219 164.819 51.8803 164.82 51.939C164.821 51.9673 164.824 51.9954 164.831 52.0229C164.837 52.0524 164.847 52.0813 164.86 52.1089C164.885 52.1623 164.921 52.2101 164.965 52.2494C165.213 52.5005 165.437 52.7736 165.634 53.0652C165.817 53.3298 165.916 53.6419 165.918 53.9619C165.917 54.2763 165.823 54.5835 165.649 54.8472C165.475 55.1108 165.227 55.3199 164.936 55.4495C164.566 55.6163 164.17 55.7223 163.765 55.7633C163.139 55.8443 162.509 55.8842 161.878 55.8828C161.843 55.8833 161.807 55.8889 161.774 55.8995C161.741 55.9099 161.71 55.9249 161.681 55.9442C161.637 55.9764 161.604 56.0203 161.585 56.0706C161.566 56.1209 161.562 56.1755 161.574 56.2279C161.613 56.3366 161.675 56.4359 161.756 56.5194C162.4 57.1384 163.106 57.6921 163.863 58.1722C164.178 58.3746 164.481 58.5942 164.771 58.83C165.006 59.0548 165.168 59.3435 165.235 59.6592L165.238 59.6769L165.243 59.7043C165.246 59.7255 165.249 59.7467 165.251 59.768C165.253 59.7924 165.255 59.8169 165.256 59.8414C165.256 59.8551 165.257 59.8688 165.257 59.8825C165.259 60.0907 165.21 60.2965 165.115 60.4824C165.02 60.6684 164.881 60.8292 164.709 60.9512C164.02 61.4521 163.186 61.7245 162.329 61.7291C161.968 61.736 161.609 61.6885 161.263 61.5884C161.256 61.5864 161.248 61.5842 161.241 61.5818L161.216 61.5744L161.192 61.5663L161.163 61.5567L161.116 61.5409C161.091 61.5324 161.066 61.5238 161.042 61.5159C161.012 61.506 160.984 61.4972 160.959 61.4906L160.903 61.473C160.549 61.3625 160.319 61.2908 160.289 61.6542C160.191 62.2467 159.697 62.9028 159.065 63.2406C158.815 63.3596 158.29 63.4422 158.008 63.4422C157.466 63.4435 156.933 63.3039 156.464 63.0374C156.37 62.9833 156.264 62.9518 156.155 62.9454C156.047 62.9391 155.938 62.9582 155.839 63.0011C155.802 63.0176 155.772 63.0455 155.752 63.0804C155.733 63.1154 155.726 63.1555 155.732 63.1948C155.796 63.3755 155.829 63.5653 155.829 63.7566C155.829 64.0559 155.745 64.3492 155.587 64.6051C155.429 64.8609 155.203 65.0695 154.933 65.2084C154.766 65.3556 154.642 65.5445 154.575 65.7552C154.508 65.9658 154.5 66.1903 154.553 66.405C154.736 67.3122 155.103 68.1739 155.632 68.9389C155.7 69.044 155.795 69.1299 155.906 69.1886C155.961 69.2172 156.019 69.2389 156.078 69.2533C156.141 69.2683 156.205 69.2754 156.27 69.274H159.085C159.39 69.2795 159.68 69.4012 159.894 69.6135C160.109 69.8258 160.231 70.1117 160.234 70.4108ZM149.288 54.6114L149.874 51.5156L150.509 51.4179L150.587 51.4045L152.116 54.1697L151.43 54.2752L151.151 53.6995L150.509 53.7955L150.055 53.8704L149.941 54.5075L149.288 54.6114ZM141.677 48.3602L141.425 50.529L141.316 51.4129L140.715 51.5028C140.579 51.1516 140.48 50.8987 140.419 50.7406C140.394 50.6771 140.369 50.611 140.342 50.5426C140.303 50.4407 140.263 50.3339 140.221 50.223C140.152 50.0376 140.091 49.8729 140.038 49.731C139.984 49.5831 139.932 49.4396 139.886 49.3039H139.879V49.7059C139.875 49.7675 139.872 49.839 139.869 49.9177L139.869 49.9258L139.869 49.9324L139.866 50.0058C139.864 50.0625 139.861 50.1221 139.858 50.1839C139.855 50.2369 139.852 50.2906 139.849 50.3449C139.843 50.4812 139.836 50.621 139.824 50.7607C139.818 50.9472 139.801 51.2448 139.788 51.6496L139.202 51.7396L138.266 49.759L137.893 48.951L138.555 48.8455C139.026 49.9834 139.299 50.6721 139.375 50.9115L139.385 50.902C139.385 50.7618 139.391 50.5899 139.391 50.4022C139.391 50.2146 139.394 50.0432 139.4 49.9159C139.402 49.8789 139.404 49.8362 139.407 49.7875L139.407 49.7727L139.408 49.767L139.408 49.7575C139.413 49.6435 139.42 49.5001 139.431 49.3257C139.433 49.1927 139.437 49.0739 139.441 48.9705L139.444 48.8837L139.447 48.816L139.452 48.7115L140.107 48.6076C140.525 49.678 140.784 50.3587 140.897 50.6736H140.905C140.913 50.5357 140.919 50.3942 140.925 50.2633L140.928 50.1867C140.935 50.0354 140.951 49.879 140.959 49.7003C140.965 49.5604 140.975 49.4164 140.987 49.259L140.997 49.1247C141.004 49.0252 141.011 48.9251 141.018 48.8228C141.026 48.7075 141.034 48.5894 141.043 48.4663L141.677 48.3602ZM145.015 49.8176C145.051 49.9904 145.048 50.1689 145.008 50.3408L145.004 50.3419C144.965 50.482 144.892 50.6106 144.79 50.7166C144.691 50.8212 144.569 50.9031 144.433 50.9567C144.353 50.9891 144.272 51.0165 144.188 51.0387C144.152 51.0485 144.115 51.0573 144.078 51.0651C144.045 51.072 144.012 51.0781 143.979 51.0835C143.778 51.1118 143.575 51.1065 143.376 51.0678C143.191 51.0262 143.023 50.933 142.89 50.7992C142.753 50.6624 142.663 50.4687 142.625 50.2157L142.306 48.2642L142.936 48.1659L143.248 50.0583C143.264 50.178 143.308 50.2926 143.376 50.3933C143.436 50.4701 143.519 50.5254 143.614 50.5507C143.652 50.5616 143.692 50.5685 143.731 50.5715C143.778 50.5751 143.825 50.5732 143.872 50.5658C144.27 50.5061 144.444 50.2816 144.383 49.9081L144.072 47.9939L144.71 47.889L145.015 49.8176ZM148.45 50.2973L147.825 50.395L146.282 48.511H146.274L146.608 50.5893L146.024 50.6797L145.552 47.7639L146.213 47.6583L147.72 49.5055H147.727L147.4 47.4718L147.98 47.3814L148.45 50.2973ZM148.746 53.8346C148.757 53.9681 148.742 54.1025 148.702 54.2305V54.2333C148.669 54.3436 148.609 54.4442 148.527 54.5259C148.434 54.6133 148.326 54.6838 148.208 54.7342C148.123 54.7682 148.036 54.7954 147.947 54.8154C147.887 54.8288 147.827 54.8389 147.767 54.8459L147.24 54.9285L146.42 55.0552L145.948 52.131L147.24 51.9294L147.416 51.9004C147.581 51.8689 147.75 51.8761 147.911 51.9216C148.039 51.9575 148.155 52.0271 148.246 52.1232C148.334 52.2248 148.396 52.3459 148.427 52.4761C148.482 52.8122 148.395 53.0439 148.168 53.1707C148.321 53.1967 148.459 53.276 148.558 53.3941C148.656 53.5238 148.72 53.6749 148.746 53.8346ZM151.591 48.1994C151.633 48.457 151.633 48.7196 151.591 48.9772L151.59 48.9784C151.559 49.219 151.456 49.4453 151.295 49.6289C151.14 49.8148 150.922 49.9198 150.633 49.9639L150.267 50.0158L149.315 50.1666L148.854 47.2496L150.169 47.0408C150.199 47.0408 150.237 47.033 150.267 47.033C150.48 47.0028 150.697 47.034 150.892 47.1228C151.086 47.2209 151.246 47.3715 151.355 47.5567C151.472 47.7553 151.552 47.973 151.591 48.1994ZM154.838 49.3145L152.588 49.6657L152.117 46.7353L154.306 46.3992L154.382 46.9157L152.808 47.1608L152.906 47.7907L154.359 47.5584L154.442 48.0749L152.991 48.2982L153.112 49.0532L154.755 48.7986L154.838 49.3145ZM154.845 52.7162C154.879 52.8948 154.875 53.0786 154.833 53.2556L154.834 53.2573C154.813 53.3332 154.783 53.4059 154.744 53.4735C154.725 53.5051 154.705 53.5356 154.683 53.5648C154.665 53.5879 154.647 53.61 154.627 53.6314C154.525 53.7336 154.404 53.8147 154.27 53.8698C154.12 53.9302 153.964 53.9731 153.805 53.9977C153.608 54.0261 153.407 54.021 153.212 53.9826C153.024 53.9438 152.852 53.8502 152.718 53.714C152.582 53.5789 152.491 53.3835 152.452 53.1288L152.132 51.1711L152.771 51.0734L153.075 52.9719C153.089 53.0937 153.137 53.2094 153.212 53.3069C153.271 53.3799 153.35 53.4345 153.439 53.4644C153.526 53.4892 153.617 53.494 153.706 53.4784C154.101 53.4208 154.269 53.1958 154.208 52.8217L153.895 50.8931L154.534 50.7959L154.845 52.7162ZM158.116 48.803L157.434 48.9069C157.397 48.8411 157.369 48.7709 157.351 48.6981C157.326 48.617 157.306 48.5346 157.29 48.4512C157.281 48.3989 157.27 48.3466 157.259 48.2955C157.251 48.2595 157.244 48.2241 157.237 48.1899C157.229 48.1119 157.206 48.0362 157.169 47.9666C157.155 47.9385 157.135 47.9138 157.11 47.8945C157.085 47.8751 157.056 47.8616 157.025 47.8549C156.98 47.8448 156.934 47.8386 156.888 47.8364C156.829 47.8337 156.77 47.8375 156.712 47.8476L156.485 47.8839L156.053 47.9509L156.235 49.0956L155.626 49.1922L155.15 46.2691L156.479 46.0597L156.664 46.0295C156.842 45.9986 157.024 46.0112 157.196 46.0664C157.336 46.1169 157.46 46.2046 157.553 46.3199C157.642 46.4318 157.701 46.5633 157.727 46.7029C157.738 46.7703 157.741 46.8385 157.736 46.9063C157.735 46.9257 157.733 46.945 157.73 46.9643C157.728 46.9815 157.725 46.9986 157.722 47.0156C157.703 47.1126 157.664 47.2048 157.608 47.2864C157.549 47.3677 157.471 47.4341 157.381 47.4802C157.539 47.5092 157.653 47.5701 157.722 47.6661C157.748 47.716 157.771 47.7674 157.791 47.82C157.805 47.8583 157.818 47.8972 157.828 47.9366C157.841 47.9832 157.85 48.0305 157.857 48.0782L157.881 48.1977C157.886 48.2424 157.889 48.2873 157.889 48.3323C157.892 48.3489 157.895 48.3654 157.898 48.3818L157.902 48.3965L157.906 48.4161C157.915 48.4504 157.924 48.4844 157.935 48.518C157.946 48.5511 157.958 48.5837 157.971 48.6159C157.973 48.6225 157.976 48.6288 157.979 48.6349C157.981 48.6382 157.983 48.6414 157.985 48.6445C157.986 48.6467 157.988 48.649 157.989 48.6511L157.994 48.6586C158.002 48.6687 158.011 48.6779 158.021 48.6861C158.044 48.7046 158.071 48.7169 158.101 48.7215L158.116 48.803ZM158.195 50.223L158.668 53.1478L158.081 53.2366L157.687 50.7914L157.68 50.7987L157.528 53.3265L156.911 53.4242L155.976 51.0528L155.968 51.0678L156.366 53.5052L155.778 53.5951L155.308 50.6725L156.22 50.5301L157.129 52.7508H157.137L157.297 50.3648L158.195 50.223ZM159.626 47.1284L159.709 47.6589L158.554 47.8387L158.462 47.3071L159.626 47.1284ZM150.917 58.7931C150.915 58.3416 150.732 57.9091 150.407 57.5898C150.082 57.2705 149.642 57.0903 149.183 57.0883C148.725 57.0922 148.287 57.2732 147.963 57.5922C147.64 57.9113 147.457 58.3427 147.455 58.7931C147.458 59.2435 147.641 59.6747 147.964 59.9939C148.287 60.313 148.725 60.4944 149.183 60.499C149.642 60.4963 150.082 60.3157 150.407 59.9963C150.731 59.6769 150.915 59.2446 150.917 58.7931ZM139.833 71.0011H158.453V76.2572H139.833V71.0011Z" fill="white"/>
<path d="M64.6411 50.4581L64.6235 59.5129V59.514C67.8454 58.7367 67.6341 54.1434 67.6341 54.1434C67.6346 48.7773 64.6411 50.4581 64.6411 50.4581Z" fill="white"/>
<path d="M80.1432 50.7524C81.2798 50.6273 82.2056 49.7349 82.2182 48.659C82.2313 47.5846 81.6956 46.7024 80.1966 47.0492L79.7222 47.1547L79.7172 50.768C79.8155 50.7658 80.1432 50.7524 80.1432 50.7524Z" fill="white"/>
<path d="M90.399 48.6327C91.865 48.5367 92.8119 47.4087 92.8272 46.3478C92.8426 45.2891 92.1462 44.3192 90.4268 44.7101L89.8815 44.829L89.8974 48.64C90.0013 48.6394 90.399 48.6327 90.399 48.6327Z" fill="white"/>
<path d="M92.9443 52.5448C92.9289 53.7447 92.3694 54.8246 90.8323 54.9966C90.8323 54.9966 90.3012 55.0714 89.8974 54.9966L89.9212 50.9165L90.4421 50.8048C92.0814 50.4223 92.955 51.3465 92.9443 52.5459V52.5448Z" fill="white"/>
<path d="M100.22 51.3141L98.3013 51.4788L99.2153 46.6404L100.22 51.3141Z" fill="white"/>
<path d="M121.288 42.5496C121.295 42.5211 121.299 42.4917 121.298 42.462V42.4586C121.3 42.4208 121.295 42.3833 121.283 42.348C121.269 42.3092 121.248 42.273 121.22 42.242C121.172 42.1895 121.092 42.1627 120.979 42.1627H120.332V42.7708H120.863C120.923 42.7717 120.983 42.7674 121.042 42.7579C121.088 42.7526 121.133 42.7367 121.171 42.7116C121.21 42.6895 121.241 42.6569 121.261 42.6178C121.273 42.5961 121.281 42.5732 121.288 42.5496Z" fill="white"/>
<path fill-rule="evenodd" clip-rule="evenodd" d="M122.316 42.9657C122.316 43.2674 122.226 43.5624 122.056 43.8135C121.885 44.0646 121.643 44.2604 121.36 44.3761C121.076 44.4919 120.764 44.5224 120.463 44.4638C120.162 44.4052 119.886 44.2602 119.668 44.047C119.451 43.8338 119.303 43.5621 119.243 43.2662C119.183 42.9704 119.214 42.6636 119.331 42.3848C119.448 42.1061 119.647 41.8678 119.903 41.7001C120.158 41.5324 120.458 41.443 120.765 41.443C121.175 41.4434 121.569 41.6039 121.86 41.8893C122.151 42.1747 122.315 42.5617 122.316 42.9657ZM121.374 44.0138H121.847L121.761 43.9166C121.748 43.9016 121.737 43.8853 121.727 43.868C121.718 43.851 121.71 43.833 121.705 43.8144C121.69 43.7704 121.679 43.7254 121.671 43.6798C121.668 43.6591 121.666 43.6385 121.664 43.618C121.662 43.6011 121.66 43.5842 121.659 43.5675L121.656 43.5335C121.657 43.4796 121.654 43.4258 121.648 43.3722C121.646 43.3549 121.644 43.338 121.642 43.3211C121.637 43.2864 121.631 43.2519 121.623 43.2147C121.611 43.1652 121.592 43.1176 121.567 43.0729L121.56 43.0622L121.552 43.0519C121.542 43.0381 121.531 43.0249 121.519 43.0125C121.501 42.9935 121.481 42.9763 121.459 42.9612C121.45 42.9547 121.441 42.9487 121.431 42.9433C121.504 42.9034 121.564 42.8456 121.606 42.7758C121.634 42.7307 121.655 42.683 121.671 42.6335C121.694 42.5621 121.704 42.4872 121.702 42.4117C121.706 42.3287 121.69 42.2458 121.658 42.1692C121.625 42.0926 121.575 42.0241 121.512 41.9684C121.383 41.8606 121.214 41.8081 120.996 41.8081H119.93V44.0115H120.333V43.1181H120.967C121.015 43.1161 121.063 43.125 121.107 43.1443C121.14 43.1595 121.168 43.1822 121.19 43.2105C121.203 43.2271 121.213 43.2454 121.221 43.2648C121.226 43.2783 121.23 43.2924 121.233 43.3068C121.243 43.3504 121.254 43.3967 121.263 43.447C121.266 43.4642 121.268 43.4815 121.27 43.4988C121.274 43.5299 121.277 43.5613 121.279 43.5927C121.279 43.6408 121.279 43.6865 121.284 43.739C121.284 43.7617 121.286 43.7844 121.288 43.8069C121.29 43.8198 121.292 43.8326 121.294 43.8453C121.296 43.8544 121.298 43.8634 121.3 43.8725C121.305 43.9164 121.323 43.9579 121.353 43.9909L121.374 44.0138Z" fill="white"/>
<path fill-rule="evenodd" clip-rule="evenodd" d="M34 77.9786C34 77.9786 69.4563 55.8309 123.749 58.754L123.765 38.5762C65.2842 35.7676 34.5447 54.4081 34.0903 54.7136L34 77.9786ZM45.8894 54.2612L44.6278 65.6551H44.6261C44.5545 66.3463 44.492 66.8428 44.4409 67.1711L44.3738 67.6044C44.2852 68.2142 43.8189 68.8334 43.285 68.978C42.751 69.1227 42.3062 68.1544 42.183 67.5592L41.0708 60.8982L40.2631 67.9835C40.2272 68.2753 40.195 68.5304 40.1658 68.7515C40.1255 69.0559 40.091 69.2955 40.0608 69.4767L39.9592 69.9446C39.8404 70.4588 39.4559 71.1736 38.9254 71.3171C38.3948 71.4606 37.9835 71.0569 37.9029 70.4516C37.9029 70.4516 37.7507 69.4192 37.7109 69.1595L36.3698 60.2717C36.2272 59.2119 36.1704 58.1465 36.1704 58.1465C36.1727 57.5445 36.6101 57.0409 37.1548 57.0224C37.6995 57.004 38.1363 57.4759 38.1363 58.0772L38.2306 58.7239L39.0094 64.5204L39.6911 58.429C39.7604 57.8114 40.0665 56.0805 40.0665 56.0805C40.1773 55.4601 40.6021 54.9207 41.1458 54.9017C41.6894 54.8827 42.0246 55.3702 42.1296 55.9548L42.3347 57.1369L43.2026 62.3611L43.924 54.3288C43.9246 53.7268 44.3625 53.2254 44.9061 53.2076C45.4497 53.1897 45.8894 53.6599 45.8894 54.2612ZM53.6719 53.1333L53.6957 59.3548L53.6464 61.9005C53.6384 63.9492 52.1559 65.9471 50.3302 66.3676C48.5046 66.788 47.0288 65.4686 47.0357 63.4221L47.0238 62.0859L47.0033 55.6404L47.0101 54.5667C47.0084 53.9792 47.4321 53.494 47.9519 53.4767C48.4716 53.4594 48.9073 53.8631 48.9073 54.4472V61.1657L48.9124 62.7247C48.9124 63.627 49.5259 64.1815 50.3325 63.9978C51.1391 63.8141 51.7883 62.9659 51.7883 62.0646L51.7815 60.2778L51.7872 53.8463L51.7907 52.8089C51.7907 52.2242 52.211 51.7385 52.733 51.7206C53.255 51.7027 53.6788 52.1611 53.6788 52.7458L53.6719 53.1333ZM61.5681 60.4822L61.5408 61.5789C61.5408 62.1635 61.062 62.7224 60.4428 62.7453C60.0038 62.7593 59.5817 62.4695 59.3902 62.1345L59.3716 62.1043C59.2864 61.9351 59.2062 61.7637 59.1244 61.5884L56.8006 55.9224L56.8461 62.2204V63.173C56.8461 63.7566 56.4274 64.2468 55.9049 64.2636C55.3822 64.2803 54.9602 63.8225 54.9602 63.2395L54.9392 62.8486L54.8654 53.1433L54.8682 51.8177C54.8687 51.1617 55.3641 50.6133 55.9747 50.5921C56.4354 50.5759 56.8302 50.8618 56.9972 51.2851L57.1408 51.6106L59.6533 57.6283L59.6084 51.1996L59.618 50.2984C59.618 49.7132 60.0401 49.2263 60.5604 49.2078C61.0807 49.1894 61.5039 49.649 61.5039 50.2325L61.5681 60.4822ZM64.0072 48.4185C65.2222 48.0374 69.7574 46.6148 69.8863 53.58V53.5822C69.5446 60.7978 65.6093 61.5981 63.9797 61.9295C63.8295 61.9601 63.6989 61.9866 63.5925 62.0139C63.0717 62.0328 62.6519 61.5744 62.6519 60.9914V50.8439L62.6604 49.7171C62.6604 49.0588 63.1648 48.6215 63.7681 48.4886C63.8182 48.4778 63.8997 48.4522 64.0072 48.4185ZM72.8298 57.6367L75.6097 57.085L75.8625 57.0543C76.3442 57.037 76.7333 57.4619 76.7333 57.9862C76.7333 58.5105 76.355 58.9505 75.8813 58.979L71.7915 59.849C71.249 59.8685 70.8082 59.3967 70.8082 58.7964L70.8241 58.3514V48.6914L70.8082 47.7259C70.8082 47.1262 71.249 46.6237 71.7903 46.6041L72.0584 46.5555L75.7615 45.8464L75.8591 45.8263C76.3397 45.809 76.7287 46.2261 76.7287 46.7582C76.7287 47.2904 76.3397 47.7337 75.8591 47.7505L75.8284 47.7577L72.8275 48.3083V52.0439L74.9747 51.5737L75.4671 51.4754C75.9483 51.4593 76.3351 51.8769 76.3363 52.4085C76.3374 52.9401 75.9483 53.3846 75.4671 53.4013L74.9997 53.513L72.8298 53.991V57.6367ZM81.1344 45.001C82.8998 44.8039 84.3358 46.3132 84.342 48.3697H84.3438C84.3489 50.0359 83.4156 51.5508 82.1233 52.1729L83.4133 54.1356L84.8021 56.3853C84.8021 56.3853 85.1589 57.2084 84.4829 57.7299C83.9478 58.1465 83.3929 57.7338 83.1566 57.3553L81.6797 55.1547L80.1426 52.7324L79.9722 52.7787L79.7205 52.8273V56.4389L79.7155 57.2893C79.7155 57.8913 79.2752 58.3916 78.7322 58.4117C78.1892 58.4318 77.7495 57.9605 77.7495 57.3586V47.3786L77.7467 46.4645C77.7467 45.8637 78.1875 45.3611 78.731 45.3433L81.1344 45.001ZM85.9604 51.194C86.3903 51.098 86.7504 51.5575 86.7504 52.04L86.7528 52.0422C86.7528 52.5247 86.3903 52.829 85.9627 52.9463L84.8493 53.2282C84.4193 53.3192 84.058 52.8653 84.058 52.3828C84.058 51.9004 84.4193 51.5771 84.8499 51.4816L85.9604 51.194ZM94.8602 46.0653C94.8615 47.1982 94.4125 48.2868 93.6089 49.099L93.6003 49.0951C94.5234 49.7277 95.1289 50.9031 95.134 52.2991C95.1402 54.5516 93.5787 56.5551 91.6475 56.7717L88.9629 57.1017C88.3693 57.1218 87.8956 56.6254 87.8956 55.9671V44.2969C87.8956 43.638 88.3756 43.0891 88.9703 43.0684L91.5656 42.7708C93.3833 42.5653 94.8602 44.0422 94.8602 46.0653ZM100.738 45.6789L102.862 54.4645C102.956 55.0552 102.614 55.627 102.094 55.746C101.573 55.8649 101.074 55.4846 100.982 54.8967L100.785 54.1892L100.492 52.9781L97.9287 53.2182L97.6356 54.5114L97.4652 55.3143C97.372 55.9112 96.8745 56.3261 96.3564 56.243C95.8384 56.1597 95.4947 55.6114 95.5879 55.0145L95.656 54.4695C95.6884 54.2903 97.6828 45.9821 97.6828 45.9821L97.7316 45.781L97.8736 45.1802C97.9387 44.8954 98.0244 44.6154 98.1304 44.3426C98.2202 44.104 98.3594 43.8863 98.5393 43.7033C98.7167 43.5223 98.9549 43.4106 99.2096 43.3889C99.3288 43.3744 99.4498 43.3839 99.5653 43.4167C99.6806 43.4496 99.7881 43.5051 99.8811 43.5799C100.059 43.728 100.198 43.9156 100.287 44.1271C100.347 44.2645 100.399 44.4046 100.444 44.547C100.47 44.6277 100.493 44.709 100.514 44.791C100.575 45.0116 100.648 45.3081 100.738 45.6789ZM109.792 51.5413V51.5447C109.791 53.6429 108.318 55.3937 106.504 55.4584C104.69 55.5232 103.219 53.872 103.219 51.7731L103.202 50.3648V44.9379C103.202 44.4102 103.282 44.0115 103.441 43.7195C103.621 43.399 103.943 43.2153 104.233 43.2052C104.533 43.1946 104.833 43.3532 105.008 43.6603C105.166 43.9395 105.242 44.3331 105.242 44.8625L105.234 50.797L105.221 51.9903C105.205 52.7603 105.758 53.384 106.454 53.3745C107.151 53.365 107.728 52.7346 107.741 51.964L107.751 50.749L107.759 44.7681C107.759 44.2309 107.836 43.8328 107.992 43.5441C108.072 43.4003 108.189 43.2791 108.331 43.1921C108.472 43.105 108.634 43.055 108.801 43.0466C109.094 43.0349 109.359 43.1801 109.539 43.4816C109.707 43.7608 109.786 44.1562 109.786 44.6916V50.118L109.792 51.5413ZM118.157 44.2555L119.009 53.6286L119.007 53.6353C119.054 54.2461 118.729 54.7716 118.198 54.8939C117.668 55.0162 117.054 54.6298 117.021 54.0468L116.968 53.3237L116.763 47.8325L115.911 52.7944C115.844 53.2511 115.78 53.5984 115.73 53.8341L115.707 53.9457C115.601 54.4751 115.314 54.9302 114.83 54.948C114.345 54.9659 114 54.5404 113.911 54.0167C113.911 54.0167 113.744 53.0467 113.705 52.8117L112.78 47.842L112.571 53.4577L112.543 54.1233C112.508 54.713 111.897 55.1385 111.365 55.0536C110.834 54.9687 110.511 54.4662 110.558 53.8519L110.593 53.4611L111.357 44.3767C111.439 43.4705 111.728 43.1125 112.365 42.9679C113.001 42.8233 113.605 43.2649 113.714 43.9529L114.777 50.4726L115.784 43.9239C115.894 43.2264 116.501 42.7434 117.135 42.845C117.769 42.9467 118.073 43.3582 118.157 44.2555ZM122.32 41.9439C122.525 42.2465 122.635 42.602 122.635 42.9657C122.634 43.4528 122.436 43.9196 122.086 44.2639C121.735 44.6082 121.26 44.8018 120.765 44.8022C120.395 44.8022 120.033 44.6944 119.726 44.4923C119.418 44.2902 119.178 44.003 119.037 43.6671C118.895 43.3311 118.858 42.9614 118.931 42.6048C119.003 42.2482 119.181 41.9206 119.443 41.6636C119.705 41.4066 120.038 41.2316 120.401 41.1609C120.764 41.0902 121.14 41.1268 121.481 41.2662C121.823 41.4056 122.115 41.6415 122.32 41.9439Z" fill="white"/>
<path d="M37.3025 77.9781C48.1371 73.1715 83.2213 61.059 123.756 64.2457V61.03C79.2582 58.6362 47.3378 72.6321 37.2929 77.9234L37.3025 77.9781Z" fill="white"/>
</g>
</svg>
