<svg width="299" height="440" viewBox="0 0 299 440" fill="none" xmlns="http://www.w3.org/2000/svg">
<path d="M119.8 184L119.836 183.001L118.8 182.964V184H119.8ZM153.4 181.6L153.224 180.616L153.4 181.6ZM183.4 171.4L183.879 172.278L183.894 172.27L183.909 172.261L183.4 171.4ZM204.4 150.4L203.556 149.863L203.547 149.877L203.539 149.891L204.4 150.4ZM194.2 74.8L193.531 75.5433L193.537 75.5487L193.543 75.5541L194.2 74.8ZM116.2 65.8L115.721 64.9221L116.2 65.8ZM94 85.6L93.1862 85.0187L93.1808 85.0265L94 85.6ZM81.4 113.2L82.363 113.47L82.3656 113.46L81.4 113.2ZM77.8 144.4V145.4H78.8377L78.7993 144.363L77.8 144.4ZM9.4 144.4L8.40077 144.361L8.36002 145.4H9.4V144.4ZM20.8 88L21.73 88.3676L21.7328 88.3604L20.8 88ZM48.4 42.4L47.6705 41.716L47.6647 41.7222L47.659 41.7285L48.4 42.4ZM196.6 8.79999L196.306 9.75578L196.313 9.75781L196.6 8.79999ZM239.2 29.8L238.604 30.6031L238.61 30.6076L238.616 30.612L239.2 29.8ZM269.8 65.2L268.916 65.6668L268.921 65.6771L269.8 65.2ZM266.8 169.6L267.652 170.124L267.658 170.114L266.8 169.6ZM221.8 203.8L221.467 202.857L220.8 203.092V203.8H221.8ZM221.8 205H220.8V205.82L221.604 205.981L221.8 205ZM277.6 241L276.776 241.566L276.783 241.576L276.79 241.586L277.6 241ZM286 364L286.89 364.456L286.894 364.447L286 364ZM253.6 404.2L254.222 404.983L254.229 404.978L254.236 404.972L253.6 404.2ZM206.2 429.4L205.884 428.451L206.2 429.4ZM85 428.2L84.6286 429.128L84.6409 429.133L84.6534 429.138L85 428.2ZM39.4 398.2L38.6705 398.884L38.6761 398.89L38.6818 398.896L39.4 398.2ZM11.8 352L10.8578 352.335L11.8 352ZM1.6 292V291H0.581654L0.600166 292.018L1.6 292ZM70 292L70.9995 292.031L71.0317 291H70V292ZM88.6 356.2L87.8067 356.809L87.8146 356.819L87.8228 356.829L88.6 356.2ZM206.2 362.2L206.844 362.965L206.846 362.963L206.2 362.2ZM220 267.4L220.832 266.845L220 267.4ZM194.8 245.8L194.353 246.694L194.367 246.701L194.381 246.708L194.8 245.8ZM159.4 236.2L159.307 237.196L159.309 237.196L159.4 236.2ZM119.8 235H118.8V236.03L119.829 236L119.8 235ZM119.764 184.999C131.036 185.402 142.307 184.597 153.576 182.584L153.224 180.616C142.093 182.603 130.964 183.398 119.836 183.001L119.764 184.999ZM153.576 182.584C164.868 180.568 174.972 177.136 183.879 172.278L182.921 170.522C174.228 175.264 164.332 178.632 153.224 180.616L153.576 182.584ZM183.909 172.261C192.854 166.975 199.975 159.854 205.261 150.909L203.539 149.891C198.425 158.546 191.546 165.425 182.891 170.539L183.909 172.261ZM205.244 150.937C210.967 141.943 213.8 130.947 213.8 118H211.8C211.8 130.653 209.033 141.257 203.556 149.863L205.244 150.937ZM213.8 118C213.8 99.7416 207.497 85.0552 194.857 74.0459L193.543 75.5541C205.703 86.1448 211.8 100.258 211.8 118H213.8ZM194.869 74.0567C182.652 63.0611 166.798 57.6 147.4 57.6V59.6C166.402 59.6 181.748 64.9389 193.531 75.5433L194.869 74.0567ZM147.4 57.6C135.266 57.6 124.694 60.0276 115.721 64.9221L116.679 66.6779C125.306 61.9724 135.534 59.6 147.4 59.6V57.6ZM115.721 64.9221C106.785 69.7966 99.2714 76.4996 93.1863 85.0188L94.8137 86.1812C100.729 77.9004 108.015 71.4034 116.679 66.6779L115.721 64.9221ZM93.1808 85.0265C87.5076 93.131 83.2615 102.439 80.4344 112.94L82.3656 113.46C85.1385 103.161 89.2924 94.069 94.8192 86.1735L93.1808 85.0265ZM80.437 112.93C77.608 123.034 76.397 133.538 76.8007 144.437L78.7993 144.363C78.403 133.662 79.592 123.366 82.363 113.47L80.437 112.93ZM77.8 143.4H9.4V145.4H77.8V143.4ZM10.3992 144.439C11.1953 124.14 14.9755 105.453 21.73 88.3676L19.87 87.6323C13.0245 104.947 9.20473 123.86 8.40077 144.361L10.3992 144.439ZM21.7328 88.3604C28.4926 70.8644 37.6308 55.7724 49.141 43.0715L47.659 41.7285C35.9692 54.6276 26.7074 69.9356 19.8672 87.6396L21.7328 88.3604ZM49.1295 43.0839C61.0312 30.3889 75.3154 20.4671 91.9939 13.3191L91.2061 11.4808C74.2846 18.7329 59.7689 28.8111 47.6705 41.716L49.1295 43.0839ZM91.9939 13.3191C108.651 6.18031 127.514 2.59998 148.6 2.59998V0.599976C127.286 0.599976 108.149 4.21964 91.2061 11.4808L91.9939 13.3191ZM148.6 2.59998C164.901 2.59998 180.802 4.98521 196.306 9.75577L196.894 7.84421C181.198 3.01474 165.099 0.599976 148.6 0.599976V2.59998ZM196.313 9.75781C212.211 14.5272 226.305 21.4776 238.604 30.6031L239.796 28.9969C227.295 19.7224 212.989 12.6727 196.887 7.84216L196.313 9.75781ZM238.616 30.612C251.287 39.7187 261.385 51.3989 268.916 65.6667L270.684 64.7332C263.015 50.2011 252.713 38.2812 239.784 28.9879L238.616 30.612ZM268.921 65.6771C276.43 79.5093 280.2 95.5406 280.2 113.8H282.2C282.2 95.2594 278.37 78.8906 270.679 64.7229L268.921 65.6771ZM280.2 113.8C280.2 134.844 275.437 153.261 265.943 169.086L267.658 170.114C277.363 153.939 282.2 135.156 282.2 113.8H280.2ZM265.948 169.076C256.489 184.447 241.692 195.719 221.467 202.857L222.133 204.743C242.708 197.481 257.911 185.953 267.652 170.124L265.948 169.076ZM220.8 203.8V205H222.8V203.8H220.8ZM221.604 205.981C245.363 210.732 263.731 222.593 276.776 241.566L278.424 240.433C265.069 221.007 246.237 208.868 221.996 204.019L221.604 205.981ZM276.79 241.586C290.246 260.188 297 282.973 297 310H299C299 282.627 292.154 259.412 278.41 240.414L276.79 241.586ZM297 310C297 329.863 293.028 347.707 285.106 363.553L286.894 364.447C294.972 348.293 299 330.137 299 310H297ZM285.11 363.544C277.173 379.022 266.459 392.314 252.964 403.428L254.236 404.972C267.941 393.686 278.827 380.178 286.89 364.456L285.11 363.544ZM252.978 403.417C239.478 414.138 223.783 422.485 205.884 428.451L206.516 430.349C224.617 424.315 240.522 415.862 254.222 404.983L252.978 403.417ZM205.884 428.451C187.991 434.416 169.098 437.4 149.2 437.4V439.4C169.302 439.4 188.409 436.384 206.516 430.349L205.884 428.451ZM149.2 437.4C124.891 437.4 103.612 434.012 85.3466 427.262L84.6534 429.138C103.188 435.988 124.709 439.4 149.2 439.4V437.4ZM85.3714 427.272C67.4905 420.119 52.4119 410.194 40.1182 397.504L38.6818 398.896C51.188 411.806 66.5095 421.881 84.6286 429.128L85.3714 427.272ZM40.1295 397.516C28.2318 384.825 19.1002 369.547 12.7422 351.665L10.8578 352.335C17.2998 370.453 26.5682 385.975 38.6705 398.884L40.1295 397.516ZM12.7422 351.665C6.38344 333.781 2.99816 313.89 2.59984 291.982L0.600166 292.018C1.00184 314.11 4.41656 334.219 10.8578 352.335L12.7422 351.665ZM1.6 293H70V291H1.6V293ZM69.0005 291.969C68.1946 317.756 74.4416 339.394 87.8067 356.809L89.3933 355.591C76.3584 338.606 70.2054 317.444 70.9995 292.031L69.0005 291.969ZM87.8228 356.829C101.658 373.919 122.178 382.4 149.2 382.4V380.4C122.622 380.4 102.742 372.081 89.3773 355.571L87.8228 356.829ZM149.2 382.4C172.199 382.4 191.438 375.939 206.844 362.965L205.556 361.435C190.562 374.061 171.801 380.4 149.2 380.4V382.4ZM206.846 362.963C222.711 349.539 230.6 330.637 230.6 306.4H228.6C228.6 330.163 220.889 348.461 205.554 361.437L206.846 362.963ZM230.6 306.4C230.6 289.882 227.379 276.665 220.832 266.845L219.168 267.955C225.421 277.335 228.6 290.118 228.6 306.4H230.6ZM220.832 266.845C214.33 257.093 205.788 249.77 195.219 244.892L194.381 246.708C204.612 251.43 212.87 258.507 219.168 267.955L220.832 266.845ZM195.247 244.906C184.721 239.643 172.798 236.414 159.491 235.204L159.309 237.196C172.403 238.386 184.079 241.557 194.353 246.694L195.247 244.906ZM159.493 235.204C146.65 234 133.409 233.599 119.771 234L119.829 236C133.391 235.601 146.55 236 159.307 237.196L159.493 235.204ZM120.8 235V184H118.8V235H120.8Z" fill="white"/>
</svg>
