<svg width="302" height="422" viewBox="0 0 302 422" fill="none" xmlns="http://www.w3.org/2000/svg">
<path d="M54.2 267.4L53.3738 266.837L52.3079 268.4H54.2V267.4ZM181.4 267.4V268.4H182.4V267.4H181.4ZM181.4 82.6H182.4V81.6H181.4V82.6ZM180.2 82.6V81.6H179.672L179.374 82.0367L180.2 82.6ZM300.2 321.4V322.4H301.2V321.4H300.2ZM246.2 321.4V320.4H245.2V321.4H246.2ZM246.2 421V422H247.2V421H246.2ZM181.4 421H180.4V422H181.4V421ZM181.4 321.4H182.4V320.4H181.4V321.4ZM1.4 321.4H0.400001V322.4H1.4V321.4ZM1.4 253.6L0.585613 253.02L0.400001 253.28V253.6H1.4ZM181.4 0.999969V-3.05176e-05H180.885L180.586 0.419647L181.4 0.999969ZM246.2 0.999969H247.2V-3.05176e-05H246.2V0.999969ZM246.2 267.4H245.2V268.4H246.2V267.4ZM300.2 267.4H301.2V266.4H300.2V267.4ZM54.2 268.4H181.4V266.4H54.2V268.4ZM182.4 267.4V82.6H180.4V267.4H182.4ZM181.4 81.6H180.2V83.6H181.4V81.6ZM179.374 82.0367L53.3738 266.837L55.0262 267.963L181.026 83.1633L179.374 82.0367ZM300.2 320.4H246.2V322.4H300.2V320.4ZM245.2 321.4V421H247.2V321.4H245.2ZM246.2 420H181.4V422H246.2V420ZM182.4 421V321.4H180.4V421H182.4ZM181.4 320.4H1.4V322.4H181.4V320.4ZM2.4 321.4V253.6H0.400001V321.4H2.4ZM2.21439 254.18L182.214 1.58029L180.586 0.419647L0.585613 253.02L2.21439 254.18ZM181.4 1.99997H246.2V-3.05176e-05H181.4V1.99997ZM245.2 0.999969V267.4H247.2V0.999969H245.2ZM246.2 268.4H300.2V266.4H246.2V268.4ZM299.2 267.4V321.4H301.2V267.4H299.2Z" fill="white"/>
</svg>
