<svg width="200" height="100" viewBox="0 0 200 100" fill="none" xmlns="http://www.w3.org/2000/svg">
<mask id="mask0" style="mask-type:alpha" maskUnits="userSpaceOnUse" x="0" y="0" width="200" height="100">
<rect width="200" height="100" fill="#222222"/>
</mask>
<g mask="url(#mask0)">
<path fill-rule="evenodd" clip-rule="evenodd" d="M20.8161 57.0692L19 57.795V57.8628H27.1029C30.8582 57.8628 33.155 56.3671 33.155 53.6235C33.155 51.2206 31.2306 49.6334 28.0479 49.2706C30.4185 48.8399 32.0066 47.707 32.0066 45.757C32.0066 43.2184 29.7918 42 26.2186 42H19V42.0369L20.8161 42.7611V57.0692ZM29.3636 45.7644C29.3636 48.1599 27.5737 49.157 25.354 49.157L23.3623 49.1644V42.3643H25.4049C27.6246 42.3643 29.3636 43.3689 29.3636 45.7644ZM30.4234 53.6235C30.4234 56.0249 28.6828 57.5 26.2875 57.5L23.3623 57.5029V49.5228H25.6083C28.3054 49.5228 30.4234 51.2221 30.4234 53.6235Z" fill="white"/>
<path fill-rule="evenodd" clip-rule="evenodd" d="M42.8788 46.5284H38.0883L35.314 49.7485H38.0637L39.3482 46.8471H41.4925C42.8296 46.8471 43.7368 47.617 43.7368 48.6378C43.7368 49.6113 42.9985 50.3135 41.8501 50.722L37.8914 52.1027C36.6052 52.5585 35.4453 53.5099 35.4453 55.0528C35.4453 56.9335 37.035 57.9764 39.2531 57.9764C41.4383 57.9764 43.2791 56.2786 43.6827 54.5085V57.8628H47.9482V57.795L46.1321 57.0692V49.3163C46.1321 47.797 44.6703 46.5284 42.8788 46.5284ZM39.8289 51.787L41.9715 51.0392C42.5985 50.8415 43.1557 50.4973 43.5859 50.042V53.2621C43.5859 55.1015 42.1487 56.2122 40.3326 56.2122C38.8954 56.2122 37.7864 55.6429 37.7864 54.1471C37.7864 53.1706 38.441 52.2635 39.8289 51.787Z" fill="white"/>
<path d="M59.6981 46.5727V48.7499C58.9249 48.622 58.1398 48.5612 57.3537 48.5685C55.0569 48.5685 53.7723 50.3592 53.7723 52.0378V57.0692L55.5884 57.795V57.8628H49.41V57.795L51.2261 57.0692V48.2734H49.41V48.2056L53.5967 46.5284H53.7723V50.5406C54.0758 48.9534 56.1429 46.4606 58.4119 46.4606C58.8439 46.4563 59.2751 46.4939 59.6981 46.5727Z" fill="white"/>
<path fill-rule="evenodd" clip-rule="evenodd" d="M73.9958 52.1956C73.9958 48.8399 71.0986 46.4149 67.4893 46.4149C63.8832 46.4149 60.9843 48.8399 60.9843 52.1956C60.9843 55.5514 63.8832 57.9764 67.4893 57.9764C71.0953 57.9764 73.9958 55.5514 73.9958 52.1956ZM71.448 52.2015C71.448 55.37 69.6827 57.6593 67.4893 57.6593C65.2958 57.6593 63.5305 55.3759 63.5305 52.2015C63.5305 49.0272 65.2958 46.76 67.4893 46.76C69.6827 46.76 71.448 49.0331 71.448 52.2015Z" fill="white"/>
<path d="M75.9367 57.795L77.7528 57.0692V47.322L75.9367 46.5963V46.5284H80.299V49.5656C80.778 47.9106 82.3169 46.4149 84.5858 46.4149C87.3092 46.4149 88.6447 48.0242 88.6447 50.6999V57.0692L90.4608 57.795V57.8628H84.284V57.795L86.0985 57.0692V50.874C86.0985 48.9918 85.5686 47.6775 83.526 47.6775C81.3326 47.6775 80.299 49.8075 80.299 51.3489V57.0619L82.1151 57.7876V57.8554H75.9367V57.795Z" fill="white"/>
<path d="M118.741 42H113.396C108.73 42 104.944 45.5313 104.944 49.9742C104.944 54.4171 108.675 58 113.391 58C117.929 58 121.458 54.69 121.786 50.5863H121.686C121.326 52.0812 120.41 53.4214 119.09 54.3865C117.77 55.3515 116.124 55.8841 114.423 55.8966C110.389 55.8966 107.188 52.9273 107.188 49.0729C107.188 45.4457 110.361 42.3629 113.97 42.3629H115.611L118.991 46.2393L120.631 46.1936L118.741 42Z" fill="white"/>
<path fill-rule="evenodd" clip-rule="evenodd" d="M126.583 46.5284H131.374C133.164 46.5284 134.627 47.797 134.627 49.3163V57.0692L136.442 57.795V57.8628H132.176V54.5085C131.772 56.2786 129.932 57.9764 127.738 57.9764C125.519 57.9764 123.93 56.9335 123.93 55.0528C123.93 53.5099 125.09 52.5585 126.377 52.1027L130.335 50.7191C131.495 50.3105 132.227 49.6084 132.227 48.6334C132.227 47.6126 131.318 46.8426 129.983 46.8426H127.843L126.559 49.7441H123.809L126.583 46.5284ZM130.467 51.0392L128.324 51.787C126.936 52.2635 126.28 53.1706 126.28 54.1471C126.28 55.6429 127.39 56.2122 128.828 56.2122C130.642 56.2122 132.079 55.1015 132.079 53.2621V50.042C131.65 50.4973 131.093 50.8415 130.467 51.0392Z" fill="white"/>
<path d="M141.107 57.1179L138.989 53.8728L137.936 53.8669L138.389 57.1327C139.6 57.6755 141.088 57.9248 143.457 57.9705C146.484 58.0383 148.728 56.8819 148.728 54.6841C148.728 52.3733 146.738 51.804 143.979 51.0148L143.806 50.9654C143.679 50.9347 143.552 50.9043 143.426 50.8741C141.587 50.4351 139.821 50.0133 139.821 48.6983C139.821 47.6097 141.032 46.7482 142.897 46.7482C143.553 46.7449 144.207 46.8213 144.84 46.9754L146.63 50.1261L147.814 50.0361L147.361 46.8839C146.024 46.5859 144.654 46.4266 143.276 46.409C140.427 46.409 138.284 47.5875 138.284 49.5376C138.284 51.8947 140.806 52.5983 143.301 53.2105C145.419 53.7149 147.16 54.1722 147.184 55.5543C147.209 56.9365 145.445 57.6401 143.554 57.6401C142.722 57.6401 141.713 57.4808 141.107 57.1179Z" fill="white"/>
<path d="M149.909 46.5284H151.85L154.321 42H154.395V46.5284H157.85V46.8898H154.395V54.2814C154.395 55.7564 155.202 56.3465 156.337 56.3465C157.572 56.3465 158.58 55.2343 158.832 54.2371H158.934C158.859 56.2329 157.395 57.9779 155.325 57.9779C153.458 57.9779 151.845 56.8671 151.845 54.8271V46.8913H149.909V46.5284Z" fill="white"/>
<path fill-rule="evenodd" clip-rule="evenodd" d="M172.851 49.9285C172.07 47.7291 169.675 46.4149 167.027 46.4149C163.449 46.4149 160.575 48.7956 160.571 52.2428C160.571 55.5293 163.396 57.9779 166.85 57.9779C168.495 57.9713 170.073 57.3869 171.246 56.3494C172.419 55.3119 173.094 53.9033 173.128 52.4243H173.053C172.625 54.5543 170.456 56.1414 167.908 56.1414C165.085 56.1414 162.74 54.1914 162.74 51.4035C162.74 50.9063 162.808 50.4109 162.942 49.9285H172.851ZM166.976 46.7541C168.591 46.7541 169.8 47.8648 170.354 49.5877H163.039C163.723 47.797 165.336 46.7541 166.976 46.7541Z" fill="white"/>
<path d="M174.822 57.795L176.638 57.0692V42.7877L174.822 42.062V42H179.184V57.0751L181 57.8009V57.8687H174.822V57.795Z" fill="white"/>
<path fill-rule="evenodd" clip-rule="evenodd" d="M96.9899 49.1298C96.7549 49.4782 96.652 49.8858 96.6967 50.2913C95.1233 50.1025 93.5713 51.082 93.5779 52.7547C93.5702 53.0821 93.6355 53.4077 93.7699 53.7121C93.9042 54.0166 94.105 54.2938 94.3603 54.5274C94.6155 54.7611 94.9202 54.9465 95.2564 55.0727C95.5926 55.1989 95.9534 55.2633 96.3177 55.2623C97.5727 55.2623 98.288 54.7077 99.3446 53.3521L101.313 55.2121H102.746L99.9057 52.557L99.927 52.5762L101.568 50.489L100.419 50.4683L99.7449 52.4184L98.1929 50.9639C97.2036 50.0538 97.8418 48.6378 99.3594 48.6378C99.738 48.6276 100.106 48.7522 100.383 48.9844L100.427 48.9446C100.148 48.6239 99.76 48.3935 99.3222 48.2879C98.8845 48.1823 98.4205 48.2073 97.9999 48.3591C97.5793 48.511 97.2249 48.7814 96.9899 49.1298ZM99.1723 53.1898C98.7326 53.7533 97.8516 54.4554 96.7738 54.4554C96.4725 54.4587 96.1737 54.4072 95.8951 54.304C95.6166 54.2008 95.3641 54.048 95.153 53.8548C94.9418 53.6616 94.7762 53.4321 94.6663 53.1799C94.5563 52.9277 94.5042 52.6581 94.513 52.3874C94.513 51.1454 95.5417 50.281 96.7196 50.4492C96.8181 50.9241 97.0822 51.2103 97.5006 51.6071L99.1723 53.1898Z" fill="white"/>
</g>
</svg>
