<svg width="200" height="100" viewBox="0 0 200 100" fill="none" xmlns="http://www.w3.org/2000/svg">
<mask id="mask0" style="mask-type:alpha" maskUnits="userSpaceOnUse" x="0" y="0" width="200" height="100">
<rect width="200" height="100" fill="#222222"/>
</mask>
<g mask="url(#mask0)">
<path fill-rule="evenodd" clip-rule="evenodd" d="M44.0715 37.2071C45.6445 36.4099 47.3857 35.9962 49.1513 36C55.334 36 60.364 41.0003 60.3658 47.1468C60.3688 49.0014 59.9049 50.8272 59.0162 52.4579C58.1276 54.0885 56.8425 55.472 55.2782 56.4823L45.6705 61.9986C45.6488 62.0111 45.6057 62.0361 45.547 62.0703C45.2975 62.2153 44.7656 62.5245 44.3957 62.7277L44.2275 62.8194C44.1462 62.8617 44.0897 62.8895 44.0503 62.9076L43.9896 62.9305C42.4975 63.6387 40.8643 64.0042 39.2109 64C33.0288 64 28 59.0003 28 52.8538C27.997 50.9983 28.4612 49.1715 29.3504 47.5401C30.2396 45.9088 31.5255 44.5247 33.0907 43.5141L44.0715 37.2071ZM43.6672 62.1453L43.7322 62.1211C43.7395 62.1163 43.771 62.0988 43.8117 62.0789L43.9817 61.9878C44.4339 61.7397 45.1272 61.3347 45.2279 61.2744L50.579 58.203C50.5232 58.2108 50.4673 58.2175 50.4109 58.2235C50.2914 58.2371 50.1695 58.2463 50.0473 58.2555L50.0078 58.2585C49.9064 58.2664 49.805 58.2736 49.7043 58.2784C49.5744 58.2851 49.4445 58.2893 49.3139 58.2893L49.1513 58.2941C49.0183 58.2941 48.8842 58.2917 48.7518 58.2863L48.3949 58.2573C42.5339 57.8753 37.9398 52.9957 37.9398 47.148C37.9426 45.4475 38.3351 43.77 39.0877 42.243L39.254 41.9111C39.3675 41.6962 39.4889 41.4934 39.6103 41.2955C39.6364 41.2532 39.665 41.2104 39.6935 41.1687L39.7402 41.0987C39.8325 40.9563 39.9254 40.8151 40.0244 40.6762C40.055 40.6341 40.0861 40.5935 40.1169 40.5533C40.1245 40.5434 40.1321 40.5335 40.1397 40.5235L40.1961 40.4493L40.2465 40.3841L33.5375 44.2353C32.0957 45.1695 30.9117 46.4474 30.0934 47.9527C29.2751 49.458 28.8485 51.1428 28.8523 52.8538C28.8523 58.5325 33.4992 63.152 39.2109 63.152C40.7537 63.1553 42.2773 62.8111 43.6672 62.1453ZM39.8696 42.5804C39.1629 44.0002 38.7946 45.5627 38.7933 47.1468C38.79 49.7654 39.7921 52.2865 41.595 54.1954C43.3979 56.1043 45.8656 57.2571 48.4944 57.4184C49.1995 55.9988 49.567 54.4371 49.5683 52.8538C49.5717 50.2354 48.57 47.7145 46.7676 45.8053C44.9652 43.8962 42.4981 42.7427 39.8696 42.5804ZM49.7055 57.4317C50.9321 57.3688 52.1374 57.0875 53.264 56.6012C53.4522 56.5185 53.6403 56.4316 53.8267 56.3374L54.8259 55.7623C56.2678 54.8286 57.452 53.5512 58.2705 52.0464C59.089 50.5415 59.5159 48.857 59.5123 47.1462C59.5123 41.4675 54.8642 36.8474 49.1519 36.8474C47.5276 36.8428 45.9254 37.2222 44.4776 37.9543L43.479 38.527C43.1615 38.7359 42.8557 38.962 42.563 39.2042L42.4744 39.2748C42.1966 39.5091 41.9316 39.7579 41.6804 40.0202L41.5675 40.1361C41.3258 40.3961 41.0975 40.668 40.8833 40.9509L40.7783 41.0897C40.6211 41.3045 40.4699 41.529 40.3273 41.7602C46.0153 42.3161 50.4212 47.1232 50.4212 52.8532C50.42 54.4345 50.0826 55.9976 49.4311 57.4401C49.5234 57.4383 49.6138 57.4359 49.7055 57.4317Z" fill="white"/>
<path d="M70.4203 58.5313H66.54L66.5388 41.6516H70.4203V58.5313Z" fill="white"/>
<path d="M91.3791 58.5313H87.7404L87.738 51.4409C87.738 50.2351 87.1559 49.4631 85.9909 49.4631C84.7787 49.4631 84.0994 50.3075 84.0994 51.7306V58.5313H80.4602V51.4409C80.4602 50.2351 79.8786 49.4631 78.7143 49.4631C77.5014 49.4631 76.8222 50.3075 76.8222 51.7306V58.5313H73.1835V46.4726H76.8222V47.5831C77.38 46.7617 78.4472 46.1346 80.0723 46.1346C81.5061 46.1346 82.5733 46.7134 83.2526 47.7268C83.9319 46.7623 85.0476 46.1352 86.7698 46.1352C89.5579 46.1352 91.3791 48.1124 91.3791 51.1271V58.5313Z" fill="white"/>
<path d="M112.045 58.5313H108.406L108.407 51.4409C108.407 50.2351 107.825 49.4631 106.66 49.4631C105.447 49.4631 104.768 50.3075 104.768 51.7306V58.5313H101.129V51.4409C101.129 50.2351 100.547 49.4631 99.3823 49.4631C98.1701 49.4631 97.4908 50.3075 97.4908 51.7306V58.5313H93.8522V46.4726H97.4902V47.5837C98.0481 46.7623 99.1152 46.1352 100.74 46.1352C102.172 46.1352 103.239 46.714 103.918 47.7268C104.597 46.7623 105.713 46.1352 107.435 46.1352C110.224 46.1352 112.045 48.1124 112.045 51.1271V58.5313Z" fill="white"/>
<path fill-rule="evenodd" clip-rule="evenodd" d="M126.524 52.5008C126.527 52.9873 126.478 53.4728 126.379 53.9492L117.762 53.9456C118.226 55.201 119.34 55.6355 120.676 55.6355C121.669 55.6355 122.519 55.2499 123.004 54.7188L125.918 56.3833C124.729 58.0225 122.936 58.8675 120.629 58.8675C116.482 58.8675 113.911 56.0918 113.911 52.5008C113.911 48.9097 116.53 46.1334 120.363 46.1334C123.905 46.1334 126.524 48.859 126.524 52.5008ZM117.695 51.2478H122.91C122.524 49.8494 121.431 49.343 120.339 49.343C118.956 49.343 118.034 50.0184 117.695 51.2478Z" fill="white"/>
<path d="M135.838 46.2312V50.331C134.334 50.0896 132.199 50.6926 132.199 53.0802V58.5313H128.557V46.4726H132.199V48.6188C132.684 47.0031 134.309 46.2312 135.838 46.2312Z" fill="white"/>
<path d="M144.982 55.2511V58.5343C140.227 59.0165 138.844 57.5934 138.844 54.2172V49.9478H136.902V46.4756H138.844V44.1822L142.483 43.0958V46.4726H144.982V49.9448H142.483V54.2142C142.483 55.2511 143.381 55.347 144.982 55.2511Z" fill="white"/>
<path fill-rule="evenodd" clip-rule="evenodd" d="M158.783 52.5008C158.786 52.9873 158.737 53.4728 158.638 53.9492L150.021 53.9456C150.485 55.201 151.6 55.6355 152.935 55.6355C153.928 55.6355 154.778 55.2499 155.264 54.7188L158.178 56.3833C156.988 58.0225 155.196 58.8675 152.889 58.8675C148.741 58.8675 146.17 56.0918 146.17 52.5008C146.17 48.9097 148.789 46.1334 152.622 46.1334C156.164 46.1334 158.783 48.859 158.783 52.5008ZM149.954 51.2478H155.169C154.784 49.8494 153.691 49.343 152.598 49.343C151.215 49.343 150.294 50.0184 149.954 51.2478Z" fill="white"/>
<path d="M172 49.2211L168.822 51.0547V51.0529C168.412 50.2085 167.536 49.7022 166.469 49.7022C164.893 49.7022 163.728 50.8362 163.728 52.5002C163.728 54.1641 164.891 55.2969 166.469 55.2969C167.536 55.2969 168.434 54.7918 168.822 53.9468L172 55.7574C170.957 57.6387 168.896 58.8687 166.518 58.8687C162.831 58.8687 160.09 56.093 160.09 52.502C160.09 48.9109 162.831 46.1346 166.518 46.1346C168.871 46.1346 170.957 47.3646 172 49.2211Z" fill="white"/>
</g>
</svg>
