<svg width="200" height="100" viewBox="0 0 200 100" fill="none" xmlns="http://www.w3.org/2000/svg">
<mask id="mask0" style="mask-type:alpha" maskUnits="userSpaceOnUse" x="0" y="0" width="200" height="100">
<rect width="200" height="100" fill="#222222"/>
</mask>
<g mask="url(#mask0)">
<path d="M93.4549 56.944H58.7908C58.537 56.9404 58.2949 56.8333 58.1171 56.646C57.9394 56.4587 57.8404 56.2063 57.8418 55.9439V40.0011C57.8438 39.7385 57.7451 39.4857 57.5674 39.2981C57.3896 39.1105 57.1472 39.0033 56.8933 39H54.949C54.695 39.0033 54.4526 39.1105 54.2748 39.2981C54.0969 39.4857 53.9982 39.7384 54 40.0011V59.9989C53.998 60.2616 54.0968 60.5145 54.2746 60.7021C54.4525 60.8897 54.695 60.9968 54.949 61H93.4549C93.7089 60.9962 93.9512 60.8886 94.1288 60.7008C94.3064 60.513 94.405 60.2601 94.403 59.9975V57.9451C94.4046 57.6826 94.3059 57.4302 94.1283 57.2427C93.9507 57.0552 93.7087 56.9478 93.4549 56.944V56.944ZM73.8019 51.9964H93.3742C93.8944 51.9964 94.3218 51.5443 94.3218 50.9948V48.9415C94.3233 48.679 94.2244 48.4266 94.0466 48.2392C93.8688 48.0519 93.6266 47.9448 93.3728 47.9414H73.8019C73.548 47.9445 73.3056 48.0515 73.1278 48.2389C72.95 48.4264 72.8511 48.6789 72.8529 48.9415V50.9948C72.8509 51.2576 72.9496 51.5105 73.1274 51.6982C73.3053 51.8859 73.5478 51.9931 73.8019 51.9964V51.9964ZM145.052 61C145.306 60.9962 145.548 60.8886 145.726 60.7008C145.903 60.513 146.002 60.2601 146 59.9975V40.0025C146.002 39.7402 145.903 39.4877 145.725 39.3003C145.548 39.1129 145.306 39.0058 145.052 39.0024H121.172C120.651 39.0024 119.969 39.3633 119.657 39.8038L108.088 56.159C107.776 56.5995 107.093 56.9604 106.572 56.9604H105.125C104.871 56.9568 104.629 56.8496 104.451 56.6621C104.274 56.4745 104.175 56.2219 104.176 55.9593V40.0011C104.179 39.739 104.08 39.4866 103.903 39.299C103.726 39.1114 103.485 39.0039 103.231 39L73.8019 39.0024C73.548 39.0058 73.3058 39.1131 73.1282 39.3007C72.9507 39.4883 72.8522 39.741 72.8543 40.0035V42.0564C72.8522 42.3189 72.9507 42.5716 73.1282 42.7592C73.3058 42.9468 73.548 43.054 73.8019 43.0575H99.3893C99.6431 43.0608 99.8854 43.168 100.063 43.3556C100.241 43.5432 100.339 43.796 100.337 44.0586V59.9975C100.335 60.2603 100.434 60.5133 100.611 60.7011C100.789 60.889 101.032 60.9964 101.286 61H108.509C109.031 61 109.714 60.6391 110.025 60.1972L121.588 43.8588C121.901 43.4183 122.584 43.0575 123.105 43.0575H141.201C141.455 43.0608 141.697 43.1679 141.875 43.3555C142.053 43.5432 142.151 43.7959 142.149 44.0586V55.9439C142.151 56.2063 142.052 56.4586 141.874 56.646C141.697 56.8333 141.455 56.9404 141.201 56.944H123.09C122.836 56.9408 122.594 56.8339 122.415 56.6466C122.237 56.4592 122.138 56.2066 122.139 55.9439V52.1271C122.139 51.5791 121.882 51.4855 121.564 51.9226L118.882 55.6447C118.566 56.0818 118.306 56.8895 118.306 57.4424V59.9994C118.304 60.262 118.403 60.5146 118.58 60.7021C118.758 60.8896 119.001 60.9967 119.255 61H145.052Z" fill="white"/>
</g>
</svg>
