<svg width="200" height="100" viewBox="0 0 200 100" fill="none" xmlns="http://www.w3.org/2000/svg">
<mask id="mask0_1429_241" style="mask-type:alpha" maskUnits="userSpaceOnUse" x="0" y="0" width="200" height="100">
<rect width="200" height="100" fill="#222222"/>
</mask>
<g mask="url(#mask0_1429_241)">
<path d="M47.0791 59.0982H54.7823L58.0261 66H64.0826L53.9581 44.4609L47.0791 59.0982Z" fill="#949494"/>
<path d="M49.0411 34L34 65.9996H39.8571L51.9695 40.2312L49.0411 34Z" fill="#949494"/>
<path d="M155.979 57.4956C155.816 57.197 155.593 56.9289 155.322 56.7052C155.051 56.4928 154.522 56.1744 153.594 56.1744C151.982 56.1744 151.079 57.1889 151.079 58.2507C151.079 59.4304 152.124 59.9732 152.833 60.2445L153.658 60.563C154.226 60.7753 154.896 61.1057 154.896 61.9076C154.896 62.698 154.277 63.2289 153.478 63.2289C152.962 63.2289 152.601 63.0401 152.356 62.757C152.149 62.5093 151.995 62.1435 151.995 61.7542L150.692 62.0137C150.744 62.5565 150.95 63.0755 151.414 63.5474C151.853 63.9956 152.446 64.3379 153.439 64.3379C155.051 64.3379 156.211 63.3115 156.211 61.8127C156.211 60.9163 155.773 60.0903 154.187 59.5005L153.323 59.1819C152.484 58.8752 152.394 58.4622 152.394 58.2263C152.394 57.719 152.807 57.2825 153.606 57.2825C153.98 57.2825 154.264 57.3651 154.535 57.5656C154.707 57.6991 154.839 57.8693 154.922 58.0611L155.979 57.4956Z" fill="#949494"/>
<path fill-rule="evenodd" clip-rule="evenodd" d="M142.386 56.3159V64.1848H143.702V60.9641H143.934L146.397 64.1848H147.983L145.3 60.8225C146.448 60.5866 147.209 59.7608 147.209 58.6281C147.209 58.2861 147.132 57.3541 146.19 56.776C145.636 56.4339 144.965 56.3159 143.921 56.3159H142.386ZM143.702 57.4248H144.153C144.798 57.4248 145.945 57.5311 145.945 58.64C145.945 59.8905 144.476 59.9259 144.114 59.9259H143.701L143.702 57.4248Z" fill="#949494"/>
<path d="M138.749 56.3159H134.003V64.1848H138.749V63.0522H135.319V60.5748H138.646V59.4422H135.319V57.4484H138.749V56.3159Z" fill="#949494"/>
<path d="M123.764 64.1848V58.6872L130.006 64.6685V56.3159H128.69V61.7664L122.447 55.785V64.1848H123.764Z" fill="#949494"/>
<path d="M119.352 57.4484V56.3159H114.091V57.4484H116.064V64.1848H117.38V57.4484H119.352Z" fill="#949494"/>
<path fill-rule="evenodd" clip-rule="evenodd" d="M106.172 56.3159V64.1848H107.487V60.9641H107.719L110.183 64.1848H111.769L109.087 60.8225C110.234 60.5866 110.996 59.7608 110.996 58.6281C110.996 58.2861 110.919 57.3541 109.977 56.776C109.423 56.4339 108.752 56.3159 107.707 56.3159H106.172ZM107.487 57.4248H107.939C108.584 57.4248 109.731 57.5311 109.731 58.64C109.731 59.8905 108.261 59.9259 107.9 59.9259H107.487L107.487 57.4248Z" fill="#949494"/>
<path fill-rule="evenodd" clip-rule="evenodd" d="M101.735 64.1848H103.155L99.0797 55.8558L94.798 64.1848H96.2163L97.1577 62.2854H100.833L101.735 64.1848ZM97.6989 61.1529L99.0277 58.4866L100.304 61.1529H97.6989Z" fill="#949494"/>
<path fill-rule="evenodd" clip-rule="evenodd" d="M88.0397 56.3159V64.1848H89.3552V60.9877H89.9484C90.5804 60.9877 91.3671 60.9051 92.0506 60.3742C92.7598 59.8198 92.8889 59.1119 92.8889 58.6518C92.8889 57.9321 92.5407 57.1771 91.8184 56.7406C91.1994 56.363 90.4642 56.3159 89.9355 56.3159H88.0397ZM89.3547 57.4248H89.935C91.431 57.4248 91.6245 58.2035 91.6245 58.64C91.6245 59.3715 91.0828 59.8787 89.9479 59.8787H89.3547V57.4248Z" fill="#949494"/>
<path fill-rule="evenodd" clip-rule="evenodd" d="M80.663 60.4922L79.6831 61.5067L78.1606 59.808C78.7281 59.4186 79.0247 59.1473 79.2311 58.8996C79.3865 58.7108 79.6051 58.3804 79.6051 57.8731C79.6051 57.0355 78.9087 56.1744 77.5416 56.1744C76.123 56.1744 75.5039 57.0946 75.5039 57.9912C75.5039 58.7462 76.0585 59.3479 76.3551 59.6192C76.2778 59.6664 75.9037 59.9023 75.6716 60.0557C75.0143 60.5039 74.4335 61.0466 74.4335 62.0849C74.4335 63.359 75.4008 64.3382 77.0128 64.3382C77.8254 64.3382 78.367 64.1376 78.8958 63.7954C79.156 63.6241 79.3979 63.4306 79.618 63.2174L80.4691 64.1848H82.0683L80.4819 62.368L81.5008 61.2944L80.663 60.4922ZM77.4001 58.9703L77.0132 58.5456C76.8713 58.3926 76.7166 58.1327 76.7166 57.8613C76.7166 57.4602 77.0132 57.1653 77.542 57.1653C78.1481 57.1653 78.3932 57.5311 78.3932 57.8731C78.3932 58.1683 78.1868 58.4513 77.8773 58.6518L77.4001 58.9703ZM78.8316 62.368C78.6763 62.5096 78.3029 62.8399 78.032 63.0169C77.7225 63.2056 77.4259 63.3235 77.0648 63.3235C76.2522 63.3235 75.7235 62.7691 75.7235 62.132C75.7235 61.8489 75.8267 61.4832 76.1878 61.1293C76.4329 60.8816 76.8451 60.6219 77.1293 60.4804L78.8316 62.368Z" fill="#949494"/>
<path d="M162.844 39.0134C163.925 39.0134 164.971 39.1918 166 39.792V41.7384C164.688 40.6516 163.464 40.538 162.79 40.538C160.219 40.538 158.481 42.2737 158.481 44.6583C158.481 46.9457 160.29 48.7139 162.808 48.7139C164.227 48.7139 165.326 48.0488 166 47.4648V49.4277C164.812 50.0765 163.571 50.2387 162.755 50.2387C160.609 50.2387 159.261 49.3466 158.57 48.7463C157.186 47.5621 156.672 46.1833 156.672 44.6585C156.672 42.6633 157.577 41.2844 158.57 40.4246C159.794 39.3703 161.212 39.0134 162.844 39.0134Z" fill="#949494"/>
<path d="M150.856 50.0278H149.047V39.2081H150.856V50.0278Z" fill="#949494"/>
<path d="M140.855 46.2158V39.2081H142.664V46.2158C142.664 47.0754 142.628 47.9352 142.221 48.6814C141.848 49.3628 141.049 50.2387 139.436 50.2387C138.39 50.2387 137.698 49.8981 137.344 49.6872L138.23 48.2921C138.461 48.4705 138.833 48.6814 139.472 48.6814C139.773 48.6814 140.358 48.6327 140.66 47.9515C140.766 47.7082 140.855 47.3188 140.855 46.2158Z" fill="#949494"/>
<path d="M126.668 39.2081H133.194V40.7654H128.477V43.5068H133.052V45.0643H128.477V48.4705H133.194V50.0278H126.668V39.2081Z" fill="#949494"/>
<path fill-rule="evenodd" clip-rule="evenodd" d="M113.652 50.0278V39.2081L115.763 39.2085C117.199 39.2085 118.121 39.3711 118.884 39.8411C120.178 40.6362 120.284 41.9181 120.284 42.3881C120.284 43.9453 119.238 45.0808 117.66 45.4052L121.349 50.0284H119.167L115.78 45.5999H115.461V50.0278H113.652ZM116.082 40.7329H115.461V44.1718H116.029C116.525 44.1718 118.547 44.1232 118.547 42.4037C118.547 40.8788 116.968 40.7329 116.082 40.7329Z" fill="#949494"/>
<path fill-rule="evenodd" clip-rule="evenodd" d="M98.6858 50.0278V39.2081L101.168 39.2077C102.817 39.2077 104.253 39.37 105.566 40.2621C107.003 41.2516 107.836 42.8251 107.836 44.6257C107.836 46.4263 107.02 47.9836 105.46 48.9893C104.077 49.8819 102.782 50.0278 101.133 50.0278H98.6858ZM101.275 40.7654H100.495L100.495 48.4705H101.275C102.162 48.4705 103.385 48.4057 104.414 47.7082C105.229 47.1403 106.027 46.1018 106.027 44.626C106.027 43.1986 105.282 42.0792 104.431 41.5116C103.403 40.8302 102.144 40.7654 101.275 40.7654Z" fill="#949494"/>
<path d="M83.7193 42.4686V50.0278H81.9106V38.4781L90.4933 46.7024V39.2081H92.3021V50.6929L83.7193 42.4686Z" fill="#949494"/>
<path fill-rule="evenodd" clip-rule="evenodd" d="M76.8744 50.0278H74.9237L73.6826 47.4162H68.6287L67.3342 50.0278H65.3836L71.2709 38.5754L76.8744 50.0278ZM71.1998 42.1928L69.3732 45.8589H72.9554L71.1998 42.1928Z" fill="#949494"/>
</g>
</svg>
