<svg width="200" height="100" viewBox="0 0 200 100" fill="none" xmlns="http://www.w3.org/2000/svg">
<mask id="mask0_1429_155" style="mask-type:alpha" maskUnits="userSpaceOnUse" x="0" y="0" width="200" height="100">
<rect width="200" height="100" fill="#222222"/>
</mask>
<g mask="url(#mask0_1429_155)">
<path d="M127.944 39H131.694C131.702 39 131.709 39.0014 131.715 39.0041C131.722 39.0066 131.727 39.0103 131.732 39.0149C131.742 39.0244 131.748 39.0374 131.748 39.0509V59.6659L131.747 59.6707L131.747 59.6734C131.746 59.677 131.745 59.6806 131.744 59.684C131.741 59.6905 131.737 59.6964 131.732 59.7013C131.722 59.7107 131.708 59.7159 131.694 59.7159H127.944V39Z" fill="#7D7D7D"/>
<path d="M123.485 39.312C122.218 39.312 121.157 40.362 121.157 41.5824C121.157 42.8027 122.218 43.8243 123.485 43.8243C124.782 43.8243 125.843 42.8029 125.843 41.5824C125.843 40.362 124.782 39.312 123.485 39.312Z" fill="#7D7D7D"/>
<path d="M125.348 45.526H121.599V59.7162H125.348C125.362 59.7162 125.376 59.7108 125.386 59.7013C125.395 59.6918 125.401 59.6788 125.401 59.6653V45.5771C125.401 45.5636 125.395 45.5507 125.386 45.5411C125.376 45.5315 125.362 45.5261 125.348 45.526Z" fill="#7D7D7D"/>
<path d="M116.622 45.3851V45.528H119.693C119.707 45.528 119.72 45.5334 119.73 45.543C119.74 45.5526 119.746 45.5656 119.746 45.5792V48.9952C119.746 49.0027 119.744 49.01 119.741 49.0167L119.738 49.0218C119.737 49.0238 119.735 49.0257 119.734 49.0276L119.73 49.0312C119.72 49.0407 119.707 49.046 119.693 49.046H116.622V59.7159H112.82V49.046H110.698V45.5271H112.82V45.3843C112.82 41.4842 115.044 39.1869 119.695 39.4509C119.709 39.4517 119.722 39.4575 119.731 39.4671C119.74 39.4767 119.746 39.4894 119.746 39.5026V42.919C119.746 42.9225 119.745 42.926 119.745 42.9295C119.744 42.9328 119.743 42.936 119.741 42.9391C119.738 42.9455 119.734 42.9512 119.729 42.9559C119.723 42.9605 119.717 42.9641 119.71 42.9664L119.705 42.9677C119.703 42.9682 119.701 42.9686 119.699 42.9688L119.694 42.9692L119.689 42.969C117.749 42.8432 116.622 43.4739 116.622 45.3851Z" fill="#7D7D7D"/>
<path fill-rule="evenodd" clip-rule="evenodd" d="M53.7343 47.0617C53.7344 47.072 53.7312 47.0822 53.725 47.0906C53.7188 47.0991 53.7101 47.1055 53.7 47.109C53.6899 47.1124 53.6788 47.1128 53.6684 47.1099C53.6581 47.1071 53.649 47.1012 53.6423 47.0931C52.582 45.8795 51.0204 45.1294 48.9302 45.1294C45.0103 45.1294 41.7684 48.3931 41.7684 52.6218C41.7684 56.8506 45.0094 60.1143 48.9294 60.1143C51.0194 60.1143 52.5811 59.3641 53.6414 58.1505C53.6451 58.1461 53.6494 58.1423 53.6543 58.1393C53.6564 58.1381 53.6584 58.1371 53.6606 58.1361C53.6629 58.1352 53.6652 58.1343 53.6676 58.1337C53.6779 58.1309 53.6889 58.1312 53.699 58.1347L53.7022 58.1359L53.7057 58.1375C53.7087 58.1389 53.7115 58.1407 53.7141 58.1427C53.7179 58.1457 53.7213 58.1491 53.7241 58.153C53.7266 58.1564 53.7287 58.1601 53.7302 58.164C53.7324 58.1697 53.7335 58.1758 53.7334 58.1819V59.7159H57.4821C57.4962 59.7159 57.5097 59.7105 57.5196 59.701C57.5296 59.6915 57.5351 59.6785 57.5352 59.665V45.5768C57.5352 45.5731 57.5348 45.5694 57.5339 45.5658C57.5335 45.5636 57.5327 45.5615 57.5319 45.5594L57.5314 45.5581C57.5288 45.5517 57.5248 45.5458 57.5196 45.5409C57.5097 45.5314 57.4962 45.526 57.4821 45.526H53.7343V47.0617ZM49.6366 56.6234C47.3095 56.6224 45.5718 55.0049 45.5718 52.6227C45.5718 50.2397 47.3108 48.622 49.639 48.622C51.9967 48.622 53.7343 50.2397 53.7343 52.6227C53.7343 55.0057 51.9943 56.6234 49.6366 56.6234Z" fill="#7D7D7D"/>
<path d="M37.9651 48.6003C37.9651 50.4523 36.4058 51.9537 34.4825 51.9537C32.5592 51.9537 31 50.4523 31 48.6003C31 46.7482 32.5592 45.2468 34.4825 45.2468C36.4058 45.2468 37.9651 46.7482 37.9651 48.6003Z" fill="#7D7D7D"/>
<path d="M37.7004 58.0439C37.8753 57.6371 37.9654 57.201 37.9654 56.7606C37.9654 54.9085 34.4828 53.4071 34.4828 53.4071C34.4828 53.4071 31 54.9085 31 56.7606C31 57.65 31.3669 58.5031 32.0201 59.132C32.6733 59.7609 33.5591 60.1143 34.4828 60.1143C34.9402 60.1143 35.393 60.0275 35.8156 59.859C36.2381 59.6904 36.6221 59.4434 36.9454 59.132C37.2689 58.8206 37.5254 58.4508 37.7004 58.0439Z" fill="#7D7D7D"/>
<path d="M84.2166 56.7085C86.0734 56.7085 87.4586 55.6586 87.4586 53.1893V45.526H91.2074C91.2214 45.526 91.2349 45.5313 91.2449 45.5409C91.2506 45.5463 91.2548 45.5529 91.2575 45.5601C91.2587 45.5632 91.2596 45.5664 91.26 45.5697C91.2603 45.5721 91.2606 45.5744 91.2606 45.5768V59.665C91.2604 59.6785 91.2548 59.6915 91.2449 59.701C91.2412 59.7046 91.237 59.7076 91.2324 59.7099C91.2283 59.712 91.2239 59.7136 91.2195 59.7146C91.2176 59.715 91.2157 59.7153 91.2137 59.7156L91.2114 59.7158L91.2074 59.7159H87.4586V58.2871C87.4588 58.2763 87.4553 58.2658 87.4488 58.2571C87.4422 58.2484 87.4329 58.242 87.4222 58.2388C87.4116 58.2356 87.4001 58.2357 87.3895 58.2393C87.379 58.2429 87.37 58.2496 87.3637 58.2585C86.4675 59.4533 84.973 60.1142 83.0671 60.1142C79.9431 60.1142 77.4969 58.0142 77.4969 54.2395V45.5269H81.2988V53.7854C81.2988 55.7152 82.5071 56.7085 84.2166 56.7085Z" fill="#7D7D7D"/>
<path fill-rule="evenodd" clip-rule="evenodd" d="M105.01 47.0771C105.009 47.0819 105.006 47.0864 105.003 47.0906C104.997 47.0991 104.989 47.1055 104.978 47.109C104.968 47.1124 104.957 47.1128 104.947 47.1099C104.945 47.1093 104.943 47.1086 104.94 47.1077C104.937 47.1063 104.934 47.1046 104.931 47.1025C104.927 47.0999 104.924 47.0967 104.921 47.0931C103.86 45.8795 102.299 45.1294 100.209 45.1294C96.2887 45.1294 93.0469 48.3931 93.0469 52.6218C93.0469 56.8506 96.2887 60.1143 100.208 60.1143C102.298 60.1143 103.86 59.3641 104.92 58.1505C104.924 58.1458 104.928 58.1419 104.934 58.1389C104.937 58.1366 104.942 58.1349 104.946 58.1337C104.956 58.1309 104.967 58.1312 104.977 58.1347C104.988 58.1381 104.996 58.1445 105.003 58.153C105.009 58.1615 105.012 58.1716 105.012 58.1819V59.7159H108.762C108.776 59.7159 108.789 59.7105 108.799 59.701C108.804 59.6963 108.808 59.6907 108.81 59.6845C108.812 59.6815 108.813 59.6783 108.813 59.675C108.814 59.6718 108.815 59.6684 108.815 59.665V45.5768C108.815 45.5633 108.809 45.5504 108.799 45.5409C108.789 45.5314 108.776 45.526 108.762 45.526H105.013V47.0617C105.013 47.0669 105.012 47.0721 105.01 47.0771ZM100.916 56.6234C98.5881 56.6227 96.8517 55.0052 96.8517 52.6227C96.8517 50.2397 98.5904 48.622 100.919 48.622C103.277 48.622 105.014 50.2397 105.014 52.6227C105.014 55.0057 103.274 56.6234 100.916 56.6234Z" fill="#7D7D7D"/>
<path fill-rule="evenodd" clip-rule="evenodd" d="M59.6417 52.911C59.5085 48.7303 62.9628 45.2951 67.2627 45.2465C71.488 45.1991 75.0219 48.5191 75.0717 52.5875C75.0947 54.2186 74.557 55.8111 73.5426 57.1175C73.5352 57.1269 73.5315 57.1385 73.5321 57.1503C73.5329 57.1621 73.5379 57.1732 73.5464 57.1818L74.9515 58.6183C74.9565 58.6233 74.9603 58.6291 74.9628 58.6355L74.9645 58.6402C74.965 58.6423 74.9654 58.6444 74.9657 58.6466C74.9661 58.6496 74.9662 58.6526 74.9661 58.6557C74.9659 58.6601 74.9651 58.6644 74.9638 58.6686C74.963 58.6709 74.9621 58.6732 74.961 58.6754L74.9596 58.6781C74.958 58.6807 74.9563 58.6832 74.9545 58.6855L74.9519 58.6884L74.9483 58.6917L72.2606 60.987C72.2502 60.9959 72.2368 61.0005 72.2228 61C72.209 60.9993 72.196 60.9936 72.1867 60.9838L70.6654 59.4287C70.6622 59.4254 70.6585 59.4225 70.6545 59.4202C70.6492 59.4172 70.6436 59.415 70.6376 59.4139C70.627 59.4119 70.6159 59.4132 70.6061 59.4176C69.4089 59.9536 68.0886 60.1844 66.7721 60.0877C62.8721 59.8105 59.7605 56.6751 59.6417 52.911ZM65.8357 56.2109C66.3176 56.4031 66.8342 56.502 67.3559 56.5019C68.4091 56.5017 69.4192 56.0986 70.1639 55.3814C70.9086 54.6641 71.3269 53.6915 71.3269 52.6773C71.3269 51.6631 70.9086 50.6904 70.1639 49.9732C69.4192 49.256 68.4091 48.853 67.3559 48.8529C66.8343 48.8528 66.3177 48.9517 65.8357 49.1438C65.3538 49.336 64.9159 49.6176 64.5471 49.9728C64.1781 50.3279 63.8855 50.7495 63.6859 51.2136C63.4862 51.6776 63.3834 52.175 63.3834 52.6773C63.3834 53.1796 63.4861 53.677 63.6858 54.141C63.8854 54.6051 64.178 55.0267 64.547 55.3819C64.9158 55.737 65.3537 56.0188 65.8357 56.2109Z" fill="#7D7D7D"/>
<path d="M139.448 49.061C139.458 49.0514 139.471 49.046 139.486 49.046H142.71C142.724 49.046 142.737 49.0407 142.747 49.0311C142.757 49.0216 142.763 49.0087 142.763 48.9952V45.5783C142.763 45.5648 142.757 45.5518 142.747 45.5422C142.744 45.5386 142.739 45.5356 142.735 45.5333C142.727 45.5293 142.719 45.5272 142.71 45.5271H139.486C139.471 45.5271 139.458 45.5217 139.448 45.5122C139.438 45.5026 139.432 45.4896 139.432 45.476V41.5539L135.631 42.6606V45.5271H133.066V49.046H135.631V54.9496C135.631 58.7686 137.418 60.2754 142.714 59.7219C142.727 59.7205 142.74 59.7146 142.749 59.7051C142.751 59.7025 142.753 59.6996 142.755 59.6966C142.758 59.692 142.76 59.6871 142.761 59.6819C142.762 59.6783 142.763 59.6745 142.763 59.6708V56.4502C142.763 56.4432 142.761 56.4364 142.758 56.43C142.755 56.4236 142.751 56.4179 142.746 56.4131C142.74 56.4084 142.734 56.4047 142.727 56.4023C142.72 56.4 142.713 56.399 142.706 56.3993C140.562 56.5094 139.432 56.4682 139.432 54.9491V49.0972C139.432 49.0942 139.433 49.0913 139.433 49.0884C139.434 49.0848 139.435 49.0813 139.436 49.078C139.438 49.0751 139.439 49.0724 139.441 49.0698C139.443 49.0666 139.445 49.0637 139.448 49.061Z" fill="#7D7D7D"/>
<path fill-rule="evenodd" clip-rule="evenodd" d="M151.856 56.7937C153.31 56.7937 154.476 56.2142 155.13 55.4089C155.137 55.3994 155.148 55.393 155.16 55.3906C155.173 55.3883 155.185 55.3903 155.196 55.3963L158.171 57.0492C158.178 57.0528 158.183 57.0577 158.188 57.0636C158.192 57.0694 158.195 57.0761 158.197 57.0831C158.198 57.0902 158.198 57.0975 158.197 57.1046C158.195 57.1116 158.193 57.1184 158.188 57.1243C156.801 59.0252 154.605 60.114 151.797 60.114C146.846 60.114 143.722 56.8506 143.722 52.6221C143.722 48.3936 146.876 45.1299 151.503 45.1299C155.865 45.1299 158.959 48.4502 158.959 52.6221C158.956 53.1267 158.907 53.63 158.811 54.1261H147.7C148.231 55.999 149.852 56.7937 151.856 56.7937ZM155.157 51.2881C154.686 49.2449 153.094 48.4219 151.503 48.4219C149.469 48.4219 148.084 49.4718 147.642 51.2881H155.157Z" fill="#7D7D7D"/>
<path d="M169 49.2738V45.2957C169 45.2819 168.994 45.2686 168.984 45.2588C168.974 45.249 168.96 45.2435 168.946 45.2434C167.107 45.2588 165.279 46.0567 164.52 47.9676V45.5272H160.718V59.7159H164.521V52.9342C164.521 49.9834 166.977 49.1198 168.943 49.3238C168.95 49.3246 168.957 49.324 168.964 49.3218C168.971 49.3196 168.977 49.3161 168.983 49.3113C168.988 49.3066 168.993 49.3008 168.996 49.2944C168.999 49.2879 169 49.2809 169 49.2738Z" fill="#7D7D7D"/>
</g>
</svg>
