<svg width="200" height="100" viewBox="0 0 200 100" fill="none" xmlns="http://www.w3.org/2000/svg">
<mask id="mask0_1429_208" style="mask-type:alpha" maskUnits="userSpaceOnUse" x="0" y="0" width="200" height="100">
<rect width="200" height="100" fill="#222222"/>
</mask>
<g mask="url(#mask0_1429_208)">
<path d="M57.0193 28.0033C57.0221 28.0267 57.0249 28.05 57.0277 28.0731C57.0428 28.1978 57.0573 28.3181 57.0573 28.4385C57.0646 28.5698 57.0719 28.7096 57.0749 29.1162C55.7233 29.6326 54.4621 30.3507 53.3365 31.245C47.7823 35.7095 43.2589 40.445 42.0893 43.0304C41.7384 43.8037 41.6639 44.4386 41.7618 44.7425C41.5929 44.5954 41.4148 44.4423 41.2332 44.2864C40.577 43.7228 39.8764 43.1209 39.408 42.618C38.6653 41.8333 38.0089 40.9644 37.598 40.0098C37.1752 39.0843 37.0726 38.0496 37.3056 37.0621C37.4285 36.5793 37.6257 36.1174 37.8904 35.6923C38.0181 35.4744 38.1592 35.2643 38.3129 35.0631C38.3474 35.0137 38.3844 34.966 38.4241 34.9205C38.4378 34.9043 38.451 34.8882 38.4644 34.8725C38.4687 34.8674 38.473 34.8623 38.4773 34.8573C38.481 34.8531 38.4847 34.849 38.4884 34.8448L38.5557 34.7649L38.5907 34.7235C41.0956 31.7886 44.2041 28.9692 46.5204 27.0062C47.5901 26.234 48.7379 25.5708 49.9461 25.027C51.1406 24.4977 52.452 24.1438 53.6859 24.3022C54.2877 24.3796 54.8595 24.6044 55.3482 24.9557C55.8232 25.3185 56.2092 25.7801 56.4783 26.3069C56.7543 26.839 56.9372 27.4124 57.0193 28.0033Z" fill="#949494"/>
<path d="M47.2372 26.4047C47.0086 26.5947 46.7691 26.7956 46.5204 27.0062L46.5089 27.0146C46.7466 26.8053 46.9895 26.602 47.2372 26.4047Z" fill="#949494"/>
<path d="M47.2372 26.4047C47.6796 26.037 48.0814 25.7097 48.43 25.4294C52.4286 22.2162 58.8336 19.7964 62.8308 21.6369C63.7828 22.0589 64.5882 22.7424 65.1485 23.604C65.7088 24.4655 65.9998 25.4677 65.9858 26.4881V37.3346H58.2634V29.1662C58.2722 29.0706 58.2722 28.975 58.2722 28.8808C58.2689 28.7034 58.2562 28.5262 58.2342 28.35C58.2152 28.1674 58.1816 27.9891 58.1465 27.8121C57.9972 27.1118 57.7283 26.4409 57.3512 25.8274C56.9722 25.2036 56.4552 24.6703 55.838 24.2665C55.2133 23.8759 54.4955 23.6498 53.7546 23.6102C52.2956 23.5517 50.9579 24.0568 49.7751 24.6931C48.8834 25.1972 48.0348 25.7696 47.2372 26.4047Z" fill="#949494"/>
<path d="M42.2619 45.202C41.9212 45.1064 40.0118 43.564 39.1916 42.8263C38.3714 42.0887 37.5981 41.2569 37.0542 40.2581C36.6025 39.4443 36.3677 38.5327 36.3714 37.6071C35.8572 38.3617 35.4054 39.1552 35.0205 39.9799C33.5585 43.2002 33.6726 46.4718 35.329 48.9573C37.2998 51.9108 40.9797 53.4075 46.2707 53.4075H52.0865V45.8754H46.2707C44.123 45.8754 42.8817 45.5287 42.2619 45.202Z" fill="#949494"/>
<path d="M76.8178 41.5066H73.4464V44.5014H76.8178V41.5066Z" fill="#949494"/>
<path fill-rule="evenodd" clip-rule="evenodd" d="M164.531 45.3468C164.531 45.3394 164.532 45.332 164.532 45.3247V45.0664C164.543 44.9456 164.525 44.8241 164.479 44.7112C164.434 44.5984 164.362 44.4973 164.27 44.4158C164.145 44.3292 164.001 44.2716 163.849 44.2474C164.036 44.2332 164.215 44.1658 164.363 44.0534C164.437 43.9876 164.495 43.9057 164.531 43.8143C164.567 43.7229 164.581 43.6245 164.572 43.5269C164.581 43.3865 164.549 43.2465 164.478 43.1238C164.408 43.001 164.303 42.9007 164.175 42.8349C163.994 42.745 163.794 42.6939 163.591 42.6851H162.152V45.5744H162.93V44.5485H163.094L163.263 44.5585C163.354 44.5602 163.444 44.5761 163.529 44.6056C163.579 44.6231 163.625 44.6513 163.663 44.688C163.7 44.7248 163.729 44.7692 163.747 44.8181C163.78 44.9338 163.797 45.0533 163.797 45.1734C163.8 45.3083 163.816 45.4425 163.845 45.5744H164.586L164.56 45.4916C164.548 45.4655 164.539 45.4382 164.532 45.4103C164.531 45.4008 164.531 45.3913 164.531 45.3818C164.531 45.3751 164.531 45.3683 164.531 45.3615C164.531 45.3566 164.531 45.3517 164.531 45.3468ZM163.655 43.9235C163.528 44.0016 163.379 44.039 163.23 44.0306H162.928V43.1888H163.117C163.27 43.1824 163.422 43.2032 163.567 43.2501C163.639 43.2713 163.702 43.3151 163.745 43.3748C163.788 43.4345 163.81 43.5066 163.807 43.5797C163.812 43.6452 163.801 43.7109 163.773 43.771C163.746 43.831 163.704 43.8834 163.651 43.9235H163.655Z" fill="#949494"/>
<path fill-rule="evenodd" clip-rule="evenodd" d="M165.213 42.2742C164.968 42.027 164.674 41.8315 164.348 41.6998C164.022 41.568 163.673 41.5027 163.32 41.508C162.634 41.502 161.972 41.7581 161.477 42.2214C161.205 42.4619 160.991 42.7564 160.846 43.0851C160.702 43.4137 160.632 43.7687 160.64 44.1262C160.64 44.5565 160.748 44.9803 160.956 45.36C161.163 45.7397 161.463 46.0636 161.83 46.3029C162.196 46.5422 162.618 46.6896 163.056 46.732C163.495 46.7744 163.938 46.7104 164.345 46.5458C164.753 46.3812 165.112 46.121 165.392 45.7883C165.672 45.4557 165.863 45.0608 165.949 44.6387C166.035 44.2166 166.012 43.7804 165.884 43.3687C165.756 42.957 165.525 42.5825 165.213 42.2785V42.2742ZM164.879 45.6614C164.675 45.8631 164.432 46.0232 164.164 46.1325C163.896 46.2418 163.608 46.2981 163.318 46.2981C163.028 46.2981 162.74 46.2418 162.472 46.1325C162.204 46.0232 161.961 45.8631 161.757 45.6614C161.342 45.2566 161.108 44.7078 161.105 44.1349C161.103 43.5621 161.333 43.0116 161.746 42.6038C161.948 42.3972 162.192 42.2328 162.461 42.1205C162.731 42.0082 163.021 41.9503 163.314 41.9503C163.607 41.9503 163.898 42.0082 164.167 42.1205C164.437 42.2328 164.68 42.3972 164.883 42.6038C165.089 42.8009 165.252 43.0366 165.363 43.2967C165.473 43.5568 165.529 43.836 165.526 44.1176C165.531 44.4043 165.476 44.689 165.365 44.9544C165.253 45.2197 165.088 45.4603 164.879 45.6614Z" fill="#949494"/>
<path fill-rule="evenodd" clip-rule="evenodd" d="M68.4672 57.4111C67.9227 57.7838 67.3038 58.0404 66.651 58.1644C65.8516 58.3208 65.0379 58.3968 64.2226 58.3913H56.474V41.605H64.7884C66.882 41.6345 68.3674 42.2299 69.2446 43.3914C69.7834 44.1426 70.0602 45.043 70.0341 45.9596C70.0331 46.9841 69.7675 47.8073 69.2373 48.4294C68.8688 48.8313 68.4214 49.1569 67.9215 49.3868C68.7345 49.6489 69.4337 50.17 69.9069 50.8664C70.3542 51.5427 70.578 52.3621 70.578 53.3247C70.5918 54.2703 70.3258 55.1997 69.8118 56.0014C69.4699 56.5582 69.0118 57.0384 68.4672 57.4111ZM63.6437 44.5257H59.9038V48.2254H64.0823C64.8289 48.2235 65.4351 48.0846 65.901 47.8087C66.3669 47.5329 66.5998 47.0416 66.5998 46.3349C66.5989 45.5539 66.2909 45.0379 65.6758 44.7868C65.0169 44.5953 64.3309 44.5072 63.6437 44.5257ZM59.9038 51.0033V55.4778L64.0779 55.4792C64.8235 55.4802 65.4039 55.3812 65.8191 55.1824C66.5726 54.8181 66.9492 54.12 66.9492 53.0879C66.9483 52.2147 66.5833 51.615 65.8542 51.2887C65.4458 51.1051 64.8732 51.01 64.1364 51.0033H59.9038Z" fill="#949494"/>
<path d="M73.4464 45.981H76.8178V58.3899H73.4464V45.981Z" fill="#949494"/>
<path fill-rule="evenodd" clip-rule="evenodd" d="M85.7579 45.5844C83.5727 45.5844 81.9436 46.2402 80.8705 47.5519C79.7973 48.8636 79.2613 50.4141 79.2623 52.2033C79.2623 54.0239 79.7983 55.5805 80.8705 56.8732C81.9426 58.1659 83.5717 58.8127 85.7579 58.8136C87.9432 58.8136 89.5723 58.1668 90.6454 56.8732C91.7185 55.5796 92.2546 54.0229 92.2536 52.2033C92.2536 50.4141 91.7175 48.8636 90.6454 47.5519C89.5733 46.2402 87.9441 45.5844 85.7579 45.5844ZM87.986 55.0797C87.4646 55.7551 86.718 56.0927 85.7462 56.0927C84.7745 56.0927 84.0259 55.7551 83.5006 55.0797C82.9753 54.4063 82.7126 53.4474 82.7126 52.2033C82.7126 50.9591 82.9753 50.0027 83.5006 49.334C84.0259 48.6634 84.7745 48.3276 85.7462 48.3267C86.718 48.3257 87.4646 48.6615 87.986 49.334C88.5065 49.9998 88.7668 50.9563 88.7668 52.2033C88.7668 53.4503 88.5055 54.4091 87.9831 55.0797H87.986Z" fill="#949494"/>
<path d="M98.0402 50.0231C98.3668 50.1981 99.5237 50.4982 101.511 50.9234C102.836 51.2259 103.827 51.6858 104.486 52.3032C104.806 52.605 105.058 52.9682 105.227 53.37C105.395 53.7718 105.477 54.2033 105.466 54.6374C105.481 55.211 105.362 55.7806 105.118 56.3025C104.874 56.8245 104.511 57.2852 104.056 57.6494C103.118 58.4275 101.666 58.8165 99.7025 58.8165C97.6996 58.8155 96.221 58.4037 95.2668 57.5809C94.8036 57.1926 94.4347 56.7086 94.1869 56.164C93.9391 55.6193 93.8186 55.0277 93.834 54.4319H97.2054C97.2766 55.0093 97.4291 55.4193 97.663 55.6618C98.0773 56.0946 98.8429 56.311 99.9598 56.311C100.618 56.311 101.138 56.2154 101.526 56.0257C101.7 55.9574 101.85 55.839 101.954 55.6862C102.059 55.5333 102.113 55.3532 102.11 55.1696C102.117 55.0028 102.077 54.8374 101.994 54.6911C101.912 54.5448 101.79 54.4232 101.643 54.3392C101.331 54.1499 100.171 53.8232 98.1645 53.359C96.7191 53.0023 95.701 52.5661 95.1104 52.0506C94.5197 51.5351 94.2244 50.7912 94.2244 49.8191C94.2234 48.6729 94.6849 47.6879 95.6089 46.8642C96.5329 46.0405 97.8326 45.6286 99.5081 45.6286C101.098 45.6333 102.394 45.943 103.396 46.5574C104.397 47.1719 104.972 48.2401 105.119 49.762H101.795C101.771 49.4053 101.646 49.0621 101.432 48.7718C101.062 48.3314 100.438 48.1112 99.5607 48.1112C98.8356 48.1103 98.319 48.2201 98.011 48.4408C97.703 48.6615 97.549 48.9197 97.549 49.2156C97.54 49.3825 97.5819 49.5482 97.6693 49.692C97.7567 49.8357 97.8858 49.9509 98.0402 50.0231Z" fill="#949494"/>
<path fill-rule="evenodd" clip-rule="evenodd" d="M118.403 48.0698C117.866 47.2668 117.105 46.6298 116.21 46.2335C115.267 45.8343 114.248 45.6358 113.22 45.6514C111.357 45.6514 109.841 46.225 108.672 47.3721C107.503 48.5193 106.918 50.1677 106.918 52.3174C106.918 54.6117 107.564 56.2677 108.858 57.2855C110.12 58.2934 111.706 58.8345 113.337 58.8136C115.384 58.8136 116.979 58.2101 118.121 57.003C118.854 56.2421 119.265 55.4944 119.353 54.7601H115.96C115.793 55.0875 115.559 55.3786 115.274 55.6162C114.802 55.9967 114.187 56.1869 113.429 56.1869C112.785 56.2053 112.149 56.0434 111.596 55.7203C110.762 55.22 110.318 54.3473 110.265 53.1022H119.53C119.559 52.2797 119.522 51.4564 119.421 50.6395C119.287 49.7185 118.938 48.8395 118.403 48.0698ZM110.346 50.9577C110.468 50.1492 110.763 49.5085 111.232 49.0358C111.701 48.563 112.363 48.3252 113.217 48.3224C113.937 48.3003 114.639 48.5393 115.188 48.993C115.718 49.4381 116.014 50.0916 116.074 50.9534L110.346 50.9577Z" fill="#949494"/>
<path d="M128.244 45.6857C129.556 45.6866 130.628 46.0224 131.46 46.693C132.293 47.3655 132.708 48.4793 132.707 50.0345V58.3913H129.301V50.8435C129.302 50.1901 129.213 49.6892 129.035 49.3411C128.71 48.7029 128.093 48.3837 127.182 48.3837C126.062 48.3828 125.294 48.8498 124.878 49.7848C124.642 50.3871 124.532 51.0294 124.554 51.6739V58.3885H121.229V46.0024H124.446V47.8159C124.871 47.1767 125.274 46.7229 125.653 46.4376C126.334 45.9363 127.198 45.6857 128.244 45.6857Z" fill="#949494"/>
<path d="M142.68 50.9234C140.697 50.4963 139.54 50.1962 139.209 50.0231C139.054 49.9509 138.925 49.8357 138.838 49.692C138.75 49.5482 138.709 49.3825 138.718 49.2156C138.718 48.9197 138.872 48.6615 139.18 48.4408C139.488 48.2201 140.004 48.1103 140.729 48.1112C141.606 48.1112 142.23 48.3314 142.601 48.7718C142.814 49.0624 142.939 49.4054 142.963 49.762H146.285C146.138 48.2401 145.563 47.1719 144.561 46.5574C143.559 45.943 142.263 45.6333 140.674 45.6286C138.998 45.6286 137.699 46.0405 136.775 46.8642C135.851 47.6879 135.389 48.6729 135.39 49.8191C135.39 50.7912 135.685 51.5351 136.276 52.0506C136.867 52.5661 137.885 53.0023 139.33 53.359C141.338 53.8232 142.497 54.1499 142.808 54.3392C142.956 54.4233 143.077 54.5449 143.16 54.6912C143.242 54.8375 143.281 55.0029 143.275 55.1696C143.277 55.3532 143.222 55.5332 143.118 55.686C143.014 55.8388 142.864 55.9572 142.69 56.0257C142.3 56.2159 141.779 56.311 141.125 56.311C140.008 56.311 139.241 56.0946 138.827 55.6618C138.593 55.4193 138.44 55.0098 138.37 54.4319H134.998C134.983 55.0277 135.103 55.6193 135.351 56.164C135.599 56.7086 135.968 57.1926 136.431 57.5809C137.386 58.4037 138.865 58.8155 140.867 58.8165C142.83 58.8165 144.281 58.4275 145.221 57.6494C145.675 57.285 146.038 56.8243 146.282 56.3024C146.526 55.7804 146.645 55.211 146.63 54.6374C146.641 54.2032 146.56 53.7714 146.391 53.3695C146.222 52.9676 145.97 52.6045 145.649 52.3032C144.994 51.6858 144.004 51.2259 142.68 50.9234Z" fill="#949494"/>
<path fill-rule="evenodd" clip-rule="evenodd" d="M157.379 46.2335C158.273 46.6302 159.034 47.2671 159.572 48.0698C160.106 48.8397 160.453 49.7187 160.586 50.6395C160.688 51.4564 160.725 52.2797 160.696 53.1022H151.434C151.487 54.3473 151.93 55.22 152.763 55.7203C153.317 56.0432 153.953 56.2051 154.598 56.1869C155.354 56.1869 155.969 55.9967 156.443 55.6162C156.728 55.3788 156.961 55.0876 157.127 54.7601H160.522C160.432 55.4944 160.021 56.2421 159.289 57.003C158.147 58.2101 156.553 58.8136 154.506 58.8136C152.875 58.8348 151.289 58.2936 150.026 57.2855C148.733 56.2677 148.086 54.6117 148.086 52.3174C148.087 50.1677 148.672 48.5193 149.84 47.3721C151.009 46.225 152.525 45.6514 154.387 45.6514C155.415 45.6359 156.435 45.8343 157.379 46.2335ZM152.4 49.0358C151.931 49.5085 151.635 50.1492 151.514 50.9577L157.243 50.9534C157.183 50.0916 156.888 49.4381 156.357 48.993C155.807 48.5392 155.104 48.3003 154.384 48.3224C153.532 48.3252 152.87 48.563 152.4 49.0358Z" fill="#949494"/>
<path d="M71.056 76.3205C70.3876 76.3625 69.718 76.2592 69.0955 76.018C68.4663 75.7599 67.9062 75.3645 67.458 74.8623C67.0149 74.366 66.6637 73.7982 66.42 73.1844C66.1648 72.5726 66.0166 71.9235 65.9814 71.2639V62.666H58.2591V73.5097C58.2453 74.5298 58.5362 75.5317 59.0962 76.3932C59.6562 77.2547 60.4611 77.9384 61.4126 78.3608C62.4235 78.8021 63.5218 79.0199 64.6291 78.9986C68.3381 78.9986 72.7724 77.011 75.8148 74.5669C76.2077 74.2507 76.789 73.7741 77.4955 73.1776C76.614 73.9179 75.6653 74.5788 74.6613 75.1519C73.5663 75.7469 72.3718 76.2506 71.056 76.3205Z" fill="#949494"/>
<path d="M79.0162 61.2386C79.053 61.198 79.0895 61.1578 79.1263 61.1179C80.5999 62.1894 82.7316 63.0798 85.7491 63.094C86.317 63.095 86.8845 63.0611 87.448 62.9927C87.3413 63.144 87.2331 63.2938 87.119 63.445C87.005 63.5963 86.8895 63.7475 86.7711 63.9016L86.4304 64.3296C86.392 64.3767 86.354 64.4234 86.3162 64.47C86.2175 64.5916 86.1194 64.7124 86.0138 64.8362C85.9539 64.9064 85.8944 64.9763 85.8333 65.0483C85.7765 65.1153 85.7183 65.1842 85.657 65.2571C85.5299 65.4083 85.3968 65.5581 85.2652 65.7093C85.1812 65.8059 85.096 65.9008 85.0103 65.9961C84.9619 66.0501 84.9132 66.1041 84.8646 66.1588C84.5956 66.4556 84.3222 66.7495 84.0445 67.0434C83.7657 67.3383 83.4855 67.6284 83.2038 67.9138C82.7374 68.3932 82.2608 68.8612 81.7944 69.3092C81.709 69.3898 81.6259 69.4699 81.5436 69.5491C81.495 69.596 81.4466 69.6425 81.3982 69.6887C81.3298 69.7517 81.2632 69.8154 81.1978 69.878C81.164 69.9104 81.1304 69.9425 81.097 69.9741L81.0327 70.0354C81.0154 70.0496 80.9999 70.0655 80.9839 70.0802C80.9742 70.0892 80.9643 70.0978 80.9538 70.1053C80.6599 70.3835 80.3704 70.6504 80.0897 70.9058C79.809 71.1612 79.5356 71.408 79.2652 71.6477C79.2623 71.6562 79.2535 71.6562 79.2535 71.6562L78.4654 72.3482C78.3256 72.469 78.188 72.5868 78.0543 72.701C77.9448 72.7946 77.8378 72.8859 77.7344 72.9746L77.6906 73.0117L77.6745 73.0231C76.6866 73.7486 75.6296 74.3798 74.518 74.9079C73.4142 75.4159 72.2227 75.7997 71.0443 75.774C70.4687 75.7695 69.9013 75.6399 69.3835 75.3945C68.8803 75.142 68.4436 74.7797 68.1071 74.3358C67.458 73.4968 67.0998 71.9516 67.0998 70.8958C68.1017 70.5174 69.057 70.0307 69.9478 69.4447C70.1613 69.3006 70.3718 69.1508 70.5808 68.9924C70.6919 68.9111 70.7987 68.8255 70.9054 68.7399C71.3659 68.3689 71.8411 67.9794 72.325 67.5728C72.4478 67.4715 72.5706 67.3673 72.6935 67.2589C73.7943 66.3243 74.9362 65.307 76.0341 64.2626C76.2856 64.03 76.5268 63.7989 76.7651 63.562C77.3748 62.9742 77.9567 62.3792 78.5078 61.7871C78.5615 61.731 78.6105 61.6776 78.6607 61.6229C78.7075 61.5718 78.7554 61.5197 78.809 61.4632C78.8808 61.3876 78.9489 61.3126 79.0162 61.2386Z" fill="#949494"/>
</g>
</svg>
