<svg width="200" height="100" viewBox="0 0 200 100" fill="none" xmlns="http://www.w3.org/2000/svg">
<mask id="mask0_2935_247" style="mask-type:alpha" maskUnits="userSpaceOnUse" x="0" y="0" width="200" height="100">
<rect width="200" height="100" fill="#222222"/>
</mask>
<g mask="url(#mask0_2935_247)">
<path fill-rule="evenodd" clip-rule="evenodd" d="M88.06 59.7085L88.5339 59.1592C91.31 61.6618 95.856 62.9131 102.172 62.9131L102.171 57.0946C99.97 57.0946 98.3812 57.0082 97.4046 56.8353C95.7388 56.547 94.4751 55.9217 93.6135 54.9593C92.5799 53.8058 92.0631 52.0938 92.0631 49.8233C92.0627 47.5916 92.5606 45.918 93.5565 44.8024C94.3991 43.8598 95.6626 43.2346 97.3471 42.9269C98.3044 42.7537 99.9126 42.6672 102.172 42.6672V36.7895C95.9882 36.7895 91.4699 38.061 88.6172 40.604C88.4621 40.7427 88.312 40.885 88.1669 41.0311L87.923 40.7707L87.5757 40.4254L87.213 40.093L86.8361 39.7703L86.4438 39.4572L86.0378 39.1577L85.6177 38.8688L85.1837 38.5929L85.1262 38.559L91.1197 32.6383L91.1482 32.6104L89.624 31.0791L81.5 39.1044L83.2773 39.9978L83.6772 40.2156L84.0607 40.4426L84.4327 40.6787L84.7909 40.9245L85.1356 41.1795L85.4642 41.4425L85.782 41.7146L86.0872 41.9954L86.3786 42.2842L86.6569 42.5806L86.7989 42.7442C85.5983 44.6386 84.9981 46.9785 84.9981 49.7642C84.9981 52.9431 85.6915 55.5262 87.0786 57.5136L86.8722 57.7771L86.4674 58.2466L86.0356 58.6979L85.5799 59.133L85.1016 59.5456L84.5943 59.9398L84.0661 60.3104L83.5128 60.6605L82.9403 60.987L82.3454 61.2898L81.729 61.569L81.0946 61.8223L80.4372 62.0487L79.7617 62.2483L79.0682 62.4193L78.6397 62.5049V34.5531L88.0994 29.6586L88.1339 29.6403L87.1702 27.7041L78.6419 32.1182V29.1783L78.6469 29.0535L78.66 28.946L78.6814 28.8432L78.7104 28.748L78.7455 28.6604L78.7882 28.5797L78.837 28.5065L78.8918 28.4404L78.9526 28.3812L79.021 28.3274L79.0978 28.2801L79.1832 28.2392L79.2807 28.2048L79.3903 28.179L79.513 28.1618L80.2088 28.1311V27.007L79.4117 27.0425L79.1849 27.0742L78.9657 27.128L78.7586 27.2006L78.5652 27.2921L78.3855 27.3996L78.2212 27.5282L78.0727 27.6723L77.9418 27.8305L77.8322 27.9999L77.738 28.1784L77.6613 28.3656L77.6026 28.5598L77.561 28.7577L77.5364 28.9605L77.5282 29.1536V32.6948L72.3795 35.3599V29.1589L72.3751 28.9777L72.3609 28.7916L72.3368 28.6071L72.3006 28.4259L72.2524 28.2478L72.1899 28.0741L72.1122 27.9052L72.0174 27.7439L71.904 27.5911L71.7708 27.4507L71.6185 27.3259L71.4482 27.2184L71.263 27.1355L71.0658 27.0764L70.8592 27.0414L70.0884 27V28.1247L70.7371 28.1591L70.8121 28.1715L70.8729 28.1892L70.9244 28.2123L70.9682 28.2392L71.0088 28.272L71.0477 28.3124L71.0855 28.3661L71.1217 28.428L71.1556 28.5017L71.1863 28.5829L71.2132 28.6803L71.2345 28.7878L71.2499 28.9051L71.2597 29.0304V35.9402L65.7703 38.7849L65.1183 39.2007L64.5075 39.6186L63.9076 40.0575L63.2809 40.548L63.0031 40.8169L62.7577 41.067L62.5205 41.3214L62.2893 41.5818L62.0657 41.8469L61.8499 42.1159L61.6412 42.3907L61.4396 42.6709L61.2456 42.9549L61.0599 43.2437L60.8813 43.5369L60.7104 43.8343L60.546 44.1355L60.3905 44.4399L60.2436 44.7481L60.1034 45.0601L59.9724 45.3763L59.8486 45.6947L59.7336 46.0175L59.624 46.3402L59.5248 46.6677L59.4345 46.9974L59.3523 47.3298L59.2783 47.6644L59.2131 48.0016L59.1583 48.3405L59.1107 48.6815L59.0707 49.0241L59.04 49.3678L59.0175 49.7136L59.0044 50.0605L59 50.4155L59.0202 51.1593L59.08 51.9L59.1797 52.6314L59.3177 53.3516L59.4936 54.06L59.7056 54.7549L59.9544 55.4342L60.2376 56.0995L60.5581 56.7503L60.9098 57.3812L61.2933 57.9933L61.7085 58.585L62.155 59.1567L62.6311 59.7085L63.1362 60.2367L63.6693 60.7434L64.2303 61.2247L64.8176 61.6825L65.4301 62.1128L66.0678 62.5172L66.729 62.8937L67.4138 63.2423L68.1205 63.5649L68.8481 63.8543L69.597 64.112L70.364 64.3389L71.1518 64.5331L71.2613 64.5551V70.8825L71.2717 71.0863L71.3046 71.2982L71.3594 71.5031L71.4317 71.6989L71.5216 71.8861L71.6284 72.0614L71.7506 72.2228L71.8875 72.3739L72.0387 72.5122L72.2031 72.6343L72.3779 72.7418L72.5641 72.8327L72.7592 72.9037L72.9635 72.9575L73.1744 72.9898L73.3749 73H76.5344L76.7381 72.9892L76.9491 72.957L77.1529 72.9032L77.3479 72.8311L77.5336 72.7402L77.7084 72.6326L77.8727 72.51L78.0229 72.3718L78.1598 72.2201L78.282 72.0561L78.3883 71.8802L78.4781 71.6936L78.5499 71.4972L78.6047 71.2923L78.6365 71.0772L78.6469 70.8749V64.7079L78.7362 64.6939L79.5421 64.5326L80.3293 64.3384L81.0963 64.1114L81.8452 63.8538L82.5744 63.5644L83.2805 63.2417L83.961 62.898L84.6222 62.5215L85.2605 62.1171L85.873 61.6868L86.4597 61.2291L87.0191 60.7466L87.5521 60.2405L88.06 59.7085ZM77.5249 35.1334V62.6829L76.8839 62.7528L76.1218 62.8023L75.3444 62.8195L74.5676 62.8023L73.8056 62.7533L73.06 62.6716L72.3795 62.5672V37.7985L77.5249 35.1334ZM71.263 38.3772V62.3317L70.9261 62.2483L70.2506 62.0493L69.5931 61.8229L68.9576 61.5695L68.3413 61.2909L67.7469 60.9876L67.1733 60.6616L66.6222 60.3115L66.0935 59.9398L65.589 59.5466L65.1079 59.1336L64.6521 58.7033L64.2204 58.252L63.8156 57.7825L63.437 57.2984L63.0847 56.796L62.7598 56.2787L62.4641 55.7462L62.1962 55.2003L61.9578 54.6414L61.7485 54.0691L61.5705 53.4861L61.4226 52.8912L61.307 52.2867L61.2232 51.6719L61.1727 51.0475L61.1552 50.4069L61.1591 50.1224L61.17 49.8314L61.1887 49.5415L61.2144 49.2521L61.2472 48.9649L61.2878 48.6798L61.336 48.3953L61.3908 48.1129L61.4527 47.8322L61.5223 47.553L61.5979 47.2766L61.6806 47.0023L61.7705 46.7301L61.8669 46.4612L61.9704 46.1922L62.08 45.9282L62.1972 45.6673L62.321 45.4081L62.4509 45.1515L62.5878 44.8993L62.7314 44.6502L62.8815 44.4039L63.0376 44.1613L63.202 43.9225L63.3713 43.6875L63.5471 43.4556L63.7285 43.2287L63.9164 43.0055L64.1109 42.786L64.3114 42.5709L64.5179 42.3606L64.7025 42.1815L65.2038 41.791L65.7489 41.3919L66.3028 41.0154L66.8337 40.6766L71.263 38.3772ZM72.3795 70.8534V64.759L72.7811 64.8208L73.6204 64.9128L74.475 64.9666L75.3428 64.9849L76.2133 64.9666L77.068 64.9128L77.5238 64.8633V70.8518L77.5189 70.968L77.5035 71.0675L77.4789 71.1643L77.4449 71.2563L77.4032 71.3445L77.3528 71.4289L77.2943 71.5069L77.2285 71.5801L77.1573 71.6457L77.0795 71.7049L76.9956 71.7554L76.908 71.7984L76.8165 71.8323L76.7207 71.8581L76.6215 71.8737L76.5037 71.8796H73.4012L73.2856 71.8743L73.1859 71.8587L73.09 71.8339L72.9985 71.8001L72.9104 71.757L72.8271 71.707L72.7488 71.6484L72.6764 71.5833L72.6113 71.5102L72.5526 71.4321L72.5012 71.3483L72.4589 71.26L72.425 71.1681L72.3998 71.0718L72.3844 70.9723L72.3795 70.8534Z" fill="#949494"/>
<path d="M122.613 44.9202C122.613 42.4569 121.914 40.5998 120.517 39.3491C118.679 37.6936 115.453 36.8659 110.839 36.8659L103.602 36.7895V42.6672H110.838C112.102 42.6672 113.021 42.7826 113.596 43.0135C114.458 43.3599 114.888 44.0143 114.888 44.9767C114.888 45.824 114.486 46.3918 113.683 46.6801C113.204 46.8529 112.419 46.9393 111.327 46.9393H103.602V62.8442H110.779V52.7412C115.394 52.7412 118.629 51.9427 120.486 50.3456C121.903 49.1332 122.612 47.3244 122.612 44.9192L122.613 44.9202Z" fill="#949494"/>
<path d="M141 62.8442V57.0419H130.891V36.7432H123.714V62.8442H141Z" fill="#949494"/>
<path d="M86.3331 71.8802H86.7353V70.0192H85.2073V70.4882H86.1605C86.1591 70.6258 86.1352 70.7624 86.0899 70.8927C86.05 71.0084 85.9839 71.1138 85.8965 71.2008C85.8075 71.2869 85.7003 71.3526 85.5826 71.3934C85.4453 71.44 85.3004 71.461 85.1552 71.4553C84.9837 71.4592 84.8141 71.4201 84.6622 71.3418C84.526 71.2686 84.4095 71.1646 84.3225 71.0384C84.2334 70.9069 84.168 70.7614 84.1291 70.6082C84.0458 70.2842 84.0458 69.9451 84.1291 69.6212C84.1679 69.4679 84.2334 69.3224 84.3225 69.1909C84.4097 69.0649 84.5266 68.9614 84.6633 68.8892C84.8151 68.8106 84.9848 68.7715 85.1564 68.7757C85.2675 68.7749 85.3782 68.7897 85.4851 68.8198C85.5343 68.8337 85.5822 68.8517 85.6282 68.8735C85.6754 68.8958 85.7206 68.9221 85.7634 68.9521C85.847 69.011 85.9179 69.0856 85.9721 69.1715C86.0298 69.264 86.0671 69.3674 86.0816 69.4749H86.6942C86.675 69.2908 86.6168 69.1127 86.5232 68.9521C86.4363 68.8054 86.3202 68.6774 86.1819 68.5756C86.04 68.4734 85.8809 68.3965 85.7118 68.3486C85.5314 68.297 85.3443 68.2712 85.1564 68.2722C84.9082 68.2685 84.6623 68.319 84.4364 68.4201C84.2298 68.5145 84.0457 68.6507 83.8963 68.8198C83.7459 68.992 83.6305 69.191 83.5567 69.406C83.3986 69.869 83.3986 70.37 83.5567 70.833C83.6303 71.0482 83.7457 71.2474 83.8963 71.4198C84.0451 71.589 84.2291 71.7249 84.4359 71.8183C84.6625 71.918 84.9086 71.9676 85.1569 71.9635C85.3551 71.9675 85.5519 71.9308 85.7348 71.856C85.9291 71.7632 86.1005 71.6301 86.2372 71.466L86.3331 71.8802Z" fill="#949494"/>
<path fill-rule="evenodd" clip-rule="evenodd" d="M87.4415 68.3562H89.1557C89.5512 68.3562 89.8478 68.4401 90.0453 68.6079C90.243 68.7757 90.3418 69.0087 90.3418 69.3071C90.3465 69.4496 90.3209 69.5916 90.2667 69.7239C90.2245 69.8229 90.165 69.9139 90.0908 69.9928C90.0339 70.0525 89.9666 70.1017 89.892 70.1381C89.8733 70.1469 89.8544 70.1554 89.8353 70.1636C89.8069 70.1756 89.7781 70.1869 89.749 70.1972V70.2074C89.8087 70.2159 89.867 70.2323 89.9221 70.2564C89.9881 70.2863 90.0472 70.3292 90.0958 70.3822C90.1539 70.4485 90.199 70.5247 90.2289 70.6071C90.2678 70.7181 90.2863 70.835 90.2837 70.9524C90.2831 71.0251 90.2851 71.0979 90.2896 71.1704C90.297 71.2866 90.3109 71.4023 90.3314 71.5171C90.3631 71.6864 90.4126 71.8072 90.4798 71.8796H89.806C89.7589 71.8033 89.7306 71.7174 89.7232 71.6285C89.715 71.5365 89.7106 71.4472 89.7106 71.3595C89.7123 71.22 89.7023 71.0806 89.6805 70.9427C89.6656 70.8391 89.6283 70.7399 89.5709 70.6517C89.5176 70.5742 89.441 70.5148 89.3518 70.4818C89.2383 70.4421 89.1183 70.4238 88.9979 70.428H88.0698V71.8802H87.4415V68.3562ZM88.0698 69.9595H89.1009C89.3021 69.9595 89.4546 69.9127 89.5584 69.8191C89.6624 69.725 89.7139 69.5846 89.7139 69.3969C89.7175 69.3032 89.7005 69.2098 89.6641 69.1231C89.6339 69.057 89.5862 69 89.526 68.958C89.4652 68.918 89.3965 68.8911 89.3244 68.879C89.2473 68.8659 89.1693 68.8594 89.091 68.8596H88.0698V69.9595Z" fill="#949494"/>
<path fill-rule="evenodd" clip-rule="evenodd" d="M92.7632 68.3562H92.0949L90.7176 71.8802H91.3662L91.7026 70.9481H93.1347L93.4716 71.8802H94.1449L92.7632 68.3562ZM92.9714 70.4774H91.8757L92.4186 68.9628H92.4334L92.9714 70.4774Z" fill="#949494"/>
<path fill-rule="evenodd" clip-rule="evenodd" d="M94.512 70.315H94.175V69.8116H94.512V68.3562H95.9994C96.2442 68.3506 96.4873 68.3978 96.7116 68.4944C96.9042 68.5794 97.0733 68.7085 97.2046 68.8709C97.3356 69.0375 97.432 69.2277 97.4884 69.4308C97.6126 69.8798 97.6126 70.3533 97.4884 70.8023C97.4318 71.0053 97.3354 71.1955 97.2046 71.3622C97.0733 71.5246 96.9042 71.6537 96.7116 71.7387C96.4873 71.8352 96.2442 71.8822 95.9994 71.8764H94.512V70.315ZM95.1398 69.8116H96.1199V70.315H95.1398V71.3757H95.7578C95.9631 71.3825 96.1679 71.3498 96.3604 71.2794C96.5047 71.2232 96.6312 71.1304 96.7269 71.0105C96.8176 70.8926 96.8797 70.7559 96.9083 70.6108C96.9718 70.2832 96.9718 69.9467 96.9083 69.619C96.8797 69.474 96.8176 69.3373 96.7269 69.2194C96.6309 69.0997 96.5045 69.0069 96.3604 68.9505C96.1678 68.8802 95.9631 68.8477 95.7578 68.8547H95.1398V69.8116Z" fill="#949494"/>
<path d="M100.744 68.3562H98.1607V71.8802H100.779V71.3461H98.789V70.315H100.597V69.8116H98.789V68.8892H100.744V68.3562Z" fill="#949494"/>
<path d="M101.031 68.3562H101.684L102.584 71.1438H102.594L103.514 68.3562H104.152L102.926 71.8802H102.227L101.031 68.3562Z" fill="#949494"/>
<path d="M105.157 68.3562H104.528V71.8802H105.157V68.3562Z" fill="#949494"/>
<path d="M105.905 68.3562H106.568L108.206 70.9513H108.217V68.3562H108.815V71.8802H108.152L106.519 69.2904H106.503V71.8802H105.905V68.3562Z" fill="#949494"/>
<path d="M110.058 71.0497C110.008 70.9414 109.984 70.8233 109.987 70.7044L109.359 70.7028C109.357 70.8979 109.4 71.0909 109.485 71.2676C109.56 71.4208 109.67 71.5551 109.806 71.6602C109.947 71.7652 110.108 71.8423 110.278 71.8872C110.467 71.9374 110.661 71.9622 110.856 71.9609C111.033 71.961 111.208 71.9404 111.379 71.8995C111.542 71.8615 111.697 71.7954 111.836 71.7043C111.97 71.6163 112.081 71.499 112.16 71.3617C112.246 71.2069 112.289 71.0324 112.284 70.8561C112.283 70.7624 112.269 70.6692 112.241 70.5796C112.212 70.4868 112.168 70.3992 112.11 70.3204C112.049 70.2378 111.975 70.1652 111.891 70.1053C111.798 70.0407 111.694 69.9915 111.585 69.9595C111.538 69.9466 111.46 69.9251 111.351 69.8976C111.242 69.8702 111.131 69.8412 111.017 69.8116L110.708 69.7304L110.55 69.6884C110.435 69.6589 110.329 69.6037 110.241 69.5271C110.176 69.4587 110.135 69.3714 110.125 69.2784C110.115 69.1855 110.137 69.0919 110.186 69.0118C110.227 68.9534 110.281 68.9053 110.344 68.8714C110.41 68.8356 110.481 68.8106 110.555 68.7972C110.63 68.7825 110.705 68.7751 110.781 68.7751C110.971 68.7676 111.158 68.8165 111.319 68.9155C111.46 69.0091 111.538 69.1694 111.555 69.3964H112.185C112.19 69.2347 112.155 69.0743 112.084 68.9285C112.012 68.7827 111.907 68.6556 111.776 68.5579C111.645 68.4597 111.496 68.3867 111.337 68.3427C111.165 68.2941 110.987 68.27 110.808 68.2712C110.646 68.2711 110.486 68.2919 110.33 68.333C110.179 68.3711 110.036 68.4354 109.908 68.5229C109.785 68.607 109.683 68.7173 109.609 68.8456C109.531 68.9868 109.491 69.1458 109.496 69.3065C109.495 69.3984 109.508 69.4897 109.533 69.5781C109.56 69.6692 109.603 69.7546 109.662 69.8299C109.729 69.9152 109.812 69.9881 109.905 70.045C110.024 70.1159 110.154 70.1683 110.289 70.2005C110.536 70.2668 110.745 70.3206 110.914 70.3618C111.026 70.3881 111.137 70.419 111.246 70.4544C111.265 70.4604 111.284 70.4666 111.302 70.4729C111.321 70.4793 111.34 70.4858 111.359 70.4925C111.437 70.5214 111.506 70.5678 111.563 70.6281C111.625 70.6922 111.656 70.7917 111.656 70.9266C111.656 70.9577 111.652 70.9887 111.647 71.0192C111.64 71.0541 111.629 71.0883 111.615 71.1213C111.587 71.1878 111.542 71.2464 111.485 71.2918C111.414 71.3462 111.334 71.3872 111.249 71.4128C111.135 71.4463 111.016 71.4621 110.897 71.4596C110.777 71.4605 110.658 71.4464 110.542 71.4176C110.438 71.3919 110.34 71.3466 110.254 71.2842C110.201 71.246 110.155 71.2 110.116 71.148C110.108 71.136 110.099 71.1236 110.091 71.111C110.079 71.0913 110.068 71.0708 110.058 71.0497Z" fill="#949494"/>
<path d="M112.854 68.3562H113.483V69.9595L115.081 68.3562H115.855L114.422 69.7621L115.956 71.8786H115.171L113.996 70.1962L113.483 70.6969V71.8802H112.854V68.3562Z" fill="#949494"/>
<path d="M116.951 68.3562H116.322V71.8802H116.951V68.3562Z" fill="#949494"/>
<path d="M119.167 68.3562H119.795V71.8802H119.167V68.3562Z" fill="#949494"/>
<path d="M121.205 68.3562H120.544V71.8802H121.142V69.2904H121.157L122.79 71.8802H123.456V68.3562H122.858V70.9513H122.848L121.205 68.3562Z" fill="#949494"/>
<path d="M124.625 70.7044C124.622 70.8233 124.646 70.9414 124.696 71.0497C124.741 71.1426 124.808 71.2231 124.892 71.2842C124.979 71.3466 125.077 71.3919 125.181 71.4176C125.297 71.4464 125.416 71.4605 125.535 71.4596C125.654 71.4621 125.773 71.4463 125.887 71.4128C125.973 71.3872 126.053 71.3462 126.123 71.2918C126.181 71.2464 126.226 71.1878 126.254 71.1213C126.28 71.0595 126.294 70.9934 126.294 70.9266C126.294 70.7917 126.263 70.6922 126.201 70.6281C126.145 70.568 126.075 70.5216 125.998 70.4925C125.852 70.4409 125.704 70.3972 125.553 70.3618C125.383 70.3206 125.175 70.2668 124.927 70.2005C124.859 70.1841 124.792 70.1625 124.727 70.136C124.696 70.1235 124.666 70.1098 124.636 70.0951C124.625 70.0897 124.614 70.0841 124.603 70.0784C124.583 70.0678 124.563 70.0566 124.544 70.045C124.45 69.9879 124.368 69.9151 124.3 69.8299C124.242 69.7546 124.198 69.6692 124.172 69.5781C124.147 69.4897 124.134 69.3984 124.134 69.3065C124.13 69.1458 124.169 68.9868 124.247 68.8456C124.321 68.7175 124.424 68.6073 124.547 68.5229C124.675 68.4354 124.817 68.3711 124.968 68.333C125.124 68.2919 125.285 68.2711 125.446 68.2712C125.626 68.27 125.804 68.2941 125.976 68.3427C126.135 68.387 126.284 68.4599 126.415 68.5579C126.546 68.6559 126.651 68.783 126.722 68.9287C126.793 69.0745 126.828 69.2348 126.824 69.3964H126.193C126.177 69.1694 126.098 69.0091 125.957 68.9155C125.797 68.8164 125.609 68.7675 125.42 68.7751C125.382 68.7752 125.344 68.777 125.306 68.7807C125.268 68.7844 125.231 68.7899 125.194 68.7972C125.12 68.8106 125.048 68.8356 124.983 68.8714C124.919 68.9054 124.865 68.9535 124.824 69.0118C124.775 69.0919 124.754 69.1855 124.764 69.2784C124.774 69.3714 124.814 69.4587 124.879 69.5271C124.968 69.6037 125.074 69.6589 125.188 69.6884L125.346 69.7304L125.655 69.8116L125.699 69.8228L125.709 69.8254C125.804 69.8502 125.898 69.8745 125.99 69.8976C126.045 69.9116 126.092 69.9239 126.131 69.9344L126.185 69.9491L126.224 69.9595C126.333 69.9922 126.437 70.0421 126.53 70.1074C126.584 70.1461 126.634 70.1901 126.679 70.2386C126.7 70.2604 126.719 70.2832 126.737 70.3068C126.741 70.312 126.745 70.3173 126.749 70.3226C126.806 70.4015 126.851 70.489 126.88 70.5818C126.908 70.6714 126.922 70.7646 126.922 70.8582C126.927 71.0345 126.885 71.209 126.799 71.3638C126.72 71.5011 126.609 71.6184 126.475 71.7065C126.335 71.7976 126.181 71.8637 126.018 71.9017C125.847 71.9426 125.671 71.9632 125.495 71.963C125.3 71.9644 125.106 71.9396 124.917 71.8893C124.746 71.8446 124.586 71.7675 124.445 71.6623C124.308 71.5572 124.198 71.4229 124.123 71.2697C124.039 71.0931 123.996 70.9001 123.998 70.705L124.625 70.7044Z" fill="#949494"/>
<path d="M130.033 68.3562H127.13V68.8892H128.265V71.8802H128.894V68.8892H130.033V68.3562Z" fill="#949494"/>
<path d="M130.438 68.3562H131.066V71.8802H130.438V68.3562Z" fill="#949494"/>
<path d="M134.377 68.3562H131.474V68.8892H132.609V71.8802H133.238V68.8892H134.377V68.3562Z" fill="#949494"/>
<path d="M134.762 68.3562H135.39V70.4086C135.39 70.4698 135.392 70.5314 135.395 70.5935C135.398 70.6516 135.402 70.7101 135.408 70.769C135.411 70.8103 135.418 70.8512 135.427 70.8913C135.445 70.9629 135.472 71.0321 135.508 71.0971C135.567 71.198 135.655 71.2807 135.759 71.3359C135.872 71.3986 136.03 71.43 136.234 71.43C136.438 71.43 136.597 71.3986 136.709 71.3359C136.814 71.2805 136.901 71.1979 136.96 71.0971C137.017 70.9958 137.051 70.884 137.061 70.769C137.067 70.7087 137.071 70.649 137.074 70.5896C137.077 70.5288 137.079 70.4685 137.079 70.4086V68.3562H137.707V70.6108C137.711 70.8129 137.675 71.0139 137.601 71.2025C137.536 71.3637 137.433 71.5079 137.302 71.6242C137.168 71.7408 137.009 71.8274 136.837 71.878C136.444 71.9897 136.026 71.9897 135.632 71.878C135.46 71.8273 135.302 71.7407 135.167 71.6242C135.036 71.5078 134.934 71.3635 134.869 71.2025C134.794 71.0139 134.758 70.8129 134.763 70.6108L134.762 68.3562Z" fill="#949494"/>
<path d="M140.999 68.3562H138.095V68.8892H139.229V71.8802H139.859V68.8892H140.999V68.3562Z" fill="#949494"/>
</g>
</svg>
