<svg width="101" height="101" viewBox="0 0 101 101" fill="none" xmlns="http://www.w3.org/2000/svg">
<path d="M67.1774 34.2922C68.5613 35.6762 68.5613 37.9199 67.1774 39.3039L55.7463 50.7349L67.1774 62.166C68.5613 63.5499 68.5613 65.7937 67.1774 67.1776C65.7934 68.5615 63.5497 68.5615 62.1657 67.1776L50.7347 55.7465L39.3036 67.1776C37.9197 68.5615 35.6759 68.5615 34.292 67.1776C32.9081 65.7937 32.9081 63.5499 34.292 62.166L45.7231 50.7349L34.292 39.3039C32.9081 37.9199 32.9081 35.6762 34.292 34.2922C35.6759 32.9083 37.9197 32.9083 39.3036 34.2922L50.7347 45.7233L62.1657 34.2922C63.5497 32.9083 65.7934 32.9083 67.1774 34.2922Z" fill="white"/>
<path fill-rule="evenodd" clip-rule="evenodd" d="M0.73468 50.7346C0.73468 23.1204 23.1204 0.734619 50.7347 0.734619C78.3489 0.734619 100.735 23.1204 100.735 50.7346C100.735 78.3489 78.3489 100.735 50.7347 100.735C23.1204 100.735 0.73468 78.3489 0.73468 50.7346ZM50.7347 7.82213C27.0348 7.82213 7.82219 27.0347 7.82219 50.7346C7.82219 74.4345 27.0348 93.6471 50.7347 93.6471C74.4346 93.6471 93.6472 74.4345 93.6472 50.7346C93.6472 27.0347 74.4346 7.82213 50.7347 7.82213Z" fill="white"/>
</svg>
