<svg width="200" height="100" viewBox="0 0 200 100" fill="none" xmlns="http://www.w3.org/2000/svg">
<mask id="mask0_2941_107" style="mask-type:alpha" maskUnits="userSpaceOnUse" x="0" y="0" width="200" height="100">
<rect width="200" height="100" fill="#222222"/>
</mask>
<g mask="url(#mask0_2941_107)">
<path d="M108.712 33.0104C108.142 33.0104 106.455 33.0312 105.378 34.1949C104.692 34.9326 104.64 35.7568 104.64 36.9656V45.0803C104.64 45.9046 104.64 47.0682 105.82 47.851C106.685 48.4224 107.93 48.5679 108.712 48.5679C112.762 48.5679 112.762 45.9703 112.762 44.7582V40.093H108.701V42.3615H110.039V44.5885C110.039 45.4993 110.039 46.4275 108.753 46.4275C107.532 46.4275 107.381 45.624 107.381 44.7374V36.7474C107.381 36.072 107.446 35.1196 108.65 35.1196C109.854 35.1196 110.039 35.7534 110.039 36.8755V38.7665H112.762V36.4634C112.762 35.4071 112.762 33 108.712 33V33.0104Z" fill="#7D7D7D"/>
<path fill-rule="evenodd" clip-rule="evenodd" d="M90.822 33.3256H95.2395C96.1244 33.3256 97.2013 33.3256 98.1102 34.2572C98.8888 35.0607 98.9951 36.0755 98.9951 37.2565V44.2317C98.9951 46.3028 98.683 48.2493 95.2223 48.2493H90.822V33.3256ZM95.291 46.0292C96.2821 45.8803 96.2821 45.0145 96.2821 44.4672L96.2959 37.0244C96.2959 35.6945 95.8534 35.504 94.653 35.504H93.5761V46.0708C94.1479 46.0986 94.7211 46.0847 95.291 46.0292Z" fill="#7D7D7D"/>
<path d="M100.422 33.329H103.145V48.2493H100.422V33.329Z" fill="#7D7D7D"/>
<path d="M114.391 33.329H117.114V48.2493H114.391V33.329Z" fill="#7D7D7D"/>
<path d="M118.514 33.329V35.4832H121.254V48.2493H124.019V35.4832H126.762V33.329H118.514Z" fill="#7D7D7D"/>
<path fill-rule="evenodd" clip-rule="evenodd" d="M125.812 48.2493L128.7 33.3256H131.832L134.617 48.2493H131.832L131.489 45.8249H128.957L128.556 48.2493H125.812ZM131.19 43.5148L130.285 37.111L129.294 43.5148H131.19Z" fill="#7D7D7D"/>
<path d="M135.899 33.329V48.2493H142.67V45.9877H138.619V33.329H135.899Z" fill="#7D7D7D"/>
<path d="M97.0436 62.1963L98.7962 51.7542H103.207V66.6744H100.484L100.737 53.7422L98.3332 66.6744H95.7574L93.312 53.7422L93.5212 66.6744H90.822V51.7542H95.2738L97.0436 62.1963Z" fill="#7D7D7D"/>
<path d="M104.534 51.7334V66.6744H111.939V64.3713H107.278V59.7858H111.476V57.5242H107.278V54.0158H111.75V51.7334H104.534Z" fill="#7D7D7D"/>
<path fill-rule="evenodd" clip-rule="evenodd" d="M113.379 51.7542H117.807C118.692 51.7542 119.769 51.7542 120.675 52.6824C121.457 53.4859 121.559 54.5007 121.559 55.6851V62.6604C121.559 64.7315 121.247 66.6744 117.787 66.6744H113.379V51.7542ZM117.848 64.4544C118.84 64.3089 118.84 63.4396 118.84 62.8924V55.4531C118.84 54.1197 118.397 53.9292 117.193 53.9292H116.116V64.496C116.694 64.5244 117.273 64.5105 117.848 64.4544Z" fill="#7D7D7D"/>
<path d="M125.699 51.7542H122.976V66.6779H125.699V51.7542Z" fill="#7D7D7D"/>
<path d="M127.932 52.62C129.009 51.4564 130.696 51.4356 131.266 51.4356L131.276 51.4321C135.33 51.4321 135.33 53.8392 135.33 54.8955V57.1986H132.607V55.2972C132.607 54.1751 132.418 53.5413 131.214 53.5413C130.01 53.5413 129.949 54.4937 129.949 55.1691V63.1591C129.949 64.0457 130.096 64.8492 131.321 64.8492C132.607 64.8492 132.607 63.9211 132.607 63.0102V61.0776H135.32V63.1903C135.32 64.399 135.32 67 131.266 67C130.487 67 129.242 66.8511 128.378 66.2796C127.195 65.4934 127.195 64.3332 127.195 63.5089V55.3907C127.195 54.182 127.246 53.3577 127.932 52.62Z" fill="#7D7D7D"/>
<path fill-rule="evenodd" clip-rule="evenodd" d="M138.609 51.7542L135.721 66.6744H138.465L138.866 64.2501H141.397L141.757 66.6744H144.542L141.757 51.7542H138.609ZM140.193 55.5362L141.099 61.94H139.202L140.193 55.5362Z" fill="#7D7D7D"/>
<path d="M146.23 66.6744V51.7542H148.949V64.4128H153V66.6744H146.23Z" fill="#7D7D7D"/>
<path d="M64.6221 33.3048H60.1497V37.3639H64.6221V33.3048Z" fill="#7D7D7D"/>
<path d="M66.7382 33.3048H71.2106V37.3639H66.7382V33.3048Z" fill="#7D7D7D"/>
<path d="M64.6221 39.2306H60.1497V43.2897H64.6221V39.2306Z" fill="#7D7D7D"/>
<path d="M66.7382 39.2306H71.2106V43.2897H66.7382V39.2306Z" fill="#7D7D7D"/>
<path d="M64.6221 45.1565H60.1497V49.2155H64.6221V45.1565Z" fill="#7D7D7D"/>
<path d="M66.7382 45.1565H71.2106V49.2155H66.7382V45.1565Z" fill="#7D7D7D"/>
<path d="M64.6221 51.0823H60.1497V55.1414H64.6221V51.0823Z" fill="#7D7D7D"/>
<path d="M66.7382 51.0823H71.2106V55.1414H66.7382V51.0823Z" fill="#7D7D7D"/>
<path d="M51.4724 45.1565H47V49.2155H51.4724V45.1565Z" fill="#7D7D7D"/>
<path d="M53.5886 45.1565H58.061V49.2155H53.5886V45.1565Z" fill="#7D7D7D"/>
<path d="M51.4724 51.0823H47V55.1414H51.4724V51.0823Z" fill="#7D7D7D"/>
<path d="M53.5886 51.0823H58.061V55.1414H53.5886V51.0823Z" fill="#7D7D7D"/>
<path d="M77.7615 45.1565H73.2891V49.2155H77.7615V45.1565Z" fill="#7D7D7D"/>
<path d="M79.8811 45.1565H84.3535V49.2155H79.8811V45.1565Z" fill="#7D7D7D"/>
<path d="M77.7615 51.0823H73.2891V55.1414H77.7615V51.0823Z" fill="#7D7D7D"/>
<path d="M79.8811 51.0823H84.3535V55.1414H79.8811V51.0823Z" fill="#7D7D7D"/>
<path d="M64.6221 57.0081H60.1497V61.0672H64.6221V57.0081Z" fill="#7D7D7D"/>
<path d="M66.7382 57.0081H71.2106V61.0672H66.7382V57.0081Z" fill="#7D7D7D"/>
<path d="M64.6221 62.934H60.1497V66.9931H64.6221V62.934Z" fill="#7D7D7D"/>
<path d="M66.7382 62.934H71.2106V66.9931H66.7382V62.934Z" fill="#7D7D7D"/>
</g>
</svg>
