<svg width="100" height="100" viewBox="0 0 100 100" fill="none" xmlns="http://www.w3.org/2000/svg">
<circle cx="50" cy="50" r="50" fill="#0F0F0F"/>
<path d="M34.872 54.72L36.744 45.856H39.176C39.8053 45.856 40.3227 45.9467 40.728 46.128C41.144 46.3093 41.4693 46.5493 41.704 46.848C41.9387 47.1467 42.0987 47.4933 42.184 47.888C42.28 48.2827 42.328 48.688 42.328 49.104C42.328 49.7973 42.2267 50.48 42.024 51.152C41.832 51.824 41.5333 52.4267 41.128 52.96C40.7333 53.4827 40.232 53.9093 39.624 54.24C39.0267 54.56 38.3227 54.72 37.512 54.72H34.872ZM35.528 44.576L33.112 56H37.496C38.4453 56 39.3093 55.8347 40.088 55.504C40.8667 55.1733 41.5333 54.704 42.088 54.096C42.6427 53.4773 43.0747 52.736 43.384 51.872C43.6933 50.9973 43.848 50.0213 43.848 48.944C43.848 47.5893 43.48 46.5227 42.744 45.744C42.0187 44.9653 40.9467 44.576 39.528 44.576H35.528ZM45.9136 47.728L44.2016 56H45.5456L46.3296 52.336C46.3936 52.0267 46.479 51.696 46.5856 51.344C46.6923 50.9813 46.8363 50.6667 47.0176 50.4C47.231 50.0693 47.4816 49.7867 47.7696 49.552C48.0683 49.3173 48.4043 49.152 48.7776 49.056C48.9376 49.0133 49.071 48.992 49.1776 48.992C49.2843 48.9813 49.423 48.976 49.5936 48.976H49.7856C49.8816 48.976 49.951 48.9813 49.9936 48.992L50.3136 47.536C50.2283 47.5147 50.1483 47.5093 50.0736 47.52C49.999 47.5307 49.919 47.536 49.8336 47.536C49.1403 47.536 48.543 47.7227 48.0416 48.096C47.551 48.4693 47.1456 48.9387 46.8256 49.504H46.7936L47.1936 47.728H45.9136ZM50.4418 50.224H51.8018C51.8444 49.9573 51.9351 49.7333 52.0738 49.552C52.2124 49.36 52.3831 49.2053 52.5858 49.088C52.7884 48.96 53.0124 48.8693 53.2578 48.816C53.5138 48.7627 53.7698 48.736 54.0258 48.736C54.2071 48.736 54.3938 48.752 54.5858 48.784C54.7884 48.816 54.9698 48.8747 55.1298 48.96C55.2898 49.0347 55.4231 49.1413 55.5298 49.28C55.6364 49.4187 55.6898 49.6 55.6898 49.824C55.6898 50.1013 55.6471 50.32 55.5618 50.48C55.4871 50.64 55.3644 50.7627 55.1938 50.848C55.0231 50.9333 54.8044 50.9973 54.5378 51.04C54.2818 51.072 53.9724 51.104 53.6098 51.136C53.1511 51.1787 52.6764 51.232 52.1858 51.296C51.6951 51.36 51.2471 51.4827 50.8418 51.664C50.4364 51.8347 50.1004 52.0907 49.8338 52.432C49.5777 52.7733 49.4497 53.248 49.4497 53.856C49.4497 54.2827 49.5137 54.6453 49.6418 54.944C49.7804 55.232 49.9618 55.472 50.1858 55.664C50.4098 55.8453 50.6711 55.9733 50.9698 56.048C51.2791 56.1333 51.6098 56.176 51.9618 56.176C52.6658 56.176 53.2311 56.0747 53.6578 55.872C54.0844 55.6693 54.4418 55.376 54.7298 54.992L54.7618 55.024C54.7191 55.3867 54.7938 55.6693 54.9858 55.872C55.1778 56.0747 55.4604 56.176 55.8338 56.176C55.9511 56.176 56.0898 56.1547 56.2498 56.112C56.4204 56.08 56.5591 56.0427 56.6658 56L56.8738 54.992C56.8098 55.0133 56.7351 55.04 56.6498 55.072C56.5751 55.0933 56.5058 55.104 56.4418 55.104C56.3244 55.104 56.2284 55.0667 56.1538 54.992C56.0791 54.9173 56.0418 54.784 56.0418 54.592C56.0418 54.4 56.0684 54.1973 56.1218 53.984C56.1858 53.7707 56.2338 53.5787 56.2658 53.408L56.7938 51.152C56.8471 50.928 56.9004 50.6827 56.9538 50.416C57.0178 50.1387 57.0498 49.8827 57.0498 49.648C57.0498 49.232 56.9644 48.8907 56.7938 48.624C56.6338 48.3467 56.4151 48.128 56.1378 47.968C55.8604 47.808 55.5404 47.696 55.1778 47.632C54.8151 47.568 54.4311 47.536 54.0258 47.536C53.5884 47.536 53.1671 47.5893 52.7618 47.696C52.3564 47.8027 51.9938 47.968 51.6738 48.192C51.3538 48.416 51.0818 48.6987 50.8578 49.04C50.6444 49.3707 50.5058 49.7653 50.4418 50.224ZM50.7938 53.84C50.8044 53.488 50.8951 53.216 51.0658 53.024C51.2364 52.8213 51.4551 52.6667 51.7218 52.56C51.9884 52.4533 52.2871 52.3787 52.6178 52.336C52.9591 52.2827 53.2951 52.24 53.6258 52.208C53.9564 52.176 54.2658 52.1333 54.5538 52.08C54.8524 52.016 55.0978 51.9147 55.2898 51.776H55.3218C55.2258 52.16 55.1351 52.5333 55.0498 52.896C54.9751 53.2587 54.8258 53.5947 54.6018 53.904C54.1324 54.6293 53.3591 54.992 52.2818 54.992C51.8978 54.992 51.5511 54.896 51.2418 54.704C50.9431 54.512 50.7938 54.224 50.7938 53.84ZM65.2346 54.8L66.7226 47.728H65.4426L65.1866 49.248H65.1546V49.216C65.0906 48.96 64.9733 48.7307 64.8026 48.528C64.6426 48.3147 64.44 48.1387 64.1946 48C63.96 47.8507 63.6986 47.7387 63.4106 47.664C63.1333 47.5787 62.84 47.536 62.5306 47.536C61.8586 47.536 61.256 47.6907 60.7226 48C60.1893 48.2987 59.736 48.6933 59.3626 49.184C59 49.664 58.7173 50.208 58.5146 50.816C58.3226 51.424 58.2266 52.032 58.2266 52.64C58.2266 53.1413 58.2906 53.6 58.4186 54.016C58.5573 54.432 58.7546 54.7947 59.0106 55.104C59.2666 55.4027 59.5866 55.6373 59.9706 55.808C60.3653 55.968 60.8186 56.048 61.3306 56.048C61.8533 56.048 62.3386 55.952 62.7866 55.76C63.2346 55.568 63.608 55.248 63.9066 54.8L63.9386 54.832C63.832 55.2373 63.7146 55.6373 63.5866 56.032C63.4693 56.4373 63.304 56.7947 63.0906 57.104C62.8773 57.4133 62.6 57.664 62.2586 57.856C61.928 58.048 61.5013 58.144 60.9786 58.144C60.7226 58.144 60.472 58.1227 60.2266 58.08C59.9813 58.048 59.7626 57.9787 59.5706 57.872C59.3893 57.776 59.2346 57.6373 59.1066 57.456C58.9893 57.2853 58.92 57.0613 58.8986 56.784H57.5546C57.5653 57.2427 57.6666 57.632 57.8586 57.952C58.04 58.2827 58.28 58.5493 58.5786 58.752C58.8773 58.9547 59.2186 59.104 59.6026 59.2C59.9973 59.296 60.408 59.344 60.8346 59.344C61.7306 59.344 62.4933 59.168 63.1226 58.816C63.752 58.464 64.2426 57.872 64.5946 57.04C64.712 56.752 64.824 56.4107 64.9306 56.016C65.0373 55.632 65.1386 55.2267 65.2346 54.8ZM59.5866 52.64C59.5866 52.256 59.6506 51.84 59.7786 51.392C59.9066 50.9333 60.0933 50.512 60.3386 50.128C60.584 49.7333 60.888 49.4027 61.2506 49.136C61.6133 48.8693 62.0346 48.736 62.5146 48.736C63.2293 48.736 63.7573 48.9333 64.0986 49.328C64.4506 49.7227 64.6266 50.2453 64.6266 50.896C64.6266 51.312 64.5626 51.7547 64.4346 52.224C64.3173 52.6827 64.136 53.1093 63.8906 53.504C63.6453 53.8987 63.3306 54.224 62.9466 54.48C62.5733 54.736 62.1306 54.864 61.6186 54.864C61.2773 54.864 60.9786 54.8053 60.7226 54.688C60.4666 54.56 60.2533 54.3947 60.0826 54.192C59.9226 53.9893 59.8 53.7547 59.7146 53.488C59.6293 53.2213 59.5866 52.9387 59.5866 52.64Z" fill="white"/>
</svg>
