<svg width="200" height="100" viewBox="0 0 200 100" fill="none" xmlns="http://www.w3.org/2000/svg">
<mask id="mask0_2935_256" style="mask-type:alpha" maskUnits="userSpaceOnUse" x="0" y="0" width="200" height="100">
<rect width="200" height="100" fill="#222222"/>
</mask>
<g mask="url(#mask0_2935_256)">
<path fill-rule="evenodd" clip-rule="evenodd" d="M137.109 34.8184C137.193 34.8247 137.277 34.826 137.362 34.8273C137.539 34.8301 137.717 34.8329 137.88 34.882C138.17 34.9687 138.328 34.8531 138.508 34.6656C138.633 34.5359 138.779 34.4148 138.928 34.2914C138.994 34.2365 139.061 34.181 139.127 34.1242C139.161 34.1416 139.191 34.1667 139.215 34.1976C139.339 34.3895 139.5 34.3807 139.696 34.3283C139.882 34.2795 140.07 34.2418 140.258 34.2041C140.383 34.1791 140.508 34.154 140.633 34.1256C140.71 34.1079 140.785 34.0805 140.864 34.0519C140.9 34.0386 140.937 34.025 140.976 34.0121L139.321 32.0582C139.409 32.0389 139.493 32.0211 139.575 32.004C139.774 31.9623 139.956 31.924 140.135 31.8737C140.231 31.848 140.314 31.7872 140.367 31.7033C140.496 31.442 140.614 31.175 140.738 30.8928C140.785 30.788 140.832 30.6809 140.881 30.5715C140.76 30.5981 140.642 30.6264 140.526 30.6542C140.255 30.719 139.997 30.7811 139.735 30.8133C139.518 30.8417 139.428 30.9489 139.354 31.1222C139.297 31.2577 139.235 31.3905 139.172 31.5254C139.142 31.5883 139.113 31.6517 139.083 31.716C138.398 31.2079 138.096 30.5592 138.251 30.0099L138.951 30.6557L139.897 29.6408C139.842 29.5856 139.788 29.5304 139.734 29.4755C139.582 29.3205 139.433 29.1682 139.274 29.0269C139.229 28.9868 139.105 28.9956 139.037 29.0269C138.368 29.3167 137.701 29.6114 137.04 29.9189C136.999 29.9457 136.965 29.9812 136.939 30.0228C136.914 30.0645 136.898 30.1112 136.893 30.1597C136.883 30.3455 136.883 30.5318 136.884 30.7185C136.884 30.8585 136.884 30.9987 136.88 31.1389C136.874 31.3484 136.89 31.5305 137.076 31.6774C137.164 31.747 137.234 31.8405 137.309 31.9418C137.343 31.9886 137.379 32.0371 137.419 32.0857C137.334 32.1396 137.25 32.1923 137.166 32.2446C137.008 32.3432 136.853 32.4403 136.701 32.5414C136.672 32.561 136.637 32.5813 136.602 32.6021C136.489 32.6693 136.365 32.7423 136.362 32.817C136.339 33.298 136.341 33.7803 136.344 34.268C136.345 34.4296 136.346 34.5918 136.346 34.7547C136.48 34.7652 136.609 34.7763 136.736 34.7872C136.862 34.7981 136.986 34.8088 137.109 34.8184ZM137.701 32.4195L138.872 33.7717L137.701 33.6655V32.4195Z" fill="#949494"/>
<path d="M119.622 34.8246L119.62 34.8238C119.546 34.7859 119.472 34.748 119.398 34.7102C119.387 34.7042 119.379 34.6902 119.369 34.67C119.363 34.6584 119.355 34.6447 119.346 34.6294C119.526 34.5094 119.705 34.39 119.885 34.2706C120.285 34.0047 120.685 33.7389 121.083 33.4686L121.226 33.3726C121.946 32.8872 122.667 32.4012 123.379 31.9021C123.511 31.8091 123.605 31.8169 123.728 31.881C123.925 31.9834 124.123 32.0848 124.321 32.1863L124.321 32.1867C124.653 32.3569 124.984 32.5271 125.314 32.7015C125.362 32.7327 125.419 32.7498 125.477 32.7511C125.535 32.7524 125.592 32.7378 125.642 32.7089C126.757 32.1655 127.875 31.6269 128.994 31.0933C129.234 30.9796 129.476 30.8679 129.718 30.7561C130.071 30.5933 130.424 30.4303 130.772 30.2611C130.902 30.1984 130.99 30.2116 131.102 30.2919C131.355 30.4746 131.61 30.6561 131.865 30.8376C132.249 31.1109 132.634 31.3844 133.014 31.6627C133.217 31.811 133.339 31.9789 133.339 32.2849C133.324 34.8832 133.325 37.4818 133.326 40.0805C133.327 40.8025 133.327 41.5245 133.327 42.2464C133.327 42.8892 133.725 43.4703 134.494 43.4115C134.765 43.3911 135.034 43.3548 135.321 43.316C135.455 43.298 135.592 43.2794 135.735 43.2617C135.722 43.2859 135.711 43.311 135.7 43.3358C135.677 43.3872 135.655 43.437 135.619 43.4737C134.38 44.7296 133.141 45.9861 131.903 47.2433C131.807 47.3411 131.714 47.4422 131.622 47.5431C131.485 47.6917 131.349 47.8401 131.203 47.9776C131.16 48.0123 131.109 48.0369 131.054 48.0498C131 48.0628 130.943 48.0637 130.889 48.0525C130.154 47.8332 129.464 47.5233 128.881 47.0142C128.389 46.5905 128.081 45.9929 128.02 45.3468C128.019 45.2671 128.045 45.1896 128.094 45.1269C128.382 44.7373 128.454 44.28 128.454 43.8233C128.459 41.8426 128.459 39.8625 128.46 37.8826C128.46 36.6154 128.461 35.3482 128.462 34.0811C128.463 33.9156 128.427 33.8123 128.261 33.7418C128.144 33.6925 128.032 33.633 127.919 33.5735C127.781 33.5008 127.643 33.428 127.498 33.3742C127.359 33.3294 127.209 33.3304 127.071 33.3771C126.923 33.4278 126.782 33.4973 126.64 33.567C126.549 33.6117 126.458 33.6565 126.365 33.6963C126.194 33.7702 126.121 33.8686 126.121 34.0757C126.125 38.8972 126.127 43.7188 126.127 48.5406C126.127 48.9812 126.289 49.3474 126.652 49.67C126.438 49.8819 126.225 50.0918 126.013 50.3007C125.552 50.756 125.094 51.2065 124.642 51.6615C124.122 52.1854 123.609 52.7156 123.103 53.2521C122.98 53.3828 122.887 53.3911 122.73 53.3094C121.979 52.9187 121.334 52.4042 120.91 51.6669C120.799 51.4733 120.746 51.2471 120.693 51.0217C120.673 50.9342 120.652 50.847 120.628 50.7617C120.618 50.7255 120.65 50.6682 120.677 50.632C120.99 50.2144 121.059 49.7249 121.059 49.2353C121.066 46.4734 121.066 43.7118 121.067 40.9504C121.068 39.2244 121.068 37.4984 121.07 35.7725C121.07 35.61 121.019 35.5253 120.874 35.4553C120.454 35.2513 120.038 35.0382 119.623 34.8254L119.622 34.8246Z" fill="#949494"/>
<path fill-rule="evenodd" clip-rule="evenodd" d="M86.7056 51.0609C86.3904 52.5511 85.9329 54.0077 85.3393 55.4106C84.9594 56.306 84.5622 57.1974 84.1107 58.0586C83.6357 58.9652 83.1044 59.8445 82.5658 60.7154C81.7391 62.0353 80.8435 63.3109 79.8828 64.5369C79.0905 65.561 78.307 66.594 77.5235 67.627C77.2574 67.9782 76.9947 68.3322 76.7321 68.6863C76.5174 68.9757 76.3025 69.2654 76.0858 69.5534C75.8295 69.8938 75.5668 70.2296 75.3041 70.5655L75.2446 70.6416C75.2063 70.6821 75.1643 70.719 75.1192 70.7518C74.6795 69.9739 74.228 69.2254 73.6443 68.5542C72.873 67.6666 72.0171 66.9039 70.9731 66.3473C70.3536 66.0163 69.717 65.7309 69.0315 65.6041C68.4086 65.4891 67.7725 65.3765 67.1433 65.3814C66.2995 65.3863 65.4648 65.5553 64.6856 65.8787C63.8942 66.2058 63.1798 66.6376 62.5858 67.2471C61.859 67.9808 61.3627 68.9109 61.1579 69.923C61.1227 70.0953 61.1004 70.2699 61.0778 70.4464C61.0544 70.6289 61.0307 70.8136 60.9924 71C60.971 70.9056 60.946 70.8114 60.921 70.7173C60.868 70.5175 60.8148 70.3172 60.7965 70.1144C60.7928 70.074 60.7891 70.0335 60.7853 69.993L60.7846 69.9847C60.7312 69.407 60.6775 68.8247 60.703 68.2482C60.7304 67.5731 60.9263 66.923 61.1711 66.29C61.4855 65.4705 61.9747 64.7562 62.5452 64.109C62.932 63.6728 63.3943 63.2914 63.8624 62.9385C64.7389 62.2776 65.7207 61.8071 66.7677 61.4762C67.6094 61.2098 68.4625 60.9993 69.3488 60.9411C69.6946 60.9179 70.0394 60.8854 70.3895 60.8524C70.5416 60.8381 70.6946 60.8237 70.8492 60.8099C70.7994 60.7674 70.7506 60.7244 70.702 60.6815C70.6022 60.5936 70.5032 60.5064 70.3992 60.4261C69.8625 60.0124 69.6078 59.4445 69.5099 58.7958C69.5012 58.7089 69.5227 58.6216 69.5706 58.5486C69.8478 58.1345 69.9413 57.6655 69.9413 57.1862C69.9467 54.9719 69.947 52.7572 69.9474 50.5424C69.9477 48.7184 69.948 46.8944 69.9511 45.0706C69.9511 44.8748 69.8821 44.795 69.7146 44.7123C69.1629 44.4401 68.6168 44.1575 68.0574 43.8681L68.0563 43.8675L68.0552 43.8669C67.8486 43.7601 67.6403 43.6523 67.4292 43.5437L72.4451 41.1703C72.6016 41.2852 72.7595 41.4007 72.9182 41.5169C73.5015 41.9438 74.0968 42.3795 74.6853 42.8236C74.7603 42.8789 74.8053 43.0214 74.8053 43.1237C74.806 46.9501 74.8083 50.7764 74.8122 54.6028C74.8123 54.7003 74.8112 54.7982 74.8101 54.8963C74.8058 55.2958 74.8014 55.698 74.8753 56.0832C75.0208 56.843 75.4644 57.4133 76.2078 57.7115C76.2211 57.7164 76.2331 57.7224 76.248 57.7298C76.2566 57.7341 76.2663 57.7389 76.2778 57.7443L72.968 61.1178C74.0004 61.4328 74.9703 61.9244 75.8346 62.5708C76.7135 63.2192 77.517 63.9639 78.2301 64.791C78.2863 64.7213 78.3413 64.6546 78.3949 64.5895C78.5065 64.4541 78.6123 64.3256 78.7115 64.1917C78.8221 64.0413 78.9348 63.8922 79.0475 63.743C79.3548 63.3362 79.6621 62.9292 79.9284 62.4969C80.422 61.697 80.8828 60.8721 81.3068 60.0325C81.8851 58.8874 82.2779 57.6674 82.5594 56.4195C82.7247 55.6669 82.8438 54.9049 82.9159 54.1377C82.9933 53.3794 83.0251 52.6171 83.0109 51.8549C82.9899 50.8423 82.8546 49.8352 82.6074 48.853C82.3663 47.857 82.0037 46.8945 81.5277 45.9871C81.1486 45.2745 80.6932 44.6053 80.1693 43.9912C79.471 43.1721 78.69 42.4481 77.7821 41.8768C76.6313 41.1527 75.4091 40.5897 74.0811 40.2417C73.1861 40.0132 72.2789 39.8357 71.3638 39.71C70.0304 39.5181 68.6902 39.546 67.3533 39.5847C66.8543 39.5992 66.3571 39.6802 65.8598 39.7612C65.6345 39.7979 65.4091 39.8347 65.1836 39.8652C63.8981 40.0341 62.6921 40.4487 61.5477 41.0401C60.0355 41.821 58.827 42.9181 58.1258 44.4993C58.0077 44.7648 57.9265 45.0469 57.8398 45.3476C57.7999 45.486 57.7588 45.6286 57.7125 45.7751C57.8568 45.7136 57.9928 45.6561 58.123 45.6011C58.4065 45.4812 58.663 45.3728 58.9176 45.2601C59.5777 44.9714 60.2768 44.7817 60.9924 44.6971C61.6642 44.6139 62.3454 44.5365 63.0197 44.5547C64.1381 44.5845 65.1694 44.8973 65.9435 45.7785C66.4214 46.3179 66.7005 47.0043 66.7344 47.724C66.7878 48.6023 66.5674 49.3993 66.0532 50.1145C65.4705 50.9257 64.6728 51.4192 63.7165 51.6547C62.8752 51.8642 62.028 51.8368 61.1701 51.7174C60.1193 51.571 59.1801 51.1759 58.3868 50.4979C58.1124 50.2633 57.8956 49.9615 57.6789 49.6598C57.5835 49.527 57.4881 49.3942 57.3878 49.2671C57.3676 49.2409 57.352 49.2121 57.3362 49.1829C57.3249 49.1619 57.3135 49.1407 57.3002 49.1203C57.2929 49.109 57.2811 49.1006 57.2596 49.0853C57.2464 49.0759 57.2295 49.0638 57.2076 49.0468C57.1835 49.1503 57.1571 49.2511 57.1312 49.3502C57.0744 49.5672 57.0196 49.7765 56.9951 49.9892C56.9363 50.4861 56.8781 50.9894 56.8972 51.4868C56.9476 52.8203 57.1405 54.1294 57.7663 55.3362C58.0846 55.9476 58.472 56.5111 59.0106 56.9517C59.7158 57.525 60.5091 57.9044 61.436 58.0145C62.0531 58.0864 62.6785 58.0284 63.2718 57.8441C63.764 57.6958 64.2424 57.476 64.5994 57.0844C64.8292 56.8325 65.0331 56.5561 65.2363 56.2806L65.2368 56.2799L65.2386 56.2774C65.255 56.2552 65.2714 56.2331 65.2877 56.2109L65.3163 56.1723C65.3504 56.1263 65.3634 56.065 65.3791 55.9905C65.3873 55.9518 65.3962 55.9095 65.4093 55.8639C64.8995 56.0431 64.4701 55.9598 64.0671 55.6744C63.5172 55.2843 63.4094 54.3184 63.8389 53.7911C64.3815 53.1248 65.469 53.1097 65.9935 53.8185C66.1361 54.0214 66.2188 54.2602 66.2325 54.5078C66.2922 55.8526 65.8858 57.0658 65.0748 58.1305C64.1577 59.3348 62.9247 60.0946 61.4581 60.3991C60.7456 60.547 59.9861 60.546 59.2545 60.5034C58.2643 60.4505 57.2955 60.1946 56.4085 59.7515C55.4108 59.2603 54.5713 58.4989 53.9855 57.5538C53.5208 56.8078 53.1888 56.0024 53.1041 55.1212L53.1015 55.0941C53.0362 54.4186 52.97 53.7336 53.0145 53.0602C53.0825 52.0341 53.3573 51.0457 53.7867 50.1018C54.16 49.28 54.6438 48.5132 55.2249 47.8224C55.4604 47.543 55.7366 47.2983 56.013 47.0533C56.1677 46.9162 56.3224 46.7791 56.4702 46.6358C56.5466 46.5618 56.6215 46.4355 56.6171 46.3376C56.5617 45.0966 56.8296 43.906 57.2703 42.7639C57.7114 41.6326 58.3267 40.5773 59.0939 39.6361C59.8511 38.7002 60.7128 37.8594 61.5708 37.0221C61.9507 36.6514 62.3298 36.2814 62.6989 35.9042C63.3884 35.1995 64.0841 34.5004 64.7796 33.8016L64.7808 33.8003C65.2982 33.2805 65.8154 32.7608 66.3299 32.2389C66.4925 32.0754 66.6555 31.998 66.8842 32.0059C67.0583 32.0114 67.2328 32.0088 67.4072 32.0061C67.633 32.0027 67.8588 31.9993 68.0835 32.0137C68.8444 32.0622 69.6039 32.1302 70.3624 32.2027L70.3682 32.2032C70.9485 32.2564 71.5303 32.3097 72.1052 32.4029C72.825 32.5194 73.5478 32.6408 74.253 32.8244C75.4228 33.1289 76.5922 33.4456 77.737 33.8299C78.8951 34.2191 79.9999 34.7405 81.0772 35.328C82.0311 35.8523 82.9379 36.4407 83.7704 37.1359C84.2853 37.5671 84.7502 38.0613 85.2127 38.5529L85.2135 38.5537C85.2711 38.615 85.3287 38.6762 85.3864 38.7373C85.9412 39.3257 86.3569 40.014 86.7149 40.7371C87.0248 41.3632 87.2163 42.0251 87.348 42.7105C87.4761 43.3777 87.4601 44.0494 87.4442 44.7209C87.4394 44.925 87.4345 45.1291 87.4337 45.333C87.4313 45.8657 87.3931 46.3993 87.3407 46.93C87.278 47.571 87.1977 48.2089 87.0998 48.8437C86.9847 49.5853 86.8613 50.3265 86.7056 51.0609ZM61.4507 45.5401C60.1442 45.7487 59.018 46.3014 58.162 47.3358C58.1377 47.3649 58.1118 47.3936 58.0851 47.4226C57.9476 47.572 57.8041 47.7279 57.9128 47.9752C57.9258 48.0051 57.9436 48.033 57.9614 48.0609C57.9823 48.0937 58.0031 48.1265 58.0161 48.1622C58.2807 48.8923 58.762 49.5243 59.3955 49.9736C60.3886 50.6908 61.5026 50.9522 62.718 50.8596C63.3649 50.8078 63.9476 50.6325 64.4941 50.2692C65.4387 49.6416 65.9284 48.4961 65.6747 47.4029C65.5097 46.6911 65.0998 46.1398 64.4373 45.7971C63.8849 45.5103 63.3002 45.3952 62.6784 45.4055C62.5477 45.4196 62.4167 45.4317 62.2857 45.4439C62.0064 45.4699 61.727 45.4958 61.4507 45.5401Z" fill="#949494"/>
<path d="M146.157 39.6199C146.437 39.8064 146.713 39.9988 146.98 40.203C147.011 40.226 147.005 40.3572 146.968 40.3929C146.701 40.6905 146.43 40.9833 146.16 41.276C146.064 41.3796 145.968 41.4832 145.872 41.587C145.676 41.7995 145.481 42.0126 145.285 42.2256L145.283 42.2279L145.283 42.2286C144.901 42.6441 144.52 43.0596 144.135 43.4713C143.578 44.0658 143.016 44.6547 142.453 45.2437L142.28 45.4251C142.099 45.6144 141.919 45.8041 141.738 45.9938L141.737 45.9952C141.192 46.5673 140.647 47.1399 140.094 47.7035C138.538 49.287 136.977 50.866 135.41 52.4404C134.933 52.921 134.443 53.3881 133.952 53.855L133.838 53.9639C133.323 54.454 132.807 54.9421 132.281 55.4204C131.915 55.7523 131.545 56.0792 131.174 56.4058C130.953 56.6009 130.732 56.7959 130.512 56.9918C130.36 57.1273 130.208 57.2634 130.056 57.3996C129.773 57.6529 129.49 57.9065 129.203 58.1555C129.066 58.2751 128.924 58.3889 128.781 58.5026C128.662 58.5979 128.543 58.6933 128.427 58.7919C128.301 58.9004 128.177 59.0113 128.052 59.1224C127.885 59.2713 127.717 59.4206 127.546 59.5649C127.067 59.9683 126.587 60.3703 126.098 60.7619C126.023 60.8208 125.949 60.8797 125.876 60.9387C125.255 61.4333 124.634 61.9276 123.992 62.3921C123.225 62.9473 122.445 63.4897 121.639 63.9851C120.759 64.5251 119.859 65.0357 118.937 65.4993C118.311 65.8131 117.653 66.103 116.94 66.1323C116.41 66.1542 115.878 66.1346 115.347 66.1151C115.163 66.1084 114.979 66.1016 114.795 66.0966C114.504 66.0888 114.213 66.0726 113.923 66.0432C113.205 65.9708 112.487 65.891 111.768 65.8097C111.201 65.7456 110.634 65.6805 110.068 65.6051C109.667 65.5516 109.268 65.4931 108.868 65.4347C108.617 65.3979 108.366 65.3611 108.114 65.3256C107.863 65.2901 107.611 65.2557 107.359 65.2213C107.103 65.1864 106.848 65.1515 106.593 65.1155C106.307 65.0754 106.021 65.0343 105.736 64.9931C105.37 64.9404 105.004 64.8876 104.637 64.837C104.345 64.7965 104.052 64.7602 103.759 64.724C103.631 64.7081 103.502 64.6922 103.373 64.6759C103.223 64.6568 103.073 64.6374 102.922 64.618C102.573 64.5728 102.223 64.5277 101.873 64.486C101.583 64.4512 101.291 64.4234 100.999 64.3956C100.953 64.3913 100.908 64.387 100.863 64.3827C100.174 64.3164 99.4843 64.252 98.7948 64.1893C98.5701 64.1692 98.3453 64.1501 98.1195 64.1403C97.6411 64.1208 97.1622 64.1012 96.6838 64.0914C96.4306 64.0862 96.1773 64.0794 95.924 64.0726C95.2005 64.0532 94.4769 64.0338 93.754 64.0512C93.0643 64.0681 92.3756 64.1349 91.6874 64.2016C91.5552 64.2144 91.4231 64.2273 91.2909 64.2397C90.1803 64.3455 89.0942 64.5858 88.0218 64.884C86.8758 65.2062 85.7686 65.6529 84.7199 66.2161C84.0799 66.5558 83.4678 66.9337 82.9081 67.4233C82.76 67.3495 82.8323 67.249 82.8898 67.1692C82.8933 67.1643 82.8968 67.1595 82.9002 67.1547C82.9041 67.1491 82.9079 67.1437 82.9115 67.1384C82.9227 67.1217 82.9338 67.1051 82.945 67.0884C83.1346 66.8057 83.3252 66.5216 83.5398 66.2572C83.9021 65.8107 84.2748 65.3711 84.6631 64.9471C85.0788 64.4948 85.5039 64.0488 85.9495 63.6253C86.9989 62.6291 88.1315 61.7376 89.3773 60.9959C89.5059 60.9195 89.6335 60.8408 89.7612 60.7622C90.1021 60.5523 90.4431 60.3423 90.8032 60.1735C91.9476 59.6379 93.1228 59.1757 94.3505 58.8942C95.0158 58.7484 95.6906 58.6502 96.3699 58.6005C97.2332 58.531 98.1014 58.506 98.9682 58.4977C99.6079 58.491 100.248 58.5087 100.887 58.5265C101.093 58.5322 101.299 58.5379 101.505 58.5427C101.975 58.555 102.444 58.5726 102.914 58.5917C103.691 58.6207 104.469 58.6534 105.246 58.6896C105.739 58.712 106.23 58.7391 106.722 58.7661C106.853 58.7733 106.983 58.7804 107.114 58.7875C108.013 58.8355 108.911 58.8845 109.807 58.9344C109.994 58.9452 110.181 58.9565 110.367 58.9678C110.745 58.9907 111.122 59.0136 111.5 59.0323C112.551 59.0813 113.603 59.1302 114.655 59.1792C114.751 59.1838 114.847 59.1888 114.943 59.1938C115.211 59.2077 115.479 59.2216 115.747 59.2281C116.593 59.249 117.439 59.2653 118.286 59.2771C119.05 59.2883 119.785 59.1062 120.519 58.9075C122.055 58.4923 123.464 57.7849 124.86 57.0545C126.614 56.1361 128.291 55.0845 129.92 53.9585C131.028 53.1948 132.123 52.4138 133.204 51.6155C133.936 51.0755 134.647 50.5086 135.359 49.9416C135.446 49.8719 135.534 49.8019 135.622 49.7322C136.475 49.0522 137.326 48.3722 138.164 47.6761C138.701 47.2299 139.224 46.7679 139.748 46.3057C139.854 46.2116 139.961 46.1173 140.068 46.0233C140.665 45.4979 141.258 44.9683 141.848 44.4347C142.451 43.8871 143.051 43.3371 143.649 42.7849C143.839 42.6099 144.026 42.4331 144.214 42.2563L144.215 42.2557C144.507 41.9807 144.799 41.7057 145.097 41.4376C145.432 41.1375 145.387 41.0328 145.093 40.6808C145.122 40.647 145.15 40.6132 145.179 40.5795L145.272 40.4696L145.273 40.4687C145.514 40.1851 145.752 39.9056 145.994 39.6312C146.018 39.6158 146.046 39.6068 146.074 39.6048C146.103 39.6028 146.131 39.608 146.157 39.6199Z" fill="#949494"/>
<path d="M105.448 39.3017C105.447 40.4377 105.447 41.5737 105.447 42.7097C105.447 45.0659 105.448 47.4222 105.435 49.7782C105.435 50.0016 105.356 50.2249 105.276 50.448C105.241 50.5461 105.206 50.6442 105.178 50.7422C105.166 50.7865 105.146 50.831 105.127 50.8752C105.092 50.9561 105.057 51.0362 105.064 51.1128C105.081 51.3338 105.136 51.5503 105.225 51.7531C105.624 52.5971 106.33 53.1287 107.119 53.5762C107.289 53.6741 107.381 53.6477 107.511 53.516C108.282 52.72 109.058 51.9285 109.839 51.1416C110.13 50.8479 110.427 50.5595 110.729 50.2658C110.848 50.1508 110.967 50.035 111.087 49.9177C110.562 49.5178 110.51 48.9783 110.51 48.4192V37.411C110.61 37.3628 110.709 37.3146 110.807 37.2668C111.058 37.1446 111.304 37.0248 111.552 36.9137C111.638 36.875 111.763 36.8432 111.837 36.8769C112.012 36.9563 112.182 37.0471 112.352 37.1376C112.474 37.2028 112.596 37.2678 112.719 37.3283C112.845 37.3895 112.893 37.462 112.893 37.6074C112.891 39.0601 112.891 40.5129 112.891 41.9657C112.891 44.9924 112.891 48.019 112.88 51.0457C112.88 51.3903 112.803 51.7354 112.727 52.0794C112.7 52.2007 112.673 52.3219 112.65 52.4429C112.631 52.5458 112.596 52.6483 112.562 52.7503C112.508 52.9104 112.454 53.0692 112.462 53.2262C112.485 53.7392 112.724 54.1926 113.073 54.5661C113.701 55.2368 114.509 55.6044 115.375 55.857C115.444 55.8771 115.565 55.8262 115.622 55.7694C115.789 55.6033 115.95 55.4323 116.112 55.2613C116.255 55.1099 116.398 54.9585 116.545 54.8104C117.154 54.1958 117.766 53.5848 118.381 52.9775C118.578 52.7821 118.778 52.5898 118.983 52.3919L118.984 52.3913C119.077 52.3013 119.172 52.21 119.268 52.1168C118.826 51.9665 118.442 51.6812 118.171 51.3012C117.899 50.9211 117.754 50.4655 117.755 49.9985V39.1059C117.755 37.9476 117.755 36.7888 117.752 35.63C117.752 35.5576 117.721 35.4567 117.668 35.4176C117.449 35.2537 117.226 35.0942 117.003 34.9347C116.606 34.6505 116.209 34.3663 115.831 34.0581C115.494 33.7829 115.235 33.7692 114.852 33.9719C114.306 34.2587 113.745 34.5151 113.183 34.7715C112.898 34.9016 112.613 35.0318 112.33 35.1659C111.989 35.328 111.648 35.4928 111.308 35.6575C110.902 35.8542 110.496 36.0509 110.087 36.243C109.989 36.2875 109.843 36.3086 109.754 36.265C109.431 36.1037 109.112 35.9329 108.793 35.7621C108.59 35.653 108.386 35.5438 108.182 35.4372C108.054 35.3706 107.937 35.3206 107.783 35.4592C107.645 35.5867 107.483 35.6893 107.32 35.7919C107.252 35.8348 107.184 35.8777 107.118 35.9223L104.351 37.79C104.201 37.8912 104.052 37.9937 103.892 38.1034C103.837 38.1413 103.781 38.18 103.723 38.2198C103.87 38.2961 104.014 38.3716 104.156 38.4461L104.157 38.4465C104.536 38.6448 104.901 38.8361 105.271 39.0168C105.409 39.0824 105.449 39.1529 105.448 39.3017Z" fill="#949494"/>
<path d="M89.9678 44.7789C89.9776 48.2626 89.9788 51.7462 89.9712 55.2299C89.9712 55.3636 89.9781 55.4678 90.1088 55.5623C90.4109 55.7801 90.7094 56.0024 91.0081 56.2248C91.3519 56.4808 91.696 56.737 92.0455 56.9864C92.0633 56.9991 92.0812 57.0131 92.0995 57.0275C92.2026 57.1084 92.3192 57.1999 92.498 57.1118C92.8931 56.9164 93.293 56.7309 93.6929 56.5454C93.9414 56.4302 94.1898 56.3149 94.4371 56.1973C94.923 55.9662 95.4081 55.7339 95.8932 55.5017C96.488 55.2169 97.0833 54.9319 97.6793 54.6493C97.741 54.6249 97.8098 54.6257 97.8708 54.6518C98.0673 54.7492 98.2624 54.8492 98.4576 54.9492C98.7584 55.1034 99.0596 55.2577 99.3648 55.4022C99.3979 55.418 99.4302 55.4373 99.4626 55.4567C99.5911 55.5338 99.7217 55.612 99.9157 55.4732C100.637 54.9618 101.371 54.4666 102.105 53.9714L102.106 53.9703C102.326 53.8222 102.546 53.6738 102.765 53.5253C103.029 53.3458 103.296 53.1685 103.573 52.9837C103.703 52.8972 103.835 52.8092 103.971 52.7185C103.836 52.6499 103.705 52.5824 103.575 52.516L103.574 52.5157C103.18 52.314 102.805 52.1218 102.427 51.9352C102.288 51.8667 102.227 51.7844 102.228 51.6185C102.23 50.2909 102.231 48.9634 102.231 47.6358V47.6321C102.232 45.5179 102.233 43.4036 102.24 41.2888C102.24 40.8702 102.325 40.4448 102.611 40.0972C102.648 40.0572 102.669 40.0048 102.669 39.9504C102.662 39.9158 102.656 39.8811 102.649 39.8463C102.618 39.6764 102.586 39.5049 102.522 39.3472C102.114 38.3476 101.282 37.7885 100.447 37.3312L96.5785 40.9873C97.0506 41.3559 97.1661 41.7568 97.1691 42.1788C97.1779 45.8828 97.1795 49.5871 97.174 53.2918C97.174 53.3027 97.1752 53.3143 97.1765 53.3258C97.179 53.3488 97.1815 53.3717 97.174 53.3897C97.1644 53.408 97.1553 53.4279 97.1461 53.4481C97.116 53.514 97.0846 53.5827 97.0325 53.6105C96.7465 53.7578 96.4527 53.8934 96.1589 54.0236C96.0781 54.0594 95.963 54.0927 95.8905 54.0604C95.7336 53.988 95.5809 53.9062 95.4282 53.8243C95.2927 53.7517 95.157 53.679 95.0184 53.6129C94.8818 53.5478 94.8348 53.4695 94.8353 53.3192C94.8368 52.1376 94.837 50.956 94.8371 49.7744C94.8373 47.6681 94.8376 45.5619 94.846 43.4556C94.846 43.064 94.9067 42.6591 95.1834 42.3296C95.2441 42.2553 95.2759 42.1616 95.273 42.0657C95.2172 41.49 95.0027 40.9716 94.5992 40.5574C94.0013 39.9435 93.2492 39.5891 92.4383 39.3419C92.2825 39.2929 92.1885 39.31 92.0759 39.4256C91.0926 40.4295 90.1062 41.4308 89.1167 42.4295C88.9757 42.5721 88.8343 42.7141 88.707 42.8418C88.6474 42.9016 88.5908 42.9585 88.5389 43.0106C88.6334 43.0524 88.7294 43.0902 88.8247 43.1277C89.0339 43.21 89.2401 43.2912 89.4203 43.4115C89.8978 43.7307 89.9663 44.2629 89.9678 44.7789Z" fill="#949494"/>
<path fill-rule="evenodd" clip-rule="evenodd" d="M140.665 41.5258C140.652 40.3998 140.655 39.2738 140.659 38.1478C140.661 38.1155 140.669 38.0837 140.683 38.0546C140.697 38.0254 140.717 37.9995 140.741 37.9784C141.085 37.7467 141.433 37.5217 141.781 37.2966L141.79 37.2908C141.838 37.2601 141.885 37.2293 141.933 37.1986C141.996 37.1577 142.059 37.1167 142.122 37.0758C142.414 36.8867 142.706 36.6976 143.002 36.5161C143.036 36.4983 143.073 36.4875 143.111 36.4842C143.149 36.4809 143.187 36.4853 143.223 36.497C143.424 36.5739 143.623 36.6558 143.822 36.7375C144.014 36.8164 144.206 36.8954 144.398 36.9695C144.523 37.0174 144.542 37.0894 144.542 37.2069C144.539 37.8342 144.539 38.4621 144.539 39.0894V39.0917C144.539 39.2538 144.539 39.416 144.538 39.5782C144.537 39.9952 144.536 40.4127 144.543 40.8296C144.546 41.0083 144.513 41.1092 144.327 41.1865C143.834 41.3927 143.344 41.6068 142.854 41.8208C142.483 41.9826 142.112 42.1447 141.74 42.3032C141.698 42.3184 141.653 42.3248 141.608 42.3219C141.563 42.319 141.519 42.307 141.479 42.2865C141.255 42.1506 141.041 41.9983 140.839 41.8308C140.754 41.7588 140.665 41.6295 140.665 41.5258ZM142.274 37.6059C142.261 37.6295 142.252 37.6544 142.246 37.6803C142.243 38.6663 142.241 39.6524 142.24 40.6387C142.24 40.6774 142.241 40.7342 142.264 40.7518C142.452 40.8923 142.644 41.0289 142.856 41.1808L142.857 41.1813C142.905 41.2155 142.954 41.2504 143.004 41.2864C143.004 41.0944 143.004 40.9043 143.004 40.7159V40.7128C143.005 39.7806 143.005 38.8878 143 37.9926C142.996 37.9594 142.984 37.9276 142.965 37.8997C142.947 37.8718 142.922 37.8487 142.893 37.8321C142.751 37.7713 142.604 37.7208 142.452 37.6683C142.394 37.6481 142.334 37.6274 142.274 37.6059Z" fill="#949494"/>
<path d="M136.404 42.7477C136.4 42.6852 136.396 42.6266 136.396 42.568C136.396 42.1165 136.396 41.665 136.396 41.2134C136.397 40.067 136.397 38.9204 136.39 37.7733C136.388 37.5809 136.501 37.508 136.614 37.4434C137.32 37.0387 138.031 36.6411 138.742 36.2435C138.917 36.1451 139.093 36.0467 139.269 35.9483C139.295 35.9365 139.321 35.9263 139.348 35.9179C139.423 36.0387 139.497 36.1584 139.57 36.2769C139.75 36.5692 139.925 36.8538 140.114 37.1291C140.201 37.2549 140.171 37.3357 140.103 37.4282C139.909 37.6947 139.712 37.9596 139.511 38.2294C139.44 38.3244 139.369 38.42 139.297 38.5165L138.046 37.318V41.2526L140.176 41.7221C140.114 41.7778 140.054 41.8301 139.996 41.8805C139.879 41.9832 139.771 42.0778 139.665 42.1764C139.557 42.2749 139.451 42.3745 139.344 42.4742C139.204 42.6053 139.063 42.7364 138.92 42.8652C138.877 42.908 138.821 42.9344 138.761 42.9401C138.128 42.9178 137.498 42.8901 136.857 42.8618C136.708 42.8553 136.56 42.8487 136.41 42.8422C136.408 42.8095 136.406 42.7781 136.404 42.7477Z" fill="#949494"/>
</g>
</svg>
