<svg width="200" height="100" viewBox="0 0 200 100" fill="none" xmlns="http://www.w3.org/2000/svg">
<mask id="mask0_2937_561" style="mask-type:alpha" maskUnits="userSpaceOnUse" x="0" y="0" width="200" height="100">
<rect width="200" height="100" fill="#222222"/>
</mask>
<g mask="url(#mask0_2937_561)">
<path d="M25 40.4807V50V59.5193C25 62.546 27.4975 65 30.5779 65H40.2659L25 50L40.2659 35L45.1099 39.7603L34.6894 49.9993L40.2659 55.4794L50.6865 45.2397L55.5305 49.9993V35H40.2659H30.5779C27.4975 35 25 37.454 25 40.4807Z" fill="#949494"/>
<path d="M55.5312 59.5186V50L45.1093 60.2397L49.954 65C53.0351 65 55.5325 62.546 55.5312 59.5186Z" fill="#949494"/>
<path d="M65.9261 38.6902H73.6255V35.4483H62.1974V53.6101H65.9261V46.2819H72.0424V43.0658H65.9261V38.6902Z" fill="#949494"/>
<path d="M75.0467 37.056C75.0467 35.8966 76.0663 35 77.2733 35C78.4803 35 79.4999 35.8959 79.4999 37.056C79.4999 38.2161 78.5072 39.1385 77.2733 39.1385C76.0394 39.1385 75.0467 38.2161 75.0467 37.056Z" fill="#949494"/>
<path d="M75.5292 53.6095V41.2998H79.0436V53.6095H75.5292Z" fill="#949494"/>
<path d="M94.1471 53.6095V46.8613L94.1465 46.862C94.1734 43.1718 92.457 40.984 89.1839 40.984C87.9499 40.984 85.9646 41.7216 85.4282 43.3823V41.2998H81.9138V53.6095H85.4282V47.1514C85.4282 44.9106 87.0375 44.2518 88.2451 44.2518C89.4527 44.2518 90.6327 45.1218 90.6327 47.0461V53.6095H94.1471Z" fill="#949494"/>
<path d="M96.4533 48.4697H98.8678C98.9487 50.0775 100.504 51.7117 102.973 51.7117C105.441 51.7117 106.701 50.1828 106.701 48.575C106.701 46.809 105.065 46.0184 103.509 45.6224L101.121 45.0424C97.2047 44.12 96.5873 41.8527 96.5873 40.3768C96.5873 37.2401 99.4582 35.1311 102.677 35.1311C105.895 35.1311 108.525 37.1606 108.525 40.4033H106.11C106.11 38.5843 104.581 37.3454 102.596 37.3454C100.745 37.3454 99.0282 38.5578 99.0282 40.3503C99.0282 40.9833 99.2425 42.248 101.711 42.8811L104.126 43.5141C107.265 44.3312 109.142 45.9125 109.142 48.4962C109.142 51.3164 106.808 53.926 102.972 53.926C99.1354 53.926 96.4802 51.2899 96.4533 48.4697Z" fill="#949494"/>
<path fill-rule="evenodd" clip-rule="evenodd" d="M117.404 40.9833C113.837 40.9833 110.859 43.5399 110.859 47.4414C110.859 51.3429 113.836 53.926 117.404 53.926C120.973 53.926 123.977 51.3429 123.977 47.4414C123.977 43.5399 120.972 40.9833 117.404 40.9833ZM117.404 43.1446C119.712 43.1446 121.643 44.9106 121.643 47.4414C121.643 49.998 119.685 51.764 117.404 51.764C115.124 51.764 113.219 49.9722 113.219 47.4414C113.219 44.9106 115.097 43.1446 117.404 43.1446Z" fill="#949494"/>
<path d="M137.926 41.2998V53.6095H135.592V51.6852C134.841 53.2406 132.829 53.9253 131.434 53.9253C128.295 53.9253 126.364 51.8693 126.391 48.4161V41.2998H128.724V48.3638C128.724 50.4463 129.985 51.764 131.729 51.764C133.472 51.764 135.565 50.7363 135.591 48.0738V41.2998H137.926Z" fill="#949494"/>
<path d="M148.979 43.6194L149.354 41.4581C148.978 41.221 148.067 40.984 147.181 40.984C145.518 40.984 144.31 41.9329 143.667 44.0942V41.2998H141.306V53.6095H143.667V49.1021C143.667 45.8602 144.66 43.1976 147.154 43.1976C147.638 43.1976 148.308 43.3029 148.979 43.6194Z" fill="#949494"/>
<path d="M149.702 47.4407C149.703 43.5395 152.842 40.9833 156.436 40.9833C158.394 40.9833 160.111 41.7475 161.211 42.934L159.736 44.4365C158.958 43.6459 157.832 43.1446 156.517 43.1446C154.049 43.1446 152.064 44.9106 152.064 47.4414C152.064 49.9722 154.049 51.764 156.517 51.764C157.832 51.764 158.958 51.2634 159.736 50.4721L161.211 51.9746C160.111 53.187 158.394 53.9253 156.436 53.9253C152.841 53.9253 149.702 51.3422 149.702 47.4407Z" fill="#949494"/>
<path fill-rule="evenodd" clip-rule="evenodd" d="M164.752 48.4433H174.946L174.946 48.4406C174.973 48.0983 175 47.7566 175 47.4142C175 43.5134 172.345 40.9827 168.777 40.9827C165.208 40.9827 162.338 43.5128 162.338 47.4142C162.338 51.3157 165.209 53.9253 168.777 53.9253C171.191 53.9253 173.445 52.7652 174.517 50.6304L172.505 49.8398C171.781 51.0787 170.386 51.764 168.857 51.764C166.71 51.764 165.101 50.631 164.752 48.4433ZM168.776 43.1446C170.841 43.1446 172.37 44.3577 172.666 46.466H164.779C165.154 44.2518 166.71 43.1446 168.776 43.1446Z" fill="#949494"/>
<path fill-rule="evenodd" clip-rule="evenodd" d="M67.1823 64.8888L66.5495 63.2466H63.7555L63.1227 64.8888H62.2257L64.699 58.4975H65.6054L68.0786 64.8888H67.1823ZM66.2664 62.505L65.1525 59.602L64.0385 62.505H66.2664Z" fill="#949494"/>
<path d="M72.6948 58.3863C70.8539 58.3863 69.391 59.8983 69.3907 61.7064C69.391 63.5151 70.8546 64.9987 72.6948 64.9987C73.6956 64.9987 74.5642 64.5815 75.1397 63.9134L74.5164 63.3943C74.0817 63.8955 73.4213 64.22 72.6941 64.22C71.3254 64.22 70.2492 63.0791 70.2492 61.7064C70.2492 60.3337 71.3254 59.165 72.6941 59.165C73.4213 59.165 74.0824 59.4895 74.5164 59.9907L75.1397 59.4716C74.5642 58.8041 73.6956 58.3863 72.6948 58.3863Z" fill="#949494"/>
<path d="M76.7436 61.7064C76.744 59.8983 78.2069 58.3863 80.0478 58.3863C81.0485 58.3863 81.9172 58.8041 82.4927 59.4716L81.8693 59.9907C81.4353 59.4895 80.7743 59.165 80.0471 59.165C78.6784 59.165 77.6022 60.3337 77.6022 61.7064C77.6022 63.0791 78.6784 64.22 80.0471 64.22C80.7743 64.22 81.4347 63.8955 81.8693 63.3943L82.4927 63.9134C81.9172 64.5815 81.0485 64.9987 80.0478 64.9987C78.2076 64.9987 76.744 63.5151 76.7436 61.7064Z" fill="#949494"/>
<path fill-rule="evenodd" clip-rule="evenodd" d="M87.3825 58.3863C85.532 58.3863 84.0972 59.8888 84.0972 61.7071C84.0972 63.5161 85.5226 65 87.3825 65C89.2425 65 90.6867 63.5254 90.6867 61.7071C90.6867 59.8888 89.2331 58.3863 87.3825 58.3863ZM87.3825 59.1657C88.7701 59.1657 89.8275 60.3344 89.8275 61.7071C89.8275 63.0705 88.7512 64.2206 87.3825 64.2206C86.0138 64.2206 84.9565 63.0797 84.9565 61.7071C84.9565 60.3344 85.995 59.1657 87.3825 59.1657Z" fill="#949494"/>
<path d="M92.9227 62.7089V58.4975H93.7819V62.7089C93.7819 63.72 94.4807 64.1928 95.2921 64.1928C96.1035 64.1928 96.8024 63.72 96.8024 62.7089V58.4975H97.6616V62.7089C97.6616 64.165 96.5759 65 95.2921 65C94.0084 65 92.9227 64.165 92.9227 62.7089Z" fill="#949494"/>
<path d="M105.034 58.4975H104.175V63.3486L101.191 58.4975H100.342V64.8888H101.201V60.0192L104.203 64.8888H105.034V58.4975Z" fill="#949494"/>
<path d="M111.886 58.4975V59.2769H109.904V64.8888H109.044V59.2769H107.062V58.4975H111.886Z" fill="#949494"/>
<path d="M113.925 58.4975V64.8888H114.784V58.4975H113.925Z" fill="#949494"/>
<path d="M121.363 58.4975H122.223V64.8888H121.392L118.389 60.0192V64.8888H117.53V58.4975H118.38L121.363 63.3486V58.4975Z" fill="#949494"/>
<path d="M127.811 58.3863C125.96 58.3863 124.516 59.8888 124.516 61.7071C124.516 63.5161 125.96 65 127.811 65C129.661 65 130.888 63.924 130.888 61.6885H128.057V62.4209H129.945C129.945 63.4413 128.982 64.2206 127.811 64.2206C126.443 64.2206 125.376 63.0797 125.376 61.7071C125.376 60.3344 126.443 59.1657 127.811 59.1657C128.425 59.1657 128.991 59.4067 129.406 59.7682L130.001 59.2213C129.434 58.7108 128.67 58.3863 127.811 58.3863Z" fill="#949494"/>
</g>
</svg>
