<svg width="383" height="76" viewBox="0 0 383 76" fill="none" xmlns="http://www.w3.org/2000/svg">
<path d="M0 13.886V37.9992L38.0144 0H13.8893C10.2056 0 6.67284 1.46299 4.06809 4.06711C1.46334 6.67123 0 10.2032 0 13.886Z" fill="white"/>
<path d="M13.8893 75.9977H38.0144L0 37.9985V62.1117C0 65.7945 1.46334 69.3265 4.06809 71.9306C6.67284 74.5347 10.2056 75.9977 13.8893 75.9977Z" fill="white"/>
<path d="M76.0163 37.9985V62.1117C76.0163 65.7945 74.553 69.3265 71.9483 71.9306C69.3435 74.5347 65.8107 75.9977 62.127 75.9977L50.0645 63.938L76.0163 37.9985Z" fill="white"/>
<path d="M76.0166 0V37.9992L63.954 25.9395L38.0082 51.879L24.125 37.9992L50.0708 12.0596L38.0082 0H76.0166Z" fill="#23C185"/>
<path d="M129.959 9.34463H110.791V20.4303H126.014V28.5816H110.791V47.1307H101.505V1.13239H129.959V9.34463Z" fill="white"/>
<path d="M133.521 5.20496C133.521 2.27071 136.055 0 139.063 0C142.071 0 144.61 2.27071 144.61 5.20496C144.529 6.61999 143.909 7.95037 142.878 8.92345C141.847 9.89652 140.483 10.4386 139.066 10.4386C137.648 10.4386 136.284 9.89652 135.253 8.92345C134.222 7.95037 133.603 6.61999 133.521 5.20496ZM134.739 47.1428V15.9558H143.489V47.1306L134.739 47.1428Z" fill="white"/>
<path d="M181.059 30.0489V47.1309H172.309V30.5177C172.309 25.6475 169.368 23.4377 166.36 23.4377C163.224 23.4377 159.352 25.1057 159.352 30.7855V47.1309H150.602V15.956H159.352V21.234C160.685 17.0274 165.63 15.1463 168.698 15.1463C176.852 15.1585 181.126 20.6983 181.059 30.0489Z" fill="white"/>
<path d="M186.801 34.1214H192.811C193.012 38.194 196.884 42.3336 203.028 42.3336C208.977 42.3336 212.314 38.4618 212.314 34.4196C212.314 29.9452 208.241 27.9424 204.398 26.9379L198.455 25.4708C188.713 23.1331 187.166 17.3925 187.166 13.6486C187.166 5.70417 194.309 0.365295 202.328 0.365295C210.347 0.365295 216.887 5.50327 216.887 13.7155H210.853C210.853 9.11325 207.047 5.97204 202.103 5.97204C197.493 5.97204 193.219 9.04631 193.219 13.5816C193.219 15.1888 193.755 18.3908 199.917 19.998L205.927 21.599C213.745 23.6688 218.416 27.6867 218.416 34.2187C218.416 41.3656 212.607 47.9769 203.053 47.9769C193.347 47.9464 186.868 41.2683 186.801 34.1214Z" fill="white"/>
<path d="M222.666 31.516C222.666 21.6357 230.083 15.1584 238.967 15.1584C247.851 15.1584 255.304 21.6357 255.304 31.516C255.304 41.3962 247.826 47.9526 238.942 47.9526C230.058 47.9526 222.666 41.4023 222.666 31.516ZM249.519 31.516C249.519 25.1057 244.709 20.6312 238.967 20.6312C233.225 20.6312 228.548 25.1057 228.548 31.516C228.548 37.9263 233.285 42.4737 238.967 42.4737C244.648 42.4737 249.519 37.9993 249.519 31.516Z" fill="white"/>
<path d="M284.252 15.9557H290.061V47.1306H284.252V42.2605C282.383 46.2053 277.371 47.9403 273.9 47.9403C266.082 47.9403 261.272 42.7293 261.339 33.9813V15.9557H267.154V33.8535C267.154 39.1315 270.29 42.4675 274.631 42.4675C278.973 42.4675 284.185 39.862 284.252 33.1168V15.9557Z" fill="white"/>
<path d="M318.515 16.3577L317.577 21.8366C316.16 21.1515 314.609 20.7857 313.035 20.7652C306.824 20.7652 304.352 27.5103 304.352 35.7225V47.1308H298.476V15.9559H304.352V23.0359C305.959 17.557 308.961 15.1584 313.102 15.1584C315.306 15.1584 317.577 15.755 318.515 16.3577Z" fill="white"/>
<path d="M319.386 31.5158C319.386 21.6356 327.198 15.1583 336.149 15.1583C338.365 15.1134 340.566 15.5297 342.612 16.3807C344.658 17.2317 346.505 18.4988 348.035 20.1015L344.382 23.9062C343.336 22.8476 342.087 22.0116 340.71 21.4487C339.333 20.8858 337.856 20.6077 336.368 20.6311C330.224 20.6311 325.28 25.1055 325.28 31.5158C325.28 37.9261 330.224 42.4736 336.368 42.4736C337.856 42.4982 339.333 42.2212 340.71 41.6594C342.087 41.0975 343.336 40.2624 344.382 39.2045L348.035 43.0093C345.301 46.0531 341.027 47.9525 336.149 47.9525C327.198 47.9464 319.386 41.4022 319.386 31.5158Z" fill="white"/>
<path d="M382.238 34.0543H356.853C357.723 39.6002 361.724 42.4675 367.076 42.4675C370.882 42.4675 374.383 40.7325 376.161 37.5973L381.167 39.6063C378.5 45.0121 372.885 47.9524 366.875 47.9524C357.991 47.9524 350.843 41.3412 350.843 31.4549C350.843 21.5685 357.991 15.1643 366.875 15.1643C375.759 15.1643 382.372 21.5746 382.372 31.4549C382.372 32.3193 382.305 33.1899 382.238 34.0543ZM376.557 29.0442C375.826 23.7053 372.015 20.631 366.875 20.631C361.596 20.631 357.857 23.4374 356.92 29.0442H376.557Z" fill="white"/>
<path d="M113.921 75.7427L112.344 71.5848H105.384L103.813 75.7427H101.578L107.734 59.5496H109.993L116.149 75.7427H113.921ZM106.121 69.6551H111.668L108.867 62.3499L106.121 69.6551Z" fill="white"/>
<path d="M119.418 67.6591C119.397 65.454 120.251 63.3303 121.793 61.7534C123.335 60.1765 125.439 59.2749 127.645 59.246C128.799 59.2301 129.944 59.4684 130.996 59.9439C132.048 60.4194 132.983 61.1205 133.734 61.9976L132.187 63.3125C131.627 62.6567 130.932 62.13 130.149 61.7685C129.365 61.407 128.513 61.2193 127.651 61.2184C124.241 61.2184 121.562 64.183 121.562 67.6591C121.529 69.3095 122.151 70.9058 123.292 72.099C124.433 73.2922 126 73.9853 127.651 74.0268C128.513 74.0254 129.364 73.8382 130.147 73.4778C130.93 73.1175 131.626 72.5925 132.187 71.9387L133.734 73.2536C132.983 74.1299 132.048 74.8301 130.995 75.3046C129.943 75.7791 128.799 76.0162 127.645 75.9992C126.556 75.9928 125.48 75.7719 124.477 75.3491C123.475 74.9263 122.565 74.3099 121.801 73.5352C121.037 72.7605 120.433 71.8427 120.024 70.8344C119.615 69.8261 119.41 68.7471 119.418 67.6591Z" fill="white"/>
<path d="M137.729 67.659C137.708 65.4549 138.561 63.3323 140.101 61.7555C141.642 60.1788 143.745 59.2764 145.949 59.2459C147.104 59.2305 148.248 59.4689 149.3 59.9444C150.352 60.4199 151.287 61.1208 152.038 61.9975L150.486 63.3125C149.926 62.6557 149.231 62.1283 148.448 61.7667C147.664 61.4051 146.812 61.218 145.949 61.2183C142.545 61.2183 139.86 64.183 139.86 67.659C139.826 69.3099 140.447 70.9071 141.589 72.1007C142.73 73.2942 144.298 73.9868 145.949 74.0267C146.811 74.0266 147.663 73.8399 148.446 73.4794C149.229 73.119 149.925 72.5934 150.486 71.9387L152.038 73.2536C151.287 74.1295 150.352 74.8295 149.299 75.304C148.247 75.7784 147.103 76.0157 145.949 75.9991C144.861 75.9928 143.785 75.7718 142.783 75.3489C141.78 74.926 140.871 74.3096 140.108 73.5348C139.344 72.76 138.741 71.8422 138.333 70.8339C137.924 69.8256 137.719 68.7467 137.729 67.659Z" fill="white"/>
<path d="M156.051 67.6583C156.078 66.0402 156.582 64.4661 157.501 63.1338C158.42 61.8015 159.712 60.7706 161.216 60.1708C162.719 59.5709 164.366 59.4288 165.95 59.7623C167.534 60.0959 168.984 60.8903 170.118 62.0455C171.251 63.2007 172.018 64.6653 172.321 66.2549C172.624 67.8446 172.451 69.4884 171.822 70.9797C171.193 72.4709 170.137 73.743 168.787 74.636C167.438 75.529 165.854 76.003 164.235 75.9984C162.044 75.9759 159.951 75.0849 158.417 73.5212C156.883 71.9575 156.032 69.8488 156.051 67.6583ZM170.318 67.6583C170.318 64.1823 167.687 61.2176 164.229 61.2176C160.77 61.2176 158.182 64.1823 158.182 67.6583C158.182 71.1344 160.819 74.026 164.229 74.026C165.046 74.0079 165.852 73.8286 166.6 73.4985C167.347 73.1684 168.023 72.6939 168.587 72.1023C169.151 71.5107 169.592 70.8137 169.886 70.0511C170.18 69.2885 170.321 68.4753 170.3 67.6583H170.318Z" fill="white"/>
<path d="M178.009 70.1975V59.5258H180.146V70.1975C180.146 72.7604 181.888 73.9597 183.909 73.9597C185.931 73.9597 187.672 72.7421 187.672 70.1975V59.5258H189.81V70.1975C189.81 73.8866 187.106 75.999 183.909 75.999C180.712 75.999 178.009 73.9171 178.009 70.1975Z" fill="white"/>
<path d="M206.025 59.5258H208.162V75.7433H206.098L198.621 63.4037V75.7433H196.483V59.5502H198.596L206.025 71.8412V59.5258Z" fill="white"/>
<path d="M225.223 59.5258V61.5043H220.291V75.7433H218.16V61.5043H213.222V59.5258H225.223Z" fill="white"/>
<path d="M230.302 75.7427V59.5496H232.439V75.7427H230.302Z" fill="white"/>
<path d="M248.825 59.5258H250.962V75.7433H248.892L241.421 63.4037V75.7433H239.277V59.5502H241.396L248.825 71.8412V59.5258Z" fill="white"/>
<path d="M256.674 67.6585C256.656 66.5667 256.855 65.4821 257.258 64.4673C257.661 63.4525 258.261 62.5275 259.024 61.7455C259.786 60.9635 260.696 60.34 261.7 59.9109C262.704 59.4819 263.784 59.2557 264.876 59.2454C266.904 59.2326 268.862 59.9872 270.356 61.3578L268.877 62.7458C267.782 61.7725 266.371 61.2295 264.906 61.2178C261.497 61.2178 258.817 64.1825 258.817 67.6585C258.796 68.477 258.937 69.2916 259.232 70.0554C259.528 70.8191 259.971 71.5171 260.537 72.1089C261.103 72.7007 261.78 73.1748 262.53 73.5038C263.28 73.8329 264.088 74.0104 264.906 74.0262C267.817 74.0262 270.216 72.0538 270.216 69.4666H265.515V67.6098H272.567C272.567 73.2774 269.522 75.9986 264.906 75.9986C263.816 75.9979 262.737 75.7809 261.731 75.3601C260.726 74.9394 259.814 74.3233 259.048 73.5475C258.282 72.7718 257.678 71.8518 257.271 70.8409C256.863 69.83 256.66 68.7483 256.674 67.6585Z" fill="white"/>
</svg>
