<svg width="1280" height="624" viewBox="0 0 1280 624" fill="none" xmlns="http://www.w3.org/2000/svg">
<path d="M0 0H1280V624H0V0Z" fill="#161616"/>
<path d="M643.232 92.336C647.236 92.336 649.672 89.564 649.672 86.568C649.672 83.824 647.712 82.144 644.436 81.276L641.916 80.604C639.34 79.932 639.116 78.588 639.116 77.916C639.116 76.012 640.908 74.724 642.84 74.724C644.912 74.724 646.508 76.04 646.508 77.972H649.028C649.028 74.528 646.312 72.372 642.924 72.372C639.564 72.372 636.568 74.612 636.568 77.944C636.568 79.512 637.212 81.92 641.3 82.9L643.792 83.516C645.416 83.936 647.124 84.776 647.124 86.652C647.124 88.36 645.724 89.984 643.232 89.984C640.656 89.984 639.032 88.248 638.948 86.54H636.428C636.456 89.536 639.172 92.336 643.232 92.336ZM659.005 92.336C662.729 92.336 665.865 89.592 665.865 85.448C665.865 81.304 662.729 78.588 659.005 78.588C655.281 78.588 652.173 81.304 652.173 85.448C652.173 89.592 655.281 92.336 659.005 92.336ZM659.005 90.04C656.625 90.04 654.637 88.164 654.637 85.448C654.637 82.76 656.625 80.884 659.005 80.884C661.413 80.884 663.429 82.76 663.429 85.448C663.429 88.164 661.413 90.04 659.005 90.04ZM672.511 78.924V77.244C672.483 75.536 673.099 74.108 675.423 74.108H675.787V71.812H675.003C671.503 71.812 670.075 74.164 670.075 77.58V78.924H667.555V81.024H670.075V92H672.511V81.024H678.447V92H680.883V78.924H672.511ZM679.651 72.484C678.727 72.484 677.943 73.184 677.943 74.108C677.943 75.032 678.727 75.732 679.651 75.732C680.631 75.732 681.387 75.032 681.387 74.108C681.387 73.184 680.631 72.484 679.651 72.484ZM695.42 80.968C694.552 79.428 692.704 78.588 690.744 78.588C687.048 78.588 684.22 81.584 684.22 85.448C684.22 89.452 687.216 92.336 690.632 92.336C692.732 92.336 694.552 91.244 695.42 89.676V92H697.856V78.924H695.42V80.968ZM690.996 90.04C688.588 90.04 686.684 87.94 686.684 85.448C686.684 82.984 688.588 80.884 690.968 80.884C693.152 80.884 695.42 82.76 695.42 85.448C695.42 88.108 693.32 90.04 690.996 90.04ZM709.766 72.708V92H712.314V84.748H717.438C721.526 84.748 723.178 81.78 723.178 78.728C723.178 75.732 721.526 72.708 717.438 72.708H709.766ZM712.314 82.368V75.06H717.41C719.706 75.06 720.63 76.936 720.63 78.728C720.63 80.576 719.678 82.368 717.27 82.368H712.314ZM732.237 78.588C730.501 78.588 729.241 79.596 728.569 81.892V78.924H726.105V92H728.569V87.212C728.569 83.768 729.605 80.94 732.209 80.94C732.713 80.94 733.413 81.052 734.113 81.388L734.505 79.092C734.113 78.84 733.161 78.588 732.237 78.588ZM742.431 92.336C746.155 92.336 749.291 89.592 749.291 85.448C749.291 81.304 746.155 78.588 742.431 78.588C738.707 78.588 735.599 81.304 735.599 85.448C735.599 89.592 738.707 92.336 742.431 92.336ZM742.431 90.04C740.051 90.04 738.063 88.164 738.063 85.448C738.063 82.76 740.051 80.884 742.431 80.884C744.839 80.884 746.855 82.76 746.855 85.448C746.855 88.164 744.839 90.04 742.431 90.04Z" fill="white"/>
<path d="M1085.31 72.378C1084.19 72.378 1083.38 73.026 1082.95 74.502V72.594H1081.37V81H1082.95V77.922C1082.95 75.708 1083.62 73.89 1085.29 73.89C1085.62 73.89 1086.07 73.962 1086.52 74.178L1086.77 72.702C1086.52 72.54 1085.9 72.378 1085.31 72.378ZM1095.99 76.77C1095.99 74.106 1094.2 72.378 1091.81 72.378C1089.42 72.378 1087.49 74.106 1087.49 76.77C1087.49 79.434 1089.42 81.216 1091.81 81.216C1093.43 81.216 1094.94 80.424 1095.66 78.966L1094.31 78.426C1093.83 79.272 1092.89 79.74 1091.86 79.74C1090.42 79.74 1089.34 78.966 1089.11 77.472H1095.95C1095.97 77.238 1095.99 77.004 1095.99 76.77ZM1089.13 76.122C1089.38 74.61 1090.39 73.854 1091.81 73.854C1093.2 73.854 1094.22 74.682 1094.42 76.122H1089.13ZM1104.76 73.908C1104.2 72.936 1103.02 72.378 1101.76 72.378C1099.45 72.378 1097.56 74.124 1097.56 76.788C1097.56 79.434 1099.47 81.216 1101.77 81.216C1102.98 81.216 1104.2 80.64 1104.76 79.686V79.938C1104.76 82.782 1103.61 83.826 1101.76 83.826C1100.82 83.826 1099.83 83.304 1099.31 82.35L1097.98 83.052C1098.8 84.528 1100.23 85.302 1101.76 85.302C1104.53 85.302 1106.33 83.808 1106.33 79.83V72.594H1104.76V73.908ZM1101.9 79.74C1100.37 79.74 1099.15 78.444 1099.15 76.77C1099.15 75.078 1100.37 73.854 1101.9 73.854C1103.29 73.854 1104.76 74.952 1104.76 76.77C1104.76 78.57 1103.41 79.74 1101.9 79.74ZM1115.14 77.22C1115.12 79.038 1113.72 79.74 1112.55 79.74C1111.38 79.74 1110.53 78.84 1110.53 77.418V72.594H1108.96V77.454C1108.95 79.812 1110.24 81.216 1112.35 81.216C1113.28 81.216 1114.63 80.748 1115.14 79.686V81H1116.7V72.594H1115.14V77.22ZM1120.99 81V68.022H1119.42V81H1120.99ZM1130.34 73.908C1129.78 72.918 1128.59 72.378 1127.33 72.378C1124.96 72.378 1123.14 74.304 1123.14 76.788C1123.14 79.362 1125.06 81.216 1127.26 81.216C1128.61 81.216 1129.78 80.514 1130.34 79.506V81H1131.9V72.594H1130.34V73.908ZM1127.49 79.74C1125.95 79.74 1124.72 78.39 1124.72 76.788C1124.72 75.204 1125.95 73.854 1127.48 73.854C1128.88 73.854 1130.34 75.06 1130.34 76.788C1130.34 78.498 1128.99 79.74 1127.49 79.74ZM1138.59 72.378C1137.47 72.378 1136.66 73.026 1136.23 74.502V72.594H1134.65V81H1136.23V77.922C1136.23 75.708 1136.9 73.89 1138.57 73.89C1138.9 73.89 1139.35 73.962 1139.8 74.178L1140.05 72.702C1139.8 72.54 1139.18 72.378 1138.59 72.378Z" fill="white"/>
<path d="M152.632 86L153.332 83.676H154.942L154.256 86H155.558L156.258 83.676H157.798L158.162 82.43H156.608L157.308 80.036H158.862L159.212 78.79H157.658L158.372 76.354H157.056L156.342 78.79H154.746L155.446 76.354H154.13L153.43 78.79H151.904L151.554 80.036H153.066L152.38 82.43H150.854L150.504 83.676H152.044L151.33 86H152.632ZM154.382 80.036H155.992L155.292 82.43H153.682L154.382 80.036ZM163.851 86.168C166.511 86.168 167.211 84.04 167.211 81.436C167.211 78.818 166.511 76.718 163.851 76.718C161.191 76.718 160.477 78.818 160.477 81.436C160.477 84.04 161.191 86.168 163.851 86.168ZM163.851 84.656C162.493 84.656 162.115 83.186 162.115 81.436C162.115 79.672 162.493 78.23 163.851 78.23C165.209 78.23 165.587 79.672 165.587 81.436C165.587 83.186 165.209 84.656 163.851 84.656ZM174.447 80.848C175.427 80.498 175.707 79.588 175.707 78.832C175.707 77.362 174.643 76.354 172.963 76.354H169.211V86H173.257C175.259 86 176.225 84.614 176.225 83.256C176.225 82.192 175.623 81.086 174.447 80.848ZM173.999 79.07C173.999 79.77 173.607 80.246 172.893 80.246H170.919V77.88H172.893C173.635 77.88 173.999 78.398 173.999 79.07ZM170.919 84.474V81.688H173.033C174.055 81.688 174.503 82.402 174.503 83.088C174.503 83.816 173.985 84.474 172.991 84.474H170.919ZM182.41 81.814C182.998 81.128 183.432 80.274 183.432 79.476C183.432 77.824 182.27 76.718 180.478 76.718C178.742 76.718 177.664 77.768 177.454 79.308L178.924 79.588C179.008 78.776 179.554 78.23 180.422 78.23C181.248 78.23 181.794 78.72 181.794 79.448C181.794 79.812 181.5 80.372 181.038 80.932L177.524 85.174V86H183.558V84.474H180.128L182.41 81.814ZM191.373 76.354H185.521V86H187.229V82.024H190.505V80.498H187.229V77.88H191.373V76.354ZM197.339 81.814C197.927 81.128 198.361 80.274 198.361 79.476C198.361 77.824 197.199 76.718 195.407 76.718C193.671 76.718 192.593 77.768 192.383 79.308L193.853 79.588C193.937 78.776 194.483 78.23 195.351 78.23C196.177 78.23 196.723 78.72 196.723 79.448C196.723 79.812 196.429 80.372 195.967 80.932L192.453 85.174V86H198.487V84.474H195.057L197.339 81.814ZM205.141 80.792C205.715 80.498 206.149 79.854 206.149 79.042C206.149 77.684 204.959 76.718 203.363 76.718C201.767 76.718 200.577 77.684 200.577 79.042C200.577 79.854 201.011 80.498 201.585 80.792C200.563 81.142 199.849 82.094 199.849 83.27C199.849 84.978 201.375 86.168 203.363 86.168C205.351 86.168 206.877 84.978 206.877 83.256C206.877 82.094 206.163 81.128 205.141 80.792ZM203.363 78.132C204.035 78.132 204.539 78.622 204.539 79.21C204.539 79.798 204.035 80.26 203.363 80.26C202.705 80.26 202.187 79.798 202.187 79.21C202.187 78.622 202.705 78.132 203.363 78.132ZM203.363 84.698C202.313 84.698 201.529 83.998 201.529 83.116C201.529 82.206 202.327 81.534 203.363 81.534C204.385 81.534 205.183 82.206 205.183 83.116C205.183 83.998 204.441 84.698 203.363 84.698Z" fill="#0B2F28"/>
<path d="M152.632 204L153.332 201.676H154.942L154.256 204H155.558L156.258 201.676H157.798L158.162 200.43H156.608L157.308 198.036H158.862L159.212 196.79H157.658L158.372 194.354H157.056L156.342 196.79H154.746L155.446 194.354H154.13L153.43 196.79H151.904L151.554 198.036H153.066L152.38 200.43H150.854L150.504 201.676H152.044L151.33 204H152.632ZM154.382 198.036H155.992L155.292 200.43H153.682L154.382 198.036ZM162.647 200.038H166.343V198.484H162.647V195.88H166.875V194.354H160.953V204H167.015V202.474H162.647V200.038ZM172.787 199.072C173.529 198.708 173.977 198.022 173.977 197.21C173.991 195.684 172.815 194.718 171.205 194.718C170.085 194.718 169.119 195.236 168.531 196.02L169.497 197.014C169.847 196.524 170.477 196.216 171.065 196.216C171.807 196.216 172.311 196.636 172.339 197.266C172.367 197.98 171.765 198.526 170.785 198.526H170.141V199.8H171.051C172.045 199.8 172.759 200.402 172.759 201.27C172.759 202.082 172.059 202.684 171.037 202.684C170.323 202.684 169.721 202.278 169.301 201.592L168.111 202.446C168.727 203.552 169.791 204.168 171.107 204.168C173.039 204.168 174.397 203.006 174.397 201.326C174.397 200.248 173.767 199.408 172.787 199.072ZM178 200.038H181.696V198.484H178V195.88H182.228V194.354H176.306V204H182.368V202.474H178V200.038ZM183.674 196.356H187.636L183.856 204H185.746L190.17 194.984V194.83H183.674V196.356ZM193.217 200.038H196.913V198.484H193.217V195.88H197.445V194.354H191.523V204H197.585V202.474H193.217V200.038ZM202.741 198.092C201.803 198.092 201.117 198.498 200.669 199.03C200.697 197.434 201.607 196.23 202.839 196.23C203.455 196.23 204.057 196.538 204.379 197.238L205.737 196.552C205.149 195.222 203.973 194.718 202.839 194.718C200.151 194.718 199.003 197.21 199.003 199.716C199.003 202.516 200.319 204.168 202.503 204.168C204.533 204.168 205.835 202.768 205.835 201.074C205.835 199.478 204.589 198.092 202.741 198.092ZM202.475 202.642C201.495 202.628 200.781 201.928 200.781 201.018C200.809 200.136 201.565 199.506 202.559 199.506C203.511 199.534 204.197 200.192 204.197 201.06C204.197 201.956 203.469 202.642 202.475 202.642Z" fill="#E3E7E6"/>
<path d="M152.632 322L153.332 319.676H154.942L154.256 322H155.558L156.258 319.676H157.798L158.162 318.43H156.608L157.308 316.036H158.862L159.212 314.79H157.658L158.372 312.354H157.056L156.342 314.79H154.746L155.446 312.354H154.13L153.43 314.79H151.904L151.554 316.036H153.066L152.38 318.43H150.854L150.504 319.676H152.044L151.33 322H152.632ZM154.382 316.036H155.992L155.292 318.43H153.682L154.382 316.036ZM166.805 312.354H160.953V322H162.661V318.024H165.937V316.498H162.661V313.88H166.805V312.354ZM174.365 312.354H168.513V322H170.221V318.024H173.497V316.498H170.221V313.88H174.365V312.354ZM181.926 312.354H176.074V322H177.782V318.024H181.058V316.498H177.782V313.88H181.926V312.354ZM189.486 312.354H183.634V322H185.342V318.024H188.618V316.498H185.342V313.88H189.486V312.354ZM197.047 312.354H191.195V322H192.903V318.024H196.179V316.498H192.903V313.88H197.047V312.354ZM204.607 312.354H198.755V322H200.463V318.024H203.739V316.498H200.463V313.88H204.607V312.354Z" fill="white"/>
<path d="M152.632 440L153.332 437.676H154.942L154.256 440H155.558L156.258 437.676H157.798L158.162 436.43H156.608L157.308 434.036H158.862L159.212 432.79H157.658L158.372 430.354H157.056L156.342 432.79H154.746L155.446 430.354H154.13L153.43 432.79H151.904L151.554 434.036H153.066L152.38 436.43H150.854L150.504 437.676H152.044L151.33 440H152.632ZM154.382 434.036H155.992L155.292 436.43H153.682L154.382 434.036ZM165.279 435.814C165.867 435.128 166.301 434.274 166.301 433.476C166.301 431.824 165.139 430.718 163.347 430.718C161.611 430.718 160.533 431.768 160.323 433.308L161.793 433.588C161.877 432.776 162.423 432.23 163.291 432.23C164.117 432.23 164.663 432.72 164.663 433.448C164.663 433.812 164.369 434.372 163.907 434.932L160.393 439.174V440H166.427V438.474H162.997L165.279 435.814ZM172.226 435.072C172.968 434.708 173.416 434.022 173.416 433.21C173.43 431.684 172.254 430.718 170.644 430.718C169.524 430.718 168.558 431.236 167.97 432.02L168.936 433.014C169.286 432.524 169.916 432.216 170.504 432.216C171.246 432.216 171.75 432.636 171.778 433.266C171.806 433.98 171.204 434.526 170.224 434.526H169.58V435.8H170.49C171.484 435.8 172.198 436.402 172.198 437.27C172.198 438.082 171.498 438.684 170.476 438.684C169.762 438.684 169.16 438.278 168.74 437.592L167.55 438.446C168.166 439.552 169.23 440.168 170.546 440.168C172.478 440.168 173.836 439.006 173.836 437.326C173.836 436.248 173.206 435.408 172.226 435.072ZM180.03 440.168C181.612 440.168 182.998 439.426 183.866 438.292L182.578 437.312C181.99 438.082 181.122 438.572 180.072 438.572C178.21 438.572 176.852 437.032 176.852 435.184C176.852 433.336 178.238 431.782 180.072 431.782C181.122 431.782 181.99 432.272 182.578 433.042L183.866 432.062C182.998 430.928 181.612 430.186 180.03 430.186C177.314 430.186 175.13 432.454 175.13 435.184C175.13 437.914 177.314 440.168 180.03 440.168ZM184.626 432.244V433.756L186.684 432.944V440H188.294V430.718H188.182L184.626 432.244ZM195.447 434.792C196.021 434.498 196.455 433.854 196.455 433.042C196.455 431.684 195.265 430.718 193.669 430.718C192.073 430.718 190.883 431.684 190.883 433.042C190.883 433.854 191.317 434.498 191.891 434.792C190.869 435.142 190.155 436.094 190.155 437.27C190.155 438.978 191.681 440.168 193.669 440.168C195.657 440.168 197.183 438.978 197.183 437.256C197.183 436.094 196.469 435.128 195.447 434.792ZM193.669 432.132C194.341 432.132 194.845 432.622 194.845 433.21C194.845 433.798 194.341 434.26 193.669 434.26C193.011 434.26 192.493 433.798 192.493 433.21C192.493 432.622 193.011 432.132 193.669 432.132ZM193.669 438.698C192.619 438.698 191.835 437.998 191.835 437.116C191.835 436.206 192.633 435.534 193.669 435.534C194.691 435.534 195.489 436.206 195.489 437.116C195.489 437.998 194.747 438.698 193.669 438.698ZM202.109 433.896C201.423 433.896 200.779 434.134 200.317 434.47L200.737 432.342H204.489V430.83H199.407L198.595 435.422L199.575 436.094C200.191 435.59 200.947 435.268 201.675 435.268C202.697 435.268 203.467 435.94 203.467 436.934C203.467 437.942 202.697 438.656 201.591 438.656C200.737 438.656 199.953 438.11 199.631 437.396L198.343 438.208C198.917 439.342 200.219 440.168 201.675 440.168C203.565 440.168 205.105 438.908 205.105 436.92C205.105 435.142 203.873 433.896 202.109 433.896Z" fill="#23C185"/>
<path d="M647.46 471L642.22 457.22H640.3L635.06 471H636.96L638.3 467.46H644.22L645.56 471H647.46ZM641.26 459.6L643.62 465.86H638.9L641.26 459.6ZM656.58 463.66C657.88 463.16 658.32 461.94 658.32 460.74C658.32 458.58 656.88 457.22 654.6 457.22H649.42V471H655.04C657.56 471 659.06 469.1 659.06 467.12C659.06 465.62 658.2 464.02 656.58 463.66ZM656.5 460.92C656.5 462.1 655.88 462.96 654.64 462.96H651.24V458.9H654.58C655.84 458.9 656.5 459.74 656.5 460.92ZM651.24 469.32V464.56H654.76C656.44 464.56 657.24 465.72 657.24 466.96C657.24 468.24 656.36 469.32 654.66 469.32H651.24ZM668.038 471.24C670.158 471.24 671.998 470.34 673.218 468.9L671.898 467.78C670.978 468.86 669.578 469.56 668.038 469.56C665.138 469.56 662.858 467.08 662.858 464.14C662.858 461.18 665.138 458.66 668.038 458.66C669.578 458.66 670.978 459.36 671.898 460.44L673.218 459.32C671.998 457.88 670.158 456.98 668.038 456.98C664.138 456.98 661.038 460.24 661.038 464.14C661.038 468.04 664.138 471.24 668.038 471.24ZM675.787 457.22V471H681.127C685.047 471 687.347 468.04 687.347 464.14C687.347 460.22 685.047 457.22 681.127 457.22H675.787ZM677.607 469.32V458.9H681.127C684.027 458.9 685.527 461.2 685.527 464.14C685.527 467.08 684.027 469.32 681.127 469.32H677.607ZM692.099 465.08H697.619V463.38H692.099V458.9H698.419V457.22H690.299V471H698.619V469.32H692.099V465.08ZM709.588 457.22H701.568V471H703.388V465.08H708.308V463.38H703.388V458.9H709.588V457.22ZM717.94 471.24C721.86 471.24 724.46 468.92 724.46 464.1H718.46V465.68H722.46C722.46 467.88 720.42 469.56 717.94 469.56C715.04 469.56 712.78 467.1 712.78 464.14C712.78 461.18 715.04 458.66 717.94 458.66C719.24 458.66 720.44 459.18 721.32 459.96L722.58 458.78C721.38 457.68 719.76 456.98 717.94 456.98C714.02 456.98 710.96 460.22 710.96 464.14C710.96 468.04 714.02 471.24 717.94 471.24ZM735.637 463.32H728.877V457.22H727.057V471H728.877V464.98H735.637V471H737.457V457.22H735.637V463.32ZM743.095 471V457.22H741.275V471H743.095ZM744.64 475.66C747.74 475.66 748.9 473.6 748.9 471.2V457.22H747.08V471.2C747.08 472.66 746.42 473.9 744.64 473.9C744.48 473.9 743.66 473.84 743.36 473.74L743.18 475.44C743.64 475.54 744.28 475.66 744.64 475.66ZM756.041 464.12L761.361 457.22H759.141L754.521 463.24V457.22H752.721V471H754.521V465.1L760.041 471H762.461L756.041 464.12ZM765.967 457.22H764.147V471H771.607V469.32H765.967V457.22ZM787.951 457.22H786.311L781.411 467.44L776.491 457.22H774.851L773.171 471H774.951L776.211 460.5L780.631 469.5H782.211L786.591 460.5L787.871 471H789.651L787.951 457.22ZM800.802 467.68L794.482 457.22H792.682V471H794.502V460.5L800.862 471H802.622V457.22H800.802V467.68ZM812.451 471.24C816.391 471.24 819.451 468.04 819.451 464.14C819.451 460.22 816.391 456.98 812.451 456.98C808.531 456.98 805.491 460.22 805.491 464.14C805.491 468.04 808.531 471.24 812.451 471.24ZM812.451 469.56C809.551 469.56 807.311 467.08 807.311 464.14C807.311 461.18 809.551 458.66 812.451 458.66C815.391 458.66 817.631 461.18 817.631 464.14C817.631 467.08 815.391 469.56 812.451 469.56ZM822.35 457.22V471H824.17V465.82H827.83C830.75 465.82 831.93 463.7 831.93 461.52C831.93 459.38 830.75 457.22 827.83 457.22H822.35ZM824.17 464.12V458.9H827.81C829.45 458.9 830.11 460.24 830.11 461.52C830.11 462.84 829.43 464.12 827.71 464.12H824.17ZM847.557 464.14C847.557 460.22 844.497 456.98 840.557 456.98C836.637 456.98 833.597 460.22 833.597 464.14C833.597 468.04 836.637 471.24 840.557 471.24C841.357 471.24 842.097 471.12 842.797 470.88L844.317 473.3L845.717 472.44L844.297 470.16C846.277 468.9 847.557 466.66 847.557 464.14ZM840.557 469.56C837.657 469.56 835.417 467.08 835.417 464.14C835.417 461.18 837.657 458.66 840.557 458.66C843.497 458.66 845.737 461.18 845.737 464.14C845.737 466.02 844.817 467.72 843.377 468.7L841.757 466.12L840.377 466.98L841.877 469.38C841.457 469.5 841.017 469.56 840.557 469.56ZM859.855 471L856.195 465.82C858.655 465.64 859.795 463.52 859.795 461.52C859.795 459.38 858.635 457.22 855.635 457.22H850.455V471H852.275V465.8H854.055L857.675 471H859.855ZM855.675 458.9C857.075 458.9 857.975 459.98 857.975 461.52C857.975 463.08 857.175 464.14 855.155 464.14H852.275V458.9H855.675ZM866.778 471.24C869.638 471.24 871.378 469.26 871.378 467.12C871.378 465.16 869.978 463.96 867.638 463.34L865.838 462.86C863.998 462.38 863.838 461.42 863.838 460.94C863.838 459.58 865.118 458.66 866.498 458.66C867.978 458.66 869.118 459.6 869.118 460.98H870.918C870.918 458.52 868.978 456.98 866.558 456.98C864.158 456.98 862.018 458.58 862.018 460.96C862.018 462.08 862.478 463.8 865.398 464.5L867.178 464.94C868.338 465.24 869.558 465.84 869.558 467.18C869.558 468.4 868.558 469.56 866.778 469.56C864.938 469.56 863.778 468.32 863.718 467.1H861.918C861.938 469.24 863.878 471.24 866.778 471.24ZM872.412 457.22V458.9H876.612V471H878.432V458.9H882.632V457.22H872.412ZM889.807 471.24C892.527 471.24 894.827 469.44 894.827 466.3V457.22H893.007V466.3C893.007 468.48 891.527 469.5 889.807 469.5C888.087 469.5 886.607 468.48 886.607 466.3V457.22H884.787V466.3C884.787 469.44 887.087 471.24 889.807 471.24ZM902.122 467.96L898.962 457.22H897.102L901.262 471H903.002L907.142 457.22H905.282L902.122 467.96ZM919.976 468.08L917.396 459.1H916.016L913.456 468.12L909.936 457.22H907.996L912.656 471H914.236L916.696 462.3L919.176 471H920.756L925.416 457.22H923.476L919.976 468.08ZM932.882 463.6L937.182 457.22H935.022L931.802 462.12L928.602 457.22H926.442L930.722 463.58L925.902 471H928.062L931.802 465.08L935.542 471H937.722L932.882 463.6ZM944.131 462.86L940.131 457.22H937.971L943.211 464.64V471H945.031V464.64L950.331 457.22H948.151L944.131 462.86ZM951.431 457.22V458.9H958.491L951.171 469.44V471H960.771V469.32H953.411L960.771 458.78V457.22H951.431ZM643.88 487.12C643.26 486.02 641.94 485.42 640.54 485.42C637.9 485.42 635.88 487.56 635.88 490.32C635.88 493.18 638.02 495.24 640.46 495.24C641.96 495.24 643.26 494.46 643.88 493.34V495H645.62V485.66H643.88V487.12ZM640.72 493.6C639 493.6 637.64 492.1 637.64 490.32C637.64 488.56 639 487.06 640.7 487.06C642.26 487.06 643.88 488.4 643.88 490.32C643.88 492.22 642.38 493.6 640.72 493.6ZM653.748 485.42C652.348 485.42 651.028 486.02 650.408 487.12V480.58H648.668V495H650.408V493.54C651.028 494.6 652.388 495.24 653.728 495.24C656.288 495.24 658.408 493.26 658.408 490.32C658.408 487.36 656.308 485.42 653.748 485.42ZM653.568 493.6C651.908 493.6 650.408 492.3 650.408 490.3C650.408 488.28 652.048 487.06 653.568 487.06C655.288 487.06 656.648 488.42 656.648 490.3C656.648 492.16 655.288 493.6 653.568 493.6ZM665.196 495.24C666.656 495.24 667.936 494.68 668.756 493.76L667.656 492.62C667.076 493.22 666.236 493.6 665.256 493.6C663.416 493.6 661.936 492.24 661.936 490.32C661.936 488.4 663.416 487.06 665.256 487.06C666.236 487.06 667.076 487.44 667.656 488.04L668.756 486.9C667.936 486 666.656 485.42 665.196 485.42C662.516 485.42 660.176 487.36 660.176 490.32C660.176 493.28 662.516 495.24 665.196 495.24ZM678.099 487.12C677.479 486.02 676.159 485.42 674.759 485.42C672.199 485.42 670.099 487.36 670.099 490.32C670.099 493.26 672.219 495.24 674.779 495.24C676.119 495.24 677.479 494.6 678.099 493.54V495H679.839V480.58H678.099V487.12ZM674.919 493.6C673.219 493.6 671.859 492.16 671.859 490.3C671.859 488.42 673.219 487.06 674.919 487.06C676.459 487.06 678.099 488.28 678.099 490.3C678.099 492.3 676.599 493.6 674.919 493.6ZM691.707 490.3C691.707 487.34 689.727 485.42 687.067 485.42C684.407 485.42 682.267 487.34 682.267 490.3C682.267 493.26 684.407 495.24 687.067 495.24C688.867 495.24 690.547 494.36 691.347 492.74L689.847 492.14C689.307 493.08 688.267 493.6 687.127 493.6C685.527 493.6 684.327 492.74 684.067 491.08H691.667C691.687 490.82 691.707 490.56 691.707 490.3ZM684.087 489.58C684.367 487.9 685.487 487.06 687.067 487.06C688.607 487.06 689.747 487.98 689.967 489.58H684.087ZM699.222 482.22V480.58H698.222C695.722 480.58 694.702 482.26 694.702 484.7V485.66H692.902V487.16H694.702V495H696.442V487.16H698.622V485.66H696.442V484.46C696.422 483.24 696.862 482.22 698.522 482.22H699.222ZM707.709 487.12C707.089 486.04 705.769 485.42 704.369 485.42C701.809 485.42 699.709 487.36 699.709 490.32C699.709 493.26 701.829 495.24 704.389 495.24C705.729 495.24 707.089 494.6 707.709 493.54V493.82C707.709 496.98 706.429 498.14 704.369 498.14C703.329 498.14 702.229 497.56 701.649 496.5L700.169 497.28C701.089 498.92 702.669 499.78 704.369 499.78C707.449 499.78 709.449 498.12 709.449 493.7V485.66H707.709V487.12ZM704.529 493.6C702.829 493.6 701.469 492.16 701.469 490.3C701.469 488.42 702.829 487.06 704.529 487.06C706.069 487.06 707.709 488.28 707.709 490.3C707.709 492.3 706.209 493.6 704.529 493.6ZM717.337 485.42C716.317 485.42 714.797 485.94 714.237 487.08V480.58H712.497V495H714.237V489.94C714.237 487.92 715.797 487.14 717.097 487.14C718.397 487.14 719.357 488.14 719.357 489.7V495H721.097V489.6C721.117 486.98 719.657 485.42 717.337 485.42ZM724.86 483.38C725.54 483.38 726.1 482.88 726.1 482.22C726.1 481.56 725.54 481.06 724.86 481.06C724.2 481.06 723.64 481.56 723.64 482.22C723.64 482.88 724.2 483.38 724.86 483.38ZM725.74 495V485.66H724V495H725.74ZM729.786 483.38C730.466 483.38 731.026 482.88 731.026 482.22C731.026 481.56 730.466 481.06 729.786 481.06C729.126 481.06 728.566 481.56 728.566 482.22C728.566 482.88 729.126 483.38 729.786 483.38ZM727.326 499.54C729.846 499.54 730.666 497.86 730.666 495.54V485.66H728.926V495.52C728.946 496.62 728.726 497.9 727.186 497.9H726.126V499.54H727.326ZM737.088 489.7L741.088 485.66H738.668L735.428 488.96V480.58H733.688V495H735.428V490.44L739.728 495H742.068L737.088 489.7ZM745.155 495V480.58H743.415V495H745.155ZM759.26 485.42C758.32 485.42 756.86 485.74 756 487.42C755.46 486.14 754.28 485.42 752.92 485.42C751.6 485.42 750.38 486.08 749.92 487.1V485.66H748.18V495H749.92V489.94C749.92 487.96 751.24 487.1 752.56 487.1C753.8 487.1 754.66 488.12 754.66 489.7V495H756.4V490.32C756.4 488.24 757.26 487.08 758.92 487.1C760.28 487.1 761.14 488.14 761.14 489.7V495H762.88V489.6C762.88 486.98 761.6 485.42 759.26 485.42ZM770.618 485.42C769.598 485.42 768.078 485.94 767.518 487.08V485.66H765.778V495H767.518V489.94C767.518 487.92 769.078 487.14 770.378 487.14C771.678 487.14 772.638 488.14 772.638 489.7V495H774.378V489.6C774.398 486.98 772.938 485.42 770.618 485.42ZM781.522 495.24C784.182 495.24 786.422 493.28 786.422 490.32C786.422 487.36 784.182 485.42 781.522 485.42C778.862 485.42 776.642 487.36 776.642 490.32C776.642 493.28 778.862 495.24 781.522 495.24ZM781.522 493.6C779.822 493.6 778.402 492.26 778.402 490.32C778.402 488.4 779.822 487.06 781.522 487.06C783.242 487.06 784.682 488.4 784.682 490.32C784.682 492.26 783.242 493.6 781.522 493.6ZM793.904 485.42C792.564 485.42 791.204 486.06 790.584 487.12V485.66H788.844V499.54H790.584V493.54C791.204 494.64 792.524 495.24 793.924 495.24C796.484 495.24 798.584 493.3 798.584 490.34C798.584 487.4 796.464 485.42 793.904 485.42ZM793.744 493.6C792.224 493.6 790.584 492.38 790.584 490.36C790.584 488.36 792.084 487.06 793.744 487.06C795.464 487.06 796.824 488.5 796.824 490.36C796.824 492.24 795.464 493.6 793.744 493.6ZM808.392 487.12C807.772 486.06 806.412 485.42 805.072 485.42C802.512 485.42 800.392 487.4 800.392 490.34C800.392 493.3 802.492 495.24 805.052 495.24C806.452 495.24 807.772 494.64 808.392 493.54V499.54H810.132V485.66H808.392V487.12ZM805.212 493.6C803.512 493.6 802.152 492.24 802.152 490.36C802.152 488.5 803.512 487.06 805.212 487.06C806.892 487.06 808.392 488.36 808.392 490.36C808.392 492.38 806.752 493.6 805.212 493.6ZM817.56 485.42C816.32 485.42 815.42 486.14 814.94 487.78V485.66H813.18V495H814.94V491.58C814.94 489.12 815.68 487.1 817.54 487.1C817.9 487.1 818.4 487.18 818.9 487.42L819.18 485.78C818.9 485.6 818.22 485.42 817.56 485.42ZM823.537 495.24C825.477 495.24 827.157 494.14 827.157 492.4C827.157 491.34 826.657 490.18 824.717 489.7L823.337 489.36C822.737 489.22 822.137 488.88 822.137 488.24C822.137 487.52 822.737 486.94 823.637 486.94C824.377 486.94 825.117 487.42 825.137 488.14H826.817C826.817 486.26 825.177 485.42 823.597 485.42C821.717 485.42 820.397 486.64 820.397 488.18C820.397 489.68 821.297 490.44 822.857 490.86L824.137 491.16C824.877 491.32 825.417 491.68 825.417 492.38C825.417 493.14 824.717 493.72 823.537 493.72C822.397 493.72 821.697 493.06 821.677 492.26H820.057C820.137 494.18 821.857 495.24 823.537 495.24ZM831.949 485.66V482.14H830.209V485.66H828.529V487.16H830.209V495H831.949V487.16H833.969V485.66H831.949ZM842.655 490.8C842.635 492.82 841.075 493.6 839.775 493.6C838.475 493.6 837.535 492.6 837.535 491.02V485.66H835.795V491.06C835.775 493.68 837.215 495.24 839.555 495.24C840.595 495.24 842.095 494.72 842.655 493.54V495H844.395V485.66H842.655V490.8ZM850.938 492.78L848.058 485.66H846.198L850.078 495H851.778L855.678 485.66H853.798L850.938 492.78ZM866.997 492.3L864.597 485.66H862.897L860.517 492.3L858.137 485.66H856.257L859.817 495H861.257L863.737 488.06L866.317 495H867.777L871.257 485.66H869.377L866.997 492.3ZM877.503 489.88L880.543 485.66H878.423L876.463 488.44L874.502 485.66H872.403L875.423 489.86L871.723 495H873.803L876.463 491.34L879.103 495H881.183L877.503 489.88ZM886.407 492.54L883.587 485.66H881.707L885.467 494.72L883.507 499.54H885.347L891.147 485.66H889.267L886.407 492.54ZM892.506 485.66V487.3H897.866L892.206 493.56V495H900.406V493.36H894.646L900.406 487.1V485.66H892.506ZM640.9 519.24C644.66 519.24 645.64 516.18 645.64 512.5C645.64 508.78 644.66 505.76 640.9 505.76C637.14 505.76 636.16 508.78 636.16 512.5C636.16 516.18 637.14 519.24 640.9 519.24ZM640.9 517.6C638.5 517.6 637.92 515.22 637.92 512.5C637.92 509.74 638.5 507.42 640.9 507.42C643.3 507.42 643.9 509.74 643.9 512.5C643.9 515.22 643.3 517.6 640.9 517.6ZM647.357 507.76V509.44L650.137 508.3V519H651.877V505.76H651.817L647.357 507.76ZM661.329 513C662.189 511.98 662.849 510.64 662.849 509.62C662.849 507.3 661.209 505.76 658.749 505.76C656.509 505.76 654.949 507.08 654.689 509.06L656.249 509.4C656.349 508.22 657.329 507.42 658.749 507.42C660.169 507.42 661.109 508.3 661.109 509.62C661.109 510.22 660.549 511.28 659.729 512.28L654.809 518.22V519H663.029V517.32H657.729L661.329 513ZM671.222 511.98C672.242 511.5 672.862 510.48 672.862 509.24C672.862 507.14 671.342 505.76 669.062 505.76C667.582 505.76 666.162 506.52 665.482 507.66L666.702 508.66C667.202 507.9 668.122 507.42 669.022 507.42C670.282 507.42 671.122 508.16 671.122 509.28C671.122 510.46 670.222 511.28 668.842 511.28H667.602V512.78H668.962C670.582 512.78 671.742 513.76 671.742 515.24C671.742 516.62 670.542 517.6 668.902 517.6C667.782 517.6 666.762 516.88 666.162 515.7L664.742 516.52C665.522 518.22 667.102 519.24 668.962 519.24C671.622 519.24 673.502 517.58 673.502 515.18C673.502 513.64 672.582 512.42 671.222 511.98ZM683.211 514.66V505.92H682.911L674.791 515.92V516.3H681.471V519H683.211V516.3H685.071V514.66H683.211ZM681.471 510.16V514.66H677.711L681.471 510.16ZM691.858 510.6C690.818 510.6 689.798 510.96 689.018 511.5L689.758 507.58H695.258V505.92H688.338L687.198 512.44L688.278 513.34C689.278 512.6 690.398 512.14 691.478 512.14C693.078 512.14 694.378 513.18 694.378 514.82C694.378 516.46 693.118 517.6 691.418 517.6C689.858 517.6 688.738 516.68 688.218 515.48L686.758 516.28C687.578 517.98 689.238 519.24 691.498 519.24C694.178 519.24 696.118 517.44 696.118 514.78C696.118 512.24 694.358 510.6 691.858 510.6ZM703.171 510.58C701.771 510.58 700.651 511.32 700.051 512.24C699.911 509.68 701.431 507.42 703.451 507.42C704.431 507.42 705.391 507.84 705.931 509.06L707.511 508.42C706.631 506.3 704.991 505.76 703.491 505.76C699.351 505.76 698.151 509.8 698.151 512.88C698.151 517.02 699.791 519.24 703.011 519.24C705.871 519.24 707.651 517.12 707.651 514.9C707.651 512.62 705.831 510.58 703.171 510.58ZM702.911 517.58C701.311 517.54 700.071 516.34 700.071 514.74C700.151 513.26 701.491 512.22 703.111 512.22C704.671 512.28 705.831 513.4 705.831 514.86C705.831 516.38 704.591 517.58 702.911 517.58ZM709.75 507.58H715.83L709.53 519H711.59L718.69 506.06V505.92H709.75V507.58ZM726.659 511.42C727.459 510.92 727.999 510.1 727.999 509C727.999 507.16 726.479 505.76 724.259 505.76C722.019 505.76 720.519 507.16 720.519 509C720.519 510.1 721.039 510.92 721.839 511.42C720.319 512 719.339 513.42 719.339 515.12C719.339 517.54 721.399 519.24 724.259 519.24C727.099 519.24 729.139 517.54 729.139 515.1C729.139 513.42 728.159 512 726.659 511.42ZM724.259 507.38C725.339 507.38 726.159 508.18 726.159 509.16C726.159 510.14 725.339 510.86 724.259 510.86C723.179 510.86 722.339 510.12 722.339 509.16C722.339 508.18 723.179 507.38 724.259 507.38ZM724.259 517.6C722.519 517.6 721.179 516.44 721.179 514.96C721.179 513.44 722.579 512.32 724.259 512.32C725.899 512.32 727.299 513.42 727.299 514.98C727.299 516.44 726.059 517.6 724.259 517.6ZM735.798 505.76C732.938 505.76 731.158 507.84 731.158 510.06C731.158 512.34 732.978 514.4 735.658 514.4C736.998 514.4 738.158 513.76 738.778 512.8C738.878 515.36 737.358 517.6 735.358 517.6C734.378 517.6 733.418 517.16 732.878 515.96L731.298 516.6C732.178 518.72 733.818 519.24 735.318 519.24C739.458 519.24 740.678 515.16 740.678 512.08C740.678 508.42 739.018 505.76 735.798 505.76ZM735.698 512.74C734.138 512.7 732.978 511.56 732.978 510.1C732.978 508.58 734.218 507.44 735.898 507.44C737.498 507.48 738.738 508.64 738.738 510.22C738.678 511.7 737.318 512.74 735.698 512.74Z" fill="white"/>
<path d="M1084.05 109.216C1085.76 109.216 1087.47 108.28 1087.47 106.57C1087.47 105.796 1087.13 104.608 1085.24 104.122L1083.89 103.762C1083.4 103.654 1082.99 103.402 1082.99 102.97C1082.99 102.448 1083.44 102.07 1084.09 102.07C1084.68 102.07 1085.2 102.43 1085.2 103.006H1087.2C1087.22 101.134 1085.53 100.378 1084.03 100.378C1082.2 100.378 1080.9 101.566 1080.9 102.88C1080.9 103.942 1081.39 104.95 1083.28 105.454L1084.39 105.742C1085.02 105.886 1085.38 106.102 1085.38 106.57C1085.38 107.11 1084.84 107.524 1084.01 107.524C1083.13 107.524 1082.63 106.984 1082.63 106.408H1080.67C1080.7 108.208 1082.38 109.216 1084.05 109.216ZM1097.61 104.716C1097.61 102.088 1095.72 100.378 1093.32 100.378C1090.91 100.378 1088.91 102.106 1088.91 104.788C1088.91 107.416 1090.82 109.216 1093.32 109.216C1094.85 109.216 1096.35 108.532 1097.12 107.308L1095.72 106.246C1095.23 106.93 1094.35 107.326 1093.45 107.326C1092.19 107.326 1091.29 106.696 1091.05 105.526H1097.57C1097.59 105.22 1097.61 104.95 1097.61 104.716ZM1091.05 104.068C1091.31 102.79 1092.22 102.232 1093.34 102.232C1094.51 102.232 1095.41 102.916 1095.54 104.068H1091.05ZM1109.66 100.378C1108.81 100.378 1107.5 100.756 1106.83 102.07C1106.33 101.008 1105.34 100.378 1104.11 100.378C1103.05 100.378 1101.85 101.008 1101.61 102.142V100.594H1099.52V109H1101.61V104.518C1101.61 102.916 1102.58 102.34 1103.56 102.34C1104.46 102.34 1105.16 103.06 1105.16 104.392V109H1107.25V104.842C1107.25 103.168 1107.93 102.34 1109.14 102.34C1110.11 102.34 1110.81 103.042 1110.81 104.392V109H1112.88V104.284C1112.88 101.836 1111.76 100.378 1109.66 100.378ZM1116.32 98.902C1117.07 98.902 1117.67 98.344 1117.67 97.624C1117.67 96.886 1117.07 96.346 1116.32 96.346C1115.58 96.346 1114.95 96.886 1114.95 97.624C1114.95 98.344 1115.58 98.902 1116.32 98.902ZM1117.36 109V100.594H1115.27V109H1117.36ZM1126.05 105.688V103.78H1119.74V105.688H1126.05ZM1133.32 100.378C1132.26 100.378 1131.09 100.81 1130.51 101.71V96.022H1128.42V109H1130.51V107.866C1131.09 108.766 1132.29 109.216 1133.3 109.216C1135.51 109.216 1137.44 107.47 1137.44 104.788C1137.44 102.088 1135.53 100.378 1133.32 100.378ZM1132.98 107.272C1131.7 107.272 1130.55 106.246 1130.55 104.77C1130.55 103.294 1131.77 102.322 1132.98 102.322C1134.27 102.322 1135.35 103.366 1135.35 104.77C1135.35 106.174 1134.27 107.272 1132.98 107.272ZM1143.37 109.216C1145.76 109.216 1147.85 107.452 1147.85 104.788C1147.85 102.124 1145.76 100.378 1143.37 100.378C1140.97 100.378 1138.9 102.124 1138.9 104.788C1138.9 107.452 1140.97 109.216 1143.37 109.216ZM1143.37 107.272C1142.07 107.272 1141.01 106.264 1141.01 104.788C1141.01 103.348 1142.07 102.322 1143.37 102.322C1144.66 102.322 1145.74 103.348 1145.74 104.788C1145.74 106.264 1144.66 107.272 1143.37 107.272ZM1151.9 109V96.022H1149.81V109H1151.9ZM1160.81 101.692C1160.23 100.81 1159.06 100.378 1158 100.378C1155.79 100.378 1153.88 102.088 1153.88 104.788C1153.88 107.47 1155.81 109.216 1158.02 109.216C1159.05 109.216 1160.23 108.766 1160.81 107.884V109H1162.9V96.022H1160.81V101.692ZM1158.34 107.272C1157.05 107.272 1155.99 106.174 1155.99 104.77C1155.99 103.366 1157.05 102.322 1158.34 102.322C1159.55 102.322 1160.77 103.294 1160.77 104.77C1160.77 106.246 1159.62 107.272 1158.34 107.272Z" fill="white"/>
<path d="M874.946 407.566L779.559 153H730.756L635 407.566H683.063L704.876 345.126H805.069L827.252 407.566H874.946ZM755.158 202.509L791.39 305.961H718.556L755.158 202.509Z" fill="white"/>
<path d="M1037.83 261.994C1026.37 241.673 1001.97 230.589 976.092 230.589C927.29 230.589 889.948 270.123 889.948 321.11C889.948 373.944 929.508 412 974.613 412C1002.34 412 1026.37 397.591 1037.83 376.9V407.566H1070V235.023H1037.83V261.994ZM979.42 381.703C947.624 381.703 922.483 353.993 922.483 321.11C922.483 288.596 947.624 260.886 979.05 260.886C1007.89 260.886 1037.83 285.641 1037.83 321.11C1037.83 356.21 1010.11 381.703 979.42 381.703Z" fill="white"/>
<circle cx="276" cy="120" r="50" fill="#0B2F28"/>
<circle cx="276" cy="238" r="50" fill="#E3E7E6"/>
<circle cx="276" cy="356" r="50" fill="white"/>
<circle cx="276" cy="474" r="50" fill="#23C185"/>
</svg>
