<svg width="200" height="100" viewBox="0 0 200 100" fill="none" xmlns="http://www.w3.org/2000/svg">
<mask id="mask0_1429_226" style="mask-type:alpha" maskUnits="userSpaceOnUse" x="0" y="0" width="200" height="100">
<rect width="200" height="100" fill="#222222"/>
</mask>
<g mask="url(#mask0_1429_226)">
<path fill-rule="evenodd" clip-rule="evenodd" d="M131.04 47.3639H131.023V32.345H131.04V32.3435H136.329C137.252 32.343 138.061 32.4402 138.755 32.635C139.449 32.8298 140.028 33.1007 140.494 33.4477C140.941 33.7723 141.3 34.1991 141.541 34.6911C141.777 35.1832 141.896 35.721 141.891 36.2647C141.894 36.7142 141.802 37.1595 141.62 37.572C141.436 37.9817 141.175 38.3537 140.85 38.6685C140.498 39.0083 140.097 39.295 139.66 39.5193C139.18 39.7667 138.669 39.9522 138.14 40.071L143.715 47.3677H140.728L140.725 47.3639H140.708L135.394 40.2993H133.614V47.3677H131.04V47.3639ZM135.9 33.2816C136.332 33.2822 136.761 33.3595 137.165 33.5101C137.545 33.6532 137.893 33.8701 138.186 34.1477C138.473 34.4202 138.701 34.7469 138.856 35.1081C139.017 35.4991 139.096 35.9177 139.089 36.3393C139.095 36.8004 138.991 37.2565 138.785 37.6709C138.584 38.066 138.298 38.4129 137.945 38.6868C137.565 38.9764 137.132 39.1935 136.671 39.3268C136.162 39.476 135.633 39.5514 135.102 39.5506L135.088 39.5505H133.614V33.2818H135.877C135.885 33.2817 135.892 33.2816 135.9 33.2816Z" fill="#949494"/>
<path d="M117.522 47.3639V32.3428H128.181V33.3107H120.111V38.6868H125.491V38.6876H125.504V39.6524H120.111V46.399H128.165V46.4028H128.181V47.3677H117.537V47.3639H117.522Z" fill="#949494"/>
<path d="M100.619 47.491L94.5449 32.3428H97.1408L101.687 43.7486L105.703 33.4629L105.709 33.4776L105.715 33.4629L109.874 43.7951L114.316 32.3466H114.327L114.329 32.3428H115.597L109.698 47.494H109.683L109.683 47.4948H108.907L105.139 38.1482L101.512 47.494H100.633L100.631 47.491H100.619Z" fill="#949494"/>
<path fill-rule="evenodd" clip-rule="evenodd" d="M82.3027 47.2228C82.5331 47.3036 82.767 47.3748 83.004 47.4362C84.4968 47.8167 86.064 47.8167 87.5568 47.4362L87.556 47.4354C88.2628 47.2521 88.9431 46.9813 89.5803 46.6296C90.199 46.288 90.7706 45.8701 91.2812 45.3862C91.7857 44.9083 92.2226 44.3663 92.5803 43.7745C92.9403 43.178 93.2208 42.5387 93.4148 41.8721C93.6154 41.1876 93.7169 40.4788 93.7165 39.7666C93.7233 38.7232 93.5003 37.6906 93.0627 36.7395C92.6383 35.8104 92.0322 34.972 91.2789 34.2718C90.5043 33.5566 89.598 32.9925 88.6085 32.6099C87.7312 32.2678 86.8047 32.0672 85.8648 32.0147C85.6687 32.0034 85.4719 31.9986 85.275 32.0003C83.7733 31.9942 82.2942 32.3585 80.9735 33.0596C80.3542 33.39 79.7808 33.7972 79.2672 34.271C78.7619 34.7359 78.3223 35.2652 77.9603 35.8447C77.6008 36.4235 77.3205 37.0462 77.1266 37.6968C76.9266 38.3683 76.8265 39.0647 76.8295 39.7643C76.8271 40.4766 76.9271 41.1857 77.1266 41.8706C77.3201 42.5372 77.6004 43.1766 77.9603 43.773C78.3188 44.3661 78.7582 44.9084 79.2664 45.3847C79.7803 45.8671 80.3535 46.2848 80.9727 46.6281C81.3985 46.863 81.8435 47.0619 82.3027 47.2228ZM82.9152 46.4318C82.237 46.0699 81.6556 45.5557 81.2186 44.9312C80.7387 44.2372 80.3905 43.4638 80.1909 42.6483C79.9545 41.7061 79.839 40.7385 79.8473 39.7681C79.838 38.8122 79.9535 37.8591 80.1909 36.9321C80.3899 36.1357 80.7384 35.3827 81.2186 34.7116C81.6608 34.1023 82.2436 33.6042 82.9195 33.2582C83.5968 32.9112 84.3838 32.7377 85.2804 32.7377C85.5986 32.7377 85.9037 32.7609 86.1956 32.8073C86.6979 32.8882 87.161 33.0379 87.5847 33.2567C88.2594 33.6046 88.8425 34.1016 89.2879 34.7086C89.7723 35.38 90.1272 36.1328 90.335 36.9298C90.5811 37.855 90.7011 38.8081 90.6917 39.7643C90.7004 40.7354 90.5808 41.7036 90.3357 42.6445C90.128 43.4605 89.7734 44.2336 89.2887 44.9274C88.8491 45.5516 88.2673 46.0667 87.5893 46.4318C86.9172 46.7909 86.146 46.9708 85.2757 46.9713C84.9053 46.9713 84.5537 46.9406 84.221 46.8793C83.7493 46.792 83.3152 46.6431 82.9187 46.4325L82.9193 46.4337L82.9156 46.4318H82.9152Z" fill="#949494"/>
<path d="M65.0777 47.3639H65.0746L65.0753 32.3428H67.6511V46.399H75.3419V46.4028H75.3473V47.367H65.0777V47.3639Z" fill="#949494"/>
<path d="M53.0102 47.3677H55.5844V39.6524H60.9771V38.6876H60.9755V38.6868H55.5844V33.3107H63.0472V32.3428H53.0102V47.3677Z" fill="#949494"/>
<path d="M134.983 65.6176V53.3237H143.715V54.1158H137.108V58.5141H141.503V58.5202H141.524V59.3101H137.108V64.8285H143.694V64.8361H143.715V65.626H135.001V65.6176H134.983Z" fill="#949494"/>
<path fill-rule="evenodd" clip-rule="evenodd" d="M125.155 59.8427H126.621L130.965 65.6176H130.973L130.979 65.626H133.427L128.863 59.6525C129.295 59.5556 129.712 59.4039 130.104 59.2013C130.462 59.0175 130.791 58.7829 131.079 58.505C131.344 58.247 131.558 57.9421 131.708 57.6063C131.858 57.2688 131.933 56.9044 131.931 56.5364C131.935 56.0912 131.836 55.6509 131.643 55.2481C131.448 54.8457 131.155 54.4962 130.79 54.23C130.364 53.9256 129.884 53.701 129.375 53.5673C129.366 53.5647 129.356 53.5621 129.346 53.5596C128.699 53.3916 128.031 53.3122 127.362 53.3237H123.034V65.6176H123.048V65.626H125.155V59.8427ZM127.008 54.0945C127.141 54.0931 127.273 54.1006 127.404 54.1168C127.628 54.1459 127.848 54.2003 128.059 54.2794C128.37 54.3959 128.654 54.5724 128.894 54.7984C129.128 55.0228 129.313 55.2916 129.437 55.5883C129.572 55.9075 129.64 56.2502 129.637 56.5958C129.642 56.9733 129.557 57.3469 129.389 57.6862C129.224 58.0095 128.989 58.2931 128.7 58.5164C128.39 58.7544 128.036 58.9323 127.658 59.0407C127.232 59.1655 126.79 59.2268 126.345 59.2226H125.155V54.0945H127.008Z" fill="#949494"/>
<path d="M109.621 63.0585C109.386 62.4859 109.267 61.8738 109.271 61.2566V53.3237H111.392V61.3022C111.389 61.8099 111.482 62.3137 111.668 62.7876C111.845 63.2414 112.113 63.6555 112.457 64.0051C112.674 64.2233 112.919 64.4134 113.183 64.5716C113.342 64.6655 113.507 64.7478 113.679 64.8178C114.716 65.2196 115.87 65.2196 116.907 64.8178C117.365 64.6303 117.778 64.3521 118.121 64.0006C118.461 63.6499 118.724 63.2358 118.897 62.7831C119.079 62.3083 119.17 61.8048 119.167 61.2977V53.3237H120.116V61.3038C120.12 61.9112 120.015 62.5146 119.805 63.0859C119.599 63.6408 119.266 64.1419 118.832 64.5507C118.391 64.9693 117.824 65.3016 117.133 65.5476C116.441 65.7936 115.608 65.9167 114.634 65.9167C113.765 65.9167 112.998 65.7936 112.331 65.5476C112.091 65.4639 111.859 65.362 111.637 65.2429C111.277 65.0509 110.942 64.8142 110.642 64.5378C110.198 64.1215 109.85 63.6172 109.621 63.0585Z" fill="#949494"/>
<path d="M96.3784 54.1128V53.3237H107.578V54.1158H103.037V65.626H100.93V65.6176H100.92V54.1128H96.3784Z" fill="#949494"/>
<path d="M84.1837 63.0585C83.9495 62.4857 83.8309 61.8737 83.8347 61.2566V53.3237H85.9459V61.3038C85.9421 61.8114 86.0355 62.3153 86.2212 62.7891C86.2404 62.8387 86.2608 62.8878 86.2822 62.9364C86.4564 63.3295 86.7015 63.689 87.0061 63.9975C87.3565 64.3495 87.7757 64.6285 88.2385 64.8178C89.2758 65.2197 90.43 65.2197 91.4673 64.8178C91.927 64.6306 92.3423 64.3524 92.6873 64.0006C93.0252 63.6496 93.2876 63.2356 93.4591 62.7831C93.6414 62.3084 93.7334 61.8049 93.7305 61.2977V53.3237H94.6713V61.3038C94.6759 61.9111 94.5708 62.5145 94.3611 63.0859C94.1539 63.6404 93.8208 64.1414 93.3869 64.5507C92.9453 64.9693 92.3786 65.3016 91.6868 65.5476C90.995 65.7936 90.162 65.9167 89.1878 65.9167C88.3202 65.9167 87.5529 65.7936 86.8859 65.5476C86.2641 65.3295 85.6947 64.9884 85.2129 64.5454C85.1412 64.4782 85.072 64.4087 85.0054 64.3371C84.656 63.9633 84.3774 63.5304 84.1837 63.0585Z" fill="#949494"/>
<path fill-rule="evenodd" clip-rule="evenodd" d="M68.5655 62.6834C68.7017 62.9076 68.8521 63.1229 69.0156 63.328C69.2057 63.5681 69.4137 63.7945 69.6382 64.0051C70.0584 64.4003 70.5274 64.7424 71.0342 65.0233C71.556 65.3113 72.1129 65.533 72.6917 65.683C73.2991 65.8404 73.9249 65.9189 74.5531 65.9167C75.1813 65.9187 75.8071 65.8402 76.4146 65.683H76.4208C76.9992 65.5327 77.5558 65.311 78.0774 65.0233C78.5848 64.7433 79.0539 64.4011 79.4735 64.0051C79.8847 63.6129 80.2405 63.1683 80.5314 62.6834C80.8257 62.1946 81.0548 61.6709 81.2132 61.1249C81.3784 60.5656 81.4622 59.9861 81.4621 59.4037C81.468 58.5497 81.286 57.7046 80.9285 56.926C80.5794 56.1659 80.0832 55.4795 79.4673 54.9049C79.1471 54.6107 78.7998 54.3477 78.4304 54.1192C78.0652 53.8912 77.6781 53.6971 77.2739 53.5398C76.4087 53.2025 75.4849 53.0333 74.5539 53.0414C73.926 53.0389 73.3004 53.1157 72.6925 53.2697C72.1161 53.4163 71.5598 53.6307 71.0358 53.9081C70.5291 54.1776 70.0598 54.5101 69.6397 54.8973C69.2238 55.2779 68.8625 55.712 68.5655 56.1879C68.2714 56.6617 68.0419 57.1713 67.883 57.7037C67.719 58.2536 67.6369 58.8239 67.6395 59.3968C67.6374 59.98 67.7194 60.5605 67.883 61.1211C68.0411 61.6685 68.2705 62.1936 68.5655 62.6834ZM72.6203 64.8544C72.2625 64.6648 71.9373 64.4234 71.6553 64.1395C71.5004 63.9823 71.3588 63.8122 71.232 63.6308C70.8381 63.0628 70.553 62.4293 70.3905 61.7611C70.1971 60.9893 70.1028 60.1969 70.1097 59.4022C70.1021 58.6194 70.1965 57.839 70.3905 57.0797C70.5534 56.4282 70.8388 55.8122 71.232 55.2633C71.594 54.7647 72.071 54.3572 72.6242 54.074C73.178 53.7909 73.822 53.6489 74.5562 53.6479C75.2141 53.6358 75.8649 53.7821 76.4518 54.074C76.9464 54.33 77.3807 54.6839 77.7277 55.1124C77.7657 55.1603 77.8027 55.2091 77.8385 55.2588C78.2353 55.808 78.5261 56.4239 78.6964 57.0759C78.8976 57.8335 78.9954 58.614 78.9872 59.3968C78.9947 60.1922 78.897 60.9851 78.6964 61.7558C78.5258 62.424 78.2353 63.0571 77.8385 63.6254C77.4774 64.1367 76.9993 64.5578 76.4425 64.8551C75.8595 65.1575 75.2077 65.3093 74.5485 65.2965C73.8137 65.2965 73.1697 65.1494 72.6165 64.8551L72.6203 64.8544Z" fill="#949494"/>
<path d="M53.4965 61.9726C53.5886 62.1897 53.693 62.4009 53.8092 62.6055C54.1024 63.1238 54.4709 63.5991 54.9042 64.0158C55.5318 64.6136 56.2727 65.0849 57.0851 65.403C57.9854 65.7554 58.9477 65.9302 59.9169 65.9174C60.5803 65.9258 61.2413 65.836 61.8776 65.6511C62.4285 65.4884 62.9541 65.2524 63.4396 64.9495C63.8881 64.6666 64.2974 64.328 64.6573 63.942C65 63.574 65.3049 63.1738 65.5678 62.7473L65.5612 62.7431L65.5624 62.7412L64.6844 62.1804C64.4941 62.5459 64.2651 62.8908 64.0011 63.2092C63.7229 63.5473 63.4068 63.8536 63.0588 64.1223C62.712 64.3907 62.3291 64.6109 61.921 64.7767C61.5185 64.9413 61.0866 65.0259 60.6506 65.0256C59.9454 65.0321 59.2458 64.9028 58.5914 64.6451C57.9737 64.4014 57.4155 64.0324 56.9533 63.5623C56.4745 63.0647 56.105 62.476 55.8675 61.8326C55.6109 61.1259 55.4795 60.3817 55.4787 59.632C55.4787 59.594 55.479 59.5559 55.4797 59.5178L55.4796 59.5143L55.4797 59.511C55.4791 59.4755 55.4789 59.44 55.4789 59.4045C55.4805 58.6477 55.6169 57.8967 55.8822 57.1855H55.8802L55.8822 57.1802H55.8819C56.1269 56.5297 56.5005 55.9331 56.9812 55.4247C57.4427 54.9431 58.0039 54.564 58.627 54.3129C59.2742 54.0555 59.9669 53.9261 60.6653 53.9324C61.4674 53.9206 62.2516 54.165 62.8998 54.6287C63.5482 55.0929 64.134 55.8234 64.6573 56.8203L65.5678 56.2153C65.3013 55.7858 64.9894 55.3851 64.6371 55.0198C64.605 54.9863 64.5725 54.9532 64.5396 54.9204C64.1936 54.574 63.8082 54.2675 63.3907 54.007C62.9122 53.7091 62.3963 53.4735 61.8558 53.3062C61.2614 53.1247 60.6418 53.0353 60.0192 53.0414C59.0367 53.0283 58.0614 53.2065 57.1495 53.5657C56.3257 53.8915 55.5742 54.3711 54.9368 54.978C54.3256 55.5656 53.8397 56.2666 53.5073 57.0402C53.169 57.8214 52.9964 58.6621 53.0001 59.511C52.9956 60.3559 53.1644 61.193 53.4965 61.9726Z" fill="#949494"/>
<path fill-rule="evenodd" clip-rule="evenodd" d="M144.925 35.1179V34.3821H145.093C145.173 34.3769 145.254 34.3981 145.321 34.4422C145.396 34.4965 145.495 34.6307 145.618 34.8448L145.773 35.1179H146.121L145.906 34.7793C145.833 34.6559 145.745 34.5408 145.646 34.4361C145.602 34.3966 145.552 34.3654 145.497 34.3441C145.635 34.3392 145.765 34.2831 145.862 34.1873C145.906 34.1439 145.941 34.0924 145.965 34.0357C145.989 33.979 146.001 33.9183 146 33.8571C146 33.7661 145.971 33.6774 145.918 33.6029C145.865 33.5251 145.787 33.4666 145.696 33.4362C145.55 33.3973 145.399 33.3806 145.247 33.3868H144.642V35.1179H144.925ZM144.925 33.6227H145.249C145.345 33.6174 145.441 33.6274 145.534 33.6524C145.583 33.6701 145.625 33.7016 145.655 33.7429C145.69 33.7938 145.705 33.8556 145.696 33.9164C145.688 33.9772 145.656 34.0328 145.609 34.0724C145.549 34.1203 145.436 34.1439 145.27 34.1439H144.925V33.6227Z" fill="#949494"/>
<path fill-rule="evenodd" clip-rule="evenodd" d="M144.554 32.8351C144.295 32.9708 144.082 33.1773 143.94 33.4294C143.797 33.6752 143.722 33.9531 143.721 34.236C143.722 34.5158 143.796 34.7906 143.938 35.0335C144.077 35.285 144.288 35.4918 144.544 35.6293C144.792 35.7682 145.072 35.8412 145.358 35.8412C145.644 35.8412 145.924 35.7682 146.172 35.6293C146.428 35.4918 146.639 35.285 146.778 35.0335C146.922 34.7891 146.999 34.5121 147 34.2299C146.999 33.947 146.924 33.6691 146.781 33.4233C146.641 33.1707 146.428 32.9641 146.169 32.829C145.923 32.6928 145.646 32.6213 145.363 32.6213C145.081 32.6213 144.804 32.6928 144.558 32.829L144.554 32.8351ZM146.031 33.0634C146.246 33.1768 146.424 33.3494 146.542 33.5603C146.661 33.7649 146.724 33.9964 146.725 34.2322C146.725 34.4655 146.663 34.6947 146.545 34.8973C146.428 35.1064 146.253 35.2785 146.04 35.3934C145.833 35.5101 145.599 35.5714 145.36 35.5714C145.122 35.5714 144.888 35.5101 144.681 35.3934C144.467 35.2786 144.291 35.1065 144.174 34.8973C144.054 34.6941 143.991 34.4635 143.991 34.2288C143.991 33.994 144.054 33.7634 144.174 33.5603C144.292 33.3498 144.469 33.1772 144.685 33.0634C144.89 32.9501 145.121 32.8906 145.356 32.8906C145.591 32.8906 145.823 32.9501 146.027 33.0634H146.031Z" fill="#949494"/>
<path fill-rule="evenodd" clip-rule="evenodd" d="M113.237 75.2322L112.956 75.9406H112.709L113.766 73.3184H114.049L115.115 75.9406H114.852L114.568 75.2322H113.237ZM113.904 73.536L113.315 75.0146H114.482L113.904 73.536Z" fill="#949494"/>
<path d="M110.303 75.9406H110.063L110.064 73.3184H110.338L111.811 75.6256H111.819V73.3184H112.059V75.9406H111.756L110.311 73.6738H110.303V75.9406Z" fill="#949494"/>
<path fill-rule="evenodd" clip-rule="evenodd" d="M107.538 75.2322L107.255 75.9406H107.007L108.065 73.3184H108.348L109.415 75.9406H109.152L108.866 75.2322H107.538ZM108.203 73.536L107.614 75.0146H108.781L108.203 73.536Z" fill="#949494"/>
<path d="M105.729 75.9962C105.295 75.9962 105.092 75.6751 105.04 75.2946H105.302C105.329 75.5777 105.521 75.7778 105.81 75.7778C106.151 75.7778 106.281 75.4399 106.281 75.1241V73.3184H106.518V75.0876C106.518 75.2817 106.507 75.5305 106.333 75.7382C106.259 75.823 106.166 75.8903 106.061 75.9349C105.957 75.9796 105.843 76.0005 105.729 75.9962Z" fill="#949494"/>
<path fill-rule="evenodd" clip-rule="evenodd" d="M101.966 73.2606C102.733 73.2606 103.159 73.813 103.159 74.6303H103.159C103.159 75.4506 102.734 76 101.967 76C101.2 76 100.774 75.4483 100.774 74.6303C100.774 73.8123 101.199 73.2606 101.966 73.2606ZM101.964 73.482C101.3 73.482 101.034 74.0565 101.034 74.6303C101.034 75.204 101.3 75.7786 101.964 75.7786C102.628 75.7786 102.895 75.204 102.895 74.6303C102.895 74.0565 102.629 73.482 101.964 73.482Z" fill="#949494"/>
<path d="M99.6111 73.307H99.8546L99.8507 75.9414H99.6111V73.307Z" fill="#949494"/>
<path fill-rule="evenodd" clip-rule="evenodd" d="M96.6033 75.9414V73.3192H97.3254C98.2042 73.3192 98.7036 73.762 98.7036 74.6303C98.7036 75.4985 98.2042 75.9414 97.3254 75.9414H96.6033ZM96.8438 73.536V75.7238H97.3882C98.1375 75.7238 98.4477 75.2916 98.4477 74.6303C98.4477 73.8549 97.9823 73.5132 97.2215 73.536H96.8438Z" fill="#949494"/>
<path d="M93.6731 75.0184V73.3192L93.9143 73.3184V75.0146C93.9322 75.4886 94.2106 75.7755 94.6511 75.7755C95.0917 75.7755 95.3701 75.4909 95.3887 75.0146V73.3184H95.6284V75.0184C95.6214 75.5815 95.2988 75.9962 94.6511 75.9962C94.0035 75.9962 93.6809 75.5815 93.6731 75.0184Z" fill="#949494"/>
<path d="M92.1343 75.9414H91.897L91.8924 73.5368H91.0307V73.3192H92.9821V73.5368H92.1343V75.9414Z" fill="#949494"/>
<path d="M89.7469 74.5177C90.1421 74.6442 90.5575 74.7771 90.5575 75.252L90.5552 75.2512C90.5552 75.8212 90.0557 75.9962 89.5183 75.9962C89.3131 76.0015 89.1141 75.9268 88.9649 75.7885C88.8158 75.6501 88.7286 75.4594 88.7225 75.2581H88.9815C88.9885 75.6621 89.2926 75.7778 89.6524 75.7778C89.9518 75.7778 90.2962 75.6074 90.2962 75.2733C90.2962 75.0123 90.1038 74.8928 89.8781 74.8167C89.8313 74.8014 89.7819 74.7861 89.731 74.7704C89.3095 74.6404 88.7853 74.4786 88.7853 73.9728C88.7853 73.5147 89.2158 73.2644 89.6385 73.2644C89.9898 73.2644 90.449 73.3846 90.5079 73.8891H90.2489C90.2419 73.5657 89.9433 73.4828 89.6672 73.4828C89.3911 73.4828 89.0467 73.619 89.0467 73.9393C89.0467 74.2937 89.3885 74.403 89.7469 74.5177Z" fill="#949494"/>
<path d="M85.9141 75.9406H85.6744L85.6697 74.8076L84.6847 73.3184H84.995L85.8132 74.5862L86.6315 73.3184H86.8913L85.9141 74.7992V75.9406Z" fill="#949494"/>
<path fill-rule="evenodd" clip-rule="evenodd" d="M84.3768 75.2398C84.3768 75.5853 84.1628 75.9406 83.5803 75.9406H82.5627V73.3138L83.5213 73.3184C83.9184 73.3184 84.2651 73.5535 84.2651 73.9736C84.263 74.113 84.2128 74.2476 84.1229 74.3554C84.0329 74.4633 83.9084 74.5382 83.7695 74.5679V74.5747C84.1325 74.6311 84.3768 74.8654 84.3768 75.2398ZM82.8047 73.5322V74.4735H83.3879C83.6982 74.4735 84.0084 74.3533 84.0084 73.9957C84.0084 73.6083 83.6904 73.5322 83.3755 73.5322H82.8047ZM83.246 74.6912H82.8047L82.8016 75.723H83.3903C83.8502 75.7306 84.117 75.6112 84.117 75.2071C84.117 74.7597 83.7501 74.6912 83.246 74.6912Z" fill="#949494"/>
</g>
</svg>
