<svg width="200" height="100" viewBox="0 0 200 100" fill="none" xmlns="http://www.w3.org/2000/svg">
<mask id="mask0_1429_152" style="mask-type:alpha" maskUnits="userSpaceOnUse" x="0" y="0" width="200" height="100">
<rect width="200" height="100" fill="#222222"/>
</mask>
<g mask="url(#mask0_1429_152)">
<path d="M100 23C85.0881 23 73 35.0881 73 50C73 64.9119 85.0881 77 100 77C114.912 77 127 64.9119 127 50C127 35.0881 114.911 23 100 23ZM88.7622 61.9558C89.2635 62.6249 90.0159 63.0853 91.1857 63.0853C93.2753 63.0853 94.4876 61.3723 94.4876 58.9482V53.012H91.1857V50.0032H98.0815V58.8207C98.0815 63.7523 95.0728 66.3011 91.1857 66.3011C88.8036 66.3011 87.2159 65.4239 86.0869 64.1707C84.0393 61.9117 83.914 58.5287 83.914 51.0891C83.914 43.6496 84.0393 40.2655 86.0869 38.0087C87.2164 36.7549 88.8036 35.8772 91.1857 35.8772C93.2753 35.8772 94.8641 36.5877 95.992 37.7161C97.3715 39.1371 98.0395 41.1847 98.0815 43.6087H94.4876C94.4876 41.6026 93.9444 39.0951 91.1857 39.0951C90.0159 39.0951 89.2635 39.555 88.7622 40.2246C87.7172 41.6456 87.5079 44.0277 87.5079 51.0891C87.5079 58.1506 87.7172 60.5348 88.7622 61.9558ZM116.415 51.99V55.4554H114.177V54.0409H104.127V58.1489H114.565V60.3267H104.127V63.9905H105.34V66.0462H100.395V63.99H101.405V53.7983H100.395V51.7432H116.415V51.99ZM116.415 36.1569V37.9646H115.324V48.1568H116.334V50.2151H111.308V48.1573H112.642V40.735L108.989 46.7982L108.916 46.9187H107.771L107.699 46.7976L103.988 40.5801V48.1573H105.321V50.2151H100.475V48.1573H101.486V37.9651H100.395V35.9084H104.088L104.16 36.0283L108.416 43.1021L112.652 36.0288L112.722 35.9084H116.415V36.1569Z" fill="#949494"/>
</g>
</svg>
