<svg width="200" height="100" viewBox="0 0 200 100" fill="none" xmlns="http://www.w3.org/2000/svg">
<mask id="mask0_1429_131" style="mask-type:alpha" maskUnits="userSpaceOnUse" x="0" y="0" width="200" height="100">
<rect width="200" height="100" fill="#222222"/>
</mask>
<g mask="url(#mask0_1429_131)">
<path d="M55.7267 49.6729C55.5825 49.5058 55.4747 49.3123 55.41 49.1038C54.5271 43.286 50.7138 37.4978 46.1484 37.4978C41.5136 37.4978 37.6594 43.3907 36.8624 49.3074C36.805 49.4407 36.7257 49.5642 36.6274 49.6729C36.2411 50.0543 35.3072 50.1887 35.3072 50.1887L30.0061 50.4476V37.4267C30.0059 36.9769 30.0972 36.5315 30.2749 36.1159C30.4527 35.7003 30.7133 35.3227 31.042 35.0045C31.3707 34.6863 31.7609 34.4338 32.1905 34.2614C32.6201 34.0891 33.0805 34.0003 33.5456 34H58.8452C59.3103 34.0003 59.7708 34.0891 60.2004 34.2614C60.6299 34.4338 61.0202 34.6863 61.3489 35.0045C61.6775 35.3227 61.9382 35.7003 62.1159 36.1159C62.2937 36.5315 62.385 36.9769 62.3847 37.4267V50.4476L57.0469 50.1887C57.0469 50.1887 56.115 50.0543 55.7267 49.6729Z" fill="#949494"/>
<path d="M46.1464 62.4646C50.6096 62.4646 54.3534 59.2237 55.3425 54.1924L55.3466 54.1853C55.4836 53.9443 55.7957 53.3956 56.1497 53.1569C56.4832 52.977 56.8439 52.849 57.2185 52.7775L62.3786 52.242V62.4469C62.3789 62.8965 62.2875 63.3418 62.1097 63.7573C61.932 64.1728 61.6713 64.5503 61.3426 64.8684C61.0139 65.1864 60.6236 65.4387 60.1941 65.6108C59.7645 65.7829 59.3041 65.8715 58.8391 65.8715H33.5395C33.0745 65.8715 32.6141 65.7829 32.1845 65.6108C31.755 65.4387 31.3647 65.1864 31.036 64.8684C30.7073 64.5503 30.4466 64.1728 30.2688 63.7573C30.0911 63.3418 29.9997 62.8965 30 62.4469V52.2439L35.1274 52.7775C35.5026 52.8492 35.8639 52.9772 36.1982 53.1569C36.501 53.3961 36.7518 53.691 36.9359 54.0245C37.8658 59.1704 41.6301 62.4646 46.1464 62.4646Z" fill="#949494"/>
<path d="M65.5932 65.9941H69.2961V60.3343H74.1742V65.9941H77.8772V52.2479H74.1742V57.2515H69.2961V52.2479H65.5932V65.9941Z" fill="#949494"/>
<path fill-rule="evenodd" clip-rule="evenodd" d="M81.9439 65.9941H78.1408L83.4561 52.2479H87.2225L92.5358 65.9941H88.6734L87.7967 63.5298H82.839L81.9439 65.9941ZM85.3587 56.0579H85.3097L83.6952 60.8719H86.9302L85.3587 56.0579Z" fill="#949494"/>
<path fill-rule="evenodd" clip-rule="evenodd" d="M92.8158 65.9941H96.5187V60.9865H99.3287C101.06 60.9865 101.299 62.4133 101.399 63.7986C101.404 63.8553 101.41 63.9316 101.418 64.0219C101.46 64.5602 101.542 65.5981 101.808 65.9941H105.482C105.037 65.55 104.942 63.9055 104.898 63.1376C104.892 63.041 104.888 62.9582 104.883 62.8935C104.773 61.5853 104.325 59.949 102.813 59.5933V59.5557C104.307 58.9985 105.043 57.5914 105.043 56.1093C105.043 53.3427 102.574 52.24 100.064 52.24H92.8158V65.9941ZM96.5187 55.1153H99.4595C100.494 55.1153 101.329 55.5777 101.329 56.5974C101.329 57.6171 100.741 58.21 99.625 58.21H96.5187V55.1153Z" fill="#949494"/>
<path d="M105.128 52.2479H117.314V55.3287H113.074V66H109.369V55.3287H105.128V52.2479Z" fill="#949494"/>
<path d="M118.173 65.9941H121.659V55.5599H121.698L124.686 65.9941H127.512L130.5 55.5599H130.538V65.9941H134.025V52.2479H128.568L126.116 61.4114H126.077L123.625 52.2479H118.169L118.173 65.9941Z" fill="#949494"/>
<path fill-rule="evenodd" clip-rule="evenodd" d="M138.143 65.9941H134.339L139.657 52.2479H143.421L148.734 65.9941H144.874L143.997 63.5298H139.04L138.143 65.9941ZM141.557 56.0579H141.508L139.894 60.8719H143.131L141.557 56.0579Z" fill="#949494"/>
<path d="M148.976 65.9941H152.46V57.4195H152.499L157.438 65.9862H157.732V65.9941H161.219V65.9862H161.241V57.4195H161.258L166.197 65.9862H170V52.2479H166.514V60.7197H166.475L161.535 52.2479H157.732V60.7197H157.718L152.779 52.2479H148.976V65.9941Z" fill="#949494"/>
</g>
</svg>
