<svg width="200" height="100" viewBox="0 0 200 100" fill="none" xmlns="http://www.w3.org/2000/svg">
<mask id="mask0_1429_191" style="mask-type:alpha" maskUnits="userSpaceOnUse" x="0" y="0" width="200" height="100">
<rect width="200" height="100" fill="#222222"/>
</mask>
<g mask="url(#mask0_1429_191)">
<path d="M45.6473 55.4233L43.9529 62.9719H34.7774L36.4439 55.4233H32.2956L28 74.6441H32.1483L33.9595 66.5745H43.1654L41.3517 74.6441H45.5304L49.826 55.4233H45.6473Z" fill="#949494"/>
<path d="M57.9779 60.3789C53.2733 60.3789 49.8262 64.212 49.8262 68.7367C49.8262 72.6274 52.6891 74.9999 57.1294 74.9999C58.902 75.0019 60.6373 74.4981 62.1262 73.5494L60.9576 71.044C60.0812 71.708 58.6206 72.0813 57.4013 72.0813C54.8 72.0813 53.5426 70.3801 53.5426 69.2001V68.8544H64.0339C64.226 68.1177 64.3241 67.3603 64.326 66.5996C64.3184 62.7139 61.5698 60.3789 57.9779 60.3789ZM60.9856 66.3741H53.916C54.2361 64.8459 55.7552 63.2901 57.7442 63.2901C59.9923 63.2901 60.9856 64.7031 60.9856 66.086V66.3741Z" fill="#949494"/>
<path d="M77.8758 62.5686C76.941 61.1856 75.2441 60.3789 73.3744 60.3789C68.5479 60.3789 65.9238 65.0188 65.9238 69.2252C65.9238 72.9155 68.0856 74.9874 71.299 74.9874C72.9959 74.9874 74.3474 74.2959 75.5362 72.913L75.1272 74.6417H78.8665L81.9936 60.7221H78.2543L77.8758 62.5686ZM76.1789 70.0845C75.7984 70.5807 75.3094 70.9859 74.7482 71.27C74.187 71.5541 73.5681 71.7098 72.9375 71.7255C71.1593 71.7255 69.8104 70.4578 69.8104 68.4686C69.8104 65.9056 71.5353 63.6283 73.9587 63.6283C75.4498 63.6283 76.6463 64.3198 77.261 65.2417L76.1789 70.0845Z" fill="#949494"/>
<path d="M82.5498 74.6441H86.2611L90.5567 55.4233H86.8454L82.5498 74.6441Z" fill="#949494"/>
<path d="M96.8078 63.8967H99.6706L100.433 60.7249H97.5673L98.4132 56.9219H94.6714L93.8255 60.7249H91.4859L90.7568 63.8967H93.0939L91.5164 71.0143C91.442 71.3256 91.4028 71.644 91.3995 71.9638C91.3995 74.0382 93.0939 74.9902 95.6062 74.9902C96.4279 75.0116 97.2386 74.8013 97.9433 74.3839L97.7985 71.4452C97.4938 71.6331 97.1417 71.7329 96.7824 71.7333C95.8475 71.7333 95.4106 71.2723 95.4106 70.5233C95.415 70.33 95.4345 70.1373 95.469 69.947L96.8078 63.8967Z" fill="#949494"/>
<path d="M110.95 60.3789C108.875 60.3789 107.356 61.4737 106.246 62.541L107.823 55.4233H104.112L99.8164 74.6441H103.528L105.631 65.2818C106.449 64.4751 107.679 63.6383 109.05 63.6383C110.308 63.6383 111.359 64.1393 111.359 65.4246C111.337 65.7164 111.287 66.0057 111.212 66.2889L109.373 74.6467H113.082L115.216 65.0788C115.291 64.7077 115.339 64.3318 115.36 63.954C115.36 61.7919 113.666 60.3789 110.95 60.3789Z" fill="#949494"/>
<path d="M143.826 64.014L141.179 66.855L138.324 60.7295H142.325L143.826 64.014Z" fill="#949494"/>
<path d="M154.6 60.7247H158.311L155.184 74.6443H151.475L154.6 60.7247ZM157.61 54.2986C157.866 54.2895 158.121 54.3312 158.361 54.4211C158.6 54.511 158.819 54.6473 159.004 54.822C159.189 54.9967 159.337 55.2062 159.439 55.4382C159.541 55.6701 159.594 55.9198 159.596 56.1726C159.601 56.4981 159.54 56.8213 159.417 57.1236C159.295 57.4259 159.113 57.7014 158.882 57.9342C158.651 58.1669 158.376 58.3525 158.072 58.4801C157.768 58.6077 157.442 58.6749 157.112 58.6779C156.855 58.6894 156.599 58.6494 156.358 58.5604C156.118 58.4714 155.898 58.3352 155.712 58.16C155.526 57.9849 155.379 57.7744 155.278 57.5413C155.177 57.3082 155.125 57.0573 155.125 56.8039C155.125 56.1489 155.385 55.5199 155.85 55.0516C156.314 54.5833 156.946 54.313 157.61 54.2986Z" fill="#949494"/>
<path d="M160.386 70.062C161.232 71.0415 163.307 72.194 165.352 72.194C166.622 72.194 167.384 71.5326 167.384 70.7234C167.384 69.9142 166.185 69.4557 164.783 68.9947C162.769 68.3333 160.226 67.4389 160.226 65.0764C160.226 62.6562 162.258 60.3789 166.04 60.3789C168.436 60.3789 170.687 61.2733 172 62.6562L170.161 64.9611C169.46 64.0968 167.707 63.1748 165.982 63.1748C164.669 63.1748 163.95 63.7786 163.95 64.5302C163.95 65.1916 165.002 65.625 166.373 66.086C168.449 66.7199 171.108 67.6118 171.108 70.1196C171.108 72.7702 168.858 74.9899 165.012 74.9899C162.441 74.9899 159.931 74.1256 158.351 72.4846L160.386 70.062Z" fill="#949494"/>
<path d="M152.438 60.7295H148.262L145.122 64.0966L144.283 65.0161L144.276 64.9986L135.268 74.639H139.142L143.44 69.9415L145.604 74.639H149.633L146.156 67.5014L152.438 60.7295Z" fill="#949494"/>
<path d="M130.202 71.3296H121.497L119.538 74.6441H114.775L126.608 55.4233H131.81L135.024 74.6441H130.705L130.202 71.3296ZM123.425 67.7871H129.88L128.597 58.9408L123.425 67.7871Z" fill="#949494"/>
<path d="M113.348 27.0531C112.95 26.5553 112.395 26.2027 111.77 26.0509C111.294 25.9296 110.802 25.8765 110.31 25.8931C109.469 25.9151 108.634 26.0328 107.82 26.2439C106.315 26.6451 104.85 27.1801 103.443 27.8422C102.984 28.0594 102.533 28.2865 102.089 28.5237C101.848 28.6465 101.609 28.7742 101.371 28.9095C99.6535 29.8814 98.0129 30.9793 96.4628 32.194C96.2596 32.3418 96.0538 32.5072 95.8607 32.665C95.8607 32.665 95.8607 32.665 95.843 32.665C95.8424 32.6695 95.8404 32.6736 95.8371 32.6768C95.8339 32.68 95.8297 32.682 95.8252 32.6825C94.8853 33.4517 93.9733 34.2634 93.1045 35.1102C91.8311 36.3503 90.6566 37.6854 89.5914 39.1037C88.6593 40.3364 87.8463 41.6524 87.1629 43.0345C86.7952 43.7811 86.5164 44.5671 86.3322 45.377C86.2275 45.8532 86.1882 46.341 86.2153 46.8276C86.2453 47.4651 86.4923 48.0741 86.9165 48.5562C87.3484 48.9939 87.9215 49.2695 88.5371 49.3354C88.9962 49.3787 89.4593 49.355 89.9114 49.2652C90.2327 49.1945 90.5491 49.1041 90.8589 48.9946C91.3111 48.8619 91.7455 48.7141 92.1697 48.5487C93.5355 47.9755 94.8508 47.2917 96.1021 46.5044C97.3722 45.7528 98.5585 44.921 99.7346 44.0742C100.073 43.8387 100.4 43.6032 100.728 43.3577C100.525 43.1923 100.321 43.027 100.116 42.8416C99.8413 43.052 99.5594 43.2449 99.2749 43.4353C98.0853 44.2183 96.855 44.9391 95.5889 45.5949C94.3378 46.2328 93.03 46.7561 91.682 47.1583C91.2945 47.2612 90.9009 47.3399 90.5033 47.3938C90.2506 47.4252 89.996 47.4402 89.7412 47.4389C89.4728 47.4415 89.2058 47.4 88.9512 47.3161C88.748 47.2384 88.7404 47.0004 88.7759 46.815C88.8322 46.5919 88.9122 46.3752 89.0147 46.1687C89.2855 45.6264 89.6087 45.1113 89.98 44.6304C90.7859 43.5709 91.6752 42.5757 92.6397 41.6541C93.6761 40.6219 94.754 39.6256 95.8734 38.6652C96.821 37.8184 97.7964 37.0067 98.7795 36.2025C98.7795 36.2025 98.7795 36.2025 98.7973 36.2025L98.8151 36.185C99.0081 36.0271 99.2037 35.8718 99.3993 35.7215C101.002 34.4287 102.641 33.1711 104.315 32.0186C104.51 31.8683 104.706 31.738 104.902 31.6153C105.097 31.4925 105.237 31.3798 105.41 31.267C106.515 30.5086 107.679 29.8384 108.892 29.2628C109.44 28.9937 110.012 28.7772 110.602 28.6164C110.828 28.5572 111.059 28.5219 111.293 28.5112C111.478 28.5112 111.727 28.5813 111.763 28.7893C111.801 29.0507 111.795 29.3164 111.745 29.5759C111.709 29.7688 111.638 29.9693 111.585 30.1697C111.453 30.6011 111.283 31.0203 111.077 31.4224C110.425 32.6548 109.654 33.8219 108.773 34.9072C108.57 35.1703 108.356 35.4233 108.145 35.6764C107.935 35.9294 107.754 36.1223 107.559 36.3403C106.311 37.7208 104.974 39.0196 103.555 40.2285C103.714 40.4102 103.884 40.5825 104.063 40.7446C104.889 40.0632 105.694 39.3642 106.474 38.6301C107.005 38.1416 107.536 37.6431 108.059 37.127C108.29 36.909 108.511 36.6835 108.725 36.4631C109.017 36.1674 109.299 35.8793 109.576 35.5737C110.602 34.5105 111.536 33.3649 112.37 32.1489C112.655 31.7079 112.915 31.2521 113.15 30.7835C113.281 30.563 113.4 30.3355 113.505 30.102C113.678 29.6805 113.788 29.2367 113.833 28.7843C113.888 28.1684 113.716 27.5537 113.348 27.0531Z" fill="#949494"/>
<path d="M112.543 43.4631C112.396 42.9622 112.221 42.4695 112.019 41.9875C111.404 40.6529 110.684 39.3672 109.868 38.1418C109.494 37.5656 109.106 36.9969 108.707 36.4457C108.521 36.1752 108.326 35.9146 108.123 35.6516C107.869 35.3033 107.615 34.9526 107.343 34.6119C106.563 33.5797 105.737 32.575 104.889 31.6055C104.693 31.7282 104.498 31.856 104.302 32.0088C105.469 33.3776 106.549 34.8158 107.536 36.3155C107.714 36.5785 107.881 36.8391 108.044 37.1096C108.364 37.6257 108.674 38.1418 108.956 38.6755C109.628 39.8915 110.185 41.1663 110.62 42.4836C110.746 42.913 110.842 43.3509 110.904 43.7938C110.922 43.9943 110.947 44.2122 110.958 44.4051C110.963 44.6692 110.92 44.9321 110.833 45.1818C110.762 45.3847 110.513 45.4098 110.325 45.3747C110.096 45.3255 109.873 45.2525 109.659 45.1567C109.106 44.8979 108.578 44.5875 108.085 44.2298C106.993 43.4533 105.965 42.5948 105.008 41.6618C104.681 41.3562 104.363 41.0405 104.043 40.7098C103.864 40.5477 103.694 40.3753 103.535 40.1937C102.1 38.7531 100.725 37.2399 99.3892 35.7017C99.1936 35.852 98.998 36.0073 98.8049 36.1651L98.7871 36.1827C98.7871 36.1827 98.7871 36.1827 98.7693 36.1827C97.7863 36.9869 96.8108 37.7986 95.8633 38.6454C97.1643 40.1394 98.58 41.5323 100.098 42.8118C100.304 42.9971 100.507 43.1625 100.71 43.3279C101.287 43.7913 101.879 44.2448 102.488 44.6732C103.757 45.5654 105.107 46.3403 106.52 46.9881C107.284 47.3358 108.086 47.5972 108.91 47.7673C109.394 47.8595 109.889 47.889 110.381 47.855C111.021 47.8097 111.628 47.5579 112.108 47.1384C112.548 46.7049 112.819 46.1314 112.87 45.52C112.906 45.0668 112.874 44.6109 112.774 44.1671C112.708 43.9341 112.621 43.7087 112.543 43.4631Z" fill="#949494"/>
<path d="M90.8002 31.2571C91.2854 32.1991 91.8163 33.101 92.3802 33.9879C93.3201 33.0985 94.9205 31.7331 94.9916 31.6704L95.0805 31.5978C95.266 31.4475 95.459 31.2946 95.6521 31.1518C95.1694 30.5255 94.6969 29.8992 94.2473 29.2553C93.4557 28.1842 92.7507 27.0533 92.1389 25.8731C91.8621 25.3351 91.6335 24.7743 91.4556 24.1971C91.3929 23.9769 91.3521 23.7512 91.3336 23.5232C91.3336 23.3403 91.387 23.1048 91.5876 23.0597C91.8494 23.0199 92.1159 23.0199 92.3777 23.0597C92.6351 23.1028 92.8896 23.1614 93.1398 23.235C93.5247 23.3633 93.9006 23.5165 94.2651 23.6935C95.5229 24.3144 96.7179 25.0517 97.8342 25.8957C98.7055 26.5521 99.5463 27.2586 100.359 27.9876C100.476 27.92 100.593 27.8473 100.712 27.7797L101.126 27.5542C100.28 26.7074 99.4244 25.8706 98.5099 25.0915C97.4126 24.1025 96.236 23.2026 94.9916 22.4008C94.603 22.1728 94.194 21.9448 93.7697 21.7444C93.4914 21.5749 93.1981 21.4307 92.8934 21.3135C92.4655 21.1365 92.0102 21.0332 91.547 21.0078C90.928 20.9599 90.3121 21.1333 89.812 21.4963C89.3131 21.9008 88.9639 22.4566 88.8188 23.0772C88.7078 23.5525 88.6634 24.0406 88.6867 24.5278C88.7301 25.356 88.8664 26.1769 89.0931 26.9755C89.5239 28.4526 90.0955 29.8862 90.8002 31.2571Z" fill="#949494"/>
</g>
</svg>
