<svg width="306" height="280" viewBox="0 0 306 280" fill="none" xmlns="http://www.w3.org/2000/svg">
<path d="M195.065 2.99988H166.76V32.3424L166.803 32.3848L195.065 61.7274V147.115V147.142L166.76 117.757V104.109H138.451V132.423V147.115V147.142L166.76 176.527H227.671V36.853L195.065 2.99988Z" fill="#FFD93B"/>
<path d="M138.457 2.99988H77.2607V142.382L110.147 176.527H138.457V147.142H138.451L110.147 117.762V117.73V32.3848H110.195L138.457 61.7274V75.3227H166.761V61.7698V32.3848L138.457 2.99988Z" fill="#FFD93B"/>
<path d="M225.231 9.08471H227.178C227.841 9.15314 228.508 9.00236 229.078 8.65539C229.247 8.51748 229.383 8.34269 229.475 8.14428C229.566 7.94588 229.612 7.72912 229.607 7.51054C229.612 7.21982 229.527 6.93473 229.364 6.6943C229.195 6.45226 228.957 6.26738 228.681 6.16427C228.166 6.01408 227.629 5.95312 227.094 5.98404H225.268L225.231 9.08471ZM223.644 14.8886V4.57417H227.057C227.911 4.53429 228.767 4.63089 229.591 4.86038C230.105 5.0463 230.543 5.39885 230.835 5.86215C231.138 6.30737 231.3 6.83376 231.3 7.37272C231.31 8.10435 231.033 8.81062 230.528 9.33915C229.987 9.90789 229.248 10.2458 228.464 10.2826C228.778 10.4022 229.066 10.5822 229.311 10.8126C229.871 11.4381 230.362 12.1223 230.776 12.8533L231.988 14.8727H230.041L229.163 13.2455C228.747 12.3537 228.179 11.5412 227.485 10.8444C227.108 10.586 226.655 10.4627 226.199 10.4946H225.257V14.8727L223.644 14.8886ZM227.692 1.59009C226.36 1.60759 225.056 1.97299 223.908 2.65016C222.682 3.33537 221.682 4.36297 221.03 5.60771C220.342 6.83146 219.978 8.21063 219.971 9.61475C219.973 11.0031 220.324 12.3686 220.993 13.5847C221.645 14.8228 222.636 15.8488 223.85 16.5423C225.007 17.2327 226.329 17.5989 227.676 17.6023C229.025 17.5995 230.348 17.2334 231.507 16.5423C232.72 15.8501 233.71 14.8236 234.359 13.5847C235.023 12.3673 235.373 11.0023 235.375 9.61475C235.366 8.21094 235.002 6.83234 234.316 5.60771C233.665 4.36188 232.665 3.33389 231.438 2.65016C230.29 1.97413 228.986 1.60881 227.655 1.59009H227.692ZM227.655 0C229.25 0.0112923 230.815 0.438742 232.195 1.24026C233.666 2.05608 234.866 3.28734 235.645 4.78086C236.454 6.25378 236.88 7.90707 236.883 9.58825C236.879 11.2549 236.461 12.8944 235.666 14.3585C234.888 15.8415 233.704 17.0716 232.253 17.9044C230.86 18.7286 229.272 19.1659 227.655 19.1712C226.038 19.1652 224.453 18.7279 223.062 17.9044C221.609 17.0717 220.423 15.8417 219.643 14.3585C218.844 12.8957 218.424 11.2557 218.421 9.58825C218.424 7.90707 218.85 6.25378 219.659 4.78086C220.445 3.28899 221.647 2.05867 223.12 1.24026C224.498 0.439403 226.061 0.0119679 227.655 0Z" fill="#FFD93B"/>
<path d="M301.926 212.76C302.634 212.764 303.328 212.958 303.937 213.322C304.59 213.693 305.123 214.245 305.471 214.912C305.821 215.588 306.003 216.339 306.001 217.101C306.002 217.856 305.821 218.6 305.471 219.269C305.128 219.932 304.603 220.483 303.958 220.859C303.344 221.233 302.639 221.431 301.921 221.431C301.202 221.431 300.497 221.233 299.883 220.859C299.239 220.482 298.715 219.931 298.37 219.269C298.02 218.6 297.839 217.856 297.84 217.101C297.836 216.339 298.018 215.587 298.37 214.912C298.718 214.245 299.251 213.693 299.904 213.322C300.513 212.958 301.207 212.764 301.915 212.76H301.926ZM301.915 213.481C301.324 213.483 300.744 213.646 300.238 213.952C299.691 214.268 299.248 214.736 298.962 215.299C298.661 215.859 298.502 216.485 298.502 217.122C298.501 217.751 298.656 218.37 298.952 218.924C299.238 219.485 299.676 219.953 300.217 220.276C300.73 220.585 301.316 220.75 301.915 220.753C302.514 220.75 303.101 220.585 303.614 220.276C304.154 219.953 304.592 219.485 304.879 218.924C305.172 218.369 305.327 217.75 305.329 217.122C305.328 216.485 305.17 215.859 304.868 215.299C304.582 214.736 304.139 214.268 303.593 213.952C303.086 213.647 302.507 213.484 301.915 213.481ZM300.121 219.528V214.837H301.635C302.014 214.819 302.393 214.863 302.757 214.97C302.977 215.058 303.163 215.217 303.286 215.421C303.42 215.625 303.492 215.865 303.492 216.11C303.498 216.442 303.375 216.763 303.148 217.005C303.032 217.133 302.892 217.236 302.736 217.309C302.58 217.382 302.41 217.423 302.238 217.429C302.376 217.491 302.503 217.575 302.614 217.678C302.861 217.966 303.077 218.279 303.259 218.611L303.789 219.528H302.921L302.529 218.792C302.347 218.387 302.096 218.018 301.788 217.7C301.623 217.579 301.421 217.521 301.217 217.535H300.799V219.528H300.121ZM300.83 216.878H301.693C301.989 216.909 302.287 216.84 302.54 216.682C302.614 216.616 302.673 216.534 302.712 216.443C302.75 216.351 302.767 216.251 302.762 216.152C302.763 216.021 302.726 215.892 302.656 215.781C302.583 215.669 302.478 215.583 302.354 215.532C302.122 215.466 301.881 215.439 301.64 215.452H300.841L300.83 216.878Z" fill="white"/>
<path d="M31.7594 255.173H46.713V214.838H31.7594V228.931H14.9484V214.864H0V255.199H14.9484V239.097H31.7594V255.173ZM54.0258 255.173H94.2727V245.362H68.9795V239.935H92.463V230.108H68.9795V224.691H94.2727V214.864H54.0258V255.173ZM131.091 239.468C129.847 244.302 127.037 246.422 122.323 246.422C116.857 246.422 113.1 243.194 113.1 235.005C113.1 226.816 116.968 223.594 123.069 223.594C128.847 223.594 130.652 227.776 131.075 230.654H147.933C145.976 214.668 132.059 213.422 123.064 213.422C114.068 213.422 97.1883 214.101 97.1883 235.005C97.1883 255.91 113.994 256.583 123.064 256.583C132.133 256.583 137.906 254.95 141.584 252.009C145.261 249.067 146.992 244.779 147.933 239.468H131.091ZM183.476 255.173H203.362L185.011 230.431L201.943 214.838H182.074L168.184 229.074V214.838H153.235V255.173H168.184V244.302L173.116 239.675L183.476 255.173ZM205.266 255.173H245.492V245.362H220.199V239.935H243.688V230.108H220.199V224.691H245.492V214.864H205.245L205.266 255.173ZM250.445 255.173H265.393V242.744H275.976C278.738 242.744 279.68 244.551 279.85 247.546C280.114 252.237 280.114 253.986 280.643 255.173H296.973C295.922 253.788 295.28 252.135 295.121 250.403L294.481 241.588C294.216 238.085 292.417 236.055 290.189 235.371V235.291C294.533 233.935 296.01 229.869 296.01 226.085C296.01 221.675 293.676 217.779 290.866 216.311C288.797 215.251 286.199 214.843 281.903 214.843H250.424L250.445 255.173ZM265.393 225.004H275.786C278.278 225.004 280.135 225.74 280.135 228.788C280.135 231.332 278.913 232.578 275.997 232.578H265.414L265.393 225.004Z" fill="white"/>
<path d="M290.74 274.88H292.571C293.285 274.88 293.671 275.007 293.671 275.479C293.671 275.823 293.518 276.216 292.216 276.216C291.798 276.247 291.378 276.176 290.994 276.009C290.883 275.947 290.789 275.859 290.722 275.751C290.654 275.644 290.615 275.521 290.607 275.394H287.718C287.872 277.933 290.279 278.087 292.428 278.087C295.682 278.087 296.693 277.027 296.693 275.633C296.713 275.217 296.579 274.809 296.316 274.486C296.053 274.164 295.68 273.951 295.269 273.889C295.629 273.846 295.958 273.664 296.187 273.382C296.415 273.1 296.524 272.74 296.492 272.378C296.492 270.883 295.301 270.258 292.258 270.258C289.703 270.258 288.126 270.788 287.993 272.458H290.967C291.147 272.145 291.279 272.065 292.237 272.065C293.327 272.065 293.512 272.336 293.512 272.659C293.512 272.982 293.37 273.189 292.745 273.189H290.782L290.74 274.88ZM277.749 272.357H283.485C279.781 274.965 278.971 276.067 278.776 277.869H282.427C282.697 276.279 283.787 274.769 286.507 272.723V270.401H277.749V272.357ZM272.034 273.565C271.156 273.565 270.611 273.274 270.611 272.797C270.611 272.32 270.907 272.034 272.034 272.034C272.929 272.034 273.474 272.325 273.474 272.797C273.474 273.269 273.177 273.565 272.034 273.565ZM267.801 275.686C268.124 277.599 269.78 278.097 272.034 278.097C274.426 278.097 276.469 277.366 276.469 274.09C276.469 270.645 274.135 270.237 271.706 270.237C268.902 270.237 267.695 271.323 267.695 272.887C267.695 274.8 269.59 275.309 271.627 275.309C272.055 275.315 272.482 275.278 272.902 275.198C273.199 275.142 273.484 275.034 273.743 274.88C273.691 275.855 273.135 276.279 272.045 276.279C271.737 276.291 271.429 276.25 271.135 276.157C271.018 276.128 270.911 276.068 270.825 275.983C270.74 275.898 270.678 275.792 270.648 275.675L267.801 275.686ZM262.79 277.901H265.436V270.422H263.319C262.975 271.482 262.33 271.742 261.086 271.769H260.663V273.64H262.806L262.79 277.901ZM251.779 276.152C251.623 276.345 251.421 276.495 251.191 276.588C250.961 276.68 250.712 276.713 250.466 276.682C249.355 276.682 248.937 276.035 248.937 275.622H254.493C254.535 272.68 252.736 271.811 250.292 271.811C247.847 271.811 246.35 272.951 246.35 274.991C246.35 277.143 247.868 278.171 250.525 278.171C251.447 278.216 252.366 278.034 253.202 277.641C253.502 277.491 253.768 277.281 253.985 277.025C254.203 276.769 254.366 276.472 254.467 276.152H251.779ZM248.937 274.249C249.069 273.507 249.577 273.189 250.456 273.189C251.334 273.189 251.9 273.587 251.953 274.249H248.937ZM245.233 274.398C244.963 272.436 243.545 271.795 241.175 271.795C238.804 271.795 237.031 272.548 237.031 274.975C237.031 277.403 238.846 278.156 241.175 278.156C242.91 278.156 244.969 277.875 245.233 275.431H242.587C242.413 276.194 241.889 276.412 241.18 276.412C240.979 276.435 240.775 276.413 240.584 276.347C240.392 276.281 240.218 276.172 240.074 276.03C239.93 275.888 239.819 275.715 239.75 275.524C239.682 275.333 239.657 275.129 239.677 274.928C239.658 274.726 239.686 274.522 239.757 274.332C239.828 274.142 239.941 273.97 240.087 273.83C240.234 273.69 240.41 273.584 240.603 273.522C240.796 273.46 241 273.442 241.201 273.47C241.515 273.458 241.827 273.522 242.111 273.656C242.25 273.724 242.368 273.829 242.452 273.96C242.536 274.091 242.583 274.242 242.587 274.398H245.233ZM228.454 277.891H230.978V275.177C230.978 274.201 231.507 273.777 232.153 273.777C232.798 273.777 233.121 274.101 233.121 274.838V277.885H235.645V274.138C235.645 272.505 234.587 271.838 233.206 271.838C232.782 271.807 232.357 271.871 231.961 272.026C231.566 272.181 231.21 272.423 230.92 272.733V271.997H228.454V277.891ZM224.221 271.419H226.745V269.935H224.221V271.419ZM224.221 277.891H226.745V272.002H224.221V277.891ZM218.929 275.15C219.315 275.214 219.458 275.436 219.458 275.68C219.458 276.046 219.22 276.306 218.326 276.306C217.99 276.334 217.653 276.281 217.342 276.152C217.249 276.099 217.172 276.022 217.119 275.928C217.065 275.835 217.038 275.729 217.04 275.622H213.638C213.638 277.88 216.04 278.203 218.231 278.203C221.437 278.203 222.871 277.323 222.871 275.447C222.871 274.143 221.982 273.433 220.548 273.21L217.141 272.68C216.86 272.638 216.765 272.5 216.765 272.283C216.765 271.959 217.061 271.753 217.908 271.753C218.213 271.742 218.516 271.798 218.797 271.917C218.926 271.957 219.039 272.038 219.118 272.148C219.197 272.258 219.239 272.391 219.236 272.527H222.549C222.448 270.905 221.125 270.009 217.908 270.009C215.564 270.009 213.738 270.539 213.738 272.542C213.738 273.603 214.31 274.477 215.707 274.705L218.929 275.15ZM200.409 277.891H202.938V275.177C202.938 274.201 203.441 273.777 204.108 273.777C204.775 273.777 205.081 274.101 205.081 274.838V277.885H207.605V274.138C207.605 272.505 206.547 271.838 205.161 271.838C204.737 271.808 204.313 271.873 203.917 272.028C203.522 272.183 203.166 272.424 202.875 272.733V271.997H200.43L200.409 277.891ZM190.816 274.944C190.816 277.117 192.054 278.124 194.906 278.124C197.758 278.124 198.996 277.111 198.996 274.944C198.996 272.776 197.753 271.763 194.906 271.763C192.059 271.763 190.816 272.77 190.816 274.944ZM193.461 274.944C193.43 274.744 193.448 274.541 193.511 274.349C193.575 274.158 193.683 273.985 193.827 273.844C193.97 273.703 194.146 273.598 194.338 273.539C194.531 273.479 194.734 273.467 194.932 273.502C195.954 273.502 196.377 274.032 196.377 274.938C196.377 275.845 195.954 276.38 194.932 276.38C193.911 276.38 193.488 275.887 193.488 274.938L193.461 274.944ZM186.9 271.414H189.424V269.929H186.9V271.414ZM186.9 277.885H189.424V272.002H186.9V277.885ZM180.45 273.677H181.624V276.099C181.624 277.689 182.212 278.018 183.741 278.018C184.355 278.018 184.969 277.974 185.577 277.885V276.295C185.339 276.295 185.106 276.295 184.905 276.295C184.376 276.295 184.143 276.263 184.143 275.712V273.634H185.508V271.954H184.143V270.11H181.624V272.002H180.45V273.677ZM179.571 274.366C179.301 272.405 177.883 271.763 175.507 271.763C173.132 271.763 171.37 272.516 171.37 274.944C171.37 277.371 173.19 278.124 175.507 278.124C177.248 278.124 179.307 277.843 179.571 275.399H176.926C176.751 276.163 176.227 276.38 175.523 276.38C175.322 276.403 175.118 276.381 174.926 276.315C174.735 276.249 174.56 276.14 174.416 275.998C174.271 275.856 174.16 275.683 174.091 275.492C174.022 275.302 173.996 275.098 174.015 274.896C173.997 274.694 174.025 274.491 174.097 274.302C174.168 274.112 174.281 273.941 174.428 273.802C174.574 273.662 174.75 273.557 174.943 273.495C175.135 273.433 175.339 273.416 175.539 273.444C175.853 273.432 176.165 273.496 176.449 273.629C176.589 273.698 176.707 273.803 176.791 273.934C176.875 274.064 176.921 274.216 176.926 274.371L179.571 274.366ZM169.951 271.997H167.427V274.779C167.427 275.659 167.046 276.184 166.258 276.184C165.66 276.184 165.284 275.866 165.284 275.124V272.002H162.76V275.823C162.76 277.461 163.819 278.129 165.205 278.129C165.628 278.157 166.051 278.091 166.446 277.937C166.841 277.783 167.198 277.545 167.491 277.239V277.891H169.936L169.951 271.997ZM155.887 277.891H158.416V275.686C158.416 274.414 159.374 274.095 160.273 274.095C160.703 274.111 161.128 274.184 161.538 274.313V271.912C161.263 271.87 160.985 271.848 160.707 271.848C160.239 271.85 159.778 271.969 159.367 272.194C158.956 272.419 158.607 272.742 158.353 273.136V272.007H155.908L155.887 277.891ZM149.442 273.682H150.616V276.104C150.616 277.694 151.198 278.023 152.733 278.023C153.347 278.024 153.961 277.979 154.569 277.891V276.3C154.326 276.3 154.093 276.3 153.892 276.3C153.363 276.3 153.135 276.269 153.135 275.717V273.64H154.495V271.959H153.135V270.11H150.616V272.002H149.442V273.682ZM145.351 275.802C145.398 275.803 145.444 275.813 145.487 275.832C145.53 275.851 145.569 275.878 145.601 275.912C145.633 275.946 145.658 275.986 145.674 276.03C145.69 276.074 145.697 276.121 145.695 276.168C145.695 276.438 145.5 276.624 144.854 276.624C144.611 276.638 144.368 276.602 144.14 276.518C144.05 276.473 143.973 276.405 143.918 276.321C143.862 276.238 143.829 276.141 143.822 276.041H140.854C140.933 277.525 142.076 278.108 144.701 278.108C147.325 278.108 148.606 277.525 148.606 275.988C148.606 274.986 148.077 274.339 146.722 274.212L144.32 274.032C143.79 273.979 143.642 273.815 143.642 273.666C143.642 273.518 143.785 273.258 144.542 273.258C144.799 273.241 145.057 273.292 145.288 273.406C145.351 273.443 145.403 273.497 145.437 273.562C145.472 273.626 145.488 273.699 145.484 273.772H148.331C148.278 272.103 146.389 271.774 144.674 271.774C142.208 271.774 140.997 272.362 140.997 273.751C140.997 274.774 141.42 275.399 142.886 275.564L145.351 275.802ZM132.308 277.869H134.832V275.156C134.832 274.18 135.335 273.756 136.001 273.756C136.668 273.756 136.975 274.08 136.975 274.816V277.864H139.499V274.117C139.499 272.484 138.441 271.816 137.054 271.816C136.633 271.794 136.212 271.865 135.822 272.025C135.431 272.184 135.081 272.428 134.795 272.739V272.002H132.308V277.869ZM122.704 274.922C122.704 277.095 123.947 278.103 126.8 278.103C129.652 278.103 130.89 277.09 130.89 274.922C130.89 272.755 129.646 271.742 126.8 271.742C123.953 271.742 122.704 272.749 122.704 274.922ZM125.35 274.922C125.323 274.727 125.343 274.528 125.407 274.341C125.471 274.155 125.578 273.986 125.719 273.848C125.86 273.71 126.031 273.607 126.218 273.547C126.406 273.486 126.605 273.471 126.8 273.502C127.821 273.502 128.244 274.032 128.244 274.938C128.244 275.845 127.821 276.38 126.8 276.38C125.778 276.38 125.355 275.887 125.355 274.938L125.35 274.922ZM118.391 274.901C118.337 275.294 118.134 275.652 117.823 275.898C117.513 276.145 117.119 276.263 116.725 276.226C115.666 276.226 114.968 275.611 114.968 274.048C114.968 272.484 115.703 271.875 116.867 271.875C117.247 271.854 117.619 271.984 117.904 272.236C118.189 272.487 118.364 272.841 118.391 273.221H121.566C121.191 270.173 118.545 269.935 116.83 269.935C115.116 269.935 111.899 270.067 111.899 274.048C111.899 278.028 115.1 278.161 116.83 278.161C118.561 278.161 119.656 277.848 120.355 277.292C121.046 276.677 121.479 275.823 121.566 274.901H118.391ZM103.406 276.152C103.25 276.345 103.048 276.495 102.818 276.588C102.589 276.68 102.339 276.713 102.094 276.682C100.983 276.682 100.564 276.035 100.564 275.622H106.121C106.163 272.68 104.364 271.811 101.919 271.811C99.4744 271.811 97.9822 272.951 97.9822 274.991C97.9822 277.143 99.4956 278.171 102.152 278.171C103.074 278.216 103.993 278.034 104.829 277.641C105.13 277.492 105.398 277.283 105.615 277.027C105.833 276.771 105.996 276.473 106.094 276.152H103.406ZM100.564 274.249C100.697 273.507 101.205 273.189 102.083 273.189C102.962 273.189 103.528 273.587 103.581 274.249H100.564ZM89.373 277.917H91.8971V275.203C91.8971 274.228 92.3997 273.804 93.0718 273.804C93.7438 273.804 94.0401 274.127 94.0401 274.864V277.912H96.5641V274.164C96.5641 272.532 95.5058 271.864 94.1195 271.864C93.696 271.835 93.2713 271.9 92.876 272.055C92.4807 272.209 92.1247 272.45 91.8336 272.76V272.023H89.3889L89.373 277.917ZM85.1399 271.445H87.6639V269.961H85.1399V271.445ZM85.1399 277.917H87.6639V272.002H85.1399V277.917ZM78.261 277.917H80.7903V275.712C80.7903 274.44 81.748 274.122 82.6476 274.122C83.0769 274.138 83.5022 274.211 83.9122 274.339V271.912C83.6373 271.87 83.3596 271.848 83.0815 271.848C82.6131 271.85 82.1525 271.969 81.7414 272.194C81.3303 272.419 80.9816 272.742 80.7268 273.136V272.007H78.2821L78.261 277.917ZM74.0278 275.495C74.0278 276.507 73.0859 276.735 72.2393 276.735C71.6149 276.735 71.2974 276.475 71.2974 276.067C71.2974 275.659 71.5196 275.537 71.9853 275.484C72.6698 275.437 73.3515 275.356 74.0278 275.24V275.495ZM71.5196 273.815C71.6413 273.247 72.2181 273.147 72.7949 273.147C73.5145 273.147 73.9643 273.332 73.9643 273.719C73.9643 274.106 73.795 274.17 73.2923 274.207L71.1757 274.313C69.3078 274.398 68.5935 275.087 68.5935 276.163C68.5935 277.673 69.6517 278.156 71.3609 278.156C72.7049 278.156 73.5674 277.896 74.1283 277.339C74.1359 277.535 74.1679 277.729 74.2236 277.917H76.8058C76.6371 277.642 76.5559 277.322 76.573 277V274.159C76.573 272.405 75.5517 271.795 72.9748 271.795C72.0007 271.726 71.023 271.865 70.1068 272.203C69.8062 272.355 69.5487 272.58 69.3582 272.858C69.1676 273.136 69.0502 273.458 69.0168 273.793L71.5196 273.815ZM56.7459 277.891H59.3281V272.399L60.8468 277.891H63.0057L64.5243 272.399V277.891H67.1118V270.205H63.1009L61.9156 274.673L60.7356 270.205H56.7459V277.891ZM44.258 279.905C44.7237 279.947 45.4063 280 45.9724 280C47.3271 280 47.6393 279.693 48.0361 278.85L51.1369 272.002H48.4912L47.2742 275.028L46.0465 272.002H43.4008L45.9672 277.419L45.8296 277.742C45.6232 278.171 45.4116 278.193 44.8877 278.193C44.6791 278.195 44.4706 278.184 44.2633 278.161L44.258 279.905ZM37.7813 273.682H38.9507V276.104C38.9507 277.694 39.538 278.023 41.0673 278.023C41.6817 278.024 42.2954 277.979 42.9034 277.891V276.3C42.6653 276.3 42.4325 276.3 42.2314 276.3C41.7022 276.3 41.4694 276.269 41.4694 275.717V273.64H42.8346V271.959H41.4694V270.11H38.9454V272.002H37.776L37.7813 273.682ZM34.0772 271.419H36.6013V269.935H34.0772V271.419ZM34.0772 277.891H36.6013V272.002H34.0772V277.891ZM29.8441 277.891H32.3681V269.94H29.8441V277.891ZM25.6109 275.468C25.6109 276.481 24.669 276.709 23.8171 276.709C23.1927 276.709 22.8805 276.449 22.8805 276.041C22.8805 275.633 23.1027 275.511 23.5684 275.458C24.4679 275.373 25.1823 275.309 25.6109 275.214V275.468ZM23.1027 273.788C23.2244 273.221 23.8012 273.12 24.378 273.12C25.0923 273.12 25.5474 273.306 25.5474 273.693C25.5474 274.08 25.3781 274.143 24.8701 274.18L22.7535 274.286C20.8856 274.371 20.1713 275.06 20.1713 276.136C20.1713 277.647 21.2296 278.129 22.9334 278.129C24.2827 278.129 25.14 277.869 25.7061 277.313C25.7148 277.508 25.7449 277.702 25.7961 277.891H28.3836C28.2149 277.616 28.1337 277.296 28.1508 276.974V274.133C28.1508 272.378 27.1296 271.769 24.5526 271.769C23.5785 271.699 22.6009 271.838 21.6846 272.177C21.384 272.329 21.1265 272.554 20.936 272.832C20.7455 273.11 20.628 273.431 20.5946 273.767L23.1027 273.788ZM18.8167 272.002H16.2662V274.785C16.2662 275.664 15.8852 276.189 15.0968 276.189C14.4988 276.189 14.1231 275.871 14.1231 275.129V272.007H11.5991V275.829C11.5991 277.466 12.6574 278.134 14.0438 278.134C14.4666 278.162 14.8903 278.096 15.2851 277.943C15.68 277.789 16.0365 277.55 16.3297 277.244V277.896H18.769L18.8167 272.002ZM9.00629 279.475L10.2022 278.065L9.14386 277.053C9.77884 276.449 10.2022 275.5 10.2022 274.048C10.2022 270.067 6.99553 269.935 5.27051 269.935C3.5455 269.935 0.338867 270.067 0.338867 274.048C0.338867 278.028 3.54021 278.161 5.27051 278.161C5.68939 278.163 6.10804 278.141 6.52459 278.097C6.82787 278.069 7.12857 278.017 7.42414 277.944L9.00629 279.475ZM5.15939 275.765L5.61446 276.221C5.50334 276.221 5.39222 276.221 5.27051 276.221C4.10639 276.221 3.36558 275.606 3.36558 274.042C3.36558 272.479 4.10639 271.869 5.27051 271.869C6.43464 271.869 7.17015 272.479 7.17015 274.042C7.17607 274.385 7.12785 274.727 7.02728 275.055L6.32881 274.398L5.15939 275.765Z" fill="white"/>
</svg>
