<svg width="290" height="198" viewBox="0 0 290 198" fill="none" xmlns="http://www.w3.org/2000/svg">
<path d="M290 0.226074H0V197.226H290V0.226074Z" fill="#0031F9"/>
<mask id="mask0_2643_625" style="mask-type:alpha" maskUnits="userSpaceOnUse" x="0" y="0" width="290" height="198">
<path d="M290 0.226074H0V197.226H290V0.226074Z" fill="#004EF9"/>
</mask>
<g mask="url(#mask0_2643_625)">
<path d="M40.9358 67.0245L37.0557 73.8574L116.718 119.093L120.598 112.261L40.9358 67.0245Z" fill="#FFD93B"/>
<path d="M65.9191 52.9504L62.0259 59.7759L141.345 105.019L145.239 98.1936L65.9191 52.9504Z" fill="#FFD93B"/>
<path d="M89.0597 39.2526L85.1665 46.0781L164.487 91.3219L168.38 84.4964L89.0597 39.2526Z" fill="#FFD93B"/>
<path d="M112.421 25.8493L108.527 32.6748L187.934 77.9673L191.827 71.1418L112.421 25.8493Z" fill="#FFD93B"/>
<path d="M23.8512 163.313L1.54461 152.176L-20.7685 163.313L-28.0889 159.656L-24.5792 152.628L-20.7685 154.531L1.54461 143.393L23.8512 154.531L46.1499 143.393L68.4565 154.531L90.763 143.393L107.213 151.607L103.703 158.637L90.763 152.176L68.4565 163.313L46.1499 152.176L23.8512 163.313Z" fill="white"/>
<path d="M157.679 163.313L135.375 152.176L120.404 159.651L116.893 152.623L135.375 143.393L157.679 154.531L179.983 143.393L199.484 153.139L195.972 160.168L179.981 152.176L157.679 163.313Z" fill="white"/>
<path d="M291.547 163.328L269.241 152.193L246.927 163.328L224.62 152.193L212.664 158.159L209.156 151.126L224.622 143.41L246.927 154.546L269.241 143.41L291.547 154.546L313.845 143.41L336.153 154.546L358.46 143.41L380.764 154.546L403.07 143.41L425.376 154.546L447.677 143.41L471.734 155.423L468.223 162.451L447.677 152.193L425.376 163.328L403.07 152.193L380.764 163.328L358.46 152.193L336.153 163.328L313.845 152.193L291.547 163.328Z" fill="white"/>
<path d="M23.8518 192.099L1.54526 180.963L-20.7679 192.099L-28.0869 188.445L-24.5785 181.416L-20.7679 183.317L1.54526 172.181L23.8518 183.317L46.1505 172.181L68.4571 183.317L90.7637 172.181L107.214 180.395L103.704 187.424L90.7637 180.963L68.4571 192.099L46.1505 180.963L23.8518 192.099Z" fill="white"/>
<path d="M157.679 192.099L135.375 180.963L120.402 188.437L116.894 181.408L135.375 172.181L157.679 183.317L179.983 172.181L199.484 181.926L195.972 188.955L179.98 180.963L157.679 192.099Z" fill="white"/>
<path d="M291.546 192.117L269.241 180.98L246.927 192.117L224.62 180.98L212.664 186.948L209.154 179.915L224.621 172.197L246.927 183.336L269.241 172.197L291.546 183.336L313.845 172.197L336.153 183.336L358.46 172.197L380.764 183.336L403.07 172.197L425.375 183.336L447.677 172.197L471.734 184.212L468.223 191.241L447.677 180.98L425.375 192.117L403.07 180.98L380.764 192.117L358.46 180.98L336.153 192.117L313.845 180.98L291.546 192.117Z" fill="white"/>
<path d="M109.388 108.198H101.53V254.611H109.388V108.198Z" fill="#FFD93B"/>
<path d="M122.577 115.678H114.719V254.61H122.577V115.678Z" fill="#FFD93B"/>
<path d="M201.658 69.2495H193.8V254.611H201.658V69.2495Z" fill="#FFD93B"/>
<path d="M208.931 58.6809L116.902 112.286L120.858 119.077L212.887 65.4719L208.931 58.6809Z" fill="#FFD93B"/>
<path d="M214.837 254.61H206.979V64.3514L131.838 21.4924L-35.585 117.939V254.61H-43.4414V113.397L131.818 12.4336L214.837 59.7852V254.61Z" fill="#FFD93B"/>
</g>
</svg>
