<svg width="400" height="450" viewBox="0 0 400 450" fill="none" xmlns="http://www.w3.org/2000/svg">
<rect width="400" height="450" fill="#0031F9"/>
<path d="M230.241 126.504H209.892V147.6L209.922 147.63L230.241 168.726V230.116V230.135L209.892 209.008V199.196H189.539V219.552V230.116V230.135L209.892 251.261H253.683V150.842L230.241 126.504Z" fill="#FFD93B"/>
<path d="M189.544 126.504H145.547V226.713L169.191 251.261H189.544V230.135H189.54L169.191 209.012V208.989V147.63H169.225L189.544 168.726V178.5H209.893V168.756V147.63L189.544 126.504Z" fill="#FFD93B"/>
<path d="M251.929 130.878H253.329C253.806 130.928 254.286 130.819 254.695 130.57C254.817 130.471 254.914 130.345 254.98 130.202C255.046 130.06 255.079 129.904 255.075 129.747C255.079 129.538 255.018 129.333 254.9 129.16C254.779 128.986 254.608 128.853 254.41 128.779C254.039 128.671 253.653 128.627 253.268 128.649H251.956L251.929 130.878ZM250.788 135.051V127.636H253.242C253.856 127.607 254.471 127.676 255.064 127.841C255.434 127.975 255.748 128.228 255.958 128.562C256.176 128.882 256.293 129.26 256.293 129.648C256.3 130.174 256.101 130.681 255.737 131.061C255.348 131.47 254.817 131.713 254.254 131.74C254.48 131.826 254.686 131.955 254.862 132.121C255.265 132.57 255.619 133.062 255.916 133.588L256.787 135.04H255.387L254.756 133.87C254.457 133.229 254.049 132.645 253.55 132.144C253.279 131.958 252.953 131.869 252.626 131.892H251.948V135.04L250.788 135.051ZM253.698 125.49C252.741 125.503 251.803 125.765 250.978 126.252C250.097 126.745 249.378 127.484 248.909 128.379C248.415 129.258 248.153 130.25 248.148 131.26C248.149 132.258 248.401 133.239 248.882 134.114C249.351 135.004 250.064 135.741 250.936 136.24C251.768 136.736 252.718 137 253.687 137.002C254.657 137 255.608 136.737 256.441 136.24C257.314 135.742 258.025 135.004 258.492 134.114C258.97 133.238 259.221 132.257 259.222 131.26C259.216 130.25 258.954 129.259 258.461 128.379C257.993 127.483 257.274 126.744 256.392 126.252C255.566 125.766 254.629 125.504 253.672 125.49H253.698ZM253.672 124.347C254.819 124.355 255.944 124.662 256.936 125.239C257.994 125.825 258.856 126.71 259.416 127.784C259.998 128.843 260.304 130.032 260.306 131.24C260.304 132.439 260.003 133.617 259.431 134.67C258.872 135.736 258.021 136.621 256.978 137.219C255.976 137.812 254.835 138.126 253.672 138.13C252.51 138.126 251.37 137.811 250.37 137.219C249.325 136.621 248.473 135.736 247.912 134.67C247.338 133.618 247.036 132.439 247.033 131.24C247.036 130.032 247.342 128.843 247.923 127.784C248.488 126.712 249.353 125.827 250.411 125.239C251.402 124.663 252.526 124.356 253.672 124.347" fill="#FFD93B"/>
<path d="M307.07 277.311C307.579 277.314 308.079 277.453 308.516 277.715C308.986 277.982 309.369 278.379 309.619 278.858C309.871 279.344 310.001 279.884 310 280.432C310.001 280.974 309.87 281.509 309.619 281.99C309.372 282.467 308.995 282.863 308.531 283.133C308.09 283.402 307.583 283.545 307.066 283.545C306.55 283.545 306.043 283.402 305.601 283.133C305.139 282.862 304.761 282.466 304.513 281.99C304.262 281.509 304.132 280.974 304.133 280.432C304.13 279.884 304.26 279.343 304.513 278.858C304.764 278.379 305.147 277.982 305.617 277.715C306.054 277.453 306.553 277.314 307.062 277.311H307.07ZM307.062 277.829C306.637 277.831 306.22 277.948 305.856 278.168C305.464 278.395 305.145 278.731 304.939 279.136C304.723 279.539 304.609 279.989 304.608 280.447C304.608 280.899 304.719 281.344 304.932 281.742C305.138 282.145 305.453 282.482 305.841 282.714C306.21 282.936 306.632 283.055 307.062 283.057C307.493 283.055 307.915 282.936 308.284 282.714C308.672 282.482 308.987 282.145 309.193 281.742C309.404 281.343 309.515 280.899 309.517 280.447C309.516 279.989 309.402 279.539 309.185 279.136C308.98 278.731 308.661 278.395 308.269 278.168C307.904 277.949 307.488 277.831 307.062 277.829V277.829ZM305.773 282.177V278.804H306.861C307.133 278.791 307.406 278.823 307.667 278.9C307.826 278.963 307.96 279.077 308.048 279.224C308.144 279.371 308.196 279.543 308.196 279.719C308.201 279.958 308.112 280.189 307.949 280.363C307.866 280.455 307.765 280.529 307.652 280.581C307.54 280.634 307.418 280.663 307.295 280.668C307.394 280.712 307.485 280.773 307.565 280.847C307.742 281.054 307.898 281.279 308.029 281.518L308.409 282.177H307.785L307.504 281.647C307.373 281.357 307.193 281.091 306.971 280.862C306.852 280.776 306.707 280.734 306.56 280.744H306.26V282.177H305.773ZM306.283 280.272H306.903C307.116 280.294 307.33 280.244 307.511 280.131C307.565 280.083 307.607 280.024 307.635 279.958C307.663 279.892 307.675 279.821 307.671 279.749C307.672 279.655 307.645 279.563 307.595 279.483C307.543 279.402 307.467 279.34 307.378 279.304C307.211 279.256 307.038 279.237 306.865 279.246H306.29L306.283 280.272Z" fill="white"/>
<path d="M112.833 307.804H123.584V278.804H112.833V288.937H100.747V278.824H90V307.823H100.747V296.246H112.833V307.804ZM128.842 307.804H157.777V300.75H139.593V296.848H156.476V289.783H139.593V285.888H157.777V278.824H128.842V307.804ZM184.248 296.513C183.354 299.988 181.334 301.512 177.944 301.512C174.014 301.512 171.313 299.192 171.313 293.304C171.313 287.417 174.094 285.1 178.48 285.1C182.635 285.1 183.932 288.106 184.236 290.175H196.357C194.949 278.683 184.944 277.787 178.477 277.787C172.009 277.787 159.874 278.275 159.874 293.304C159.874 308.333 171.956 308.817 178.477 308.817C184.997 308.817 189.148 307.644 191.792 305.529C194.436 303.414 195.68 300.331 196.357 296.513H184.248ZM221.91 307.804H236.207L223.013 290.015L235.187 278.804H220.902L210.916 289.04V278.804H200.169V307.804H210.916V299.988L214.461 296.661L221.91 307.804ZM237.576 307.804H266.497V300.75H248.312V296.848H265.199V289.783H248.312V285.888H266.497V278.824H237.561L237.576 307.804ZM270.057 307.804H280.805V298.868H288.413C290.399 298.868 291.076 300.167 291.198 302.32C291.388 305.692 291.388 306.95 291.769 307.804H303.509C302.753 306.808 302.292 305.619 302.177 304.374L301.717 298.037C301.527 295.518 300.233 294.059 298.631 293.567V293.51C301.755 292.534 302.816 289.611 302.816 286.891C302.816 283.72 301.139 280.919 299.118 279.864C297.631 279.102 295.763 278.808 292.674 278.808H270.042L270.057 307.804ZM280.805 286.113H288.276C290.068 286.113 291.403 286.643 291.403 288.834C291.403 290.663 290.525 291.559 288.428 291.559H280.82L280.805 286.113Z" fill="white"/>
<path d="M299.028 321.972H300.344C300.858 321.972 301.135 322.063 301.135 322.403C301.135 322.65 301.025 322.932 300.089 322.932C299.789 322.954 299.487 322.903 299.21 322.784C299.131 322.739 299.063 322.676 299.015 322.598C298.966 322.521 298.938 322.433 298.933 322.342H296.856C296.966 324.167 298.697 324.277 300.241 324.277C302.581 324.277 303.308 323.515 303.308 322.513C303.322 322.214 303.226 321.921 303.037 321.689C302.848 321.457 302.58 321.304 302.284 321.259V321.259C302.543 321.229 302.78 321.098 302.944 320.895C303.108 320.692 303.187 320.433 303.163 320.173C303.163 319.099 302.307 318.649 300.12 318.649C298.282 318.649 297.148 319.03 297.053 320.23H299.191C299.321 320.006 299.416 319.948 300.104 319.948C300.888 319.948 301.021 320.143 301.021 320.375C301.021 320.608 300.919 320.756 300.47 320.756H299.058L299.028 321.972ZM289.688 320.158H293.812C291.149 322.033 290.567 322.826 290.426 324.121H293.051C293.245 322.978 294.029 321.892 295.984 320.421V318.752H289.688V320.158ZM285.58 321.027C284.948 321.027 284.556 320.817 284.556 320.474C284.556 320.131 284.769 319.926 285.58 319.926C286.223 319.926 286.614 320.135 286.614 320.474C286.614 320.813 286.401 321.027 285.58 321.027ZM282.536 322.551C282.768 323.927 283.959 324.285 285.58 324.285C287.299 324.285 288.768 323.759 288.768 321.404C288.768 318.927 287.09 318.634 285.344 318.634C283.327 318.634 282.46 319.415 282.46 320.539C282.46 321.915 283.822 322.281 285.287 322.281C285.594 322.285 285.901 322.258 286.204 322.201C286.417 322.16 286.622 322.083 286.808 321.972C286.77 322.673 286.371 322.978 285.587 322.978C285.366 322.987 285.144 322.957 284.933 322.89C284.849 322.869 284.772 322.826 284.71 322.765C284.649 322.704 284.605 322.627 284.583 322.544L282.536 322.551ZM278.934 324.144H280.836V318.767H279.314C279.067 319.529 278.603 319.716 277.709 319.735H277.404V321.08H278.945L278.934 324.144ZM271.017 322.886C270.905 323.025 270.759 323.133 270.594 323.2C270.429 323.266 270.25 323.29 270.073 323.268C269.274 323.268 268.974 322.803 268.974 322.505H272.968C272.999 320.39 271.705 319.766 269.948 319.766C268.19 319.766 267.114 320.585 267.114 322.052C267.114 323.599 268.205 324.338 270.115 324.338C270.778 324.371 271.439 324.24 272.04 323.957C272.256 323.849 272.447 323.698 272.603 323.514C272.759 323.33 272.877 323.117 272.949 322.886H271.017ZM268.974 321.518C269.069 320.985 269.434 320.756 270.066 320.756C270.697 320.756 271.104 321.042 271.142 321.518H268.974ZM266.311 321.625C266.117 320.215 265.097 319.754 263.393 319.754C261.689 319.754 260.414 320.295 260.414 322.041C260.414 323.786 261.719 324.327 263.393 324.327C264.641 324.327 266.121 324.125 266.311 322.368H264.409C264.283 322.917 263.907 323.073 263.397 323.073C263.252 323.09 263.106 323.074 262.968 323.026C262.83 322.979 262.705 322.901 262.602 322.799C262.498 322.696 262.419 322.572 262.369 322.435C262.32 322.298 262.302 322.151 262.316 322.006C262.303 321.861 262.322 321.714 262.373 321.578C262.425 321.441 262.506 321.318 262.611 321.217C262.717 321.116 262.843 321.04 262.982 320.996C263.121 320.951 263.268 320.938 263.412 320.958C263.638 320.95 263.862 320.996 264.066 321.092C264.166 321.141 264.251 321.217 264.312 321.311C264.372 321.405 264.406 321.513 264.409 321.625H266.311ZM254.247 324.136H256.062V322.185C256.062 321.484 256.442 321.179 256.907 321.179C257.371 321.179 257.603 321.412 257.603 321.941V324.133H259.417V321.438C259.417 320.265 258.657 319.785 257.664 319.785C257.359 319.762 257.053 319.809 256.769 319.92C256.485 320.031 256.229 320.205 256.02 320.429V320.429V319.899H254.247V324.136ZM251.204 319.484H253.019V318.417H251.204V319.484ZM251.204 324.136H253.019V319.903H251.204V324.136ZM247.4 322.166C247.677 322.212 247.78 322.372 247.78 322.547C247.78 322.81 247.609 322.997 246.966 322.997C246.725 323.017 246.482 322.979 246.258 322.886C246.191 322.848 246.136 322.793 246.098 322.726C246.06 322.659 246.04 322.583 246.042 322.505H243.595C243.595 324.129 245.323 324.361 246.898 324.361C249.203 324.361 250.234 323.729 250.234 322.38C250.234 321.442 249.595 320.932 248.564 320.772L246.114 320.39C245.912 320.36 245.844 320.261 245.844 320.105C245.844 319.872 246.057 319.724 246.665 319.724C246.885 319.716 247.103 319.756 247.305 319.842C247.398 319.871 247.479 319.929 247.536 320.008C247.592 320.087 247.622 320.183 247.62 320.28H250.002C249.93 319.114 248.978 318.47 246.665 318.47C244.98 318.47 243.668 318.851 243.668 320.291C243.668 321.054 244.079 321.682 245.083 321.846L247.4 322.166ZM234.085 324.136H235.903V322.185C235.903 321.484 236.264 321.179 236.744 321.179C237.223 321.179 237.444 321.412 237.444 321.941V324.133H239.258V321.438C239.258 320.265 238.498 319.785 237.501 319.785C237.196 319.763 236.891 319.81 236.607 319.922C236.323 320.033 236.067 320.206 235.857 320.429V320.429V319.899H234.1L234.085 324.136ZM227.187 322.018C227.187 323.58 228.078 324.304 230.128 324.304C232.179 324.304 233.069 323.576 233.069 322.018C233.069 320.459 232.175 319.731 230.128 319.731C228.081 319.731 227.187 320.455 227.187 322.018ZM229.09 322.018C229.067 321.874 229.08 321.728 229.125 321.59C229.171 321.453 229.249 321.328 229.352 321.227C229.456 321.125 229.582 321.05 229.72 321.008C229.858 320.965 230.005 320.956 230.147 320.981C230.881 320.981 231.186 321.362 231.186 322.014C231.186 322.665 230.881 323.05 230.147 323.05C229.413 323.05 229.109 322.696 229.109 322.014L229.09 322.018ZM224.372 319.48H226.187V318.413H224.372V319.48ZM224.372 324.133H226.187V319.903H224.372V324.133ZM219.735 321.107H220.579V322.848C220.579 323.992 221.002 324.228 222.101 324.228C222.543 324.228 222.984 324.197 223.421 324.133V322.989C223.25 322.989 223.083 322.989 222.938 322.989C222.558 322.989 222.39 322.967 222.39 322.57V321.076H223.372V319.868H222.39V318.542H220.579V319.903H219.735V321.107ZM219.103 321.602C218.909 320.192 217.89 319.731 216.182 319.731C214.473 319.731 213.207 320.272 213.207 322.018C213.207 323.763 214.515 324.304 216.182 324.304C217.433 324.304 218.913 324.102 219.103 322.345H217.201C217.076 322.894 216.699 323.05 216.193 323.05C216.048 323.067 215.902 323.051 215.764 323.003C215.626 322.956 215.501 322.878 215.397 322.776C215.293 322.674 215.213 322.549 215.163 322.412C215.113 322.275 215.095 322.129 215.109 321.983C215.096 321.838 215.116 321.692 215.167 321.556C215.219 321.42 215.3 321.297 215.405 321.197C215.511 321.096 215.637 321.021 215.775 320.976C215.914 320.932 216.06 320.919 216.204 320.939C216.43 320.931 216.654 320.977 216.859 321.073C216.959 321.122 217.044 321.198 217.104 321.292C217.164 321.386 217.198 321.494 217.201 321.606L219.103 321.602ZM212.187 319.899H210.372V321.9C210.372 322.532 210.099 322.909 209.532 322.909C209.102 322.909 208.832 322.681 208.832 322.147V319.903H207.017V322.65C207.017 323.828 207.778 324.308 208.775 324.308C209.079 324.328 209.383 324.281 209.667 324.17C209.951 324.059 210.207 323.888 210.418 323.668V324.136H212.176L212.187 319.899ZM202.075 324.136H203.894V322.551C203.894 321.637 204.582 321.408 205.229 321.408C205.538 321.419 205.844 321.472 206.138 321.564V319.838C205.941 319.808 205.741 319.792 205.541 319.792C205.204 319.794 204.873 319.879 204.578 320.041C204.282 320.202 204.031 320.435 203.848 320.718V320.718V319.907H202.09L202.075 324.136ZM197.442 321.111H198.286V322.852C198.286 323.995 198.705 324.232 199.808 324.232C200.25 324.232 200.691 324.2 201.128 324.136V322.993C200.953 322.993 200.786 322.993 200.641 322.993C200.261 322.993 200.097 322.97 200.097 322.574V321.08H201.075V319.872H200.097V318.542H198.286V319.903H197.442V321.111ZM194.501 322.635C194.535 322.635 194.568 322.643 194.599 322.656C194.629 322.67 194.657 322.689 194.68 322.714C194.703 322.739 194.721 322.767 194.733 322.799C194.745 322.831 194.75 322.864 194.748 322.898C194.748 323.092 194.607 323.226 194.143 323.226C193.969 323.236 193.794 323.21 193.63 323.149C193.565 323.117 193.51 323.068 193.47 323.008C193.43 322.948 193.406 322.879 193.401 322.806H191.267C191.324 323.873 192.146 324.293 194.033 324.293C195.92 324.293 196.841 323.873 196.841 322.768C196.841 322.048 196.46 321.583 195.486 321.492L193.759 321.362C193.379 321.324 193.272 321.206 193.272 321.099C193.272 320.993 193.375 320.806 193.919 320.806C194.104 320.793 194.289 320.83 194.455 320.913C194.501 320.939 194.538 320.978 194.563 321.024C194.587 321.071 194.599 321.123 194.596 321.175H196.643C196.605 319.975 195.247 319.739 194.014 319.739C192.241 319.739 191.37 320.162 191.37 321.16C191.37 321.896 191.674 322.345 192.728 322.463L194.501 322.635ZM185.123 324.121H186.938V322.17C186.938 321.469 187.299 321.164 187.779 321.164C188.258 321.164 188.479 321.397 188.479 321.926V324.117H190.293V321.423C190.293 320.25 189.533 319.769 188.536 319.769C188.233 319.753 187.93 319.805 187.65 319.919C187.369 320.034 187.117 320.209 186.911 320.432V320.432V319.903H185.123V324.121ZM178.219 322.002C178.219 323.565 179.113 324.289 181.163 324.289C183.214 324.289 184.104 323.561 184.104 322.002C184.104 320.444 183.21 319.716 181.163 319.716C179.116 319.716 178.219 320.44 178.219 322.002ZM180.121 322.002C180.102 321.862 180.116 321.719 180.162 321.585C180.208 321.45 180.285 321.329 180.386 321.23C180.487 321.131 180.61 321.056 180.745 321.013C180.88 320.97 181.023 320.959 181.163 320.981C181.897 320.981 182.202 321.362 182.202 322.014C182.202 322.665 181.897 323.05 181.163 323.05C180.429 323.05 180.124 322.696 180.124 322.014L180.121 322.002ZM175.118 321.987C175.079 322.27 174.933 322.527 174.71 322.704C174.486 322.882 174.203 322.966 173.92 322.94C173.159 322.94 172.657 322.498 172.657 321.374C172.657 320.25 173.185 319.811 174.022 319.811C174.295 319.797 174.563 319.89 174.768 320.071C174.973 320.252 175.098 320.506 175.118 320.779H177.401C177.13 318.588 175.228 318.417 173.996 318.417C172.763 318.417 170.45 318.512 170.45 321.374C170.45 324.235 172.752 324.331 173.996 324.331C175.24 324.331 176.027 324.106 176.529 323.706C177.026 323.264 177.337 322.65 177.401 321.987H175.118ZM164.344 322.886C164.232 323.025 164.087 323.133 163.922 323.2C163.757 323.266 163.577 323.29 163.401 323.268C162.602 323.268 162.301 322.803 162.301 322.505H166.296C166.326 320.39 165.033 319.766 163.275 319.766C161.518 319.766 160.445 320.585 160.445 322.052C160.445 323.599 161.533 324.338 163.443 324.338C164.106 324.371 164.767 324.24 165.368 323.957C165.584 323.85 165.776 323.7 165.933 323.516C166.089 323.332 166.206 323.118 166.277 322.886H164.344ZM162.301 321.518C162.396 320.985 162.762 320.756 163.393 320.756C164.025 320.756 164.432 321.042 164.47 321.518H162.301ZM154.255 324.155H156.07V322.204C156.07 321.503 156.431 321.198 156.914 321.198C157.398 321.198 157.611 321.431 157.611 321.96V324.152H159.425V321.457C159.425 320.284 158.664 319.804 157.668 319.804C157.363 319.782 157.058 319.829 156.774 319.941C156.49 320.052 156.234 320.225 156.024 320.448V320.448V319.918H154.267L154.255 324.155ZM151.212 319.503H153.026V318.436H151.212V319.503ZM151.212 324.155H153.026V319.903H151.212V324.155ZM146.266 324.155H148.085V322.57C148.085 321.656 148.773 321.427 149.42 321.427C149.729 321.438 150.034 321.491 150.329 321.583V319.838C150.132 319.808 149.932 319.792 149.732 319.792C149.395 319.794 149.064 319.879 148.769 320.041C148.473 320.202 148.222 320.435 148.039 320.718V319.907H146.281L146.266 324.155ZM143.223 322.414C143.223 323.142 142.546 323.306 141.937 323.306C141.488 323.306 141.26 323.119 141.26 322.826C141.26 322.532 141.42 322.444 141.754 322.406C142.246 322.373 142.737 322.314 143.223 322.231V322.414ZM141.42 321.206C141.507 320.798 141.922 320.726 142.336 320.726C142.854 320.726 143.177 320.859 143.177 321.137C143.177 321.416 143.055 321.461 142.694 321.488L141.172 321.564C139.829 321.625 139.316 322.121 139.316 322.894C139.316 323.98 140.077 324.327 141.305 324.327C142.272 324.327 142.892 324.14 143.295 323.74C143.301 323.881 143.324 324.02 143.364 324.155H145.22C145.099 323.958 145.04 323.728 145.053 323.496V321.454C145.053 320.192 144.318 319.754 142.466 319.754C141.765 319.704 141.063 319.804 140.404 320.048C140.188 320.157 140.003 320.319 139.866 320.518C139.729 320.718 139.644 320.95 139.62 321.191L141.42 321.206ZM130.798 324.136H132.654V320.189L133.746 324.136H135.298L136.39 320.189V324.136H138.251V318.611H135.367L134.515 321.823L133.666 318.611H130.798V324.136ZM121.82 325.584C122.155 325.615 122.645 325.653 123.052 325.653C124.026 325.653 124.251 325.432 124.536 324.826L126.765 319.903H124.863L123.988 322.079L123.106 319.903H121.204L123.049 323.797L122.95 324.03C122.801 324.338 122.649 324.354 122.273 324.354C122.123 324.355 121.973 324.348 121.824 324.331L121.82 325.584ZM117.163 321.111H118.004V322.852C118.004 323.995 118.426 324.232 119.526 324.232C119.968 324.232 120.409 324.2 120.846 324.136V322.993C120.675 322.993 120.507 322.993 120.363 322.993C119.982 322.993 119.815 322.97 119.815 322.574V321.08H120.796V319.872H119.815V318.542H118V319.903H117.16L117.163 321.111ZM114.5 319.484H116.315V318.417H114.5V319.484ZM114.5 324.136H116.315V319.903H114.5V324.136ZM111.457 324.136H113.272V318.42H111.457V324.136ZM108.413 322.395C108.413 323.123 107.736 323.287 107.124 323.287C106.675 323.287 106.45 323.1 106.45 322.806C106.45 322.513 106.61 322.425 106.945 322.387C107.592 322.326 108.105 322.281 108.413 322.212V322.395ZM106.61 321.187C106.698 320.779 107.112 320.707 107.527 320.707C108.041 320.707 108.368 320.84 108.368 321.118C108.368 321.397 108.246 321.442 107.881 321.469L106.359 321.545C105.016 321.606 104.503 322.101 104.503 322.875C104.503 323.961 105.264 324.308 106.488 324.308C107.459 324.308 108.075 324.121 108.482 323.721C108.488 323.861 108.51 324.001 108.547 324.136H110.407C110.286 323.939 110.227 323.709 110.24 323.477V321.435C110.24 320.173 109.505 319.735 107.653 319.735C106.952 319.685 106.249 319.785 105.591 320.028C105.375 320.138 105.189 320.3 105.052 320.499C104.915 320.699 104.831 320.93 104.807 321.172L106.61 321.187ZM103.529 319.903H101.695V321.903C101.695 322.536 101.421 322.913 100.854 322.913C100.424 322.913 100.154 322.685 100.154 322.151V319.907H98.3397V322.654C98.3397 323.832 99.1005 324.312 100.097 324.312C100.401 324.331 100.706 324.284 100.99 324.174C101.274 324.063 101.53 323.892 101.741 323.671V324.14H103.495L103.529 319.903ZM96.4756 325.276L97.3354 324.262L96.5745 323.534C97.031 323.1 97.3354 322.418 97.3354 321.374C97.3354 318.512 95.0299 318.417 93.7897 318.417C92.5495 318.417 90.2441 318.512 90.2441 321.374C90.2441 324.235 92.5457 324.331 93.7897 324.331C94.0909 324.332 94.3919 324.317 94.6914 324.285C94.9094 324.265 95.1256 324.228 95.3381 324.174L96.4756 325.276ZM93.7099 322.608L94.037 322.936C93.9571 322.936 93.8772 322.936 93.7897 322.936C92.9528 322.936 92.4202 322.494 92.4202 321.37C92.4202 320.246 92.9528 319.807 93.7897 319.807C94.6267 319.807 95.1555 320.246 95.1555 321.37C95.1598 321.616 95.1251 321.862 95.0528 322.098L94.5506 321.625L93.7099 322.608Z" fill="white"/>
</svg>
