<svg width="200" height="100" viewBox="0 0 200 100" fill="none" xmlns="http://www.w3.org/2000/svg">
<mask id="mask0_2941_110" style="mask-type:alpha" maskUnits="userSpaceOnUse" x="0" y="0" width="200" height="100">
<rect width="200" height="100" fill="#222222"/>
</mask>
<g mask="url(#mask0_2941_110)">
<path fill-rule="evenodd" clip-rule="evenodd" d="M115.055 40.1789H111.924L111.927 40.1766V32.2764H118.517C119.417 32.2764 119.96 32.354 120.392 32.5641C120.981 32.8519 121.469 33.6148 121.469 34.4781C121.469 35.2204 121.157 36.0175 120.248 36.2825V36.3053C120.715 36.4378 121.093 36.8375 121.148 37.5226L121.281 39.2493C121.313 39.6033 121.469 39.9345 121.668 40.1789H118.249C118.157 39.9863 118.142 39.7142 118.108 39.0955C118.101 38.973 118.093 38.8369 118.084 38.6852C118.05 38.0982 117.851 37.7442 117.273 37.7442H115.055V40.1789ZM117.23 34.268H115.055V35.7526H117.273C117.883 35.7526 118.139 35.5082 118.139 35.0103C118.139 34.4119 117.752 34.268 117.23 34.268Z" fill="#7D7D7D"/>
<path d="M110.337 40.1789H101.915V32.2741H110.337V34.2018H105.045V35.2638H109.962V37.1915H105.045V38.2535H110.337V40.1789Z" fill="#7D7D7D"/>
<path d="M100.96 40.1789H96.8015L94.6375 37.1458L93.6048 38.0525V40.1766H90.4744V32.2741H93.6048V35.0674L96.5107 32.2786H100.66L97.1198 35.3323L100.96 40.1789Z" fill="#7D7D7D"/>
<path d="M83.4512 38.4636C84.4382 38.4636 85.0267 38.0548 85.2809 37.1024V37.1001H88.8096C88.6104 38.1416 88.2555 38.9821 87.4792 39.5577C86.7144 40.1332 85.5053 40.4553 83.6069 40.4553C81.7086 40.4553 78.1912 40.3228 78.1912 36.2276C78.1912 32.1325 81.72 32 83.6069 32C85.4938 32 88.402 32.2444 88.8119 35.3757H85.2832C85.1938 34.8116 84.816 33.9916 83.6069 33.9916C82.3314 33.9916 81.5208 34.6243 81.5208 36.2276C81.5208 37.831 82.3085 38.4636 83.4512 38.4636Z" fill="#7D7D7D"/>
<path d="M77.0257 40.1789H68.6033V32.2741H77.0257V34.2018H71.7313V35.2638H76.6478V37.1915H71.7313V38.2535H77.0257V40.1789Z" fill="#7D7D7D"/>
<path d="M66.5172 40.1789H63.3891V37.0225H59.8718V40.1766H56.7437V32.2741H59.8718V35.0308H63.3891V32.2741H66.5172V40.1789Z" fill="#7D7D7D"/>
<path d="M174.224 52.96H177.219V48.5337H177.242L180.572 52.96H184V45.0575H181.002V49.4404H180.97L177.796 45.0575H174.224V52.96Z" fill="#7D7D7D"/>
<path fill-rule="evenodd" clip-rule="evenodd" d="M161.728 49.0088C161.728 53.1039 165.245 53.2364 167.144 53.2364C169.042 53.2364 172.559 53.1039 172.559 49.0088C172.559 44.9136 169.042 44.7811 167.144 44.7811C165.245 44.7811 161.728 44.9136 161.728 49.0088ZM165.055 49.0088C165.055 47.4031 165.866 46.7727 167.141 46.7727C168.417 46.7727 169.228 47.4031 169.228 49.0088C169.228 50.6144 168.417 51.2448 167.141 51.2448C165.866 51.2448 165.055 50.6121 165.055 49.0088Z" fill="#7D7D7D"/>
<path d="M156.901 52.96H160.029V45.0575H156.901V52.96Z" fill="#7D7D7D"/>
<path d="M149.566 52.96H152.694V47.0491H155.591V45.0575H146.669V47.0491H149.566V52.96Z" fill="#7D7D7D"/>
<path d="M142.286 49.8835C142.032 50.8359 141.444 51.2448 140.457 51.2448C139.314 51.2448 138.526 50.6121 138.526 49.0088C138.526 47.4054 139.337 46.7727 140.613 46.7727C141.822 46.7727 142.199 47.5927 142.289 48.1568H145.818C145.408 45.0255 142.499 44.7811 140.613 44.7811C138.726 44.7811 135.197 44.9136 135.197 49.0088C135.197 53.1039 138.714 53.2364 140.613 53.2364C142.511 53.2364 143.72 52.9143 144.485 52.3388C145.261 51.7632 145.616 50.9227 145.818 49.8812H142.289L142.286 49.8835Z" fill="#7D7D7D"/>
<path d="M124.221 49.9612C124.221 52.4735 125.742 53.2387 128.959 53.2387C132.176 53.2387 133.697 52.4735 133.697 49.9612V45.0575H130.567V49.8378C130.567 50.8565 129.98 51.1762 128.959 51.1762C127.938 51.1762 127.349 50.8542 127.349 49.8378V45.0575H124.221V49.9612Z" fill="#7D7D7D"/>
<path fill-rule="evenodd" clip-rule="evenodd" d="M113.161 52.9623H116.287V50.5276H118.506C119.083 50.5276 119.282 50.8816 119.316 51.4686C119.325 51.6176 119.333 51.7515 119.339 51.8723C119.374 52.4957 119.389 52.7691 119.483 52.9623H122.902C122.703 52.7179 122.547 52.3868 122.513 52.0327L122.38 50.3061C122.325 49.6209 121.947 49.2212 121.482 49.0887V49.0659C122.392 48.8009 122.703 48.0038 122.703 47.2615C122.703 46.3982 122.215 45.6353 121.627 45.3475C121.194 45.1374 120.649 45.0598 119.751 45.0598H113.161V52.9623ZM116.287 47.0514H118.462C118.984 47.0514 119.371 47.1953 119.371 47.7937C119.371 48.2916 119.117 48.536 118.506 48.536H116.287V47.0514Z" fill="#7D7D7D"/>
<path d="M105.858 52.9623H108.986V47.0514H111.883V45.0598H102.961V47.0514H105.858V52.9623Z" fill="#7D7D7D"/>
<path d="M97.8893 50.1393C98.3106 50.2056 98.4549 50.4385 98.4549 50.6715C98.4549 51.0483 98.1892 51.3133 97.2114 51.3133C96.7237 51.3133 96.3779 51.2585 96.1466 51.1466C95.9245 51.0255 95.8237 50.8474 95.8146 50.5824H92.0408C92.0522 52.9052 94.6811 53.2387 97.0901 53.2387C100.607 53.2387 102.183 52.3319 102.183 50.4043C102.183 49.0659 101.207 48.335 99.6319 48.102L95.8924 47.5493C95.581 47.5059 95.4826 47.362 95.4826 47.1405C95.4826 46.8093 95.8054 46.5763 96.7374 46.5763C97.0809 46.5763 97.4359 46.6197 97.7129 46.7408C98.0015 46.8527 98.1892 47.0514 98.1892 47.3734H101.83C101.718 45.7016 100.264 44.7834 96.7374 44.7834C94.1635 44.7834 92.1553 45.3361 92.1553 47.3848C92.1553 48.4926 92.7873 49.3765 94.3193 49.6094L97.8916 50.1416L97.8893 50.1393Z" fill="#7D7D7D"/>
<path d="M80.6781 52.9623H83.6757V48.536H83.6986L87.0281 52.9623H90.4561V45.0575H87.4609V49.4404H87.4266L84.2527 45.0575H80.6804V52.96L80.6781 52.9623Z" fill="#7D7D7D"/>
<path fill-rule="evenodd" clip-rule="evenodd" d="M68.1843 49.011C68.1843 53.1062 71.7016 53.2387 73.6 53.2387C75.4983 53.2387 79.0157 53.1062 79.0157 49.011C79.0157 44.9159 75.4983 44.7834 73.6 44.7834C71.7016 44.7834 68.1843 44.9159 68.1843 49.011ZM71.5138 49.011C71.5138 47.4054 72.3245 46.775 73.6 46.775C74.8755 46.775 75.6861 47.4054 75.6861 49.011C75.6861 50.6167 74.8755 51.247 73.6 51.247C72.3245 51.247 71.5138 50.6144 71.5138 49.011Z" fill="#7D7D7D"/>
<path d="M63.4121 49.8858C63.1579 50.8382 62.5694 51.247 61.5824 51.247C60.4397 51.247 59.652 50.6144 59.652 49.011C59.652 47.4077 60.4626 46.775 61.7381 46.775C62.9472 46.775 63.325 47.595 63.4143 48.1591H66.9431C66.5332 45.0278 63.625 44.7834 61.7404 44.7834C59.8558 44.7834 56.3247 44.9159 56.3247 49.011C56.3247 53.1062 59.8421 53.2387 61.7404 53.2387C63.6388 53.2387 64.8478 52.9166 65.6127 52.3411C66.389 51.7655 66.7439 50.925 66.9431 49.8835H63.4143L63.4121 49.8858Z" fill="#7D7D7D"/>
<path d="M174.655 65.7411H177.563V63.2608H174.655V65.7411Z" fill="#7D7D7D"/>
<path d="M169.418 62.6646C169.161 63.6171 168.573 64.0259 167.586 64.0259C166.443 64.0259 165.656 63.3932 165.656 61.7899C165.656 60.1865 166.466 59.5539 167.742 59.5539C168.951 59.5539 169.329 60.3738 169.418 60.938H172.947C172.537 57.8066 169.629 57.5622 167.744 57.5622C165.859 57.5622 162.328 57.6947 162.328 61.7899C162.328 65.885 165.846 66.0175 167.744 66.0175C169.642 66.0175 170.851 65.6955 171.616 65.1199C172.393 64.5443 172.747 63.7038 172.949 62.6623H169.42L169.418 62.6646Z" fill="#7D7D7D"/>
<path d="M150.885 65.7411H153.881V61.3148H153.904L157.233 65.7411H160.663V57.8386H157.666V62.2215H157.632L154.458 57.8386H150.885V65.7411Z" fill="#7D7D7D"/>
<path d="M145.637 65.7411H148.765V57.8386H145.637V65.7411Z" fill="#7D7D7D"/>
<path d="M135.483 65.7411H136.793C136.747 66.5268 136.26 66.9151 135.483 67.0042V68C136.438 67.9657 138.392 67.3582 138.392 65.145V63.263H135.483V65.7411Z" fill="#7D7D7D"/>
<path d="M129.172 65.7411H132.3V63.5166L135.818 57.8386H132.245L130.736 60.938L129.227 57.8386H125.655L129.172 63.5166V65.7411Z" fill="#7D7D7D"/>
<path d="M115.023 65.7411H118.018V61.3148H118.041L121.371 65.7411H124.799V57.8386H121.803V62.2215H121.769L118.595 57.8386H115.023V65.7411Z" fill="#7D7D7D"/>
<path fill-rule="evenodd" clip-rule="evenodd" d="M103.486 65.7411H106.811L107.145 64.8344H110.406L110.741 65.7411H114.07L110.697 57.8386H106.859L103.486 65.7411ZM109.717 62.909H107.83L108.762 60.2299H108.785L109.717 62.909Z" fill="#7D7D7D"/>
<path fill-rule="evenodd" clip-rule="evenodd" d="M94.1914 65.7434H97.3217V63.2859H100.672C102.891 63.2859 103.69 62.1119 103.69 60.5954C103.69 58.8344 102.868 57.8386 100.649 57.8386H94.1914V65.7434ZM97.3217 59.7H99.3414C100.129 59.7 100.429 59.9444 100.429 60.5405C100.429 61.1367 100.129 61.3605 99.3414 61.3605H97.3217V59.7Z" fill="#7D7D7D"/>
<path d="M83.5157 65.7434V60.0997H83.5386L85.2034 65.7434H87.578L89.2428 60.0997H89.2657V65.7434H92.1052V57.8409H87.6994L86.401 62.434H86.3781L85.0797 57.8409H80.6739V65.7434H83.5157Z" fill="#7D7D7D"/>
<path fill-rule="evenodd" clip-rule="evenodd" d="M68.1823 61.7922C68.1823 65.8873 71.6996 66.0198 73.598 66.0198C75.4964 66.0198 79.0137 65.8873 79.0137 61.7922C79.0137 57.697 75.4964 57.5645 73.598 57.5645C71.6996 57.5645 68.1823 57.697 68.1823 61.7922ZM71.5119 61.7922C71.5119 60.1865 72.3225 59.5561 73.598 59.5561C74.8735 59.5561 75.6841 60.1865 75.6841 61.7922C75.6841 63.3978 74.8735 64.0282 73.598 64.0282C72.3225 64.0282 71.5119 63.3955 71.5119 61.7922Z" fill="#7D7D7D"/>
<path d="M63.4101 62.6669C63.1559 63.6193 62.5674 64.0282 61.5804 64.0282C60.4378 64.0282 59.65 63.3955 59.65 61.7922C59.65 60.1888 60.4607 59.5561 61.7362 59.5561C62.9452 59.5561 63.3231 60.3761 63.4124 60.9402H66.9412C66.5313 57.8089 63.6231 57.5645 61.7384 57.5645C59.8538 57.5645 56.3228 57.697 56.3228 61.7922C56.3228 65.8873 59.8401 66.0198 61.7384 66.0198C63.6368 66.0198 64.8459 65.6978 65.6107 65.1222C66.387 64.5466 66.7419 63.7061 66.9412 62.6646H63.4124L63.4101 62.6669Z" fill="#7D7D7D"/>
<path fill-rule="evenodd" clip-rule="evenodd" d="M46.6226 34.0031H46.2379V33.4115H46.5974C46.7532 33.4115 46.8585 33.4229 46.9157 33.4458C46.973 33.4686 47.0188 33.5029 47.0509 33.5486C47.0829 33.5942 47.0989 33.6468 47.0989 33.7039C47.0989 33.7952 47.0646 33.866 46.9982 33.9208C46.9318 33.9757 46.8058 34.0031 46.6226 34.0031ZM45.9219 33.1443V35.1039H46.2379V34.2703H46.4234C46.5356 34.2703 46.6203 34.2931 46.6776 34.3388C46.76 34.4005 46.8699 34.5535 47.0073 34.7956L47.1814 35.1062H47.5684L47.3302 34.7225C47.2157 34.5398 47.1173 34.4119 47.0394 34.3342C46.9959 34.2931 46.9409 34.2589 46.8722 34.2292C47.0417 34.2178 47.1768 34.1584 47.2798 34.051C47.3806 33.9437 47.4333 33.8203 47.4333 33.6765C47.4333 33.5737 47.4035 33.4777 47.3417 33.3887C47.2821 33.2996 47.1997 33.2356 47.0966 33.1991C46.9936 33.1626 46.8264 33.1443 46.5952 33.1443H45.9219ZM45.9723 32.7743C46.215 32.6418 46.4646 32.5779 46.7211 32.5779H46.7188C46.973 32.5779 47.2226 32.6418 47.4653 32.7743C47.7081 32.9045 47.8981 33.0918 48.0332 33.3361C48.1683 33.5805 48.237 33.8363 48.237 34.099C48.237 34.3616 48.1706 34.6129 48.0355 34.855C47.9027 35.0971 47.7149 35.2844 47.4722 35.4191C47.2318 35.5539 46.9776 35.6201 46.7165 35.6201C46.4555 35.6201 46.2036 35.5539 45.9608 35.4191C45.7204 35.2844 45.5326 35.0971 45.3975 34.855C45.2624 34.6129 45.196 34.3639 45.196 34.099C45.196 33.834 45.2647 33.5805 45.4021 33.3361C45.5395 33.094 45.7296 32.9045 45.9723 32.7743ZM47.6165 32.5116C47.3237 32.3542 47.0264 32.2766 46.72 32.2764C46.7203 32.2764 46.7207 32.2764 46.7211 32.2764H46.7188C46.7192 32.2764 46.7196 32.2764 46.72 32.2764C46.4135 32.2766 46.1139 32.3542 45.8235 32.5116C45.5326 32.6692 45.3036 32.8931 45.141 33.1854C44.9785 33.4777 44.896 33.7884 44.896 34.1013C44.896 34.4142 44.9785 34.7179 45.1388 35.008C45.2991 35.2981 45.5258 35.5242 45.8143 35.6841C46.1028 35.8462 46.4051 35.9262 46.7211 35.9262C47.0371 35.9262 47.3394 35.8439 47.6279 35.6841C47.9187 35.5242 48.1431 35.2981 48.3034 35.008C48.4637 34.7179 48.5439 34.4187 48.5439 34.1013C48.5439 33.7838 48.4614 33.4777 48.2989 33.1854C48.134 32.8953 47.9073 32.6692 47.6165 32.5116ZM40.2772 32.8451H34.6829V38.4317L34.692 38.4408L40.2772 44.0274V60.2847V60.2916L34.6829 54.6958V52.0967H29.0909V57.4891V60.2847V60.2916L34.6829 65.8873H46.7187V39.2904L40.2772 32.8451ZM29.0908 32.8451H17V59.3849L23.4988 65.8873H29.0908V60.2916L23.4988 54.6959V54.6913V38.4408H23.508L29.0908 44.0274V46.6174H34.6829V44.0365V38.4408L29.0908 32.8451Z" fill="#7D7D7D"/>
</g>
</svg>
