<svg width="620" height="675" viewBox="0 0 620 675" fill="none" xmlns="http://www.w3.org/2000/svg">
<rect y="450" width="620" height="225" rx="10" fill="black"/>
<rect width="620" height="225" rx="10" fill="white"/>
<path d="M520.48 608.818H528.731V601.558H520.48V608.818ZM505.592 599.808C504.862 602.596 503.191 603.797 500.391 603.797C497.149 603.797 494.911 601.948 494.911 597.248C494.911 592.548 497.211 590.699 500.833 590.699C504.266 590.699 505.337 593.101 505.592 594.752H515.605C514.438 585.579 506.187 584.867 500.833 584.867C495.478 584.867 485.464 585.258 485.464 597.223C485.464 609.189 495.449 609.609 500.833 609.609C506.216 609.609 509.65 608.665 511.826 606.98C514.001 605.294 515.039 602.833 515.605 599.784L505.592 599.808ZM453.018 608.818H461.518V595.854H461.581L471.027 608.818H480.762V585.678H472.257V598.528H472.166L463.156 585.678H453.018V608.818ZM438.129 608.818H447.01V585.678H438.12L438.129 608.818ZM391.395 608.818H400.275V602.304L410.26 585.678H400.102L395.818 594.752L391.534 585.678H381.396L391.381 602.304L391.395 608.818ZM351.236 608.818H359.741V595.854H359.803L369.25 608.818H378.985V585.678H370.465V598.528H370.369L361.364 585.678H351.221L351.236 608.818ZM318.482 608.818H327.928L328.889 606.164H338.148L339.109 608.818H348.556L338.936 585.678H328.044L318.482 608.818ZM336.184 600.525H330.815L333.461 592.681H333.523L336.184 600.525ZM301 591.134H306.72C308.953 591.134 309.803 591.846 309.803 593.606C309.803 595.365 308.953 596.003 306.72 596.003H300.986L301 591.134ZM292.12 608.828H301V601.627H310.514C316.815 601.627 319.082 598.192 319.082 593.749C319.082 588.594 316.748 585.678 310.437 585.678H292.106L292.12 608.828ZM253.757 608.828H261.82V592.281H261.883L266.608 608.808H273.332L278.058 592.281H278.12V608.808H286.184V585.678H273.697L270.014 599.131H269.951L266.268 585.678H253.781L253.757 608.828ZM227.731 597.248C227.731 592.548 230.027 590.699 233.648 590.699C237.269 590.699 239.57 592.548 239.57 597.248C239.57 601.948 237.269 603.797 233.672 603.797C230.075 603.797 227.755 601.948 227.755 597.248H227.731ZM218.304 597.248C218.304 609.243 228.288 609.634 233.672 609.634C239.056 609.634 249.04 609.243 249.04 597.248C249.04 585.253 239.056 584.892 233.672 584.892C228.288 584.892 218.304 585.283 218.304 597.248ZM204.76 599.808C204.035 602.596 202.359 603.797 199.564 603.797C196.322 603.797 194.084 601.948 194.084 597.248C194.084 592.548 196.385 590.699 200.006 590.699C203.44 590.699 204.506 593.101 204.76 594.752H214.75C213.588 585.579 205.337 584.867 199.982 584.867C194.627 584.867 184.613 585.258 184.613 597.223C184.613 609.189 194.598 609.609 199.982 609.609C205.365 609.609 208.799 608.665 210.97 606.98C213.141 605.294 214.188 602.833 214.75 599.784L204.76 599.808Z" fill="white"/>
<path d="M413.245 608.695H409.634L409.62 601.772H417.654V607.031C417.654 613.209 412.265 614.906 409.634 615V612.22C411.776 611.993 413.124 610.891 413.245 608.695Z" fill="white"/>
<path d="M519.251 571.384H527.756V558.421H527.818L537.265 571.384H547V548.244H538.495V561.094H538.399L529.394 548.244H519.251V571.384ZM493.235 559.814C493.235 555.114 495.535 553.266 499.156 553.266C502.778 553.266 505.078 555.114 505.078 559.814C505.078 564.515 502.778 566.363 499.156 566.363C495.535 566.363 493.235 564.515 493.235 559.814ZM483.788 559.814C483.788 571.81 493.768 572.2 499.156 572.2C504.545 572.2 514.525 571.81 514.525 559.814C514.525 547.819 504.54 547.434 499.156 547.434C493.773 547.434 483.788 547.824 483.788 559.814ZM470.086 571.384H478.966V548.244H470.086V571.384ZM449.267 571.384H458.147V554.086H466.369V548.244H441.045V554.081H449.267V571.384ZM428.615 562.374C427.89 565.162 426.214 566.363 423.419 566.363C420.177 566.363 417.939 564.515 417.939 559.814C417.939 555.114 420.24 553.266 423.861 553.266C427.295 553.266 428.366 555.668 428.615 557.318H438.634C437.467 548.145 429.216 547.434 423.861 547.434C418.506 547.434 408.492 547.824 408.492 559.814C408.492 571.805 418.472 572.2 423.861 572.2C429.249 572.2 432.678 571.256 434.854 569.571C437.03 567.885 438.062 565.424 438.634 562.374H428.615ZM377.333 562.627C377.333 569.986 381.655 572.225 390.78 572.225C399.905 572.225 404.228 569.986 404.228 562.627V548.294H395.348V562.295C395.348 565.261 393.681 566.215 390.78 566.215C387.88 566.215 386.213 565.276 386.213 562.295V548.244H377.333V562.627ZM354.813 554.106H360.985C362.469 554.106 363.569 554.526 363.569 556.276C363.569 557.758 362.843 558.445 361.115 558.445H354.813V554.106ZM345.933 571.404H354.813V564.258H361.115C362.747 564.258 363.319 565.29 363.41 567.01C363.569 569.704 363.569 570.707 363.89 571.384H373.597C372.977 570.609 372.593 569.664 372.492 568.666L372.103 563.615C371.944 561.608 370.878 560.442 369.553 560.052V559.987C372.137 559.211 373.015 556.879 373.015 554.704C373.015 552.173 371.632 549.939 369.961 549.099C368.736 548.481 367.19 548.254 364.64 548.254H345.909L345.933 571.404ZM325.205 571.404H334.09V554.106H342.307V548.244H316.988V554.081H325.205V571.404ZM302.595 563.121C303.79 563.318 304.199 563.996 304.199 564.678C304.199 565.78 303.445 566.556 300.674 566.556C299.642 566.612 298.611 566.444 297.648 566.062C297.351 565.91 297.102 565.674 296.932 565.381C296.762 565.089 296.677 564.752 296.687 564.411H286.021C286.05 571.216 293.513 572.19 300.352 572.19C310.332 572.19 314.808 569.531 314.808 563.887C314.808 559.968 312.037 557.827 307.56 557.145L296.951 555.529C296.068 555.401 295.784 554.976 295.784 554.328C295.784 553.34 296.697 552.677 299.343 552.677C300.29 552.651 301.232 552.819 302.114 553.172C302.506 553.284 302.85 553.526 303.095 553.86C303.34 554.194 303.471 554.602 303.469 555.02H313.799C313.482 550.127 309.357 547.434 299.343 547.434C292.034 547.434 286.333 549.055 286.333 555.05C286.333 558.292 288.129 560.887 292.475 561.564L302.595 563.121ZM253.742 571.384H262.248V558.421H262.31L271.762 571.384H281.492V548.244H272.991V561.094H272.895L263.885 548.244H253.742V571.384ZM227.731 559.814C227.731 555.114 230.027 553.266 233.648 553.266C237.269 553.266 239.57 555.114 239.57 559.814C239.57 564.515 237.269 566.363 233.648 566.363C230.027 566.363 227.731 564.515 227.731 559.814ZM218.28 559.814C218.28 571.81 228.264 572.2 233.648 572.2C239.032 572.2 249.016 571.81 249.016 559.814C249.016 547.819 239.032 547.434 233.648 547.434C228.264 547.434 218.28 547.824 218.28 559.814ZM204.736 562.374C204.011 565.162 202.335 566.363 199.54 566.363C196.298 566.363 194.06 564.515 194.06 559.814C194.06 555.114 196.361 553.266 199.982 553.266C203.416 553.266 204.482 555.668 204.736 557.318H214.75C213.588 548.145 205.337 547.434 199.982 547.434C194.627 547.434 184.613 547.824 184.613 559.814C184.613 571.805 194.598 572.2 199.982 572.2C205.365 572.2 208.799 571.256 210.97 569.571C213.141 567.885 214.188 565.424 214.75 562.374H204.736Z" fill="white"/>
<path d="M351.336 516.662H357.507C358.986 516.662 360.091 517.082 360.091 518.832C360.091 520.29 359.366 521.002 357.632 521.002H351.336V516.662ZM342.451 533.961H351.336V526.834H357.632C359.27 526.834 359.841 527.867 359.933 529.587C360.091 532.28 360.091 533.284 360.413 533.961H370.066C369.45 533.184 369.068 532.239 368.966 531.242L368.625 526.172C368.472 524.165 367.396 522.999 366.075 522.608V522.544C368.659 521.768 369.543 519.435 369.543 517.26C369.543 514.73 368.155 512.496 366.483 511.656C365.254 511.038 363.712 510.811 361.162 510.811H342.432L342.451 533.961ZM314.043 533.961H337.951V528.326H322.909V525.213H336.861V519.573H322.909V516.46H337.932V510.82H314.024L314.043 533.961ZM299.525 533.961H311.335L300.428 519.756L310.475 510.811H298.685L290.439 518.98V510.811H281.554V533.961H290.439V527.738L293.363 525.079L299.525 533.961ZM266.81 524.941C266.084 527.728 264.408 528.929 261.613 528.929C258.367 528.929 256.133 527.081 256.133 522.381C256.133 517.68 258.429 515.832 262.05 515.832C265.484 515.832 266.56 518.234 266.81 519.885H276.823C275.661 510.712 267.405 510 262.05 510C256.695 510 246.682 510.39 246.682 522.356C246.682 534.322 256.667 534.742 262.05 534.742C267.434 534.742 270.873 533.798 273.043 532.112C275.214 530.427 276.256 527.966 276.823 524.916L266.81 524.941ZM219.475 533.961H243.382V528.326H228.355V525.213H242.316V519.573H228.355V516.46H243.382V510.82H219.475V533.961ZM204.673 533.961H213.553V510.82H204.673V518.891H194.689V510.82H185.809V533.961H194.689V524.723H204.673V533.961Z" fill="white"/>
<path d="M139.065 512.481H123.193V528.845L123.217 528.865L139.065 545.229V592.845V592.859L123.193 576.475V568.864H107.32V584.65V592.845V592.859L123.193 609.248H157.354V531.356L139.065 512.481Z" fill="white"/>
<path d="M73 512.481V590.205L91.4469 609.243H107.32V592.859L91.4469 576.475V576.456V528.87H91.4709L107.32 545.229V552.811H123.192V545.254V528.87L107.32 512.481H73Z" fill="white"/>
<path d="M155.99 515.877H157.08C157.451 515.916 157.825 515.831 158.146 515.635C158.238 515.559 158.312 515.461 158.362 515.351C158.411 515.24 158.434 515.119 158.429 514.997C158.43 514.835 158.383 514.677 158.295 514.542C158.199 514.404 158.065 514.299 157.911 514.241C157.618 514.153 157.312 514.118 157.008 514.137H155.99V515.877ZM155.091 519.134V513.386H157.013C157.498 513.36 157.984 513.413 158.453 513.544C158.739 513.646 158.984 513.842 159.15 514.102C159.321 514.347 159.413 514.641 159.414 514.943C159.415 515.146 159.377 515.348 159.302 515.536C159.227 515.724 159.116 515.896 158.977 516.04C158.67 516.361 158.256 516.548 157.819 516.564C157.997 516.634 158.16 516.738 158.3 516.87C158.612 517.219 158.888 517.602 159.121 518.012L159.803 519.134H158.703L158.223 518.229C157.983 517.728 157.657 517.274 157.262 516.89C157.049 516.746 156.796 516.677 156.542 516.692H156.014V519.134H155.091ZM157.358 511.72C156.615 511.725 155.884 511.924 155.236 512.298C154.552 512.674 153.991 513.248 153.622 513.949C153.244 514.624 153.042 515.389 153.036 516.168C153.037 516.946 153.235 517.709 153.612 518.382C153.982 519.078 154.537 519.651 155.212 520.033C155.866 520.417 156.606 520.618 157.358 520.616C158.111 520.616 158.852 520.413 159.505 520.028C160.18 519.646 160.735 519.073 161.104 518.378C161.477 517.702 161.673 516.94 161.676 516.163C161.674 515.379 161.474 514.609 161.095 513.929C160.725 513.229 160.164 512.655 159.481 512.279C158.831 511.911 158.1 511.719 157.358 511.72ZM157.358 510.835C158.25 510.84 159.126 511.078 159.904 511.527C160.718 511.979 161.386 512.666 161.825 513.504C162.277 514.323 162.517 515.247 162.521 516.188C162.517 517.119 162.28 518.033 161.834 518.842C161.392 519.678 160.725 520.364 159.913 520.819C159.127 521.278 158.238 521.52 157.334 521.521C156.432 521.519 155.545 521.278 154.76 520.819C153.949 520.363 153.282 519.677 152.839 518.842C152.389 518.034 152.151 517.119 152.147 516.188C152.151 515.246 152.393 514.321 152.849 513.504C153.289 512.667 153.956 511.981 154.77 511.527C155.548 511.079 156.423 510.841 157.315 510.835" fill="white"/>
<path d="M520.48 158.818H528.731V151.558H520.48V158.818ZM505.592 149.808C504.862 152.596 503.191 153.797 500.391 153.797C497.149 153.797 494.911 151.948 494.911 147.248C494.911 142.548 497.211 140.699 500.833 140.699C504.266 140.699 505.337 143.101 505.592 144.752H515.605C514.438 135.579 506.187 134.867 500.833 134.867C495.478 134.867 485.464 135.258 485.464 147.223C485.464 159.189 495.449 159.609 500.833 159.609C506.216 159.609 509.65 158.665 511.826 156.98C514.001 155.294 515.039 152.833 515.605 149.784L505.592 149.808ZM453.018 158.818H461.518V145.854H461.581L471.027 158.818H480.762V135.678H472.257V148.528H472.166L463.156 135.678H453.018V158.818ZM438.129 158.818H447.01V135.678H438.12L438.129 158.818ZM391.395 158.818H400.275V152.304L410.26 135.678H400.102L395.818 144.752L391.534 135.678H381.396L391.381 152.304L391.395 158.818ZM351.236 158.818H359.741V145.854H359.803L369.25 158.818H378.985V135.678H370.465V148.528H370.369L361.364 135.678H351.221L351.236 158.818ZM318.482 158.818H327.928L328.889 156.164H338.148L339.109 158.818H348.556L338.936 135.678H328.044L318.482 158.818ZM336.184 150.525H330.815L333.461 142.681H333.523L336.184 150.525ZM301 141.134H306.72C308.953 141.134 309.803 141.846 309.803 143.606C309.803 145.365 308.953 146.003 306.72 146.003H300.986L301 141.134ZM292.12 158.828H301V151.627H310.514C316.815 151.627 319.082 148.192 319.082 143.749C319.082 138.594 316.748 135.678 310.437 135.678H292.106L292.12 158.828ZM253.757 158.828H261.82V142.281H261.883L266.608 158.808H273.332L278.058 142.281H278.12V158.808H286.184V135.678H273.697L270.014 149.131H269.951L266.268 135.678H253.781L253.757 158.828ZM227.731 147.248C227.731 142.548 230.027 140.699 233.648 140.699C237.269 140.699 239.57 142.548 239.57 147.248C239.57 151.948 237.269 153.797 233.672 153.797C230.075 153.797 227.755 151.948 227.755 147.248H227.731ZM218.304 147.248C218.304 159.243 228.288 159.634 233.672 159.634C239.056 159.634 249.04 159.243 249.04 147.248C249.04 135.253 239.056 134.892 233.672 134.892C228.288 134.892 218.304 135.283 218.304 147.248ZM204.76 149.808C204.035 152.596 202.359 153.797 199.564 153.797C196.322 153.797 194.084 151.948 194.084 147.248C194.084 142.548 196.385 140.699 200.006 140.699C203.44 140.699 204.506 143.101 204.76 144.752H214.75C213.588 135.579 205.337 134.867 199.982 134.867C194.627 134.867 184.613 135.258 184.613 147.223C184.613 159.189 194.598 159.609 199.982 159.609C205.365 159.609 208.799 158.665 210.97 156.98C213.141 155.294 214.188 152.833 214.75 149.784L204.76 149.808Z" fill="#0031F9"/>
<path d="M413.245 158.695H409.634L409.62 151.772H417.654V157.031C417.654 163.209 412.265 164.906 409.634 165V162.22C411.776 161.993 413.124 160.891 413.245 158.695Z" fill="white"/>
<path d="M519.251 121.384H527.756V108.421H527.818L537.265 121.384H547V98.2441H538.495V111.094H538.399L529.394 98.2441H519.251V121.384ZM493.235 109.814C493.235 105.114 495.535 103.266 499.156 103.266C502.778 103.266 505.078 105.114 505.078 109.814C505.078 114.515 502.778 116.363 499.156 116.363C495.535 116.363 493.235 114.515 493.235 109.814ZM483.788 109.814C483.788 121.81 493.768 122.2 499.156 122.2C504.545 122.2 514.525 121.81 514.525 109.814C514.525 97.8191 504.54 97.4336 499.156 97.4336C493.773 97.4336 483.788 97.824 483.788 109.814ZM470.086 121.384H478.966V98.2441H470.086V121.384ZM449.267 121.384H458.147V104.086H466.369V98.2441H441.045V104.081H449.267V121.384ZM428.615 112.374C427.89 115.162 426.214 116.363 423.419 116.363C420.177 116.363 417.939 114.515 417.939 109.814C417.939 105.114 420.24 103.266 423.861 103.266C427.295 103.266 428.366 105.668 428.615 107.318H438.634C437.467 98.1453 429.216 97.4336 423.861 97.4336C418.506 97.4336 408.492 97.824 408.492 109.814C408.492 121.805 418.472 122.2 423.861 122.2C429.249 122.2 432.678 121.256 434.854 119.571C437.03 117.885 438.062 115.424 438.634 112.374H428.615ZM377.333 112.627C377.333 119.986 381.655 122.225 390.78 122.225C399.905 122.225 404.228 119.986 404.228 112.627V98.2936H395.348V112.295C395.348 115.261 393.681 116.215 390.78 116.215C387.88 116.215 386.213 115.276 386.213 112.295V98.2441H377.333V112.627ZM354.813 104.106H360.985C362.469 104.106 363.569 104.526 363.569 106.276C363.569 107.758 362.843 108.445 361.115 108.445H354.813V104.106ZM345.933 121.404H354.813V114.258H361.115C362.747 114.258 363.319 115.29 363.41 117.01C363.569 119.704 363.569 120.707 363.89 121.384H373.597C372.977 120.609 372.593 119.664 372.492 118.666L372.103 113.615C371.944 111.608 370.878 110.442 369.553 110.052V109.987C372.137 109.211 373.015 106.879 373.015 104.704C373.015 102.173 371.632 99.9394 369.961 99.0992C368.736 98.4814 367.19 98.254 364.64 98.254H345.909L345.933 121.404ZM325.205 121.404H334.09V104.106H342.307V98.2441H316.988V104.081H325.205V121.404ZM302.595 113.121C303.79 113.318 304.199 113.996 304.199 114.678C304.199 115.78 303.445 116.556 300.674 116.556C299.642 116.612 298.611 116.444 297.648 116.062C297.351 115.91 297.102 115.674 296.932 115.381C296.762 115.089 296.677 114.752 296.687 114.411H286.021C286.05 121.216 293.513 122.19 300.352 122.19C310.332 122.19 314.808 119.531 314.808 113.887C314.808 109.968 312.037 107.827 307.56 107.145L296.951 105.529C296.068 105.401 295.784 104.976 295.784 104.328C295.784 103.34 296.697 102.677 299.343 102.677C300.29 102.651 301.232 102.819 302.114 103.172C302.506 103.284 302.85 103.526 303.095 103.86C303.34 104.194 303.471 104.602 303.469 105.02H313.799C313.482 100.127 309.357 97.4336 299.343 97.4336C292.034 97.4336 286.333 99.0547 286.333 105.05C286.333 108.292 288.129 110.887 292.475 111.564L302.595 113.121ZM253.742 121.384H262.248V108.421H262.31L271.762 121.384H281.492V98.2441H272.991V111.094H272.895L263.885 98.2441H253.742V121.384ZM227.731 109.814C227.731 105.114 230.027 103.266 233.648 103.266C237.269 103.266 239.57 105.114 239.57 109.814C239.57 114.515 237.269 116.363 233.648 116.363C230.027 116.363 227.731 114.515 227.731 109.814ZM218.28 109.814C218.28 121.81 228.264 122.2 233.648 122.2C239.032 122.2 249.016 121.81 249.016 109.814C249.016 97.8191 239.032 97.4336 233.648 97.4336C228.264 97.4336 218.28 97.824 218.28 109.814ZM204.736 112.374C204.011 115.162 202.335 116.363 199.54 116.363C196.298 116.363 194.06 114.515 194.06 109.814C194.06 105.114 196.361 103.266 199.982 103.266C203.416 103.266 204.482 105.668 204.736 107.318H214.75C213.588 98.1453 205.337 97.4336 199.982 97.4336C194.627 97.4336 184.613 97.824 184.613 109.814C184.613 121.805 194.598 122.2 199.982 122.2C205.365 122.2 208.799 121.256 210.97 119.571C213.141 117.885 214.188 115.424 214.75 112.374H204.736Z" fill="#0031F9"/>
<path d="M351.336 66.6624H357.507C358.986 66.6624 360.091 67.0825 360.091 68.8321C360.091 70.2901 359.366 71.0018 357.632 71.0018H351.336V66.6624ZM342.451 83.9608H351.336V76.8338H357.632C359.27 76.8338 359.841 77.8668 359.933 79.5867C360.091 82.2803 360.091 83.2836 360.413 83.9608H370.066C369.45 83.1841 369.068 82.2394 368.966 81.2424L368.625 76.1715C368.472 74.1649 367.396 72.9985 366.075 72.6081V72.5438C368.659 71.7679 369.543 69.435 369.543 67.2604C369.543 64.7299 368.155 62.4959 366.483 61.6557C365.254 61.0379 363.712 60.8106 361.162 60.8106H342.432L342.451 83.9608ZM314.043 83.9608H337.951V78.3264H322.909V75.2127H336.861V69.5734H322.909V66.4597H337.932V60.8204H314.024L314.043 83.9608ZM299.525 83.9608H311.335L300.428 69.7563L310.475 60.8106H298.685L290.439 68.9803V60.8106H281.554V83.9608H290.439V77.7383L293.363 75.0793L299.525 83.9608ZM266.81 74.9409C266.084 77.7284 264.408 78.9294 261.613 78.9294C258.367 78.9294 256.133 77.0809 256.133 72.3807C256.133 67.6805 258.429 65.832 262.05 65.832C265.484 65.832 266.56 68.234 266.81 69.8848H276.823C275.661 60.7117 267.405 60 262.05 60C256.695 60 246.682 60.3905 246.682 72.356C246.682 84.3216 256.667 84.7417 262.05 84.7417C267.434 84.7417 270.873 83.7977 273.043 82.1123C275.214 80.4269 276.256 77.9656 276.823 74.9162L266.81 74.9409ZM219.475 83.9608H243.382V78.3264H228.355V75.2127H242.316V69.5734H228.355V66.4597H243.382V60.8204H219.475V83.9608ZM204.673 83.9608H213.553V60.8204H204.673V68.8914H194.689V60.8204H185.809V83.9608H194.689V74.7234H204.673V83.9608Z" fill="#0031F9"/>
<path d="M139.065 62.4811H123.193V78.8454L123.217 78.8651L139.065 95.2294V142.845V142.859L123.193 126.475V118.864H107.32V134.65V142.845V142.859L123.193 159.248H157.354V81.3561L139.065 62.4811Z" fill="#0031F9"/>
<path d="M73 62.4811V140.205L91.4469 159.243H107.32V142.859L91.4469 126.475V126.456V78.8701H91.4709L107.32 95.2294V102.811H123.192V95.2541V78.8701L107.32 62.4811H73Z" fill="#0031F9"/>
<path d="M155.99 65.8767H157.08C157.451 65.9155 157.825 65.8306 158.146 65.6345C158.238 65.5586 158.312 65.4613 158.362 65.3505C158.411 65.2398 158.434 65.1187 158.429 64.9969C158.43 64.835 158.383 64.6766 158.295 64.5422C158.199 64.4039 158.065 64.2988 157.911 64.2408C157.618 64.1534 157.312 64.1183 157.008 64.137H155.99V65.8767ZM155.091 69.1337V63.3857H157.013C157.498 63.36 157.984 63.4133 158.453 63.5439C158.739 63.6458 158.984 63.8422 159.15 64.1024C159.321 64.3472 159.413 64.641 159.414 64.9426C159.415 65.1461 159.377 65.3478 159.302 65.5361C159.227 65.7245 159.116 65.8956 158.977 66.0398C158.67 66.3606 158.256 66.5482 157.819 66.5637C157.997 66.6341 158.16 66.738 158.3 66.8701C158.612 67.2194 158.888 67.6021 159.121 68.0118L159.803 69.1337H158.703L158.223 68.2293C157.983 67.7276 157.657 67.2741 157.262 66.8899C157.049 66.7464 156.796 66.6771 156.542 66.6922H156.014V69.1337H155.091ZM157.358 61.7201C156.615 61.7253 155.884 61.9243 155.236 62.2984C154.552 62.6745 153.991 63.2484 153.622 63.9492C153.244 64.6244 153.042 65.3889 153.036 66.1683C153.037 66.9455 153.235 67.7089 153.612 68.3825C153.982 69.0781 154.537 69.6508 155.212 70.0333C155.866 70.4167 156.606 70.6177 157.358 70.6165C158.111 70.6162 158.852 70.4135 159.505 70.0283C160.18 69.6459 160.735 69.0732 161.104 68.3776C161.477 67.7023 161.673 66.9397 161.676 66.1634C161.674 65.3794 161.474 64.6094 161.095 63.9294C160.725 63.2286 160.164 62.6547 159.481 62.2786C158.831 61.9114 158.1 61.7193 157.358 61.7201ZM157.358 60.8354C158.25 60.8396 159.126 61.0778 159.904 61.5274C160.718 61.9791 161.386 62.6664 161.825 63.5043C162.277 64.3226 162.517 65.2468 162.521 66.1881C162.517 67.1187 162.28 68.0325 161.834 68.8421C161.392 69.6777 160.725 70.3641 159.913 70.8191C159.127 71.2783 158.238 71.5201 157.334 71.5209C156.432 71.5195 155.545 71.2777 154.76 70.8191C153.949 70.3628 153.282 69.6767 152.839 68.8421C152.389 68.0341 152.151 67.1195 152.147 66.1881C152.151 65.2461 152.393 64.3213 152.849 63.5043C153.289 62.6674 153.956 61.9805 154.77 61.5274C155.548 61.0794 156.423 60.8413 157.315 60.8354" fill="#0031F9"/>
<path d="M520.48 383.818H528.731V376.558H520.48V383.818ZM505.592 374.808C504.862 377.596 503.191 378.797 500.391 378.797C497.149 378.797 494.911 376.948 494.911 372.248C494.911 367.548 497.211 365.699 500.833 365.699C504.266 365.699 505.337 368.101 505.592 369.752H515.605C514.438 360.579 506.187 359.867 500.833 359.867C495.478 359.867 485.464 360.258 485.464 372.223C485.464 384.189 495.449 384.609 500.833 384.609C506.216 384.609 509.65 383.665 511.826 381.98C514.001 380.294 515.039 377.833 515.605 374.784L505.592 374.808ZM453.018 383.818H461.518V370.854H461.581L471.027 383.818H480.762V360.678H472.257V373.528H472.166L463.156 360.678H453.018V383.818ZM438.129 383.818H447.01V360.678H438.12L438.129 383.818ZM391.395 383.818H400.275V377.304L410.26 360.678H400.102L395.818 369.752L391.534 360.678H381.396L391.381 377.304L391.395 383.818ZM351.236 383.818H359.741V370.854H359.803L369.25 383.818H378.985V360.678H370.465V373.528H370.369L361.364 360.678H351.221L351.236 383.818ZM318.482 383.818H327.928L328.889 381.164H338.148L339.109 383.818H348.556L338.936 360.678H328.044L318.482 383.818ZM336.184 375.525H330.815L333.461 367.681H333.523L336.184 375.525ZM301 366.134H306.72C308.953 366.134 309.803 366.846 309.803 368.606C309.803 370.365 308.953 371.003 306.72 371.003H300.986L301 366.134ZM292.12 383.828H301V376.627H310.514C316.815 376.627 319.082 373.192 319.082 368.749C319.082 363.594 316.748 360.678 310.437 360.678H292.106L292.12 383.828ZM253.757 383.828H261.82V367.281H261.883L266.608 383.808H273.332L278.058 367.281H278.12V383.808H286.184V360.678H273.697L270.014 374.131H269.951L266.268 360.678H253.781L253.757 383.828ZM227.731 372.248C227.731 367.548 230.027 365.699 233.648 365.699C237.269 365.699 239.57 367.548 239.57 372.248C239.57 376.948 237.269 378.797 233.672 378.797C230.075 378.797 227.755 376.948 227.755 372.248H227.731ZM218.304 372.248C218.304 384.243 228.288 384.634 233.672 384.634C239.056 384.634 249.04 384.243 249.04 372.248C249.04 360.253 239.056 359.892 233.672 359.892C228.288 359.892 218.304 360.283 218.304 372.248ZM204.76 374.808C204.035 377.596 202.359 378.797 199.564 378.797C196.322 378.797 194.084 376.948 194.084 372.248C194.084 367.548 196.385 365.699 200.006 365.699C203.44 365.699 204.506 368.101 204.76 369.752H214.75C213.588 360.579 205.337 359.867 199.982 359.867C194.627 359.867 184.613 360.258 184.613 372.223C184.613 384.189 194.598 384.609 199.982 384.609C205.365 384.609 208.799 383.665 210.97 381.98C213.141 380.294 214.188 377.833 214.75 374.784L204.76 374.808Z" fill="white"/>
<path d="M413.245 383.695H409.634L409.62 376.772H417.654V382.031C417.654 388.209 412.265 389.906 409.634 390V387.22C411.776 386.993 413.124 385.891 413.245 383.695Z" fill="white"/>
<path d="M519.251 346.384H527.756V333.421H527.818L537.265 346.384H547V323.244H538.495V336.094H538.399L529.394 323.244H519.251V346.384ZM493.235 334.814C493.235 330.114 495.535 328.266 499.156 328.266C502.778 328.266 505.078 330.114 505.078 334.814C505.078 339.515 502.778 341.363 499.156 341.363C495.535 341.363 493.235 339.515 493.235 334.814ZM483.788 334.814C483.788 346.81 493.768 347.2 499.156 347.2C504.545 347.2 514.525 346.81 514.525 334.814C514.525 322.819 504.54 322.434 499.156 322.434C493.773 322.434 483.788 322.824 483.788 334.814ZM470.086 346.384H478.966V323.244H470.086V346.384ZM449.267 346.384H458.147V329.086H466.369V323.244H441.045V329.081H449.267V346.384ZM428.615 337.374C427.89 340.162 426.214 341.363 423.419 341.363C420.177 341.363 417.939 339.515 417.939 334.814C417.939 330.114 420.24 328.266 423.861 328.266C427.295 328.266 428.366 330.668 428.615 332.318H438.634C437.467 323.145 429.216 322.434 423.861 322.434C418.506 322.434 408.492 322.824 408.492 334.814C408.492 346.805 418.472 347.2 423.861 347.2C429.249 347.2 432.678 346.256 434.854 344.571C437.03 342.885 438.062 340.424 438.634 337.374H428.615ZM377.333 337.627C377.333 344.986 381.655 347.225 390.78 347.225C399.905 347.225 404.228 344.986 404.228 337.627V323.294H395.348V337.295C395.348 340.261 393.681 341.215 390.78 341.215C387.88 341.215 386.213 340.276 386.213 337.295V323.244H377.333V337.627ZM354.813 329.106H360.985C362.469 329.106 363.569 329.526 363.569 331.276C363.569 332.758 362.843 333.445 361.115 333.445H354.813V329.106ZM345.933 346.404H354.813V339.258H361.115C362.747 339.258 363.319 340.29 363.41 342.01C363.569 344.704 363.569 345.707 363.89 346.384H373.597C372.977 345.609 372.593 344.664 372.492 343.666L372.103 338.615C371.944 336.608 370.878 335.442 369.553 335.052V334.987C372.137 334.211 373.015 331.879 373.015 329.704C373.015 327.173 371.632 324.939 369.961 324.099C368.736 323.481 367.19 323.254 364.64 323.254H345.909L345.933 346.404ZM325.205 346.404H334.09V329.106H342.307V323.244H316.988V329.081H325.205V346.404ZM302.595 338.121C303.79 338.318 304.199 338.996 304.199 339.678C304.199 340.78 303.445 341.556 300.674 341.556C299.642 341.612 298.611 341.444 297.648 341.062C297.351 340.91 297.102 340.674 296.932 340.381C296.762 340.089 296.677 339.752 296.687 339.411H286.021C286.05 346.216 293.513 347.19 300.352 347.19C310.332 347.19 314.808 344.531 314.808 338.887C314.808 334.968 312.037 332.827 307.56 332.145L296.951 330.529C296.068 330.401 295.784 329.976 295.784 329.328C295.784 328.34 296.697 327.677 299.343 327.677C300.29 327.651 301.232 327.819 302.114 328.172C302.506 328.284 302.85 328.526 303.095 328.86C303.34 329.194 303.471 329.602 303.469 330.02H313.799C313.482 325.127 309.357 322.434 299.343 322.434C292.034 322.434 286.333 324.055 286.333 330.05C286.333 333.292 288.129 335.887 292.475 336.564L302.595 338.121ZM253.742 346.384H262.248V333.421H262.31L271.762 346.384H281.492V323.244H272.991V336.094H272.895L263.885 323.244H253.742V346.384ZM227.731 334.814C227.731 330.114 230.027 328.266 233.648 328.266C237.269 328.266 239.57 330.114 239.57 334.814C239.57 339.515 237.269 341.363 233.648 341.363C230.027 341.363 227.731 339.515 227.731 334.814ZM218.28 334.814C218.28 346.81 228.264 347.2 233.648 347.2C239.032 347.2 249.016 346.81 249.016 334.814C249.016 322.819 239.032 322.434 233.648 322.434C228.264 322.434 218.28 322.824 218.28 334.814ZM204.736 337.374C204.011 340.162 202.335 341.363 199.54 341.363C196.298 341.363 194.06 339.515 194.06 334.814C194.06 330.114 196.361 328.266 199.982 328.266C203.416 328.266 204.482 330.668 204.736 332.318H214.75C213.588 323.145 205.337 322.434 199.982 322.434C194.627 322.434 184.613 322.824 184.613 334.814C184.613 346.805 194.598 347.2 199.982 347.2C205.365 347.2 208.799 346.256 210.97 344.571C213.141 342.885 214.188 340.424 214.75 337.374H204.736Z" fill="white"/>
<path d="M351.336 291.662H357.507C358.986 291.662 360.091 292.082 360.091 293.832C360.091 295.29 359.366 296.002 357.632 296.002H351.336V291.662ZM342.451 308.961H351.336V301.834H357.632C359.27 301.834 359.841 302.867 359.933 304.587C360.091 307.28 360.091 308.284 360.413 308.961H370.066C369.45 308.184 369.068 307.239 368.966 306.242L368.625 301.172C368.472 299.165 367.396 297.999 366.075 297.608V297.544C368.659 296.768 369.543 294.435 369.543 292.26C369.543 289.73 368.155 287.496 366.483 286.656C365.254 286.038 363.712 285.811 361.162 285.811H342.432L342.451 308.961ZM314.043 308.961H337.951V303.326H322.909V300.213H336.861V294.573H322.909V291.46H337.932V285.82H314.024L314.043 308.961ZM299.525 308.961H311.335L300.428 294.756L310.475 285.811H298.685L290.439 293.98V285.811H281.554V308.961H290.439V302.738L293.363 300.079L299.525 308.961ZM266.81 299.941C266.084 302.728 264.408 303.929 261.613 303.929C258.367 303.929 256.133 302.081 256.133 297.381C256.133 292.68 258.429 290.832 262.05 290.832C265.484 290.832 266.56 293.234 266.81 294.885H276.823C275.661 285.712 267.405 285 262.05 285C256.695 285 246.682 285.39 246.682 297.356C246.682 309.322 256.667 309.742 262.05 309.742C267.434 309.742 270.873 308.798 273.043 307.112C275.214 305.427 276.256 302.966 276.823 299.916L266.81 299.941ZM219.475 308.961H243.382V303.326H228.355V300.213H242.316V294.573H228.355V291.46H243.382V285.82H219.475V308.961ZM204.673 308.961H213.553V285.82H204.673V293.891H194.689V285.82H185.809V308.961H194.689V299.723H204.673V308.961Z" fill="white"/>
<path d="M139.065 287.481H123.193V303.845L123.217 303.865L139.065 320.229V367.845V367.859L123.193 351.475V343.864H107.32V359.65V367.845V367.859L123.193 384.248H157.354V306.356L139.065 287.481Z" fill="#FFD93B"/>
<path d="M73 287.481V365.205L91.4469 384.243H107.32V367.859L91.4469 351.475V351.456V303.87H91.4709L107.32 320.229V327.811H123.192V320.254V303.87L107.32 287.481H73Z" fill="#FFD93B"/>
<path d="M155.99 290.877H157.08C157.451 290.916 157.825 290.831 158.146 290.635C158.238 290.559 158.312 290.461 158.362 290.351C158.411 290.24 158.434 290.119 158.429 289.997C158.43 289.835 158.383 289.677 158.295 289.542C158.199 289.404 158.065 289.299 157.911 289.241C157.618 289.153 157.312 289.118 157.008 289.137H155.99V290.877ZM155.091 294.134V288.386H157.013C157.498 288.36 157.984 288.413 158.453 288.544C158.739 288.646 158.984 288.842 159.15 289.102C159.321 289.347 159.413 289.641 159.414 289.943C159.415 290.146 159.377 290.348 159.302 290.536C159.227 290.724 159.116 290.896 158.977 291.04C158.67 291.361 158.256 291.548 157.819 291.564C157.997 291.634 158.16 291.738 158.3 291.87C158.612 292.219 158.888 292.602 159.121 293.012L159.803 294.134H158.703L158.223 293.229C157.983 292.728 157.657 292.274 157.262 291.89C157.049 291.746 156.796 291.677 156.542 291.692H156.014V294.134H155.091ZM157.358 286.72C156.615 286.725 155.884 286.924 155.236 287.298C154.552 287.674 153.991 288.248 153.622 288.949C153.244 289.624 153.042 290.389 153.036 291.168C153.037 291.946 153.235 292.709 153.612 293.382C153.982 294.078 154.537 294.651 155.212 295.033C155.866 295.417 156.606 295.618 157.358 295.616C158.111 295.616 158.852 295.413 159.505 295.028C160.18 294.646 160.735 294.073 161.104 293.378C161.477 292.702 161.673 291.94 161.676 291.163C161.674 290.379 161.474 289.609 161.095 288.929C160.725 288.229 160.164 287.655 159.481 287.279C158.831 286.911 158.1 286.719 157.358 286.72ZM157.358 285.835C158.25 285.84 159.126 286.078 159.904 286.527C160.718 286.979 161.386 287.666 161.825 288.504C162.277 289.323 162.517 290.247 162.521 291.188C162.517 292.119 162.28 293.033 161.834 293.842C161.392 294.678 160.725 295.364 159.913 295.819C159.127 296.278 158.238 296.52 157.334 296.521C156.432 296.519 155.545 296.278 154.76 295.819C153.949 295.363 153.282 294.677 152.839 293.842C152.389 293.034 152.151 292.119 152.147 291.188C152.151 290.246 152.393 289.321 152.849 288.504C153.289 287.667 153.956 286.981 154.77 286.527C155.548 286.079 156.423 285.841 157.315 285.835" fill="#FFD93B"/>
</svg>
