<svg width="620" height="675" viewBox="0 0 620 675" fill="none" xmlns="http://www.w3.org/2000/svg">
<rect width="620" height="675" rx="10" fill="#D7DFFF"/>
<path d="M89.0517 123.215H98.0209V100.785H89.0517V108.607H78.9692V100.785H70V123.215H78.9692V114.262H89.0517V123.215Z" fill="#0031F9"/>
<path d="M109.298 112.503C109.711 110.335 111.302 109.487 114.069 109.487C116.804 109.487 118.617 110.649 118.776 112.503H109.298ZM118.235 118.063C117.376 119.131 116.168 119.571 114.1 119.571C110.602 119.571 109.298 117.686 109.298 116.461H126.791C126.918 107.885 121.257 105.34 113.56 105.34C105.736 105.34 101.156 108.67 101.156 114.607C101.156 120.89 105.926 123.906 114.291 123.906C117.949 123.906 120.684 123.34 122.72 122.335C124.755 121.33 126.091 119.853 126.696 118.063H118.235Z" fill="#0031F9"/>
<path d="M129.784 123.215H137.736V100H129.784V123.215Z" fill="#0031F9"/>
<path d="M147.186 123.215H156.282L164.329 106.031H155.36L151.766 116.304H151.702L148.108 106.031H139.139L147.186 123.215Z" fill="#0031F9"/>
<path d="M172.909 112.503C173.323 110.335 174.913 109.487 177.68 109.487C180.416 109.487 182.229 110.649 182.388 112.503H172.909ZM181.847 118.063C180.988 119.131 179.779 119.571 177.712 119.571C174.213 119.571 172.909 117.686 172.909 116.461H190.403C190.53 107.885 184.868 105.34 177.171 105.34C169.347 105.34 164.767 108.67 164.767 114.607C164.767 120.89 169.538 123.906 177.903 123.906C181.561 123.906 184.296 123.34 186.331 122.335C188.367 121.33 189.703 119.853 190.307 118.063H181.847Z" fill="#0031F9"/>
<path d="M191.774 110.932H195.463V118C195.463 122.681 197.308 123.592 202.143 123.592C204.624 123.592 206.532 123.403 207.931 123.215V118.628C207.168 118.66 206.436 118.691 205.8 118.691C204.083 118.691 203.415 118.597 203.415 116.995V110.932H207.709V106.031H203.415V100.503H195.463V106.031H191.774V110.932Z" fill="#0031F9"/>
<path d="M210.479 123.215H218.431V106.031H210.479V123.215ZM210.479 104.335H218.431V100H210.479V104.335Z" fill="#0031F9"/>
<path d="M247.123 112.942C246.265 107.225 241.812 105.34 234.337 105.34C227.022 105.34 221.297 107.539 221.297 114.576C221.297 121.707 227.022 123.906 234.337 123.906C239.808 123.906 246.296 123.089 247.123 115.958H238.79C238.249 118.188 236.596 118.817 234.369 118.817C231.22 118.817 229.63 117.12 229.63 114.482C229.63 112.188 230.871 110.241 234.433 110.241C235.451 110.241 236.564 110.398 237.295 110.775C238.186 111.215 238.695 111.874 238.79 112.942H247.123Z" fill="#0031F9"/>
<path d="M258.005 111.246C258.386 109.581 260.199 109.298 262.012 109.298C264.27 109.298 265.702 109.832 265.702 110.963C265.702 111.906 265.161 112.283 263.571 112.377L256.86 112.691C250.975 112.942 248.717 114.953 248.717 118.094C248.717 122.492 252.089 123.906 257.432 123.906C261.662 123.906 264.366 123.152 266.147 121.518C266.179 122.147 266.274 122.712 266.433 123.215H274.575C274.194 122.649 273.844 121.864 273.844 120.545V112.251C273.844 107.131 270.631 105.34 262.521 105.34C258.323 105.34 255.428 105.654 253.488 106.534C251.516 107.445 250.53 108.89 250.053 111.246H258.005ZM265.892 116.147C265.892 119.099 262.934 119.759 260.263 119.759C258.291 119.759 257.305 119.005 257.305 117.812C257.305 116.712 258.005 116.241 259.468 116.115C262.298 115.864 264.557 115.675 265.892 115.393V116.147Z" fill="#0031F9"/>
<path d="M290.87 123.215H299.458V110.649H299.521L309.063 123.215H318.891V100.785H310.304V113.225H310.208L301.112 100.785H290.87V123.215Z" fill="#0031F9"/>
<path d="M330.168 112.503C330.581 110.335 332.172 109.487 334.939 109.487C337.674 109.487 339.487 110.649 339.646 112.503H330.168ZM339.105 118.063C338.247 119.131 337.038 119.571 334.971 119.571C331.472 119.571 330.168 117.686 330.168 116.461H347.661C347.788 107.885 342.127 105.34 334.43 105.34C326.606 105.34 322.026 108.67 322.026 114.607C322.026 120.89 326.797 123.906 335.161 123.906C338.819 123.906 341.554 123.34 343.59 122.335C345.626 121.33 346.961 119.853 347.566 118.063H339.105Z" fill="#0031F9"/>
<path d="M373.3 106.031H365.349V114.136C365.349 116.712 364.14 118.251 361.659 118.251C359.783 118.251 358.606 117.309 358.606 115.141V106.031H350.655V117.183C350.655 121.958 353.962 123.906 358.352 123.906C362.168 123.906 364.713 122.398 365.54 121.298H365.603V123.215H373.3V106.031Z" fill="#0031F9"/>
<path d="M384.306 112.503C384.72 110.335 386.31 109.487 389.077 109.487C391.812 109.487 393.625 110.649 393.784 112.503H384.306ZM393.244 118.063C392.385 119.131 391.176 119.571 389.109 119.571C385.61 119.571 384.306 117.686 384.306 116.461H401.799C401.927 107.885 396.265 105.34 388.568 105.34C380.744 105.34 376.164 108.67 376.164 114.607C376.164 120.89 380.935 123.906 389.3 123.906C392.957 123.906 395.693 123.34 397.728 122.335C399.764 121.33 401.1 119.853 401.704 118.063H393.244Z" fill="#0031F9"/>
<path d="M418.062 123.215H440.931V117.183H427.032V100.785H418.062V123.215Z" fill="#0031F9"/>
<path d="M446.436 123.215H455.406V106.44H463.707V100.785H438.135V106.44H446.436V123.215Z" fill="#0031F9"/>
<path d="M494.085 115.204C495.293 115.393 495.707 116.052 495.707 116.712C495.707 117.78 494.943 118.534 492.144 118.534C490.745 118.534 489.759 118.377 489.091 118.063C488.455 117.717 488.169 117.215 488.137 116.461H477.323C477.355 123.058 484.893 124 491.795 124C501.877 124 506.393 121.424 506.393 115.958C506.393 112.157 503.595 110.084 499.078 109.424L488.36 107.853C487.469 107.728 487.183 107.319 487.183 106.691C487.183 105.749 488.105 105.089 490.777 105.089C491.763 105.089 492.781 105.215 493.576 105.56C494.403 105.874 494.943 106.44 494.943 107.351H505.376C505.058 102.607 500.891 100 490.777 100C483.398 100 477.641 101.571 477.641 107.382C477.641 110.524 479.454 113.037 483.843 113.696L494.085 115.204Z" fill="#0031F9"/>
<path d="M507.44 110.932H511.13V118C511.13 122.681 512.975 123.592 517.809 123.592C520.29 123.592 522.198 123.403 523.598 123.215V118.628C522.834 118.66 522.103 118.691 521.467 118.691C519.749 118.691 519.081 118.597 519.081 116.995V110.932H523.375V106.031H519.081V100.503H511.13V106.031H507.44V110.932Z" fill="#0031F9"/>
<path d="M542.303 123.215H550V100H542.049V107.979H541.985C540.617 106.346 538.327 105.56 535.083 105.56C529.931 105.56 525.191 108.356 525.191 114.733C525.191 121.11 529.931 123.906 535.083 123.906C538.614 123.906 540.808 123.026 542.239 121.393H542.303V123.215ZM542.049 114.733C542.049 117.183 540.745 118.628 537.691 118.628C534.606 118.628 533.334 116.995 533.334 114.733C533.334 112.534 534.797 110.838 537.659 110.838C540.744 110.838 542.049 112.314 542.049 114.733Z" fill="#0031F9"/>
<path d="M71.254 157.468C71.958 161.384 75.566 162.396 80.472 162.396C85.686 162.396 90.13 160.9 90.13 154.212C90.13 147.172 85.048 146.336 79.812 146.336C73.696 146.336 71.078 148.558 71.078 151.77C71.078 155.686 75.192 156.72 79.636 156.72C80.714 156.72 81.616 156.632 82.364 156.5C83.112 156.346 83.728 156.126 84.19 155.84C84.08 157.842 82.87 158.7 80.494 158.7C79.724 158.7 79.042 158.634 78.514 158.458C77.964 158.282 77.59 157.974 77.458 157.468H71.254ZM80.516 153.156C78.602 153.156 77.414 152.562 77.414 151.594C77.414 150.626 78.052 150.032 80.516 150.032C82.452 150.032 83.64 150.626 83.64 151.594C83.64 152.562 83.002 153.156 80.516 153.156ZM98.6631 155.84H102.645C104.207 155.84 105.043 156.104 105.043 157.072C105.043 157.776 104.713 158.568 101.875 158.568C100.599 158.568 99.7411 158.436 99.2131 158.15C98.6851 157.864 98.4431 157.446 98.3771 156.896H92.0411C92.3711 162.088 97.6071 162.396 102.293 162.396C109.377 162.396 111.577 160.262 111.577 157.38C111.577 155.422 110.389 154.256 108.475 153.816V153.772C110.763 153.244 111.137 151.924 111.137 150.692C111.137 147.634 108.541 146.336 101.875 146.336C96.3091 146.336 92.8771 147.436 92.5911 150.824H99.0591C99.4551 150.186 99.7411 150.032 101.831 150.032C104.207 150.032 104.603 150.582 104.603 151.242C104.603 151.792 104.295 152.276 102.931 152.276H98.6631V155.84ZM128.981 150.12H133.667C134.921 150.12 135.207 150.538 135.207 151.11C135.207 151.726 134.921 152.144 133.667 152.144H128.981V150.12ZM128.981 155.708H134.283C135.515 155.708 135.889 156.258 135.889 156.94C135.889 157.644 135.515 158.172 134.283 158.172H128.981V155.708ZM122.909 162H136.351C140.949 162 142.489 159.976 142.489 156.896C142.489 155.73 141.829 153.838 139.805 153.31V153.266C140.993 152.804 141.675 151.594 141.675 150.208C141.675 147.7 140.245 146.292 137.033 146.292H122.909V162ZM144.711 162H150.211V145.742H144.711V162ZM158.441 153.618C158.705 152.452 159.959 152.254 161.213 152.254C162.775 152.254 163.765 152.628 163.765 153.42C163.765 154.08 163.391 154.344 162.291 154.41L157.649 154.63C153.579 154.806 152.017 156.214 152.017 158.414C152.017 161.494 154.349 162.484 158.045 162.484C160.971 162.484 162.841 161.956 164.073 160.812C164.095 161.252 164.161 161.648 164.271 162H169.903C169.639 161.604 169.397 161.054 169.397 160.13V154.322C169.397 150.736 167.175 149.482 161.565 149.482C158.661 149.482 156.659 149.702 155.317 150.318C153.953 150.956 153.271 151.968 152.941 153.618H158.441ZM163.897 157.05C163.897 159.118 161.851 159.58 160.003 159.58C158.639 159.58 157.957 159.052 157.957 158.216C157.957 157.446 158.441 157.116 159.453 157.028C161.411 156.852 162.973 156.72 163.897 156.522V157.05ZM189.2 154.806C188.606 150.802 185.526 149.482 180.356 149.482C175.296 149.482 171.336 151.022 171.336 155.95C171.336 160.944 175.296 162.484 180.356 162.484C184.14 162.484 188.628 161.912 189.2 156.918H183.436C183.062 158.48 181.918 158.92 180.378 158.92C178.2 158.92 177.1 157.732 177.1 155.884C177.1 154.278 177.958 152.914 180.422 152.914C181.126 152.914 181.896 153.024 182.402 153.288C183.018 153.596 183.37 154.058 183.436 154.806H189.2ZM191.138 162H196.638V159.36L198.354 157.952L201.214 162H208.65L202.622 154.454L208.1 149.966H200.796L196.638 153.86V145.742H191.138V162ZM218.622 162H235.32V158.172H224.826V156.06H234.572V152.232H224.826V150.12H235.32V146.292H218.622V162ZM242.614 162L244.99 158.59L247.366 162H254.362L248.73 155.708L253.9 149.966H247.168L244.99 153.2L242.812 149.966H236.08L241.162 155.708L235.618 162H242.614ZM254.341 153.398H256.893V158.348C256.893 161.626 258.169 162.264 261.513 162.264C263.229 162.264 264.549 162.132 265.517 162V158.788C264.989 158.81 264.483 158.832 264.043 158.832C262.855 158.832 262.393 158.766 262.393 157.644V153.398H265.363V149.966H262.393V146.094H256.893V149.966H254.341V153.398ZM272.251 154.498C272.537 152.98 273.637 152.386 275.551 152.386C277.443 152.386 278.697 153.2 278.807 154.498H272.251ZM278.433 158.392C277.839 159.14 277.003 159.448 275.573 159.448C273.153 159.448 272.251 158.128 272.251 157.27H284.351C284.439 151.264 280.523 149.482 275.199 149.482C269.787 149.482 266.619 151.814 266.619 155.972C266.619 160.372 269.919 162.484 275.705 162.484C278.235 162.484 280.127 162.088 281.535 161.384C282.943 160.68 283.867 159.646 284.285 158.392H278.433ZM286.422 162H291.922V156.456C291.922 154.454 293.022 153.596 294.474 153.596C295.772 153.596 296.586 154.256 296.586 155.774V162H302.086V154.344C302.086 151 299.798 149.636 296.762 149.636C294.122 149.636 292.362 150.692 291.79 151.462H291.746V149.966H286.422V162ZM315.902 162H321.226V145.742H315.726V151.33H315.682C314.736 150.186 313.152 149.636 310.908 149.636C307.344 149.636 304.066 151.594 304.066 156.06C304.066 160.526 307.344 162.484 310.908 162.484C313.35 162.484 314.868 161.868 315.858 160.724H315.902V162ZM315.726 156.06C315.726 157.776 314.824 158.788 312.712 158.788C310.578 158.788 309.698 157.644 309.698 156.06C309.698 154.52 310.71 153.332 312.69 153.332C314.824 153.332 315.726 154.366 315.726 156.06ZM328.841 154.498C329.127 152.98 330.227 152.386 332.141 152.386C334.033 152.386 335.287 153.2 335.397 154.498H328.841ZM335.023 158.392C334.429 159.14 333.593 159.448 332.163 159.448C329.743 159.448 328.841 158.128 328.841 157.27H340.941C341.029 151.264 337.113 149.482 331.789 149.482C326.377 149.482 323.209 151.814 323.209 155.972C323.209 160.372 326.509 162.484 332.295 162.484C334.825 162.484 336.717 162.088 338.125 161.384C339.533 160.68 340.457 159.646 340.875 158.392H335.023ZM354.187 162H359.511V145.742H354.011V151.33H353.967C353.021 150.186 351.437 149.636 349.193 149.636C345.629 149.636 342.351 151.594 342.351 156.06C342.351 160.526 345.629 162.484 349.193 162.484C351.635 162.484 353.153 161.868 354.143 160.724H354.187V162ZM354.011 156.06C354.011 157.776 353.109 158.788 350.997 158.788C348.863 158.788 347.983 157.644 347.983 156.06C347.983 154.52 348.995 153.332 350.975 153.332C353.109 153.332 354.011 154.366 354.011 156.06Z" fill="#0031F9"/>
<path fill-rule="evenodd" clip-rule="evenodd" d="M375.631 393H432.086H446.726H479.502H493.187H512.261L550 432.245V594.167H493.187H479.502H446.726H432.086H413.837L375.631 554.584V393Z" fill="white"/>
<path fill-rule="evenodd" clip-rule="evenodd" d="M222.815 393H279.271H293.911H326.686H340.372H359.446L397.184 432.245V594.167H340.372H326.686H293.911H279.271H261.022L222.815 554.584V393Z" fill="#FFD93B"/>
<path fill-rule="evenodd" clip-rule="evenodd" d="M70 393H126.456H141.095H173.871H187.556H206.63L244.369 432.245V594.167H187.556H173.871H141.095H126.456H108.206L70 554.584V393Z" fill="#0031F9"/>
<path d="M80.58 262.88H77.18L78.86 258.04H78.9L80.58 262.88ZM69.34 268H75.34L75.94 266.36H81.82L82.42 268H88.42L82.34 253.72H75.42L69.34 268ZM94.6539 257.2H98.9139C100.054 257.2 100.314 257.58 100.314 258.1C100.314 258.66 100.054 259.04 98.9139 259.04H94.6539V257.2ZM94.6539 262.28H99.4739C100.594 262.28 100.934 262.78 100.934 263.4C100.934 264.04 100.594 264.52 99.4739 264.52H94.6539V262.28ZM89.1339 268H101.354C105.534 268 106.934 266.16 106.934 263.36C106.934 262.3 106.334 260.58 104.494 260.1V260.06C105.574 259.64 106.194 258.54 106.194 257.28C106.194 255 104.894 253.72 101.974 253.72H89.1339V268ZM121.154 262.44C120.694 264.16 119.634 264.9 117.854 264.9C115.794 264.9 114.374 263.76 114.374 260.86C114.374 257.96 115.834 256.82 118.134 256.82C120.314 256.82 120.994 258.3 121.154 259.32H127.514C126.774 253.66 121.534 253.22 118.134 253.22C114.714 253.22 108.374 253.46 108.374 260.86C108.374 268.26 114.714 268.5 118.134 268.5C121.574 268.5 123.734 267.92 125.114 266.88C126.514 265.84 127.154 264.32 127.514 262.44H121.154ZM135.145 257.32H138.385C140.965 257.32 142.005 258.6 142.005 260.86C142.005 263.12 140.965 264.4 138.385 264.4H135.145V257.32ZM129.505 268H140.605C145.345 268 147.885 265.88 147.885 260.86C147.885 255.6 145.325 253.72 140.485 253.72H129.505V268ZM149.876 268H165.056V264.52H155.516V262.6H164.376V259.12H155.516V257.2H165.056V253.72H149.876V268ZM166.907 268H172.547V262.86H180.667V259.38H172.547V257.2H181.367V253.72H166.907V268ZM192.985 263.1H195.305C194.905 264.18 193.985 264.9 192.145 264.9C189.345 264.9 187.945 263.5 187.945 260.86C187.945 257.96 189.405 256.82 191.705 256.82C192.445 256.82 193.085 256.9 193.625 257.16C194.145 257.42 194.565 257.88 194.725 258.62H201.085C200.645 254.94 197.665 253.22 191.385 253.22C187.065 253.22 182.065 254.66 182.065 260.92C182.065 267.52 187.445 268.5 191.405 268.5C194.645 268.5 196.485 268 197.945 266.7L198.585 268H201.005V259.86H192.985V263.1ZM215.567 268H221.207V253.72H215.567V258.7H209.227V253.72H203.587V268H209.227V262.3H215.567V268ZM224.018 268H229.658V253.72H224.018V268ZM240.274 262.8C240.274 264.36 239.754 265.02 238.554 265.02C237.754 265.02 237.354 264.78 237.114 264.28C236.874 263.78 236.854 263.02 236.854 262.02H231.214C231.214 267.16 233.414 268.5 238.894 268.5C244.934 268.5 245.914 266.02 245.914 262.38V253.72H240.274V262.8ZM259.792 268H267.292L260.372 259.24L266.752 253.72H259.272L254.032 258.76V253.72H248.392V268H254.032V264.16L255.892 262.52L259.792 268ZM268.021 268H282.401V264.16H273.661V253.72H268.021V268ZM283.939 268H289.059V257.8H289.099L292.099 268H296.379L299.379 257.8H299.419V268H304.539V253.72H296.599L294.259 262.02H294.219L291.879 253.72H283.939V268ZM307.298 268H312.698V260H312.738L318.738 268H324.918V253.72H319.518V261.64H319.458L313.738 253.72H307.298V268ZM326.909 260.86C326.909 268.26 333.249 268.5 336.669 268.5C340.089 268.5 346.429 268.26 346.429 260.86C346.429 253.46 340.089 253.22 336.669 253.22C333.249 253.22 326.909 253.46 326.909 260.86ZM332.909 260.86C332.909 257.96 334.369 256.82 336.669 256.82C338.969 256.82 340.429 257.96 340.429 260.86C340.429 263.76 338.969 264.9 336.669 264.9C334.369 264.9 332.909 263.76 332.909 260.86ZM348.431 268H354.071V263.56H360.111C364.111 263.56 365.551 261.44 365.551 258.7C365.551 255.52 364.071 253.72 360.071 253.72H348.431V268ZM354.071 257.08H357.711C359.131 257.08 359.671 257.52 359.671 258.6C359.671 259.64 359.131 260.08 357.711 260.08H354.071V257.08ZM376.098 264.02L376.998 264.86C376.778 264.88 376.558 264.9 376.318 264.9C374.018 264.9 372.558 263.76 372.558 260.86C372.558 257.96 374.018 256.82 376.318 256.82C378.618 256.82 380.078 257.96 380.078 260.86C380.078 261.6 379.978 262.24 379.798 262.74L378.418 261.52L376.098 264.02ZM383.718 270.94L386.078 268.32L383.978 266.44C385.238 265.32 386.078 263.56 386.078 260.86C386.078 253.46 379.738 253.22 376.318 253.22C372.898 253.22 366.558 253.46 366.558 260.86C366.558 268.26 372.898 268.5 376.318 268.5C377.198 268.5 378.058 268.46 378.798 268.38C379.558 268.3 380.178 268.2 380.578 268.1L383.718 270.94ZM388.079 268H393.719V263.6H397.719C398.759 263.6 399.119 264.24 399.179 265.3C399.279 266.96 399.279 267.58 399.479 268H405.639C405.279 267.56 404.999 266.96 404.939 266.32L404.699 263.2C404.599 261.96 403.919 261.24 403.079 261V260.96C404.719 260.48 405.279 259.04 405.279 257.7C405.279 256.14 404.399 254.76 403.339 254.24C402.559 253.86 401.579 253.72 399.959 253.72H388.079V268ZM393.719 257.32H397.639C398.579 257.32 399.279 257.58 399.279 258.66C399.279 259.56 398.819 260 397.719 260H393.719V257.32ZM416.957 262.9C417.718 263.02 417.978 263.44 417.978 263.86C417.978 264.54 417.498 265.02 415.738 265.02C414.858 265.02 414.238 264.92 413.818 264.72C413.418 264.5 413.238 264.18 413.218 263.7H406.418C406.438 267.9 411.178 268.5 415.518 268.5C421.858 268.5 424.698 266.86 424.698 263.38C424.698 260.96 422.938 259.64 420.098 259.22L413.358 258.22C412.798 258.14 412.618 257.88 412.618 257.48C412.618 256.88 413.198 256.46 414.878 256.46C415.498 256.46 416.138 256.54 416.638 256.76C417.158 256.96 417.498 257.32 417.498 257.9H424.058C423.858 254.88 421.238 253.22 414.878 253.22C410.238 253.22 406.618 254.22 406.618 257.92C406.618 259.92 407.758 261.52 410.518 261.94L416.957 262.9ZM430.316 268H435.956V257.32H441.176V253.72H425.096V257.32H430.316V268ZM442.174 262.58C442.174 267.12 444.914 268.5 450.714 268.5C456.514 268.5 459.254 267.12 459.254 262.58V253.72H453.614V262.36C453.614 264.2 452.554 264.78 450.714 264.78C448.874 264.78 447.814 264.2 447.814 262.36V253.72H442.174V262.58ZM465.892 268H471.812L478.212 253.72H472.012L468.872 262.88H468.832L465.692 253.72H459.492L465.892 268ZM481.503 268H487.043L489.003 260.08H489.043L490.983 268H496.523L500.703 253.72H495.243L493.403 262.44H493.363L491.283 253.72H486.783L484.683 262.44H484.643L482.803 253.72H477.343L481.503 268ZM499.964 268H506.924L509.564 264.32L512.204 268H519.164L512.744 260.54L518.324 253.72H511.704L509.564 256.84L507.424 253.72H500.804L506.384 260.54L499.964 268ZM523.938 268H529.578V263.98L535.918 253.72H529.478L526.758 259.32L524.038 253.72H517.597L523.938 263.98V268ZM535.518 268H551.458V264.4H543.318L551.678 256.84V253.72H536.098V257.32H544.078L535.518 264.98V268ZM76.28 288.38C76.52 287.32 77.66 287.14 78.8 287.14C80.22 287.14 81.12 287.48 81.12 288.2C81.12 288.8 80.78 289.04 79.78 289.1L75.56 289.3C71.86 289.46 70.44 290.74 70.44 292.74C70.44 295.54 72.56 296.44 75.92 296.44C78.58 296.44 80.28 295.96 81.4 294.92C81.42 295.32 81.48 295.68 81.58 296H86.7C86.46 295.64 86.24 295.14 86.24 294.3V289.02C86.24 285.76 84.22 284.62 79.12 284.62C76.48 284.62 74.66 284.82 73.44 285.38C72.2 285.96 71.58 286.88 71.28 288.38H76.28ZM81.24 291.5C81.24 293.38 79.38 293.8 77.7 293.8C76.46 293.8 75.84 293.32 75.84 292.56C75.84 291.86 76.28 291.56 77.2 291.48C78.98 291.32 80.4 291.2 81.24 291.02V291.5ZM88.6023 296H93.4423V294.84H93.4823C94.3823 295.88 95.7623 296.44 97.9823 296.44C101.222 296.44 104.202 294.66 104.202 290.6C104.202 286.54 101.222 284.76 97.9823 284.76C95.9423 284.76 94.5023 285.26 93.6423 286.3H93.6023V281.22H88.6023V296ZM93.6023 290.6C93.6023 289.06 94.4223 288.12 96.3623 288.12C98.1623 288.12 99.0823 289.2 99.0823 290.6C99.0823 292.04 98.2823 293.08 96.3423 293.08C94.4223 293.08 93.6023 292.16 93.6023 290.6ZM121.645 289.46C121.105 285.82 118.305 284.62 113.605 284.62C109.005 284.62 105.405 286.02 105.405 290.5C105.405 295.04 109.005 296.44 113.605 296.44C117.045 296.44 121.125 295.92 121.645 291.38H116.405C116.065 292.8 115.025 293.2 113.625 293.2C111.645 293.2 110.645 292.12 110.645 290.44C110.645 288.98 111.425 287.74 113.665 287.74C114.305 287.74 115.005 287.84 115.465 288.08C116.025 288.36 116.345 288.78 116.405 289.46H121.645ZM133.567 296H138.407V281.22H133.407V286.3H133.367C132.507 285.26 131.067 284.76 129.027 284.76C125.787 284.76 122.807 286.54 122.807 290.6C122.807 294.66 125.787 296.44 129.027 296.44C131.247 296.44 132.627 295.88 133.527 294.84H133.567V296ZM133.407 290.6C133.407 292.16 132.587 293.08 130.667 293.08C128.727 293.08 127.927 292.04 127.927 290.6C127.927 289.2 128.847 288.12 130.647 288.12C132.587 288.12 133.407 289.06 133.407 290.6ZM145.329 289.18C145.589 287.8 146.589 287.26 148.329 287.26C150.049 287.26 151.189 288 151.289 289.18H145.329ZM150.949 292.72C150.409 293.4 149.649 293.68 148.349 293.68C146.149 293.68 145.329 292.48 145.329 291.7H156.329C156.409 286.24 152.849 284.62 148.009 284.62C143.089 284.62 140.209 286.74 140.209 290.52C140.209 294.52 143.209 296.44 148.469 296.44C150.769 296.44 152.489 296.08 153.769 295.44C155.049 294.8 155.889 293.86 156.269 292.72H150.949ZM159.512 296H164.512V288.18H167.212V285.06H164.512V284.74C164.512 284.14 164.792 283.86 165.712 283.86H167.212V281.22C166.172 281.12 164.892 281.1 163.932 281.1C160.692 281.1 159.512 281.9 159.512 283.9V285.06H157.192V288.18H159.512V296ZM178.943 295.08C178.943 296.58 178.243 297.32 176.203 297.32C175.443 297.32 174.903 297.22 174.543 297.04C174.183 296.86 174.003 296.6 173.923 296.24H168.403C168.883 298.98 170.863 300.08 176.323 300.08C181.323 300.08 183.943 298.72 183.943 295.22V285.06H179.103V286.3C178.103 285.32 176.603 284.76 174.603 284.76C170.883 284.76 167.983 286.6 167.983 290.04C167.983 293.48 170.303 295.32 174.603 295.32C176.383 295.32 177.943 295.02 178.943 294.14V295.08ZM178.943 290.14C178.943 291.32 178.183 292.32 176.063 292.32C174.003 292.32 173.223 291.32 173.223 290.14C173.223 289 174.003 288 176.063 288C178.183 288 178.943 289 178.943 290.14ZM186.337 296H191.337V290.96C191.337 289.14 192.337 288.36 193.657 288.36C194.837 288.36 195.577 288.96 195.577 290.34V296H200.577V289.04C200.577 286 198.497 284.76 195.737 284.76C193.337 284.76 191.857 285.72 191.377 286.42H191.337V281.22H186.337V296ZM202.977 296H207.977V285.06H202.977V296ZM202.977 283.98H207.977V281.22H202.977V283.98ZM208.68 299.8C209.28 299.88 210.3 299.92 211.34 299.92C214.14 299.92 215.76 299.5 215.76 295.92V285.06H210.76V295.14C210.76 296.24 210.5 296.32 209.6 296.32H208.68V299.8ZM210.76 283.98H215.76V281.22H210.76V283.98ZM218.153 296H223.153V293.6L224.713 292.32L227.313 296H234.073L228.593 289.14L233.573 285.06H226.933L223.153 288.6V281.22H218.153V296ZM234.794 296H239.794V281.22H234.794V296ZM242.196 296H247.196V290.2C247.196 288.86 247.856 288.36 248.896 288.36C249.776 288.36 250.236 288.72 250.236 289.82V296H255.076V290.2C255.076 288.86 255.736 288.36 256.776 288.36C257.656 288.36 258.116 288.72 258.116 289.82V296H263.116V288.46C263.116 285.8 261.196 284.76 258.796 284.76C256.776 284.76 255.456 285.58 254.776 286.58C254.196 285.5 253.316 284.76 251.156 284.76C249.076 284.76 247.856 285.54 247.076 286.56H247.036V285.06H242.196V296ZM265.516 296H270.516V290.96C270.516 289.14 271.516 288.36 272.836 288.36C274.016 288.36 274.756 288.96 274.756 290.34V296H279.756V289.04C279.756 286 277.676 284.76 274.916 284.76C272.516 284.76 270.916 285.72 270.396 286.42H270.356V285.06H265.516V296ZM286.797 290.52C286.797 288.8 287.657 287.86 289.657 287.86C291.677 287.86 292.517 288.8 292.517 290.52C292.517 292.28 291.677 293.2 289.657 293.2C287.657 293.2 286.797 292.28 286.797 290.52ZM281.557 290.52C281.557 294.56 284.017 296.44 289.657 296.44C295.297 296.44 297.757 294.56 297.757 290.52C297.757 286.5 295.297 284.62 289.657 284.62C284.017 284.62 281.557 286.5 281.557 290.52ZM299.559 299.92H304.559V294.9H304.599C305.459 295.94 306.899 296.44 308.939 296.44C312.179 296.44 315.159 294.66 315.159 290.6C315.159 286.54 312.179 284.76 308.939 284.76C306.719 284.76 305.339 285.32 304.439 286.36H304.399V285.06H299.559V299.92ZM304.559 290.6C304.559 289.04 305.379 288.12 307.299 288.12C309.239 288.12 310.039 289.16 310.039 290.6C310.039 292 309.119 293.08 307.319 293.08C305.379 293.08 304.559 292.14 304.559 290.6ZM326.962 299.92H331.962V285.06H327.122V286.36H327.082C326.182 285.32 324.802 284.76 322.582 284.76C319.342 284.76 316.362 286.54 316.362 290.6C316.362 294.66 319.342 296.44 322.582 296.44C324.622 296.44 326.062 295.94 326.922 294.9H326.962V299.92ZM326.962 290.6C326.962 292.14 326.142 293.08 324.202 293.08C322.402 293.08 321.482 292 321.482 290.6C321.482 289.16 322.282 288.12 324.222 288.12C326.142 288.12 326.962 289.04 326.962 290.6ZM334.364 296H339.364V291.9C339.364 289.54 341.264 288.96 343.044 288.96C343.924 288.96 344.664 289.14 345.544 289.36V284.88C345.004 284.8 344.444 284.76 343.904 284.76C342.184 284.76 340.544 285.46 339.244 287.16H339.204V285.06H334.364V296ZM355.142 292.16C355.662 292.22 355.822 292.52 355.822 292.84C355.822 293.34 355.442 293.68 354.162 293.68C353.602 293.68 353.102 293.64 352.742 293.48C352.402 293.32 352.182 293.04 352.122 292.6H346.242C346.402 295.36 348.662 296.44 353.862 296.44C359.142 296.44 361.582 295.36 361.582 292.54C361.582 290.68 360.562 289.48 357.862 289.24L353.102 288.82C352.022 288.72 351.762 288.42 351.762 288.14C351.762 287.72 352.042 287.38 353.542 287.38C354.282 287.38 354.742 287.5 355.022 287.66C355.302 287.82 355.402 288.06 355.402 288.34H361.042C360.942 285.24 357.202 284.62 353.802 284.62C348.922 284.62 346.522 285.72 346.522 288.3C346.522 290.2 347.362 291.36 350.262 291.66L355.142 292.16ZM362.25 288.18H364.57V292.68C364.57 295.66 365.73 296.24 368.77 296.24C370.33 296.24 371.53 296.12 372.41 296V293.08C371.93 293.1 371.47 293.12 371.07 293.12C369.99 293.12 369.57 293.06 369.57 292.04V288.18H372.27V285.06H369.57V281.54H364.57V285.06H362.25V288.18ZM388.253 285.06H383.253V290.22C383.253 291.86 382.493 292.84 380.933 292.84C379.753 292.84 379.013 292.24 379.013 290.86V285.06H374.013V292.16C374.013 295.2 376.093 296.44 378.853 296.44C381.253 296.44 382.853 295.48 383.372 294.78H383.413V296H388.253V285.06ZM394.193 296H399.913L404.973 285.06H399.333L397.073 291.6H397.033L394.773 285.06H389.133L394.193 296ZM408.368 296H414.188L416.308 290.28L418.428 296H424.248L427.968 285.06H422.628L420.648 291.52H420.608L418.428 285.06H414.188L411.808 291.52H411.768L409.988 285.06H404.648L408.368 296ZM434.129 296L436.289 292.9L438.449 296H444.809L439.689 290.28L444.389 285.06H438.269L436.289 288L434.309 285.06H428.189L432.809 290.28L427.769 296H434.129ZM445.869 299.74C446.789 299.82 448.149 299.92 449.269 299.92C451.949 299.92 452.569 299.34 453.349 297.78L459.489 285.06H454.249L451.829 290.68L449.409 285.06H444.169L449.249 295.12L448.969 295.72C448.569 296.52 448.149 296.56 447.109 296.56C446.529 296.56 446.269 296.54 445.869 296.5V299.74ZM459.543 296H472.623V292.52H466.583V292.48L472.443 287.94V285.06H459.903V288.42H465.723V288.46L459.543 293.24V296ZM70.76 317.1C70.76 321.72 73.82 324.36 79.62 324.36C85.46 324.36 88.52 321.72 88.52 317.1C88.58 312.4 85.52 309.76 79.68 309.76C73.88 309.76 70.82 312.4 70.76 317.1ZM76.16 317.1C76.16 315.24 77.18 313.36 79.62 313.36C82.12 313.36 83.12 315.24 83.12 317.1C83.18 318.88 82.18 320.76 79.68 320.76C77.24 320.76 76.22 318.88 76.16 317.1ZM94.8173 324H100.057V310.12H95.8373C95.1573 312.04 93.8773 312.58 91.4173 312.62H90.5773V316.1H94.8173V324ZM109.998 316.32C106.678 317.04 103.298 318.66 103.198 324H120.758V320.52H109.138C109.478 320 110.118 319.68 111.318 319.46L116.338 318.52C118.338 318.14 121.058 317.08 121.058 314.44C121.058 310.56 116.778 309.76 112.218 309.76C108.678 309.76 104.098 310.4 103.678 315.18H109.678C109.838 313.38 111.378 313.24 112.898 313.24C114.198 313.24 115.178 313.56 115.178 314.36C115.178 314.94 114.798 315.3 114.098 315.44L109.998 316.32ZM128.655 318.4H132.275C133.695 318.4 134.455 318.64 134.455 319.52C134.455 320.16 134.155 320.88 131.575 320.88C130.415 320.88 129.635 320.76 129.155 320.5C128.675 320.24 128.455 319.86 128.395 319.36H122.635C122.935 324.08 127.695 324.36 131.955 324.36C138.395 324.36 140.395 322.42 140.395 319.8C140.395 318.02 139.315 316.96 137.575 316.56V316.52C139.655 316.04 139.995 314.84 139.995 313.72C139.995 310.94 137.635 309.76 131.575 309.76C126.515 309.76 123.395 310.76 123.135 313.84H129.015C129.375 313.26 129.635 313.12 131.535 313.12C133.695 313.12 134.055 313.62 134.055 314.22C134.055 314.72 133.775 315.16 132.535 315.16H128.655V318.4ZM152.172 318.52H147.092L152.172 313.48V318.52ZM141.972 321.88H152.172V324H157.172V321.88H159.752V318.52H157.172V310.12H149.992L141.972 318.38V321.88ZM162.01 318.02H167.41C167.81 317.76 168.71 317.54 169.75 317.54C171.77 317.54 173.21 317.98 173.21 319.26C173.21 320.3 172.19 320.76 170.01 320.76C168.99 320.76 168.33 320.64 167.89 320.4C167.47 320.16 167.27 319.82 167.15 319.4H161.29C161.51 322.7 163.85 324.36 170.13 324.36C176.35 324.36 178.85 322.26 178.85 319.34C178.85 314.9 173.77 314.42 170.73 314.42C169.27 314.42 167.89 314.6 166.71 314.9L166.99 313.48H178.07V310.12H163.49L162.01 318.02ZM197.847 314.24C197.207 310.68 193.927 309.76 189.467 309.76C184.727 309.76 180.687 311.12 180.687 317.2C180.687 323.6 185.307 324.36 190.067 324.36C195.627 324.36 198.007 322.34 198.007 319.42C198.007 315.86 194.267 314.92 190.227 314.92C188.267 314.92 186.947 315.2 186.087 315.72C186.187 313.9 187.287 313.12 189.447 313.12C190.147 313.12 190.767 313.18 191.247 313.34C191.747 313.5 192.087 313.78 192.207 314.24H197.847ZM189.427 318.16C191.167 318.16 192.247 318.7 192.247 319.58C192.247 320.46 191.667 321 189.427 321C187.667 321 186.587 320.46 186.587 319.58C186.587 318.7 187.167 318.16 189.427 318.16ZM199.564 313.72H210.924V313.76C203.564 318.6 201.984 320.64 201.604 324H208.844C209.384 321.02 211.544 318.24 216.924 314.44V310.12H199.564V313.72ZM227.12 315.4C225.14 315.4 224.46 315.14 224.46 314.24C224.46 313.38 225.14 313.12 227.12 313.12C229.1 313.12 229.78 313.38 229.78 314.24C229.78 315.14 229.1 315.4 227.12 315.4ZM227.14 318.28C229.36 318.26 230.14 318.58 230.14 319.7C230.14 320.44 229.52 321 227.14 321C224.76 321 224.14 320.44 224.14 319.7C224.14 318.58 224.92 318.26 227.14 318.28ZM227.14 309.76C222.1 309.76 218.7 310.5 218.7 313.66C218.7 315.24 219.64 316.26 221.18 316.52V316.56C219.26 316.82 218.26 318.32 218.26 319.72C218.26 322.96 221.04 324.36 227.12 324.36C233.24 324.36 236.02 322.96 236.02 319.72C236.02 318.32 235.02 316.82 233.06 316.56V316.52C234.6 316.26 235.54 315.24 235.54 313.66C235.54 310.5 232.14 309.76 227.14 309.76ZM237.917 319.88C238.557 323.44 241.837 324.36 246.297 324.36C251.037 324.36 255.077 323 255.077 316.92C255.077 310.52 250.457 309.76 245.697 309.76C240.137 309.76 237.757 311.78 237.757 314.7C237.757 318.26 241.497 319.2 245.537 319.2C246.517 319.2 247.337 319.12 248.017 319C248.697 318.86 249.257 318.66 249.677 318.4C249.577 320.22 248.477 321 246.317 321C245.617 321 244.997 320.94 244.517 320.78C244.017 320.62 243.677 320.34 243.557 319.88H237.917ZM246.337 315.96C244.597 315.96 243.517 315.42 243.517 314.54C243.517 313.66 244.097 313.12 246.337 313.12C248.097 313.12 249.177 313.66 249.177 314.54C249.177 315.42 248.597 315.96 246.337 315.96Z" fill="#0031F9"/>
<path d="M118.016 443H121.4V434.432H118.016V437.42H114.212V434.432H110.828V443H114.212V439.58H118.016V443ZM123.051 443H132.159V440.912H126.435V439.76H131.751V437.672H126.435V436.52H132.159V434.432H123.051V443ZM132.009 443H136.185L137.769 440.792L139.353 443H143.529L139.677 438.524L143.025 434.432H139.053L137.769 436.304L136.485 434.432H132.513L135.861 438.524L132.009 443ZM113.984 453.412H113.06L113.216 452.26H114.14L113.984 453.412ZM111.044 457H112.556L112.856 454.852H113.78L113.48 457H114.992L115.292 454.852H116.432V453.412H115.496L115.652 452.26H116.78V450.82H115.856L116.156 448.672H114.644L114.344 450.82H113.42L113.72 448.672H112.208L111.908 450.82H110.768V452.26H111.704L111.548 453.412H110.42V454.852H111.344L111.044 457ZM117.651 452.86C117.651 455.632 119.487 457.216 122.967 457.216C126.471 457.216 128.307 455.632 128.307 452.86C128.343 450.04 126.507 448.456 123.003 448.456C119.523 448.456 117.687 450.04 117.651 452.86ZM120.891 452.86C120.891 451.744 121.503 450.616 122.967 450.616C124.467 450.616 125.067 451.744 125.067 452.86C125.103 453.928 124.503 455.056 123.003 455.056C121.539 455.056 120.927 453.928 120.891 452.86ZM129.218 452.86C129.218 455.632 131.054 457.216 134.534 457.216C138.038 457.216 139.874 455.632 139.874 452.86C139.91 450.04 138.074 448.456 134.57 448.456C131.09 448.456 129.254 450.04 129.218 452.86ZM132.458 452.86C132.458 451.744 133.07 450.616 134.534 450.616C136.034 450.616 136.634 451.744 136.634 452.86C136.67 453.928 136.07 455.056 134.57 455.056C133.106 455.056 132.494 453.928 132.458 452.86ZM144.396 453.64H146.568C147.42 453.64 147.876 453.784 147.876 454.312C147.876 454.696 147.696 455.128 146.148 455.128C145.452 455.128 144.984 455.056 144.696 454.9C144.408 454.744 144.276 454.516 144.24 454.216H140.784C140.964 457.048 143.82 457.216 146.376 457.216C150.24 457.216 151.44 456.052 151.44 454.48C151.44 453.412 150.792 452.776 149.748 452.536V452.512C150.996 452.224 151.2 451.504 151.2 450.832C151.2 449.164 149.784 448.456 146.148 448.456C143.112 448.456 141.24 449.056 141.084 450.904H144.612C144.828 450.556 144.984 450.472 146.124 450.472C147.42 450.472 147.636 450.772 147.636 451.132C147.636 451.432 147.468 451.696 146.724 451.696H144.396V453.64ZM155.219 457H158.363V448.672H155.831C155.423 449.824 154.655 450.148 153.179 450.172H152.675V452.26H155.219V457ZM161.387 457H164.387V452.308H166.007V450.436H164.387V450.244C164.387 449.884 164.555 449.716 165.107 449.716H166.007V448.132C165.383 448.072 164.615 448.06 164.039 448.06C162.095 448.06 161.387 448.54 161.387 449.74V450.436H159.995V452.308H161.387V457ZM166.793 454.528C167.177 456.664 169.145 457.216 171.821 457.216C174.665 457.216 177.089 456.4 177.089 452.752C177.089 448.912 174.317 448.456 171.461 448.456C168.125 448.456 166.697 449.668 166.697 451.42C166.697 453.556 168.941 454.12 171.365 454.12C171.953 454.12 172.445 454.072 172.853 454C173.261 453.916 173.597 453.796 173.849 453.64C173.789 454.732 173.129 455.2 171.833 455.2C171.413 455.2 171.041 455.164 170.753 455.068C170.453 454.972 170.249 454.804 170.177 454.528H166.793ZM171.845 452.176C170.801 452.176 170.153 451.852 170.153 451.324C170.153 450.796 170.501 450.472 171.845 450.472C172.901 450.472 173.549 450.796 173.549 451.324C173.549 451.852 173.201 452.176 171.845 452.176Z" fill="#FFD93B"/>
<path d="M89.828 505H93.212V502.36H95.612C96.236 502.36 96.452 502.744 96.488 503.38C96.548 504.376 96.548 504.748 96.668 505H100.364C100.148 504.736 99.98 504.376 99.944 503.992L99.8 502.12C99.74 501.376 99.332 500.944 98.828 500.8V500.776C99.812 500.488 100.148 499.624 100.148 498.82C100.148 497.884 99.62 497.056 98.984 496.744C98.516 496.516 97.928 496.432 96.956 496.432H89.828V505ZM93.212 498.592H95.564C96.128 498.592 96.548 498.748 96.548 499.396C96.548 499.936 96.272 500.2 95.612 500.2H93.212V498.592ZM107.467 502.06H108.859C108.619 502.708 108.067 503.14 106.963 503.14C105.283 503.14 104.443 502.3 104.443 500.716C104.443 498.976 105.319 498.292 106.699 498.292C107.143 498.292 107.527 498.34 107.851 498.496C108.163 498.652 108.415 498.928 108.511 499.372H112.327C112.063 497.164 110.275 496.132 106.507 496.132C103.915 496.132 100.915 496.996 100.915 500.752C100.915 504.712 104.143 505.3 106.519 505.3C108.463 505.3 109.567 505 110.443 504.22L110.827 505H112.279V500.116H107.467V502.06ZM117.14 498.52H119.696C120.38 498.52 120.536 498.748 120.536 499.06C120.536 499.396 120.38 499.624 119.696 499.624H117.14V498.52ZM117.14 501.568H120.032C120.704 501.568 120.908 501.868 120.908 502.24C120.908 502.624 120.704 502.912 120.032 502.912H117.14V501.568ZM113.828 505H121.16C123.668 505 124.508 503.896 124.508 502.216C124.508 501.58 124.148 500.548 123.044 500.26V500.236C123.692 499.984 124.064 499.324 124.064 498.568C124.064 497.2 123.284 496.432 121.532 496.432H113.828V505ZM89.456 514.86C89.456 517.632 91.292 519.216 94.772 519.216C98.276 519.216 100.112 517.632 100.112 514.86C100.148 512.04 98.312 510.456 94.808 510.456C91.328 510.456 89.492 512.04 89.456 514.86ZM92.696 514.86C92.696 513.744 93.308 512.616 94.772 512.616C96.272 512.616 96.872 513.744 96.872 514.86C96.908 515.928 96.308 517.056 94.808 517.056C93.344 517.056 92.732 515.928 92.696 514.86ZM112.077 515.712H109.029L112.077 512.688V515.712ZM105.957 517.728H112.077V519H115.077V517.728H116.625V515.712H115.077V510.672H110.769L105.957 515.628V517.728ZM117.715 516.528C118.099 518.664 120.067 519.216 122.743 519.216C125.587 519.216 128.011 518.4 128.011 514.752C128.011 510.912 125.239 510.456 122.383 510.456C119.047 510.456 117.619 511.668 117.619 513.42C117.619 515.556 119.863 516.12 122.287 516.12C122.875 516.12 123.367 516.072 123.775 516C124.183 515.916 124.519 515.796 124.771 515.64C124.711 516.732 124.051 517.2 122.755 517.2C122.335 517.2 121.963 517.164 121.675 517.068C121.375 516.972 121.171 516.804 121.099 516.528H117.715ZM122.767 514.176C121.723 514.176 121.075 513.852 121.075 513.324C121.075 512.796 121.423 512.472 122.767 512.472C123.823 512.472 124.471 512.796 124.471 513.324C124.471 513.852 124.123 514.176 122.767 514.176ZM137.936 514.392C135.944 514.824 133.916 515.796 133.856 519H144.392V516.912H137.42C137.624 516.6 138.008 516.408 138.728 516.276L141.74 515.712C142.94 515.484 144.572 514.848 144.572 513.264C144.572 510.936 142.004 510.456 139.268 510.456C137.144 510.456 134.396 510.84 134.144 513.708H137.744C137.84 512.628 138.764 512.544 139.676 512.544C140.456 512.544 141.044 512.736 141.044 513.216C141.044 513.564 140.816 513.78 140.396 513.864L137.936 514.392ZM151.674 515.712H148.627L151.674 512.688V515.712ZM145.555 517.728H151.674V519H154.675V517.728H156.223V515.712H154.675V510.672H150.367L145.555 515.628V517.728ZM157.313 516.528C157.697 518.664 159.665 519.216 162.341 519.216C165.185 519.216 167.609 518.4 167.609 514.752C167.609 510.912 164.837 510.456 161.981 510.456C158.645 510.456 157.217 511.668 157.217 513.42C157.217 515.556 159.461 516.12 161.885 516.12C162.473 516.12 162.965 516.072 163.373 516C163.781 515.916 164.117 515.796 164.369 515.64C164.309 516.732 163.649 517.2 162.353 517.2C161.933 517.2 161.561 517.164 161.273 517.068C160.973 516.972 160.769 516.804 160.697 516.528H157.313ZM162.365 514.176C161.321 514.176 160.673 513.852 160.673 513.324C160.673 512.796 161.021 512.472 162.365 512.472C163.421 512.472 164.069 512.796 164.069 513.324C164.069 513.852 163.721 514.176 162.365 514.176Z" fill="#FFD93B"/>
<path d="M118.04 515.664C117.764 516.696 117.128 517.14 116.06 517.14C114.824 517.14 113.972 516.456 113.972 514.716C113.972 512.976 114.848 512.292 116.228 512.292C117.536 512.292 117.944 513.18 118.04 513.792H121.856C121.412 510.396 118.268 510.132 116.228 510.132C114.176 510.132 110.372 510.276 110.372 514.716C110.372 519.156 114.176 519.3 116.228 519.3C118.292 519.3 119.588 518.952 120.416 518.328C121.256 517.704 121.64 516.792 121.856 515.664H118.04ZM123.051 519H126.123V512.88H126.147L127.947 519H130.515L132.315 512.88H132.339V519H135.411V510.432H130.647L129.243 515.412H129.219L127.815 510.432H123.051V519ZM139.538 519H142.922V516.588L146.726 510.432H142.862L141.23 513.792L139.598 510.432H135.734L139.538 516.588V519ZM153.891 519H158.391L154.239 513.744L158.067 510.432H153.579L150.435 513.456V510.432H147.051V519H150.435V516.696L151.551 515.712L153.891 519ZM115.772 527.84C114.584 527.84 114.176 527.684 114.176 527.144C114.176 526.628 114.584 526.472 115.772 526.472C116.96 526.472 117.368 526.628 117.368 527.144C117.368 527.684 116.96 527.84 115.772 527.84ZM115.784 529.568C117.116 529.556 117.584 529.748 117.584 530.42C117.584 530.864 117.212 531.2 115.784 531.2C114.356 531.2 113.984 530.864 113.984 530.42C113.984 529.748 114.452 529.556 115.784 529.568ZM115.784 524.456C112.76 524.456 110.72 524.9 110.72 526.796C110.72 527.744 111.284 528.356 112.208 528.512V528.536C111.056 528.692 110.456 529.592 110.456 530.432C110.456 532.376 112.124 533.216 115.772 533.216C119.444 533.216 121.112 532.376 121.112 530.432C121.112 529.592 120.512 528.692 119.336 528.536V528.512C120.26 528.356 120.824 527.744 120.824 526.796C120.824 524.9 118.784 524.456 115.784 524.456ZM132.45 527.144C132.066 525.008 130.098 524.456 127.422 524.456C124.578 524.456 122.154 525.272 122.154 528.92C122.154 532.76 124.926 533.216 127.782 533.216C131.118 533.216 132.546 532.004 132.546 530.252C132.546 528.116 130.302 527.552 127.878 527.552C126.702 527.552 125.91 527.72 125.394 528.032C125.454 526.94 126.114 526.472 127.41 526.472C127.83 526.472 128.202 526.508 128.49 526.604C128.79 526.7 128.994 526.868 129.066 527.144H132.45ZM127.398 529.496C128.442 529.496 129.09 529.82 129.09 530.348C129.09 530.876 128.742 531.2 127.398 531.2C126.342 531.2 125.694 530.876 125.694 530.348C125.694 529.82 126.042 529.496 127.398 529.496ZM138.379 526.832H145.195V526.856C140.779 529.76 139.831 530.984 139.603 533H143.947C144.271 531.212 145.567 529.544 148.795 527.264V524.672H138.379V526.832ZM150.089 529.412H153.329C153.569 529.256 154.109 529.124 154.733 529.124C155.945 529.124 156.809 529.388 156.809 530.156C156.809 530.78 156.197 531.056 154.889 531.056C154.277 531.056 153.881 530.984 153.617 530.84C153.365 530.696 153.245 530.492 153.173 530.24H149.657C149.789 532.22 151.193 533.216 154.961 533.216C158.693 533.216 160.193 531.956 160.193 530.204C160.193 527.54 157.145 527.252 155.321 527.252C154.445 527.252 153.617 527.36 152.909 527.54L153.077 526.688H159.725V524.672H150.977L150.089 529.412ZM166.061 528.86C166.061 531.632 167.897 533.216 171.377 533.216C174.881 533.216 176.717 531.632 176.717 528.86C176.753 526.04 174.917 524.456 171.413 524.456C167.933 524.456 166.097 526.04 166.061 528.86ZM169.301 528.86C169.301 527.744 169.913 526.616 171.377 526.616C172.877 526.616 173.477 527.744 173.477 528.86C173.513 529.928 172.913 531.056 171.413 531.056C169.949 531.056 169.337 529.928 169.301 528.86ZM182.526 528.86C182.526 531.632 184.362 533.216 187.842 533.216C191.346 533.216 193.182 531.632 193.182 528.86C193.218 526.04 191.382 524.456 187.878 524.456C184.398 524.456 182.562 526.04 182.526 528.86ZM185.766 528.86C185.766 527.744 186.378 526.616 187.842 526.616C189.342 526.616 189.942 527.744 189.942 528.86C189.978 529.928 189.378 531.056 187.878 531.056C186.414 531.056 185.802 529.928 185.766 528.86Z" fill="#FFD93B"/>
<path d="M263.828 481H267.212V478.36H269.612C270.236 478.36 270.452 478.744 270.488 479.38C270.548 480.376 270.548 480.748 270.668 481H274.364C274.148 480.736 273.98 480.376 273.944 479.992L273.8 478.12C273.74 477.376 273.332 476.944 272.828 476.8V476.776C273.812 476.488 274.148 475.624 274.148 474.82C274.148 473.884 273.62 473.056 272.984 472.744C272.516 472.516 271.928 472.432 270.956 472.432H263.828V481ZM267.212 474.592H269.564C270.128 474.592 270.548 474.748 270.548 475.396C270.548 475.936 270.272 476.2 269.612 476.2H267.212V474.592ZM281.467 478.06H282.859C282.619 478.708 282.067 479.14 280.963 479.14C279.283 479.14 278.443 478.3 278.443 476.716C278.443 474.976 279.319 474.292 280.699 474.292C281.143 474.292 281.527 474.34 281.851 474.496C282.163 474.652 282.415 474.928 282.511 475.372H286.327C286.063 473.164 284.275 472.132 280.507 472.132C277.915 472.132 274.915 472.996 274.915 476.752C274.915 480.712 278.143 481.3 280.519 481.3C282.463 481.3 283.567 481 284.443 480.22L284.827 481H286.279V476.116H281.467V478.06ZM291.14 474.52H293.696C294.38 474.52 294.536 474.748 294.536 475.06C294.536 475.396 294.38 475.624 293.696 475.624H291.14V474.52ZM291.14 477.568H294.032C294.704 477.568 294.908 477.868 294.908 478.24C294.908 478.624 294.704 478.912 294.032 478.912H291.14V477.568ZM287.828 481H295.16C297.668 481 298.508 479.896 298.508 478.216C298.508 477.58 298.148 476.548 297.044 476.26V476.236C297.692 475.984 298.064 475.324 298.064 474.568C298.064 473.2 297.284 472.432 295.532 472.432H287.828V481ZM267.44 490.392C265.448 490.824 263.42 491.796 263.36 495H273.896V492.912H266.924C267.128 492.6 267.512 492.408 268.232 492.276L271.244 491.712C272.444 491.484 274.076 490.848 274.076 489.264C274.076 486.936 271.508 486.456 268.772 486.456C266.648 486.456 263.9 486.84 263.648 489.708H267.248C267.344 488.628 268.268 488.544 269.18 488.544C269.96 488.544 270.548 488.736 270.548 489.216C270.548 489.564 270.32 489.78 269.9 489.864L267.44 490.392ZM275.514 491.412H278.754C278.994 491.256 279.534 491.124 280.158 491.124C281.37 491.124 282.234 491.388 282.234 492.156C282.234 492.78 281.622 493.056 280.314 493.056C279.702 493.056 279.306 492.984 279.042 492.84C278.79 492.696 278.67 492.492 278.598 492.24H275.082C275.214 494.22 276.618 495.216 280.386 495.216C284.118 495.216 285.618 493.956 285.618 492.204C285.618 489.54 282.57 489.252 280.746 489.252C279.87 489.252 279.042 489.36 278.334 489.54L278.502 488.688H285.15V486.672H276.402L275.514 491.412ZM287.081 491.412H290.321C290.561 491.256 291.101 491.124 291.725 491.124C292.937 491.124 293.801 491.388 293.801 492.156C293.801 492.78 293.189 493.056 291.881 493.056C291.269 493.056 290.873 492.984 290.609 492.84C290.357 492.696 290.237 492.492 290.165 492.24H286.649C286.781 494.22 288.185 495.216 291.953 495.216C295.685 495.216 297.185 493.956 297.185 492.204C297.185 489.54 294.137 489.252 292.313 489.252C291.437 489.252 290.609 489.36 289.901 489.54L290.069 488.688H296.717V486.672H287.969L287.081 491.412ZM307.038 490.392C305.046 490.824 303.018 491.796 302.958 495H313.494V492.912H306.522C306.726 492.6 307.11 492.408 307.83 492.276L310.842 491.712C312.042 491.484 313.674 490.848 313.674 489.264C313.674 486.936 311.106 486.456 308.37 486.456C306.246 486.456 303.498 486.84 303.246 489.708H306.846C306.942 488.628 307.866 488.544 308.778 488.544C309.558 488.544 310.146 488.736 310.146 489.216C310.146 489.564 309.918 489.78 309.498 489.864L307.038 490.392ZM317.488 495H320.632V486.672H318.1C317.692 487.824 316.924 488.148 315.448 488.172H314.944V490.26H317.488V495ZM322.504 488.832H329.32V488.856C324.904 491.76 323.956 492.984 323.728 495H328.072C328.396 493.212 329.692 491.544 332.92 489.264V486.672H322.504V488.832ZM339.112 491.412H342.352C342.592 491.256 343.132 491.124 343.756 491.124C344.968 491.124 345.832 491.388 345.832 492.156C345.832 492.78 345.22 493.056 343.912 493.056C343.3 493.056 342.904 492.984 342.64 492.84C342.388 492.696 342.268 492.492 342.196 492.24H338.68C338.812 494.22 340.216 495.216 343.984 495.216C347.716 495.216 349.216 493.956 349.216 492.204C349.216 489.54 346.168 489.252 344.344 489.252C343.468 489.252 342.64 489.36 341.932 489.54L342.1 488.688H348.748V486.672H340L339.112 491.412ZM350.414 492.528C350.798 494.664 352.766 495.216 355.442 495.216C358.286 495.216 360.71 494.4 360.71 490.752C360.71 486.912 357.938 486.456 355.082 486.456C351.746 486.456 350.318 487.668 350.318 489.42C350.318 491.556 352.562 492.12 354.986 492.12C355.574 492.12 356.066 492.072 356.474 492C356.882 491.916 357.218 491.796 357.47 491.64C357.41 492.732 356.75 493.2 355.454 493.2C355.034 493.2 354.662 493.164 354.374 493.068C354.074 492.972 353.87 492.804 353.798 492.528H350.414ZM355.466 490.176C354.422 490.176 353.774 489.852 353.774 489.324C353.774 488.796 354.122 488.472 355.466 488.472C356.522 488.472 357.17 488.796 357.17 489.324C357.17 489.852 356.822 490.176 355.466 490.176Z" fill="#0031F9"/>
<path d="M271.04 515.664C270.764 516.696 270.128 517.14 269.06 517.14C267.824 517.14 266.972 516.456 266.972 514.716C266.972 512.976 267.848 512.292 269.228 512.292C270.536 512.292 270.944 513.18 271.04 513.792H274.856C274.412 510.396 271.268 510.132 269.228 510.132C267.176 510.132 263.372 510.276 263.372 514.716C263.372 519.156 267.176 519.3 269.228 519.3C271.292 519.3 272.588 518.952 273.416 518.328C274.256 517.704 274.64 516.792 274.856 515.664H271.04ZM276.051 519H279.123V512.88H279.147L280.947 519H283.515L285.315 512.88H285.339V519H288.411V510.432H283.647L282.243 515.412H282.219L280.815 510.432H276.051V519ZM292.538 519H295.922V516.588L299.726 510.432H295.862L294.23 513.792L292.598 510.432H288.734L292.538 516.588V519ZM306.891 519H311.391L307.239 513.744L311.067 510.432H306.579L303.435 513.456V510.432H300.051V519H303.435V516.696L304.551 515.712L306.891 519ZM266.324 533H269.468V524.672H266.936C266.528 525.824 265.76 526.148 264.284 526.172H263.78V528.26H266.324V533ZM279.215 533H282.359V524.672H279.827C279.419 525.824 278.651 526.148 277.175 526.172H276.671V528.26H279.215V533ZM288.323 528.392C286.331 528.824 284.303 529.796 284.243 533H294.779V530.912H287.807C288.011 530.6 288.395 530.408 289.115 530.276L292.127 529.712C293.327 529.484 294.959 528.848 294.959 527.264C294.959 524.936 292.391 524.456 289.655 524.456C287.531 524.456 284.783 524.84 284.531 527.708H288.131C288.227 526.628 289.151 526.544 290.063 526.544C290.843 526.544 291.431 526.736 291.431 527.216C291.431 527.564 291.203 527.78 290.783 527.864L288.323 528.392ZM306.12 527.84C304.932 527.84 304.524 527.684 304.524 527.144C304.524 526.628 304.932 526.472 306.12 526.472C307.308 526.472 307.716 526.628 307.716 527.144C307.716 527.684 307.308 527.84 306.12 527.84ZM306.132 529.568C307.464 529.556 307.932 529.748 307.932 530.42C307.932 530.864 307.56 531.2 306.132 531.2C304.704 531.2 304.332 530.864 304.332 530.42C304.332 529.748 304.8 529.556 306.132 529.568ZM306.132 524.456C303.108 524.456 301.068 524.9 301.068 526.796C301.068 527.744 301.632 528.356 302.556 528.512V528.536C301.404 528.692 300.804 529.592 300.804 530.432C300.804 532.376 302.472 533.216 306.12 533.216C309.792 533.216 311.46 532.376 311.46 530.432C311.46 529.592 310.86 528.692 309.684 528.536V528.512C310.608 528.356 311.172 527.744 311.172 526.796C311.172 524.9 309.132 524.456 306.132 524.456ZM312.262 526.832H319.078V526.856C314.662 529.76 313.714 530.984 313.486 533H317.83C318.154 531.212 319.45 529.544 322.678 527.264V524.672H312.262V526.832ZM328.378 528.86C328.378 531.632 330.214 533.216 333.694 533.216C337.198 533.216 339.034 531.632 339.034 528.86C339.07 526.04 337.234 524.456 333.73 524.456C330.25 524.456 328.414 526.04 328.378 528.86ZM331.618 528.86C331.618 527.744 332.23 526.616 333.694 526.616C335.194 526.616 335.794 527.744 335.794 528.86C335.83 529.928 335.23 531.056 333.73 531.056C332.266 531.056 331.654 529.928 331.618 528.86Z" fill="#0031F9"/>
<path d="M424.04 515.664C423.764 516.696 423.128 517.14 422.06 517.14C420.824 517.14 419.972 516.456 419.972 514.716C419.972 512.976 420.848 512.292 422.228 512.292C423.536 512.292 423.944 513.18 424.04 513.792H427.856C427.412 510.396 424.268 510.132 422.228 510.132C420.176 510.132 416.372 510.276 416.372 514.716C416.372 519.156 420.176 519.3 422.228 519.3C424.292 519.3 425.588 518.952 426.416 518.328C427.256 517.704 427.64 516.792 427.856 515.664H424.04ZM429.051 519H432.123V512.88H432.147L433.947 519H436.515L438.315 512.88H438.339V519H441.411V510.432H436.647L435.243 515.412H435.219L433.815 510.432H429.051V519ZM445.538 519H448.922V516.588L452.726 510.432H448.862L447.23 513.792L445.598 510.432H441.734L445.538 516.588V519ZM459.891 519H464.391L460.239 513.744L464.067 510.432H459.579L456.435 513.456V510.432H453.051V519H456.435V516.696L457.551 515.712L459.891 519ZM416.456 528.86C416.456 531.632 418.292 533.216 421.772 533.216C425.276 533.216 427.112 531.632 427.112 528.86C427.148 526.04 425.312 524.456 421.808 524.456C418.328 524.456 416.492 526.04 416.456 528.86ZM419.696 528.86C419.696 527.744 420.308 526.616 421.772 526.616C423.272 526.616 423.872 527.744 423.872 528.86C423.908 529.928 423.308 531.056 421.808 531.056C420.344 531.056 419.732 529.928 419.696 528.86ZM432.921 528.86C432.921 531.632 434.757 533.216 438.237 533.216C441.741 533.216 443.577 531.632 443.577 528.86C443.613 526.04 441.777 524.456 438.273 524.456C434.793 524.456 432.957 526.04 432.921 528.86ZM436.161 528.86C436.161 527.744 436.773 526.616 438.237 526.616C439.737 526.616 440.337 527.744 440.337 528.86C440.373 529.928 439.773 531.056 438.273 531.056C436.809 531.056 436.197 529.928 436.161 528.86ZM449.386 528.86C449.386 531.632 451.222 533.216 454.702 533.216C458.206 533.216 460.042 531.632 460.042 528.86C460.078 526.04 458.242 524.456 454.738 524.456C451.258 524.456 449.422 526.04 449.386 528.86ZM452.626 528.86C452.626 527.744 453.238 526.616 454.702 526.616C456.202 526.616 456.802 527.744 456.802 528.86C456.838 529.928 456.238 531.056 454.738 531.056C453.274 531.056 452.662 529.928 452.626 528.86ZM465.851 528.86C465.851 531.632 467.687 533.216 471.167 533.216C474.671 533.216 476.507 531.632 476.507 528.86C476.543 526.04 474.707 524.456 471.203 524.456C467.723 524.456 465.887 526.04 465.851 528.86ZM469.091 528.86C469.091 527.744 469.703 526.616 471.167 526.616C472.667 526.616 473.267 527.744 473.267 528.86C473.303 529.928 472.703 531.056 471.203 531.056C469.739 531.056 469.127 529.928 469.091 528.86Z" fill="#0031F9"/>
<path d="M416.828 481H420.212V478.36H422.612C423.236 478.36 423.452 478.744 423.488 479.38C423.548 480.376 423.548 480.748 423.668 481H427.364C427.148 480.736 426.98 480.376 426.944 479.992L426.8 478.12C426.74 477.376 426.332 476.944 425.828 476.8V476.776C426.812 476.488 427.148 475.624 427.148 474.82C427.148 473.884 426.62 473.056 425.984 472.744C425.516 472.516 424.928 472.432 423.956 472.432H416.828V481ZM420.212 474.592H422.564C423.128 474.592 423.548 474.748 423.548 475.396C423.548 475.936 423.272 476.2 422.612 476.2H420.212V474.592ZM434.467 478.06H435.859C435.619 478.708 435.067 479.14 433.963 479.14C432.283 479.14 431.443 478.3 431.443 476.716C431.443 474.976 432.319 474.292 433.699 474.292C434.143 474.292 434.527 474.34 434.851 474.496C435.163 474.652 435.415 474.928 435.511 475.372H439.327C439.063 473.164 437.275 472.132 433.507 472.132C430.915 472.132 427.915 472.996 427.915 476.752C427.915 480.712 431.143 481.3 433.519 481.3C435.463 481.3 436.567 481 437.443 480.22L437.827 481H439.279V476.116H434.467V478.06ZM444.14 474.52H446.696C447.38 474.52 447.536 474.748 447.536 475.06C447.536 475.396 447.38 475.624 446.696 475.624H444.14V474.52ZM444.14 477.568H447.032C447.704 477.568 447.908 477.868 447.908 478.24C447.908 478.624 447.704 478.912 447.032 478.912H444.14V477.568ZM440.828 481H448.16C450.668 481 451.508 479.896 451.508 478.216C451.508 477.58 451.148 476.548 450.044 476.26V476.236C450.692 475.984 451.064 475.324 451.064 474.568C451.064 473.2 450.284 472.432 448.532 472.432H440.828V481ZM420.44 490.392C418.448 490.824 416.42 491.796 416.36 495H426.896V492.912H419.924C420.128 492.6 420.512 492.408 421.232 492.276L424.244 491.712C425.444 491.484 427.076 490.848 427.076 489.264C427.076 486.936 424.508 486.456 421.772 486.456C419.648 486.456 416.9 486.84 416.648 489.708H420.248C420.344 488.628 421.268 488.544 422.18 488.544C422.96 488.544 423.548 488.736 423.548 489.216C423.548 489.564 423.32 489.78 422.9 489.864L420.44 490.392ZM428.514 491.412H431.754C431.994 491.256 432.534 491.124 433.158 491.124C434.37 491.124 435.234 491.388 435.234 492.156C435.234 492.78 434.622 493.056 433.314 493.056C432.702 493.056 432.306 492.984 432.042 492.84C431.79 492.696 431.67 492.492 431.598 492.24H428.082C428.214 494.22 429.618 495.216 433.386 495.216C437.118 495.216 438.618 493.956 438.618 492.204C438.618 489.54 435.57 489.252 433.746 489.252C432.87 489.252 432.042 489.36 431.334 489.54L431.502 488.688H438.15V486.672H429.402L428.514 491.412ZM440.081 491.412H443.321C443.561 491.256 444.101 491.124 444.725 491.124C445.937 491.124 446.801 491.388 446.801 492.156C446.801 492.78 446.189 493.056 444.881 493.056C444.269 493.056 443.873 492.984 443.609 492.84C443.357 492.696 443.237 492.492 443.165 492.24H439.649C439.781 494.22 441.185 495.216 444.953 495.216C448.685 495.216 450.185 493.956 450.185 492.204C450.185 489.54 447.137 489.252 445.313 489.252C444.437 489.252 443.609 489.36 442.901 489.54L443.069 488.688H449.717V486.672H440.969L440.081 491.412ZM460.038 490.392C458.046 490.824 456.018 491.796 455.958 495H466.494V492.912H459.522C459.726 492.6 460.11 492.408 460.83 492.276L463.842 491.712C465.042 491.484 466.674 490.848 466.674 489.264C466.674 486.936 464.106 486.456 461.37 486.456C459.246 486.456 456.498 486.84 456.246 489.708H459.846C459.942 488.628 460.866 488.544 461.778 488.544C462.558 488.544 463.146 488.736 463.146 489.216C463.146 489.564 462.918 489.78 462.498 489.864L460.038 490.392ZM468.112 491.412H471.352C471.592 491.256 472.132 491.124 472.756 491.124C473.968 491.124 474.832 491.388 474.832 492.156C474.832 492.78 474.22 493.056 472.912 493.056C472.3 493.056 471.904 492.984 471.64 492.84C471.388 492.696 471.268 492.492 471.196 492.24H467.68C467.812 494.22 469.216 495.216 472.984 495.216C476.716 495.216 478.216 493.956 478.216 492.204C478.216 489.54 475.168 489.252 473.344 489.252C472.468 489.252 471.64 489.36 470.932 489.54L471.1 488.688H477.748V486.672H469L468.112 491.412ZM479.678 491.412H482.918C483.158 491.256 483.698 491.124 484.322 491.124C485.534 491.124 486.398 491.388 486.398 492.156C486.398 492.78 485.786 493.056 484.478 493.056C483.866 493.056 483.47 492.984 483.206 492.84C482.954 492.696 482.834 492.492 482.762 492.24H479.246C479.378 494.22 480.782 495.216 484.55 495.216C488.282 495.216 489.782 493.956 489.782 492.204C489.782 489.54 486.734 489.252 484.91 489.252C484.034 489.252 483.206 489.36 482.498 489.54L482.666 488.688H489.314V486.672H480.566L479.678 491.412ZM499.635 490.392C497.643 490.824 495.615 491.796 495.555 495H506.091V492.912H499.119C499.323 492.6 499.707 492.408 500.427 492.276L503.439 491.712C504.639 491.484 506.271 490.848 506.271 489.264C506.271 486.936 503.703 486.456 500.967 486.456C498.843 486.456 496.095 486.84 495.843 489.708H499.443C499.539 488.628 500.463 488.544 501.375 488.544C502.155 488.544 502.743 488.736 502.743 489.216C502.743 489.564 502.515 489.78 502.095 489.864L499.635 490.392ZM507.71 491.412H510.95C511.19 491.256 511.73 491.124 512.354 491.124C513.566 491.124 514.43 491.388 514.43 492.156C514.43 492.78 513.818 493.056 512.51 493.056C511.898 493.056 511.502 492.984 511.238 492.84C510.986 492.696 510.866 492.492 510.794 492.24H507.278C507.41 494.22 508.814 495.216 512.582 495.216C516.314 495.216 517.814 493.956 517.814 492.204C517.814 489.54 514.766 489.252 512.942 489.252C512.066 489.252 511.238 489.36 510.53 489.54L510.698 488.688H517.346V486.672H508.598L507.71 491.412ZM519.276 491.412H522.516C522.756 491.256 523.296 491.124 523.92 491.124C525.132 491.124 525.996 491.388 525.996 492.156C525.996 492.78 525.384 493.056 524.076 493.056C523.464 493.056 523.068 492.984 522.804 492.84C522.552 492.696 522.432 492.492 522.36 492.24H518.844C518.976 494.22 520.38 495.216 524.148 495.216C527.88 495.216 529.38 493.956 529.38 492.204C529.38 489.54 526.332 489.252 524.508 489.252C523.632 489.252 522.804 489.36 522.096 489.54L522.264 488.688H528.912V486.672H520.164L519.276 491.412Z" fill="#0031F9"/>
<path d="M271.016 443H274.4V434.432H271.016V437.42H267.212V434.432H263.828V443H267.212V439.58H271.016V443ZM276.051 443H285.159V440.912H279.435V439.76H284.751V437.672H279.435V436.52H285.159V434.432H276.051V443ZM285.009 443H289.185L290.769 440.792L292.353 443H296.529L292.677 438.524L296.025 434.432H292.053L290.769 436.304L289.485 434.432H285.513L288.861 438.524L285.009 443ZM266.984 453.412H266.06L266.216 452.26H267.14L266.984 453.412ZM264.044 457H265.556L265.856 454.852H266.78L266.48 457H267.992L268.292 454.852H269.432V453.412H268.496L268.652 452.26H269.78V450.82H268.856L269.156 448.672H267.644L267.344 450.82H266.42L266.72 448.672H265.208L264.908 450.82H263.768V452.26H264.704L264.548 453.412H263.42V454.852H264.344L264.044 457ZM271.695 457H274.695V452.308H276.315V450.436H274.695V450.244C274.695 449.884 274.863 449.716 275.415 449.716H276.315V448.132C275.691 448.072 274.923 448.06 274.347 448.06C272.403 448.06 271.695 448.54 271.695 449.74V450.436H270.303V452.308H271.695V457ZM277.918 457H280.918V452.308H282.538V450.436H280.918V450.244C280.918 449.884 281.086 449.716 281.638 449.716H282.538V448.132C281.914 448.072 281.146 448.06 280.57 448.06C278.626 448.06 277.918 448.54 277.918 449.74V450.436H276.526V452.308H277.918V457ZM289.457 457H292.361V448.132H289.361V451.18H289.337C288.821 450.556 287.957 450.256 286.733 450.256C284.789 450.256 283.001 451.324 283.001 453.76C283.001 456.196 284.789 457.264 286.733 457.264C288.065 457.264 288.893 456.928 289.433 456.304H289.457V457ZM289.361 453.76C289.361 454.696 288.869 455.248 287.717 455.248C286.553 455.248 286.073 454.624 286.073 453.76C286.073 452.92 286.625 452.272 287.705 452.272C288.869 452.272 289.361 452.836 289.361 453.76ZM293.766 454.528C294.15 456.664 296.118 457.216 298.794 457.216C301.638 457.216 304.062 456.4 304.062 452.752C304.062 448.912 301.29 448.456 298.434 448.456C295.098 448.456 293.67 449.668 293.67 451.42C293.67 453.556 295.914 454.12 298.338 454.12C298.926 454.12 299.418 454.072 299.826 454C300.234 453.916 300.57 453.796 300.822 453.64C300.762 454.732 300.102 455.2 298.806 455.2C298.386 455.2 298.014 455.164 297.726 455.068C297.426 454.972 297.222 454.804 297.15 454.528H293.766ZM298.818 452.176C297.774 452.176 297.126 451.852 297.126 451.324C297.126 450.796 297.474 450.472 298.818 450.472C299.874 450.472 300.522 450.796 300.522 451.324C300.522 451.852 300.174 452.176 298.818 452.176ZM308.716 453.64H310.888C311.74 453.64 312.196 453.784 312.196 454.312C312.196 454.696 312.016 455.128 310.468 455.128C309.772 455.128 309.304 455.056 309.016 454.9C308.728 454.744 308.596 454.516 308.56 454.216H305.104C305.284 457.048 308.14 457.216 310.696 457.216C314.56 457.216 315.76 456.052 315.76 454.48C315.76 453.412 315.112 452.776 314.068 452.536V452.512C315.316 452.224 315.52 451.504 315.52 450.832C315.52 449.164 314.104 448.456 310.468 448.456C307.432 448.456 305.56 449.056 305.404 450.904H308.932C309.148 450.556 309.304 450.472 310.444 450.472C311.74 450.472 311.956 450.772 311.956 451.132C311.956 451.432 311.788 451.696 311.044 451.696H308.716V453.64ZM316.935 457H319.839V456.304H319.863C320.403 456.928 321.231 457.264 322.563 457.264C324.507 457.264 326.295 456.196 326.295 453.76C326.295 451.324 324.507 450.256 322.563 450.256C321.339 450.256 320.475 450.556 319.959 451.18H319.935V448.132H316.935V457ZM319.935 453.76C319.935 452.836 320.427 452.272 321.591 452.272C322.671 452.272 323.223 452.92 323.223 453.76C323.223 454.624 322.743 455.248 321.579 455.248C320.427 455.248 319.935 454.696 319.935 453.76Z" fill="#0031F9"/>
<path d="M424.016 443H427.4V434.432H424.016V437.42H420.212V434.432H416.828V443H420.212V439.58H424.016V443ZM429.051 443H438.159V440.912H432.435V439.76H437.751V437.672H432.435V436.52H438.159V434.432H429.051V443ZM438.009 443H442.185L443.769 440.792L445.353 443H449.529L445.677 438.524L449.025 434.432H445.053L443.769 436.304L442.485 434.432H438.513L441.861 438.524L438.009 443ZM419.984 453.412H419.06L419.216 452.26H420.14L419.984 453.412ZM417.044 457H418.556L418.856 454.852H419.78L419.48 457H420.992L421.292 454.852H422.432V453.412H421.496L421.652 452.26H422.78V450.82H421.856L422.156 448.672H420.644L420.344 450.82H419.42L419.72 448.672H418.208L417.908 450.82H416.768V452.26H417.704L417.548 453.412H416.42V454.852H417.344L417.044 457ZM424.695 457H427.695V452.308H429.315V450.436H427.695V450.244C427.695 449.884 427.863 449.716 428.415 449.716H429.315V448.132C428.691 448.072 427.923 448.06 427.347 448.06C425.403 448.06 424.695 448.54 424.695 449.74V450.436H423.303V452.308H424.695V457ZM430.918 457H433.918V452.308H435.538V450.436H433.918V450.244C433.918 449.884 434.086 449.716 434.638 449.716H435.538V448.132C434.914 448.072 434.146 448.06 433.57 448.06C431.626 448.06 430.918 448.54 430.918 449.74V450.436H429.526V452.308H430.918V457ZM437.141 457H440.141V452.308H441.761V450.436H440.141V450.244C440.141 449.884 440.309 449.716 440.861 449.716H441.761V448.132C441.137 448.072 440.369 448.06 439.793 448.06C437.849 448.06 437.141 448.54 437.141 449.74V450.436H435.749V452.308H437.141V457ZM443.363 457H446.363V452.308H447.983V450.436H446.363V450.244C446.363 449.884 446.531 449.716 447.083 449.716H447.983V448.132C447.359 448.072 446.591 448.06 446.015 448.06C444.071 448.06 443.363 448.54 443.363 449.74V450.436H441.971V452.308H443.363V457ZM449.586 457H452.586V452.308H454.206V450.436H452.586V450.244C452.586 449.884 452.754 449.716 453.306 449.716H454.206V448.132C453.582 448.072 452.814 448.06 452.238 448.06C450.294 448.06 449.586 448.54 449.586 449.74V450.436H448.194V452.308H449.586V457ZM455.809 457H458.809V452.308H460.429V450.436H458.809V450.244C458.809 449.884 458.977 449.716 459.529 449.716H460.429V448.132C459.805 448.072 459.037 448.06 458.461 448.06C456.517 448.06 455.809 448.54 455.809 449.74V450.436H454.417V452.308H455.809V457Z" fill="#0031F9"/>
</svg>
