<svg width="290" height="198" viewBox="0 0 290 198" fill="none" xmlns="http://www.w3.org/2000/svg">
<path d="M290 0.226074H0V197.226H290V0.226074Z" fill="#0031F9"/>
<mask id="mask0_2643_569" style="mask-type:alpha" maskUnits="userSpaceOnUse" x="0" y="0" width="290" height="198">
<path d="M290 0.226074H0V197.226H290V0.226074Z" fill="#004EF9"/>
</mask>
<g mask="url(#mask0_2643_569)">
<path d="M145 49.6133H-49.6646V57.471H145V49.6133Z" fill="white"/>
<path d="M-47.6378 199.896L-51.6916 192.875L182.534 57.5981H146.086L-47.6378 169.485L-51.6929 162.464L142.972 50.0334C143.589 49.6781 144.288 49.491 144.999 49.4907H197.656C198.548 49.4902 199.416 49.7844 200.124 50.3275C200.832 50.8707 201.341 51.6325 201.571 52.4945C201.802 53.3564 201.742 54.2703 201.401 55.0947C201.059 55.919 200.456 56.6077 199.683 57.0542L-47.6378 199.896Z" fill="#FFD93B"/>
<path d="M148.928 84.2437H141.07V162.003H148.928V84.2437Z" fill="#FFD93B"/>
<path d="M122.57 99.1812H114.712V178.052H122.57V99.1812Z" fill="#FFD93B"/>
<path d="M69.9723 130.266H61.8662V208.326H69.9723V130.266Z" fill="#FFD93B"/>
<path d="M43.612 144.857H35.5059V222.058H43.612V144.857Z" fill="#FFD93B"/>
<path d="M17.2335 160.09H9.12744V236.183H17.2335V160.09Z" fill="#FFD93B"/>
<path d="M96.3181 114.404H88.2422V193.565H96.3181V114.404Z" fill="#FFD93B"/>
<path d="M175.288 68.7314H167.431V144.857H175.288V68.7314Z" fill="#FFD93B"/>
<path d="M287.975 163.201L265.67 152.062L243.356 163.201L221.049 152.062L198.728 163.201L170.42 149.078L173.929 142.045L198.728 154.418L221.05 143.281L243.356 154.418L265.67 143.281L287.975 154.418L310.274 143.281L332.581 154.418L354.889 143.281L377.193 154.418L399.499 143.281L421.804 154.418L442.35 144.157L445.861 151.186L421.804 163.201L399.499 152.062L377.193 163.201L354.889 152.062L332.581 163.201L310.274 152.062L287.975 163.201Z" fill="white"/>
<path d="M421.804 191.987L399.499 180.851L377.192 191.987L354.888 180.851L332.58 191.987L310.274 180.851L287.975 191.987L265.67 180.851L243.355 191.987L221.049 180.851L198.728 191.987L176.408 180.851L154.105 191.987L122.928 176.42L126.439 169.391L154.105 183.204L176.405 172.069L198.728 183.204L221.05 172.069L243.355 183.204L265.67 172.069L287.975 183.204L310.274 172.069L332.58 183.204L354.888 172.069L377.192 183.204L399.499 172.069L421.804 183.204L442.35 172.946L445.861 179.974L421.804 191.987Z" fill="white"/>
<path d="M201.649 49.5347H193.792V130.266H201.649V49.5347Z" fill="#FFD93B"/>
<path d="M12.7931 241.866L8.87207 235.056L219.566 113.754L243.355 125.63L265.67 114.494L287.975 125.63L310.274 114.494L332.58 125.63L354.888 114.494L377.192 125.63L399.499 114.494L421.804 125.63L442.35 115.371L445.861 122.399L421.804 134.412L399.499 123.276L377.192 134.412L354.888 123.276L332.58 134.412L310.274 123.276L287.975 134.412L265.67 123.276L243.355 134.412L219.832 122.666L12.7931 241.866Z" fill="white"/>
</g>
</svg>
