<svg width="290" height="198" viewBox="0 0 290 198" fill="none" xmlns="http://www.w3.org/2000/svg">
<path d="M290 0.226074H0V197.226H290V0.226074Z" fill="#0031F9"/>
<mask id="mask0_2643_657" style="mask-type:alpha" maskUnits="userSpaceOnUse" x="0" y="0" width="290" height="198">
<path d="M290 0.226074H0V197.226H290V0.226074Z" fill="#004EF9"/>
</mask>
<g mask="url(#mask0_2643_657)">
<path d="M104.114 49.1027L-50.751 138.55L-46.8209 145.354L108.044 55.907L104.114 49.1027Z" fill="white"/>
<path d="M198.377 48.896H-49.2993V56.7538H198.377V48.896Z" fill="white"/>
<path d="M226.459 79.1694L222.529 72.3655L249.558 56.7538H224.738V48.896H278.872L226.459 79.1694Z" fill="white"/>
<path d="M196.466 87.4112L143.77 117.848L147.7 124.652L200.396 94.2156L196.466 87.4112Z" fill="white"/>
<path d="M117.565 132.975L63.9795 163.925L67.9096 170.73L121.495 139.779L117.565 132.975Z" fill="white"/>
<path d="M37.9503 178.95L-51.2456 230.468L-47.3155 237.272L41.8804 185.754L37.9503 178.95Z" fill="white"/>
<path d="M185.165 48.7828L143.217 73.0112L147.147 79.8155L189.095 55.5871L185.165 48.7828Z" fill="white"/>
<path d="M117.286 87.9793L63.9819 118.767L67.912 125.571L121.216 94.7836L117.286 87.9793Z" fill="white"/>
<path d="M35.8289 135.02L-51.2427 185.311L-47.3126 192.115L39.759 141.824L35.8289 135.02Z" fill="white"/>
<path d="M23.0694 49.0979L-51.2368 92.0156L-47.3067 98.8199L26.9994 55.9022L23.0694 49.0979Z" fill="white"/>
<path d="M176.097 133.927L152.02 121.916L155.53 114.886L176.097 125.147L196.115 115.159L199.623 122.189L176.097 133.927Z" fill="white"/>
<path d="M399.171 133.927L376.867 122.792L354.56 133.927L332.256 122.792L309.949 133.927L287.642 122.792L265.342 133.927L243.037 122.792L226.491 131.049L222.981 124.018L243.037 114.011L265.342 125.146L287.642 114.011L309.949 125.146L332.256 114.011L354.56 125.146L376.867 114.011L399.171 125.146L421.473 114.011L445.531 126.022L442.02 133.052L421.473 122.792L399.171 133.927Z" fill="white"/>
<path d="M106.45 141.475L102.94 148.505L117.026 155.538L120.536 148.508L106.45 141.475Z" fill="white"/>
<path d="M176.097 162.712L153.776 151.576L147.459 154.731L143.948 147.702L153.774 142.793L176.097 153.932L196.664 143.669L200.172 150.699L176.097 162.712Z" fill="white"/>
<path d="M399.171 162.712L376.867 151.576L354.56 162.712L332.256 151.576L309.949 162.712L287.642 151.576L265.342 162.712L243.037 151.576L226.491 159.834L222.981 152.803L243.037 142.793L265.342 153.93L287.642 142.793L309.949 153.93L332.256 142.793L354.56 153.93L376.867 142.793L399.171 153.93L421.473 142.793L445.531 154.806L442.02 161.837L421.473 151.576L399.171 162.712Z" fill="white"/>
<path d="M86.8608 191.495L64.8564 180.508L68.3675 173.479L86.8608 182.713L109.169 171.577L120.544 177.256L117.033 184.288L109.169 180.359L86.8608 191.495Z" fill="white"/>
<path d="M399.172 191.495L376.868 180.359L354.56 191.495L332.256 180.359L309.949 191.495L287.643 180.359L265.343 191.495L243.037 180.359L220.723 191.495L198.416 180.359L176.097 191.494L153.776 180.359L147.459 183.514L143.948 176.484L153.774 171.577L176.097 182.713L198.419 171.577L220.723 182.713L243.037 171.577L265.343 182.713L287.643 171.577L309.949 182.713L332.256 171.577L354.56 182.713L376.868 171.577L399.172 182.713L421.473 171.577L445.531 183.588L442.02 190.62L421.473 180.359L399.172 191.495Z" fill="white"/>
<path d="M70.5384 121.95H62.6807V233.9H70.5384V121.95Z" fill="#FFD93B"/>
<path d="M43.7254 121.95H35.8677V233.9H43.7254V121.95Z" fill="#FFD93B"/>
<path d="M122.757 75.6548H114.899V209.3H122.757V75.6548Z" fill="#FFD93B"/>
<path d="M149.569 75.6548H141.711V208.309H149.569V75.6548Z" fill="#FFD93B"/>
<path d="M228.554 29.6924H220.696V186.539H228.554V29.6924Z" fill="#FFD93B"/>
<path d="M201.688 30.6338H193.83V175.996H201.688V30.6338Z" fill="#FFD93B"/>
<path d="M220.722 191.495L198.416 180.359L177.85 190.62L174.342 183.588L198.418 171.577L220.722 182.713L241.283 172.452L244.791 179.484L220.722 191.495Z" fill="white"/>
<path d="M55.1655 134.229H51.2366L35.8627 125.352V118.548L51.2366 109.67H55.1655L70.5394 118.548V125.352L55.1655 134.229ZM45.6836 121.95L53.2011 126.286L60.7198 121.95L53.2011 117.614L45.6836 121.95Z" fill="#FFD93B"/>
<path d="M56.493 119.51L53.2014 117.61L49.9098 119.51L45.981 112.706L53.2014 108.537L60.4219 112.706L56.493 119.51Z" fill="#FFD93B"/>
<path d="M53.1868 135.355L45.9663 131.186L49.8952 124.382L53.1868 126.282L56.4797 124.382L60.4086 131.186L53.1868 135.355Z" fill="#FFD93B"/>
<path d="M134.198 88.0463H130.265L114.891 79.1701V72.3662L130.265 63.4888H134.194L149.568 72.3662V79.1701L134.198 88.0463ZM124.716 75.7682L132.233 80.1044L139.752 75.7682L132.233 71.432L124.716 75.7682Z" fill="#FFD93B"/>
<path d="M135.525 73.3278L132.234 71.4277L128.942 73.3278L125.013 66.5238L132.234 62.3545L139.454 66.5238L135.525 73.3278Z" fill="#FFD93B"/>
<path d="M132.219 89.173L124.999 85.0036L128.927 78.1997L132.219 80.0998L135.512 78.1997L139.439 85.0036L132.219 89.173Z" fill="#FFD93B"/>
<path d="M213.155 41.97H209.226L193.853 33.0938V26.2899L209.226 17.4111H213.155L228.529 26.2899V33.0938L213.155 41.97ZM203.673 29.6918L211.191 34.0281L218.71 29.6918L211.191 25.3556L203.673 29.6918Z" fill="#FFD93B"/>
<path d="M214.484 27.2506L211.191 25.3506L207.899 27.2506L203.97 20.4467L211.191 16.2773L218.411 20.4467L214.484 27.2506Z" fill="#FFD93B"/>
<path d="M211.177 43.0976L203.956 38.927L207.885 32.123L211.177 34.0231L214.469 32.123L218.398 38.927L211.177 43.0976Z" fill="#FFD93B"/>
</g>
</svg>
