<svg width="290" height="198" viewBox="0 0 290 198" fill="none" xmlns="http://www.w3.org/2000/svg">
<path d="M290 0.226074H0V197.226H290V0.226074Z" fill="#0031F9"/>
<mask id="mask0_2643_590" style="mask-type:alpha" maskUnits="userSpaceOnUse" x="0" y="0" width="290" height="198">
<path d="M290 0.226074H0V197.226H290V0.226074Z" fill="#004EF9"/>
</mask>
<g mask="url(#mask0_2643_590)">
<path d="M105.351 49.6143H-49.2988V57.472H105.351V49.6143Z" fill="white"/>
<path d="M80.9383 65.522L77.0147 72.3315L129.734 102.707L133.657 95.8978L80.9383 65.522Z" fill="#FFD93B"/>
<path d="M159.764 110.933L155.841 117.743L209.031 148.39L212.954 141.581L159.764 110.933Z" fill="#FFD93B"/>
<path d="M107.285 111.033L103.361 117.843L182.715 163.565L186.639 156.756L107.285 111.033Z" fill="#FFD93B"/>
<path d="M54.5354 80.6421L50.6118 87.4517L76.9257 102.613L80.8493 95.8037L54.5354 80.6421Z" fill="#FFD93B"/>
<path d="M54.2829 111.192L50.3593 118.001L129.433 163.563L133.357 156.753L54.2829 111.192Z" fill="#FFD93B"/>
<path d="M2.58866 111.489L-1.33496 118.298L77.0113 163.44L80.9349 156.631L2.58866 111.489Z" fill="#FFD93B"/>
<path d="M107.379 171.858L103.455 178.668L129.942 193.929L133.866 187.12L107.379 171.858Z" fill="#FFD93B"/>
<path d="M-24.5066 126.321L-28.4302 133.13L24.1713 163.439L28.0949 156.629L-24.5066 126.321Z" fill="#FFD93B"/>
<path d="M54.5325 171.862L50.6089 178.671L103.58 209.193L107.504 202.383L54.5325 171.862Z" fill="#FFD93B"/>
<path d="M1.83522 172.142L-2.08838 178.951L77.0934 224.575L81.017 217.765L1.83522 172.142Z" fill="#FFD93B"/>
<path d="M-50.8698 171.857L-54.7935 178.667L24.3246 224.254L28.2482 217.444L-50.8698 171.857Z" fill="#FFD93B"/>
<path d="M-47.3295 146.536L-51.2676 139.739L105.336 49.0117L241.249 126.534L237.357 133.359L105.366 58.0745L-47.3295 146.536Z" fill="#FFD93B"/>
<path d="M103.202 80.5289L24.2773 126.114L28.3323 133.135L107.257 87.5494L103.202 80.5289Z" fill="#FFD93B"/>
<path d="M-2.13463 141.42L-89.2554 191.686L-85.1997 198.706L1.92106 148.44L-2.13463 141.42Z" fill="#FFD93B"/>
<path d="M156.775 80.1323L76.7783 126.318L80.832 133.34L160.829 87.1536L156.775 80.1323Z" fill="#FFD93B"/>
<path d="M50.6747 141.388L-28.3193 186.995L-24.2656 194.016L54.7285 148.409L50.6747 141.388Z" fill="#FFD93B"/>
<path d="M182.402 95.445L129.479 126.012L133.534 133.033L186.457 102.466L182.402 95.445Z" fill="#FFD93B"/>
<path d="M102.924 141.348L23.8735 187.006L27.9285 194.027L106.979 148.368L102.924 141.348Z" fill="#FFD93B"/>
<path d="M156.04 141.239L76.9234 186.935L80.9783 193.956L160.095 148.259L156.04 141.239Z" fill="#FFD93B"/>
<path d="M209.298 110.481L183.056 125.638L187.111 132.658L213.353 117.501L209.298 110.481Z" fill="#FFD93B"/>
<path d="M325.687 163.378L303.382 152.243L281.069 163.378L258.762 152.243L236.441 163.378L208.133 149.255L211.642 142.224L236.441 154.597L258.763 143.461L281.069 154.597L303.382 143.461L325.687 154.597L347.988 143.461L370.295 154.597L392.6 143.461L414.905 154.597L435.459 144.337L438.968 151.366L414.905 163.378L392.6 152.243L370.295 163.378L347.988 152.243L325.687 163.378Z" fill="white"/>
<path d="M325.687 192.167L303.382 181.029L281.069 192.167L258.762 181.029L236.441 192.167L214.121 181.029L191.819 192.167L160.641 176.6L164.152 169.571L191.819 183.384L214.119 172.247L236.441 183.384L258.763 172.247L281.069 183.384L303.382 172.247L325.687 183.384L347.988 172.247L370.295 183.384L392.6 172.247L414.905 183.384L435.458 173.123L438.968 180.152L414.905 192.167L392.6 181.029L370.295 192.167L347.988 181.029L325.687 192.167Z" fill="white"/>
<path d="M50.506 242.045L46.585 235.236L257.279 113.936L281.068 125.812L303.381 114.674L325.687 125.812L347.988 114.674L370.294 125.812L392.6 114.674L414.905 125.812L435.457 115.551L438.967 122.58L414.905 134.594L392.6 123.456L370.294 134.594L347.988 123.456L325.687 134.594L303.381 123.456L281.068 134.594L257.543 122.848L50.506 242.045Z" fill="white"/>
</g>
</svg>
