<svg width="200" height="100" viewBox="0 0 200 100" fill="none" xmlns="http://www.w3.org/2000/svg">
<mask id="mask0_1429_229" style="mask-type:alpha" maskUnits="userSpaceOnUse" x="0" y="0" width="200" height="100">
<rect width="200" height="100" fill="#222222"/>
</mask>
<g mask="url(#mask0_1429_229)">
<path d="M102.287 44.9838C102.377 44.8993 102.423 44.7745 102.423 44.6095H102.422C102.425 44.5416 102.415 44.4736 102.391 44.4098C102.367 44.346 102.331 44.2879 102.283 44.2389C102.192 44.1491 102.052 44.1042 101.864 44.1042H101.265V45.1102H101.864C102.055 45.1105 102.196 45.0684 102.287 44.9838Z" fill="#949494"/>
<path d="M107.102 46.0995C107.29 45.8927 107.384 45.6154 107.384 45.2673C107.384 44.9191 107.291 44.6393 107.105 44.4346C106.919 44.23 106.669 44.1256 106.352 44.1256C106.035 44.1256 105.784 44.2269 105.598 44.432C105.411 44.6372 105.318 44.9186 105.318 45.2673C105.318 45.6161 105.412 45.8948 105.598 46.0995C105.784 46.3041 106.04 46.4085 106.352 46.4085C106.663 46.4085 106.914 46.3052 107.102 46.0995Z" fill="#949494"/>
<path fill-rule="evenodd" clip-rule="evenodd" d="M122.329 42.3469L126 45.2704L122.329 48.1924V64.5166L99.5653 81L77.7404 64.1574V48.2493L74 45.2704L77.7404 42.2916V19H122.329V42.3469ZM106.324 41.5805L109.039 25.7429H84.5139V60.942L100.855 73.4787L105.059 48.9603H97.0068V58.3354H89.5936V47.2751L87.0766 45.2704L89.5936 43.2657V32.2054H97.0068V41.5805H106.324ZM95.0204 47.2684H94.0493V45.6108H92.5359V47.2684H91.5705V43.2945H92.5359V44.8345H94.0493V43.2945H95.0204V47.2684ZM98.9612 47.2684H96.4767L96.4772 43.2945H98.9633V44.0593H97.4426V44.8909H98.7897V45.6161H97.4405V46.4983H98.9612V47.2684ZM102.467 45.7058L103.415 47.2684H102.35L101.485 45.7675H101.265V47.2684H100.299V43.2945H101.949C102.225 43.2863 102.5 43.3421 102.751 43.4573C102.956 43.5541 103.127 43.7098 103.242 43.9042C103.352 44.1019 103.408 44.3253 103.404 44.5516C103.411 44.8173 103.327 45.0774 103.164 45.2882C103.004 45.4923 102.771 45.6312 102.467 45.7058ZM108.367 45.2693C108.367 45.6357 108.274 45.9962 108.099 46.3182H108.1C107.929 46.6236 107.677 46.8765 107.372 47.0491C107.06 47.2207 106.709 47.3107 106.353 47.3107C105.997 47.3107 105.646 47.2207 105.334 47.0491C105.029 46.8764 104.776 46.6236 104.605 46.3182C104.429 45.9962 104.337 45.6354 104.337 45.2689C104.337 44.9023 104.429 44.5416 104.605 44.2196C104.777 43.9167 105.028 43.6659 105.331 43.4939C105.645 43.3225 105.996 43.2326 106.354 43.2326C106.711 43.2326 107.063 43.3225 107.377 43.4939C107.68 43.6654 107.931 43.9163 108.102 44.2196C108.276 44.5421 108.368 44.9028 108.367 45.2693ZM112.048 44.9896H119.374L119.375 45.5508H112.047V46.0092C112.045 46.4251 111.931 46.7454 111.705 46.9703C111.479 47.1951 111.164 47.3075 110.761 47.3075C110.325 47.3075 109.978 47.1854 109.722 46.9395C109.466 46.6936 109.339 46.3407 109.339 45.8797H110.292C110.292 46.2507 110.433 46.4362 110.716 46.4362C110.96 46.4358 111.083 46.2935 111.083 46.0092V43.2945H112.048V44.9896Z" fill="#949494"/>
</g>
</svg>
