<svg width="200" height="100" viewBox="0 0 200 100" fill="none" xmlns="http://www.w3.org/2000/svg">
<mask id="mask0_1429_232" style="mask-type:alpha" maskUnits="userSpaceOnUse" x="0" y="0" width="200" height="100">
<rect width="200" height="100" fill="#222222"/>
</mask>
<g mask="url(#mask0_1429_232)">
<path d="M110.129 40.6578C109.682 40.2492 109.459 39.7417 109.459 39.1355C109.46 38.5293 109.683 38.0219 110.129 37.6133C110.576 37.2047 111.155 37.0003 111.866 37C112.578 36.9997 113.157 37.1959 113.603 37.5884C114.051 37.9826 114.274 38.4744 114.274 39.0638C114.274 39.7021 114.051 40.2297 113.604 40.6466C113.157 41.0634 112.578 41.2716 111.867 41.2711C111.155 41.2711 110.576 41.0667 110.129 40.6578Z" fill="#949494"/>
<path d="M109.931 43.1098H113.803V56.3096H109.931V43.1098Z" fill="#949494"/>
<path d="M72.6029 48.5167C71.9143 47.8359 70.9802 47.4533 70.0063 47.4533L70.0075 52.4819C69.0805 52.9723 68.0384 53.2174 66.8812 53.2174C65.7875 53.2177 64.815 52.9847 63.9639 52.5184C63.1263 52.0659 62.4341 51.3902 61.9659 50.5679C61.4864 49.7355 61.2467 48.7874 61.2467 47.7237C61.2472 46.6443 61.487 45.6875 61.9659 44.8535C62.4347 44.0306 63.1325 43.358 63.9764 42.9155C64.8376 42.4575 65.8219 42.2285 66.9294 42.2285C68.6827 42.2285 70.1797 42.8743 71.4204 44.1661L74.0014 41.8111C73.1592 40.8464 72.1172 40.1104 70.8754 39.603C69.6337 39.0956 68.252 38.8419 66.7304 38.8419C64.9109 38.8438 63.2734 39.2249 61.818 39.9852C60.3626 40.7455 59.225 41.8004 58.4052 43.1498C57.5878 44.4976 57.1793 46.0221 57.1795 47.7229C57.1798 49.4238 57.5889 50.949 58.4068 52.2985C59.2264 53.6479 60.3554 54.7028 61.7941 55.4631C63.2328 56.2234 64.8535 56.6036 66.6563 56.6036C67.9268 56.6016 69.1899 56.4115 70.4034 56.0396C71.6443 55.6638 72.736 55.1242 73.6785 54.4208V51.0839C73.6785 50.121 73.2916 49.1975 72.6029 48.5167Z" fill="#949494"/>
<path d="M39.4897 42.5433C39.332 42.4039 39.2067 42.2324 39.1222 42.0406C39.0377 41.8488 38.9962 41.6412 39.0003 41.4321C38.9961 41.2229 39.0377 41.0153 39.1222 40.8234C39.2066 40.6316 39.332 40.46 39.4897 40.3205C39.8163 40.0222 40.2393 39.8727 40.7588 39.8722C41.2782 39.8717 41.7013 40.0151 42.0282 40.3024C42.1851 40.4348 42.3104 40.6 42.395 40.7859C42.4796 40.9719 42.5215 41.1741 42.5177 41.378C42.5177 41.8443 42.3545 42.2298 42.0282 42.5345C41.7019 42.8392 41.2787 42.9916 40.7588 42.9916C40.2391 42.9916 39.8161 42.8422 39.4897 42.5433Z" fill="#949494"/>
<path d="M39.3447 44.336H42.1733V53.9802H39.3443L39.3447 44.336Z" fill="#949494"/>
<path d="M53.6593 45.2681C54.4024 45.9852 54.774 47.0488 54.774 48.4588V53.9802C54.0238 53.98 53.3044 53.6854 52.774 53.1609C52.2436 52.6366 51.9455 51.9253 51.9454 51.1837V48.8891C51.9454 48.1242 51.7765 47.5535 51.4385 47.177C51.1006 46.8004 50.6109 46.6123 49.9694 46.6125C49.2562 46.6125 48.6882 46.8306 48.2652 47.2667C47.8422 47.7028 47.6305 48.3513 47.6302 49.212V53.979H44.8021V44.336H47.5034V45.4653C47.8904 45.0507 48.3679 44.7289 48.8997 44.5243C49.4553 44.3023 50.0654 44.1914 50.7299 44.1914C51.9395 44.1914 52.916 44.5503 53.6593 45.2681Z" fill="#949494"/>
<path fill-rule="evenodd" clip-rule="evenodd" d="M90.1296 50.7895H80.0313C80.2128 51.6074 80.6427 52.2535 81.321 52.7275C81.9993 53.2015 82.8431 53.4388 83.8526 53.4393C84.5476 53.4393 85.1639 53.337 85.7014 53.1325C86.239 52.9279 86.7392 52.6048 87.2022 52.1631L89.2625 54.3715C88.0049 55.7944 86.1681 56.5059 83.7521 56.5059C82.2462 56.5059 80.9144 56.2154 79.7566 55.6345C78.5989 55.0537 77.7059 54.2482 77.0775 53.2182C76.449 52.1879 76.1347 51.0186 76.1347 49.7103C76.1347 48.4185 76.4453 47.2531 77.0666 46.2143C77.6755 45.1872 78.56 44.3465 79.6221 43.7855C80.705 43.2052 81.9164 42.9149 83.2562 42.9147C84.563 42.9147 85.746 43.1927 86.8051 43.7487C87.8512 44.2929 88.7169 45.1232 89.2986 46.1406C89.9021 47.1795 90.2039 48.3856 90.2042 49.7591C90.2042 49.8085 90.1793 50.152 90.1296 50.7895ZM81.0731 46.5456C80.4771 47.0365 80.1132 47.7071 79.9811 48.5577H86.5568C86.4239 47.7232 86.0601 47.0566 85.4656 46.558C84.8711 46.0594 84.1431 45.81 83.2817 45.8097C82.4046 45.8095 81.6684 46.0547 81.0731 46.5456Z" fill="#949494"/>
<path d="M106.432 56.3096V48.7533C106.432 46.8235 105.924 45.368 104.907 44.3868C103.889 43.4054 102.554 42.9143 100.902 42.9135C99.9914 42.9132 99.156 43.0645 98.3953 43.3674C97.6347 43.6702 96.9977 44.0996 96.4845 44.6556V43.1098H92.7876V56.3096C93.8136 56.3089 94.7974 55.9056 95.5227 55.1881C96.2481 54.4707 96.6556 53.4979 96.6559 52.4835V49.784C96.6564 48.6065 96.9461 47.7192 97.525 47.122C98.1039 46.5249 98.8811 46.2263 99.8568 46.2263C100.734 46.2258 101.405 46.4834 101.867 46.9991C102.33 47.5148 102.561 48.2958 102.561 49.3421V56.3096H106.432Z" fill="#949494"/>
<path d="M133.158 50.2263C133.158 52.2054 133.754 53.7591 134.945 54.8871C136.136 56.0154 137.79 56.5792 139.908 56.5784C142.026 56.5779 143.681 56.0135 144.872 54.8851C146.062 53.7568 146.658 52.2032 146.658 50.2243V43.8149C145.631 43.8149 144.647 44.218 143.921 44.9356C143.195 45.6531 142.787 46.6264 142.787 47.6413V50.1029C142.789 51.2008 142.549 52.0277 142.069 52.5837C141.589 53.1398 140.885 53.4178 139.959 53.4178C139.015 53.4186 138.3 53.1406 137.811 52.5837C137.323 52.0269 137.079 51.201 137.079 50.1061V43.8168H133.158V50.2263Z" fill="#949494"/>
<path d="M151.446 56.1009C150.387 55.8312 149.543 55.4918 148.915 55.083L150.205 52.3353C150.8 52.7114 151.519 53.0185 152.364 53.2567C153.171 53.4888 154.006 53.6085 154.845 53.6124C156.483 53.6124 157.302 53.2118 157.302 52.4107C157.302 52.0346 157.079 51.7648 156.632 51.6011C156.186 51.4374 155.499 51.2983 154.573 51.1841C153.481 51.0206 152.579 50.8325 151.868 50.6196C151.162 50.4106 150.525 50.0212 150.019 49.4908C149.498 48.9516 149.237 48.1829 149.238 47.185C149.238 46.351 149.481 45.6109 149.967 44.9649C150.453 44.3189 151.165 43.8159 152.102 43.4559C153.036 43.0967 154.14 42.9168 155.414 42.9163C156.361 42.9167 157.306 43.0196 158.23 43.2232L160.696 43.7639L159.261 46.7908C158.086 46.1368 156.804 45.8096 155.415 45.8094C154.587 45.8094 153.967 45.9239 153.554 46.153C153.141 46.3822 152.935 46.6764 152.935 47.0356C152.935 47.4442 153.158 47.7303 153.605 47.894C154.051 48.0575 154.762 48.2145 155.739 48.3603C156.83 48.5403 157.723 48.7323 158.418 48.9364C159.113 49.1406 159.739 49.5264 160.23 50.0532C160.743 50.5924 161 51.3445 161 52.3097C161.009 53.0998 160.747 53.8697 160.256 54.4933C159.759 55.131 159.035 55.6258 158.084 55.9775C157.134 56.3292 156.005 56.5051 154.697 56.5051C153.601 56.5069 152.508 56.3711 151.446 56.1009Z" fill="#949494"/>
<path fill-rule="evenodd" clip-rule="evenodd" d="M119.643 43.573C120.849 42.7763 122.267 42.3511 123.717 42.3511C125.662 42.3511 127.527 43.115 128.903 44.4748C130.278 45.8345 131.051 47.6787 131.051 49.6018C131.051 51.0358 130.621 52.4376 129.815 53.63C129.009 54.8224 127.864 55.7517 126.524 56.3005C125.184 56.8493 123.709 56.9928 122.286 56.7131C120.864 56.4333 119.557 55.7427 118.531 54.7287C117.506 53.7147 116.807 52.4228 116.524 51.0163C116.241 49.6098 116.386 48.1519 116.942 46.827C117.497 45.5021 118.437 44.3698 119.643 43.573ZM121.679 52.6158C122.283 53.0142 122.992 53.2268 123.717 53.2266C124.199 53.2266 124.676 53.1327 125.121 52.9504C125.566 52.768 125.97 52.5009 126.311 52.164C126.651 51.8272 126.921 51.4273 127.106 50.9873C127.29 50.5472 127.385 50.0756 127.384 49.5993C127.384 48.8822 127.169 48.1812 126.766 47.585C126.362 46.9889 125.79 46.5243 125.119 46.2501C124.449 45.9758 123.712 45.9042 123 46.0443C122.289 46.1844 121.635 46.5298 121.123 47.037C120.61 47.5443 120.261 48.1904 120.119 48.8938C119.978 49.5972 120.051 50.3262 120.328 50.9887C120.606 51.6512 121.076 52.2175 121.679 52.6158Z" fill="#949494"/>
<path d="M54.2549 64.4163C54.1408 64.5975 53.9781 64.7439 53.7849 64.8393C53.5602 64.9509 53.311 65.0059 53.0596 64.9995C52.6585 64.9995 52.3303 64.9051 52.075 64.7163C51.8198 64.5275 51.6923 64.2657 51.6925 63.9311H52.3785C52.3861 64.0862 52.4548 64.2321 52.5697 64.3377C52.6824 64.4371 52.8453 64.488 53.0596 64.488C53.2813 64.488 53.4543 64.4319 53.5799 64.3205C53.6412 64.2674 53.69 64.2016 53.7226 64.1277C53.7553 64.0538 53.771 63.9737 53.7687 63.8931C53.7752 63.7739 53.7337 63.6569 53.6532 63.5678C53.5723 63.4854 53.4733 63.4225 53.3639 63.384C53.2868 63.3573 53.209 63.3329 53.1305 63.3105C53.0493 63.2874 52.9674 63.2666 52.885 63.2482C52.6743 63.2021 52.4676 63.1398 52.2667 63.0618C52.1066 62.9945 51.967 62.887 51.8615 62.7502C51.7489 62.6073 51.6927 62.4136 51.6929 62.169C51.688 61.9597 51.746 61.7536 51.8595 61.5769C51.9758 61.4037 52.1397 61.2668 52.3319 61.1823C52.5515 61.0863 52.7896 61.039 53.0296 61.0437C53.4127 61.0437 53.7213 61.1327 53.9555 61.3109C54.1897 61.489 54.3201 61.7467 54.3469 62.084H53.6378C53.6251 61.94 53.5566 61.8064 53.4466 61.7111C53.3339 61.6105 53.1836 61.5609 52.996 61.5609C52.8007 61.5609 52.6431 61.6091 52.5232 61.7055C52.4032 61.8019 52.3434 61.9447 52.3437 62.1337C52.3378 62.2544 52.3791 62.3728 52.4591 62.4642C52.5382 62.5501 52.6376 62.6153 52.7485 62.6537C52.9069 62.7085 53.0684 62.7541 53.2322 62.7903C53.4415 62.8369 53.6466 62.9 53.8457 62.9789C54.0045 63.0443 54.1431 63.1499 54.2476 63.285C54.3586 63.4236 54.4143 63.6152 54.4145 63.8598C54.4147 64.0564 54.3595 64.2491 54.2549 64.4163Z" fill="#949494"/>
<path d="M60.1924 64.9627V61.0962H59.5065L58.1398 64.1278L56.767 61.0962H56.0734V64.9615H56.7148V62.3128L57.9133 64.9615H58.359L59.5514 62.3128V64.9627H60.1924Z" fill="#949494"/>
<path fill-rule="evenodd" clip-rule="evenodd" d="M64.2945 64.1719H62.6568L62.3756 64.9614H61.7062L63.1073 61.0898H63.8504L65.2515 64.9614H64.5765L64.2945 64.1719ZM64.1203 63.6763L63.4793 61.8573L62.831 63.6759L64.1203 63.6763Z" fill="#949494"/>
<path fill-rule="evenodd" clip-rule="evenodd" d="M67.7949 63.3924L68.7738 64.9615L69.5558 64.9627L68.521 63.3547C68.8505 63.2917 69.0951 63.1564 69.2547 62.9489C69.4118 62.7484 69.4963 62.5016 69.4946 62.2479C69.497 62.0431 69.4436 61.8415 69.3398 61.6643C69.2291 61.4832 69.0665 61.3388 68.8727 61.2492C68.664 61.1471 68.4103 61.0962 68.1097 61.0962H66.7596V64.9615H67.401V63.3924H67.7949ZM68.1097 62.8989H67.401V61.5913H68.1097C68.3532 61.5913 68.5355 61.6483 68.6555 61.7632C68.7754 61.8782 68.8362 62.0436 68.8362 62.2475C68.8362 62.4514 68.7754 62.6108 68.6555 62.7258C68.5355 62.8408 68.3528 62.8989 68.1097 62.8989Z" fill="#949494"/>
<path d="M73.7441 61.0962V61.5917H72.7036V64.9627H72.0618V61.5905H71.0148V61.0962H73.7441Z" fill="#949494"/>
<path d="M81.479 62.2078C81.3451 61.8525 81.097 61.5503 80.7728 61.3478C80.4389 61.1433 80.0525 61.0383 79.6597 61.0453C79.309 61.0419 78.9633 61.1284 78.6565 61.2965C78.3547 61.4623 78.104 61.706 77.9313 62.0015C77.7504 62.3108 77.658 62.6629 77.6638 63.0202C77.658 63.3771 77.7504 63.7288 77.9313 64.0377C78.1033 64.3326 78.353 64.5758 78.6537 64.7415C78.961 64.9112 79.3078 64.9984 79.6597 64.9947C80.0522 65.0016 80.4384 64.8974 80.7728 64.6943C81.097 64.4936 81.345 64.1925 81.4778 63.8378H80.708C80.6145 64.0219 80.4669 64.1737 80.2845 64.2732C80.0926 64.3749 79.8774 64.4258 79.6597 64.4211C79.4181 64.4248 79.1798 64.3652 78.9689 64.2484C78.7661 64.1326 78.6012 63.9618 78.4936 63.7561C78.3761 63.5281 78.3174 63.2749 78.3227 63.019C78.3171 62.7644 78.3757 62.5125 78.4932 62.2859C78.6008 62.0813 78.7653 61.9113 78.9673 61.796C79.1787 61.6791 79.4176 61.6197 79.6597 61.6237C79.8777 61.6189 80.0933 61.6695 80.2857 61.7708C80.4681 61.8711 80.6157 62.0234 80.7092 62.2078H81.479Z" fill="#949494"/>
<path fill-rule="evenodd" clip-rule="evenodd" d="M85.9206 61.2965C86.2221 61.4614 86.4724 61.7047 86.6443 61.9999C86.8179 62.3123 86.9089 62.663 86.9089 63.0194C86.9089 63.3759 86.8179 63.7265 86.6443 64.0389C86.4735 64.3357 86.223 64.5802 85.9206 64.7452C85.6117 64.9116 85.2655 64.9987 84.9138 64.9987C84.562 64.9987 84.2158 64.9116 83.9069 64.7452C83.6043 64.5803 83.3532 64.3365 83.1808 64.0405C83.0059 63.7285 82.9142 63.3777 82.9142 63.021C82.9142 62.6643 83.0059 62.3135 83.1808 62.0015C83.3539 61.7059 83.6048 61.4622 83.9069 61.2965C84.216 61.1306 84.5621 61.0437 84.9138 61.0437C85.2654 61.0437 85.6115 61.1306 85.9206 61.2965ZM84.2189 61.7944C84.0161 61.9098 83.8513 62.0804 83.744 62.286C83.6257 62.5123 83.5665 62.7643 83.5718 63.019C83.5667 63.275 83.6259 63.5283 83.744 63.7561C83.8518 63.9623 84.0166 64.134 84.2193 64.2512C84.4298 64.3701 84.6689 64.4304 84.9113 64.4259C85.1536 64.4303 85.3925 64.3699 85.603 64.2512C85.8055 64.1339 85.9703 63.9622 86.0782 63.7561C86.1964 63.5283 86.2556 63.275 86.2505 63.019C86.2559 62.7639 86.1967 62.5115 86.0782 62.2847C85.9705 62.0798 85.8055 61.9098 85.603 61.7948C85.392 61.6778 85.1532 61.6183 84.9113 61.6225C84.6692 61.6186 84.4303 61.6784 84.2193 61.796L84.2189 61.7944Z" fill="#949494"/>
<path fill-rule="evenodd" clip-rule="evenodd" d="M91.9562 61.9999C91.7841 61.7048 91.5339 61.4615 91.2325 61.2965C90.9234 61.1306 90.5773 61.0437 90.2256 61.0437C89.874 61.0437 89.5279 61.1306 89.2188 61.2965C88.9168 61.4624 88.6659 61.706 88.4927 62.0015C88.3173 62.3133 88.2253 62.6642 88.2253 63.021C88.2253 63.3778 88.3173 63.7287 88.4927 64.0405C88.6652 64.3364 88.9163 64.5801 89.2188 64.7452C89.5277 64.9116 89.8738 64.9987 90.2256 64.9987C90.5774 64.9987 90.9236 64.9116 91.2325 64.7452C91.5349 64.58 91.7853 64.3357 91.9562 64.0389C92.1297 63.7265 92.2207 63.3759 92.2207 63.0194C92.2207 62.663 92.1297 62.3123 91.9562 61.9999ZM89.0555 62.2843C89.1631 62.0794 89.3281 61.9093 89.5307 61.7944C89.7435 61.6817 89.9813 61.6225 90.2228 61.6225C90.4643 61.6225 90.7021 61.6817 90.9148 61.7948C91.1173 61.9099 91.2822 62.0799 91.3901 62.2847C91.5085 62.5115 91.5676 62.7639 91.5623 63.019C91.5672 63.275 91.5081 63.5282 91.3901 63.7561C91.2821 63.9622 91.1173 64.1338 90.9148 64.2512C90.7026 64.3659 90.4647 64.4259 90.2228 64.4259C89.981 64.4259 89.743 64.3659 89.5307 64.2512C89.3281 64.134 89.1633 63.9623 89.0555 63.7561C88.9375 63.5282 88.8784 63.275 88.8833 63.019C88.8779 62.7637 88.9371 62.5112 89.0555 62.2843Z" fill="#949494"/>
<path d="M94.9829 63.0363L96.7503 64.9615H95.9075L94.3938 63.2309V64.9615H93.7512V61.0962H94.3921V62.8588L95.9116 61.0962H96.7503L94.9829 63.0363Z" fill="#949494"/>
<path d="M98.854 64.9627V61.0962H98.213V64.9627H98.854Z" fill="#949494"/>
<path d="M103.811 64.9614H103.17L101.24 62.074V64.9614H100.599V61.0898H101.24L103.17 63.9708V61.0898H103.811V64.9614Z" fill="#949494"/>
<path d="M109.157 62.2078C109.023 61.8525 108.775 61.5503 108.451 61.3478V61.3461C108.133 61.157 107.771 61.053 107.4 61.0443C107.029 61.0356 106.662 61.1225 106.335 61.2965C106.033 61.4623 105.782 61.706 105.609 62.0015C105.434 62.3128 105.342 62.6633 105.342 63.0196C105.342 63.376 105.434 63.7264 105.609 64.0377C105.782 64.3326 106.032 64.5758 106.333 64.7415C106.64 64.9115 106.987 64.9988 107.339 64.9947C107.811 64.9998 108.268 64.834 108.625 64.5286C108.982 64.2233 109.213 63.7994 109.275 63.3371V62.842H107.12V63.3359H108.587C108.542 63.6699 108.407 63.9328 108.19 64.1282C107.973 64.3237 107.688 64.4207 107.339 64.4207C107.097 64.4249 106.859 64.3655 106.648 64.2484C106.445 64.133 106.279 63.962 106.172 63.7561C106.054 63.5282 105.995 63.2749 106 63.019C105.995 62.7642 106.055 62.5123 106.174 62.2859C106.281 62.0808 106.446 61.9108 106.649 61.796C106.86 61.6789 107.099 61.6195 107.34 61.6237C107.558 61.6191 107.773 61.6698 107.965 61.7707C108.147 61.8708 108.294 62.0232 108.387 62.2078H109.157Z" fill="#949494"/>
<path d="M115.872 64.4163C115.757 64.5971 115.595 64.7434 115.402 64.8393C115.177 64.9509 114.928 65.0059 114.677 64.9995C114.275 64.9995 113.946 64.9051 113.691 64.7163C113.436 64.5275 113.309 64.2658 113.31 63.9312H113.996C114.003 64.0862 114.072 64.2321 114.187 64.3377C114.299 64.4371 114.462 64.488 114.677 64.488C114.898 64.488 115.071 64.4319 115.197 64.3205C115.216 64.3044 115.233 64.287 115.249 64.2686C115.255 64.2621 115.261 64.2554 115.266 64.2485C115.272 64.2408 115.278 64.2329 115.284 64.2249C115.293 64.2125 115.301 64.1997 115.309 64.1867C115.314 64.1779 115.319 64.1688 115.324 64.1597C115.33 64.1491 115.335 64.1383 115.34 64.1273C115.373 64.0533 115.388 63.973 115.386 63.8923C115.392 63.7731 115.351 63.6561 115.27 63.567C115.227 63.5233 115.179 63.4852 115.127 63.4532C115.106 63.4402 115.084 63.4283 115.062 63.4174C115.035 63.4045 115.008 63.393 114.98 63.3832C114.823 63.329 114.663 63.2837 114.502 63.2474C114.291 63.2012 114.084 63.139 113.883 63.0611C113.722 62.9936 113.583 62.8862 113.477 62.7494C113.365 62.6064 113.309 62.4125 113.309 62.1682C113.305 61.9589 113.364 61.7532 113.478 61.5769C113.594 61.4036 113.758 61.2668 113.951 61.1823C114.17 61.0863 114.408 61.039 114.648 61.0437C115.031 61.0437 115.34 61.1327 115.574 61.3109C115.808 61.489 115.938 61.7473 115.964 62.0857H115.256C115.243 61.9417 115.175 61.8081 115.065 61.7127C114.953 61.6121 114.802 61.5625 114.614 61.5625C114.419 61.5625 114.262 61.6106 114.142 61.7071C114.022 61.8035 113.962 61.9462 113.962 62.1353C113.956 62.2561 113.997 62.3744 114.077 62.4658C114.157 62.5516 114.256 62.6167 114.367 62.6553C114.526 62.7101 114.687 62.7557 114.851 62.7919C115.06 62.8381 115.265 62.9006 115.464 62.9789C115.623 63.0443 115.762 63.1499 115.866 63.285C115.977 63.4236 116.032 63.6155 116.032 63.8598C116.032 64.0564 115.977 64.2492 115.872 64.4163Z" fill="#949494"/>
<path fill-rule="evenodd" clip-rule="evenodd" d="M121.209 61.9999C121.037 61.7047 120.787 61.4614 120.486 61.2965C120.177 61.1306 119.831 61.0437 119.479 61.0437C119.127 61.0437 118.781 61.1306 118.472 61.2965C118.17 61.4625 117.92 61.7061 117.747 62.0015C117.571 62.3133 117.479 62.6642 117.479 63.021C117.479 63.3778 117.571 63.7287 117.747 64.0405C117.919 64.3363 118.17 64.58 118.472 64.7452C118.781 64.9116 119.127 64.9987 119.479 64.9987C119.831 64.9987 120.177 64.9116 120.486 64.7452C120.788 64.5802 121.039 64.3357 121.209 64.0389C121.383 63.7265 121.474 63.3759 121.474 63.0194C121.474 62.663 121.383 62.3123 121.209 61.9999ZM118.308 62.2843C118.416 62.0792 118.581 61.9091 118.784 61.7944C118.997 61.6813 119.235 61.6225 119.476 61.6225C119.718 61.6225 119.955 61.6817 120.168 61.7948C120.371 61.9099 120.535 62.0799 120.643 62.2847C120.762 62.5115 120.821 62.7639 120.816 63.019C120.82 63.275 120.761 63.5282 120.643 63.7561C120.535 63.9622 120.371 64.1338 120.168 64.2512C119.956 64.3658 119.718 64.4258 119.476 64.4258C119.234 64.4258 118.997 64.3658 118.784 64.2512C118.582 64.1341 118.417 63.9624 118.309 63.7561C118.191 63.5281 118.132 63.2749 118.137 63.019C118.131 62.7638 118.19 62.5113 118.308 62.2843Z" fill="#949494"/>
<path d="M123.645 64.4772H124.968V64.9615H123.004V61.0962H123.645V64.4772Z" fill="#949494"/>
<path d="M127.039 63.5494V61.0962H126.396V63.5482C126.396 63.8639 126.463 64.1311 126.598 64.3494C126.727 64.5634 126.918 64.7341 127.147 64.8393C127.388 64.949 127.651 65.0038 127.917 64.9996C128.182 65.0032 128.445 64.9485 128.687 64.8393C128.917 64.734 129.111 64.5641 129.245 64.3506C129.383 64.1322 129.453 63.8651 129.453 63.5494V61.0962H128.811V63.5494C128.811 63.8427 128.733 64.0646 128.577 64.212C128.422 64.3594 128.2 64.4339 127.922 64.4339C127.645 64.4339 127.428 64.3594 127.272 64.212C127.117 64.064 127.039 63.8432 127.039 63.5494Z" fill="#949494"/>
<path d="M133.711 61.0962V61.5917H132.67V64.9627H132.029V61.5905H130.983V61.0962H133.711Z" fill="#949494"/>
<path d="M135.901 64.9627V61.0962H135.26V64.9627H135.901Z" fill="#949494"/>
<path fill-rule="evenodd" clip-rule="evenodd" d="M140.439 61.2965C140.74 61.4614 140.991 61.7047 141.163 61.9999C141.336 62.3123 141.427 62.663 141.427 63.0194C141.427 63.3759 141.336 63.7265 141.163 64.0389C140.992 64.3357 140.741 64.5802 140.439 64.7452C140.13 64.9116 139.784 64.9987 139.432 64.9987C139.08 64.9987 138.734 64.9116 138.425 64.7452C138.122 64.5797 137.871 64.3355 137.699 64.0389C137.523 63.7271 137.431 63.3762 137.431 63.0194C137.431 62.6626 137.523 62.3117 137.699 61.9999C137.872 61.7049 138.123 61.4619 138.425 61.2965C138.734 61.1306 139.08 61.0437 139.432 61.0437C139.784 61.0437 140.13 61.1306 140.439 61.2965ZM138.737 61.7944C138.534 61.9091 138.369 62.0792 138.261 62.2843C138.143 62.5111 138.084 62.7635 138.089 63.0186C138.084 63.2746 138.143 63.5278 138.261 63.7557C138.369 63.962 138.534 64.1337 138.737 64.2508C138.949 64.3654 139.187 64.4254 139.429 64.4254C139.671 64.4254 139.909 64.3654 140.121 64.2508C140.323 64.1333 140.488 63.9618 140.596 63.7557C140.714 63.5278 140.773 63.2746 140.768 63.0186C140.774 62.7635 140.714 62.5111 140.596 62.2843C140.488 62.0795 140.323 61.9095 140.121 61.7944C139.908 61.6813 139.67 61.6221 139.429 61.6221C139.187 61.6221 138.95 61.6813 138.737 61.7944Z" fill="#949494"/>
<path d="M145.528 64.9614H146.169L146.169 61.0898H145.528V63.9708L143.597 61.0898H142.956V64.9614H143.597V62.074L145.528 64.9614Z" fill="#949494"/>
</g>
</svg>
