<svg width="200" height="100" viewBox="0 0 200 100" fill="none" xmlns="http://www.w3.org/2000/svg">
<mask id="mask0_2941_204" style="mask-type:alpha" maskUnits="userSpaceOnUse" x="0" y="0" width="200" height="100">
<rect width="200" height="100" fill="#222222"/>
</mask>
<g mask="url(#mask0_2941_204)">
<path d="M42.8604 60.7218C47.9485 56.3453 51.2223 51.3012 51.2223 44.6901C51.2223 33.8154 42.2934 25 31.2818 25V34.8456C36.7871 34.8456 41.2521 39.2522 41.2521 44.6891C41.2521 47.8612 39.6325 50.1048 37.2195 52.425L37.166 52.4764C33.6662 55.8391 31.5547 57.8679 31.2818 64.9875V68.1898H41.2521V63.8103C41.2521 62.5847 41.9252 61.5254 42.8604 60.7218Z" fill="#949494"/>
<path d="M29.3124 80.7211C29.7398 80.9074 30.2191 81 30.7515 81H30.7535C31.1186 81 31.4746 80.9537 31.8182 80.862C32.162 80.7704 32.471 80.6314 32.7433 80.4461C33.0156 80.2608 33.2328 80.0252 33.3939 79.7412C33.5551 79.4572 33.6357 79.1239 33.6357 78.7433C33.6357 78.3848 33.5683 78.0897 33.4337 77.8561C33.2991 77.6235 33.1278 77.4352 32.9197 77.2921C32.7117 77.1502 32.4944 77.0384 32.269 76.9578C32.0426 76.8773 31.8366 76.8118 31.65 76.7625L30.4027 76.4282C30.3614 76.4176 30.3203 76.4062 30.2795 76.3942L30.2493 76.3851C30.2179 76.3755 30.1865 76.3654 30.1553 76.355C30.1372 76.3489 30.1191 76.3426 30.1011 76.3362C30.0516 76.3186 30.0025 76.2999 29.9539 76.2801C29.8081 76.2217 29.6867 76.1432 29.5898 76.0465C29.4929 75.9498 29.445 75.8249 29.445 75.6699C29.445 75.5027 29.5042 75.3577 29.6225 75.2369C29.7408 75.115 29.8937 75.0223 30.0814 74.9579C30.2691 74.8935 30.469 74.8653 30.6821 74.8713C30.8983 74.8784 31.1054 74.9227 31.3032 75.0042C31.5011 75.0858 31.6704 75.2066 31.8142 75.3637C31.958 75.5208 32.0559 75.7152 32.1089 75.9448L33.5755 75.6981C33.4592 75.255 33.2705 74.8793 33.0074 74.5722C32.7443 74.2651 32.4189 74.0315 32.0294 73.8703C31.6408 73.7102 31.1982 73.6256 30.7025 73.6196C30.2099 73.6165 29.7612 73.6921 29.3553 73.8462C28.9494 74.0013 28.625 74.2359 28.3823 74.5511C28.1396 74.8663 28.0182 75.262 28.0182 75.7384C28.0182 76.0767 28.0753 76.3566 28.1906 76.5782C28.3058 76.7987 28.4496 76.977 28.622 77.1119C28.7954 77.2469 28.9738 77.3506 29.1584 77.4221C29.343 77.4946 29.5052 77.551 29.6449 77.5902L31.5102 78.132C31.65 78.1743 31.7652 78.2227 31.857 78.275C31.8979 78.2983 31.9345 78.3223 31.967 78.3469C31.9855 78.3609 32.0027 78.3752 32.0185 78.3896C32.0372 78.4068 32.0541 78.4243 32.0691 78.4422C32.1191 78.5016 32.1548 78.565 32.1762 78.6325C32.1891 78.6712 32.1979 78.7109 32.2031 78.7512C32.207 78.7812 32.2089 78.8115 32.2089 78.842C32.2089 79.0383 32.1415 79.2045 32.0069 79.3394C31.8723 79.4743 31.7 79.5751 31.4909 79.6446C31.2808 79.713 31.0646 79.7473 30.8422 79.7473C30.4424 79.7473 30.0875 79.6375 29.7744 79.418C29.4613 79.1975 29.2553 78.8842 29.1554 78.4764L27.7388 78.6839C27.8122 79.1632 27.9856 79.5761 28.2599 79.9225C28.5343 80.2699 28.8851 80.5357 29.3124 80.7211Z" fill="#949494"/>
<path d="M18 80.8519V73.7586H19.3575V80.8519H18Z" fill="#949494"/>
<path fill-rule="evenodd" clip-rule="evenodd" d="M21.2034 80.8519V73.7586H24.2365C24.3069 73.7586 24.4007 73.7606 24.519 73.7656C24.6363 73.7707 24.7424 73.7817 24.8362 73.7978C25.2645 73.8633 25.6174 74.0033 25.8907 74.2157C26.1651 74.4292 26.367 74.6981 26.4965 75.0214C26.6261 75.3446 26.6913 75.7051 26.6913 76.1019C26.6913 76.4986 26.6261 76.8601 26.4945 77.1834C26.363 77.5067 26.16 77.7745 25.8856 77.988C25.6113 78.2015 25.2615 78.3414 24.8362 78.4069C24.7434 78.42 24.6363 78.4291 24.517 78.4361C24.3977 78.4432 24.3038 78.4462 24.2375 78.4462H22.5619V80.8499H21.2055L21.2034 80.8519ZM22.5598 77.1965H24.1763C24.2467 77.1965 24.3232 77.1935 24.4058 77.1864C24.4884 77.1804 24.5659 77.1663 24.6353 77.1471C24.8178 77.0978 24.9596 77.0152 25.0585 76.8984C25.1585 76.7826 25.2278 76.6527 25.2656 76.5097C25.3033 76.3667 25.3227 76.2308 25.3227 76.1029C25.3227 75.975 25.3033 75.8391 25.2656 75.6971C25.2278 75.5541 25.1585 75.4251 25.0585 75.3073C24.9586 75.1915 24.8178 75.1079 24.6353 75.0586C24.5649 75.0385 24.4884 75.0264 24.4058 75.0193C24.3719 75.0164 24.3389 75.0142 24.3069 75.0126C24.261 75.0103 24.2172 75.0093 24.1763 75.0093H22.5598V77.1965Z" fill="#949494"/>
<path d="M35.1818 80.8519V73.7586H36.5382V80.8519H35.1818Z" fill="#949494"/>
<path d="M40.8288 73.7586V80.8519H42.1853V73.7586H40.8288Z" fill="#949494"/>
<path d="M44.0322 80.8519V73.7586H45.4091L48.5319 78.4875V73.7586H49.9088V80.8519H48.5319L45.4091 76.123V80.8519H44.0322Z" fill="#949494"/>
<path d="M52.9296 80.7211C53.3569 80.9074 53.8363 81 54.3687 81H54.3707C54.7358 81 55.0907 80.9537 55.4354 80.862C55.7791 80.7704 56.0881 80.6314 56.3605 80.4461C56.6328 80.2608 56.85 80.0252 57.0111 79.7412C57.1723 79.4572 57.2529 79.1239 57.2529 78.7433C57.2529 78.3848 57.1855 78.0897 57.0509 77.8561C56.9163 77.6235 56.745 77.4352 56.5369 77.2921C56.3288 77.1502 56.1116 77.0384 55.8862 76.9578C55.6598 76.8773 55.4538 76.8118 55.2672 76.7625L54.0199 76.4282C53.8669 76.3889 53.7169 76.3395 53.5711 76.2801C53.4253 76.2217 53.3039 76.1432 53.207 76.0465C53.1101 75.9498 53.0622 75.8249 53.0622 75.6699C53.0622 75.5027 53.1214 75.3577 53.2396 75.2369C53.3579 75.115 53.5109 75.0223 53.6986 74.9579C53.8863 74.8935 54.0861 74.8653 54.2993 74.8713C54.5155 74.8784 54.7225 74.9227 54.9204 75.0042C55.1182 75.0858 55.2886 75.2056 55.4314 75.3637C55.5751 75.5208 55.6731 75.7152 55.7261 75.9448L57.1927 75.6981C57.0764 75.255 56.8877 74.8793 56.6246 74.5722C56.3615 74.2651 56.0361 74.0315 55.6466 73.8703C55.258 73.7102 54.8153 73.6256 54.3197 73.6196C53.8271 73.6165 53.3784 73.6921 52.9725 73.8462C52.5665 74.0013 52.2422 74.2359 51.9995 74.5511C51.7568 74.8663 51.6354 75.262 51.6354 75.7384C51.6354 76.0767 51.6925 76.3566 51.8077 76.5782C51.923 76.7987 52.0668 76.977 52.2391 77.1119C52.4125 77.2469 52.591 77.3506 52.7756 77.4221C52.8326 77.4445 52.8875 77.4653 52.9402 77.4846C52.9844 77.5008 53.0271 77.5159 53.0682 77.5298C53.1371 77.5531 53.2017 77.5733 53.2621 77.5902L55.1274 78.132C55.2672 78.1743 55.3824 78.2227 55.4742 78.275C55.566 78.3274 55.6363 78.3827 55.6863 78.4422C55.7363 78.5016 55.772 78.565 55.7934 78.6325C55.7981 78.6465 55.8022 78.6607 55.8058 78.6749C55.8086 78.6859 55.8111 78.697 55.8133 78.7082C55.822 78.7521 55.8261 78.7968 55.8261 78.842C55.8261 79.0383 55.7587 79.2045 55.6241 79.3394C55.4895 79.4743 55.3171 79.5751 55.1081 79.6446C54.898 79.713 54.6818 79.7473 54.4594 79.7473C54.0596 79.7473 53.7047 79.6375 53.3916 79.418C53.0785 79.1975 52.8725 78.8842 52.7726 78.4764L51.3559 78.6839C51.4294 79.1632 51.6027 79.5761 51.8771 79.9225C52.1515 80.2699 52.5023 80.5357 52.9296 80.7211Z" fill="#949494"/>
<path d="M60.3645 80.852V75.0103H58.0993V73.7596H63.986V75.0103H61.7209V80.852H60.3645Z" fill="#949494"/>
<path d="M65.2344 73.7586V80.8519H66.5908V73.7586H65.2344Z" fill="#949494"/>
<path d="M70.1032 80.852V75.0103H67.8381V73.7596H73.7248V75.0103H71.4597V80.852H70.1032Z" fill="#949494"/>
<path d="M76.2683 80.6526C76.7077 80.8841 77.2162 80.9999 77.7941 81C78.3719 80.9999 78.8815 80.8841 79.3198 80.6526C79.7594 80.421 80.1021 80.0947 80.3478 79.6748C80.5947 79.2548 80.717 78.7604 80.717 78.1924V73.7586H79.3402V78.1824C79.3402 78.412 79.3014 78.6224 79.2229 78.8127C79.1454 79.0031 79.0363 79.1672 78.8966 79.3052C78.7568 79.4432 78.5926 79.5499 78.405 79.6254C78.2173 79.7019 78.0062 79.7392 77.7941 79.7392C77.582 79.7392 77.381 79.7029 77.1934 79.6284C77.0057 79.5549 76.8405 79.4482 76.6997 79.3102C76.558 79.1722 76.4478 79.0081 76.3673 78.8178C76.2877 78.6275 76.248 78.416 76.248 78.1824V73.7586L74.8711 73.7686V78.1924C74.8711 78.7604 74.9945 79.2548 75.2403 79.6748C75.4871 80.0947 75.8298 80.421 76.2683 80.6526Z" fill="#949494"/>
<path d="M84.1316 80.852V75.0103H81.8664V73.7596H87.7531V75.0103H85.488V80.852H84.1316Z" fill="#949494"/>
<path d="M27.9703 25H18V68.1888H27.9703V25Z" fill="#949494"/>
<path d="M62.8938 60.7218C57.8056 56.3453 54.5318 51.3012 54.5318 44.6901H54.5308C54.5308 33.8154 63.4588 25 74.4724 25V34.8456C68.9671 34.8456 64.5021 39.2522 64.5021 44.6891C64.5021 47.8612 66.1216 50.1048 68.5347 52.425L68.5882 52.4764C72.088 55.8391 74.1994 57.8679 74.4724 64.9875V68.1898H64.5021V63.8103C64.5021 62.5847 63.829 61.5254 62.8938 60.7218Z" fill="#949494"/>
<path d="M77.7829 68.1888H87.7531V25H77.7829V68.1888Z" fill="#949494"/>
<path d="M104.989 32.7308H106.002V38.0237H104.989V32.7308Z" fill="#949494"/>
<path d="M110.81 37.1224C110.654 37.1738 110.492 37.2 110.327 37.2C110.029 37.2 109.764 37.1174 109.53 36.9533C109.298 36.7891 109.144 36.5555 109.07 36.2514L108.013 36.4055C108.067 36.7629 108.196 37.0711 108.401 37.3299C108.606 37.5887 108.868 37.787 109.187 37.925C109.505 38.063 109.863 38.1325 110.261 38.1325C110.534 38.1325 110.798 38.0982 111.055 38.0298C111.312 37.9613 111.543 37.8576 111.746 37.7196C111.949 37.5816 112.111 37.4064 112.231 37.1939C112.351 36.9825 112.412 36.7337 112.412 36.4498C112.412 36.1829 112.362 35.9623 112.261 35.7881C112.16 35.6139 112.032 35.474 111.877 35.3672C111.722 35.2605 111.56 35.1769 111.392 35.1175C111.222 35.0571 111.068 35.0087 110.93 34.9725L109.999 34.7227L109.974 34.7163L109.957 34.7115L109.938 34.7064C109.845 34.6801 109.754 34.6485 109.664 34.6129C109.555 34.5686 109.464 34.5102 109.393 34.4387C109.32 34.3663 109.285 34.2726 109.285 34.1578C109.285 34.0329 109.329 33.9251 109.417 33.8345C109.505 33.7439 109.619 33.6744 109.76 33.6271C109.901 33.5798 110.05 33.5576 110.209 33.5627C110.37 33.5677 110.525 33.6009 110.672 33.6623C110.82 33.7237 110.947 33.8134 111.053 33.9302C111.16 34.048 111.233 34.192 111.272 34.3642L112.367 34.1809C112.28 33.8507 112.138 33.5707 111.942 33.3411C111.747 33.1125 111.503 32.9373 111.213 32.8174C110.923 32.6976 110.593 32.6352 110.223 32.6301C109.856 32.6281 109.521 32.6845 109.218 32.7993C108.915 32.9141 108.674 33.0893 108.492 33.325C108.311 33.5606 108.221 33.8557 108.221 34.2101C108.221 34.4629 108.264 34.6714 108.349 34.8365C108.435 35.0016 108.542 35.1346 108.672 35.2353C108.8 35.336 108.934 35.4125 109.072 35.4669C109.209 35.5213 109.33 35.5626 109.435 35.5918L110.827 35.9956C110.931 36.0278 111.017 36.063 111.086 36.1023C111.09 36.1048 111.094 36.1073 111.099 36.1098L111.108 36.1154L111.117 36.1214C111.125 36.126 111.132 36.1306 111.139 36.1352C111.156 36.1468 111.172 36.1586 111.186 36.1706C111.209 36.189 111.228 36.2078 111.244 36.2272C111.282 36.2715 111.308 36.3188 111.324 36.3682C111.34 36.4185 111.349 36.4709 111.349 36.5243C111.349 36.6713 111.299 36.7951 111.198 36.8958C111.097 36.9965 110.97 37.0721 110.812 37.1234L110.81 37.1224Z" fill="#949494"/>
<path d="M116.602 38.0227H115.59V33.6643H113.9V32.7308H118.292V33.6643H116.602V38.0227Z" fill="#949494"/>
<path fill-rule="evenodd" clip-rule="evenodd" d="M121.016 36.2292H122.145L123.025 38.0227H124.172L123.201 36.056C123.434 35.9533 123.625 35.8113 123.763 35.617C123.986 35.3018 124.097 34.9231 124.097 34.48C124.097 34.183 124.049 33.9151 123.953 33.6734C123.856 33.4318 123.705 33.2324 123.501 33.0722C123.296 32.9131 123.034 32.8094 122.713 32.76C122.644 32.748 122.565 32.7399 122.477 32.7359C122.389 32.7319 122.319 32.7299 122.267 32.7299H120.004V38.0227H121.016V36.2292ZM121.016 33.6643H122.222C122.274 33.6643 122.331 33.6664 122.393 33.6714C122.455 33.6764 122.512 33.6855 122.564 33.7006C122.701 33.7379 122.807 33.7993 122.881 33.8859C122.955 33.9725 123.006 34.0692 123.036 34.1759C123.064 34.2827 123.078 34.3834 123.078 34.4791C123.078 34.5747 123.064 34.6754 123.036 34.7821C123.007 34.8889 122.955 34.9856 122.881 35.0721C122.806 35.1588 122.701 35.2212 122.564 35.2575C122.512 35.2726 122.455 35.2826 122.393 35.2867C122.356 35.2897 122.321 35.2916 122.288 35.2926C122.265 35.2934 122.243 35.2937 122.222 35.2937H121.016V33.6643Z" fill="#949494"/>
<path fill-rule="evenodd" clip-rule="evenodd" d="M129.136 36.92H127.118L126.779 38.0227H125.736L127.374 32.7299H128.885L130.523 38.0227H129.48L129.136 36.92ZM128.119 33.6674L127.405 35.9865H128.844L128.119 33.6674Z" fill="#949494"/>
<path d="M135.696 31.5547L135.339 30.9263L134.356 31.4258L133.374 30.9263L133.016 31.5547L134.356 32.2455L135.696 31.5547Z" fill="#949494"/>
<path d="M133.947 37.0821H136.403V38.0227H132.16V37.8978L134.706 33.6643H132.384V32.7308H136.478V32.8557L133.947 37.0821Z" fill="#949494"/>
<path d="M139.575 32.7308H138.562V38.0237H139.575V32.7308Z" fill="#949494"/>
<path d="M146.11 32.7308L144.473 38.0227H142.962L141.324 32.7308H142.366L143.706 37.0821L145.069 32.7308H146.11Z" fill="#949494"/>
<path fill-rule="evenodd" clip-rule="evenodd" d="M148.275 36.92H150.293L150.637 38.0227H151.68L150.042 32.7299H148.531L146.894 38.0227H147.936L148.275 36.92ZM148.562 35.9865L149.276 33.6674L150.001 35.9865H148.562Z" fill="#949494"/>
<path d="M156.824 38.0227L154.494 34.4951V38.0227H153.467V32.7308H154.494L156.824 36.2584V32.7308H157.851V38.0227H156.824Z" fill="#949494"/>
<path d="M160.078 37.8103C160.355 38.0257 160.708 38.1335 161.134 38.1335C161.43 38.1335 161.699 38.0751 161.942 37.9573C162.184 37.8395 162.382 37.6511 162.533 37.3913C162.603 37.2735 162.65 37.1607 162.673 37.051C162.696 36.9422 162.709 36.8244 162.711 36.6995L162.711 36.6515L162.711 36.5727L162.712 36.5122V36.5104C162.712 36.4327 162.713 36.3488 162.713 36.2584V32.7299H161.686V36.2584C161.686 36.3934 161.683 36.5122 161.679 36.6149C161.674 36.7176 161.656 36.8053 161.627 36.8757C161.58 36.9885 161.502 37.0701 161.394 37.1225C161.286 37.1738 161.185 37.2 161.09 37.2C160.953 37.2 160.825 37.1506 160.704 37.051C160.582 36.9512 160.51 36.8344 160.487 36.6995L159.49 36.9341C159.606 37.3017 159.803 37.5937 160.079 37.8092L160.078 37.8103Z" fill="#949494"/>
<path d="M165.957 37.0892H168.443V38.0227H164.945V32.7308H168.443V33.6643H165.957V34.7962H167.997V35.7297H165.957V37.0892Z" fill="#949494"/>
<path d="M106.002 40.7739H104.989V46.0667H106.002V40.7739Z" fill="#949494"/>
<path fill-rule="evenodd" clip-rule="evenodd" d="M111.853 46.0657H110.84V40.7728H113.103C113.124 40.7728 113.148 40.7732 113.175 40.7738L113.209 40.7748C113.241 40.7758 113.275 40.7772 113.313 40.7789C113.402 40.7829 113.48 40.791 113.55 40.803C113.87 40.8524 114.132 40.9561 114.337 41.1152C114.541 41.2754 114.692 41.4747 114.789 41.7164C114.886 41.9581 114.934 42.227 114.934 42.523C114.934 42.8191 114.885 43.088 114.787 43.3297C114.689 43.5713 114.538 43.7717 114.333 43.9308C114.129 44.0899 113.868 44.1937 113.55 44.243C113.479 44.2531 113.4 44.2601 113.311 44.2652L113.284 44.2667L113.253 44.2682L113.233 44.2691L113.205 44.2701C113.187 44.2708 113.171 44.2713 113.156 44.2716C113.136 44.272 113.119 44.2722 113.103 44.2722H111.853V46.0657ZM113.058 41.7073H111.853V43.3367H113.058L113.074 43.3366L113.091 43.3364C113.101 43.3363 113.11 43.336 113.12 43.3357C113.155 43.3347 113.191 43.3327 113.23 43.3297C113.292 43.3256 113.349 43.3155 113.401 43.3004C113.538 43.2642 113.643 43.2018 113.717 43.1151C113.792 43.0285 113.844 42.9319 113.872 42.8251C113.901 42.7184 113.915 42.6177 113.915 42.522C113.915 42.4263 113.901 42.3256 113.872 42.2189C113.842 42.1121 113.792 42.0155 113.717 41.9289C113.644 41.8423 113.538 41.7808 113.401 41.7436C113.395 41.7418 113.388 41.74 113.382 41.7383C113.376 41.7369 113.37 41.7355 113.365 41.7342C113.354 41.7318 113.343 41.7296 113.333 41.7276L113.325 41.7262L113.313 41.7243L113.299 41.7222C113.29 41.7208 113.281 41.7196 113.271 41.7185C113.258 41.7169 113.244 41.7155 113.23 41.7144C113.167 41.7093 113.11 41.7073 113.058 41.7073Z" fill="#949494"/>
<path fill-rule="evenodd" clip-rule="evenodd" d="M116.796 46.0657H117.809V44.2722H118.938L119.818 46.0657H120.964L119.993 44.099C120.227 43.9963 120.418 43.8543 120.555 43.6599C120.779 43.3447 120.89 42.9661 120.89 42.523C120.89 42.226 120.842 41.9581 120.745 41.7164C120.648 41.4747 120.497 41.2754 120.293 41.1152C120.088 40.9561 119.826 40.8524 119.506 40.803C119.436 40.791 119.358 40.7829 119.269 40.7789C119.182 40.7748 119.111 40.7728 119.059 40.7728H116.796V46.0657ZM117.809 41.7073H119.014C119.024 41.7073 119.035 41.7074 119.045 41.7075C119.056 41.7077 119.068 41.708 119.079 41.7083C119.113 41.7094 119.148 41.7114 119.186 41.7144C119.248 41.7194 119.305 41.7285 119.357 41.7436C119.494 41.7808 119.6 41.8423 119.673 41.9289C119.748 42.0155 119.799 42.1121 119.828 42.2189C119.857 42.3256 119.871 42.4263 119.871 42.522C119.871 42.6177 119.857 42.7184 119.828 42.8251C119.82 42.8569 119.809 42.8878 119.796 42.9178C119.788 42.9372 119.779 42.9563 119.769 42.9749C119.764 42.9856 119.758 42.9962 119.751 43.0066C119.746 43.0151 119.741 43.0235 119.736 43.0318C119.726 43.0465 119.716 43.061 119.705 43.0752C119.695 43.0888 119.684 43.102 119.673 43.1151C119.599 43.2018 119.494 43.2642 119.357 43.3004C119.305 43.3155 119.248 43.3256 119.186 43.3297C119.123 43.3347 119.066 43.3367 119.014 43.3367H117.809V41.7073Z" fill="#949494"/>
<path fill-rule="evenodd" clip-rule="evenodd" d="M122.602 43.4193C122.602 42.8704 122.706 42.3891 122.916 41.9752C123.125 41.5613 123.424 41.2391 123.813 41.0085C124.201 40.7779 124.664 40.6631 125.2 40.6631C125.735 40.6631 126.197 40.7779 126.586 41.0085C126.974 41.2391 127.273 41.5613 127.483 41.9752C127.693 42.3891 127.797 42.8704 127.797 43.4193C127.797 43.9681 127.693 44.4495 127.483 44.8633C127.273 45.2772 126.974 45.5995 126.586 45.8301C126.197 46.0607 125.736 46.1755 125.2 46.1755C124.663 46.1755 124.201 46.0596 123.813 45.8301C123.425 45.5995 123.126 45.2772 122.916 44.8633C122.707 44.4495 122.602 43.9681 122.602 43.4193ZM125.2 41.6047C124.86 41.5996 124.577 41.6721 124.351 41.8211C124.126 41.9702 123.957 42.1827 123.843 42.4566C123.73 42.7305 123.674 43.0517 123.674 43.4193C123.674 43.7868 123.73 44.1051 123.843 44.3749C123.956 44.6448 124.125 44.8543 124.351 45.0033C124.577 45.1524 124.86 45.2299 125.2 45.2349C125.539 45.24 125.822 45.1675 126.048 45.0184C126.274 44.8694 126.443 44.6579 126.556 44.383C126.668 44.1091 126.726 43.7878 126.726 43.4203C126.726 43.0527 126.669 42.7345 126.556 42.4646C126.443 42.1947 126.274 41.9853 126.048 41.8362C125.823 41.6872 125.539 41.6097 125.2 41.6047Z" fill="#949494"/>
<path d="M130.136 44.7435L129.139 44.9781C129.255 45.3457 129.452 45.6377 129.728 45.8532C130.004 46.0687 130.357 46.1765 130.784 46.1765C131.079 46.1765 131.349 46.1181 131.591 46.0003C131.834 45.8824 132.032 45.6941 132.183 45.4343C132.252 45.3165 132.299 45.2037 132.323 45.0939C132.346 44.9852 132.358 44.8674 132.36 44.7425C132.36 44.6907 132.361 44.6351 132.361 44.5758C132.362 44.4919 132.362 44.4005 132.362 44.3014V40.7728H131.335L131.335 44.3279C131.335 44.3556 131.335 44.3826 131.335 44.409L131.334 44.4594C131.333 44.5311 131.331 44.5973 131.328 44.6579C131.323 44.7606 131.306 44.8482 131.276 44.9187C131.229 45.0315 131.152 45.1131 131.044 45.1654C130.936 45.2168 130.835 45.243 130.74 45.243C130.603 45.243 130.475 45.1936 130.353 45.0939C130.232 44.9942 130.159 44.8774 130.137 44.7425L130.136 44.7435Z" fill="#949494"/>
<path d="M138.094 40.7739V41.7074H135.608V42.8392H137.647V43.7727H135.608V45.1322H138.094V46.0657H134.595V40.7739H138.094Z" fill="#949494"/>
<path d="M141.116 43.6549L143.253 46.0657H144.534L142.151 43.3831L144.392 40.7739H143.156L141.116 43.2139V40.7739H140.104V46.0657H141.116V43.6549Z" fill="#949494"/>
<path d="M148.426 41.7074V46.0657H147.414V41.7074H145.724V40.7739H150.116V41.7074H148.426Z" fill="#949494"/>
<path fill-rule="evenodd" clip-rule="evenodd" d="M151.845 44.8644C152.055 45.2782 152.354 45.6005 152.741 45.8311C153.13 46.0607 153.592 46.1765 154.128 46.1765C154.665 46.1765 155.126 46.0617 155.514 45.8311C155.903 45.6005 156.202 45.2782 156.412 44.8644C156.622 44.4505 156.726 43.9691 156.726 43.4203C156.726 42.8715 156.622 42.3901 156.412 41.9762C156.202 41.5624 155.903 41.2401 155.514 41.0095C155.126 40.7789 154.664 40.6641 154.128 40.6641C153.593 40.6641 153.13 40.7789 152.741 41.0095C152.353 41.2401 152.054 41.5624 151.845 41.9762C151.635 42.3901 151.531 42.8715 151.531 43.4203C151.531 43.9691 151.636 44.4505 151.845 44.8644ZM152.772 42.4576C152.885 42.1837 153.055 41.9712 153.28 41.8222C153.505 41.6731 153.789 41.6006 154.128 41.6057C154.468 41.6107 154.752 41.6882 154.977 41.8373C155.202 41.9863 155.372 42.1958 155.485 42.4657C155.598 42.7355 155.654 43.0538 155.654 43.4213C155.654 43.7889 155.597 44.1101 155.485 44.384C155.372 44.6589 155.202 44.8704 154.977 45.0194C154.751 45.1685 154.468 45.241 154.128 45.2359C153.789 45.2309 153.505 45.1534 153.28 45.0044C153.054 44.8553 152.884 44.6458 152.772 44.376C152.659 44.1061 152.603 43.7879 152.603 43.4203C152.603 43.0528 152.659 42.7315 152.772 42.4576Z" fill="#949494"/>
<path d="M162.667 40.7739L161.029 46.0657H159.517L157.881 40.7739H158.923L160.263 45.1252L161.625 40.7739H162.667Z" fill="#949494"/>
<path fill-rule="evenodd" clip-rule="evenodd" d="M164.831 44.964H166.848L167.193 46.0667H168.235L166.597 40.7739H165.087L163.449 46.0667H164.491L164.831 44.964ZM165.118 44.0305L165.832 41.7114L166.557 44.0305H165.118Z" fill="#949494"/>
<path d="M170.022 40.7739H171.049L173.38 44.3024V40.7739H174.407V46.0657H173.38L171.049 42.5382V46.0657H170.022V40.7739Z" fill="#949494"/>
<path d="M178.24 44.3024C178.24 44.4374 178.237 44.5562 178.233 44.6589C178.228 44.7616 178.211 44.8492 178.181 44.9197C178.134 45.0325 178.057 45.1141 177.949 45.1664C177.873 45.2026 177.8 45.2262 177.731 45.2371C177.701 45.2416 177.673 45.244 177.645 45.244C177.508 45.244 177.38 45.1946 177.258 45.0949C177.137 44.9953 177.064 44.8784 177.042 44.7435L176.045 44.9781C176.161 45.3457 176.358 45.6377 176.634 45.8532C176.91 46.0687 177.263 46.1765 177.69 46.1765C177.985 46.1765 178.255 46.1181 178.497 46.0003C178.74 45.8824 178.938 45.6941 179.089 45.4343C179.158 45.3165 179.205 45.2037 179.229 45.0939C179.252 44.9852 179.264 44.8674 179.266 44.7425C179.266 44.6176 179.268 44.4706 179.268 44.3014V40.7728H178.241V44.3014L178.24 44.3024Z" fill="#949494"/>
<path d="M185 40.7739V41.7074H182.514V42.8392H184.553V43.7727H182.514V45.1322H185V46.0657H181.501V40.7739H185Z" fill="#949494"/>
<path d="M108.91 53.2809C109.031 53.0695 109.091 52.8207 109.091 52.5368C109.091 52.2699 109.041 52.0494 108.94 51.8751C108.839 51.7009 108.712 51.5609 108.556 51.4542C108.401 51.3475 108.239 51.2649 108.071 51.2045C107.902 51.1441 107.748 51.0957 107.609 51.0595L106.678 50.8097C106.608 50.7919 106.539 50.771 106.472 50.7474C106.428 50.7323 106.386 50.7162 106.343 50.6989C106.234 50.6546 106.143 50.5963 106.072 50.5247C106 50.4532 105.964 50.3586 105.964 50.2438C105.964 50.1189 106.008 50.0112 106.097 49.9205C106.184 49.8299 106.299 49.7604 106.439 49.7131C106.58 49.6648 106.729 49.6436 106.888 49.6487C107.049 49.6537 107.204 49.6869 107.351 49.7483C107.499 49.8098 107.626 49.8994 107.732 50.0172C107.84 50.1351 107.912 50.279 107.952 50.4502L109.046 50.267C108.959 49.9366 108.818 49.6567 108.622 49.4271C108.426 49.1975 108.182 49.0233 107.893 48.9035C107.602 48.7836 107.272 48.7212 106.902 48.7161C106.535 48.7131 106.201 48.7695 105.898 48.8853C105.595 49.0011 105.353 49.1753 105.172 49.411C104.99 49.6466 104.9 49.9417 104.9 50.2961C104.9 50.5489 104.943 50.7574 105.029 50.9225C105.114 51.0877 105.222 51.2206 105.351 51.3213C105.481 51.422 105.613 51.4986 105.751 51.5529C105.889 51.6073 106.009 51.6486 106.114 51.6778L107.506 52.0816C107.521 52.0862 107.536 52.0909 107.551 52.0957C107.573 52.1029 107.593 52.1102 107.613 52.1178C107.639 52.1277 107.664 52.1379 107.687 52.1485C107.698 52.1536 107.709 52.1587 107.719 52.1638C107.735 52.1718 107.751 52.18 107.765 52.1883C107.833 52.2276 107.886 52.2689 107.923 52.3132C107.961 52.3575 107.987 52.4049 108.004 52.4552C108.019 52.5056 108.028 52.5579 108.028 52.6113C108.028 52.7583 107.978 52.8822 107.877 52.9829C107.776 53.0836 107.649 53.1591 107.492 53.2105C107.336 53.2618 107.174 53.288 107.008 53.288C106.711 53.288 106.445 53.2064 106.212 53.0423C105.979 52.8781 105.825 52.6445 105.751 52.3404L104.694 52.4955C104.748 52.853 104.878 53.1611 105.083 53.4199C105.288 53.6787 105.549 53.8771 105.868 54.0151C106.186 54.154 106.544 54.2225 106.942 54.2225C107.215 54.2225 107.48 54.1883 107.737 54.1198C107.994 54.0513 108.224 53.9476 108.427 53.8096C108.63 53.6716 108.792 53.4954 108.912 53.284L108.91 53.2809Z" fill="#949494"/>
<path fill-rule="evenodd" clip-rule="evenodd" d="M113.803 48.8169L115.441 54.1098H114.399L114.055 53.0071H112.036L111.697 54.1098H110.654L112.292 48.8169H113.803ZM113.037 49.7534L112.323 52.0736H113.762L113.037 49.7534Z" fill="#949494"/>
<path fill-rule="evenodd" clip-rule="evenodd" d="M121.663 52.9073C121.873 52.4935 121.977 52.0121 121.977 51.4633C121.977 50.9145 121.873 50.4331 121.663 50.0192C121.453 49.6053 121.154 49.2831 120.765 49.0525C120.377 48.8229 119.915 48.7071 119.379 48.7071C118.844 48.7071 118.381 48.8219 117.992 49.0525C117.604 49.2831 117.305 49.6053 117.096 50.0192C116.886 50.4331 116.782 50.9145 116.782 51.4633C116.782 52.0121 116.887 52.4935 117.096 52.9073C117.306 53.3212 117.605 53.6435 117.992 53.8741C118.381 54.1047 118.843 54.2195 119.379 54.2195C119.916 54.2195 120.377 54.1047 120.765 53.8741C121.154 53.6445 121.453 53.3212 121.663 52.9073ZM120.228 53.0614C120.002 53.2105 119.719 53.283 119.379 53.2789C119.04 53.2739 118.756 53.1973 118.531 53.0473C118.304 52.8983 118.135 52.6878 118.023 52.4189C117.91 52.1491 117.854 51.8308 117.854 51.4633C117.854 51.0957 117.91 50.7745 118.023 50.5006C118.136 50.2267 118.305 50.0142 118.531 49.8652C118.756 49.7161 119.04 49.6436 119.379 49.6476C119.719 49.6527 120.003 49.7302 120.228 49.8793C120.453 50.0283 120.623 50.2378 120.736 50.5076C120.849 50.7775 120.905 51.0957 120.905 51.4633C120.905 51.8308 120.848 52.1521 120.736 52.426C120.623 52.6999 120.453 52.9124 120.228 53.0614Z" fill="#949494"/>
<path fill-rule="evenodd" clip-rule="evenodd" d="M127.59 50.3012C127.59 50.5983 127.523 50.845 127.387 51.0403C127.304 51.1612 127.194 51.2488 127.072 51.3203C127.289 51.4029 127.46 51.5328 127.584 51.709C127.753 51.9466 127.836 52.2125 127.836 52.5065C127.836 52.8217 127.777 53.1007 127.66 53.3404C127.542 53.58 127.363 53.7684 127.122 53.9043C126.882 54.0402 126.579 54.1087 126.214 54.1087H123.839V48.8159H125.983C126.366 48.8159 126.675 48.8914 126.91 49.0424C127.146 49.1935 127.318 49.3828 127.427 49.6104C127.535 49.838 127.59 50.0686 127.59 50.3012ZM125.967 49.7503H124.865V50.8822H125.967C126.081 50.8822 126.183 50.8631 126.272 50.8238C126.361 50.7845 126.432 50.7231 126.484 50.6416C126.536 50.559 126.562 50.4532 126.562 50.3234C126.562 50.1622 126.511 50.0263 126.409 49.9155C126.307 49.8058 126.161 49.7503 125.967 49.7503ZM126.679 52.907C126.684 52.9007 126.688 52.8944 126.693 52.8879C126.7 52.8786 126.706 52.8691 126.712 52.8593C126.716 52.8526 126.72 52.8458 126.725 52.8389L126.723 52.8399C126.784 52.7351 126.814 52.6123 126.814 52.4703C126.814 52.4602 126.814 52.4502 126.814 52.4402C126.814 52.4342 126.813 52.4283 126.813 52.4224C126.812 52.4098 126.811 52.3974 126.81 52.3852C126.807 52.356 126.802 52.3277 126.796 52.3002C126.783 52.2417 126.763 52.1869 126.736 52.136C126.685 52.0383 126.605 51.9598 126.5 51.9023C126.394 51.8439 126.264 51.8158 126.107 51.8158H124.864V53.1682H126.107C126.244 53.1682 126.366 53.139 126.473 53.0815C126.549 53.0405 126.614 52.9877 126.667 52.9228L126.672 52.9159L126.679 52.907Z" fill="#949494"/>
<path fill-rule="evenodd" clip-rule="evenodd" d="M132.719 54.1098H133.865L132.894 52.143C133.127 52.0404 133.318 51.8984 133.456 51.704C133.679 51.3898 133.79 51.0101 133.79 50.5671C133.79 50.271 133.742 50.0021 133.645 49.7605C133.548 49.5188 133.398 49.3194 133.194 49.1593C132.989 49.0001 132.726 48.8954 132.406 48.8471C132.377 48.8419 132.345 48.8375 132.312 48.8338C132.268 48.8289 132.22 48.8252 132.17 48.8229C132.082 48.8189 132.012 48.8169 131.96 48.8169H129.696V54.1098H130.709V52.3163H131.839L132.719 54.1098ZM130.708 49.7514H131.914C131.966 49.7514 132.023 49.7534 132.085 49.7585C132.147 49.7635 132.204 49.7736 132.256 49.7877C132.393 49.8239 132.499 49.8863 132.572 49.9729C132.608 50.0139 132.638 50.0572 132.663 50.1027C132.678 50.1313 132.692 50.1608 132.704 50.1911C132.713 50.2145 132.721 50.2385 132.727 50.2629C132.756 50.3697 132.77 50.4704 132.77 50.5661C132.77 50.6617 132.756 50.7624 132.727 50.8692C132.699 50.9759 132.647 51.0726 132.572 51.1592C132.498 51.2458 132.393 51.3083 132.256 51.3445C132.237 51.3502 132.217 51.3551 132.196 51.3593C132.161 51.3663 132.124 51.3712 132.085 51.3737C132.055 51.3761 132.027 51.3778 132 51.379C131.97 51.3802 131.941 51.3807 131.914 51.3807H130.708V49.7514Z" fill="#949494"/>
<path fill-rule="evenodd" clip-rule="evenodd" d="M139.173 54.1098L138.828 53.0071H136.811L136.471 54.1098H135.429L137.067 48.8169H138.577L140.215 54.1098H139.173ZM137.812 49.7534L137.098 52.0736H138.537L137.812 49.7534Z" fill="#949494"/>
<path d="M143.729 48.266H144.726L145.01 47.3839H144.011L143.729 48.266Z" fill="#949494"/>
<path d="M146.589 52.5438C146.417 53.0584 146.122 53.4663 145.704 53.7673C145.286 54.0694 144.769 54.2195 144.154 54.2195C143.618 54.2195 143.156 54.1047 142.767 53.8741C142.38 53.6435 142.081 53.3212 141.871 52.9073C141.662 52.4935 141.557 52.0121 141.557 51.4633C141.557 50.9145 141.661 50.4331 141.871 50.0192C142.08 49.6053 142.379 49.2831 142.767 49.0525C143.156 48.8219 143.618 48.7071 144.154 48.7071C144.769 48.7071 145.286 48.8581 145.704 49.1593C146.122 49.4603 146.417 49.8682 146.589 50.3828L145.569 50.6617C145.469 50.3405 145.301 50.0917 145.066 49.9135C144.83 49.7352 144.526 49.6466 144.154 49.6466C143.814 49.6466 143.531 49.7222 143.304 49.8712C143.076 50.0212 142.906 50.2317 142.792 50.5036C142.677 50.7755 142.62 51.0957 142.62 51.4633C142.62 51.8308 142.677 52.1511 142.792 52.423C142.906 52.6949 143.077 52.9064 143.304 53.0554C143.531 53.2044 143.814 53.2789 144.154 53.2789C144.526 53.2789 144.83 53.1903 145.066 53.0111C145.301 52.8318 145.47 52.5831 145.569 52.2649L146.589 52.5438Z" fill="#949494"/>
<path fill-rule="evenodd" clip-rule="evenodd" d="M151.402 53.0071L151.747 54.1098H152.789L151.151 48.8169H149.641L148.003 54.1098H149.045L149.385 53.0071H151.402ZM149.672 52.0736L150.386 49.7534L151.111 52.0736H149.672Z" fill="#949494"/>
<path d="M157.239 53.137C157.216 53.2467 157.169 53.3595 157.099 53.4773H157.1C156.949 53.7371 156.752 53.9255 156.509 54.0433C156.266 54.1611 155.997 54.2195 155.701 54.2195C155.275 54.2195 154.922 54.1117 154.646 53.8963C154.369 53.6797 154.172 53.3887 154.056 53.0211L155.054 52.7855C155.076 52.9205 155.148 53.0372 155.27 53.137C155.391 53.2366 155.52 53.286 155.656 53.286C155.751 53.286 155.852 53.2598 155.96 53.2085C156.068 53.1571 156.146 53.0745 156.193 52.9617C156.208 52.9263 156.219 52.8865 156.228 52.8426C156.237 52.7993 156.242 52.752 156.245 52.7009C156.249 52.5982 156.252 52.4794 156.252 52.3444V48.8159H157.279V52.3444L157.279 52.3906L157.279 52.4626L157.278 52.5463L157.278 52.5982C157.277 52.6654 157.277 52.7278 157.277 52.7855C157.275 52.9114 157.263 53.0282 157.239 53.137Z" fill="#949494"/>
<path d="M159.511 54.1098H160.538V50.5812L162.869 54.1098H163.896V48.8169H162.869V52.3455L160.538 48.8169H159.511V54.1098Z" fill="#949494"/>
<path d="M169.553 48.8169V49.7504H167.068V50.8822H169.106V51.8158H167.068V53.1752H169.553V54.1098H166.055V48.8169H169.553Z" fill="#949494"/>
<path d="M106.002 56.8599H104.989V62.1527H106.002V56.8599Z" fill="#949494"/>
<path d="M108.235 56.8599H109.262L111.592 60.3884V56.8599H112.62V62.1527H111.592L109.262 58.6242V62.1527H108.235V56.8599Z" fill="#949494"/>
<path d="M114.778 62.1527H115.79V60.0058H117.607V59.0068H115.79V57.8598H118.054V56.8599H114.778V62.1527Z" fill="#949494"/>
<path fill-rule="evenodd" clip-rule="evenodd" d="M123.934 58.61C123.934 59.0531 123.823 59.4328 123.6 59.747H123.601C123.463 59.9413 123.272 60.0833 123.039 60.186L124.01 62.1527H122.863L121.983 60.3592H120.853V62.1527H119.84V56.8599H122.103C122.123 56.8599 122.145 56.8602 122.17 56.8607C122.194 56.8612 122.221 56.8621 122.25 56.8632C122.27 56.864 122.291 56.8649 122.314 56.8659C122.402 56.8699 122.481 56.878 122.55 56.8901C122.87 56.9384 123.133 57.0431 123.338 57.2022C123.541 57.3624 123.692 57.5618 123.789 57.8034C123.886 58.0451 123.934 58.314 123.934 58.61ZM122.059 57.7934H120.853V59.4227H122.059C122.111 59.4227 122.168 59.4207 122.23 59.4157C122.292 59.4116 122.349 59.4016 122.401 59.3864C122.538 59.3502 122.643 59.2878 122.717 59.2012C122.792 59.1146 122.844 59.0179 122.872 58.9112C122.901 58.8044 122.915 58.7037 122.915 58.608C122.915 58.5124 122.901 58.4117 122.872 58.3049C122.843 58.1982 122.792 58.1015 122.717 58.0149C122.644 57.9283 122.538 57.8659 122.401 57.8296C122.349 57.8155 122.292 57.8055 122.23 57.8004C122.168 57.7954 122.111 57.7934 122.059 57.7934Z" fill="#949494"/>
<path fill-rule="evenodd" clip-rule="evenodd" d="M127.21 56.8599L125.572 62.1527H126.614L126.954 61.05H128.972L129.317 62.1527H130.359L128.721 56.8599H127.21ZM127.241 60.1165L127.954 57.7964L128.68 60.1165H127.241Z" fill="#949494"/>
<path d="M135.154 59.2475C135.183 59.2581 135.213 59.2695 135.242 59.2815C135.281 59.2973 135.319 59.3144 135.357 59.3327C135.453 59.3794 135.548 59.4341 135.639 59.4972L135.641 59.5003C135.796 59.607 135.924 59.747 136.025 59.9212C136.126 60.0954 136.176 60.316 136.176 60.5828C136.176 60.8668 136.116 61.1155 135.995 61.327C135.875 61.5384 135.713 61.7147 135.51 61.8526C135.307 61.9906 135.076 62.0943 134.819 62.1628C134.562 62.2313 134.298 62.2655 134.025 62.2655C133.627 62.2655 133.269 62.197 132.951 62.0581C132.632 61.9201 132.371 61.7217 132.166 61.4629C131.961 61.2041 131.831 60.896 131.777 60.5385L132.834 60.3834C132.908 60.6875 133.062 60.9212 133.295 61.0853C133.528 61.2495 133.793 61.331 134.091 61.331C134.256 61.331 134.418 61.3048 134.574 61.2535C134.732 61.2021 134.859 61.1266 134.96 61.0259C135.061 60.9252 135.111 60.8013 135.111 60.6543C135.111 60.6216 135.107 60.5893 135.101 60.5576C135.097 60.5376 135.092 60.5178 135.086 60.4982C135.07 60.4479 135.044 60.4005 135.006 60.3562C134.969 60.3119 134.916 60.2706 134.848 60.2313C134.779 60.1921 134.693 60.1558 134.589 60.1246L133.197 59.7208C133.092 59.6916 132.971 59.6503 132.834 59.5959C132.696 59.5416 132.563 59.465 132.434 59.3643C132.304 59.2636 132.197 59.1307 132.111 58.9655C132.026 58.8004 131.983 58.5919 131.983 58.3392C131.983 57.9847 132.073 57.6897 132.254 57.454C132.436 57.2184 132.678 57.0442 132.98 56.9284C133.283 56.8126 133.618 56.7562 133.985 56.7592C134.355 56.7642 134.685 56.8266 134.975 56.9465C135.265 57.0663 135.509 57.2405 135.704 57.4701C135.9 57.6997 136.042 57.9797 136.129 58.31L135.034 58.4933C134.995 58.322 134.922 58.1781 134.815 58.0602C134.709 57.9424 134.582 57.8528 134.434 57.7914C134.287 57.7299 134.132 57.6967 133.971 57.6917C133.812 57.6866 133.663 57.7078 133.522 57.7561C133.381 57.8034 133.267 57.8729 133.179 57.9635C133.091 58.0542 133.047 58.1619 133.047 58.2868C133.047 58.4016 133.082 58.4963 133.155 58.5678C133.226 58.6392 133.317 58.6977 133.426 58.742C133.535 58.7863 133.646 58.8235 133.761 58.8527L134.692 59.1025C134.762 59.1209 134.836 59.1424 134.915 59.167C134.991 59.1909 135.07 59.2177 135.154 59.2475Z" fill="#949494"/>
<path d="M137.662 57.7944H139.352V62.1527H140.364V57.7944H142.054V56.8599H137.662V57.7944Z" fill="#949494"/>
<path fill-rule="evenodd" clip-rule="evenodd" d="M147.86 58.61C147.86 59.0531 147.749 59.4328 147.526 59.747H147.527C147.389 59.9413 147.198 60.0833 146.965 60.186L147.936 62.1527H146.79L145.909 60.3592H144.779V62.1527H143.767V56.8599H146.03C146.082 56.8599 146.152 56.8619 146.24 56.8659C146.329 56.8699 146.407 56.878 146.476 56.8901C146.797 56.9384 147.059 57.0431 147.264 57.2022C147.468 57.3624 147.619 57.5618 147.716 57.8034C147.812 58.0451 147.86 58.314 147.86 58.61ZM145.985 57.7934H144.779V59.4227H145.985C146.014 59.4227 146.044 59.4221 146.076 59.4207C146.102 59.4195 146.128 59.4179 146.156 59.4157C146.191 59.4134 146.224 59.4093 146.256 59.4034C146.281 59.3988 146.305 59.3931 146.327 59.3864C146.464 59.3502 146.569 59.2878 146.644 59.2012C146.718 59.1146 146.77 59.0179 146.799 58.9112C146.827 58.8044 146.841 58.7037 146.841 58.608C146.841 58.5124 146.827 58.4117 146.799 58.3049C146.769 58.1982 146.718 58.1015 146.644 58.0149C146.57 57.9283 146.464 57.8659 146.327 57.8296C146.299 57.822 146.27 57.8155 146.239 57.8104C146.225 57.8082 146.211 57.8062 146.197 57.8045C146.184 57.8029 146.17 57.8015 146.156 57.8004C146.094 57.7954 146.037 57.7934 145.985 57.7934Z" fill="#949494"/>
<path d="M153.205 60.1608C153.205 60.332 153.176 60.4891 153.118 60.6311C153.06 60.7731 152.978 60.896 152.874 60.9987C152.77 61.1014 152.648 61.181 152.507 61.2374C152.367 61.2937 152.215 61.3219 152.051 61.3219C151.887 61.3219 151.743 61.2937 151.602 61.2394C151.463 61.184 151.339 61.1054 151.234 61.0027C151.129 60.9 151.046 60.7771 150.986 60.6352C150.927 60.4932 150.898 60.335 150.898 60.1608V56.8608L149.871 56.8679V60.1679C149.871 60.5919 149.962 60.9604 150.146 61.2746C150.329 61.5888 150.585 61.8315 150.913 62.0037C151.24 62.1769 151.62 62.2625 152.052 62.2625C152.484 62.2625 152.864 62.1759 153.191 62.0037C153.519 61.8315 153.775 61.5878 153.958 61.2746C154.142 60.9604 154.234 60.5919 154.234 60.1679V56.8599H153.207V60.1598L153.205 60.1608Z" fill="#949494"/>
<path d="M159.444 56.8599H160.679L158.438 59.47L160.821 62.1527H159.541L157.404 59.7419V62.1527H156.392V56.8599H157.404V59.3009L159.444 56.8599Z" fill="#949494"/>
<path d="M162.012 57.7944H163.702V62.1527H164.714V57.7944H166.404V56.8599H162.012V57.7944Z" fill="#949494"/>
<path d="M171.363 60.6311C171.421 60.4891 171.451 60.332 171.451 60.1608L171.452 60.1598V56.8599H172.479V60.1679C172.479 60.5919 172.387 60.9604 172.204 61.2746C172.02 61.5878 171.764 61.8315 171.437 62.0037C171.109 62.1759 170.73 62.2625 170.298 62.2625C169.865 62.2625 169.486 62.1769 169.158 62.0037C168.831 61.8315 168.575 61.5888 168.391 61.2746C168.208 60.9604 168.116 60.5919 168.116 60.1679V56.8679L169.143 56.8608V60.1608C169.143 60.335 169.173 60.4932 169.232 60.6352C169.292 60.7771 169.375 60.9 169.48 61.0027C169.585 61.1054 169.708 61.184 169.848 61.2394C169.989 61.2937 170.132 61.3219 170.297 61.3219C170.461 61.3219 170.613 61.2937 170.752 61.2374C170.893 61.181 171.016 61.1014 171.12 60.9987C171.224 60.896 171.305 60.7731 171.363 60.6311Z" fill="#949494"/>
<path fill-rule="evenodd" clip-rule="evenodd" d="M178.397 59.747C178.621 59.4328 178.732 59.0531 178.732 58.61C178.732 58.314 178.684 58.0451 178.587 57.8034C178.49 57.5618 178.339 57.3624 178.135 57.2022C177.93 57.0431 177.668 56.9384 177.348 56.8901C177.314 56.8841 177.277 56.8791 177.239 56.8752C177.199 56.871 177.156 56.868 177.111 56.8659C177.024 56.8619 176.953 56.8599 176.901 56.8599H174.638V62.1527H175.651V60.3592H176.781L177.661 62.1527H178.807L177.836 60.186C178.07 60.0833 178.261 59.9413 178.398 59.747H178.397ZM175.651 57.7934H176.856C176.908 57.7934 176.965 57.7954 177.028 57.8004C177.09 57.8055 177.147 57.8155 177.199 57.8296C177.336 57.8659 177.442 57.9283 177.515 58.0149C177.59 58.1015 177.641 58.1982 177.67 58.3049C177.699 58.4117 177.713 58.5124 177.713 58.608C177.713 58.7037 177.699 58.8044 177.67 58.9112C177.642 59.0179 177.59 59.1146 177.515 59.2012C177.441 59.2878 177.336 59.3502 177.199 59.3864C177.147 59.4016 177.09 59.4116 177.028 59.4157C177.015 59.4166 177.003 59.4176 176.991 59.4184L176.973 59.4194C176.957 59.4203 176.941 59.421 176.925 59.4216C176.902 59.4224 176.878 59.4227 176.856 59.4227H175.651V57.7934Z" fill="#949494"/>
<path d="M184.24 62.1527H180.742V56.8599H184.24V57.7944H181.755V58.9252H183.793V59.8598H181.755V61.2192H184.24V62.1527Z" fill="#949494"/>
</g>
</svg>
