<svg width="200" height="100" viewBox="0 0 200 100" fill="none" xmlns="http://www.w3.org/2000/svg">
<mask id="mask0_1429_211" style="mask-type:alpha" maskUnits="userSpaceOnUse" x="0" y="0" width="200" height="100">
<rect width="200" height="100" fill="#222222"/>
</mask>
<g mask="url(#mask0_1429_211)">
<path fill-rule="evenodd" clip-rule="evenodd" d="M33.9169 56.1062L20 41.904L29.7022 32.0004L33.9162 36.3017L38.1271 32L47.8293 41.904L33.9169 56.1062ZM22.5474 41.9033L33.9162 53.5058L45.2819 41.9033L38.1275 34.6001L35.1896 37.6019L37.2945 39.7525C39.1557 41.6534 39.155 44.7465 37.2945 46.6468C35.433 48.547 32.405 48.5484 30.5407 46.6468C30.0955 46.1951 29.7425 45.6578 29.5021 45.0659C29.2617 44.474 29.1387 43.8393 29.1402 43.1986C29.1384 42.5578 29.2612 41.923 29.5014 41.3309C29.7417 40.7389 30.0945 40.2014 30.5397 39.7496L32.6446 37.6005L29.7036 34.5983L22.5474 41.9033ZM33.9166 38.9022L31.8116 41.0509C31.5341 41.3323 31.314 41.6671 31.1641 42.0359C31.0142 42.4048 30.9375 42.8003 30.9385 43.1996C30.9377 43.5988 31.0144 43.9942 31.1643 44.3629C31.3141 44.7316 31.5342 45.0663 31.8116 45.3476C32.3703 45.9158 33.1267 46.2349 33.9154 46.2349C34.704 46.2349 35.4604 45.9158 36.0191 45.3476C36.576 44.7775 36.8888 44.0052 36.8888 43.2C36.8888 42.3948 36.576 41.6225 36.0191 41.0523L33.9166 38.9022Z" fill="#949494"/>
<path d="M62.8279 42.7461L68.6995 36.1185H73.2775V36.4618L67.5613 42.9044L73.2775 51.5913V51.961H69.0358L65.0006 45.7826L62.8279 48.2647V51.961H59.0773V36.1185H62.8279V42.7461Z" fill="#949494"/>
<path fill-rule="evenodd" clip-rule="evenodd" d="M93.3642 51.961H97.3998L91.4783 36.1185H87.3896L81.4663 51.961H85.5016L86.4585 49.1089H92.4073L93.3642 51.961ZM91.399 46.0995H87.4675L89.4331 40.2377L91.399 46.0995Z" fill="#949494"/>
<path fill-rule="evenodd" clip-rule="evenodd" d="M113.097 36.1185C116.641 36.1185 119.072 38.3645 119.072 41.4523C119.072 43.6438 117.96 45.3073 116.173 46.1519V46.4425L119.666 51.6968V51.961H115.399L112.166 46.7594H109.993V51.961H106.243V36.1185H113.097ZM112.839 39.4191H109.993V43.5119H112.865C114.184 43.5119 115.192 42.7989 115.192 41.4523C115.192 40.079 114.21 39.4191 112.839 39.4191Z" fill="#949494"/>
<path fill-rule="evenodd" clip-rule="evenodd" d="M129.185 51.961H135.16C140.153 51.961 143.307 48.5823 143.307 44.0399C143.307 39.4976 140.153 36.1185 135.16 36.1185H129.185V51.961ZM132.936 48.66V39.4191L134.876 39.4188C137.385 39.4188 139.428 40.9767 139.428 44.0396C139.428 46.9441 137.385 48.66 134.876 48.66H132.936Z" fill="#949494"/>
<path d="M156.851 51.961H153.101V36.1185H156.851V51.961Z" fill="#949494"/>
<path d="M174.697 52.3322C178.345 52.3322 180 50.3767 180 50.3767L177.852 47.4461C177.852 47.4461 176.817 48.634 174.748 48.634C172.317 48.634 170.584 46.7862 170.584 44.0399C170.584 41.2937 172.318 39.4455 174.749 39.4455C176.818 39.4455 177.853 40.6338 177.853 40.6338L180 37.7028C180 37.7028 178.345 35.7755 174.697 35.7755C169.679 35.7755 166.705 39.5 166.705 44.0414C166.705 48.5827 169.679 52.3322 174.697 52.3322Z" fill="#949494"/>
<path d="M23.8163 67.4388C23.8163 67.4388 23.3409 68 22.2942 68C20.8539 68 20 66.9237 20 65.6199C20 64.3161 20.8539 63.2476 22.2942 63.2476C23.342 63.2476 23.8163 63.8009 23.8163 63.8009L23.2002 64.6423C23.2002 64.6423 22.903 64.3011 22.3089 64.3011C21.6104 64.3011 21.1138 64.832 21.1138 65.6203C21.1138 66.4085 21.6111 66.9394 22.3089 66.9394C22.9026 66.9394 23.2002 66.5982 23.2002 66.5982L23.8163 67.4388Z" fill="#949494"/>
<path d="M25.9414 66.0224H27.753V65.1578H25.9414V64.2937H28.1023V63.3464H24.8651V67.8945H28.1023V66.9472H25.9414V66.0224Z" fill="#949494"/>
<path d="M33.4748 67.8938H32.6432L30.5051 65.2413V67.8938H29.4357V63.3464H30.2673L32.4057 65.9536V63.3464H33.4748V67.8938Z" fill="#949494"/>
<path d="M38.1261 63.3464H34.54V64.2937H35.7945V67.8945H36.8712V64.2937H38.1261V63.3464Z" fill="#949494"/>
<path d="M42.0754 66.0224H40.2639V66.9472H42.4243V67.8945H39.1871V63.3464H42.4243V64.2937H40.2639V65.1578H42.0754V66.0224Z" fill="#949494"/>
<path fill-rule="evenodd" clip-rule="evenodd" d="M47.4417 64.8773C47.4417 63.9906 46.7435 63.3464 45.7265 63.3464H43.7588V67.8938H44.8355V66.4007H45.459L46.3873 67.8938H47.6124V67.8182L46.6101 66.3098V66.2263C47.1221 65.9825 47.4417 65.5065 47.4417 64.8773ZM44.8355 64.2937H45.6517C46.045 64.2937 46.3272 64.483 46.3279 64.8791C46.3279 65.2655 46.0384 65.4702 45.6594 65.4702H44.8355V64.2937Z" fill="#949494"/>
<path fill-rule="evenodd" clip-rule="evenodd" d="M50.5437 65.6199C50.5437 64.3165 51.479 63.2476 52.8229 63.2476C54.1818 63.2476 55.1171 64.3172 55.1171 65.6199C55.1171 66.9226 54.1818 68 52.8229 68C51.479 68 50.5437 66.9237 50.5437 65.6199ZM54.0034 65.6199C54.0034 64.832 53.4837 64.309 52.8229 64.309C52.1771 64.309 51.6575 64.832 51.6575 65.6199C51.6575 66.4078 52.1771 66.9312 52.8229 66.9312C53.4837 66.9312 54.0037 66.4085 54.0037 65.6199H54.0034Z" fill="#949494"/>
<path d="M57.4145 66.0292H59.2261V65.1668H57.4145V64.2937H59.605V63.3464H56.3381V67.8938H57.4145V66.0292Z" fill="#949494"/>
<path d="M65.7965 66.0224H63.9849V66.9472H66.1454V67.8945H62.9096V63.3464H66.1468V64.2937H63.9863V65.1578H65.7979L65.7965 66.0224Z" fill="#949494"/>
<path d="M71.2955 67.8938L69.9889 65.5671L71.2658 63.3464H69.9666L69.3578 64.612L69.172 65.0366L68.9939 64.612L68.3852 63.3464H67.0783L68.3478 65.5671L67.0636 67.8938H68.3628L68.9939 66.5522L69.172 66.1507L69.3578 66.5522L69.9889 67.8938H71.2955Z" fill="#949494"/>
<path d="M75.7907 67.4388C75.7907 67.4388 75.3157 68 74.2686 68C72.8283 68 71.9744 66.9237 71.9744 65.6199C71.9744 64.3161 72.8283 63.2476 74.2686 63.2476C75.3164 63.2476 75.7907 63.8009 75.7907 63.8009L75.1746 64.6423C75.1746 64.6423 74.8774 64.3011 74.2836 64.3011C73.5851 64.3011 73.0882 64.832 73.0882 65.6203C73.0882 66.4085 73.5855 66.9394 74.2836 66.9394C74.8774 66.9394 75.1746 66.5982 75.1746 66.5982L75.7907 67.4388Z" fill="#949494"/>
<path d="M77.9158 66.0224H79.7274V65.1578H77.9158V64.2937H80.0763V63.3464H76.8391V67.8945H80.0763V66.9472H77.9158V66.0224Z" fill="#949494"/>
<path d="M81.4101 67.8938V63.3464H82.4868V66.9472H84.4776V67.8945L81.4101 67.8938Z" fill="#949494"/>
<path d="M85.5522 63.3464V67.8938L88.6193 67.8945V66.9472H86.6286V63.3464H85.5522Z" fill="#949494"/>
<path d="M92.5819 66.0224H90.7704V66.9472H92.9312V67.8945H89.694V63.3464H92.9312V64.2937H90.7704V65.1578H92.5819V66.0224Z" fill="#949494"/>
<path d="M97.4721 67.8938H98.3037V63.3464H97.2346V65.9536L95.0962 63.3464H94.2646V67.8938H95.334V65.2413L97.4721 67.8938Z" fill="#949494"/>
<path d="M103.359 67.4388C103.359 67.4388 102.884 68 101.837 68C100.396 68 99.5425 66.9237 99.5425 65.6199C99.5425 64.3161 100.396 63.2476 101.837 63.2476C102.884 63.2476 103.359 63.8009 103.359 63.8009L102.743 64.6423C102.743 64.6423 102.445 64.3011 101.851 64.3011C101.153 64.3011 100.656 64.832 100.656 65.6203C100.656 66.4085 101.153 66.9394 101.851 66.9394C102.445 66.9394 102.742 66.5982 102.742 66.5982L103.359 67.4388Z" fill="#949494"/>
<path d="M105.483 66.0224H107.295L107.295 65.1578H105.483V64.2937H107.645V63.3464H104.408V67.8945H107.644V66.9472H105.483V66.0224Z" fill="#949494"/>
<path d="M113.836 66.0292H112.024V67.8938H110.948V63.3464H114.214V64.2937H112.024V65.1668H113.836V66.0292Z" fill="#949494"/>
<path fill-rule="evenodd" clip-rule="evenodd" d="M117.328 63.2476C115.984 63.2476 115.049 64.3165 115.049 65.6199C115.049 66.9237 115.984 68 117.328 68C118.687 68 119.623 66.9226 119.623 65.6199C119.623 64.3172 118.687 63.2476 117.328 63.2476ZM117.328 64.309C117.989 64.309 118.509 64.832 118.509 65.6199H118.51C118.51 66.4085 117.989 66.9312 117.328 66.9312C116.682 66.9312 116.163 66.4078 116.163 65.6199C116.163 64.832 116.682 64.309 117.328 64.309Z" fill="#949494"/>
<path fill-rule="evenodd" clip-rule="evenodd" d="M122.811 63.3464C123.828 63.3464 124.526 63.9906 124.526 64.8773C124.526 65.5065 124.207 65.9825 123.695 66.2263V66.3098L124.697 67.8182V67.8938H123.472L122.543 66.4007H121.92V67.8938H120.843V63.3464H122.811ZM122.736 64.2937H121.919V65.4702H122.743C123.122 65.4702 123.412 65.2655 123.412 64.8791C123.412 64.483 123.13 64.2937 122.736 64.2937Z" fill="#949494"/>
<path d="M129.931 68C130.979 68 131.452 67.4388 131.452 67.4388L130.837 66.5982C130.837 66.5982 130.539 66.9394 129.945 66.9394C129.248 66.9394 128.75 66.4085 128.75 65.6203C128.75 64.832 129.247 64.3011 129.945 64.3011C130.539 64.3011 130.837 64.6423 130.837 64.6423L131.453 63.8009C131.453 63.8009 130.979 63.2476 129.931 63.2476C128.49 63.2476 127.637 64.3161 127.637 65.6199C127.637 66.9237 128.49 68 129.931 68Z" fill="#949494"/>
<path fill-rule="evenodd" clip-rule="evenodd" d="M136.719 67.8938H135.561L135.286 67.0738H133.578L133.304 67.8938H132.146L133.846 63.3464H135.019L136.719 67.8938ZM133.868 66.2114H134.997L134.432 64.5286L133.868 66.2114Z" fill="#949494"/>
<path fill-rule="evenodd" clip-rule="evenodd" d="M141.349 64.8773C141.349 63.9906 140.651 63.3464 139.634 63.3464H137.667V67.8938H138.743V66.4007H139.367L140.295 67.8938H141.52V67.8182L140.518 66.3098V66.2263C141.03 65.9825 141.349 65.5065 141.349 64.8773ZM138.743 64.2937H139.56C139.954 64.2937 140.236 64.483 140.236 64.8791C140.236 65.2655 139.946 65.4702 139.567 65.4702H138.743V64.2937Z" fill="#949494"/>
<path fill-rule="evenodd" clip-rule="evenodd" d="M144.377 67.8938H142.662V63.3464H144.377C145.809 63.3464 146.717 64.3165 146.717 65.6199C146.717 66.9233 145.81 67.8938 144.377 67.8938ZM143.739 64.2929V66.9458H144.298C145.018 66.9458 145.604 66.4531 145.604 65.6192C145.604 64.74 145.018 64.2929 144.298 64.2929H143.739Z" fill="#949494"/>
<path d="M147.937 67.8938H149.013V63.3464H147.937V67.8938Z" fill="#949494"/>
<path fill-rule="evenodd" clip-rule="evenodd" d="M154.526 67.8938H153.368L153.093 67.0738H151.386L151.111 67.8938H149.953L151.654 63.3464H152.827L154.526 67.8938ZM152.804 66.2114L152.239 64.5286L151.675 66.2114H152.804Z" fill="#949494"/>
<path d="M157.349 68C158.396 68 158.871 67.4388 158.871 67.4388L158.255 66.5982C158.255 66.5982 157.957 66.9394 157.364 66.9394C156.666 66.9394 156.169 66.4085 156.169 65.6203C156.169 64.832 156.665 64.3011 157.364 64.3011C157.958 64.3011 158.255 64.6423 158.255 64.6423L158.871 63.8009C158.871 63.8009 158.397 63.2476 157.349 63.2476C155.909 63.2476 155.055 64.3161 155.055 65.6199C155.055 66.9237 155.909 68 157.349 68Z" fill="#949494"/>
<path d="M165.554 67.4388C165.554 67.4388 165.079 68 164.032 68C162.592 68 161.738 66.9237 161.738 65.6199C161.738 64.3161 162.592 63.2476 164.032 63.2476C165.08 63.2476 165.554 63.8009 165.554 63.8009L164.938 64.6423C164.938 64.6423 164.641 64.3011 164.047 64.3011C163.349 64.3011 162.852 64.832 162.852 65.6203C162.852 66.4085 163.349 66.9394 164.047 66.9394C164.641 66.9394 164.938 66.5982 164.938 66.5982L165.554 67.4388Z" fill="#949494"/>
<path fill-rule="evenodd" clip-rule="evenodd" d="M169.661 67.8938H170.82L169.119 63.3464H167.946L166.246 67.8938H167.404L167.679 67.0738H169.387L169.661 67.8938ZM168.533 64.5286L169.097 66.2114H167.968L168.533 64.5286Z" fill="#949494"/>
<path fill-rule="evenodd" clip-rule="evenodd" d="M173.735 63.3464C174.752 63.3464 175.45 63.9906 175.45 64.8773C175.45 65.5065 175.13 65.9825 174.618 66.2263V66.3098L175.62 67.8182V67.8938H174.396L173.467 66.4007H172.844V67.8938H171.767V63.3464H173.735ZM173.66 64.2937H172.844V65.4702H173.668C174.047 65.4702 174.336 65.2655 174.336 64.8791C174.336 64.483 174.054 64.2937 173.66 64.2937Z" fill="#949494"/>
<path d="M177.839 66.0224H179.651V65.1578H177.839V64.2937H180V63.3464H176.762V67.8945H180V66.9472H177.839V66.0224Z" fill="#949494"/>
</g>
</svg>
