<svg width="200" height="100" viewBox="0 0 200 100" fill="none" xmlns="http://www.w3.org/2000/svg">
<mask id="mask0_1429_244" style="mask-type:alpha" maskUnits="userSpaceOnUse" x="0" y="0" width="200" height="100">
<rect width="200" height="100" fill="#222222"/>
</mask>
<g mask="url(#mask0_1429_244)">
<path fill-rule="evenodd" clip-rule="evenodd" d="M130.469 37.4754L129.658 39.3075H129.131L132.355 32L135.399 39.3075H134.884L134.114 37.4754H130.469ZM132.333 33.233L130.69 36.9756H133.903L132.333 33.233Z" fill="#7D7D7D"/>
<path d="M108.851 39.3076H111.329V35.7204H108.578V36.2208H110.833V38.8078H108.851C108.325 38.8103 107.809 38.6626 107.366 38.3826C106.91 38.0978 106.536 37.7018 106.281 37.2332C106.014 36.7515 105.88 36.2259 105.88 35.6563C105.881 35.0868 106.014 34.5632 106.281 34.0854C106.536 33.62 106.91 33.2275 107.366 32.9465C107.81 32.6692 108.325 32.5228 108.851 32.5247C109.26 32.5243 109.663 32.613 110.032 32.7842C110.412 32.9583 110.749 33.2101 111.022 33.5227L111.37 33.1772C111.055 32.8135 110.665 32.5186 110.227 32.3113C109.798 32.107 109.328 32.0009 108.851 32.0009C108.239 31.9977 107.639 32.1696 107.124 32.4955C106.597 32.8238 106.18 33.2678 105.871 33.8273C105.562 34.3869 105.407 34.996 105.407 35.6547C105.406 36.3198 105.56 36.932 105.871 37.4911C106.181 38.0503 106.599 38.4928 107.124 38.8187C107.64 39.1417 108.24 39.3115 108.851 39.3076Z" fill="#7D7D7D"/>
<path fill-rule="evenodd" clip-rule="evenodd" d="M85.2538 39.3851C84.6379 39.3876 84.0343 39.216 83.5152 38.8909C82.9822 38.5616 82.5614 38.1135 82.2528 37.5468C81.9443 36.98 81.7894 36.364 81.788 35.6988C81.788 35.0321 81.9427 34.4156 82.252 33.8492C82.5614 33.2829 82.9822 32.8348 83.5144 32.5051C84.0335 32.1801 84.6371 32.0088 85.253 32.0114C85.8689 32.0087 86.4725 32.1801 86.9916 32.5051C87.524 32.8348 87.9453 33.2829 88.2556 33.8492C88.5659 34.4156 88.7209 35.0321 88.7207 35.6988C88.7207 36.3649 88.566 36.9809 88.2566 37.5468C87.9473 38.1126 87.5259 38.5606 86.9924 38.8909C86.4734 39.216 85.8698 39.3877 85.2538 39.3851ZM85.2538 32.5224C84.7234 32.5192 84.2035 32.6677 83.7579 32.9498C83.3016 33.2348 82.9379 33.6197 82.667 34.1045C82.3962 34.5892 82.2626 35.1225 82.2626 35.699C82.2626 36.2755 82.3962 36.8072 82.667 37.2919C82.9378 37.7765 83.3016 38.1613 83.7579 38.4468C84.2037 38.7286 84.7234 38.8771 85.2538 38.8743C85.7843 38.8769 86.3042 38.7284 86.7502 38.4468C87.2068 38.1613 87.5682 37.7763 87.8344 37.2917C88.1005 36.807 88.2342 36.276 88.2353 35.6988C88.2353 35.1219 88.1017 34.589 87.8344 34.1043C87.567 33.6197 87.2068 33.2346 86.7502 32.9496C86.3043 32.6677 85.7843 32.5193 85.2538 32.5224Z" fill="#7D7D7D"/>
<path d="M55.377 32.6V32.0892H49.4674V32.6H52.1844V39.3074H52.6696V32.6H55.377Z" fill="#7D7D7D"/>
<path d="M66.5569 56.582C65.6555 56.429 64.8837 56.189 64.2414 55.862C63.2262 55.3366 62.4286 54.6429 61.8484 53.7809C61.2683 52.9188 60.9782 51.9852 60.9782 50.98C60.9746 50.1861 61.172 49.4038 61.5526 48.7031C61.9362 47.9943 62.4802 47.3661 63.1847 46.8186C63.868 46.2949 64.6448 45.8912 65.5152 45.6073C66.3856 45.3235 67.2976 45.1816 68.2513 45.1816C70.1774 45.1816 71.8659 45.7272 73.3169 46.8184C74.5184 47.7803 75.2228 48.8941 75.4301 50.1596L74.0938 50.9461C74.0723 50.4007 73.9219 49.877 73.6426 49.3747C73.3634 48.8725 72.9646 48.4138 72.4462 47.9984C71.887 47.562 71.2447 47.229 70.5195 46.9994C69.7865 46.7688 69.0211 46.6527 68.2513 46.6555C67.476 46.6533 66.7051 46.7694 65.9662 46.9994C65.2299 47.2288 64.5928 47.5618 64.0549 47.9984C63.5162 48.4135 63.1018 48.8778 62.8117 49.3913C62.5216 49.9048 62.3766 50.4344 62.3766 50.98C62.3785 51.6577 62.617 52.3293 63.092 52.9946C63.5671 53.66 64.1576 54.179 64.8634 54.5516C65.2981 54.7697 65.7783 54.927 66.3076 55.0262C66.837 55.1254 67.515 55.228 68.3437 55.338L68.518 55.3642C68.7103 55.393 69.0153 55.4387 69.4314 55.5015C69.9982 55.5861 70.5589 55.7066 71.11 55.862C71.649 56.0157 72.105 56.2012 72.478 56.4185C73.429 56.9862 74.1692 57.6799 74.6986 58.4996C75.2279 59.3193 75.4926 60.1986 75.4926 61.1372C75.4936 61.9396 75.3018 62.7308 74.9327 63.4469C74.5601 64.1788 74.0215 64.8176 73.3169 65.3631C71.8659 66.4543 70.1774 66.9999 68.2513 66.9999C67.3219 67.0035 66.3979 66.86 65.5152 66.5748C64.6452 66.2909 63.8684 65.8869 63.1847 65.3625C62.0028 64.4447 61.2879 63.3198 61.0399 61.9876L62.3766 61.2013C62.4387 62.4026 62.9982 63.3859 64.0549 64.1513C64.5938 64.5874 65.2259 64.9201 65.9511 65.1494C66.6764 65.3787 67.4433 65.4933 68.2519 65.4933C69.9079 65.4925 71.306 65.045 72.4462 64.1507C73.5446 63.2991 74.0938 62.2944 74.0938 61.1366C74.0938 60.459 73.8919 59.8255 73.4881 59.236C73.0843 58.6465 72.5193 58.1443 71.7933 57.7295C71.109 57.358 69.8869 57.0628 68.1269 56.8441C67.9815 56.8224 67.4582 56.735 66.5569 56.582Z" fill="#7D7D7D"/>
<path d="M24.3984 65.2647H35.7416V66.7392H23V45.4438H24.3984V65.2647Z" fill="#7D7D7D"/>
<path fill-rule="evenodd" clip-rule="evenodd" d="M175.836 47.6528V47.6648C175.836 48.0257 175.62 48.25 175.306 48.345L175.921 49.185H175.402L174.847 48.4093H174.371V49.1852H173.937V46.9436H174.957C175.257 46.9436 175.498 47.0328 175.649 47.1807C175.769 47.2979 175.836 47.4642 175.836 47.6528ZM174.37 48.0374H174.937C175.22 48.0374 175.389 47.9019 175.389 47.6883V47.6765C175.389 47.4518 175.22 47.328 174.937 47.328H174.37V48.0374Z" fill="#7D7D7D"/>
<path fill-rule="evenodd" clip-rule="evenodd" d="M174.821 45.9848C174.242 45.9846 173.686 46.21 173.275 46.6114C172.865 47.0129 172.634 47.5576 172.633 48.1258V48.1382C172.633 48.4183 172.689 48.6957 172.798 48.9545C172.908 49.2133 173.068 49.4483 173.27 49.6461C173.473 49.8439 173.713 50.0005 173.977 50.107C174.241 50.2134 174.524 50.2676 174.81 50.2664C175.39 50.2666 175.946 50.0413 176.357 49.64C176.767 49.2387 176.998 48.6942 177 48.1258V48.114C177.001 47.8337 176.944 47.5561 176.835 47.2971C176.726 47.0381 176.565 46.8029 176.363 46.605C176.16 46.4071 175.92 46.2504 175.655 46.144C175.391 46.0375 175.107 45.9835 174.821 45.9848ZM176.77 48.1258C176.77 49.1837 175.926 50.0532 174.81 50.0532C173.701 50.0532 172.862 49.1949 172.862 48.1382V48.1258C172.862 47.0679 173.707 46.1984 174.821 46.1984C175.932 46.1984 176.77 47.0567 176.77 48.1146V48.1258Z" fill="#7D7D7D"/>
<path d="M93.5185 65.1984H81.8326V56.8446H90.9388V55.337H81.8326V46.9501H93.5185V45.4436H80.4336V66.739H93.5185V65.1984Z" fill="#7D7D7D"/>
<path d="M105.577 46.9175H99.9211V66.739H98.5221V45.4432H105.575C106.529 45.4432 107.421 45.6016 108.249 45.9184C109.077 46.2353 109.802 46.6883 110.423 47.2776C111.024 47.8459 111.486 48.4903 111.807 49.2106C112.125 49.9121 112.289 50.6708 112.289 51.4382C112.289 52.6393 111.947 53.7151 111.264 54.6657C110.581 55.6162 109.773 56.2989 108.841 56.7136C108.198 57.0197 107.571 57.2107 106.96 57.2867C106.315 57.3655 105.667 57.4041 105.018 57.4021L112.321 66.739H110.457L102.065 55.9929H104.551C106.085 55.9927 107.328 55.7855 108.28 55.3711C108.986 55.0218 109.597 54.4919 110.115 53.7814C110.633 53.0709 110.891 52.2899 110.891 51.4382C110.891 50.6746 110.674 49.9485 110.24 49.2599C109.805 48.5726 109.183 48.0103 108.374 47.5732C107.566 47.1361 106.633 46.9175 105.577 46.9175Z" fill="#7D7D7D"/>
<path d="M130.381 65.5926C131.395 65.0736 132.308 64.3853 133.081 63.5588L131.956 62.6159C131.337 63.2237 130.63 63.7378 129.857 64.1413C128.718 64.7397 127.445 65.0519 126.153 65.0499C124.618 65.0499 123.169 64.6269 121.848 63.7935C120.548 62.974 119.51 61.8609 118.763 60.4838C118.019 59.1167 117.641 57.6163 117.641 56.026C117.641 54.4357 118.019 52.9355 118.764 51.5664C119.512 50.1891 120.546 49.0804 121.836 48.2728C123.144 47.4532 124.597 47.037 126.153 47.037C127.349 47.037 128.513 47.3001 129.614 47.8193C130.33 48.1575 130.995 48.5919 131.589 49.11L132.651 48.0986C131.907 47.384 131.047 46.7954 130.106 46.3568C128.845 45.7699 127.515 45.4723 126.153 45.4723C124.375 45.4723 122.776 45.9282 121.265 46.866C119.753 47.8037 118.542 49.0912 117.661 50.7003C116.775 52.3155 116.326 54.1074 116.326 56.0258C116.326 57.9442 116.775 59.7363 117.661 61.3519C118.543 62.962 119.758 64.2588 121.27 65.2064C122.781 66.1531 124.377 66.6136 126.153 66.6136C127.634 66.6136 129.057 66.2711 130.381 65.5926Z" fill="#7D7D7D"/>
<path fill-rule="evenodd" clip-rule="evenodd" d="M150.983 66.6394L148.783 61.3698L139.251 61.3658L136.973 66.64H135.535L144.185 46.9716L152.408 66.6394H150.983ZM148.198 59.9885L144.127 50.2316L139.856 59.9885H148.198Z" fill="#7D7D7D"/>
<path fill-rule="evenodd" clip-rule="evenodd" d="M169.277 53.8586C169.605 53.1528 169.77 52.3865 169.77 51.5781C169.773 50.7963 169.604 50.0229 169.275 49.311C168.937 48.5688 168.472 47.9301 167.853 47.3562C167.263 46.8345 166.579 46.4243 165.837 46.1462C165.08 45.8606 164.275 45.7149 163.463 45.7164H156.526V66.4048H157.871L157.838 57.4733H163.463C164.275 57.4755 165.08 57.33 165.838 57.0444C166.587 56.7635 167.277 56.3477 167.87 55.8184C168.459 55.2559 168.936 54.5915 169.277 53.8586ZM167.033 54.5481C166.098 55.4263 164.897 55.8737 163.463 55.8737H157.842V47.3179H163.463C164.875 47.3179 166.075 47.751 167.03 48.6057C167.937 49.4042 168.42 50.4339 168.42 51.5781C168.42 52.7436 167.94 53.7696 167.033 54.5481Z" fill="#7D7D7D"/>
<path d="M52.4907 57.3309L48.9204 48.8174L45.1813 57.3309H43.6219L48.9821 45.1816L54.0448 57.3309H52.4907Z" fill="#7D7D7D"/>
<path d="M53.9308 60.7592L56.4411 66.7391H57.9643L55.4734 60.7592H53.9308Z" fill="#7D7D7D"/>
<path d="M43.6729 60.7588L41.026 66.7389H39.4718L42.1102 60.7588H43.6729Z" fill="#7D7D7D"/>
<path d="M49.1392 59.6166C50.5168 59.6181 51.8946 59.5774 53.2725 59.4946C54.6497 59.4054 56.0265 59.2858 57.4041 59.0463C56.0265 58.8068 54.6497 58.687 53.2725 58.5966C51.8957 58.5126 50.5178 58.4742 49.1392 58.4742C47.7606 58.4742 46.3846 58.5142 45.0074 58.5984C43.6298 58.6892 42.253 58.8072 40.8741 59.0463C42.2523 59.2834 43.6291 59.4024 45.0074 59.4936C46.3846 59.5769 47.7619 59.6179 49.1392 59.6166Z" fill="#7D7D7D"/>
<path d="M63.5525 35.9536H59.5074V39.3078H59.0226V32.0892H59.5074V35.4434H63.5525V32.0892H64.0261V39.3078H63.5525V35.9536Z" fill="#7D7D7D"/>
<path d="M68.1656 32.0892V39.3074H72.6018V38.7848H68.6412V35.9532H71.7277V35.443H68.6412V32.6H72.6018V32.0892H68.1656Z" fill="#7D7D7D"/>
<path d="M93.5548 35.6647L96.3994 39.3075H97.032L94.5573 36.1427C94.7774 36.1431 94.9972 36.1301 95.2156 36.104C95.4365 36.0726 95.6509 36.0071 95.8509 35.91C96.1675 35.7691 96.4405 35.5361 96.6724 35.2149C96.9043 34.8938 97.021 34.5281 97.021 34.1209C97.0212 33.861 96.9657 33.6039 96.8581 33.3664C96.7473 33.1197 96.5877 32.897 96.3886 32.7111C96.1771 32.5105 95.9266 32.3539 95.6519 32.2506C95.3626 32.1416 95.0549 32.0869 94.7449 32.0895H92.3543V39.3075H92.8279V32.5885H94.7439C95.1017 32.5889 95.4178 32.6631 95.6923 32.8111C95.9667 32.959 96.1777 33.1494 96.3251 33.3821C96.4683 33.603 96.5448 33.859 96.5458 34.1207C96.547 34.4062 96.4549 34.6846 96.2831 34.9151C96.1072 35.1565 95.8995 35.3343 95.6609 35.4541C95.3387 35.5945 94.9179 35.6647 94.3985 35.6647H93.5548Z" fill="#7D7D7D"/>
<path d="M101.573 32.0887H101.098V39.3074H101.573V32.0887Z" fill="#7D7D7D"/>
<path d="M116.058 32.0887H115.584V39.3074H116.058V32.0887Z" fill="#7D7D7D"/>
<path d="M120.799 39.3073V33.4436L125.539 39.4297V32.0887H125.065V37.9751L120.324 32.0009V39.3073H120.799Z" fill="#7D7D7D"/>
<path d="M138.993 32.0892V39.3074H143.312V38.8076H139.467V32.0892H138.993Z" fill="#7D7D7D"/>
<path d="M47.1794 35.5247H23.0004V35.7963H47.1794V35.5247Z" fill="#7D7D7D"/>
<path d="M145.6 35.5245H169.781V35.7961H145.6V35.5245Z" fill="#7D7D7D"/>
</g>
</svg>
