<svg width="200" height="100" viewBox="0 0 200 100" fill="none" xmlns="http://www.w3.org/2000/svg">
<mask id="mask0_3215_12" style="mask-type:alpha" maskUnits="userSpaceOnUse" x="0" y="0" width="200" height="100">
<rect width="200" height="100" fill="#222222"/>
</mask>
<g mask="url(#mask0_3215_12)">
<path d="M117.495 73.2852H119.402V74H116.699V69.5701H117.495V73.2856V73.2852ZM120.415 70.2887H121.746V74H122.543V70.2887H123.878V69.5701H120.416V70.2887H120.415ZM106.279 74H109.103V73.2852H107.075V72.1118H108.89V71.4258H107.075V70.2887H109.103V69.5701H106.279V74ZM103.225 71.4012H101.21V69.5698H100.413V73.9997H101.21V72.1236H103.225V73.9997H104.022V69.5698H103.225V71.4012ZM113.236 69.5698L114.88 73.9997H114.042L113.675 72.9765H111.973L111.606 73.9997H110.78L112.423 69.5698H113.236ZM113.441 72.3226L112.92 70.8934C112.882 70.7757 112.84 70.6456 112.828 70.5524C112.807 70.6376 112.77 70.7716 112.728 70.8934L112.21 72.3226H113.441ZM140 29.4812C139.996 30.8821 138.907 31.9378 137.468 31.9378C136.028 31.9378 134.906 30.8658 134.906 29.4691C134.906 28.0724 136.029 26.988 137.489 27.0001C138.945 27.0081 140.008 28.0638 140 29.4809V29.4812ZM139.525 29.4691C139.525 28.3037 138.653 27.4428 137.468 27.4428C136.284 27.4428 135.395 28.3687 135.399 29.4691C135.399 30.6346 136.271 31.4954 137.468 31.4954C138.665 31.4954 139.525 30.6304 139.525 29.4691ZM138.064 29.7007L138.686 30.8173H138.148L137.61 29.8184H136.93V30.8173H136.438V28.0358H137.585C138.219 28.0358 138.641 28.3483 138.641 28.8845C138.641 29.2459 138.436 29.5626 138.065 29.7007H138.064ZM138.123 28.9212C138.123 28.6287 137.931 28.4909 137.572 28.4909H136.93V29.3843H137.572C137.919 29.3843 138.123 29.2099 138.123 28.9215V28.9212ZM127.395 59.8855C127.458 59.7148 127.383 59.5767 127.266 59.4511L127.199 59.386C127.09 59.2884 126.982 59.1869 126.865 59.0935C126.402 58.72 125.597 58.7242 124.984 58.7563C106.93 59.7186 82.2147 64.388 73.3675 69.2852C71.9533 70.0647 72.0035 70.7875 72.4707 71.4901C72.6418 71.7501 73.5137 72.4078 73.9934 72.6189C74.9151 73.0208 75.9332 72.6026 77.1137 72.1966C82.065 70.4832 89.215 65.3102 126.949 60.206C127.158 60.1776 127.333 60.0516 127.395 59.8851V59.8855ZM128.545 71.4015H126.526V69.5701H125.729V74H126.526V72.1239H128.545V74H129.342V69.5701H128.545V71.4015ZM119.795 37.7239C120.857 36.5927 121.807 35.9669 123.063 35.305C124.319 34.6432 125.751 34.2182 127.357 34.0299C128.055 33.9423 128.812 33.9468 129.631 34.0344C130.45 34.1174 131.224 34.3324 131.954 34.683C132.683 35.0292 133.318 35.5286 133.853 36.1818C134.667 37.1735 134.881 38.5141 134.905 39.7481C134.944 41.7823 134.376 43.8253 133.578 45.6906C132.358 48.5431 130.36 51.2119 127.735 52.9689C125.075 54.7522 121.032 55.9353 118.039 54.2223C117.368 53.8412 116.778 53.3109 116.265 52.6273C115.757 51.9481 115.437 51.0849 115.302 50.0288C115.216 49.3188 115.23 48.4514 115.347 47.4217C115.432 46.6373 115.59 45.8266 115.82 44.9942L116.067 44.0437C115.193 44.2642 114.277 44.4916 113.24 44.5508C112.848 44.5733 112.483 44.5736 112.114 44.4795C111.221 46.1029 110.456 47.8014 109.499 49.3895C109.1 50.0554 108.688 50.7252 108.246 51.3732C107.245 52.8467 106.112 54.2451 104.703 55.3669C103.505 56.3223 102.212 56.8671 100.83 56.9852C100.159 57.0468 99.5006 56.9869 98.8665 56.81C98.2282 56.6373 97.6582 56.3316 97.1565 55.9062C96.6505 55.4805 96.2213 54.935 95.8778 54.2659C95.7298 53.9779 95.6118 53.6574 95.5122 53.3206C95.2921 53.5272 94.6278 54.1028 94.4547 54.2641C93.5219 55.1285 92.5117 55.9571 91.4282 56.7501C90.3408 57.5469 89.1837 58.2728 87.9537 58.9228C86.7237 59.5732 85.4691 60.0568 84.1901 60.3701C83.0945 60.6397 82.0679 60.6753 81.1106 60.4732C80.1633 60.2762 79.2626 59.8879 78.4846 59.3254C78.4163 59.2759 77.6567 58.6546 77.6788 58.6352C77.1649 59.0862 76.6404 59.5275 76.1519 59.9775C74.9777 61.0592 73.7359 62.0464 72.6034 62.9602C71.4708 63.874 70.3279 64.6293 69.1751 65.2347C68.018 65.8359 66.8669 66.2098 65.7212 66.3603C64.9382 66.4583 64.2661 66.441 63.7139 66.305C63.1574 66.1648 62.7001 65.9422 62.3377 65.6296C61.9754 65.3167 61.6916 64.9259 61.4942 64.4569C61.293 63.9921 61.1578 63.486 61.085 62.9467C60.9619 62.0343 60.9719 61.0841 61.1191 60.0876C61.2663 59.0911 61.4768 58.171 61.7506 57.3195C62.2253 55.7834 62.7086 54.2513 63.2 52.7314C63.6957 51.2074 64.1512 49.8138 64.5623 48.5463L64.8183 47.7633L65.5263 45.5968L66.5359 42.5085L67.6955 38.9606L68.8543 35.4155L69.861 32.3355C70.1651 31.4058 70.4687 30.4757 70.7728 29.546C71.2091 28.2137 72.2446 27.2123 73.7047 27.0264C74.296 26.9509 74.8561 27.0382 75.3887 27.2926C76.5757 27.8589 76.4132 29.3584 76.0587 30.3732C75.5701 31.7709 75.009 33.1448 74.5037 34.5383C74.0144 35.8917 73.4931 37.3594 72.9394 38.9447C72.3861 40.5342 71.8207 42.1849 71.2439 43.8966C70.0687 47.3985 68.8778 50.8955 67.7115 54.4002C67.2286 55.8515 66.6955 57.3216 66.3613 58.8131C66.1358 59.8176 66.0807 61.6691 67.6766 61.1509C68.4749 60.892 69.1932 60.4697 69.876 59.9973C71.5519 58.8373 73.0799 57.4857 74.642 56.1873C74.9105 55.964 75.2632 55.6705 75.6025 55.3877C75.3077 54.6487 75.1786 53.7024 75.1786 53.7024C75.1046 53.107 75.1039 52.5054 75.148 51.908C75.2213 50.9166 75.4332 49.8858 75.7753 48.8194C76.1216 47.7488 76.6063 46.6705 77.2254 45.584C77.8488 44.4937 78.6023 43.4826 79.4859 42.547C80.3699 41.6114 81.3962 40.7827 82.5572 40.061C83.7221 39.3393 85.0257 38.8042 86.4673 38.4473C87.9868 38.0745 89.2086 38.1538 90.1413 38.6813C91.0783 39.2088 91.7056 40.1046 92.0352 41.3656C92.2265 42.115 92.2265 42.9475 92.0395 43.8633C91.8482 44.7792 91.3713 45.7823 90.6014 46.8689C89.8358 47.9554 88.736 49.1409 87.3104 50.4255L82.0487 54.964C82.0487 54.964 82.2816 55.4088 82.9562 55.6117C83.5088 55.7778 84.1741 55.7782 84.9603 55.584C85.8034 55.3777 86.6711 55.0409 87.5672 54.5649C88.4633 54.0893 89.3348 53.5501 90.1779 52.9433C91.021 52.3406 91.8357 51.7103 92.6177 51.0561C93.3996 50.3981 94.1005 49.7872 94.7235 49.2202L95.2629 48.6806L95.2935 48.2721C95.3963 46.9554 95.5954 45.6363 95.8507 44.3403C96.1032 43.0651 96.3532 41.8782 96.617 40.7965C96.9911 39.2645 97.091 37.4424 98.5127 36.4217C98.9757 36.0894 99.5055 35.8308 100.078 35.7623C100.581 35.7003 101.122 35.799 101.573 36.0257C101.862 36.1721 102.145 36.386 102.315 36.6595C102.595 37.152 102.483 37.7027 102.373 38.2247C102.254 38.783 102.098 39.3327 101.953 39.8848C101.546 41.4404 101.152 42.9987 100.812 44.5695C100.585 45.6165 100.395 46.6705 100.274 47.7349C100.202 48.3666 100.154 49.0042 100.196 49.6394C100.228 50.1333 100.284 50.638 100.472 51.1022C100.613 51.4521 100.85 51.8027 101.254 51.8824C101.974 52.0236 102.533 51.2513 102.933 50.791C103.55 50.072 104.095 49.2756 104.619 48.4829C105.715 46.827 106.664 45.079 107.446 43.259C107.885 42.241 108.302 41.2393 108.702 40.2583C109.079 39.3061 109.466 38.4549 109.85 37.6958C110.235 36.9329 110.629 36.313 111.031 35.8322C111.478 35.286 112.108 34.9589 112.839 35.035C113.295 35.0825 113.774 35.2898 114.059 35.6453C114.917 36.7173 114.879 38.3351 114.486 39.5743C114.429 39.7536 114.367 39.9409 114.301 40.1243C114.821 40.0963 115.411 40.0285 115.958 39.9087C116.701 39.7481 117.442 39.5203 118.185 39.2209C118.356 39.1472 118.532 39.0658 118.706 38.9859C118.706 38.9859 119.658 37.8685 119.794 37.7239H119.795ZM83.9138 48.376C88.166 44.5591 87.5266 43.0984 87.5266 43.0984C87.4573 42.8287 87.3147 42.6383 87.1031 42.5196C86.6373 42.2656 86.0217 42.3954 85.5463 42.5563C85.0204 42.7342 84.5311 43.0105 84.0926 43.3445C79.1769 47.0914 80.4147 51.5971 80.4147 51.5971C81.3997 50.8066 83.9134 48.3763 83.9134 48.3763L83.9138 48.376ZM129.302 40.9021C129.154 40.1198 128.742 39.4154 127.897 39.0471C127.537 38.89 127.083 38.8325 126.515 38.8983C125.656 38.999 124.854 39.3057 124.107 39.8183C123.364 40.331 122.729 40.9665 122.198 41.7245C120.956 43.4971 120.288 45.7726 120.755 47.89C121.058 49.2652 121.865 49.9585 123.064 50.1098C124.133 50.2444 125.256 49.7526 126.101 49.152C126.934 48.5605 127.631 47.8111 128.203 46.9042C127.852 46.8997 127.501 46.8079 127.244 46.5975C126.65 46.1067 127.37 45.1164 127.659 44.6958C127.903 44.3386 128.195 44.0146 128.466 43.6761L128.475 43.664C128.787 43.2728 129.06 42.8716 129.194 42.3888C129.321 41.9298 129.39 41.3687 129.302 40.9025V40.9021Z" fill="#7D7D7D"/>
</g>
</svg>
