<svg width="137" height="33" viewBox="0 0 137 33" fill="none" xmlns="http://www.w3.org/2000/svg">
<path d="M10.6048 32.7843C10.497 32.7843 10.3891 32.7483 10.3172 32.7124L0.323537 27.3201C0.143794 27.2122 0 27.0325 0 26.7808V3.91753C0 3.66589 0.143794 3.41425 0.395435 3.34236L6.32695 1.14949C7.54921 0.682161 8.80741 0.17888 10.1375 0.0350861C11.7192 -0.144657 12.8337 0.394572 14.02 1.0057L23.0071 5.78686C24.481 6.57773 25.2359 8.23137 25.2359 10.6759C25.2359 12.4733 24.5888 14.1988 23.3306 15.6368C23.7261 15.7806 24.0856 16.0322 24.4091 16.3557C25.4516 17.3623 25.8111 18.944 25.8111 19.9866C25.8111 24.6599 23.1868 28.1109 18.154 29.9803C16.6802 30.5195 15.6376 30.9149 14.5951 31.3104C13.4807 31.7418 12.3663 32.1372 10.7846 32.7483C10.7486 32.7483 10.6767 32.7843 10.6048 32.7843ZM1.22225 26.4214L10.6408 31.4901C12.1147 30.9509 13.1572 30.5554 14.1997 30.16C15.2422 29.7646 16.2847 29.3691 17.7586 28.8299C22.3241 27.1403 24.6248 24.1566 24.6248 19.9866C24.6248 19.1597 24.3013 17.9375 23.5823 17.2185C23.1868 16.8231 22.7195 16.6433 22.1443 16.6433C21.8927 16.6433 21.677 16.4995 21.5692 16.2479C21.4613 15.9963 21.5332 15.7446 21.713 15.5649C23.2228 14.2348 24.0137 12.4733 24.0137 10.6759C24.0137 8.73465 23.4744 7.4405 22.4319 6.86532L13.4807 2.08416C12.4023 1.50898 11.5395 1.11354 10.3172 1.25734C9.13095 1.40113 7.94464 1.83252 6.83024 2.29985L1.22225 4.34892V26.4214ZM10.5689 21.9278C10.2454 21.9278 9.95776 21.6402 9.95776 21.3167V9.92095L7.54921 8.66275C7.26162 8.51896 7.15377 8.12352 7.29757 7.83593C7.44136 7.54834 7.8368 7.4405 8.12438 7.58429L10.6048 8.91439L15.9971 6.93722C16.3207 6.82937 16.6802 6.97317 16.788 7.2967C16.8958 7.62024 16.7521 7.97973 16.4285 8.08757L11.18 10.0288V21.3526C11.18 21.6761 10.9284 21.9278 10.5689 21.9278Z" fill="#0F0F0F"/>
<path d="M130.565 11.6462C128.66 11.6462 127.114 12.2573 125.892 13.4436C124.705 14.6659 124.094 16.3914 124.094 18.6561C124.094 21.0647 124.741 22.8262 126.071 23.8687C127.401 24.9472 128.947 25.4864 130.673 25.4864C132.794 25.4864 134.411 24.8393 135.598 23.5811C136.353 22.7902 136.784 21.9994 136.856 21.2085H133.369C133.153 21.6039 132.938 21.8915 132.65 22.1072C132.183 22.5026 131.536 22.7183 130.745 22.7183C130.026 22.7183 129.379 22.5386 128.875 22.2151C128.013 21.6758 127.581 20.7771 127.509 19.447H137C137 18.3326 136.964 17.4698 136.892 16.8587C136.748 15.8522 136.389 14.9534 135.849 14.1626C135.238 13.2998 134.519 12.6527 133.585 12.2213C132.722 11.8619 131.679 11.6462 130.565 11.6462ZM130.565 14.4502C131.356 14.4502 132.039 14.7018 132.578 15.1691C133.117 15.6365 133.441 16.3195 133.477 17.2182H127.617C127.725 16.3554 128.049 15.7084 128.516 15.2051C128.983 14.7018 129.666 14.4502 130.565 14.4502ZM117.372 11.6821C116.293 11.6821 115.431 11.9338 114.712 12.473C114.316 12.7606 113.921 13.2639 113.489 13.9109V12.0057H110.182V25.019H113.597V17.9731C113.597 17.1823 113.705 16.4992 113.921 15.9959C114.352 15.0253 115.143 14.5221 116.293 14.5221C117.228 14.5221 117.875 14.8456 118.199 15.5286C118.378 15.8881 118.486 16.4273 118.486 17.1104V25.055H121.973V16.2476C121.973 14.594 121.542 13.4436 120.679 12.7246C119.816 12.0416 118.702 11.6821 117.372 11.6821ZM103.388 25.055H106.839V12.0057H103.388V25.055ZM106.839 7.29639H103.388V10.4239H106.839V7.29639ZM100.009 7.40423H96.5935V25.055H100.009V7.40423ZM88.3253 11.6462C86.42 11.6462 84.8742 12.2573 83.652 13.4436C82.4657 14.6659 81.8546 16.3914 81.8546 18.6561C81.8546 21.0647 82.5016 22.8262 83.8317 23.8687C85.1618 24.9112 86.7076 25.4864 88.4332 25.4864C90.5541 25.4864 92.1718 24.8393 93.3581 23.5811C94.113 22.7902 94.5444 21.9994 94.6163 21.2085H91.1293C90.9136 21.6039 90.6979 21.8915 90.4103 22.1072C89.943 22.5026 89.2959 22.7183 88.505 22.7183C87.7861 22.7183 87.139 22.5386 86.6357 22.2151C85.773 21.6758 85.3416 20.7771 85.2697 19.447H94.7601C94.7601 18.3326 94.7242 17.4698 94.6523 16.8587C94.5085 15.8522 94.149 14.9534 93.6097 14.1626C93.0346 13.2998 92.2797 12.6527 91.345 12.2213C90.4822 11.8619 89.4397 11.6462 88.3253 11.6462ZM88.3253 14.4502C89.1162 14.4502 89.7992 14.7018 90.3384 15.1691C90.8777 15.6365 91.2012 16.3195 91.2371 17.2182H85.3416C85.4494 16.3554 85.773 15.7084 86.2403 15.2051C86.7436 14.7018 87.4266 14.4502 88.3253 14.4502ZM68.4098 20.885C68.4098 22.2151 68.9131 23.3295 69.8837 24.1922C70.8543 25.055 72.3641 25.4864 74.4491 25.4864C76.4623 25.4864 77.9721 25.0909 78.9068 24.2641C79.8774 23.4373 80.3447 22.3948 80.3447 21.1006C80.3447 20.13 80.0212 19.3032 79.3382 18.6561C78.6551 18.0091 77.6486 17.5417 76.2825 17.2182C74.2334 16.7868 73.0471 16.4633 72.7236 16.2835C72.4001 16.1038 72.2203 15.8162 72.2203 15.4208C72.2203 15.0972 72.3641 14.8456 72.6877 14.594C73.0112 14.3783 73.5504 14.2345 74.2694 14.2345C75.1681 14.2345 75.8152 14.4502 76.1747 14.9175C76.3904 15.1691 76.4982 15.5286 76.5342 15.96H79.9493C79.8055 14.3783 79.1944 13.2279 78.1878 12.5808C77.1453 11.9338 75.8152 11.6102 74.1975 11.6102C72.472 11.6102 71.1419 12.0416 70.2072 12.9044C69.2725 13.7671 68.7693 14.8096 68.7693 15.9959C68.7693 17.0025 69.0569 17.7934 69.668 18.3326C70.2791 18.8718 71.3216 19.3392 72.7955 19.6987C74.8446 20.2019 76.0309 20.5255 76.3544 20.7412C76.678 20.9569 76.8218 21.2444 76.8218 21.6039C76.8218 21.9994 76.6061 22.287 76.2106 22.5026C75.8152 22.7183 75.276 22.7902 74.5929 22.7902C73.4426 22.7902 72.6517 22.5745 72.2203 22.1072C71.9687 21.8556 71.8249 21.4242 71.753 20.8131H68.4098V20.885ZM59.6024 17.2541C58.2723 17.4339 57.2657 17.6855 56.5827 18.081C55.3245 18.7999 54.7134 19.9503 54.7134 21.568C54.7134 22.7902 55.1088 23.7608 55.8637 24.4439C56.6546 25.1269 57.6252 25.4504 58.8115 25.4504C59.7462 25.4504 60.573 25.2347 61.3279 24.8034C61.939 24.4439 62.4783 24.0125 62.9815 23.5092C63.0175 23.7968 63.0534 24.0844 63.0894 24.3001C63.1253 24.5158 63.1972 24.7674 63.3051 25.055H67.0078V24.5517C66.7921 24.4439 66.6123 24.3001 66.5045 24.1563C66.3967 24.0125 66.3248 23.6889 66.2888 23.2576C66.2888 22.6824 66.2529 22.1791 66.2529 21.7477V15.7443C66.2529 14.1626 65.6777 13.0841 64.5633 12.5449C63.4489 11.9697 62.1907 11.6821 60.7527 11.6821C58.5599 11.6821 56.9781 12.2573 56.0794 13.4076C55.5042 14.1266 55.1807 15.0972 55.1088 16.2116H58.4161C58.488 15.7084 58.6677 15.3129 58.8834 15.0253C59.2069 14.6299 59.8181 14.4142 60.6089 14.4142C61.3279 14.4142 61.9031 14.5221 62.2626 14.7018C62.6221 14.9175 62.8377 15.277 62.8377 15.8162C62.8377 16.2476 62.5861 16.5711 62.1188 16.7868C61.8312 16.8947 61.3998 17.0025 60.7527 17.0744L59.6024 17.2541ZM62.8377 19.9503C62.8018 21.1006 62.4783 21.8915 61.8671 22.3229C61.256 22.7543 60.537 22.97 59.8181 22.97C59.3507 22.97 58.9553 22.8262 58.6318 22.5745C58.3082 22.3229 58.1285 21.8915 58.1285 21.3163C58.1285 20.6693 58.3801 20.166 58.9193 19.8784C59.2429 19.6987 59.7462 19.5549 60.5011 19.4111L61.292 19.2673C61.6874 19.1954 61.975 19.1235 62.2266 19.0156C62.4423 18.9437 62.658 18.8359 62.8737 18.6921V19.9503H62.8377ZM46.7687 7.40423H38.2489V25.055H46.1935C47.0923 25.055 47.9191 24.9831 48.674 24.8034C49.4289 24.6596 50.1119 24.336 50.6512 23.9046C51.1544 23.5452 51.5499 23.0778 51.9094 22.5026C52.4486 21.6758 52.7002 20.7412 52.7002 19.6987C52.7002 18.6921 52.4845 17.8293 52.0172 17.1104C51.5499 16.3914 50.8669 15.8881 49.9681 15.5646C50.5793 15.277 51.0107 14.9175 51.2982 14.558C51.8375 13.9109 52.1251 13.0482 52.1251 11.9697C52.1251 10.9272 51.8375 10.0285 51.2982 9.27356C50.4355 8.05131 48.9256 7.44018 46.7687 7.40423ZM46.0857 17.2541C46.8406 17.2541 47.4158 17.362 47.8472 17.5417C48.6021 17.9012 48.9616 18.5124 48.9616 19.447C48.9616 20.5255 48.5661 21.2804 47.8112 21.6399C47.3798 21.8556 46.8047 21.9634 46.0138 21.9634H41.7359V17.2541H46.0857ZM45.5824 10.4599C46.4092 10.4599 47.1282 10.5677 47.6674 10.7475C48.3145 10.9991 48.6021 11.5383 48.6021 12.3651C48.6021 13.1201 48.3505 13.6233 47.8831 13.9109C47.4158 14.1985 46.7687 14.3423 46.0138 14.3423H41.7359V10.4599H45.5824Z" fill="#0F0F0F"/>
</svg>
