<svg width="200" height="100" viewBox="0 0 200 100" fill="none" xmlns="http://www.w3.org/2000/svg">
<mask id="mask0_1429_247" style="mask-type:alpha" maskUnits="userSpaceOnUse" x="0" y="0" width="200" height="100">
<rect width="200" height="100" fill="#222222"/>
</mask>
<g mask="url(#mask0_1429_247)">
<path fill-rule="evenodd" clip-rule="evenodd" d="M76.0569 49.1407C75.5173 49.744 74.821 50.0457 73.968 50.0457V50.0443C73.1282 50.0431 72.446 49.7303 71.9213 49.1059C71.3967 48.4816 71.1343 47.5881 71.1343 46.4257V20.6173C71.1343 19.4237 71.3899 18.5219 71.9002 17.9146C72.4105 17.3073 73.0977 17 73.968 17C74.8369 16.9991 75.5368 17.3009 76.0679 17.9055C76.599 18.51 76.8645 19.4144 76.8645 20.6186V46.4271C76.8657 47.6328 76.5965 48.5374 76.0569 49.1407ZM107.806 31.474C107.679 31.126 107.55 30.7771 107.418 30.4277H107.42C107.287 30.0789 107.174 29.7225 107.083 29.3604C107 29.0543 106.953 28.7394 106.945 28.4224C106.945 28.0159 107.064 27.6144 107.303 27.2119C107.545 26.809 107.884 26.4722 108.288 26.2319C108.698 25.9797 109.171 25.8474 109.653 25.8501C110.605 25.8489 111.259 26.1324 111.616 26.7007C111.972 27.269 112.367 28.2208 112.801 29.5561L117.446 43.0712L122.439 28.9703C122.83 27.8374 123.215 27.0344 123.594 26.5612C123.972 26.088 124.546 25.8515 125.316 25.8515C126.043 25.8499 126.662 26.1039 127.173 26.6133C127.684 27.1228 127.939 27.7116 127.939 28.3799C127.932 28.6894 127.886 28.9967 127.802 29.2945C127.716 29.6268 127.611 29.9539 127.487 30.274L127.429 30.4228C127.322 30.6925 127.205 30.9905 127.075 31.3213L121.575 45.4908C121.424 45.8997 121.223 46.4141 120.98 47.0397C120.766 47.6013 120.491 48.138 120.161 48.6403C119.876 49.0673 119.494 49.4215 119.048 49.6747C118.607 49.9217 118.071 50.0451 117.441 50.0451C116.629 50.0451 115.982 49.8517 115.5 49.4676C115.018 49.0834 114.661 48.6641 114.43 48.2049C114.198 47.7458 113.809 46.8431 113.264 45.4895L107.806 31.474ZM92.7544 50.0014C98.2404 50.0014 102.72 45.7576 102.966 40.1236L102.97 28.6636C102.97 27.0539 101.703 25.7369 100.153 25.7369C98.6028 25.7369 97.3348 27.053 97.3348 28.6636V32.1057C97.3249 32.1025 97.3155 32.0979 97.3069 32.092L97.2885 40.2092C97.1053 42.4751 94.9523 44.2705 92.7265 44.2705C90.5006 44.2705 88.3458 42.4751 88.163 40.2092L88.1461 28.2667C87.9569 26.8426 86.7764 25.7378 85.3563 25.7378C83.8071 25.7378 82.5391 27.0539 82.5391 28.6645L82.5446 40.1246C82.7892 45.7581 87.2702 50.0023 92.7544 50.0023V50.0014ZM107.984 59.392C108.188 58.907 108.424 58.436 108.69 57.9821C108.954 57.5237 109.303 57.1201 109.719 56.7931C109.614 57.1957 109.457 57.583 109.252 57.9451C109.045 58.3068 108.839 58.6493 108.638 58.9685L108.609 59.0136C108.444 59.2687 108.278 59.526 108.106 59.783C107.924 60.0551 107.746 60.3267 107.574 60.5961L107.984 59.392ZM130.347 60.1063C130.482 59.8779 130.655 59.6742 130.859 59.5036C131.064 59.3304 131.297 59.1942 131.549 59.1011C131.815 59.0039 132.1 58.9767 132.379 59.022C132.109 59.4413 131.773 59.814 131.383 60.1255C131.002 60.4369 130.557 60.6617 130.08 60.784C130.127 60.5444 130.217 60.3154 130.347 60.1086V60.1063ZM142.297 54.7352C142.432 54.3799 142.575 54.0127 142.728 53.6377C143.013 53.0048 143.301 52.3833 143.593 51.7792C143.883 51.1754 144.209 50.5894 144.57 50.0246C144.695 49.8294 144.856 49.5825 145.054 49.2837C145.239 49.003 145.465 48.7511 145.724 48.5365C145.697 48.7117 145.659 48.8851 145.61 49.0555C145.568 49.1933 145.534 49.3333 145.508 49.4749C145.317 50.0558 145.078 50.6195 144.792 51.16C144.23 52.3609 143.572 53.5144 142.823 54.609C142.679 54.8093 142.53 55.016 142.377 55.2291C142.225 55.445 142.074 55.6407 141.924 55.8204C142.038 55.4578 142.163 55.0961 142.296 54.7352H142.297ZM146.753 58.1838C146.575 58.1156 146.39 58.1637 146.199 58.3333C146.043 58.4741 145.871 58.5955 145.687 58.695C145.183 59.0581 144.666 59.4019 144.136 59.7263C143.608 60.0505 143.058 60.3371 142.49 60.5842C142.456 60.613 142.37 60.6482 142.235 60.6857C142.099 60.7232 141.954 60.773 141.8 60.8265C141.627 60.8851 141.437 60.956 141.228 61.0433C141.114 60.778 141.048 60.4947 141.033 60.2064C141.013 59.8902 141.024 59.5728 141.063 59.2584C141.099 58.9406 141.156 58.6253 141.232 58.3146C141.306 58.0115 141.368 57.7272 141.418 57.4617C142.368 56.3707 143.235 55.2112 144.013 53.9926C144.786 52.7761 145.455 51.4973 146.015 50.1695C146.084 50.0063 146.18 49.8087 146.298 49.5823C146.418 49.3526 146.525 49.1164 146.619 48.8749C146.71 48.6472 146.773 48.4091 146.805 48.1661C146.83 47.9376 146.779 47.7072 146.66 47.5108C146.474 47.1884 146.227 47.0845 145.922 47.2034C145.65 47.3018 145.398 47.4465 145.177 47.631C144.773 47.9968 144.437 48.4301 144.182 48.9115C143.921 49.402 143.682 49.8829 143.466 50.3543C143.204 50.9009 142.953 51.4484 142.713 51.9969L142.622 52.2039L142.622 52.2055C142.411 52.6859 142.202 53.1628 141.99 53.6354C141.777 54.2128 141.554 54.802 141.322 55.4029C141.091 56.0081 140.894 56.6257 140.731 57.2527C140.242 57.7823 139.746 58.281 139.241 58.749C138.738 59.2187 138.21 59.6614 137.659 60.0752C137.602 60.1198 137.554 60.1753 137.518 60.2384C137.492 60.2595 137.466 60.2806 137.441 60.3017L137.441 60.3019C137.373 60.3577 137.306 60.4134 137.229 60.4671C137.039 60.6043 136.857 60.7415 136.679 60.8864C136.287 61.182 135.878 61.455 135.454 61.7041C135.031 61.9552 134.593 62.1812 134.142 62.3809C133.79 62.5238 133.428 62.6436 133.06 62.7394C132.672 62.8438 132.269 62.8802 131.869 62.8469C131.488 62.8194 131.119 62.7067 130.788 62.5172C130.467 62.3283 130.22 62.021 130.055 61.5866L130.173 61.5619C130.613 61.5122 131.04 61.3843 131.435 61.1841C131.828 60.9892 132.188 60.735 132.503 60.4305C132.589 60.3494 132.723 60.22 132.903 60.0423C133.08 59.8712 133.239 59.6828 133.377 59.4798C133.503 59.3021 133.589 59.0993 133.629 58.8853C133.66 58.6859 133.593 58.5194 133.424 58.3868C133.174 58.1627 132.864 58.0667 132.492 58.1042C132.165 58.1305 131.842 58.1989 131.533 58.3077C131.017 58.524 130.547 58.8341 130.145 59.2223C129.741 59.5995 129.442 60.0744 129.276 60.6011C128.908 60.8536 128.557 61.1303 128.225 61.4293C127.885 61.7341 127.556 62.0166 127.237 62.2766C127.22 62.2867 127.21 62.301 127.2 62.3153C127.195 62.3226 127.19 62.3298 127.184 62.3366C127.112 62.36 127.043 62.3906 126.977 62.428C126.84 62.523 126.711 62.6301 126.594 62.7481C126.51 62.8428 126.412 62.9233 126.303 62.9864C126.018 63.215 125.681 63.4762 125.287 63.7611C124.896 64.0432 124.49 64.3043 124.071 64.543C123.678 64.771 123.272 64.9742 122.855 65.1517C122.456 65.32 122.116 65.4151 121.833 65.432C121.789 65.4353 121.745 65.4288 121.705 65.4129C121.664 65.3971 121.627 65.3724 121.597 65.3406C121.545 65.2766 121.545 65.1668 121.597 65.0063C121.616 64.8544 121.665 64.708 121.743 64.5764C121.813 64.4653 121.887 64.3478 121.965 64.2261C122.044 64.1025 122.091 63.961 122.102 63.8146C122.128 63.5338 122.024 63.3385 121.787 63.2265C121.549 63.1144 121.364 63.1848 121.226 63.4258C120.951 63.9097 120.565 64.3961 120.067 64.8851C119.938 65.0233 119.8 65.1537 119.655 65.2756C119.443 65.4586 119.213 65.6415 118.962 65.8203C118.725 65.9937 118.471 66.1438 118.205 66.2684C117.951 66.3846 117.756 66.4056 117.617 66.3284C117.456 66.2332 117.417 66.0357 117.499 65.7307C117.597 65.3929 117.729 65.0659 117.893 64.7548C118.071 64.4081 118.257 64.0809 118.453 63.7729C118.65 63.4656 118.788 63.2617 118.87 63.1583C119.076 62.9449 119.26 62.7628 119.423 62.6118C119.617 62.4401 119.831 62.2931 120.061 62.1742L121.359 61.7398C121.568 61.6513 121.739 61.4906 121.839 61.287C121.951 61.0716 121.865 60.8755 121.586 60.6999C121.407 60.6319 121.15 60.6547 120.815 60.7685C120.45 60.8939 120.094 61.0436 119.75 61.2166C119.377 61.4032 119.026 61.595 118.696 61.7919C118.359 61.9867 118.131 62.1289 118.007 62.2195C117.77 62.3773 117.477 62.5748 117.126 62.8204C116.774 63.0659 116.41 63.3234 116.033 63.5941C115.655 63.8649 115.305 64.1365 114.979 64.4086C114.733 64.614 114.519 64.7897 114.338 64.9385L114.172 65.0749C114.148 65.0956 114.127 65.1193 114.109 65.1453C113.988 65.2327 113.872 65.3285 113.764 65.432C113.585 65.6086 113.424 65.7538 113.282 65.8679C112.878 66.2104 112.421 66.5657 111.908 66.9416C111.395 67.3175 110.893 67.5873 110.396 67.7561C110.344 67.4711 110.359 67.1777 110.442 66.9C110.527 66.5886 110.642 66.2862 110.786 65.9973C110.855 65.8578 110.922 65.7195 110.989 65.5826L110.99 65.5807C111.065 65.427 111.139 65.2751 111.213 65.1252C111.345 64.8587 111.45 64.5799 111.527 64.2929C111.629 63.9728 111.611 63.6801 111.476 63.4098C111.34 63.1396 111.116 62.9864 110.802 62.9434C110.51 62.9223 110.219 62.9841 109.961 63.1217C109.712 63.2505 109.479 63.4078 109.268 63.5905C108.694 64.0062 108.118 64.4424 107.542 64.8943C106.966 65.3461 106.405 65.8217 105.868 66.3174C106.016 65.9232 106.145 65.5368 106.253 65.1508C106.32 64.9123 106.388 64.6751 106.455 64.4376C106.497 64.2908 106.539 64.1439 106.58 63.9966C106.635 63.7527 106.695 63.5104 106.761 63.2699C106.828 63.033 106.898 62.7916 106.973 62.541C107.352 62.0779 107.719 61.5962 108.072 61.0959C108.425 60.5956 108.768 60.0967 109.102 59.5991C109.253 59.3378 109.418 59.0852 109.597 58.8423C109.791 58.5766 109.978 58.2999 110.155 58.0054C110.329 57.7211 110.486 57.4274 110.628 57.1256C110.763 56.8399 110.853 56.5353 110.896 56.2224C110.942 55.8296 110.887 55.5822 110.735 55.4733C110.582 55.3645 110.391 55.3398 110.164 55.3878C109.917 55.4433 109.682 55.5416 109.469 55.6782C109.277 55.7889 109.096 55.9183 108.93 56.0646C108.441 56.59 108.06 57.2066 107.81 57.8792C107.539 58.5868 107.294 59.2728 107.077 59.9371L106.403 62.1532C105.725 63.1897 104.877 64.1874 103.857 65.1462C102.837 66.105 101.766 67.0233 100.646 67.901C100.637 67.9079 100.632 67.9173 100.627 67.9268C100.624 67.932 100.621 67.9373 100.617 67.9422C100.616 67.9437 100.615 67.9453 100.614 67.9468C100.406 68.1177 100.175 68.3114 99.9096 68.5334L99.803 68.6227C99.451 68.9208 99.0704 69.1836 98.6665 69.4069C98.3361 69.6054 97.9487 69.8249 97.5044 70.0654C97.0663 70.3068 96.6061 70.5059 96.1301 70.6599C95.6822 70.8094 95.2108 70.8763 94.7389 70.8575C94.2848 70.838 93.8507 70.6653 93.5076 70.3677C93.131 70.0229 92.9941 69.6406 93.0953 69.2245C93.1969 68.8119 93.4423 68.449 93.7875 68.2006C94.0013 68.0112 94.2476 67.8619 94.5145 67.7597C94.7747 67.6627 95.0449 67.5951 95.3202 67.558C95.4819 67.5443 95.6409 67.5379 95.7939 67.5379C95.9323 67.5408 96.0689 67.5057 96.1888 67.4364C96.361 67.3797 96.4732 67.2946 96.5213 67.1771C96.5702 67.0646 96.5791 66.9387 96.5465 66.8204C96.5067 66.695 96.4313 66.5838 96.3294 66.5003C96.2214 66.4084 96.087 66.3531 95.9455 66.3425C95.5822 66.3777 95.1855 66.4921 94.7545 66.6896C94.3674 66.8629 93.9967 67.0704 93.6468 67.3097C93.479 67.3849 93.3217 67.4818 93.1791 67.5978C93.038 67.7131 92.886 67.8315 92.7247 67.9481C92.2822 68.2993 91.8543 68.6665 91.4503 69.0484C91.0533 69.4207 90.6321 69.7666 90.1897 70.0837C90.1516 70.0926 90.1144 70.1047 90.0784 70.1199C89.8043 70.2679 89.5446 70.4409 89.3024 70.6366C89.0275 70.8534 88.7679 71.0729 88.5236 71.2951C88.3643 71.4458 88.1971 71.5881 88.0229 71.7213C87.7119 71.912 87.3679 72.1151 86.9881 72.3232C86.6084 72.5312 86.2483 72.6506 85.9061 72.6785C85.6807 72.4706 85.5838 72.1611 85.6152 71.7502C85.6393 71.3965 85.6886 71.045 85.7627 70.6984C85.7903 70.4876 85.8483 70.282 85.935 70.0879C86.0219 69.8979 86.0702 69.6925 86.077 69.4838C86.0719 69.1435 85.9661 68.9702 85.7609 68.9588C85.5557 68.9473 85.3179 69.0045 85.0541 69.1239C84.779 69.2519 84.5157 69.4037 84.2671 69.5775C84.0051 69.7604 83.8406 69.8807 83.7701 69.9383L81.1077 72.0337C81.1052 72.0358 81.1031 72.0379 81.1013 72.0399C81.0991 72.0423 81.0971 72.0446 81.0953 72.0468C81.0915 72.0513 81.088 72.0555 81.0829 72.0593C81.0658 72.0724 81.0494 72.0859 81.0331 72.0993L81.0331 72.0993L81.033 72.0994C81.0057 72.1218 80.9787 72.144 80.9492 72.164L79.6052 73.15C79.1571 73.4801 78.6995 73.8089 78.2309 74.1428C77.7623 74.4766 77.2891 74.778 76.8108 75.0501C76.3326 75.3222 75.8227 75.5814 75.2882 75.8334C74.7798 76.0782 74.2362 76.2421 73.6771 76.3191C73.3967 76.3557 73.1755 76.3246 73.0119 76.2189C72.8523 76.1199 72.7271 75.9741 72.6537 75.8014C72.5746 75.613 72.5251 75.4136 72.5071 75.2101C72.4848 74.9821 72.481 74.7527 72.4957 74.5242C72.5526 73.5513 72.7472 72.5913 73.0738 71.6729C73.4044 70.7391 73.8073 69.8324 74.279 68.9611C74.7551 68.0827 75.2639 67.2253 75.8053 66.3887C76.3468 65.5522 76.866 64.729 77.3628 63.9193C77.52 63.6737 77.7137 63.3769 77.9423 63.0321C78.1709 62.6873 78.2836 62.3425 78.2781 62.0023C78.2694 61.7494 78.1915 61.5847 78.0431 61.5102C77.8821 61.4333 77.6992 61.4155 77.5264 61.4599C77.3222 61.5039 77.1241 61.5724 76.9364 61.6639C76.7538 61.7486 76.6012 61.8294 76.4759 61.8958L76.4467 61.9113C75.4644 62.4732 74.5822 63.1936 73.8356 64.0432C73.0559 64.9212 72.3189 65.7851 71.6244 66.6348C70.7852 67.6847 69.9759 68.7542 69.1965 69.8432C68.4172 70.9322 67.669 72.0532 66.9519 73.2062C67.0953 72.7946 67.2556 72.3831 67.4311 71.9715C67.5755 71.6328 67.7242 71.292 67.8742 70.9482L67.9712 70.7258C68.4201 69.6737 68.9189 68.6371 69.4677 67.6161C70.013 66.5991 70.4678 65.5362 70.8269 64.4397C70.9833 63.9766 71.1058 63.5028 71.1933 63.022C71.283 62.5493 71.2404 62.061 71.0701 61.6108C70.8704 61.121 70.5516 60.822 70.1081 60.7154C69.6702 60.6053 69.2103 60.6189 68.7797 60.7547C67.7887 61.0291 66.8589 61.5131 65.9904 62.2067C65.1569 62.8703 64.3627 63.5815 63.6116 64.3368C62.8134 65.1625 62.0657 66.0354 61.3725 66.9507C60.6807 67.8626 60.0075 68.7925 59.3528 69.7403C58.6809 70.7125 58.0451 71.7034 57.4453 72.7128C56.8455 73.7222 56.2792 74.7519 55.7463 75.8019C55.6485 75.2947 55.4814 74.8034 55.2497 74.3417C55.2061 74.2681 55.1469 74.2049 55.0763 74.1564C55.0058 74.1079 54.9255 74.0753 54.8411 74.0609C54.6578 74.0257 54.5021 74.0851 54.3688 74.2411C54.3231 74.2951 54.2887 74.3576 54.2675 74.4251C54.2463 74.4925 54.2389 74.5635 54.2456 74.6339C54.2639 74.7789 54.2972 74.9215 54.345 75.0597C54.3935 75.2065 54.4573 75.3478 54.5355 75.4813C54.6023 75.59 54.6516 75.7085 54.6817 75.8325C54.8294 76.5568 54.8397 77.3023 54.7119 78.0303C54.3952 78.7153 54.0854 79.4085 53.7824 80.1097C53.4778 80.8188 53.2364 81.5533 53.061 82.3047C52.9872 82.5558 52.9799 82.7341 53.0417 82.8366C53.0714 82.8876 53.1143 82.9296 53.1659 82.9584C53.2175 82.9871 53.2758 83.0014 53.3349 82.9998C53.4682 83.0021 53.6171 82.9486 53.7806 82.8416C53.9648 82.7087 54.1198 82.5395 54.2359 82.3445C54.6592 81.6814 55.0159 80.915 55.306 80.0452C55.5906 79.2007 55.7751 78.3259 55.8557 77.4386C56.0426 77.0393 56.2309 76.6415 56.421 76.2496C56.6111 75.8577 56.8081 75.4612 57.0165 75.0542C58.327 72.4907 59.8775 70.0567 61.6473 67.7849C62.389 66.8289 63.1984 65.9272 64.0692 65.0868C64.9231 64.2593 65.8594 63.521 66.8635 62.8835C67.0271 62.7843 67.2369 62.6507 67.4902 62.4792C67.746 62.3069 68.0144 62.154 68.2932 62.0219C68.5597 61.8933 68.8404 61.7966 69.1297 61.7338C69.3802 61.6741 69.6434 61.6974 69.8795 61.8001C70.0628 61.8916 70.1681 62.0667 70.2002 62.3379C70.2315 62.622 70.2204 62.9091 70.1672 63.1899C70.1127 63.488 70.0362 63.7816 69.9382 64.0684C69.8406 64.3565 69.7733 64.5677 69.7394 64.7013C69.511 65.4065 69.2416 66.0979 68.9327 66.7719C68.6236 67.4427 68.3207 68.1185 68.0238 68.7996C67.5172 69.9706 67.0093 71.1416 66.5003 72.3126C65.9912 73.4836 65.4734 74.6574 64.9469 75.8339L64.0733 77.8076C63.9757 78.0547 63.858 78.2934 63.7215 78.5215C63.5523 78.8111 63.5 79.0666 63.5644 79.2879C63.5878 79.38 63.6339 79.4649 63.6984 79.5347C63.763 79.6046 63.844 79.6573 63.9341 79.688C64.016 79.7228 64.1068 79.7314 64.1938 79.7127C64.2809 79.6941 64.3601 79.649 64.4206 79.5838C64.5607 79.4462 64.665 79.2765 64.7243 79.0894C64.7808 78.9155 64.8502 78.746 64.9318 78.5823C66.0191 76.3934 67.223 74.2642 68.5383 72.2038C69.1796 71.1953 69.8424 70.2141 70.5268 69.2601C71.2112 68.3062 71.9357 67.3763 72.7004 66.4706C73.0852 66.0265 73.4833 65.5985 73.8915 65.1814C74.2996 64.7644 74.7348 64.3583 75.1892 63.9646C75.4361 63.7406 75.6995 63.5354 75.9771 63.3508C76.2566 63.1654 76.5472 62.9974 76.8475 62.8478C76.6123 63.3225 76.3031 63.915 75.9199 64.6254C75.5366 65.3357 75.157 66.038 74.7811 66.7322C74.4814 67.2895 74.2075 67.7953 73.9595 68.2531L73.7769 68.5902C73.4828 69.1335 73.3079 69.4591 73.2488 69.5775C72.9315 70.2638 72.6261 70.9558 72.3326 71.6537C72.0366 72.365 71.8215 73.1073 71.6913 73.8666C71.6171 74.1611 71.5625 74.4602 71.5277 74.762C71.49 75.081 71.4914 75.4035 71.5319 75.7223C71.57 76.0251 71.6643 76.3182 71.8099 76.5866C71.9531 76.855 72.1726 77.0752 72.4407 77.2195C72.7302 77.3882 73.0607 77.4737 73.3958 77.4664C73.7345 77.4576 74.0698 77.3966 74.3899 77.2858C74.7175 77.176 75.0354 77.0392 75.3404 76.877C75.6473 76.7169 75.9276 76.5569 76.1828 76.3968C76.6555 76.084 77.1292 75.7657 77.6093 75.4406C78.0893 75.1155 78.5621 74.7885 79.0293 74.4542C79.438 74.1341 79.8592 73.8266 80.2932 73.5318C80.7272 73.237 81.1562 72.9169 81.5804 72.5715C81.8937 72.2931 82.2117 72.034 82.5341 71.7941C82.9072 71.505 83.2959 71.2368 83.6986 70.9906C84.1005 70.7467 84.5099 70.4845 84.9267 70.204C84.8809 70.5979 84.8475 71.0255 84.8264 71.4867C84.8011 71.9085 84.8266 72.3318 84.9024 72.7475C84.978 73.1253 85.1173 73.4198 85.3225 73.632C85.5277 73.8441 85.8314 73.8766 86.2323 73.7271C86.6929 73.5422 87.1257 73.2947 87.5186 72.9917C87.9196 72.6844 88.3141 72.3724 88.7023 72.0556C88.7728 71.9989 88.935 71.8848 89.1888 71.7131C89.4425 71.5415 89.6888 71.3614 89.9276 71.173C90.0819 71.0518 90.2244 70.9163 90.3532 70.7683C90.3587 70.7683 90.3633 70.7697 90.3678 70.7711C90.3739 70.7729 90.3797 70.7747 90.3871 70.7729C90.5529 70.7811 90.7078 70.7057 90.8511 70.5484L90.8723 70.5251L90.8728 70.5246C91.0069 70.3775 91.1215 70.2517 91.2176 70.1514C91.4182 69.9999 91.6063 69.8326 91.7801 69.6511C91.9583 69.4632 92.1434 69.2853 92.3372 69.117L92.3436 69.1472C92.2332 69.637 92.262 70.0746 92.4302 70.4546C92.5844 70.8172 92.8319 71.1328 93.1475 71.3692C93.4668 71.6049 93.8345 71.767 94.224 71.8439C94.629 71.927 95.0478 71.9146 95.4471 71.8078C96.3796 71.6093 97.2663 71.2369 98.0605 70.7102C98.8783 70.1767 99.6502 69.6199 100.376 69.0397C100.552 68.9503 100.723 68.8509 100.887 68.742C100.991 68.6743 101.077 68.5819 101.137 68.4731C101.206 68.4219 101.276 68.3707 101.343 68.3249C101.639 68.0716 101.934 67.8169 102.224 67.5649C102.513 67.3129 102.801 67.0395 103.091 66.7418C103.573 66.2787 104.049 65.8061 104.518 65.3241C104.987 64.8421 105.445 64.3301 105.892 63.788C105.64 64.6119 105.342 65.4211 105 66.2117C104.656 67.0044 104.257 67.7721 103.807 68.5092C103.736 68.6378 103.7 68.7831 103.705 68.93C103.711 69.0672 103.807 69.1906 103.993 69.3004C104.176 69.3891 104.324 69.4019 104.445 69.3333C104.566 69.2632 104.667 69.1646 104.741 69.0461C104.841 68.9181 104.993 68.7123 105.203 68.4219C105.413 68.1315 105.786 67.6902 106.323 67.0843C106.666 66.7346 107.015 66.3992 107.372 66.0782C107.729 65.7572 108.105 65.4497 108.5 65.1558C108.655 65.0686 108.805 64.9735 108.95 64.8709C109.121 64.747 109.298 64.6308 109.481 64.5165C109.655 64.4083 109.836 64.3116 110.022 64.227C110.183 64.1522 110.356 64.1058 110.532 64.0899C110.558 64.4593 110.501 64.8299 110.364 65.1741C110.22 65.5455 110.068 65.897 109.908 66.2287L109.849 66.3674C109.794 66.4964 109.733 66.6378 109.665 66.7911C109.576 66.9964 109.505 67.2089 109.452 67.4263C109.402 67.6325 109.392 67.8461 109.421 68.056C109.454 68.2672 109.563 68.4594 109.727 68.597C109.949 68.7859 110.185 68.8627 110.435 68.8321C110.689 68.7982 110.933 68.7136 111.153 68.5833C111.39 68.4449 111.611 68.2809 111.811 68.0945C112.02 67.9001 112.202 67.7337 112.359 67.596C112.735 67.2402 113.131 66.9058 113.546 66.5945C113.96 66.2824 114.356 65.9479 114.733 65.5926C114.789 65.5491 114.831 65.4909 114.854 65.4247C115.125 65.2048 115.404 64.9798 115.716 64.7301C116.095 64.4269 116.46 64.1324 116.802 63.847C117.144 63.5617 117.458 63.3147 117.732 63.1067C117.927 62.9554 118.13 62.8167 118.342 62.6914C118.075 62.9334 117.84 63.2076 117.641 63.5077C117.402 63.8594 117.192 64.23 117.013 64.6158C116.845 64.9731 116.707 65.3441 116.601 65.7247C116.505 66.0736 116.479 66.3512 116.519 66.5552C116.614 66.9416 116.818 67.1954 117.129 67.3216C117.446 67.4472 117.796 67.4632 118.123 67.3674C118.518 67.2388 118.879 67.0261 119.183 66.744C119.505 66.4538 119.813 66.1706 120.108 65.8944L120.808 65.2349C120.782 65.5137 120.827 65.7945 120.939 66.0512C121.047 66.2959 121.283 66.4514 121.646 66.5241C121.935 66.5711 122.231 66.5417 122.504 66.4386C122.803 66.3324 123.091 66.197 123.363 66.0343C123.638 65.8714 123.9 65.6879 124.147 65.4855C124.396 65.283 124.626 65.1069 124.842 64.956C125.166 64.7168 125.48 64.4854 125.784 64.2595C126.089 64.0336 126.392 63.8068 126.693 63.5736C126.765 63.5169 126.872 63.44 127.017 63.3449C127.162 63.2498 127.308 63.1519 127.451 63.0472C127.494 63.0073 127.535 62.9645 127.572 62.9192C127.66 62.8979 127.739 62.85 127.798 62.782C127.9 62.6664 128.013 62.5616 128.137 62.4692C128.235 62.3706 128.346 62.2633 128.467 62.1454L128.468 62.1445L128.614 62.0018C128.792 61.8275 128.98 61.6651 129.179 61.5157C129.169 61.6737 129.195 61.8319 129.254 61.9789C129.317 62.1367 129.382 62.2926 129.454 62.4463C129.66 62.8734 129.929 63.1977 130.26 63.4272C130.58 63.6485 130.94 63.8048 131.32 63.8873C131.706 63.9699 132.104 63.9832 132.496 63.9266C132.902 63.8727 133.298 63.7624 133.674 63.5987C134.537 63.1508 135.374 62.6538 136.181 62.1102L137.524 61.1224C137.648 61.0324 137.794 60.9425 137.954 60.8442L137.954 60.8441L137.962 60.8393C138.08 60.7654 138.176 60.6612 138.241 60.5375C138.983 59.9385 139.688 59.2946 140.352 58.6095C140.233 59.1311 140.152 59.6605 140.109 60.1936C140.094 60.4429 140.102 60.693 140.133 60.9409C140.157 61.1825 140.229 61.4169 140.344 61.6305C140.45 61.8244 140.615 61.9793 140.815 62.0722C141.019 62.1683 141.264 62.1637 141.551 62.0603C141.883 61.9691 142.197 61.8216 142.48 61.6241C142.768 61.425 143.068 61.2285 143.379 61.0346L146.546 58.995C146.692 58.8841 146.822 58.7538 146.932 58.6077C147.063 58.4431 147.005 58.3018 146.755 58.1838H146.753ZM90.5784 60.4552C89.8639 60.4993 89.156 60.617 88.4657 60.8064C88.2179 60.901 87.9582 61.0131 87.687 61.1466C87.4208 61.2752 87.1678 61.4295 86.9316 61.6071C86.7015 61.7835 86.4994 61.9935 86.332 62.23C86.166 62.4641 86.0563 62.7332 86.0113 63.0165C85.9811 63.2804 86.0892 63.4693 86.3384 63.5854C86.5876 63.7016 86.7937 63.6604 86.9572 63.4555C87.0932 63.2932 87.182 63.0968 87.2138 62.8876C87.2536 62.6656 87.3651 62.4628 87.5312 62.31C87.9515 61.861 88.4921 61.5418 89.0887 61.3904C89.6797 61.2327 90.2887 61.1518 90.9004 61.1498C90.9498 61.1504 90.9985 61.1387 91.0421 61.1158C91.0858 61.0929 91.1231 61.0595 91.1506 61.0186C91.2145 60.9347 91.2484 60.8318 91.2468 60.7264C91.2307 60.5393 91.1451 60.4415 90.9893 60.4296C90.8514 60.4193 90.7127 60.4277 90.577 60.4543L90.5784 60.4552Z" fill="#949494"/>
</g>
</svg>
