<svg width="172" height="245" viewBox="0 0 172 245" fill="none" xmlns="http://www.w3.org/2000/svg">
<mask id="mask0_3303_784" style="mask-type:alpha" maskUnits="userSpaceOnUse" x="0" y="0" width="172" height="245">
<rect width="172" height="245" fill="#D9D9D9"/>
</mask>
<g mask="url(#mask0_3303_784)">
<path d="M48.2422 38.4662C48.6307 39.2279 47.7083 41.2684 46.6702 43.3884C45.5173 45.7474 46.3707 43.6465 46.9659 41.937C47.2347 41.1696 47.7313 39.815 48.2403 38.4701L48.2422 38.4662ZM45.6426 39.0054C45.6426 39.0054 42.8679 42.1087 43.6333 42.2804C44.3987 42.4522 44.3586 41.8516 44.3165 41.7672C44.2744 41.6828 44.7432 41.1235 45.3412 40.2678C45.8761 39.5004 47.0242 38.0921 47.8098 38.1679C46.9027 40.6439 46.0578 42.9126 45.7727 43.6935C45.1326 45.4481 43.3807 48.7865 43.7634 49.6412C44.1462 50.496 46.1554 46.4314 47.782 42.8301C49.4086 39.2289 49.1053 38.5919 48.8488 37.3928C48.8312 37.3054 48.7935 37.2233 48.7388 37.1529C49.1713 36.0114 49.5483 35.0329 49.7033 34.6539C50.4285 35.125 50.685 34.4822 50.685 34.4822C50.0449 34.5254 50.6419 32.8975 51.4112 30.8004C52.1804 28.7034 51.7939 28.3177 51.5394 28.2746C51.2849 28.2314 51.2609 28.1892 50.5826 30.4157C50.2486 31.5007 49.2507 34.2635 48.2422 37.0148C47.4825 37.1712 46.2521 38.2744 45.6445 39.0054H45.6426ZM51.7681 16.8521C49.6334 21.5604 42.909 36.3836 42.909 36.3836C42.4306 37.4014 41.6403 39.2615 40.6911 41.3077C41.6173 37.528 44.459 31.0671 46.7506 24.9851C50.3797 15.3536 54.2232 6.36302 54.4366 6.36302C54.6499 6.36302 53.9065 12.1428 51.7719 16.8521H51.7681ZM34.0308 45.6802C35.4584 38.9526 39.7956 27.0447 41.5781 21.9853C44.0859 14.8673 49.5837 3.58102 50.2238 2.35119C50.8639 1.12136 51.5633 0.905516 51.3978 1.87154C51.2322 2.83756 48.9962 9.73498 45.1537 19.9516C41.3111 30.1682 37.9164 37.528 35.5253 42.5807C35.068 43.5467 34.5609 44.5953 34.0308 45.6802ZM52.5153 16.9586C53.4721 14.7119 56.3578 5.61476 54.6499 5.29243C52.9421 4.9701 46.8568 23.3332 44.1911 29.4804C40.8241 37.2508 39.7898 41.2962 39.7362 43.3165C37.8466 47.1614 35.622 50.9152 34.1035 50.5113C33.6251 50.3837 33.4912 49.5827 33.6012 48.3241C40.0941 35.0665 42.7559 28.4587 45.6263 21.1325C48.935 12.6781 51.348 4.86554 51.881 2.93925C52.4139 1.01296 52.6254 -2.30433 50.2774 0.905516C47.9294 4.11536 43.4458 14.6044 37.7882 30.6584C34.1963 40.853 32.586 45.9939 32.5439 48.6934C30.726 52.3484 28.9234 55.8566 28.1426 57.3502C28.1426 57.3502 26.0071 61.2661 25.6664 62.0383C25.3258 62.8106 25.1325 63.0658 25.4521 63.1895C25.6457 63.2546 25.8564 63.247 26.0449 63.1682C26.2333 63.0893 26.3868 62.9445 26.4769 62.7607C26.6912 62.3328 29.1559 57.26 30.3203 54.9481C31.1757 53.2424 31.9766 51.6327 32.7296 50.1055C32.9496 50.7473 33.3611 51.1454 33.9495 51.4159C35.4804 52.1191 37.77 48.6243 39.8903 44.554C40.2874 45.6188 41.337 44.9991 41.5283 44.5665C40.7993 44.7037 40.4577 44.3257 40.4003 43.5582C41.6441 41.1005 42.7923 38.5439 43.663 36.6512C46.1143 31.3002 51.5585 19.2072 52.5153 16.9586ZM77.7156 38.3751C77.6056 38.142 77.6199 37.8379 77.8706 37.4542C78.5643 36.3836 79.0972 36.4901 78.4045 37.5597C78.2175 37.8649 77.9852 38.1399 77.7156 38.3751V38.3751ZM59.6626 37.3151C59.4986 37.5895 59.2683 37.8182 58.9929 37.9799C58.8838 38.0595 58.8015 38.0911 58.7709 38.0633C58.7709 38.0633 58.7489 38.07 58.7479 38.0633C58.747 38.0566 58.7479 38.048 58.7479 38.0403C58.7482 38.0202 58.7507 38.0003 58.7556 37.9808C58.8235 37.1693 59.5631 36.3097 59.7057 36.4373C59.7057 36.4373 59.7057 36.4373 59.7057 36.4421H59.7105C59.7105 36.4421 59.7162 36.4555 59.7191 36.4594C59.8885 36.6311 59.8846 36.8824 59.6588 37.3141L59.6626 37.3151ZM85.9786 35.4176C83.577 36.3817 81.8691 37.1836 81.6031 37.1836C81.3371 37.1836 80.6463 36.8632 80.4817 37.4522C80.3172 38.0413 79.8416 38.7895 79.0408 38.897C78.7893 38.9267 78.5344 38.9015 78.2935 38.8231C79.1422 37.7381 80.0483 36.0948 78.7719 35.9529C77.8151 35.8473 77.5444 36.4325 77.2774 37.1309C77.1578 37.4446 76.931 38.0595 76.8717 38.6332C76.7705 38.6126 76.6734 38.575 76.5847 38.5219C76.0508 38.2015 75.891 37.9329 74.9304 38.3617C73.9697 38.7905 70.8735 40.8233 70.3377 38.2542C69.8019 35.6852 69.1101 36.114 67.8835 37.2949C66.6569 38.4758 63.8267 41.0938 64.4677 37.8302C64.6811 37.1865 65.0016 36.6522 64.5749 36.5985C64.1481 36.5447 64.1472 36.8124 63.9864 37.1865C63.8257 37.5607 63.8267 37.8839 63.3999 37.9357C62.9732 37.9875 62.1188 38.471 61.7992 38.7387C61.4796 39.0063 60.784 39.1138 60.4109 38.5248C60.0377 37.9357 60.274 37.764 60.4109 37.3467C60.4351 37.2619 60.4473 37.174 60.4472 37.0858C60.562 36.4488 60.4176 36.091 60.2444 35.9145C60.1408 35.8128 60.0112 35.7417 59.8699 35.709C59.7286 35.6763 59.5811 35.6834 59.4435 35.7293C58.9173 35.879 58.4609 36.4335 58.2887 37.1127C58.2887 37.1203 58.2791 37.1251 58.2762 37.1338C58.0451 37.7469 57.7595 38.338 57.4228 38.8998C57.1558 39.3267 56.8353 39.8592 56.5683 40.2371C56.3014 40.6151 55.7149 41.6818 56.1416 39.4351C56.5683 37.1884 56.996 35.6344 56.4621 35.101C55.9282 34.5676 55.3408 34.4583 54.8069 35.101C54.273 35.7437 53.5267 36.5985 53.5267 36.5985C53.5267 36.5985 55.0738 32.6931 56.8353 26.9095C58.5968 21.1258 58.9259 19.7415 58.9259 19.7415C59.4598 17.3864 59.567 15.8889 59.2464 15.8889C58.9259 15.8889 58.7556 17.3279 58.1155 19.8912C57.4754 22.4544 54.0883 33.5469 52.3804 37.4004C50.6725 41.254 48.89 44.7871 49.9042 44.7871C50.5979 44.7871 51.0782 42.9644 51.5049 41.8986C51.9317 40.8329 55.8814 33.0155 55.7752 36.279C55.6929 38.7924 54.8183 41.7912 55.5082 41.7912C56.1981 41.7912 56.6296 41.3605 57.2687 40.2889C57.9079 39.2174 57.9624 39.1646 57.9624 39.1646C57.9624 39.1646 58.5499 39.6443 59.4043 38.5766C60.0444 39.4332 60.8979 40.3992 61.8595 39.6471C62.8211 38.895 63.0335 38.5766 63.62 38.5228C63.62 39.1646 63.8869 41.466 66.4493 39.3785C69.0116 37.2911 69.2776 36.3826 69.4909 37.7746C69.7043 39.1665 70.3444 41.4132 73.1201 40.0769C75.8958 38.7406 75.6824 38.7934 76.2163 39.3277C76.2163 39.3277 76.6756 40.0769 77.2985 39.8073C77.4926 39.9011 77.7088 39.9392 77.9233 39.9177C79.6321 39.8102 79.7412 39.5416 80.2722 38.9008C80.8032 38.26 81.0731 37.9367 81.34 37.9367C81.607 37.9367 83.6363 37.457 86.1967 36.114C88.7571 34.771 88.3849 34.4554 85.9824 35.4176H85.9786ZM109.104 12.3942C108.434 14.2591 105.896 19.4931 102.957 25.3544C105.296 18.904 108.462 11.4944 109.368 9.19393C110.594 6.09057 110.647 8.11375 109.1 12.3942H109.104ZM98.2506 23.2852C101.013 14.3301 103.102 6.5213 103.926 4.49045C105.1 1.60101 104.141 7.05947 102.751 11.9826C102.102 14.2907 100.208 18.8206 98.2544 23.2852H98.2506ZM108.999 14.2408C110.6 10.773 111.603 6.74866 110.707 6.53473C109.812 6.32081 108.871 8.71812 104.642 19.2062C102.608 24.2531 101.559 27.2558 100.869 29.4948C97.6248 35.878 94.2999 42.2478 92.6408 45.2975C89.0643 51.8802 92.4801 40.4232 94.4233 34.9369C95.1888 32.7718 95.9332 30.5615 96.645 28.3666C97.2784 26.9459 97.9099 25.5271 98.5328 24.1275C104.298 11.1768 106.005 4.43577 104.724 2.72244C103.443 1.00912 99.8178 15.9954 98.0018 21.6668C97.4679 23.3399 96.5522 26.1957 95.5323 29.4037C94.3927 31.9429 93.4665 33.9824 93.0924 34.8842C91.8658 37.8293 87.543 46.7642 85.3002 51.6347C85.3002 51.6347 81.052 61.2018 80.6884 62.187C80.3248 63.1722 80.0263 64.4347 79.8799 64.7513C79.7335 65.0678 79.9651 65.1782 80.2435 64.9431C80.5219 64.7081 80.6061 64.4721 80.8176 63.6164C81.029 62.7607 83.0584 58.4841 84.6639 55.0623C85.8446 52.5364 89.6967 43.9525 93.9507 34.4266C91.9605 40.7667 90.0948 46.8918 90.2191 47.2487C91.286 50.4595 95.1295 42.3255 97.6908 37.1894C98.2649 36.0306 99.0801 34.4026 100.008 32.5377C99.7374 33.5412 99.4781 34.5091 99.1212 35.6689C97.798 39.9714 98.4802 41.2118 99.3557 41.2118C100.231 41.2118 99.9852 40.6669 99.6657 40.6669C98.4381 40.6141 99.0782 38.3118 100.947 31.5161C101.132 30.8445 101.353 30.1116 101.598 29.3423C104.553 23.3946 107.961 16.5067 109.006 14.2437L108.999 14.2408ZM105.495 37.528C105.495 37.528 105.474 38.4701 104.002 39.0265C102.192 39.7114 102.208 38.0854 102.806 36.8431C103.404 35.6008 104.214 35.431 104.535 35.8588C103.788 37.3141 105.492 37.528 105.492 37.528H105.495ZM122.553 36.8009C121.208 36.5016 120.269 35.8166 118.283 36.0334C116.298 36.2502 116.127 36.2042 115.785 35.7974C115.442 35.3907 115.616 35.0914 113.692 35.4339C111.769 35.7763 111.345 36.0967 110.62 35.7341C109.895 35.3715 109.594 35.1346 109.552 34.7911C109.51 34.4477 108.74 34.1925 108.74 34.7269C108.74 35.2612 108.656 35.5192 108.228 35.8627C107.8 36.2061 106.819 36.8038 106.606 36.868C106.505 36.8987 106.393 36.8536 106.224 36.7251C106.081 36.2454 105.773 35.8157 105.216 35.7476C104.966 35.4953 104.52 35.0914 104.21 35.0914C103.761 35.0914 102.546 35.4118 101.99 36.8891C101.434 38.3665 101.435 40.0136 103.186 40.0136C104.937 40.0136 105.875 38.5583 106.174 38.1525C106.256 38.0403 106.312 37.8034 106.321 37.5223C106.74 37.45 107.14 37.293 107.497 37.0609C109.206 35.9912 109.141 35.6478 109.334 35.8627C109.527 36.0776 110.615 37.0609 112.151 36.5898C113.687 36.1188 114.926 35.9912 115.141 36.2905C115.356 36.5898 115.675 37.1894 117.617 36.9323C119.56 36.6752 119.965 36.8891 120.648 37.1462C121.332 37.4033 121.886 37.7448 122.658 37.4465C123.429 37.1481 123.897 37.1031 122.551 36.8038L122.553 36.8009ZM131.36 34.2779C131.36 34.5561 131.183 34.6616 130.525 34.7883C130.615 34.0956 131.36 33.9556 131.36 34.2779ZM127.816 35.3293C127.256 35.4252 126.836 35.4252 126.836 35.1739C126.836 34.8094 127.622 34.9062 127.816 35.3293ZM132.344 34.1043C132.344 33.5047 131.533 33.3973 131.149 33.3973C130.766 33.3973 129.634 33.6697 129.579 34.9513C129.244 35.0204 128.87 35.1106 128.507 35.1921C128.451 34.6981 128.08 34.2539 126.964 34.2539C124.873 34.2539 125.171 36.0766 127.049 36.0766C127.253 36.0671 127.457 36.0444 127.658 36.0085C127.59 36.0945 127.516 36.1745 127.434 36.2474C126.197 37.3602 124.445 37.0609 124.445 35.219C124.445 34.8765 124.532 34.4918 124.744 34.4918C124.957 34.4918 125.171 34.7067 125.47 34.4064C125.768 34.1062 125.598 33.5498 124.83 33.5498C124.061 33.5498 123.51 34.6175 123.51 35.2161C123.51 35.6881 123.893 37.6575 125.559 37.6575C127.224 37.6575 127.866 36.8431 128.206 36.3299C128.298 36.1873 128.371 36.0335 128.423 35.8723C128.826 35.7946 129.252 35.7082 129.655 35.6238C129.91 36.538 130.803 36.9035 132.134 37.4465C133.711 38.0825 134.609 38.9459 133.071 39.3296C131.532 39.7133 130.679 39.7133 130.338 39.6289C129.997 39.5445 129.697 39.3296 129.355 39.3296C129.014 39.3296 128.374 40.4808 130.209 40.4808C132.044 40.4808 134.65 40.3091 134.65 38.5977C134.65 37.1846 132.13 36.6714 131.533 36.3711C131.081 36.1447 130.727 35.8915 130.582 35.4319C130.658 35.4166 130.743 35.3984 130.807 35.3869C131.704 35.2142 132.344 34.7019 132.344 34.1023V34.1043ZM148.697 35.3869C148.527 34.9158 147.631 34.5724 146.136 35.0031C144.64 35.4339 141.695 36.0747 139.986 35.9461C138.278 35.8176 137.425 35.903 136.785 36.0747C136.145 36.2464 134.479 36.5025 134.479 35.3897C134.479 34.6223 135.376 34.5753 135.59 34.5753C135.803 34.5753 136.272 34.747 136.315 34.8755C136.358 35.0041 136.721 35.4962 136.913 35.431C137.105 35.3658 137.041 33.9335 135.504 33.9335C133.966 33.9335 133.797 35.4751 133.797 35.4751C133.797 36.1169 134.436 36.9304 135.615 36.9304C136.793 36.9304 136.961 36.6733 137.345 36.5879C137.728 36.5025 138.754 36.5025 139.18 36.6522C139.606 36.8018 140.889 37.1875 142.81 36.7155C144.731 36.2435 147.422 35.3897 147.805 35.431C148.189 35.4722 148.874 35.8598 148.702 35.3897" fill="black"/>
<path d="M96.792 128.519C97.1804 129.281 96.2581 131.322 95.2199 133.442C94.067 135.801 94.9205 133.7 95.5156 131.99C95.7845 131.223 96.281 129.868 96.7901 128.523L96.792 128.519ZM94.1923 129.059C94.1923 129.059 91.4176 132.162 92.1831 132.334C92.9485 132.505 92.9083 131.905 92.8662 131.82C92.8241 131.736 93.2929 131.177 93.8909 130.321C94.4258 129.554 95.574 128.145 96.3595 128.221C95.4524 130.697 94.6076 132.966 94.3225 133.747C93.6824 135.501 91.9305 138.84 92.3132 139.694C92.6959 140.549 94.7052 136.485 96.3318 132.883C97.9583 129.282 97.655 128.645 97.3986 127.446C97.3809 127.359 97.3433 127.276 97.2886 127.206C97.721 126.065 98.098 125.086 98.253 124.707C98.9783 125.178 99.2347 124.535 99.2347 124.535C98.5946 124.579 99.1916 122.951 99.9609 120.854C100.73 118.757 100.344 118.371 100.089 118.328C99.8346 118.285 99.8107 118.242 99.1323 120.469C98.7984 121.554 97.8004 124.317 96.792 127.068C96.0323 127.224 94.8018 128.328 94.1943 129.059H94.1923ZM100.318 106.905C98.1832 111.614 91.4587 126.437 91.4587 126.437C90.9803 127.455 90.19 129.315 89.2409 131.361C90.1671 127.581 93.0088 121.12 95.3003 115.038C98.9295 105.407 102.773 96.4162 102.986 96.4162C103.2 96.4162 102.456 102.196 100.322 106.905H100.318ZM82.5806 135.733C84.0081 129.006 88.3453 117.098 90.1278 112.039C92.6356 104.921 98.1334 93.6342 98.7735 92.4044C99.4136 91.1746 100.113 90.9587 99.9475 91.9248C99.782 92.8908 97.5459 99.7882 93.7034 110.005C89.8609 120.221 86.4661 127.581 84.0751 132.634C83.6177 133.6 83.1106 134.648 82.5806 135.733ZM101.065 107.012C102.022 104.765 104.908 95.668 103.2 95.3457C101.492 95.0233 95.4065 113.386 92.7409 119.534C89.3739 127.304 88.3396 131.349 88.286 133.37C86.3963 137.215 84.1717 140.968 82.6533 140.565C82.1749 140.437 82.0409 139.636 82.151 138.377C88.6438 125.12 91.3057 118.512 94.1761 111.186C97.4847 102.731 99.8978 94.9188 100.431 92.9925C100.964 91.0662 101.175 87.7489 98.8271 90.9587C96.4791 94.1686 91.9955 104.658 86.3379 120.712C82.7461 130.906 81.1358 136.047 81.0937 138.747C79.2758 142.402 77.4731 145.91 76.6924 147.403C76.6924 147.403 74.5568 151.319 74.2162 152.092C73.8756 152.864 73.6823 153.119 74.0019 153.243C74.1955 153.308 74.4061 153.3 74.5946 153.221C74.7831 153.143 74.9366 152.998 75.0266 152.814C75.2409 152.386 77.7056 147.313 78.8701 145.001C79.7255 143.296 80.5263 141.686 81.2793 140.159C81.4994 140.801 81.9108 141.199 82.4992 141.469C84.0301 142.172 86.3198 138.678 88.44 134.607C88.8371 135.672 89.8867 135.052 90.0781 134.62C89.349 134.757 89.0074 134.379 88.95 133.611C90.1939 131.154 91.342 128.597 92.2127 126.704C94.664 121.353 100.108 109.26 101.065 107.012ZM126.265 128.428C126.155 128.195 126.17 127.891 126.42 127.507C127.114 126.437 127.647 126.543 126.954 127.613C126.767 127.918 126.535 128.193 126.265 128.428V128.428ZM108.212 127.368C108.048 127.643 107.818 127.871 107.543 128.033C107.434 128.113 107.351 128.144 107.321 128.117C107.321 128.117 107.299 128.123 107.298 128.117C107.297 128.11 107.298 128.101 107.298 128.094C107.298 128.073 107.3 128.054 107.305 128.034C107.373 127.222 108.113 126.363 108.255 126.491C108.255 126.491 108.255 126.491 108.255 126.495H108.26C108.26 126.495 108.266 126.509 108.269 126.513C108.438 126.684 108.434 126.936 108.209 127.367L108.212 127.368ZM134.528 125.471C132.127 126.435 130.419 127.237 130.153 127.237C129.887 127.237 129.196 126.916 129.031 127.505C128.867 128.094 128.391 128.843 127.591 128.95C127.339 128.98 127.084 128.955 126.843 128.876C127.692 127.791 128.598 126.148 127.322 126.006C126.365 125.901 126.094 126.486 125.827 127.184C125.708 127.498 125.481 128.113 125.421 128.686C125.32 128.666 125.223 128.628 125.134 128.575C124.601 128.255 124.441 127.986 123.48 128.415C122.519 128.844 119.423 130.876 118.887 128.307C118.352 125.738 117.66 126.167 116.433 127.348C115.207 128.529 112.376 131.147 113.017 127.883C113.231 127.24 113.551 126.705 113.125 126.652C112.698 126.598 112.697 126.866 112.536 127.24C112.375 127.614 112.376 127.937 111.95 127.989C111.523 128.041 110.669 128.524 110.349 128.792C110.029 129.06 109.334 129.167 108.961 128.578C108.587 127.989 108.824 127.817 108.961 127.4C108.985 127.315 108.997 127.227 108.997 127.139C109.112 126.502 108.967 126.144 108.794 125.968C108.691 125.866 108.561 125.795 108.42 125.762C108.278 125.73 108.131 125.737 107.993 125.783C107.467 125.932 107.011 126.487 106.838 127.166C106.838 127.174 106.829 127.178 106.826 127.187C106.595 127.8 106.309 128.391 105.973 128.953C105.706 129.38 105.385 129.912 105.118 130.29C104.851 130.668 104.265 131.735 104.691 129.488C105.118 127.242 105.546 125.688 105.012 125.154C104.478 124.621 103.891 124.511 103.357 125.154C102.823 125.797 102.076 126.652 102.076 126.652C102.076 126.652 103.624 122.746 105.385 116.963C107.147 111.179 107.476 109.795 107.476 109.795C108.01 107.44 108.117 105.942 107.796 105.942C107.476 105.942 107.305 107.381 106.665 109.944C106.025 112.508 102.638 123.6 100.93 127.454C99.2223 131.307 97.4397 134.84 98.4539 134.84C99.1476 134.84 99.6279 133.018 100.055 131.952C100.481 130.886 104.431 123.069 104.325 126.332C104.243 128.846 103.368 131.844 104.058 131.844C104.748 131.844 105.179 131.414 105.818 130.342C106.458 129.271 106.512 129.218 106.512 129.218C106.512 129.218 107.1 129.697 107.954 128.63C108.594 129.486 109.448 130.452 110.409 129.7C111.371 128.948 111.583 128.63 112.17 128.576C112.17 129.218 112.437 131.519 114.999 129.432C117.561 127.344 117.827 126.436 118.041 127.828C118.254 129.22 118.894 131.466 121.67 130.13C124.446 128.794 124.232 128.847 124.766 129.381C124.766 129.381 125.225 130.13 125.848 129.861C126.042 129.954 126.259 129.992 126.473 129.971C128.182 129.863 128.291 129.595 128.822 128.954C129.353 128.313 129.623 127.99 129.89 127.99C130.157 127.99 132.186 127.51 134.746 126.167C137.307 124.824 136.935 124.509 134.532 125.471H134.528ZM157.653 102.447C156.984 104.312 154.446 109.546 151.507 115.408C153.846 108.957 157.011 101.548 157.917 99.2472C159.144 96.1438 159.197 98.167 157.65 102.447H157.653ZM146.8 113.338C149.563 104.383 151.651 96.5745 152.476 94.5437C153.65 91.6542 152.69 97.1127 151.301 102.036C150.651 104.344 148.758 108.874 146.804 113.338H146.8ZM157.549 104.294C159.15 100.826 160.153 96.8019 159.257 96.588C158.361 96.374 157.421 98.7713 153.192 109.259C151.158 114.306 150.109 117.309 149.419 119.548C146.175 125.931 142.85 132.301 141.191 135.351C137.614 141.933 141.03 130.476 142.973 124.99C143.739 122.825 144.483 120.615 145.195 118.42C145.828 116.999 146.46 115.58 147.083 114.181C152.847 101.23 154.555 94.489 153.274 92.7757C151.993 91.0623 148.368 106.049 146.552 111.72C146.018 113.393 145.102 116.249 144.082 119.457C142.942 121.996 142.016 124.036 141.642 124.937C140.416 127.882 136.093 136.817 133.85 141.688C133.85 141.688 129.602 151.255 129.238 152.24C128.875 153.225 128.576 154.488 128.43 154.804C128.283 155.121 128.515 155.231 128.793 154.996C129.072 154.761 129.156 154.525 129.367 153.67C129.579 152.814 131.608 148.537 133.214 145.115C134.394 142.59 138.246 134.006 142.5 124.48C140.51 130.82 138.645 136.945 138.769 137.302C139.836 140.513 143.679 132.379 146.241 127.243C146.815 126.084 147.63 124.456 148.558 122.591C148.287 123.594 148.028 124.562 147.671 125.722C146.348 130.025 147.03 131.265 147.905 131.265C148.781 131.265 148.535 130.72 148.215 130.72C146.988 130.667 147.628 128.365 149.497 121.569C149.682 120.898 149.902 120.165 150.148 119.395C153.103 113.448 156.511 106.56 157.556 104.297L157.549 104.294ZM154.044 127.581C154.044 127.581 154.024 128.523 152.552 129.08C150.741 129.765 150.758 128.139 151.356 126.896C151.954 125.654 152.764 125.484 153.085 125.912C152.337 127.367 154.041 127.581 154.041 127.581H154.044ZM171.103 126.854C169.758 126.555 168.818 125.87 166.833 126.087C164.848 126.303 164.677 126.257 164.335 125.851C163.992 125.444 164.165 125.145 162.242 125.487C160.319 125.83 159.895 126.15 159.17 125.787C158.445 125.425 158.144 125.188 158.102 124.844C158.06 124.501 157.29 124.246 157.29 124.78C157.29 125.314 157.206 125.572 156.778 125.916C156.35 126.259 155.368 126.857 155.156 126.921C155.055 126.952 154.943 126.907 154.773 126.778C154.631 126.299 154.323 125.869 153.766 125.801C153.516 125.548 153.069 125.145 152.76 125.145C152.311 125.145 151.095 125.465 150.539 126.942C149.984 128.42 149.985 130.067 151.735 130.067C153.486 130.067 154.425 128.612 154.724 128.206C154.806 128.094 154.861 127.857 154.871 127.576C155.29 127.503 155.69 127.346 156.047 127.114C157.756 126.044 157.691 125.701 157.884 125.916C158.077 126.131 159.165 127.114 160.701 126.643C162.236 126.172 163.475 126.044 163.691 126.344C163.906 126.643 164.225 127.243 166.167 126.986C168.109 126.728 168.515 126.942 169.198 127.199C169.881 127.457 170.436 127.798 171.207 127.5C171.979 127.201 172.446 127.156 171.101 126.857L171.103 126.854ZM179.91 124.331C179.91 124.609 179.733 124.715 179.074 124.841C179.165 124.149 179.91 124.009 179.91 124.331ZM176.366 125.383C175.806 125.478 175.386 125.478 175.386 125.227C175.386 124.863 176.171 124.959 176.366 125.383ZM180.894 124.157C180.894 123.558 180.083 123.45 179.699 123.45C179.315 123.45 178.183 123.723 178.129 125.005C177.794 125.074 177.42 125.164 177.056 125.245C177.001 124.751 176.63 124.307 175.514 124.307C173.422 124.307 173.721 126.13 175.599 126.13C175.803 126.12 176.007 126.098 176.208 126.062C176.14 126.148 176.065 126.228 175.984 126.301C174.747 127.413 172.995 127.114 172.995 125.272C172.995 124.93 173.082 124.545 173.294 124.545C173.507 124.545 173.721 124.76 174.019 124.46C174.318 124.159 174.148 123.603 173.379 123.603C172.611 123.603 172.06 124.671 172.06 125.269C172.06 125.741 172.443 127.711 174.108 127.711C175.774 127.711 176.415 126.896 176.756 126.383C176.848 126.24 176.921 126.087 176.973 125.925C177.376 125.848 177.802 125.761 178.205 125.677C178.46 126.591 179.353 126.957 180.684 127.5C182.26 128.136 183.159 128.999 181.62 129.383C180.082 129.767 179.228 129.767 178.888 129.682C178.547 129.598 178.247 129.383 177.905 129.383C177.563 129.383 176.923 130.534 178.759 130.534C180.594 130.534 183.2 130.362 183.2 128.651C183.2 127.238 180.68 126.725 180.083 126.424C179.631 126.198 179.277 125.945 179.132 125.485C179.208 125.47 179.292 125.452 179.357 125.44C180.254 125.267 180.894 124.755 180.894 124.156V124.157ZM197.247 125.44C197.077 124.969 196.181 124.626 194.685 125.056C193.19 125.487 190.245 126.128 188.536 125.999C186.827 125.871 185.975 125.956 185.335 126.128C184.695 126.3 183.029 126.556 183.029 125.443C183.029 124.676 183.926 124.629 184.14 124.629C184.353 124.629 184.822 124.8 184.865 124.929C184.908 125.057 185.271 125.549 185.463 125.484C185.655 125.419 185.591 123.987 184.053 123.987C182.516 123.987 182.347 125.528 182.347 125.528C182.347 126.17 182.986 126.984 184.164 126.984C185.343 126.984 185.511 126.727 185.894 126.641C186.278 126.556 187.304 126.556 187.73 126.705C188.155 126.855 189.438 127.241 191.36 126.769C193.281 126.297 195.971 125.443 196.355 125.484C196.739 125.525 197.424 125.913 197.252 125.443" fill="black"/>
<path d="M-75.2102 128.519C-74.8218 129.281 -75.7441 131.322 -76.7823 133.442C-77.9352 135.801 -77.0817 133.7 -76.4866 131.99C-76.2178 131.223 -75.7212 129.868 -75.2122 128.523L-75.2102 128.519ZM-77.8099 129.059C-77.8099 129.059 -80.5846 132.162 -79.8192 132.334C-79.0537 132.505 -79.0939 131.905 -79.136 131.82C-79.1781 131.736 -78.7093 131.177 -78.1113 130.321C-77.5764 129.554 -76.4282 128.145 -75.6427 128.221C-76.5498 130.697 -77.3946 132.966 -77.6797 133.747C-78.3199 135.501 -80.0718 138.84 -79.689 139.694C-79.3063 140.549 -77.297 136.485 -75.6705 132.883C-74.0439 129.282 -74.3472 128.645 -74.6036 127.446C-74.6213 127.359 -74.6589 127.276 -74.7137 127.206C-74.2812 126.065 -73.9042 125.086 -73.7492 124.707C-73.0239 125.178 -72.7675 124.535 -72.7675 124.535C-73.4076 124.579 -72.8106 122.951 -72.0413 120.854C-71.272 118.757 -71.6586 118.371 -71.9131 118.328C-72.1676 118.285 -72.1915 118.242 -72.8699 120.469C-73.2038 121.554 -74.2018 124.317 -75.2102 127.068C-75.9699 127.224 -77.2004 128.328 -77.808 129.059H-77.8099ZM-71.6844 106.905C-73.819 111.614 -80.5435 126.437 -80.5435 126.437C-81.0219 127.455 -81.8122 129.315 -82.7613 131.361C-81.8351 127.581 -78.9934 121.12 -76.7019 115.038C-73.0727 105.407 -69.2293 96.4162 -69.0159 96.4162C-68.8025 96.4162 -69.546 102.196 -71.6806 106.905H-71.6844ZM-89.4216 135.733C-87.9941 129.006 -83.6569 117.098 -81.8744 112.039C-79.3666 104.921 -73.8688 93.6342 -73.2287 92.4044C-72.5886 91.1746 -71.8892 90.9587 -72.0547 91.9248C-72.2202 92.8908 -74.4563 99.7882 -78.2988 110.005C-82.1413 120.221 -85.5361 127.581 -87.9271 132.634C-88.3845 133.6 -88.8916 134.648 -89.4216 135.733ZM-70.9371 107.012C-69.9803 104.765 -67.0946 95.668 -68.8025 95.3457C-70.5104 95.0233 -76.5957 113.386 -79.2613 119.534C-82.6283 127.304 -83.6626 131.349 -83.7162 133.37C-85.6059 137.215 -87.8305 140.968 -89.3489 140.565C-89.8273 140.437 -89.9613 139.636 -89.8513 138.377C-83.3584 125.12 -80.6966 118.512 -77.8261 111.186C-74.5175 102.731 -72.1045 94.9188 -71.5715 92.9925C-71.0386 91.0662 -70.8271 87.7489 -73.1751 90.9587C-75.5231 94.1686 -80.0067 104.658 -85.6643 120.712C-89.2561 130.906 -90.8664 136.047 -90.9085 138.747C-92.7264 142.402 -94.5291 145.91 -95.3098 147.403C-95.3098 147.403 -97.4454 151.319 -97.786 152.092C-98.1267 152.864 -98.3199 153.119 -98.0004 153.243C-97.8067 153.308 -97.5961 153.3 -97.4076 153.221C-97.2191 153.143 -97.0656 152.998 -96.9756 152.814C-96.7613 152.386 -94.2966 147.313 -93.1321 145.001C-92.2768 143.296 -91.4759 141.686 -90.7229 140.159C-90.5028 140.801 -90.0914 141.199 -89.503 141.469C-87.9721 142.172 -85.6825 138.678 -83.5622 134.607C-83.1651 135.672 -82.1155 135.052 -81.9241 134.62C-82.6532 134.757 -82.9948 134.379 -83.0522 133.611C-81.8084 131.154 -80.6602 128.597 -79.7895 126.704C-77.3382 121.353 -71.894 109.26 -70.9371 107.012ZM-45.7368 128.428C-45.8469 128.195 -45.8325 127.891 -45.5818 127.507C-44.8882 126.437 -44.3552 126.543 -45.0479 127.613C-45.235 127.918 -45.4673 128.193 -45.7368 128.428V128.428ZM-63.7898 127.368C-63.9539 127.643 -64.1842 127.871 -64.4596 128.033C-64.5687 128.113 -64.6509 128.144 -64.6816 128.117C-64.6816 128.117 -64.7036 128.123 -64.7045 128.117C-64.7055 128.11 -64.7045 128.101 -64.7045 128.094C-64.7043 128.073 -64.7017 128.054 -64.6969 128.034C-64.6289 127.222 -63.8893 126.363 -63.7468 126.491C-63.7468 126.491 -63.7468 126.491 -63.7468 126.495H-63.742C-63.742 126.495 -63.7362 126.509 -63.7334 126.513C-63.564 126.684 -63.5678 126.936 -63.7936 127.367L-63.7898 127.368ZM-37.4739 125.471C-39.8755 126.435 -41.5834 127.237 -41.8493 127.237C-42.1153 127.237 -42.8062 126.916 -42.9707 127.505C-43.1353 128.094 -43.6108 128.843 -44.4117 128.95C-44.6632 128.98 -44.9181 128.955 -45.1589 128.876C-44.3102 127.791 -43.4042 126.148 -44.6805 126.006C-45.6373 125.901 -45.9081 126.486 -46.1751 127.184C-46.2947 127.498 -46.5214 128.113 -46.5807 128.686C-46.682 128.666 -46.7791 128.628 -46.8678 128.575C-47.4017 128.255 -47.5615 127.986 -48.5221 128.415C-49.4827 128.844 -52.5789 130.876 -53.1148 128.307C-53.6506 125.738 -54.3423 126.167 -55.569 127.348C-56.7956 128.529 -59.6258 131.147 -58.9848 127.883C-58.7714 127.24 -58.4509 126.705 -58.8776 126.652C-59.3043 126.598 -59.3053 126.866 -59.466 127.24C-59.6268 127.614 -59.6258 127.937 -60.0525 127.989C-60.4793 128.041 -61.3337 128.524 -61.6533 128.792C-61.9729 129.06 -62.6684 129.167 -63.0416 128.578C-63.4148 127.989 -63.1784 127.817 -63.0416 127.4C-63.0174 127.315 -63.0051 127.227 -63.0052 127.139C-62.8904 126.502 -63.0349 126.144 -63.2081 125.968C-63.3117 125.866 -63.4413 125.795 -63.5825 125.762C-63.7238 125.73 -63.8714 125.737 -64.0089 125.783C-64.5352 125.932 -64.9916 126.487 -65.1638 127.166C-65.1638 127.174 -65.1734 127.178 -65.1762 127.187C-65.4073 127.8 -65.693 128.391 -66.0297 128.953C-66.2966 129.38 -66.6172 129.912 -66.8841 130.29C-67.1511 130.668 -67.7376 131.735 -67.3109 129.488C-66.8841 127.242 -66.4564 125.688 -66.9903 125.154C-67.5242 124.621 -68.1117 124.511 -68.6456 125.154C-69.1795 125.797 -69.9258 126.652 -69.9258 126.652C-69.9258 126.652 -68.3787 122.746 -66.6172 116.963C-64.8557 111.179 -64.5266 109.795 -64.5266 109.795C-63.9927 107.44 -63.8855 105.942 -64.206 105.942C-64.5266 105.942 -64.6969 107.381 -65.337 109.944C-65.9771 112.508 -69.3642 123.6 -71.0721 127.454C-72.78 131.307 -74.5625 134.84 -73.5483 134.84C-72.8546 134.84 -72.3743 133.018 -71.9475 131.952C-71.5208 130.886 -67.5711 123.069 -67.6773 126.332C-67.7596 128.846 -68.6341 131.844 -67.9443 131.844C-67.2544 131.844 -66.8229 131.414 -66.1837 130.342C-65.5446 129.271 -65.4901 129.218 -65.4901 129.218C-65.4901 129.218 -64.9026 129.697 -64.0482 128.63C-63.4081 129.486 -62.5546 130.452 -61.593 129.7C-60.6314 128.948 -60.419 128.63 -59.8325 128.576C-59.8325 129.218 -59.5655 131.519 -57.0032 129.432C-54.4409 127.344 -54.1749 126.436 -53.9615 127.828C-53.7482 129.22 -53.1081 131.466 -50.3324 130.13C-47.5567 128.794 -47.7701 128.847 -47.2362 129.381C-47.2362 129.381 -46.7769 130.13 -46.154 129.861C-45.9598 129.954 -45.7436 129.992 -45.5292 129.971C-43.8204 129.863 -43.7113 129.595 -43.1803 128.954C-42.6492 128.313 -42.3794 127.99 -42.1125 127.99C-41.8455 127.99 -39.8161 127.51 -37.2557 126.167C-34.6953 124.824 -35.0675 124.509 -37.4701 125.471H-37.4739ZM-14.3489 102.447C-15.0186 104.312 -17.5561 109.546 -20.4954 115.408C-18.156 108.957 -14.9909 101.548 -14.0848 99.2472C-12.8582 96.1438 -12.8056 98.167 -14.3527 102.447H-14.3489ZM-25.2019 113.338C-22.4396 104.383 -20.3509 96.5745 -19.5261 94.5437C-18.3521 91.6542 -19.3118 97.1127 -20.7011 102.036C-21.3508 104.344 -23.2443 108.874 -25.1981 113.338H-25.2019ZM-14.4532 104.294C-12.8524 100.826 -11.8497 96.8019 -12.7453 96.588C-13.6408 96.374 -14.5814 98.7713 -18.8105 109.259C-20.8446 114.306 -21.8933 117.309 -22.5831 119.548C-25.8277 125.931 -29.1526 132.301 -30.8117 135.351C-34.3882 141.933 -30.9724 130.476 -29.0291 124.99C-28.2637 122.825 -27.5193 120.615 -26.8074 118.42C-26.174 116.999 -25.5425 115.58 -24.9197 114.181C-19.1549 101.23 -17.447 94.489 -18.7282 92.7757C-20.0093 91.0623 -23.6347 106.049 -25.4507 111.72C-25.9846 113.393 -26.9002 116.249 -27.9202 119.457C-29.0597 121.996 -29.9859 124.036 -30.36 124.937C-31.5867 127.882 -35.9095 136.817 -38.1523 141.688C-38.1523 141.688 -42.4005 151.255 -42.764 152.24C-43.1276 153.225 -43.4262 154.488 -43.5726 154.804C-43.7189 155.121 -43.4874 155.231 -43.209 154.996C-42.9305 154.761 -42.8463 154.525 -42.6349 153.67C-42.4234 152.814 -40.394 148.537 -38.7885 145.115C-37.6078 142.59 -33.7557 134.006 -29.5018 124.48C-31.4919 130.82 -33.3577 136.945 -33.2333 137.302C-32.1665 140.513 -28.323 132.379 -25.7616 127.243C-25.1876 126.084 -24.3724 124.456 -23.4443 122.591C-23.715 123.594 -23.9743 124.562 -24.3312 125.722C-25.6545 130.025 -24.9723 131.265 -24.0968 131.265C-23.2213 131.265 -23.4672 130.72 -23.7868 130.72C-25.0144 130.667 -24.3743 128.365 -22.5056 121.569C-22.32 120.898 -22.1 120.165 -21.8541 119.395C-18.8994 113.448 -15.4913 106.56 -14.4465 104.297L-14.4532 104.294ZM-17.9579 127.581C-17.9579 127.581 -17.978 128.523 -19.4506 129.08C-21.2608 129.765 -21.2446 128.139 -20.6466 126.896C-20.0486 125.654 -19.2382 125.484 -18.9176 125.912C-19.6649 127.367 -17.9608 127.581 -17.9608 127.581H-17.9579ZM-0.899085 126.854C-2.24435 126.555 -3.18393 125.87 -5.1693 126.087C-7.15467 126.303 -7.32498 126.257 -7.66752 125.851C-8.01005 125.444 -7.83687 125.145 -9.76005 125.487C-11.6832 125.83 -12.1071 126.15 -12.8323 125.787C-13.5576 125.425 -13.858 125.188 -13.9001 124.844C-13.9422 124.501 -14.7125 124.246 -14.7125 124.78C-14.7125 125.314 -14.7967 125.572 -15.2244 125.916C-15.652 126.259 -16.6337 126.857 -16.8461 126.921C-16.9476 126.952 -17.0595 126.907 -17.2289 126.778C-17.3714 126.299 -17.6795 125.869 -18.2364 125.801C-18.4861 125.548 -18.9329 125.145 -19.242 125.145C-19.6917 125.145 -20.9068 125.465 -21.4627 126.942C-22.0186 128.42 -22.0177 130.067 -20.2667 130.067C-18.5158 130.067 -17.5771 128.612 -17.2786 128.206C-17.1963 128.094 -17.1408 127.857 -17.1313 127.576C-16.7121 127.503 -16.312 127.346 -15.9554 127.114C-14.2465 126.044 -14.3116 125.701 -14.1183 125.916C-13.925 126.131 -12.8371 127.114 -11.3015 126.643C-9.76579 126.172 -8.52672 126.044 -8.31144 126.344C-8.09616 126.643 -7.77755 127.243 -5.83524 126.986C-3.89293 126.728 -3.48724 126.942 -2.80408 127.199C-2.12092 127.457 -1.56598 127.798 -0.794791 127.5C-0.0236066 127.201 0.444266 127.156 -0.901001 126.857L-0.899085 126.854ZM7.90734 124.331C7.90734 124.609 7.73033 124.715 7.07205 124.841C7.16295 124.149 7.90734 124.009 7.90734 124.331ZM4.36333 125.383C3.8036 125.478 3.38357 125.478 3.38357 125.227C3.38357 124.863 4.1691 124.959 4.36333 125.383ZM8.89189 124.157C8.89189 123.558 8.08052 123.45 7.69685 123.45C7.31317 123.45 6.18127 123.723 6.12673 125.005C5.79185 125.074 5.41773 125.164 5.05414 125.245C4.99865 124.751 4.62741 124.307 3.51177 124.307C1.4202 124.307 1.71872 126.13 3.59693 126.13C3.80103 126.12 4.0043 126.098 4.20546 126.062C4.13796 126.148 4.06305 126.228 3.98157 126.301C2.74442 127.413 0.992513 127.114 0.992513 125.272C0.992513 124.93 1.07958 124.545 1.29199 124.545C1.5044 124.545 1.71872 124.76 2.01725 124.46C2.31577 124.159 2.14546 123.603 1.37715 123.603C0.608836 123.603 0.0577133 124.671 0.0577133 125.269C0.0577133 125.741 0.440438 127.711 2.10623 127.711C3.77203 127.711 4.41309 126.896 4.75372 126.383C4.84535 126.24 4.91833 126.087 4.9709 125.925C5.37371 125.848 5.79949 125.761 6.20231 125.677C6.45777 126.591 7.35048 126.957 8.68139 127.5C10.2582 128.136 11.1566 128.999 9.6181 129.383C8.07956 129.767 7.22609 129.767 6.88547 129.682C6.54484 129.598 6.24442 129.383 5.90284 129.383C5.56126 129.383 4.92115 130.534 6.7563 130.534C8.59145 130.534 11.1978 130.362 11.1978 128.651C11.1978 127.238 8.67756 126.725 8.08051 126.424C7.6289 126.198 7.27489 125.945 7.12946 125.485C7.206 125.47 7.2902 125.452 7.3543 125.44C8.25179 125.267 8.89189 124.755 8.89189 124.156V124.157ZM25.2446 125.44C25.0743 124.969 24.1787 124.626 22.6833 125.056C21.1878 125.487 18.2427 126.128 16.5339 125.999C14.825 125.871 13.9725 125.956 13.3324 126.128C12.6923 126.3 11.0265 126.556 11.0265 125.443C11.0265 124.676 11.924 124.629 12.1374 124.629C12.3507 124.629 12.8196 124.8 12.8626 124.929C12.9057 125.057 13.2683 125.549 13.4606 125.484C13.653 125.419 13.5888 123.987 12.0513 123.987C10.5137 123.987 10.3443 125.528 10.3443 125.528C10.3443 126.17 10.9835 126.984 12.1622 126.984C13.341 126.984 13.5085 126.727 13.8922 126.641C14.2758 126.556 15.3015 126.556 15.7273 126.705C16.1531 126.855 17.4362 127.241 19.3574 126.769C21.2787 126.297 23.9692 125.443 24.3529 125.484C24.7366 125.525 25.4216 125.913 25.2494 125.443" fill="black"/>
<path d="M48.2422 218.572C48.6307 219.334 47.7083 221.375 46.6702 223.495C45.5173 225.854 46.3707 223.753 46.9659 222.043C47.2347 221.276 47.7313 219.921 48.2403 218.576L48.2422 218.572ZM45.6426 219.112C45.6426 219.112 42.8679 222.215 43.6333 222.387C44.3987 222.558 44.3586 221.958 44.3165 221.873C44.2744 221.789 44.7432 221.23 45.3412 220.374C45.8761 219.607 47.0242 218.198 47.8098 218.274C46.9027 220.75 46.0578 223.019 45.7727 223.8C45.1326 225.554 43.3807 228.893 43.7634 229.747C44.1462 230.602 46.1554 226.538 47.782 222.936C49.4086 219.335 49.1053 218.698 48.8488 217.499C48.8312 217.412 48.7935 217.329 48.7388 217.259C49.1713 216.118 49.5483 215.139 49.7033 214.76C50.4285 215.231 50.685 214.588 50.685 214.588C50.0449 214.632 50.6419 213.004 51.4112 210.907C52.1804 208.81 51.7939 208.424 51.5394 208.381C51.2849 208.338 51.2609 208.295 50.5826 210.522C50.2486 211.607 49.2507 214.37 48.2422 217.121C47.4825 217.277 46.2521 218.381 45.6445 219.112H45.6426ZM51.7681 196.958C49.6334 201.667 42.909 216.49 42.909 216.49C42.4306 217.508 41.6403 219.368 40.6911 221.414C41.6173 217.634 44.459 211.173 46.7506 205.091C50.3797 195.46 54.2232 186.469 54.4366 186.469C54.6499 186.469 53.9065 192.249 51.7719 196.958H51.7681ZM34.0308 225.786C35.4584 219.059 39.7956 207.151 41.5781 202.092C44.0859 194.973 49.5837 183.687 50.2238 182.457C50.8639 181.228 51.5633 181.012 51.3978 181.978C51.2322 182.944 48.9962 189.841 45.1537 200.058C41.3111 210.274 37.9164 217.634 35.5253 222.687C35.068 223.653 34.5609 224.701 34.0308 225.786ZM52.5153 197.065C53.4721 194.818 56.3578 185.721 54.6499 185.399C52.9421 185.076 46.8568 203.439 44.1911 209.587C40.8241 217.357 39.7898 221.402 39.7362 223.423C37.8466 227.268 35.622 231.021 34.1035 230.618C33.6251 230.49 33.4912 229.689 33.6012 228.43C40.0941 215.173 42.7559 208.565 45.6263 201.239C48.935 192.784 51.348 184.972 51.881 183.045C52.4139 181.119 52.6254 177.802 50.2774 181.012C47.9294 184.222 43.4458 194.711 37.7882 210.765C34.1963 220.959 32.586 226.1 32.5439 228.8C30.726 232.455 28.9234 235.963 28.1426 237.456C28.1426 237.456 26.0071 241.372 25.6664 242.145C25.3258 242.917 25.1325 243.172 25.4521 243.296C25.6457 243.361 25.8564 243.353 26.0449 243.274C26.2333 243.196 26.3868 243.051 26.4769 242.867C26.6912 242.439 29.1559 237.366 30.3203 235.054C31.1757 233.349 31.9766 231.739 32.7296 230.212C32.9496 230.853 33.3611 231.252 33.9495 231.522C35.4804 232.225 37.77 228.731 39.8903 224.66C40.2874 225.725 41.337 225.105 41.5283 224.673C40.7993 224.81 40.4577 224.432 40.4003 223.664C41.6441 221.207 42.7923 218.65 43.663 216.757C46.1143 211.406 51.5585 199.313 52.5153 197.065ZM77.7156 218.481C77.6056 218.248 77.6199 217.944 77.8706 217.56C78.5643 216.49 79.0972 216.596 78.4045 217.666C78.2175 217.971 77.9852 218.246 77.7156 218.481V218.481ZM59.6626 217.421C59.4986 217.696 59.2683 217.924 58.9929 218.086C58.8838 218.166 58.8015 218.197 58.7709 218.17C58.7709 218.17 58.7489 218.176 58.7479 218.17C58.747 218.163 58.7479 218.154 58.7479 218.147C58.7482 218.126 58.7507 218.106 58.7556 218.087C58.8235 217.275 59.5631 216.416 59.7057 216.544C59.7057 216.544 59.7057 216.544 59.7057 216.548H59.7105C59.7105 216.548 59.7162 216.562 59.7191 216.566C59.8885 216.737 59.8846 216.989 59.6588 217.42L59.6626 217.421ZM85.9786 215.524C83.577 216.488 81.8691 217.29 81.6031 217.29C81.3371 217.29 80.6463 216.969 80.4817 217.558C80.3172 218.147 79.8416 218.896 79.0408 219.003C78.7893 219.033 78.5344 219.008 78.2935 218.929C79.1422 217.844 80.0483 216.201 78.7719 216.059C77.8151 215.954 77.5444 216.539 77.2774 217.237C77.1578 217.551 76.931 218.166 76.8717 218.739C76.7705 218.719 76.6734 218.681 76.5847 218.628C76.0508 218.308 75.891 218.039 74.9304 218.468C73.9697 218.897 70.8735 220.929 70.3377 218.36C69.8019 215.791 69.1101 216.22 67.8835 217.401C66.6569 218.582 63.8267 221.2 64.4677 217.936C64.6811 217.293 65.0016 216.758 64.5749 216.705C64.1481 216.651 64.1472 216.919 63.9864 217.293C63.8257 217.667 63.8267 217.99 63.3999 218.042C62.9732 218.094 62.1188 218.577 61.7992 218.845C61.4796 219.113 60.784 219.22 60.4109 218.631C60.0377 218.042 60.274 217.87 60.4109 217.453C60.4351 217.368 60.4473 217.28 60.4472 217.192C60.562 216.555 60.4176 216.197 60.2444 216.021C60.1408 215.919 60.0112 215.848 59.8699 215.815C59.7286 215.783 59.5811 215.79 59.4435 215.836C58.9173 215.985 58.4609 216.54 58.2887 217.219C58.2887 217.227 58.2791 217.231 58.2762 217.24C58.0451 217.853 57.7595 218.444 57.4228 219.006C57.1558 219.433 56.8353 219.965 56.5683 220.343C56.3014 220.721 55.7149 221.788 56.1416 219.541C56.5683 217.295 56.996 215.741 56.4621 215.207C55.9282 214.674 55.3408 214.564 54.8069 215.207C54.273 215.85 53.5267 216.705 53.5267 216.705C53.5267 216.705 55.0738 212.799 56.8353 207.016C58.5968 201.232 58.9259 199.848 58.9259 199.848C59.4598 197.493 59.567 195.995 59.2464 195.995C58.9259 195.995 58.7556 197.434 58.1155 199.997C57.4754 202.561 54.0883 213.653 52.3804 217.507C50.6725 221.36 48.89 224.893 49.9042 224.893C50.5979 224.893 51.0782 223.071 51.5049 222.005C51.9317 220.939 55.8814 213.122 55.7752 216.385C55.6929 218.899 54.8183 221.897 55.5082 221.897C56.1981 221.897 56.6296 221.467 57.2687 220.395C57.9079 219.324 57.9624 219.271 57.9624 219.271C57.9624 219.271 58.5499 219.75 59.4043 218.683C60.0444 219.539 60.8979 220.505 61.8595 219.753C62.8211 219.001 63.0335 218.683 63.62 218.629C63.62 219.271 63.8869 221.572 66.4493 219.485C69.0116 217.397 69.2776 216.489 69.4909 217.881C69.7043 219.273 70.3444 221.519 73.1201 220.183C75.8958 218.847 75.6824 218.9 76.2163 219.434C76.2163 219.434 76.6756 220.183 77.2985 219.914C77.4926 220.007 77.7088 220.045 77.9233 220.024C79.6321 219.916 79.7412 219.648 80.2722 219.007C80.8032 218.366 81.0731 218.043 81.34 218.043C81.607 218.043 83.6363 217.563 86.1967 216.22C88.7571 214.877 88.3849 214.562 85.9824 215.524H85.9786ZM109.104 192.5C108.434 194.365 105.896 199.599 102.957 205.461C105.296 199.01 108.462 191.601 109.368 189.3C110.594 186.197 110.647 188.22 109.1 192.5H109.104ZM98.2506 203.391C101.013 194.436 103.102 186.628 103.926 184.597C105.1 181.707 104.141 187.166 102.751 192.089C102.102 194.397 100.208 198.927 98.2544 203.391H98.2506ZM108.999 194.347C110.6 190.879 111.603 186.855 110.707 186.641C109.812 186.427 108.871 188.824 104.642 199.312C102.608 204.359 101.559 207.362 100.869 209.601C97.6248 215.984 94.2999 222.354 92.6408 225.404C89.0643 231.986 92.4801 220.529 94.4233 215.043C95.1888 212.878 95.9332 210.668 96.645 208.473C97.2784 207.052 97.9099 205.633 98.5328 204.234C104.298 191.283 106.005 184.542 104.724 182.829C103.443 181.115 99.8178 196.102 98.0018 201.773C97.4679 203.446 96.5522 206.302 95.5323 209.51C94.3927 212.049 93.4665 214.089 93.0924 214.99C91.8658 217.935 87.543 226.87 85.3002 231.741C85.3002 231.741 81.052 241.308 80.6884 242.293C80.3248 243.278 80.0263 244.541 79.8799 244.857C79.7335 245.174 79.9651 245.284 80.2435 245.049C80.5219 244.814 80.6061 244.578 80.8176 243.723C81.029 242.867 83.0584 238.59 84.6639 235.168C85.8446 232.643 89.6967 224.059 93.9507 214.533C91.9605 220.873 90.0948 226.998 90.2191 227.355C91.286 230.566 95.1295 222.432 97.6908 217.296C98.2649 216.137 99.0801 214.509 100.008 212.644C99.7374 213.647 99.4781 214.615 99.1212 215.775C97.798 220.078 98.4802 221.318 99.3557 221.318C100.231 221.318 99.9852 220.773 99.6657 220.773C98.4381 220.72 99.0782 218.418 100.947 211.622C101.132 210.951 101.353 210.218 101.598 209.448C104.553 203.501 107.961 196.613 109.006 194.35L108.999 194.347ZM105.495 217.634C105.495 217.634 105.474 218.576 104.002 219.133C102.192 219.818 102.208 218.192 102.806 216.949C103.404 215.707 104.214 215.537 104.535 215.965C103.788 217.42 105.492 217.634 105.492 217.634H105.495ZM122.553 216.907C121.208 216.608 120.269 215.923 118.283 216.14C116.298 216.356 116.127 216.31 115.785 215.904C115.442 215.497 115.616 215.198 113.692 215.54C111.769 215.883 111.345 216.203 110.62 215.84C109.895 215.478 109.594 215.241 109.552 214.897C109.51 214.554 108.74 214.299 108.74 214.833C108.74 215.367 108.656 215.625 108.228 215.969C107.8 216.312 106.819 216.91 106.606 216.974C106.505 217.005 106.393 216.96 106.224 216.831C106.081 216.352 105.773 215.922 105.216 215.854C104.966 215.601 104.52 215.198 104.21 215.198C103.761 215.198 102.546 215.518 101.99 216.995C101.434 218.473 101.435 220.12 103.186 220.12C104.937 220.12 105.875 218.665 106.174 218.259C106.256 218.147 106.312 217.91 106.321 217.628C106.74 217.556 107.14 217.399 107.497 217.167C109.206 216.097 109.141 215.754 109.334 215.969C109.527 216.184 110.615 217.167 112.151 216.696C113.687 216.225 114.926 216.097 115.141 216.397C115.356 216.696 115.675 217.296 117.617 217.039C119.56 216.781 119.965 216.995 120.648 217.252C121.332 217.51 121.886 217.851 122.658 217.553C123.429 217.254 123.897 217.209 122.551 216.91L122.553 216.907ZM131.36 214.384C131.36 214.662 131.183 214.768 130.525 214.894C130.615 214.202 131.36 214.062 131.36 214.384ZM127.816 215.436C127.256 215.531 126.836 215.531 126.836 215.28C126.836 214.916 127.622 215.012 127.816 215.436ZM132.344 214.21C132.344 213.611 131.533 213.503 131.149 213.503C130.766 213.503 129.634 213.776 129.579 215.058C129.244 215.127 128.87 215.217 128.507 215.298C128.451 214.804 128.08 214.36 126.964 214.36C124.873 214.36 125.171 216.183 127.049 216.183C127.253 216.173 127.457 216.151 127.658 216.115C127.59 216.201 127.516 216.281 127.434 216.354C126.197 217.466 124.445 217.167 124.445 215.325C124.445 214.983 124.532 214.598 124.744 214.598C124.957 214.598 125.171 214.813 125.47 214.513C125.768 214.212 125.598 213.656 124.83 213.656C124.061 213.656 123.51 214.724 123.51 215.322C123.51 215.794 123.893 217.764 125.559 217.764C127.224 217.764 127.866 216.949 128.206 216.436C128.298 216.293 128.371 216.14 128.423 215.978C128.826 215.901 129.252 215.814 129.655 215.73C129.91 216.644 130.803 217.01 132.134 217.553C133.711 218.189 134.609 219.052 133.071 219.436C131.532 219.82 130.679 219.82 130.338 219.735C129.997 219.651 129.697 219.436 129.355 219.436C129.014 219.436 128.374 220.587 130.209 220.587C132.044 220.587 134.65 220.415 134.65 218.704C134.65 217.291 132.13 216.778 131.533 216.477C131.081 216.251 130.727 215.998 130.582 215.538C130.658 215.523 130.743 215.505 130.807 215.493C131.704 215.32 132.344 214.808 132.344 214.209V214.21ZM148.697 215.493C148.527 215.022 147.631 214.679 146.136 215.109C144.64 215.54 141.695 216.181 139.986 216.052C138.278 215.924 137.425 216.009 136.785 216.181C136.145 216.353 134.479 216.609 134.479 215.496C134.479 214.728 135.376 214.681 135.59 214.681C135.803 214.681 136.272 214.853 136.315 214.982C136.358 215.11 136.721 215.602 136.913 215.537C137.105 215.472 137.041 214.04 135.504 214.04C133.966 214.04 133.797 215.581 133.797 215.581C133.797 216.223 134.436 217.037 135.615 217.037C136.793 217.037 136.961 216.779 137.345 216.694C137.728 216.609 138.754 216.609 139.18 216.758C139.606 216.908 140.889 217.294 142.81 216.822C144.731 216.35 147.422 215.496 147.805 215.537C148.189 215.578 148.874 215.966 148.702 215.496" fill="black"/>
<path d="M48.2422 38.4662C48.6307 39.2279 47.7083 41.2684 46.6702 43.3884C45.5173 45.7474 46.3707 43.6465 46.9659 41.937C47.2347 41.1696 47.7313 39.815 48.2403 38.4701L48.2422 38.4662ZM45.6426 39.0054C45.6426 39.0054 42.8679 42.1087 43.6333 42.2804C44.3987 42.4522 44.3586 41.8516 44.3165 41.7672C44.2744 41.6828 44.7432 41.1235 45.3412 40.2678C45.8761 39.5004 47.0242 38.0921 47.8098 38.1679C46.9027 40.6439 46.0578 42.9126 45.7727 43.6935C45.1326 45.4481 43.3807 48.7865 43.7634 49.6412C44.1462 50.496 46.1554 46.4314 47.782 42.8301C49.4086 39.2289 49.1053 38.5919 48.8488 37.3928C48.8312 37.3054 48.7935 37.2233 48.7388 37.1529C49.1713 36.0114 49.5483 35.0329 49.7033 34.6539C50.4285 35.125 50.685 34.4822 50.685 34.4822C50.0449 34.5254 50.6419 32.8975 51.4112 30.8004C52.1804 28.7034 51.7939 28.3177 51.5394 28.2746C51.2849 28.2314 51.2609 28.1892 50.5826 30.4157C50.2486 31.5007 49.2507 34.2635 48.2422 37.0148C47.4825 37.1712 46.2521 38.2744 45.6445 39.0054H45.6426ZM51.7681 16.8521C49.6334 21.5604 42.909 36.3836 42.909 36.3836C42.4306 37.4014 41.6403 39.2615 40.6911 41.3077C41.6173 37.528 44.459 31.0671 46.7506 24.9851C50.3797 15.3536 54.2232 6.36302 54.4366 6.36302C54.6499 6.36302 53.9065 12.1428 51.7719 16.8521H51.7681ZM34.0308 45.6802C35.4584 38.9526 39.7956 27.0447 41.5781 21.9853C44.0859 14.8673 49.5837 3.58102 50.2238 2.35119C50.8639 1.12136 51.5633 0.905516 51.3978 1.87154C51.2322 2.83756 48.9962 9.73498 45.1537 19.9516C41.3111 30.1682 37.9164 37.528 35.5253 42.5807C35.068 43.5467 34.5609 44.5953 34.0308 45.6802ZM52.5153 16.9586C53.4721 14.7119 56.3578 5.61476 54.6499 5.29243C52.9421 4.9701 46.8568 23.3332 44.1911 29.4804C40.8241 37.2508 39.7898 41.2962 39.7362 43.3165C37.8466 47.1614 35.622 50.9152 34.1035 50.5113C33.6251 50.3837 33.4912 49.5827 33.6012 48.3241C40.0941 35.0665 42.7559 28.4587 45.6263 21.1325C48.935 12.6781 51.348 4.86554 51.881 2.93925C52.4139 1.01296 52.6254 -2.30433 50.2774 0.905516C47.9294 4.11536 43.4458 14.6044 37.7882 30.6584C34.1963 40.853 32.586 45.9939 32.5439 48.6934C30.726 52.3484 28.9234 55.8566 28.1426 57.3502C28.1426 57.3502 26.0071 61.2661 25.6664 62.0383C25.3258 62.8106 25.1325 63.0658 25.4521 63.1895C25.6457 63.2546 25.8564 63.247 26.0449 63.1682C26.2333 63.0893 26.3868 62.9445 26.4769 62.7607C26.6912 62.3328 29.1559 57.26 30.3203 54.9481C31.1757 53.2424 31.9766 51.6327 32.7296 50.1055C32.9496 50.7473 33.3611 51.1454 33.9495 51.4159C35.4804 52.1191 37.77 48.6243 39.8903 44.554C40.2874 45.6188 41.337 44.9991 41.5283 44.5665C40.7993 44.7037 40.4577 44.3257 40.4003 43.5582C41.6441 41.1005 42.7923 38.5439 43.663 36.6512C46.1143 31.3002 51.5585 19.2072 52.5153 16.9586ZM77.7156 38.3751C77.6056 38.142 77.6199 37.8379 77.8706 37.4542C78.5643 36.3836 79.0972 36.4901 78.4045 37.5597C78.2175 37.8649 77.9852 38.1399 77.7156 38.3751V38.3751ZM59.6626 37.3151C59.4986 37.5895 59.2683 37.8182 58.9929 37.9799C58.8838 38.0595 58.8015 38.0911 58.7709 38.0633C58.7709 38.0633 58.7489 38.07 58.7479 38.0633C58.747 38.0566 58.7479 38.048 58.7479 38.0403C58.7482 38.0202 58.7507 38.0003 58.7556 37.9808C58.8235 37.1693 59.5631 36.3097 59.7057 36.4373C59.7057 36.4373 59.7057 36.4373 59.7057 36.4421H59.7105C59.7105 36.4421 59.7162 36.4555 59.7191 36.4594C59.8885 36.6311 59.8846 36.8824 59.6588 37.3141L59.6626 37.3151ZM85.9786 35.4176C83.577 36.3817 81.8691 37.1836 81.6031 37.1836C81.3371 37.1836 80.6463 36.8632 80.4817 37.4522C80.3172 38.0413 79.8416 38.7895 79.0408 38.897C78.7893 38.9267 78.5344 38.9015 78.2935 38.8231C79.1422 37.7381 80.0483 36.0948 78.7719 35.9529C77.8151 35.8473 77.5444 36.4325 77.2774 37.1309C77.1578 37.4446 76.931 38.0595 76.8717 38.6332C76.7705 38.6126 76.6734 38.575 76.5847 38.5219C76.0508 38.2015 75.891 37.9329 74.9304 38.3617C73.9697 38.7905 70.8735 40.8233 70.3377 38.2542C69.8019 35.6852 69.1101 36.114 67.8835 37.2949C66.6569 38.4758 63.8267 41.0938 64.4677 37.8302C64.6811 37.1865 65.0016 36.6522 64.5749 36.5985C64.1481 36.5447 64.1472 36.8124 63.9864 37.1865C63.8257 37.5607 63.8267 37.8839 63.3999 37.9357C62.9732 37.9875 62.1188 38.471 61.7992 38.7387C61.4796 39.0063 60.784 39.1138 60.4109 38.5248C60.0377 37.9357 60.274 37.764 60.4109 37.3467C60.4351 37.2619 60.4473 37.174 60.4472 37.0858C60.562 36.4488 60.4176 36.091 60.2444 35.9145C60.1408 35.8128 60.0112 35.7417 59.8699 35.709C59.7286 35.6763 59.5811 35.6834 59.4435 35.7293C58.9173 35.879 58.4609 36.4335 58.2887 37.1127C58.2887 37.1203 58.2791 37.1251 58.2762 37.1338C58.0451 37.7469 57.7595 38.338 57.4228 38.8998C57.1558 39.3267 56.8353 39.8592 56.5683 40.2371C56.3014 40.6151 55.7149 41.6818 56.1416 39.4351C56.5683 37.1884 56.996 35.6344 56.4621 35.101C55.9282 34.5676 55.3408 34.4583 54.8069 35.101C54.273 35.7437 53.5267 36.5985 53.5267 36.5985C53.5267 36.5985 55.0738 32.6931 56.8353 26.9095C58.5968 21.1258 58.9259 19.7415 58.9259 19.7415C59.4598 17.3864 59.567 15.8889 59.2464 15.8889C58.9259 15.8889 58.7556 17.3279 58.1155 19.8912C57.4754 22.4544 54.0883 33.5469 52.3804 37.4004C50.6725 41.254 48.89 44.7871 49.9042 44.7871C50.5979 44.7871 51.0782 42.9644 51.5049 41.8986C51.9317 40.8329 55.8814 33.0155 55.7752 36.279C55.6929 38.7924 54.8183 41.7912 55.5082 41.7912C56.1981 41.7912 56.6296 41.3605 57.2687 40.2889C57.9079 39.2174 57.9624 39.1646 57.9624 39.1646C57.9624 39.1646 58.5499 39.6443 59.4043 38.5766C60.0444 39.4332 60.8979 40.3992 61.8595 39.6471C62.8211 38.895 63.0335 38.5766 63.62 38.5228C63.62 39.1646 63.8869 41.466 66.4493 39.3785C69.0116 37.2911 69.2776 36.3826 69.4909 37.7746C69.7043 39.1665 70.3444 41.4132 73.1201 40.0769C75.8958 38.7406 75.6824 38.7934 76.2163 39.3277C76.2163 39.3277 76.6756 40.0769 77.2985 39.8073C77.4926 39.9011 77.7088 39.9392 77.9233 39.9177C79.6321 39.8102 79.7412 39.5416 80.2722 38.9008C80.8032 38.26 81.0731 37.9367 81.34 37.9367C81.607 37.9367 83.6363 37.457 86.1967 36.114C88.7571 34.771 88.3849 34.4554 85.9824 35.4176H85.9786ZM109.104 12.3942C108.434 14.2591 105.896 19.4931 102.957 25.3544C105.296 18.904 108.462 11.4944 109.368 9.19393C110.594 6.09057 110.647 8.11375 109.1 12.3942H109.104ZM98.2506 23.2852C101.013 14.3301 103.102 6.5213 103.926 4.49045C105.1 1.60101 104.141 7.05947 102.751 11.9826C102.102 14.2907 100.208 18.8206 98.2544 23.2852H98.2506ZM108.999 14.2408C110.6 10.773 111.603 6.74866 110.707 6.53473C109.812 6.32081 108.871 8.71812 104.642 19.2062C102.608 24.2531 101.559 27.2558 100.869 29.4948C97.6248 35.878 94.2999 42.2478 92.6408 45.2975C89.0643 51.8802 92.4801 40.4232 94.4233 34.9369C95.1888 32.7718 95.9332 30.5615 96.645 28.3666C97.2784 26.9459 97.9099 25.5271 98.5328 24.1275C104.298 11.1768 106.005 4.43577 104.724 2.72244C103.443 1.00912 99.8178 15.9954 98.0018 21.6668C97.4679 23.3399 96.5522 26.1957 95.5323 29.4037C94.3927 31.9429 93.4665 33.9824 93.0924 34.8842C91.8658 37.8293 87.543 46.7642 85.3002 51.6347C85.3002 51.6347 81.052 61.2018 80.6884 62.187C80.3248 63.1722 80.0263 64.4347 79.8799 64.7513C79.7335 65.0678 79.9651 65.1782 80.2435 64.9431C80.5219 64.7081 80.6061 64.4721 80.8176 63.6164C81.029 62.7607 83.0584 58.4841 84.6639 55.0623C85.8446 52.5364 89.6967 43.9525 93.9507 34.4266C91.9605 40.7667 90.0948 46.8918 90.2191 47.2487C91.286 50.4595 95.1295 42.3255 97.6908 37.1894C98.2649 36.0306 99.0801 34.4026 100.008 32.5377C99.7374 33.5412 99.4781 34.5091 99.1212 35.6689C97.798 39.9714 98.4802 41.2118 99.3557 41.2118C100.231 41.2118 99.9852 40.6669 99.6657 40.6669C98.4381 40.6141 99.0782 38.3118 100.947 31.5161C101.132 30.8445 101.353 30.1116 101.598 29.3423C104.553 23.3946 107.961 16.5067 109.006 14.2437L108.999 14.2408ZM105.495 37.528C105.495 37.528 105.474 38.4701 104.002 39.0265C102.192 39.7114 102.208 38.0854 102.806 36.8431C103.404 35.6008 104.214 35.431 104.535 35.8588C103.788 37.3141 105.492 37.528 105.492 37.528H105.495ZM122.553 36.8009C121.208 36.5016 120.269 35.8166 118.283 36.0334C116.298 36.2502 116.127 36.2042 115.785 35.7974C115.442 35.3907 115.616 35.0914 113.692 35.4339C111.769 35.7763 111.345 36.0967 110.62 35.7341C109.895 35.3715 109.594 35.1346 109.552 34.7911C109.51 34.4477 108.74 34.1925 108.74 34.7269C108.74 35.2612 108.656 35.5192 108.228 35.8627C107.8 36.2061 106.819 36.8038 106.606 36.868C106.505 36.8987 106.393 36.8536 106.224 36.7251C106.081 36.2454 105.773 35.8157 105.216 35.7476C104.966 35.4953 104.52 35.0914 104.21 35.0914C103.761 35.0914 102.546 35.4118 101.99 36.8891C101.434 38.3665 101.435 40.0136 103.186 40.0136C104.937 40.0136 105.875 38.5583 106.174 38.1525C106.256 38.0403 106.312 37.8034 106.321 37.5223C106.74 37.45 107.14 37.293 107.497 37.0609C109.206 35.9912 109.141 35.6478 109.334 35.8627C109.527 36.0776 110.615 37.0609 112.151 36.5898C113.687 36.1188 114.926 35.9912 115.141 36.2905C115.356 36.5898 115.675 37.1894 117.617 36.9323C119.56 36.6752 119.965 36.8891 120.648 37.1462C121.332 37.4033 121.886 37.7448 122.658 37.4465C123.429 37.1481 123.897 37.1031 122.551 36.8038L122.553 36.8009ZM131.36 34.2779C131.36 34.5561 131.183 34.6616 130.525 34.7883C130.615 34.0956 131.36 33.9556 131.36 34.2779ZM127.816 35.3293C127.256 35.4252 126.836 35.4252 126.836 35.1739C126.836 34.8094 127.622 34.9062 127.816 35.3293ZM132.344 34.1043C132.344 33.5047 131.533 33.3973 131.149 33.3973C130.766 33.3973 129.634 33.6697 129.579 34.9513C129.244 35.0204 128.87 35.1106 128.507 35.1921C128.451 34.6981 128.08 34.2539 126.964 34.2539C124.873 34.2539 125.171 36.0766 127.049 36.0766C127.253 36.0671 127.457 36.0444 127.658 36.0085C127.59 36.0945 127.516 36.1745 127.434 36.2474C126.197 37.3602 124.445 37.0609 124.445 35.219C124.445 34.8765 124.532 34.4918 124.744 34.4918C124.957 34.4918 125.171 34.7067 125.47 34.4064C125.768 34.1062 125.598 33.5498 124.83 33.5498C124.061 33.5498 123.51 34.6175 123.51 35.2161C123.51 35.6881 123.893 37.6575 125.559 37.6575C127.224 37.6575 127.866 36.8431 128.206 36.3299C128.298 36.1873 128.371 36.0335 128.423 35.8723C128.826 35.7946 129.252 35.7082 129.655 35.6238C129.91 36.538 130.803 36.9035 132.134 37.4465C133.711 38.0825 134.609 38.9459 133.071 39.3296C131.532 39.7133 130.679 39.7133 130.338 39.6289C129.997 39.5445 129.697 39.3296 129.355 39.3296C129.014 39.3296 128.374 40.4808 130.209 40.4808C132.044 40.4808 134.65 40.3091 134.65 38.5977C134.65 37.1846 132.13 36.6714 131.533 36.3711C131.081 36.1447 130.727 35.8915 130.582 35.4319C130.658 35.4166 130.743 35.3984 130.807 35.3869C131.704 35.2142 132.344 34.7019 132.344 34.1023V34.1043ZM148.697 35.3869C148.527 34.9158 147.631 34.5724 146.136 35.0031C144.64 35.4339 141.695 36.0747 139.986 35.9461C138.278 35.8176 137.425 35.903 136.785 36.0747C136.145 36.2464 134.479 36.5025 134.479 35.3897C134.479 34.6223 135.376 34.5753 135.59 34.5753C135.803 34.5753 136.272 34.747 136.315 34.8755C136.358 35.0041 136.721 35.4962 136.913 35.431C137.105 35.3658 137.041 33.9335 135.504 33.9335C133.966 33.9335 133.797 35.4751 133.797 35.4751C133.797 36.1169 134.436 36.9304 135.615 36.9304C136.793 36.9304 136.961 36.6733 137.345 36.5879C137.728 36.5025 138.754 36.5025 139.18 36.6522C139.606 36.8018 140.889 37.1875 142.81 36.7155C144.731 36.2435 147.422 35.3897 147.805 35.431C148.189 35.4722 148.874 35.8598 148.702 35.3897" fill="black"/>
<path d="M96.792 128.519C97.1804 129.281 96.2581 131.322 95.2199 133.442C94.067 135.801 94.9205 133.7 95.5156 131.99C95.7845 131.223 96.281 129.868 96.7901 128.523L96.792 128.519ZM94.1923 129.059C94.1923 129.059 91.4176 132.162 92.1831 132.334C92.9485 132.505 92.9083 131.905 92.8662 131.82C92.8241 131.736 93.2929 131.177 93.8909 130.321C94.4258 129.554 95.574 128.145 96.3595 128.221C95.4524 130.697 94.6076 132.966 94.3225 133.747C93.6824 135.501 91.9305 138.84 92.3132 139.694C92.6959 140.549 94.7052 136.485 96.3318 132.883C97.9583 129.282 97.655 128.645 97.3986 127.446C97.3809 127.359 97.3433 127.276 97.2886 127.206C97.721 126.065 98.098 125.086 98.253 124.707C98.9783 125.178 99.2347 124.535 99.2347 124.535C98.5946 124.579 99.1916 122.951 99.9609 120.854C100.73 118.757 100.344 118.371 100.089 118.328C99.8346 118.285 99.8107 118.242 99.1323 120.469C98.7984 121.554 97.8004 124.317 96.792 127.068C96.0323 127.224 94.8018 128.328 94.1943 129.059H94.1923ZM100.318 106.905C98.1832 111.614 91.4587 126.437 91.4587 126.437C90.9803 127.455 90.19 129.315 89.2409 131.361C90.1671 127.581 93.0088 121.12 95.3003 115.038C98.9295 105.407 102.773 96.4162 102.986 96.4162C103.2 96.4162 102.456 102.196 100.322 106.905H100.318ZM82.5806 135.733C84.0081 129.006 88.3453 117.098 90.1278 112.039C92.6356 104.921 98.1334 93.6342 98.7735 92.4044C99.4136 91.1746 100.113 90.9587 99.9475 91.9248C99.782 92.8908 97.5459 99.7882 93.7034 110.005C89.8609 120.221 86.4661 127.581 84.0751 132.634C83.6177 133.6 83.1106 134.648 82.5806 135.733ZM101.065 107.012C102.022 104.765 104.908 95.668 103.2 95.3457C101.492 95.0233 95.4065 113.386 92.7409 119.534C89.3739 127.304 88.3396 131.349 88.286 133.37C86.3963 137.215 84.1717 140.968 82.6533 140.565C82.1749 140.437 82.0409 139.636 82.151 138.377C88.6438 125.12 91.3057 118.512 94.1761 111.186C97.4847 102.731 99.8978 94.9188 100.431 92.9925C100.964 91.0662 101.175 87.7489 98.8271 90.9587C96.4791 94.1686 91.9955 104.658 86.3379 120.712C82.7461 130.906 81.1358 136.047 81.0937 138.747C79.2758 142.402 77.4731 145.91 76.6924 147.403C76.6924 147.403 74.5568 151.319 74.2162 152.092C73.8756 152.864 73.6823 153.119 74.0019 153.243C74.1955 153.308 74.4061 153.3 74.5946 153.221C74.7831 153.143 74.9366 152.998 75.0266 152.814C75.2409 152.386 77.7056 147.313 78.8701 145.001C79.7255 143.296 80.5263 141.686 81.2793 140.159C81.4994 140.801 81.9108 141.199 82.4992 141.469C84.0301 142.172 86.3198 138.678 88.44 134.607C88.8371 135.672 89.8867 135.052 90.0781 134.62C89.349 134.757 89.0074 134.379 88.95 133.611C90.1939 131.154 91.342 128.597 92.2127 126.704C94.664 121.353 100.108 109.26 101.065 107.012ZM126.265 128.428C126.155 128.195 126.17 127.891 126.42 127.507C127.114 126.437 127.647 126.543 126.954 127.613C126.767 127.918 126.535 128.193 126.265 128.428V128.428ZM108.212 127.368C108.048 127.643 107.818 127.871 107.543 128.033C107.434 128.113 107.351 128.144 107.321 128.117C107.321 128.117 107.299 128.123 107.298 128.117C107.297 128.11 107.298 128.101 107.298 128.094C107.298 128.073 107.3 128.054 107.305 128.034C107.373 127.222 108.113 126.363 108.255 126.491C108.255 126.491 108.255 126.491 108.255 126.495H108.26C108.26 126.495 108.266 126.509 108.269 126.513C108.438 126.684 108.434 126.936 108.209 127.367L108.212 127.368ZM134.528 125.471C132.127 126.435 130.419 127.237 130.153 127.237C129.887 127.237 129.196 126.916 129.031 127.505C128.867 128.094 128.391 128.843 127.591 128.95C127.339 128.98 127.084 128.955 126.843 128.876C127.692 127.791 128.598 126.148 127.322 126.006C126.365 125.901 126.094 126.486 125.827 127.184C125.708 127.498 125.481 128.113 125.421 128.686C125.32 128.666 125.223 128.628 125.134 128.575C124.601 128.255 124.441 127.986 123.48 128.415C122.519 128.844 119.423 130.876 118.887 128.307C118.352 125.738 117.66 126.167 116.433 127.348C115.207 128.529 112.376 131.147 113.017 127.883C113.231 127.24 113.551 126.705 113.125 126.652C112.698 126.598 112.697 126.866 112.536 127.24C112.375 127.614 112.376 127.937 111.95 127.989C111.523 128.041 110.669 128.524 110.349 128.792C110.029 129.06 109.334 129.167 108.961 128.578C108.587 127.989 108.824 127.817 108.961 127.4C108.985 127.315 108.997 127.227 108.997 127.139C109.112 126.502 108.967 126.144 108.794 125.968C108.691 125.866 108.561 125.795 108.42 125.762C108.278 125.73 108.131 125.737 107.993 125.783C107.467 125.932 107.011 126.487 106.838 127.166C106.838 127.174 106.829 127.178 106.826 127.187C106.595 127.8 106.309 128.391 105.973 128.953C105.706 129.38 105.385 129.912 105.118 130.29C104.851 130.668 104.265 131.735 104.691 129.488C105.118 127.242 105.546 125.688 105.012 125.154C104.478 124.621 103.891 124.511 103.357 125.154C102.823 125.797 102.076 126.652 102.076 126.652C102.076 126.652 103.624 122.746 105.385 116.963C107.147 111.179 107.476 109.795 107.476 109.795C108.01 107.44 108.117 105.942 107.796 105.942C107.476 105.942 107.305 107.381 106.665 109.944C106.025 112.508 102.638 123.6 100.93 127.454C99.2223 131.307 97.4397 134.84 98.4539 134.84C99.1476 134.84 99.6279 133.018 100.055 131.952C100.481 130.886 104.431 123.069 104.325 126.332C104.243 128.846 103.368 131.844 104.058 131.844C104.748 131.844 105.179 131.414 105.818 130.342C106.458 129.271 106.512 129.218 106.512 129.218C106.512 129.218 107.1 129.697 107.954 128.63C108.594 129.486 109.448 130.452 110.409 129.7C111.371 128.948 111.583 128.63 112.17 128.576C112.17 129.218 112.437 131.519 114.999 129.432C117.561 127.344 117.827 126.436 118.041 127.828C118.254 129.22 118.894 131.466 121.67 130.13C124.446 128.794 124.232 128.847 124.766 129.381C124.766 129.381 125.225 130.13 125.848 129.861C126.042 129.954 126.259 129.992 126.473 129.971C128.182 129.863 128.291 129.595 128.822 128.954C129.353 128.313 129.623 127.99 129.89 127.99C130.157 127.99 132.186 127.51 134.746 126.167C137.307 124.824 136.935 124.509 134.532 125.471H134.528ZM157.653 102.447C156.984 104.312 154.446 109.546 151.507 115.408C153.846 108.957 157.011 101.548 157.917 99.2472C159.144 96.1438 159.197 98.167 157.65 102.447H157.653ZM146.8 113.338C149.563 104.383 151.651 96.5745 152.476 94.5437C153.65 91.6542 152.69 97.1127 151.301 102.036C150.651 104.344 148.758 108.874 146.804 113.338H146.8ZM157.549 104.294C159.15 100.826 160.153 96.8019 159.257 96.588C158.361 96.374 157.421 98.7713 153.192 109.259C151.158 114.306 150.109 117.309 149.419 119.548C146.175 125.931 142.85 132.301 141.191 135.351C137.614 141.933 141.03 130.476 142.973 124.99C143.739 122.825 144.483 120.615 145.195 118.42C145.828 116.999 146.46 115.58 147.083 114.181C152.847 101.23 154.555 94.489 153.274 92.7757C151.993 91.0623 148.368 106.049 146.552 111.72C146.018 113.393 145.102 116.249 144.082 119.457C142.942 121.996 142.016 124.036 141.642 124.937C140.416 127.882 136.093 136.817 133.85 141.688C133.85 141.688 129.602 151.255 129.238 152.24C128.875 153.225 128.576 154.488 128.43 154.804C128.283 155.121 128.515 155.231 128.793 154.996C129.072 154.761 129.156 154.525 129.367 153.67C129.579 152.814 131.608 148.537 133.214 145.115C134.394 142.59 138.246 134.006 142.5 124.48C140.51 130.82 138.645 136.945 138.769 137.302C139.836 140.513 143.679 132.379 146.241 127.243C146.815 126.084 147.63 124.456 148.558 122.591C148.287 123.594 148.028 124.562 147.671 125.722C146.348 130.025 147.03 131.265 147.905 131.265C148.781 131.265 148.535 130.72 148.215 130.72C146.988 130.667 147.628 128.365 149.497 121.569C149.682 120.898 149.902 120.165 150.148 119.395C153.103 113.448 156.511 106.56 157.556 104.297L157.549 104.294ZM154.044 127.581C154.044 127.581 154.024 128.523 152.552 129.08C150.741 129.765 150.758 128.139 151.356 126.896C151.954 125.654 152.764 125.484 153.085 125.912C152.337 127.367 154.041 127.581 154.041 127.581H154.044ZM171.103 126.854C169.758 126.555 168.818 125.87 166.833 126.087C164.848 126.303 164.677 126.257 164.335 125.851C163.992 125.444 164.165 125.145 162.242 125.487C160.319 125.83 159.895 126.15 159.17 125.787C158.445 125.425 158.144 125.188 158.102 124.844C158.06 124.501 157.29 124.246 157.29 124.78C157.29 125.314 157.206 125.572 156.778 125.916C156.35 126.259 155.368 126.857 155.156 126.921C155.055 126.952 154.943 126.907 154.773 126.778C154.631 126.299 154.323 125.869 153.766 125.801C153.516 125.548 153.069 125.145 152.76 125.145C152.311 125.145 151.095 125.465 150.539 126.942C149.984 128.42 149.985 130.067 151.735 130.067C153.486 130.067 154.425 128.612 154.724 128.206C154.806 128.094 154.861 127.857 154.871 127.576C155.29 127.503 155.69 127.346 156.047 127.114C157.756 126.044 157.691 125.701 157.884 125.916C158.077 126.131 159.165 127.114 160.701 126.643C162.236 126.172 163.475 126.044 163.691 126.344C163.906 126.643 164.225 127.243 166.167 126.986C168.109 126.728 168.515 126.942 169.198 127.199C169.881 127.457 170.436 127.798 171.207 127.5C171.979 127.201 172.446 127.156 171.101 126.857L171.103 126.854ZM179.91 124.331C179.91 124.609 179.733 124.715 179.074 124.841C179.165 124.149 179.91 124.009 179.91 124.331ZM176.366 125.383C175.806 125.478 175.386 125.478 175.386 125.227C175.386 124.863 176.171 124.959 176.366 125.383ZM180.894 124.157C180.894 123.558 180.083 123.45 179.699 123.45C179.315 123.45 178.183 123.723 178.129 125.005C177.794 125.074 177.42 125.164 177.056 125.245C177.001 124.751 176.63 124.307 175.514 124.307C173.422 124.307 173.721 126.13 175.599 126.13C175.803 126.12 176.007 126.098 176.208 126.062C176.14 126.148 176.065 126.228 175.984 126.301C174.747 127.413 172.995 127.114 172.995 125.272C172.995 124.93 173.082 124.545 173.294 124.545C173.507 124.545 173.721 124.76 174.019 124.46C174.318 124.159 174.148 123.603 173.379 123.603C172.611 123.603 172.06 124.671 172.06 125.269C172.06 125.741 172.443 127.711 174.108 127.711C175.774 127.711 176.415 126.896 176.756 126.383C176.848 126.24 176.921 126.087 176.973 125.925C177.376 125.848 177.802 125.761 178.205 125.677C178.46 126.591 179.353 126.957 180.684 127.5C182.26 128.136 183.159 128.999 181.62 129.383C180.082 129.767 179.228 129.767 178.888 129.682C178.547 129.598 178.247 129.383 177.905 129.383C177.563 129.383 176.923 130.534 178.759 130.534C180.594 130.534 183.2 130.362 183.2 128.651C183.2 127.238 180.68 126.725 180.083 126.424C179.631 126.198 179.277 125.945 179.132 125.485C179.208 125.47 179.292 125.452 179.357 125.44C180.254 125.267 180.894 124.755 180.894 124.156V124.157ZM197.247 125.44C197.077 124.969 196.181 124.626 194.685 125.056C193.19 125.487 190.245 126.128 188.536 125.999C186.827 125.871 185.975 125.956 185.335 126.128C184.695 126.3 183.029 126.556 183.029 125.443C183.029 124.676 183.926 124.629 184.14 124.629C184.353 124.629 184.822 124.8 184.865 124.929C184.908 125.057 185.271 125.549 185.463 125.484C185.655 125.419 185.591 123.987 184.053 123.987C182.516 123.987 182.347 125.528 182.347 125.528C182.347 126.17 182.986 126.984 184.164 126.984C185.343 126.984 185.511 126.727 185.894 126.641C186.278 126.556 187.304 126.556 187.73 126.705C188.155 126.855 189.438 127.241 191.36 126.769C193.281 126.297 195.971 125.443 196.355 125.484C196.739 125.525 197.424 125.913 197.252 125.443" fill="black"/>
<path d="M-75.2102 128.519C-74.8218 129.281 -75.7441 131.322 -76.7823 133.442C-77.9352 135.801 -77.0817 133.7 -76.4866 131.99C-76.2178 131.223 -75.7212 129.868 -75.2122 128.523L-75.2102 128.519ZM-77.8099 129.059C-77.8099 129.059 -80.5846 132.162 -79.8192 132.334C-79.0537 132.505 -79.0939 131.905 -79.136 131.82C-79.1781 131.736 -78.7093 131.177 -78.1113 130.321C-77.5764 129.554 -76.4282 128.145 -75.6427 128.221C-76.5498 130.697 -77.3946 132.966 -77.6797 133.747C-78.3199 135.501 -80.0718 138.84 -79.689 139.694C-79.3063 140.549 -77.297 136.485 -75.6705 132.883C-74.0439 129.282 -74.3472 128.645 -74.6036 127.446C-74.6213 127.359 -74.6589 127.276 -74.7137 127.206C-74.2812 126.065 -73.9042 125.086 -73.7492 124.707C-73.0239 125.178 -72.7675 124.535 -72.7675 124.535C-73.4076 124.579 -72.8106 122.951 -72.0413 120.854C-71.272 118.757 -71.6586 118.371 -71.9131 118.328C-72.1676 118.285 -72.1915 118.242 -72.8699 120.469C-73.2038 121.554 -74.2018 124.317 -75.2102 127.068C-75.9699 127.224 -77.2004 128.328 -77.808 129.059H-77.8099ZM-71.6844 106.905C-73.819 111.614 -80.5435 126.437 -80.5435 126.437C-81.0219 127.455 -81.8122 129.315 -82.7613 131.361C-81.8351 127.581 -78.9934 121.12 -76.7019 115.038C-73.0727 105.407 -69.2293 96.4162 -69.0159 96.4162C-68.8025 96.4162 -69.546 102.196 -71.6806 106.905H-71.6844ZM-89.4216 135.733C-87.9941 129.006 -83.6569 117.098 -81.8744 112.039C-79.3666 104.921 -73.8688 93.6342 -73.2287 92.4044C-72.5886 91.1746 -71.8892 90.9587 -72.0547 91.9248C-72.2202 92.8908 -74.4563 99.7882 -78.2988 110.005C-82.1413 120.221 -85.5361 127.581 -87.9271 132.634C-88.3845 133.6 -88.8916 134.648 -89.4216 135.733ZM-70.9371 107.012C-69.9803 104.765 -67.0946 95.668 -68.8025 95.3457C-70.5104 95.0233 -76.5957 113.386 -79.2613 119.534C-82.6283 127.304 -83.6626 131.349 -83.7162 133.37C-85.6059 137.215 -87.8305 140.968 -89.3489 140.565C-89.8273 140.437 -89.9613 139.636 -89.8513 138.377C-83.3584 125.12 -80.6966 118.512 -77.8261 111.186C-74.5175 102.731 -72.1045 94.9188 -71.5715 92.9925C-71.0386 91.0662 -70.8271 87.7489 -73.1751 90.9587C-75.5231 94.1686 -80.0067 104.658 -85.6643 120.712C-89.2561 130.906 -90.8664 136.047 -90.9085 138.747C-92.7264 142.402 -94.5291 145.91 -95.3098 147.403C-95.3098 147.403 -97.4454 151.319 -97.786 152.092C-98.1267 152.864 -98.3199 153.119 -98.0004 153.243C-97.8067 153.308 -97.5961 153.3 -97.4076 153.221C-97.2191 153.143 -97.0656 152.998 -96.9756 152.814C-96.7613 152.386 -94.2966 147.313 -93.1321 145.001C-92.2768 143.296 -91.4759 141.686 -90.7229 140.159C-90.5028 140.801 -90.0914 141.199 -89.503 141.469C-87.9721 142.172 -85.6825 138.678 -83.5622 134.607C-83.1651 135.672 -82.1155 135.052 -81.9241 134.62C-82.6532 134.757 -82.9948 134.379 -83.0522 133.611C-81.8084 131.154 -80.6602 128.597 -79.7895 126.704C-77.3382 121.353 -71.894 109.26 -70.9371 107.012ZM-45.7368 128.428C-45.8469 128.195 -45.8325 127.891 -45.5818 127.507C-44.8882 126.437 -44.3552 126.543 -45.0479 127.613C-45.235 127.918 -45.4673 128.193 -45.7368 128.428V128.428ZM-63.7898 127.368C-63.9539 127.643 -64.1842 127.871 -64.4596 128.033C-64.5687 128.113 -64.6509 128.144 -64.6816 128.117C-64.6816 128.117 -64.7036 128.123 -64.7045 128.117C-64.7055 128.11 -64.7045 128.101 -64.7045 128.094C-64.7043 128.073 -64.7017 128.054 -64.6969 128.034C-64.6289 127.222 -63.8893 126.363 -63.7468 126.491C-63.7468 126.491 -63.7468 126.491 -63.7468 126.495H-63.742C-63.742 126.495 -63.7362 126.509 -63.7334 126.513C-63.564 126.684 -63.5678 126.936 -63.7936 127.367L-63.7898 127.368ZM-37.4739 125.471C-39.8755 126.435 -41.5834 127.237 -41.8493 127.237C-42.1153 127.237 -42.8062 126.916 -42.9707 127.505C-43.1353 128.094 -43.6108 128.843 -44.4117 128.95C-44.6632 128.98 -44.9181 128.955 -45.1589 128.876C-44.3102 127.791 -43.4042 126.148 -44.6805 126.006C-45.6373 125.901 -45.9081 126.486 -46.1751 127.184C-46.2947 127.498 -46.5214 128.113 -46.5807 128.686C-46.682 128.666 -46.7791 128.628 -46.8678 128.575C-47.4017 128.255 -47.5615 127.986 -48.5221 128.415C-49.4827 128.844 -52.5789 130.876 -53.1148 128.307C-53.6506 125.738 -54.3423 126.167 -55.569 127.348C-56.7956 128.529 -59.6258 131.147 -58.9848 127.883C-58.7714 127.24 -58.4509 126.705 -58.8776 126.652C-59.3043 126.598 -59.3053 126.866 -59.466 127.24C-59.6268 127.614 -59.6258 127.937 -60.0525 127.989C-60.4793 128.041 -61.3337 128.524 -61.6533 128.792C-61.9729 129.06 -62.6684 129.167 -63.0416 128.578C-63.4148 127.989 -63.1784 127.817 -63.0416 127.4C-63.0174 127.315 -63.0051 127.227 -63.0052 127.139C-62.8904 126.502 -63.0349 126.144 -63.2081 125.968C-63.3117 125.866 -63.4413 125.795 -63.5825 125.762C-63.7238 125.73 -63.8714 125.737 -64.0089 125.783C-64.5352 125.932 -64.9916 126.487 -65.1638 127.166C-65.1638 127.174 -65.1734 127.178 -65.1762 127.187C-65.4073 127.8 -65.693 128.391 -66.0297 128.953C-66.2966 129.38 -66.6172 129.912 -66.8841 130.29C-67.1511 130.668 -67.7376 131.735 -67.3109 129.488C-66.8841 127.242 -66.4564 125.688 -66.9903 125.154C-67.5242 124.621 -68.1117 124.511 -68.6456 125.154C-69.1795 125.797 -69.9258 126.652 -69.9258 126.652C-69.9258 126.652 -68.3787 122.746 -66.6172 116.963C-64.8557 111.179 -64.5266 109.795 -64.5266 109.795C-63.9927 107.44 -63.8855 105.942 -64.206 105.942C-64.5266 105.942 -64.6969 107.381 -65.337 109.944C-65.9771 112.508 -69.3642 123.6 -71.0721 127.454C-72.78 131.307 -74.5625 134.84 -73.5483 134.84C-72.8546 134.84 -72.3743 133.018 -71.9475 131.952C-71.5208 130.886 -67.5711 123.069 -67.6773 126.332C-67.7596 128.846 -68.6341 131.844 -67.9443 131.844C-67.2544 131.844 -66.8229 131.414 -66.1837 130.342C-65.5446 129.271 -65.4901 129.218 -65.4901 129.218C-65.4901 129.218 -64.9026 129.697 -64.0482 128.63C-63.4081 129.486 -62.5546 130.452 -61.593 129.7C-60.6314 128.948 -60.419 128.63 -59.8325 128.576C-59.8325 129.218 -59.5655 131.519 -57.0032 129.432C-54.4409 127.344 -54.1749 126.436 -53.9615 127.828C-53.7482 129.22 -53.1081 131.466 -50.3324 130.13C-47.5567 128.794 -47.7701 128.847 -47.2362 129.381C-47.2362 129.381 -46.7769 130.13 -46.154 129.861C-45.9598 129.954 -45.7436 129.992 -45.5292 129.971C-43.8204 129.863 -43.7113 129.595 -43.1803 128.954C-42.6492 128.313 -42.3794 127.99 -42.1125 127.99C-41.8455 127.99 -39.8161 127.51 -37.2557 126.167C-34.6953 124.824 -35.0675 124.509 -37.4701 125.471H-37.4739ZM-14.3489 102.447C-15.0186 104.312 -17.5561 109.546 -20.4954 115.408C-18.156 108.957 -14.9909 101.548 -14.0848 99.2472C-12.8582 96.1438 -12.8056 98.167 -14.3527 102.447H-14.3489ZM-25.2019 113.338C-22.4396 104.383 -20.3509 96.5745 -19.5261 94.5437C-18.3521 91.6542 -19.3118 97.1127 -20.7011 102.036C-21.3508 104.344 -23.2443 108.874 -25.1981 113.338H-25.2019ZM-14.4532 104.294C-12.8524 100.826 -11.8497 96.8019 -12.7453 96.588C-13.6408 96.374 -14.5814 98.7713 -18.8105 109.259C-20.8446 114.306 -21.8933 117.309 -22.5831 119.548C-25.8277 125.931 -29.1526 132.301 -30.8117 135.351C-34.3882 141.933 -30.9724 130.476 -29.0291 124.99C-28.2637 122.825 -27.5193 120.615 -26.8074 118.42C-26.174 116.999 -25.5425 115.58 -24.9197 114.181C-19.1549 101.23 -17.447 94.489 -18.7282 92.7757C-20.0093 91.0623 -23.6347 106.049 -25.4507 111.72C-25.9846 113.393 -26.9002 116.249 -27.9202 119.457C-29.0597 121.996 -29.9859 124.036 -30.36 124.937C-31.5867 127.882 -35.9095 136.817 -38.1523 141.688C-38.1523 141.688 -42.4005 151.255 -42.764 152.24C-43.1276 153.225 -43.4262 154.488 -43.5726 154.804C-43.7189 155.121 -43.4874 155.231 -43.209 154.996C-42.9305 154.761 -42.8463 154.525 -42.6349 153.67C-42.4234 152.814 -40.394 148.537 -38.7885 145.115C-37.6078 142.59 -33.7557 134.006 -29.5018 124.48C-31.4919 130.82 -33.3577 136.945 -33.2333 137.302C-32.1665 140.513 -28.323 132.379 -25.7616 127.243C-25.1876 126.084 -24.3724 124.456 -23.4443 122.591C-23.715 123.594 -23.9743 124.562 -24.3312 125.722C-25.6545 130.025 -24.9723 131.265 -24.0968 131.265C-23.2213 131.265 -23.4672 130.72 -23.7868 130.72C-25.0144 130.667 -24.3743 128.365 -22.5056 121.569C-22.32 120.898 -22.1 120.165 -21.8541 119.395C-18.8994 113.448 -15.4913 106.56 -14.4465 104.297L-14.4532 104.294ZM-17.9579 127.581C-17.9579 127.581 -17.978 128.523 -19.4506 129.08C-21.2608 129.765 -21.2446 128.139 -20.6466 126.896C-20.0486 125.654 -19.2382 125.484 -18.9176 125.912C-19.6649 127.367 -17.9608 127.581 -17.9608 127.581H-17.9579ZM-0.899085 126.854C-2.24435 126.555 -3.18393 125.87 -5.1693 126.087C-7.15467 126.303 -7.32498 126.257 -7.66752 125.851C-8.01005 125.444 -7.83687 125.145 -9.76005 125.487C-11.6832 125.83 -12.1071 126.15 -12.8323 125.787C-13.5576 125.425 -13.858 125.188 -13.9001 124.844C-13.9422 124.501 -14.7125 124.246 -14.7125 124.78C-14.7125 125.314 -14.7967 125.572 -15.2244 125.916C-15.652 126.259 -16.6337 126.857 -16.8461 126.921C-16.9476 126.952 -17.0595 126.907 -17.2289 126.778C-17.3714 126.299 -17.6795 125.869 -18.2364 125.801C-18.4861 125.548 -18.9329 125.145 -19.242 125.145C-19.6917 125.145 -20.9068 125.465 -21.4627 126.942C-22.0186 128.42 -22.0177 130.067 -20.2667 130.067C-18.5158 130.067 -17.5771 128.612 -17.2786 128.206C-17.1963 128.094 -17.1408 127.857 -17.1313 127.576C-16.7121 127.503 -16.312 127.346 -15.9554 127.114C-14.2465 126.044 -14.3116 125.701 -14.1183 125.916C-13.925 126.131 -12.8371 127.114 -11.3015 126.643C-9.76579 126.172 -8.52672 126.044 -8.31144 126.344C-8.09616 126.643 -7.77755 127.243 -5.83524 126.986C-3.89293 126.728 -3.48724 126.942 -2.80408 127.199C-2.12092 127.457 -1.56598 127.798 -0.794791 127.5C-0.0236066 127.201 0.444266 127.156 -0.901001 126.857L-0.899085 126.854ZM7.90734 124.331C7.90734 124.609 7.73033 124.715 7.07205 124.841C7.16295 124.149 7.90734 124.009 7.90734 124.331ZM4.36333 125.383C3.8036 125.478 3.38357 125.478 3.38357 125.227C3.38357 124.863 4.1691 124.959 4.36333 125.383ZM8.89189 124.157C8.89189 123.558 8.08052 123.45 7.69685 123.45C7.31317 123.45 6.18127 123.723 6.12673 125.005C5.79185 125.074 5.41773 125.164 5.05414 125.245C4.99865 124.751 4.62741 124.307 3.51177 124.307C1.4202 124.307 1.71872 126.13 3.59693 126.13C3.80103 126.12 4.0043 126.098 4.20546 126.062C4.13796 126.148 4.06305 126.228 3.98157 126.301C2.74442 127.413 0.992513 127.114 0.992513 125.272C0.992513 124.93 1.07958 124.545 1.29199 124.545C1.5044 124.545 1.71872 124.76 2.01725 124.46C2.31577 124.159 2.14546 123.603 1.37715 123.603C0.608836 123.603 0.0577133 124.671 0.0577133 125.269C0.0577133 125.741 0.440438 127.711 2.10623 127.711C3.77203 127.711 4.41309 126.896 4.75372 126.383C4.84535 126.24 4.91833 126.087 4.9709 125.925C5.37371 125.848 5.79949 125.761 6.20231 125.677C6.45777 126.591 7.35048 126.957 8.68139 127.5C10.2582 128.136 11.1566 128.999 9.6181 129.383C8.07956 129.767 7.22609 129.767 6.88547 129.682C6.54484 129.598 6.24442 129.383 5.90284 129.383C5.56126 129.383 4.92115 130.534 6.7563 130.534C8.59145 130.534 11.1978 130.362 11.1978 128.651C11.1978 127.238 8.67756 126.725 8.08051 126.424C7.6289 126.198 7.27489 125.945 7.12946 125.485C7.206 125.47 7.2902 125.452 7.3543 125.44C8.25179 125.267 8.89189 124.755 8.89189 124.156V124.157ZM25.2446 125.44C25.0743 124.969 24.1787 124.626 22.6833 125.056C21.1878 125.487 18.2427 126.128 16.5339 125.999C14.825 125.871 13.9725 125.956 13.3324 126.128C12.6923 126.3 11.0265 126.556 11.0265 125.443C11.0265 124.676 11.924 124.629 12.1374 124.629C12.3507 124.629 12.8196 124.8 12.8626 124.929C12.9057 125.057 13.2683 125.549 13.4606 125.484C13.653 125.419 13.5888 123.987 12.0513 123.987C10.5137 123.987 10.3443 125.528 10.3443 125.528C10.3443 126.17 10.9835 126.984 12.1622 126.984C13.341 126.984 13.5085 126.727 13.8922 126.641C14.2758 126.556 15.3015 126.556 15.7273 126.705C16.1531 126.855 17.4362 127.241 19.3574 126.769C21.2787 126.297 23.9692 125.443 24.3529 125.484C24.7366 125.525 25.4216 125.913 25.2494 125.443" fill="black"/>
<path d="M48.2422 218.572C48.6307 219.334 47.7083 221.375 46.6702 223.495C45.5173 225.854 46.3707 223.753 46.9659 222.043C47.2347 221.276 47.7313 219.921 48.2403 218.576L48.2422 218.572ZM45.6426 219.112C45.6426 219.112 42.8679 222.215 43.6333 222.387C44.3987 222.558 44.3586 221.958 44.3165 221.873C44.2744 221.789 44.7432 221.23 45.3412 220.374C45.8761 219.607 47.0242 218.198 47.8098 218.274C46.9027 220.75 46.0578 223.019 45.7727 223.8C45.1326 225.554 43.3807 228.893 43.7634 229.747C44.1462 230.602 46.1554 226.538 47.782 222.936C49.4086 219.335 49.1053 218.698 48.8488 217.499C48.8312 217.412 48.7935 217.329 48.7388 217.259C49.1713 216.118 49.5483 215.139 49.7033 214.76C50.4285 215.231 50.685 214.588 50.685 214.588C50.0449 214.632 50.6419 213.004 51.4112 210.907C52.1804 208.81 51.7939 208.424 51.5394 208.381C51.2849 208.338 51.2609 208.295 50.5826 210.522C50.2486 211.607 49.2507 214.37 48.2422 217.121C47.4825 217.277 46.2521 218.381 45.6445 219.112H45.6426ZM51.7681 196.958C49.6334 201.667 42.909 216.49 42.909 216.49C42.4306 217.508 41.6403 219.368 40.6911 221.414C41.6173 217.634 44.459 211.173 46.7506 205.091C50.3797 195.46 54.2232 186.469 54.4366 186.469C54.6499 186.469 53.9065 192.249 51.7719 196.958H51.7681ZM34.0308 225.786C35.4584 219.059 39.7956 207.151 41.5781 202.092C44.0859 194.973 49.5837 183.687 50.2238 182.457C50.8639 181.228 51.5633 181.012 51.3978 181.978C51.2322 182.944 48.9962 189.841 45.1537 200.058C41.3111 210.274 37.9164 217.634 35.5253 222.687C35.068 223.653 34.5609 224.701 34.0308 225.786ZM52.5153 197.065C53.4721 194.818 56.3578 185.721 54.6499 185.399C52.9421 185.076 46.8568 203.439 44.1911 209.587C40.8241 217.357 39.7898 221.402 39.7362 223.423C37.8466 227.268 35.622 231.021 34.1035 230.618C33.6251 230.49 33.4912 229.689 33.6012 228.43C40.0941 215.173 42.7559 208.565 45.6263 201.239C48.935 192.784 51.348 184.972 51.881 183.045C52.4139 181.119 52.6254 177.802 50.2774 181.012C47.9294 184.222 43.4458 194.711 37.7882 210.765C34.1963 220.959 32.586 226.1 32.5439 228.8C30.726 232.455 28.9234 235.963 28.1426 237.456C28.1426 237.456 26.0071 241.372 25.6664 242.145C25.3258 242.917 25.1325 243.172 25.4521 243.296C25.6457 243.361 25.8564 243.353 26.0449 243.274C26.2333 243.196 26.3868 243.051 26.4769 242.867C26.6912 242.439 29.1559 237.366 30.3203 235.054C31.1757 233.349 31.9766 231.739 32.7296 230.212C32.9496 230.853 33.3611 231.252 33.9495 231.522C35.4804 232.225 37.77 228.731 39.8903 224.66C40.2874 225.725 41.337 225.105 41.5283 224.673C40.7993 224.81 40.4577 224.432 40.4003 223.664C41.6441 221.207 42.7923 218.65 43.663 216.757C46.1143 211.406 51.5585 199.313 52.5153 197.065ZM77.7156 218.481C77.6056 218.248 77.6199 217.944 77.8706 217.56C78.5643 216.49 79.0972 216.596 78.4045 217.666C78.2175 217.971 77.9852 218.246 77.7156 218.481V218.481ZM59.6626 217.421C59.4986 217.696 59.2683 217.924 58.9929 218.086C58.8838 218.166 58.8015 218.197 58.7709 218.17C58.7709 218.17 58.7489 218.176 58.7479 218.17C58.747 218.163 58.7479 218.154 58.7479 218.147C58.7482 218.126 58.7507 218.106 58.7556 218.087C58.8235 217.275 59.5631 216.416 59.7057 216.544C59.7057 216.544 59.7057 216.544 59.7057 216.548H59.7105C59.7105 216.548 59.7162 216.562 59.7191 216.566C59.8885 216.737 59.8846 216.989 59.6588 217.42L59.6626 217.421ZM85.9786 215.524C83.577 216.488 81.8691 217.29 81.6031 217.29C81.3371 217.29 80.6463 216.969 80.4817 217.558C80.3172 218.147 79.8416 218.896 79.0408 219.003C78.7893 219.033 78.5344 219.008 78.2935 218.929C79.1422 217.844 80.0483 216.201 78.7719 216.059C77.8151 215.954 77.5444 216.539 77.2774 217.237C77.1578 217.551 76.931 218.166 76.8717 218.739C76.7705 218.719 76.6734 218.681 76.5847 218.628C76.0508 218.308 75.891 218.039 74.9304 218.468C73.9697 218.897 70.8735 220.929 70.3377 218.36C69.8019 215.791 69.1101 216.22 67.8835 217.401C66.6569 218.582 63.8267 221.2 64.4677 217.936C64.6811 217.293 65.0016 216.758 64.5749 216.705C64.1481 216.651 64.1472 216.919 63.9864 217.293C63.8257 217.667 63.8267 217.99 63.3999 218.042C62.9732 218.094 62.1188 218.577 61.7992 218.845C61.4796 219.113 60.784 219.22 60.4109 218.631C60.0377 218.042 60.274 217.87 60.4109 217.453C60.4351 217.368 60.4473 217.28 60.4472 217.192C60.562 216.555 60.4176 216.197 60.2444 216.021C60.1408 215.919 60.0112 215.848 59.8699 215.815C59.7286 215.783 59.5811 215.79 59.4435 215.836C58.9173 215.985 58.4609 216.54 58.2887 217.219C58.2887 217.227 58.2791 217.231 58.2762 217.24C58.0451 217.853 57.7595 218.444 57.4228 219.006C57.1558 219.433 56.8353 219.965 56.5683 220.343C56.3014 220.721 55.7149 221.788 56.1416 219.541C56.5683 217.295 56.996 215.741 56.4621 215.207C55.9282 214.674 55.3408 214.564 54.8069 215.207C54.273 215.85 53.5267 216.705 53.5267 216.705C53.5267 216.705 55.0738 212.799 56.8353 207.016C58.5968 201.232 58.9259 199.848 58.9259 199.848C59.4598 197.493 59.567 195.995 59.2464 195.995C58.9259 195.995 58.7556 197.434 58.1155 199.997C57.4754 202.561 54.0883 213.653 52.3804 217.507C50.6725 221.36 48.89 224.893 49.9042 224.893C50.5979 224.893 51.0782 223.071 51.5049 222.005C51.9317 220.939 55.8814 213.122 55.7752 216.385C55.6929 218.899 54.8183 221.897 55.5082 221.897C56.1981 221.897 56.6296 221.467 57.2687 220.395C57.9079 219.324 57.9624 219.271 57.9624 219.271C57.9624 219.271 58.5499 219.75 59.4043 218.683C60.0444 219.539 60.8979 220.505 61.8595 219.753C62.8211 219.001 63.0335 218.683 63.62 218.629C63.62 219.271 63.8869 221.572 66.4493 219.485C69.0116 217.397 69.2776 216.489 69.4909 217.881C69.7043 219.273 70.3444 221.519 73.1201 220.183C75.8958 218.847 75.6824 218.9 76.2163 219.434C76.2163 219.434 76.6756 220.183 77.2985 219.914C77.4926 220.007 77.7088 220.045 77.9233 220.024C79.6321 219.916 79.7412 219.648 80.2722 219.007C80.8032 218.366 81.0731 218.043 81.34 218.043C81.607 218.043 83.6363 217.563 86.1967 216.22C88.7571 214.877 88.3849 214.562 85.9824 215.524H85.9786ZM109.104 192.5C108.434 194.365 105.896 199.599 102.957 205.461C105.296 199.01 108.462 191.601 109.368 189.3C110.594 186.197 110.647 188.22 109.1 192.5H109.104ZM98.2506 203.391C101.013 194.436 103.102 186.628 103.926 184.597C105.1 181.707 104.141 187.166 102.751 192.089C102.102 194.397 100.208 198.927 98.2544 203.391H98.2506ZM108.999 194.347C110.6 190.879 111.603 186.855 110.707 186.641C109.812 186.427 108.871 188.824 104.642 199.312C102.608 204.359 101.559 207.362 100.869 209.601C97.6248 215.984 94.2999 222.354 92.6408 225.404C89.0643 231.986 92.4801 220.529 94.4233 215.043C95.1888 212.878 95.9332 210.668 96.645 208.473C97.2784 207.052 97.9099 205.633 98.5328 204.234C104.298 191.283 106.005 184.542 104.724 182.829C103.443 181.115 99.8178 196.102 98.0018 201.773C97.4679 203.446 96.5522 206.302 95.5323 209.51C94.3927 212.049 93.4665 214.089 93.0924 214.99C91.8658 217.935 87.543 226.87 85.3002 231.741C85.3002 231.741 81.052 241.308 80.6884 242.293C80.3248 243.278 80.0263 244.541 79.8799 244.857C79.7335 245.174 79.9651 245.284 80.2435 245.049C80.5219 244.814 80.6061 244.578 80.8176 243.723C81.029 242.867 83.0584 238.59 84.6639 235.168C85.8446 232.643 89.6967 224.059 93.9507 214.533C91.9605 220.873 90.0948 226.998 90.2191 227.355C91.286 230.566 95.1295 222.432 97.6908 217.296C98.2649 216.137 99.0801 214.509 100.008 212.644C99.7374 213.647 99.4781 214.615 99.1212 215.775C97.798 220.078 98.4802 221.318 99.3557 221.318C100.231 221.318 99.9852 220.773 99.6657 220.773C98.4381 220.72 99.0782 218.418 100.947 211.622C101.132 210.951 101.353 210.218 101.598 209.448C104.553 203.501 107.961 196.613 109.006 194.35L108.999 194.347ZM105.495 217.634C105.495 217.634 105.474 218.576 104.002 219.133C102.192 219.818 102.208 218.192 102.806 216.949C103.404 215.707 104.214 215.537 104.535 215.965C103.788 217.42 105.492 217.634 105.492 217.634H105.495ZM122.553 216.907C121.208 216.608 120.269 215.923 118.283 216.14C116.298 216.356 116.127 216.31 115.785 215.904C115.442 215.497 115.616 215.198 113.692 215.54C111.769 215.883 111.345 216.203 110.62 215.84C109.895 215.478 109.594 215.241 109.552 214.897C109.51 214.554 108.74 214.299 108.74 214.833C108.74 215.367 108.656 215.625 108.228 215.969C107.8 216.312 106.819 216.91 106.606 216.974C106.505 217.005 106.393 216.96 106.224 216.831C106.081 216.352 105.773 215.922 105.216 215.854C104.966 215.601 104.52 215.198 104.21 215.198C103.761 215.198 102.546 215.518 101.99 216.995C101.434 218.473 101.435 220.12 103.186 220.12C104.937 220.12 105.875 218.665 106.174 218.259C106.256 218.147 106.312 217.91 106.321 217.628C106.74 217.556 107.14 217.399 107.497 217.167C109.206 216.097 109.141 215.754 109.334 215.969C109.527 216.184 110.615 217.167 112.151 216.696C113.687 216.225 114.926 216.097 115.141 216.397C115.356 216.696 115.675 217.296 117.617 217.039C119.56 216.781 119.965 216.995 120.648 217.252C121.332 217.51 121.886 217.851 122.658 217.553C123.429 217.254 123.897 217.209 122.551 216.91L122.553 216.907ZM131.36 214.384C131.36 214.662 131.183 214.768 130.525 214.894C130.615 214.202 131.36 214.062 131.36 214.384ZM127.816 215.436C127.256 215.531 126.836 215.531 126.836 215.28C126.836 214.916 127.622 215.012 127.816 215.436ZM132.344 214.21C132.344 213.611 131.533 213.503 131.149 213.503C130.766 213.503 129.634 213.776 129.579 215.058C129.244 215.127 128.87 215.217 128.507 215.298C128.451 214.804 128.08 214.36 126.964 214.36C124.873 214.36 125.171 216.183 127.049 216.183C127.253 216.173 127.457 216.151 127.658 216.115C127.59 216.201 127.516 216.281 127.434 216.354C126.197 217.466 124.445 217.167 124.445 215.325C124.445 214.983 124.532 214.598 124.744 214.598C124.957 214.598 125.171 214.813 125.47 214.513C125.768 214.212 125.598 213.656 124.83 213.656C124.061 213.656 123.51 214.724 123.51 215.322C123.51 215.794 123.893 217.764 125.559 217.764C127.224 217.764 127.866 216.949 128.206 216.436C128.298 216.293 128.371 216.14 128.423 215.978C128.826 215.901 129.252 215.814 129.655 215.73C129.91 216.644 130.803 217.01 132.134 217.553C133.711 218.189 134.609 219.052 133.071 219.436C131.532 219.82 130.679 219.82 130.338 219.735C129.997 219.651 129.697 219.436 129.355 219.436C129.014 219.436 128.374 220.587 130.209 220.587C132.044 220.587 134.65 220.415 134.65 218.704C134.65 217.291 132.13 216.778 131.533 216.477C131.081 216.251 130.727 215.998 130.582 215.538C130.658 215.523 130.743 215.505 130.807 215.493C131.704 215.32 132.344 214.808 132.344 214.209V214.21ZM148.697 215.493C148.527 215.022 147.631 214.679 146.136 215.109C144.64 215.54 141.695 216.181 139.986 216.052C138.278 215.924 137.425 216.009 136.785 216.181C136.145 216.353 134.479 216.609 134.479 215.496C134.479 214.728 135.376 214.681 135.59 214.681C135.803 214.681 136.272 214.853 136.315 214.982C136.358 215.11 136.721 215.602 136.913 215.537C137.105 215.472 137.041 214.04 135.504 214.04C133.966 214.04 133.797 215.581 133.797 215.581C133.797 216.223 134.436 217.037 135.615 217.037C136.793 217.037 136.961 216.779 137.345 216.694C137.728 216.609 138.754 216.609 139.18 216.758C139.606 216.908 140.889 217.294 142.81 216.822C144.731 216.35 147.422 215.496 147.805 215.537C148.189 215.578 148.874 215.966 148.702 215.496" fill="black"/>
</g>
</svg>
