<svg width="200" height="100" viewBox="0 0 200 100" fill="none" xmlns="http://www.w3.org/2000/svg">
<mask id="mask0_2935_253" style="mask-type:alpha" maskUnits="userSpaceOnUse" x="0" y="0" width="200" height="100">
<rect width="200" height="100" fill="#222222"/>
</mask>
<g mask="url(#mask0_2935_253)">
<path d="M65.0006 29H70.9071L69.7019 34.9796H63.7946L65.0006 29Z" fill="#949494"/>
<path d="M57.2052 36.9235H63.1117L61.9065 42.9038H56L57.2052 36.9235Z" fill="#949494"/>
<path d="M123.765 71H129.349L130.743 64.2239L135.183 70.9984H141.59L136.356 63.0386L144 55.5892H137.593L131.282 61.7861L134.326 47.273H128.745L123.765 71Z" fill="#949494"/>
<path d="M104.102 71H109.684L111.65 61.5285C112.151 60.9054 112.771 60.3919 113.474 60.0192C114.116 59.6827 114.828 59.5066 115.551 59.5055C116.8 59.5055 117.424 60.0621 117.424 61.1752C117.419 61.4877 117.386 61.7991 117.328 62.1061L115.488 71H121.07L123.068 61.368C123.181 60.8406 123.233 60.3019 123.224 59.7623C123.224 58.3494 122.801 57.2202 121.956 56.3747C121.11 55.5291 119.831 55.1077 118.118 55.1103C117.133 55.1122 116.156 55.286 115.229 55.624C114.26 55.9758 113.359 56.4962 112.567 57.1617L114.66 47.2722H109.081L104.102 71Z" fill="#949494"/>
<path d="M76.3827 71H81.742L83.7402 61.3357C84.7763 60.1156 85.843 59.5055 86.9405 59.5055C87.4692 59.5055 87.8551 59.6072 88.0981 59.8105C88.3411 60.0139 88.4626 60.3405 88.4626 60.7904C88.4419 61.1033 88.3997 61.4143 88.3361 61.7213L86.4043 71H91.7331L93.5721 62.2025C93.6564 61.8174 93.7623 61.2608 93.8898 60.5328C94.6287 59.8479 95.4743 59.5055 96.4266 59.5055C96.999 59.5055 97.4153 59.618 97.6755 59.8429C97.9357 60.0679 98.0679 60.4264 98.072 60.9184C98.0713 61.2648 98.0286 61.6098 97.9448 61.9457L96.0715 71H101.405L103.467 61.142C103.624 60.4357 103.709 59.715 103.721 58.9911C103.721 57.7267 103.367 56.7635 102.659 56.1013C101.95 55.4391 100.793 55.1074 99.1859 55.1064C98.2049 55.1158 97.2333 55.3004 96.3158 55.6516C95.3561 56.002 94.461 56.5121 93.6673 57.1609C93.417 56.5043 92.9453 55.9584 92.3357 55.62C91.7222 55.2776 90.8446 55.1064 89.7029 55.1064C88.7557 55.1096 87.8184 55.3005 86.9436 55.6682C86.0174 56.053 85.1603 56.5899 84.4068 57.2573L84.7869 55.5876H79.6173L76.3827 71Z" fill="#949494"/>
<path d="M63.1678 45.5961H57.2606L56.0554 51.5757H61.9627L63.1678 45.5961Z" fill="#949494"/>
<path d="M71.7017 38.4202H65.7952L64.59 44.3997H70.4965L71.7017 38.4202Z" fill="#949494"/>
<path d="M64.3488 45.5961H70.2553L69.0501 51.5757H63.1437L64.3488 45.5961Z" fill="#949494"/>
<path d="M68.8089 52.7713H62.9025L61.6973 58.7508H67.6038L68.8089 52.7713Z" fill="#949494"/>
<path d="M74.329 31.245H80.2355L79.0303 37.2246H73.1239L74.329 31.245Z" fill="#949494"/>
<path d="M78.7891 38.4202H72.8827L71.6775 44.3997H77.584L78.7891 38.4202Z" fill="#949494"/>
<path d="M71.4371 45.5961H77.3435L76.1384 51.5757H70.2319L71.4371 45.5961Z" fill="#949494"/>
<path d="M75.8972 52.7713H69.9907L68.7855 58.7508H74.692L75.8972 52.7713Z" fill="#949494"/>
<path d="M79.9709 38.4202H85.8774L84.6722 44.3997H78.7657L79.9709 38.4202Z" fill="#949494"/>
<path d="M84.431 45.5961H78.5245L77.3194 51.5757H83.2258L84.431 45.5961Z" fill="#949494"/>
</g>
</svg>
