<svg width="125" height="67" viewBox="0 0 125 67" fill="none" xmlns="http://www.w3.org/2000/svg">
<path d="M23.8079 39.4662C24.1974 40.2279 23.2726 42.2684 22.2318 44.3884C21.0758 46.7474 21.9315 44.6465 22.5282 42.937C22.7977 42.1696 23.2956 40.815 23.806 39.4701L23.8079 39.4662ZM21.2015 40.0054C21.2015 40.0054 18.4195 43.1087 19.1869 43.2804C19.9544 43.4522 19.9141 42.8516 19.8719 42.7672C19.8297 42.6828 20.2997 42.1235 20.8993 41.2678C21.4355 40.5004 22.5867 39.0921 23.3743 39.1679C22.4649 41.6439 21.6178 43.9126 21.3319 44.6935C20.6901 46.4481 18.9337 49.7865 19.3174 50.6412C19.7011 51.4959 21.7156 47.4314 23.3465 43.8301C24.9773 40.2289 24.6732 39.5919 24.4161 38.3928C24.3984 38.3054 24.3606 38.2233 24.3058 38.1529C24.7394 37.0114 25.1174 36.0329 25.2728 35.6539C25.9999 36.125 26.257 35.4822 26.257 35.4822C25.6152 35.5254 26.2138 33.8975 26.9851 31.8004C27.7564 29.7034 27.3688 29.3177 27.1137 29.2746C26.8585 29.2314 26.8345 29.1892 26.1544 31.4157C25.8196 32.5007 24.819 35.2635 23.8079 38.0148C23.0462 38.1712 21.8125 39.2744 21.2034 40.0054H21.2015ZM27.3429 17.8521C25.2027 22.5604 18.4607 37.3836 18.4607 37.3836C17.9811 38.4014 17.1887 40.2615 16.237 42.3077C17.1657 38.528 20.0148 32.0671 22.3123 25.9851C25.951 16.3536 29.8045 7.36302 30.0185 7.36302C30.2324 7.36302 29.487 13.1428 27.3468 17.8521H27.3429ZM9.55931 46.6802C10.9906 39.9526 15.3391 28.0447 17.1263 22.9853C19.6407 15.8673 25.1528 4.58102 25.7946 3.35119C26.4364 2.12136 27.1377 1.90552 26.9717 2.87154C26.8057 3.83756 24.5638 10.735 20.7113 20.9516C16.8587 31.1682 13.4551 38.528 11.0577 43.5807C10.5992 44.5467 10.0908 45.5953 9.55931 46.6802ZM28.0922 17.9586C29.0515 15.7119 31.9447 6.61476 30.2324 6.29243C28.52 5.9701 22.4188 24.3332 19.7462 30.4804C16.3704 38.2508 15.3334 42.2962 15.2797 44.3165C13.385 48.1614 11.1546 51.9152 9.63221 51.5113C9.15256 51.3837 9.01826 50.5827 9.12858 49.3241C15.6384 36.0665 18.3072 29.4587 21.1852 22.1325C24.5024 13.6781 26.9218 5.86554 27.4561 3.93925C27.9905 2.01296 28.2025 -1.30433 25.8483 1.90552C23.4942 5.11536 18.9989 15.6044 13.3265 31.6584C9.72527 41.853 8.11075 46.9939 8.06854 49.6934C6.24586 53.3484 4.43852 56.8566 3.65573 58.3502C3.65573 58.3502 1.51455 62.2661 1.17304 63.0383C0.831526 63.8106 0.637746 64.0658 0.958154 64.1895C1.15229 64.2546 1.36348 64.247 1.55245 64.1682C1.74142 64.0893 1.89533 63.9445 1.98557 63.7607C2.20046 63.3328 4.67163 58.26 5.83911 55.9481C6.69673 54.2424 7.49967 52.6327 8.25465 51.1055C8.47529 51.7473 8.88779 52.1454 9.47777 52.4159C11.0127 53.1191 13.3083 49.6243 15.4341 45.554C15.8322 46.6188 16.8846 45.9991 17.0764 45.5665C16.3454 45.7037 16.003 45.3257 15.9454 44.5582C17.1925 42.1005 18.3437 39.5439 19.2167 37.6512C21.6744 32.3002 27.1329 20.2072 28.0922 17.9586ZM53.3584 39.3751C53.2481 39.142 53.2625 38.8379 53.5138 38.4542C54.2093 37.3836 54.7436 37.4901 54.0491 38.5597C53.8615 38.8649 53.6286 39.1399 53.3584 39.3751ZM35.2582 38.3151C35.0937 38.5895 34.8628 38.8182 34.5867 38.9799C34.4773 39.0595 34.3948 39.0911 34.3641 39.0633C34.3641 39.0633 34.3421 39.07 34.3411 39.0633C34.3401 39.0566 34.3411 39.048 34.3411 39.0403C34.3413 39.0202 34.3439 39.0003 34.3488 38.9808C34.4169 38.1693 35.1584 37.3097 35.3014 37.4373C35.3014 37.4373 35.3014 37.4373 35.3014 37.4421H35.3062C35.3062 37.4421 35.3119 37.4555 35.3148 37.4594C35.4846 37.6311 35.4808 37.8824 35.2544 38.3141L35.2582 38.3151ZM61.643 36.4176C59.2351 37.3817 57.5228 38.1836 57.2561 38.1836C56.9894 38.1836 56.2968 37.8632 56.1318 38.4522C55.9668 39.0413 55.49 39.7895 54.687 39.897C54.4349 39.9267 54.1793 39.9015 53.9378 39.8231C54.7887 38.7381 55.6972 37.0948 54.4175 36.9529C53.4582 36.8473 53.1867 37.4325 52.919 38.1309C52.7991 38.4446 52.5718 39.0595 52.5123 39.6332C52.4108 39.6126 52.3135 39.575 52.2245 39.5219C51.6892 39.2015 51.529 38.9329 50.5659 39.3617C49.6027 39.7905 46.4984 41.8233 45.9612 39.2542C45.424 36.6852 44.7304 37.114 43.5006 38.2949C42.2707 39.4758 39.4331 42.0938 40.0758 38.8302C40.2898 38.1865 40.6111 37.6522 40.1833 37.5985C39.7554 37.5447 39.7545 37.8124 39.5933 38.1865C39.4321 38.5606 39.4331 38.8839 39.0052 38.9357C38.5774 38.9875 37.7207 39.471 37.4003 39.7387C37.0799 40.0063 36.3825 40.1138 36.0084 39.5248C35.6342 38.9357 35.8712 38.764 36.0084 38.3467C36.0327 38.2619 36.0449 38.174 36.0448 38.0858C36.1599 37.4488 36.0151 37.091 35.8414 36.9145C35.7376 36.8128 35.6077 36.7417 35.466 36.709C35.3244 36.6763 35.1764 36.6834 35.0385 36.7293C34.5109 36.879 34.0533 37.4335 33.8806 38.1127C33.8806 38.1203 33.871 38.1251 33.8682 38.1338C33.6365 38.7469 33.3501 39.338 33.0125 39.8998C32.7448 40.3267 32.4234 40.8591 32.1558 41.2371C31.8881 41.6151 31.3001 42.6818 31.7279 40.4351C32.1558 38.1884 32.5846 36.6344 32.0493 36.101C31.514 35.5676 30.925 35.4583 30.3897 36.101C29.8544 36.7437 29.1062 37.5985 29.1062 37.5985C29.1062 37.5985 30.6574 33.6931 32.4234 27.9095C34.1895 22.1258 34.5195 20.7415 34.5195 20.7415C35.0548 18.3864 35.1623 16.8889 34.8409 16.8889C34.5195 16.8889 34.3488 18.3279 33.707 20.8912C33.0652 23.4544 29.6693 34.5469 27.9569 38.4004C26.2445 42.254 24.4573 45.7871 25.4742 45.7871C26.1697 45.7871 26.6513 43.9644 27.0791 42.8986C27.507 41.8329 31.467 34.0155 31.3605 37.279C31.278 39.7924 30.4012 42.7912 31.0929 42.7912C31.7845 42.7912 32.2172 42.3605 32.858 41.2889C33.4988 40.2174 33.5535 40.1646 33.5535 40.1646C33.5535 40.1646 34.1425 40.6443 34.9992 39.5766C35.641 40.4332 36.4967 41.3992 37.4608 40.6471C38.4249 39.895 38.6378 39.5766 39.2259 39.5228C39.2259 40.1646 39.4935 42.466 42.0626 40.3785C44.6316 38.2911 44.8983 37.3826 45.1122 38.7746C45.3261 40.1665 45.9679 42.4132 48.7509 41.0769C51.5338 39.7406 51.3199 39.7934 51.8552 40.3277C51.8552 40.3277 52.3156 41.0769 52.9401 40.8074C53.1348 40.9011 53.3516 40.9392 53.5666 40.9177C55.2799 40.8102 55.3893 40.5416 55.9217 39.9008C56.4541 39.26 56.7246 38.9367 56.9923 38.9367C57.2599 38.9367 59.2946 38.457 61.8617 37.114C64.4288 35.771 64.0556 35.4554 61.6468 36.4176H61.643ZM84.8285 13.3942C84.157 15.2591 81.6129 20.4931 78.6659 26.3544C81.0114 19.904 84.1848 12.4944 85.0933 10.1939C86.3231 7.09057 86.3758 9.11375 84.8246 13.3942H84.8285ZM73.9471 24.2852C76.7166 15.3301 78.8107 7.5213 79.6377 5.49045C80.8147 2.60101 79.8526 8.05947 78.4596 12.9826C77.8083 15.2907 75.9098 19.8206 73.9509 24.2852H73.9471ZM84.7239 15.2408C86.3288 11.773 87.3342 7.74866 86.4363 7.53473C85.5384 7.32081 84.5954 9.71812 80.3552 20.2062C78.3157 25.2531 77.2643 28.2558 76.5727 30.4948C73.3197 36.878 69.9861 43.2478 68.3226 46.2975C64.7367 52.8802 68.1615 41.4232 70.1098 35.9369C70.8773 33.7718 71.6236 31.5615 72.3373 29.3666C72.9724 27.9459 73.6055 26.5271 74.2301 25.1275C80.0099 12.1768 81.7222 5.43577 80.4377 3.72244C79.1532 2.00912 75.5184 16.9954 73.6976 22.6668C73.1623 24.3399 72.2443 27.1957 71.2217 30.4037C70.0791 32.9429 69.1505 34.9824 68.7754 35.8842C67.5456 38.8293 63.2114 47.7642 60.9628 52.6347C60.9628 52.6347 56.7035 62.2018 56.339 63.187C55.9744 64.1722 55.6751 65.4347 55.5284 65.7513C55.3816 66.0678 55.6137 66.1782 55.8929 65.9431C56.1721 65.7081 56.2565 65.4721 56.4685 64.6164C56.6805 63.7607 58.7152 59.4841 60.3249 56.0623C61.5087 53.5364 65.3708 44.9525 69.6359 35.4266C67.6406 41.7667 65.7699 47.8918 65.8946 48.2487C66.9643 51.4595 70.8178 43.3255 73.3859 38.1894C73.9614 37.0306 74.7788 35.4026 75.7093 33.5377C75.4378 34.5412 75.1778 35.5091 74.82 36.6689C73.4933 40.9714 74.1773 42.2118 75.0551 42.2118C75.9328 42.2118 75.6863 41.6669 75.3659 41.6669C74.1351 41.6141 74.7769 39.3118 76.6504 32.5161C76.8365 31.8445 77.0571 31.1116 77.3037 30.3423C80.266 24.3946 83.6831 17.5067 84.7306 15.2437L84.7239 15.2408ZM81.21 38.528C81.21 38.528 81.1898 39.4701 79.7135 40.0265C77.8984 40.7114 77.9147 39.0854 78.5143 37.8431C79.1139 36.6008 79.9264 36.431 80.2478 36.8588C79.4986 38.3141 81.2071 38.528 81.2071 38.528H81.21ZM98.3135 37.8009C96.9647 37.5016 96.0226 36.8166 94.0321 37.0334C92.0415 37.2502 91.8708 37.2042 91.5273 36.7974C91.1839 36.3907 91.3575 36.0914 89.4293 36.4339C87.5011 36.7763 87.0761 37.0967 86.349 36.7341C85.6218 36.3715 85.3206 36.1346 85.2784 35.7911C85.2362 35.4477 84.4639 35.1925 84.4639 35.7269C84.4639 36.2612 84.3795 36.5192 83.9507 36.8627C83.5219 37.2061 82.5377 37.8038 82.3247 37.868C82.223 37.8987 82.1108 37.8536 81.941 37.7251C81.798 37.2454 81.4891 36.8157 80.9308 36.7476C80.6804 36.4953 80.2324 36.0914 79.9226 36.0914C79.4717 36.0914 78.2534 36.4118 77.696 37.8891C77.1387 39.3665 77.1396 41.0136 78.8952 41.0136C80.6507 41.0136 81.5918 39.5583 81.8911 39.1525C81.9736 39.0403 82.0292 38.8034 82.0388 38.5223C82.459 38.45 82.8602 38.293 83.2178 38.0609C84.9311 36.9912 84.8659 36.6478 85.0597 36.8627C85.2535 37.0776 86.3442 38.0609 87.8839 37.5898C89.4236 37.1188 90.6659 36.9912 90.8817 37.2905C91.0976 37.5898 91.417 38.1894 93.3644 37.9323C95.3118 37.6752 95.7185 37.8891 96.4035 38.1462C97.0884 38.4033 97.6448 38.7448 98.418 38.4465C99.1912 38.1481 99.6603 38.1031 98.3115 37.8038L98.3135 37.8009ZM107.143 35.2779C107.143 35.5561 106.965 35.6616 106.305 35.7883C106.397 35.0956 107.143 34.9556 107.143 35.2779ZM103.59 36.3293C103.028 36.4252 102.607 36.4252 102.607 36.1739C102.607 35.8094 103.395 35.9062 103.59 36.3293ZM108.13 35.1043C108.13 34.5047 107.317 34.3973 106.932 34.3973C106.547 34.3973 105.412 34.6697 105.358 35.9513C105.022 36.0204 104.647 36.1106 104.282 36.1921C104.227 35.6981 103.854 35.2539 102.736 35.2539C100.639 35.2539 100.938 37.0766 102.821 37.0766C103.026 37.0671 103.23 37.0444 103.431 37.0085C103.364 37.0945 103.289 37.1745 103.207 37.2474C101.967 38.3602 100.21 38.0609 100.21 36.219C100.21 35.8765 100.297 35.4918 100.51 35.4918C100.723 35.4918 100.938 35.7067 101.237 35.4064C101.537 35.1062 101.366 34.5498 100.596 34.5498C99.8253 34.5498 99.2728 35.6175 99.2728 36.2161C99.2728 36.6881 99.6565 38.6575 101.327 38.6575C102.997 38.6575 103.64 37.8431 103.981 37.3299C104.073 37.1873 104.146 37.0335 104.199 36.8723C104.603 36.7946 105.03 36.7082 105.433 36.6238C105.69 37.538 106.585 37.9035 107.919 38.4465C109.5 39.0825 110.401 39.9459 108.858 40.3296C107.316 40.7133 106.46 40.7133 106.118 40.6289C105.777 40.5445 105.476 40.3296 105.133 40.3296C104.791 40.3296 104.149 41.4808 105.989 41.4808C107.829 41.4808 110.442 41.3091 110.442 39.5977C110.442 38.1846 107.915 37.6714 107.317 37.3711C106.864 37.1447 106.509 36.8915 106.363 36.4319C106.44 36.4166 106.524 36.3984 106.588 36.3869C107.488 36.2142 108.13 35.7019 108.13 35.1023V35.1043ZM124.526 36.3869C124.355 35.9158 123.457 35.5724 121.958 36.0031C120.458 36.4339 117.505 37.0747 115.792 36.9461C114.079 36.8176 113.224 36.903 112.582 37.0747C111.94 37.2464 110.27 37.5025 110.27 36.3897C110.27 35.6223 111.17 35.5753 111.384 35.5753C111.598 35.5753 112.068 35.747 112.111 35.8755C112.154 36.0041 112.518 36.4962 112.711 36.431C112.904 36.3658 112.839 34.9335 111.298 34.9335C109.756 34.9335 109.586 36.4751 109.586 36.4751C109.586 37.1169 110.227 37.9304 111.409 37.9304C112.591 37.9304 112.759 37.6733 113.143 37.5879C113.528 37.5025 114.556 37.5025 114.983 37.6522C115.41 37.8018 116.697 38.1875 118.623 37.7155C120.549 37.2435 123.247 36.3897 123.632 36.431C124.016 36.4722 124.703 36.8598 124.53 36.3897" fill="#231F20"/>
</svg>
