<svg width="378" height="201" viewBox="0 0 378 201" fill="none" xmlns="http://www.w3.org/2000/svg">
<path d="M70.2869 119.686C71.4765 122.012 68.652 128.244 65.473 134.72C61.9424 141.924 64.5559 135.508 66.3784 130.287C67.2017 127.943 68.7223 123.806 70.2811 119.698L70.2869 119.686ZM62.3263 121.333C62.3263 121.333 53.8294 130.811 56.1734 131.336C58.5173 131.86 58.3943 130.026 58.2653 129.768C58.1364 129.51 59.5721 127.802 61.4033 125.188C63.0412 122.845 66.5571 118.543 68.9626 118.775C66.185 126.337 63.5978 133.266 62.7247 135.651C60.7646 141.01 55.3999 151.206 56.5718 153.817C57.7438 156.428 63.8967 144.013 68.8776 133.014C73.8585 122.015 72.9297 120.07 72.1445 116.407C72.0904 116.14 71.9751 115.89 71.8076 115.675C73.1319 112.188 74.2863 109.2 74.7609 108.042C76.9818 109.481 77.7671 107.518 77.7671 107.518C75.8069 107.65 77.6352 102.678 79.9909 96.2729C82.3466 89.868 81.1629 88.6902 80.3835 88.5583C79.6041 88.4265 79.5309 88.2975 77.4536 95.0979C76.431 98.4117 73.3751 106.85 70.2869 115.253C67.9605 115.731 64.1926 119.1 62.3321 121.333H62.3263ZM81.0838 53.6715C74.5471 68.0516 53.9554 113.325 53.9554 113.325C52.4904 116.434 50.0703 122.115 47.1638 128.365C50 116.821 58.7019 97.0874 65.7191 78.5115C76.8324 49.0949 88.602 21.6354 89.2554 21.6354C89.9088 21.6354 87.6322 39.2883 81.0955 53.6715H81.0838ZM26.7684 141.719C31.1399 121.172 44.4214 84.8021 49.8798 69.3496C57.5592 47.6094 74.3947 13.1386 76.3548 9.38239C78.315 5.6262 80.4568 4.96697 79.9499 7.91742C79.443 10.8679 72.5957 31.9342 60.829 63.1381C49.0624 94.342 38.6669 116.821 31.345 132.253C29.9445 135.203 28.3916 138.405 26.7684 141.719ZM83.372 53.9967C86.302 47.1347 95.1387 19.3501 89.9088 18.3656C84.6788 17.3811 66.0443 73.4661 57.8815 92.2412C47.571 115.974 44.4038 128.329 44.2397 134.5C38.4531 146.243 31.6409 157.708 26.9911 156.474C25.5261 156.085 25.116 153.638 25.4529 149.794C45.3355 109.302 53.4866 89.1209 62.2764 66.7449C72.4082 40.9233 79.7975 17.0618 81.4295 11.1785C83.0615 5.29512 83.709 -4.83663 76.5189 4.96697C69.3288 14.7706 55.5991 46.8066 38.2743 95.8392C27.2753 126.976 22.3442 142.677 22.2153 150.922C16.6484 162.085 11.1284 172.8 8.73756 177.362C8.73756 177.362 2.19792 189.322 1.15486 191.681C0.111798 194.039 -0.480052 194.819 0.498549 195.197C1.0915 195.395 1.73649 195.372 2.31366 195.131C2.89082 194.891 3.3609 194.448 3.63652 193.887C4.29283 192.58 11.8404 177.087 15.4061 170.025C18.0255 164.816 20.4778 159.9 22.7837 155.235C23.4576 157.195 24.7175 158.411 26.5194 159.237C31.2073 161.385 38.2187 150.711 44.7114 138.279C45.9273 141.532 49.1415 139.639 49.7275 138.318C47.4949 138.737 46.4489 137.582 46.2731 135.238C50.082 127.732 53.5979 119.923 56.2642 114.143C63.7707 97.7993 80.4421 60.8645 83.372 53.9967ZM160.541 119.408C160.204 118.696 160.248 117.767 161.016 116.595C163.14 113.325 164.772 113.65 162.65 116.917C162.078 117.85 161.366 118.689 160.541 119.408ZM105.259 116.17C104.756 117.008 104.051 117.707 103.208 118.201C102.874 118.444 102.622 118.54 102.528 118.455C102.528 118.455 102.461 118.476 102.458 118.455C102.455 118.435 102.458 118.409 102.458 118.385C102.458 118.324 102.466 118.263 102.481 118.203C102.689 115.725 104.954 113.1 105.391 113.489C105.391 113.489 105.391 113.489 105.391 113.504H105.405C105.405 113.504 105.423 113.545 105.432 113.557C105.95 114.081 105.938 114.849 105.247 116.167L105.259 116.17ZM185.844 110.375C178.49 113.319 173.26 115.769 172.445 115.769C171.631 115.769 169.515 114.79 169.011 116.589C168.507 118.388 167.051 120.673 164.599 121.002C163.829 121.092 163.048 121.015 162.311 120.776C164.909 117.462 167.684 112.443 163.776 112.01C160.846 111.687 160.016 113.475 159.199 115.608C158.833 116.566 158.138 118.444 157.957 120.196C157.647 120.133 157.349 120.018 157.078 119.856C155.443 118.877 154.954 118.057 152.012 119.367C149.07 120.676 139.589 126.885 137.948 119.039C136.307 111.192 134.189 112.502 130.433 116.109C126.677 119.715 118.01 127.711 119.973 117.743C120.626 115.777 121.608 114.146 120.301 113.981C118.994 113.817 118.991 114.635 118.499 115.777C118.007 116.92 118.01 117.908 116.703 118.066C115.396 118.224 112.78 119.701 111.801 120.518C110.823 121.336 108.693 121.664 107.55 119.865C106.407 118.066 107.131 117.541 107.55 116.267C107.624 116.008 107.662 115.739 107.661 115.47C108.013 113.524 107.57 112.431 107.04 111.892C106.723 111.582 106.326 111.365 105.893 111.265C105.461 111.165 105.009 111.187 104.588 111.327C102.976 111.784 101.579 113.477 101.051 115.552C101.051 115.575 101.022 115.59 101.013 115.616C100.306 117.489 99.4309 119.294 98.3997 121.01C97.5823 122.314 96.6007 123.94 95.7833 125.095C94.9658 126.249 93.1698 129.507 94.4765 122.645C95.7833 115.783 97.093 111.037 95.4581 109.408C93.8232 107.779 92.0242 107.445 90.3893 109.408C88.7543 111.371 86.469 113.981 86.469 113.981C86.469 113.981 91.2067 102.054 96.6007 84.389C101.995 66.7243 103.003 62.4964 103.003 62.4964C104.638 55.3034 104.966 50.7298 103.984 50.7298C103.003 50.7298 102.481 55.1247 100.521 62.9535C98.5609 70.7823 88.1889 104.661 82.9589 116.431C77.729 128.2 72.2705 138.991 75.3762 138.991C77.5004 138.991 78.9713 133.425 80.278 130.169C81.5848 126.914 93.6796 103.038 93.3544 113.006C93.1024 120.682 90.4244 129.841 92.5369 129.841C94.6494 129.841 95.9708 128.526 97.928 125.253C99.8852 121.98 100.052 121.819 100.052 121.819C100.052 121.819 101.851 123.284 104.468 120.023C106.428 122.639 109.041 125.59 111.986 123.293C114.93 120.996 115.581 120.023 117.377 119.859C117.377 121.819 118.194 128.848 126.041 122.472C133.887 116.097 134.702 113.322 135.355 117.574C136.008 121.825 137.969 128.687 146.468 124.605C154.968 120.524 154.315 120.685 155.95 122.317C155.95 122.317 157.356 124.605 159.263 123.782C159.858 124.068 160.52 124.185 161.177 124.119C166.41 123.791 166.744 122.971 168.37 121.013C169.996 119.056 170.822 118.069 171.64 118.069C172.457 118.069 178.671 116.604 186.512 112.502C194.352 108.4 193.213 107.436 185.856 110.375H185.844ZM256.658 40.056C254.607 45.7518 246.837 61.7376 237.836 79.6395C245 59.9386 254.692 37.3077 257.466 30.2817C261.223 20.8033 261.384 26.9826 256.646 40.056H256.658ZM223.423 73.3197C231.882 45.9686 238.278 22.1189 240.804 15.9162C244.399 7.09118 241.46 23.7626 237.206 38.799C235.216 45.8485 229.418 59.6837 223.435 73.3197H223.423ZM256.338 45.6961C261.24 35.1044 264.311 22.8133 261.568 22.1599C258.826 21.5065 255.946 28.8284 242.995 60.8615C236.766 76.276 233.555 85.4467 231.443 92.2852C221.507 111.781 211.326 131.236 206.245 140.55C195.293 160.655 205.753 125.663 211.704 108.907C214.048 102.294 216.327 95.5433 218.507 88.8396C220.447 84.5003 222.38 80.1669 224.288 75.8922C241.941 36.3379 247.171 15.7492 243.247 10.5163C239.324 5.2834 228.223 51.055 222.662 68.3768C221.027 73.4867 218.223 82.2091 215.099 92.0069C211.61 99.7624 208.774 105.991 207.628 108.746C203.872 117.741 190.634 145.03 183.767 159.905C183.767 159.905 170.758 189.126 169.644 192.135C168.531 195.144 167.617 199 167.168 199.967C166.72 200.933 167.429 201.27 168.282 200.553C169.134 199.835 169.392 199.114 170.04 196.5C170.687 193.887 176.902 180.825 181.818 170.374C185.434 162.66 197.23 136.442 210.256 107.348C204.162 126.712 198.449 145.42 198.829 146.51C202.096 156.316 213.866 131.473 221.709 115.786C223.467 112.247 225.964 107.275 228.806 101.579C227.977 104.644 227.183 107.6 226.09 111.142C222.038 124.283 224.127 128.072 226.807 128.072C229.488 128.072 228.735 126.407 227.757 126.407C223.998 126.246 225.958 119.214 231.68 98.4586C232.248 96.4076 232.922 94.1692 233.675 91.8193C242.723 73.6537 253.159 52.6167 256.359 45.7049L256.338 45.6961ZM245.606 116.821C245.606 116.821 245.544 119.698 241.035 121.397C235.492 123.489 235.542 118.523 237.373 114.729C239.204 110.934 241.686 110.416 242.667 111.722C240.379 116.167 245.597 116.821 245.597 116.821H245.606ZM297.844 114.6C293.725 113.686 290.847 111.594 284.768 112.256C278.688 112.918 278.167 112.777 277.118 111.535C276.069 110.293 276.599 109.379 270.71 110.424C264.821 111.47 263.523 112.449 261.302 111.342C259.081 110.234 258.161 109.51 258.032 108.461C257.903 107.412 255.544 106.633 255.544 108.265C255.544 109.897 255.287 110.685 253.977 111.734C252.667 112.783 249.661 114.608 249.011 114.805C248.7 114.899 248.357 114.761 247.839 114.368C247.402 112.903 246.459 111.591 244.753 111.383C243.989 110.612 242.62 109.378 241.674 109.378C240.297 109.378 236.576 110.357 234.874 114.869C233.171 119.381 233.174 124.412 238.536 124.412C243.898 124.412 246.772 119.967 247.686 118.728C247.938 118.385 248.108 117.661 248.137 116.803C249.421 116.582 250.646 116.103 251.738 115.394C256.971 112.127 256.772 111.078 257.364 111.734C257.956 112.39 261.287 115.394 265.99 113.955C270.692 112.516 274.487 112.127 275.146 113.041C275.805 113.955 276.781 115.786 282.728 115.001C288.676 114.216 289.919 114.869 292.01 115.654C294.102 116.44 295.802 117.483 298.163 116.572C300.525 115.66 301.958 115.523 297.838 114.608L297.844 114.6ZM324.811 106.894C324.811 107.744 324.269 108.066 322.253 108.453C322.532 106.337 324.811 105.909 324.811 106.894ZM313.959 110.105C312.245 110.398 310.958 110.398 310.958 109.63C310.958 108.517 313.364 108.813 313.959 110.105ZM327.826 106.364C327.826 104.532 325.342 104.204 324.167 104.204C322.992 104.204 319.526 105.036 319.359 108.951C318.333 109.162 317.188 109.437 316.074 109.686C315.904 108.177 314.767 106.821 311.351 106.821C304.946 106.821 305.86 112.388 311.612 112.388C312.237 112.359 312.859 112.289 313.475 112.18C313.269 112.442 313.039 112.686 312.79 112.909C309.001 116.308 303.637 115.394 303.637 109.768C303.637 108.722 303.903 107.547 304.554 107.547C305.204 107.547 305.86 108.204 306.774 107.287C307.689 106.369 307.167 104.67 304.814 104.67C302.462 104.67 300.774 107.931 300.774 109.759C300.774 111.201 301.946 117.216 307.047 117.216C312.148 117.216 314.111 114.729 315.154 113.161C315.435 112.726 315.658 112.256 315.819 111.763C317.053 111.526 318.357 111.262 319.59 111.005C320.372 113.797 323.106 114.913 327.182 116.572C332.01 118.514 334.761 121.151 330.05 122.323C325.339 123.495 322.725 123.495 321.682 123.237C320.639 122.979 319.719 122.323 318.673 122.323C317.627 122.323 315.667 125.839 321.286 125.839C326.906 125.839 334.887 125.314 334.887 120.087C334.887 115.772 327.17 114.204 325.342 113.287C323.959 112.596 322.875 111.822 322.429 110.419C322.664 110.372 322.921 110.316 323.118 110.281C325.866 109.754 327.826 108.189 327.826 106.358V106.364ZM377.902 110.281C377.38 108.842 374.638 107.793 370.058 109.109C365.479 110.424 356.461 112.382 351.228 111.989C345.995 111.596 343.384 111.857 341.424 112.382C339.464 112.906 334.363 113.688 334.363 110.29C334.363 107.946 337.111 107.802 337.764 107.802C338.418 107.802 339.854 108.327 339.985 108.719C340.117 109.112 341.228 110.615 341.817 110.416C342.406 110.216 342.209 105.842 337.501 105.842C332.792 105.842 332.274 110.55 332.274 110.55C332.274 112.511 334.231 114.995 337.841 114.995C341.45 114.995 341.963 114.21 343.138 113.949C344.313 113.688 347.454 113.688 348.758 114.146C350.061 114.603 353.991 115.78 359.874 114.339C365.757 112.897 373.996 110.29 375.171 110.416C376.346 110.542 378.444 111.725 377.916 110.29" fill="#231F20"/>
</svg>
