<svg width="200" height="100" viewBox="0 0 200 100" fill="none" xmlns="http://www.w3.org/2000/svg">
<mask id="mask0_1429_173" style="mask-type:alpha" maskUnits="userSpaceOnUse" x="0" y="0" width="200" height="100">
<rect width="200" height="100" fill="#222222"/>
</mask>
<g mask="url(#mask0_1429_173)">
<path d="M71 51.7015H79.5951V31.0025L71 25.2872V51.7015Z" fill="#949494"/>
<path d="M117.539 38.4943H108.944C108.944 40.2587 108.42 41.9834 107.437 43.4504C106.454 44.9175 105.057 46.0609 103.423 46.7361C101.788 47.4113 99.9901 47.5879 98.2551 47.2437C96.5201 46.8995 94.9264 46.0499 93.6755 44.8023C92.4246 43.5547 91.5728 41.9651 91.2277 40.2347C90.8826 38.5042 91.0597 36.7105 91.7366 35.0805C92.4136 33.4504 93.56 32.0572 95.0309 31.0769C96.5017 30.0967 98.231 29.5735 100 29.5735V21C90.3286 21 82.4607 28.8482 82.4607 38.4943C82.4607 48.1404 90.3286 55.9878 100 55.9878C109.671 55.9878 117.539 48.1404 117.539 38.4943Z" fill="#949494"/>
<path d="M129 57.7022V31.2879H120.405V51.9868L129 57.7022Z" fill="#949494"/>
<path d="M87.8113 68.4258H89.1504V62.0728H87.774V66.0995L84.9822 62.0728H83.6555V68.4258H85.017V64.4273L87.8113 68.4258Z" fill="#949494"/>
<path fill-rule="evenodd" clip-rule="evenodd" d="M95.5706 67.6228C96.098 66.9998 96.3616 66.1962 96.3616 65.2121C96.3616 64.3024 96.1151 63.5283 95.622 62.8899C95.1289 62.2514 94.3772 61.9322 93.3667 61.9322C92.427 61.9389 91.6948 62.2534 91.1702 62.8758C90.6456 63.4983 90.3817 64.2977 90.3784 65.2741C90.3784 66.1838 90.6271 66.9576 91.1246 67.5955C91.6221 68.2334 92.3695 68.5537 93.3667 68.5565C94.3097 68.5565 95.0452 68.2453 95.5731 67.6228H95.5706ZM94.9421 65.2121C94.9421 65.9531 94.8 66.5044 94.5159 66.8661C94.3799 67.0424 94.2035 67.1836 94.0016 67.2778C93.7996 67.3721 93.5779 67.4166 93.3551 67.4078C92.8178 67.4078 92.4259 67.2068 92.1793 66.8049C91.9328 66.403 91.8095 65.8908 91.8095 65.2683C91.8095 64.6018 91.9546 64.0722 92.2448 63.6797C92.3709 63.4952 92.5409 63.3449 92.7396 63.2421C92.9383 63.1394 93.1595 63.0874 93.3833 63.0909C93.9266 63.0909 94.3216 63.2902 94.5681 63.6888C94.8147 64.0874 94.938 64.5952 94.938 65.2121H94.9421Z" fill="#949494"/>
<path d="M100.617 68.4258L103.061 62.0728H101.685L100.008 66.6503L98.2753 62.0728L96.9163 62.2382L99.3615 68.4233L100.617 68.4258Z" fill="#949494"/>
<path d="M108.448 67.8511C108.935 67.3995 109.179 66.8096 109.179 66.0813V62.0728H107.798V65.9969C107.798 66.47 107.678 66.8234 107.438 67.0571C107.197 67.2909 106.88 67.4083 106.487 67.4094C106.142 67.4225 105.806 67.3001 105.55 67.0687C105.307 66.8405 105.185 66.4837 105.185 65.9986V62.0728H103.808V66.0813C103.808 66.8223 104.051 67.4155 104.539 67.861C105.026 68.3065 105.676 68.5289 106.487 68.5284C107.305 68.5284 107.958 68.3026 108.445 67.8511H108.448Z" fill="#949494"/>
<path d="M116.35 68.4258V62.0728H115.479C115.16 62.5332 114.845 62.9957 114.534 63.4605C114.222 63.9253 113.906 64.3846 113.587 64.8383L111.507 62.0728H110.608V68.4258H111.976V64.8193L113.344 66.5386C113.433 66.5321 113.523 66.5196 113.611 66.5014C113.644 66.4943 113.678 66.4881 113.711 66.4828C113.767 66.4742 113.822 66.4679 113.878 66.4642C114.058 66.2144 114.241 65.9636 114.426 65.7116C114.51 65.5966 114.593 65.4818 114.675 65.3673C114.773 65.2311 114.869 65.0953 114.964 64.9599V68.4258H116.35Z" fill="#949494"/>
<path d="M88.3088 78.5648C88.0457 78.7005 87.7673 78.8046 87.4796 78.8749C87.1402 78.9612 86.791 79.0031 86.4407 78.9998C85.5098 78.9998 84.8119 78.7007 84.347 78.1025C83.8822 77.5043 83.6497 76.7793 83.6497 75.9275C83.6514 75.0244 83.9153 74.2782 84.4416 73.6888C84.9678 73.0994 85.6817 72.8048 86.5833 72.8048C86.8354 72.8136 87.0864 72.8429 87.3337 72.8924C87.6417 72.9447 87.9394 73.0452 88.2159 73.1902L87.8552 74.0039C87.5982 73.9287 87.3893 73.8683 87.2276 73.8245C87.0223 73.7758 86.8116 73.7538 86.6007 73.7591C86.0745 73.758 85.6488 73.9372 85.3238 74.2967C84.9988 74.6561 84.8363 75.1975 84.8363 75.9209C84.8368 76.5737 84.97 77.0914 85.2359 77.474C85.5018 77.8566 85.8954 78.0479 86.4167 78.0479C86.583 78.0496 86.7493 78.0394 86.9142 78.0173C87.0543 77.9967 87.177 77.9752 87.2831 77.9512V76.499H86.0278L86.1248 75.6232H88.3088V78.5648Z" fill="#949494"/>
<path fill-rule="evenodd" clip-rule="evenodd" d="M93.9156 76.3253L95.3816 78.8815L94.1635 78.8799L92.8999 76.604C92.8629 76.6073 92.8248 76.6093 92.786 76.6113C92.7569 76.6128 92.7274 76.6143 92.6976 76.6164C92.651 76.6197 92.6041 76.6208 92.5573 76.6212C92.5341 76.6214 92.5109 76.6214 92.4878 76.6214H91.8294V78.8832H90.6968V72.9288H92.5724C93.2224 72.9294 93.7785 73.0782 94.2406 73.3754C94.7027 73.6726 94.9338 74.1335 94.9338 74.7581C94.9425 75.0971 94.8426 75.4299 94.6486 75.7083C94.4602 75.9722 94.2081 76.1844 93.9156 76.3253ZM93.3974 75.4875C93.6185 75.3503 93.729 75.1242 93.729 74.8094L93.7315 74.8111C93.7315 74.4786 93.6262 74.2393 93.4156 74.0932C93.205 73.9471 92.9123 73.8741 92.5375 73.8741H91.8361V75.6935H92.5549C92.8495 75.7048 93.1414 75.6335 93.3974 75.4875Z" fill="#949494"/>
<path fill-rule="evenodd" clip-rule="evenodd" d="M102.516 75.868C102.517 76.7903 102.276 77.5432 101.792 78.1265L101.795 78.124C101.312 78.7079 100.635 78.9998 99.7637 78.9998C98.8323 78.9998 98.1413 78.7007 97.6908 78.1025C97.2403 77.5043 97.015 76.7793 97.015 75.9275C97.0161 75.0112 97.2563 74.2628 97.7355 73.6822C98.2148 73.1017 98.8906 72.8026 99.7629 72.7849C100.697 72.7866 101.389 73.0879 101.84 73.6888C102.29 74.2898 102.516 75.0162 102.516 75.868ZM100.91 77.5153C101.197 77.1603 101.341 76.6117 101.341 75.8696L101.332 75.868C101.332 75.2499 101.206 74.7424 100.954 74.3455C100.702 73.9485 100.31 73.75 99.7778 73.75C99.5539 73.7467 99.3327 73.7984 99.1337 73.9007C98.9347 74.003 98.764 74.1526 98.6369 74.3364C98.3444 74.7278 98.1982 75.256 98.1982 75.9209C98.1982 76.545 98.324 77.0555 98.5755 77.4525C98.827 77.8495 99.2189 78.0479 99.7513 78.0479C99.973 78.0572 100.194 78.0138 100.395 77.9212C100.597 77.8286 100.773 77.6895 100.91 77.5153Z" fill="#949494"/>
<path d="M109.474 77.5898C109.36 77.8671 109.19 78.1177 108.973 78.3258C108.532 78.7575 107.933 78.9734 107.179 78.9734C106.436 78.9734 105.846 78.7575 105.41 78.3258C105.197 78.1166 105.029 77.8658 104.916 77.5891C104.804 77.3125 104.75 77.0157 104.757 76.7173V72.9272H105.906V76.6296C105.907 77.1258 106.027 77.4864 106.266 77.7113C106.52 77.9409 106.854 78.0617 107.196 78.0479C107.583 78.0479 107.893 77.9322 108.131 77.6981C108.369 77.4641 108.486 77.1085 108.486 76.6296V72.9272H109.637V76.7148C109.644 77.0145 109.589 77.3125 109.474 77.5898Z" fill="#949494"/>
<path fill-rule="evenodd" clip-rule="evenodd" d="M116.351 74.8392C116.351 75.5135 116.102 76.0097 115.605 76.3278C115.099 76.6485 114.51 76.8144 113.911 76.805H113.253V78.8849H112.12V72.9305H113.99C114.639 72.9299 115.195 73.0774 115.658 73.3729C116.12 73.6761 116.351 74.1649 116.351 74.8392ZM114.797 75.6339C115.008 75.4773 115.125 75.2337 115.148 74.9029V74.9053C115.149 74.52 115.043 74.2515 114.832 74.0999C114.621 73.9482 114.328 73.8724 113.955 73.8724H113.253V75.8655H113.972C114.312 75.8677 114.587 75.7905 114.797 75.6339Z" fill="#949494"/>
</g>
</svg>
