<svg width="200" height="100" viewBox="0 0 200 100" fill="none" xmlns="http://www.w3.org/2000/svg">
<mask id="mask0_1429_257" style="mask-type:alpha" maskUnits="userSpaceOnUse" x="0" y="0" width="200" height="100">
<rect width="200" height="100" fill="#222222"/>
</mask>
<g mask="url(#mask0_1429_257)">
<path d="M98.7081 36.7648C99.0169 36.4612 99.1904 36.0494 99.1906 35.6199C99.1906 35.4072 99.1481 35.1966 99.0653 35.0001C98.9826 34.8035 98.8613 34.6249 98.7084 34.4745C98.5555 34.3241 98.3739 34.2047 98.1741 34.1233C97.9743 34.0419 97.7601 34 97.5438 34C97.1071 34 96.6882 34.1706 96.3794 34.4743C96.0706 34.778 95.897 35.1899 95.897 35.6195C95.897 35.8321 95.9395 36.0428 96.0223 36.2393C96.105 36.4358 96.2263 36.6143 96.3792 36.7647C96.5322 36.9151 96.7137 37.0344 96.9136 37.1158C97.1133 37.1971 97.3275 37.239 97.5438 37.2389C97.9805 37.2389 98.3993 37.0684 98.7081 36.7648Z" fill="#949494"/>
<path d="M142.77 56.4046V59.135H124.342V40.9324H142.506V43.6628H127.489V48.5265H140.126V51.2564H127.489V56.4046H142.77Z" fill="#949494"/>
<path d="M113.634 43.6633H122.068V40.9329H102.081V43.6633H110.462V59.1336H113.634V43.6633Z" fill="#949494"/>
<path fill-rule="evenodd" clip-rule="evenodd" d="M159.612 59.1336H161.801C162.321 59.1336 162.836 59.0328 163.317 58.837C163.797 58.6412 164.234 58.3542 164.602 57.9924C164.97 57.6306 165.262 57.201 165.461 56.7283C165.66 56.2556 165.762 55.749 165.762 55.2374V44.7906C165.762 43.7574 165.345 42.7665 164.602 42.0359C163.859 41.3053 162.851 40.8948 161.801 40.8948H147.889C146.839 40.8948 145.831 41.3053 145.088 42.0359C144.345 42.7665 143.928 43.7574 143.928 44.7906V55.2374C143.928 55.749 144.03 56.2556 144.229 56.7283C144.428 57.201 144.72 57.6306 145.088 57.9924C145.456 58.3542 145.892 58.6412 146.373 58.837C146.854 59.0328 147.369 59.1336 147.889 59.1336H156.537L159.058 64.0796H162.133L159.612 59.1336ZM156.229 52.4959H153.153L155.089 56.2934H147.889C147.646 56.2931 147.412 56.1978 147.24 56.0283C147.068 55.8589 146.971 55.6291 146.971 55.3895V44.5628C146.971 44.3233 147.068 44.0936 147.24 43.9242C147.412 43.7548 147.646 43.6595 147.889 43.6594H161.801C162.044 43.6595 162.278 43.7548 162.45 43.9241C162.623 44.0935 162.72 44.3232 162.72 44.5628V55.3895C162.72 55.6292 162.623 55.8589 162.45 56.0284C162.278 56.1978 162.044 56.2931 161.801 56.2934H158.164L156.229 52.4959Z" fill="#949494"/>
<path d="M98.4448 39.8566C98.4448 40.1769 98.3482 40.49 98.1673 40.7563C97.9864 41.0227 97.7291 41.2302 97.4283 41.3528C97.1274 41.4754 96.7962 41.5074 96.4768 41.445C96.1574 41.3825 95.864 41.2282 95.6336 41.0017C95.4033 40.7753 95.2465 40.4867 95.1829 40.1726C95.1194 39.8584 95.152 39.5328 95.2766 39.2369C95.4013 38.941 95.6124 38.6881 95.8832 38.5101C96.154 38.3321 96.4724 38.2372 96.7981 38.2372C97.2348 38.2372 97.6537 38.4078 97.9625 38.7115C98.2713 39.0152 98.4448 39.4271 98.4448 39.8566Z" fill="#949494"/>
<path d="M98.5664 44.7893C98.7473 44.523 98.8439 44.2099 98.8439 43.8896C98.8439 43.4601 98.6704 43.0482 98.3615 42.7445C98.0527 42.4408 97.6339 42.2701 97.1971 42.2701C96.8714 42.2701 96.553 42.3651 96.2822 42.5431C96.0114 42.721 95.8003 42.9739 95.6757 43.2699C95.5511 43.5658 95.5185 43.8914 95.582 44.2055C95.6455 44.5197 95.8024 44.8082 96.0327 45.0347C96.263 45.2612 96.5564 45.4154 96.8758 45.4779C97.1953 45.5404 97.5264 45.5084 97.8273 45.3858C98.1282 45.2632 98.3854 45.0556 98.5664 44.7893Z" fill="#949494"/>
<path d="M99.4805 48.1263C99.4805 48.4466 99.3839 48.7597 99.203 49.026C99.022 49.2923 98.7648 49.4999 98.4639 49.6225C98.163 49.7451 97.8319 49.7771 97.5124 49.7146C97.193 49.6521 96.8996 49.4979 96.6693 49.2714C96.439 49.0449 96.2821 48.7564 96.2186 48.4422C96.1551 48.1281 96.1877 47.8025 96.3123 47.5066C96.437 47.2106 96.648 46.9577 96.9188 46.7798C97.1897 46.6018 97.508 46.5068 97.8337 46.5068C98.2705 46.5068 98.6893 46.6775 98.9981 46.9812C99.307 47.2849 99.4805 47.6968 99.4805 48.1263Z" fill="#949494"/>
<path d="M100.047 53.0994C100.228 52.8331 100.325 52.52 100.325 52.1997C100.325 51.987 100.282 51.7764 100.199 51.5799C100.116 51.3834 99.9951 51.2048 99.8422 51.0544C99.6892 50.9041 99.5076 50.7848 99.3077 50.7034C99.1079 50.6221 98.8937 50.5802 98.6774 50.5803C98.3517 50.5804 98.0334 50.6754 97.7626 50.8534C97.4919 51.0315 97.2809 51.2844 97.1563 51.5803C97.0318 51.8763 96.9992 52.2019 97.0628 52.516C97.1264 52.8301 97.2833 53.1186 97.5136 53.345C97.7439 53.5715 98.0374 53.7257 98.3568 53.7881C98.6762 53.8505 99.0073 53.8184 99.3082 53.6959C99.6091 53.5733 99.8662 53.3657 100.047 53.0994Z" fill="#949494"/>
<path d="M101.738 56.0699C101.738 56.3902 101.642 56.7033 101.461 56.9695C101.28 57.2358 101.022 57.4433 100.721 57.5658C100.42 57.6883 100.089 57.7203 99.77 57.6578C99.4506 57.5952 99.1572 57.4409 98.9269 57.2144C98.6967 56.9879 98.5399 56.6994 98.4764 56.3852C98.4129 56.0711 98.4455 55.7455 98.5702 55.4496C98.6948 55.1537 98.9059 54.9008 99.1767 54.7229C99.4475 54.545 99.7659 54.45 100.092 54.45C100.308 54.45 100.522 54.4919 100.722 54.5733C100.922 54.6547 101.103 54.7741 101.256 54.9245C101.409 55.0749 101.53 55.2535 101.613 55.4501C101.696 55.6466 101.738 55.8572 101.738 56.0699Z" fill="#949494"/>
<path d="M102.497 61.1243C102.677 60.8581 102.774 60.545 102.774 60.2248C102.774 60.012 102.731 59.8013 102.649 59.6047C102.566 59.4081 102.444 59.2295 102.291 59.0791C102.138 58.9287 101.956 58.8095 101.756 58.7282C101.556 58.6469 101.342 58.6051 101.126 58.6053C100.8 58.6056 100.482 58.7008 100.211 58.8789C99.9407 59.0571 99.7298 59.3101 99.6054 59.606C99.481 59.902 99.4486 60.2275 99.5123 60.5416C99.576 60.8556 99.733 61.1441 99.9633 61.3704C100.194 61.5968 100.487 61.7508 100.807 61.8132C101.126 61.8756 101.457 61.8434 101.758 61.7208C102.059 61.5982 102.316 61.3906 102.497 61.1243Z" fill="#949494"/>
<path d="M102.774 64.3801C102.774 64.7003 102.678 65.0134 102.497 65.2798C102.316 65.5461 102.059 65.7537 101.758 65.8765C101.457 65.9991 101.126 66.0314 100.807 65.9691C100.487 65.9067 100.194 65.7527 99.9635 65.5264C99.7331 65.3 99.5761 65.0116 99.5124 64.6975C99.4486 64.3835 99.481 64.0579 99.6054 63.7619C99.7298 63.4659 99.9406 63.2129 100.211 63.0347C100.482 62.8566 100.8 62.7614 101.126 62.7611C101.342 62.7609 101.556 62.8026 101.756 62.8839C101.956 62.9652 102.138 63.0844 102.291 63.2347C102.444 63.3851 102.565 63.5636 102.648 63.7601C102.731 63.9566 102.774 64.1673 102.774 64.3801Z" fill="#949494"/>
<path d="M167.589 44.6793V41.5493H166.443V41.1303H169.199V41.5493H168.049V44.6818L167.589 44.6793Z" fill="#949494"/>
<path d="M169.68 41.1279V44.6794H170.125V41.6557L171.13 44.6794H171.546L172.556 41.7067V44.6803H173V41.1289H172.381L171.549 43.5997L171.528 43.6607C171.513 43.7085 171.497 43.7539 171.483 43.7969C171.469 43.8406 171.456 43.8818 171.443 43.9205C171.411 44.0199 171.384 44.1029 171.364 44.1694C171.329 44.0529 171.274 43.8776 171.198 43.6435L170.372 41.1279H169.68Z" fill="#949494"/>
<path fill-rule="evenodd" clip-rule="evenodd" d="M60.2075 55.4415H49.6844L47.6224 59.1336H44.2119L53.2806 43.3252H56.6912L65.7065 59.1336H62.2695L60.2075 55.4415ZM58.8325 52.9972L54.946 46.0551L51.0595 52.9972H58.8325Z" fill="#949494"/>
<path d="M67.1348 43.3252V59.1336H70.2545V43.3252H67.1348Z" fill="#949494"/>
<path d="M92.0933 43.3252V59.1336H89.3433L76.4954 47.0953V59.1341H73.48V43.3252H76.8097L89.0515 54.8434V43.3252H92.0933Z" fill="#949494"/>
<path fill-rule="evenodd" clip-rule="evenodd" d="M27.0979 40.955H42.88C43.9306 40.955 44.9382 41.3655 45.6812 42.0961C46.4241 42.8267 46.8414 43.8176 46.8414 44.8508V49.0836C46.8414 50.1168 46.4241 51.1077 45.6812 51.8383C44.9382 52.5689 43.9306 52.9794 42.88 52.9794H30.1726V59.1355H27V40.9329L27.0979 40.955ZM43.5294 49.8722C43.7017 49.7027 43.7985 49.473 43.7986 49.2334V44.623C43.7984 44.3835 43.7015 44.1539 43.5293 43.9845C43.357 43.8151 43.1235 43.7199 42.88 43.7196H30.1726V50.1372H42.88C43.1236 50.137 43.3572 50.0417 43.5294 49.8722Z" fill="#949494"/>
</g>
</svg>
