<svg width="200" height="100" viewBox="0 0 200 100" fill="none" xmlns="http://www.w3.org/2000/svg">
<mask id="mask0_2935_262" style="mask-type:alpha" maskUnits="userSpaceOnUse" x="0" y="0" width="200" height="100">
<rect width="200" height="100" fill="#222222"/>
</mask>
<g mask="url(#mask0_2935_262)">
<path fill-rule="evenodd" clip-rule="evenodd" d="M131.743 32.2396C131.39 32.1725 131.035 32.1217 130.679 32.0708C130.594 32.0588 130.51 32.0467 130.425 32.0344C130.348 32.0232 130.271 32.0118 130.194 32H129.785C129.695 32.0141 129.605 32.0279 129.515 32.0414L129.318 32.0708C128.974 32.1219 128.63 32.1731 128.286 32.2378C125.213 32.82 122.836 34.3934 121.35 37.1272C120.218 39.2116 120.211 41.4737 120.549 43.7462C120.795 45.4033 121.433 46.9184 122.507 48.2177C125.023 51.2632 128.346 52.197 132.157 51.5539C134.825 51.106 136.869 49.6339 138.347 47.3999C139.418 45.7809 139.891 43.9858 139.976 42.0797C140.053 40.398 139.844 38.7516 139.014 37.2562C137.437 34.4149 134.923 32.8469 131.743 32.2396ZM135.153 48.0623C133.564 49.4364 131.676 49.9613 129.573 49.7942C127.365 49.6191 125.553 48.7193 124.205 46.9807C123.175 45.6519 122.68 44.1273 122.573 42.4626C122.498 41.3009 122.542 40.153 122.891 39.0391C123.758 36.2762 125.707 34.6187 128.546 34.1283C131.749 33.5752 134.468 34.5434 136.473 37.1478C137.5 38.4824 137.852 40.0356 137.832 41.2704C137.839 44.1744 137.104 46.3792 135.153 48.0623Z" fill="#949494"/>
<path d="M77.023 58.8174C77.023 58.6194 77.0194 58.3991 76.9322 58.2316C76.8618 58.0972 76.6665 57.949 76.5234 57.9445C76.3804 57.94 76.1742 58.0726 76.0901 58.2034C75.9993 58.3449 75.9934 58.554 75.9916 58.7341C75.9904 58.8752 75.9891 59.0163 75.9878 59.1574C75.9799 60.0224 75.972 60.8878 75.997 61.7518C76.0088 62.1656 75.8535 62.2615 75.4661 62.2574C73.8987 62.2413 72.3321 62.2368 70.7634 62.2574C70.3246 62.2637 70.202 62.0998 70.2083 61.7003C70.2243 60.6944 70.2324 59.6876 70.1988 58.6826C70.1929 58.5119 70.1055 58.343 70.0186 58.1749C69.9791 58.0986 69.9397 58.0224 69.9081 57.9463L69.1909 58.2867V66.9511C69.2066 66.9693 69.2222 66.9885 69.2379 67.0081L69.2559 67.0308L69.2802 67.0618C69.4446 67.272 69.6231 67.5 69.9081 67.3175C70.0898 67.201 70.1911 66.853 70.1993 66.6053C70.2315 65.6003 70.2238 64.5935 70.2093 63.5876C70.2038 63.2002 70.3419 63.0699 70.7461 63.0753C71.8245 63.0899 72.9028 63.0881 73.9812 63.0864H73.9831C74.4888 63.0855 74.9945 63.0847 75.5001 63.0856C75.6 63.0856 75.6996 63.0963 75.8053 63.1077C75.8554 63.113 75.9068 63.1186 75.9602 63.1232C75.9637 63.1852 75.9678 63.2431 75.9717 63.2982V63.2991C75.9794 63.4074 75.9863 63.505 75.9866 63.6028C75.9866 64.6258 75.9866 65.6487 75.9902 66.6716C75.9902 67.008 76.0615 67.3542 76.4826 67.3658C76.9368 67.3784 77.0053 67.0201 77.0276 66.6645C77.0303 66.6199 77.0294 66.575 77.0285 66.5302L77.0284 66.525C77.028 66.5044 77.0276 66.4838 77.0276 66.4634C77.0267 63.9147 77.0252 61.366 77.023 58.8174Z" fill="#949494"/>
<path d="M99.6518 42.8424C98.6759 42.8427 97.7 42.843 96.7241 42.8438C96.6412 42.8519 96.5587 42.8645 96.477 42.8814V43.4963C96.4804 45.6434 96.4793 47.7918 96.4739 49.9415C96.4718 50.1754 96.4464 50.4086 96.398 50.6375C96.2758 51.2314 95.9566 51.4661 95.3583 51.4262C94.7838 51.3877 94.4128 51.0352 94.4045 50.4557C94.3906 49.4735 94.3916 48.4912 94.3927 47.5088C94.3929 47.249 94.3932 46.9892 94.3932 46.7294C94.3905 42.3487 94.3905 37.9678 94.3932 33.5868C94.3937 32.8675 94.6312 32.5276 95.1762 32.4196C95.9147 32.2741 96.4598 32.7681 96.4721 33.6356C96.4842 34.4605 96.4815 35.2855 96.4789 36.1105C96.4777 36.4605 96.4766 36.8104 96.4766 37.1603V40.9887C96.5549 40.997 96.6301 41.007 96.7032 41.0168L96.7036 41.0168C96.8547 41.037 96.9969 41.0559 97.1393 41.0559C100.498 41.0583 103.859 41.0583 107.22 41.0559C107.888 41.0554 107.901 41.0393 107.901 40.3764C107.901 40.1064 107.902 39.8363 107.902 39.5661C107.903 39.2167 107.904 38.8672 107.906 38.5177V38.5174C107.911 36.8384 107.917 35.1587 107.891 33.4793C107.879 32.683 108.614 32.2217 109.306 32.4456C109.779 32.5966 109.968 32.9548 109.987 33.4085C110 33.7062 109.998 34.0045 109.995 34.3028V34.3051C109.994 34.4258 109.993 34.5464 109.993 34.667C109.996 39.8369 109.996 45.0067 109.993 50.1762C109.993 51.0581 109.605 51.4724 108.842 51.4276C108.279 51.3958 107.924 51.0375 107.916 50.4378C107.903 49.4623 107.904 48.4868 107.905 47.5113L107.905 47.2907C107.905 47.1305 107.905 46.9703 107.905 46.8101L107.905 46.6385C107.902 45.5375 107.899 44.4365 107.905 43.3355C107.906 43.0332 107.87 42.8321 107.47 42.8321C104.864 42.8406 102.258 42.8415 99.6518 42.8424Z" fill="#949494"/>
<path fill-rule="evenodd" clip-rule="evenodd" d="M81.9715 33.7852C80.4332 32.6579 78.645 32.382 76.8032 32.352C75.2729 32.326 73.7419 32.3329 72.2113 32.3397C71.7132 32.342 71.2151 32.3442 70.7171 32.3453C69.6724 32.3453 69.3059 32.7103 69.305 33.7337C69.3023 36.4684 69.3023 39.2031 69.305 41.9377V49.8901C69.305 50.075 69.3018 50.2595 69.309 50.4441C69.3368 51.1607 69.686 51.4701 70.4137 51.4294C71.0377 51.3949 71.3361 51.0751 71.3456 50.3545C71.3573 49.4933 71.3557 48.6321 71.354 47.7709C71.3533 47.3906 71.3525 47.0103 71.3529 46.63C71.3529 46.2147 71.3529 46.0095 71.457 45.9063C71.5587 45.8055 71.7597 45.802 72.1572 45.7953L72.1887 45.7948C72.8222 45.7841 73.4565 45.7818 74.0909 45.7795H74.093C75.6738 45.7738 77.2549 45.768 78.8244 45.6335C80.8873 45.4544 82.6296 44.5103 83.7873 42.7322C84.5681 41.5279 84.807 40.1888 84.7126 38.7843C84.5731 36.7093 83.6779 35.0339 81.9715 33.7852ZM78.62 43.7905C77.4381 43.9455 76.2369 43.9572 75.036 43.969C74.5325 43.9739 74.0291 43.9789 73.5272 43.9943C73.2916 44.0015 73.0557 43.9984 72.8198 43.9952C72.5271 43.9913 72.2344 43.9874 71.9429 44.0033C71.4982 44.027 71.3402 43.8645 71.3456 43.4264C71.3588 42.3729 71.3565 41.3193 71.3542 40.2657C71.3533 39.8606 71.3525 39.4554 71.3525 39.0503C71.3525 38.6561 71.3534 38.262 71.3543 37.8678C71.3567 36.8368 71.359 35.8059 71.3452 34.775C71.3393 34.3191 71.4987 34.1704 71.9684 34.1775C72.7469 34.1891 73.5256 34.1861 74.3043 34.183H74.3074C75.2144 34.1795 76.1214 34.176 77.0281 34.1955C79.2318 34.2429 81.0599 35.024 82.1228 37.0385C83.6779 39.9814 81.9642 43.3521 78.62 43.7905Z" fill="#949494"/>
<path d="M166.258 51.1674C165.976 51.4715 165.381 51.5369 164.982 51.2869C164.755 51.1404 164.551 50.9627 164.376 50.7594C162.284 48.3683 160.193 45.9773 158.102 43.5863C158.069 43.5486 158.034 43.5119 157.998 43.4742C157.983 43.4585 157.967 43.4427 157.951 43.4266L157.92 43.3948L157.887 43.3615L157.885 43.3598C157.844 43.3181 157.799 43.2734 157.751 43.2235C157.72 43.2557 157.69 43.2873 157.659 43.3186C157.628 43.3507 157.598 43.3825 157.567 43.414C157.409 43.5776 157.258 43.7329 157.115 43.8953C155.144 46.1227 153.172 48.3497 151.2 50.5762C151.036 50.7692 150.861 50.9533 150.676 51.1275C150.247 51.5167 149.613 51.5355 149.238 51.2032C148.864 50.8709 148.808 50.2945 149.188 49.8408C149.798 49.1127 150.432 48.4029 151.066 47.6938C151.232 47.5082 151.397 47.3228 151.562 47.137C153.061 45.4393 154.568 43.7489 156.084 42.0658C156.323 41.7971 156.336 41.6269 156.088 41.3492C154.062 39.0585 152.037 36.7658 150.015 34.4709L149.968 34.4172C149.838 34.2704 149.709 34.1234 149.588 33.9697C149.246 33.5348 149.264 33.0529 149.627 32.7032C150.027 32.318 150.611 32.2575 151.005 32.6369C151.402 33.0188 151.764 33.4381 152.124 33.8566C152.194 33.9373 152.263 34.0179 152.333 34.0982C154.003 36.0271 155.674 37.9553 157.345 39.8829C157.424 39.9746 157.509 40.0616 157.606 40.1613L157.607 40.1619C157.655 40.2116 157.707 40.2644 157.763 40.3227C157.928 40.1327 158.091 39.9467 158.251 39.7633C158.592 39.3739 158.922 38.9963 159.25 38.6172C160.883 36.7233 162.519 34.8323 164.159 32.9441C164.689 32.3341 165.13 32.2262 165.663 32.5455C166.287 32.9186 166.35 33.5048 165.805 34.1184C164.345 35.7594 162.884 37.3992 161.422 39.0378C161.221 39.2632 161.021 39.4895 160.821 39.7157C160.338 40.262 159.856 40.8082 159.36 41.3434C159.118 41.6054 159.101 41.7814 159.35 42.06C161.534 44.5047 163.714 46.9531 165.891 49.405C166.051 49.579 166.195 49.7661 166.322 49.9644C166.576 50.3728 166.608 50.7898 166.258 51.1674Z" fill="#949494"/>
<path d="M94.698 66.5019L94.5431 66.5009H94.5419C92.9057 66.49 91.2695 66.4791 89.6342 66.5082C89.125 66.5171 88.9893 66.3465 89.0115 65.8744C89.0455 65.1377 89.0424 64.3965 89.0115 63.6606C88.9933 63.2128 89.1673 63.0829 89.606 63.0882C90.8121 63.1029 92.0185 63.1002 93.225 63.0975L93.2415 63.0975C93.6496 63.0966 94.0578 63.0956 94.4659 63.0954C94.5078 63.0954 94.5512 63.098 94.5946 63.1006C94.7102 63.1074 94.8267 63.1144 94.9201 63.073C95.0486 63.0161 95.2149 62.8733 95.2335 62.7497C95.2521 62.6261 95.1486 62.4218 95.0345 62.3466C94.911 62.2597 94.7148 62.2597 94.5481 62.2597C94.2645 62.2588 93.981 62.2576 93.6974 62.2565C92.3271 62.2509 90.9567 62.2453 89.5865 62.2664C89.1255 62.2736 88.996 62.1222 89.0124 61.6896C89.0415 60.9188 89.0451 60.1449 89.0124 59.3745C88.9915 58.9002 89.1328 58.7336 89.6387 58.7421C90.8758 58.7623 92.1136 58.7592 93.3514 58.756C93.5899 58.7554 93.8284 58.7548 94.0669 58.7544L94.4967 58.7538C94.6336 58.7537 94.7705 58.7537 94.9073 58.7538C95.2326 58.7538 95.5601 58.735 95.5587 58.3091C95.5574 57.9124 95.2674 57.9147 94.9902 57.9169L94.9568 57.9171L94.9292 57.9172H88.8934C88.2643 57.9172 88.0663 58.112 88.0645 58.7233C88.0618 59.5958 88.0627 60.4682 88.0636 61.3407L88.0637 61.4413C88.0639 61.6298 88.0641 61.8183 88.0642 62.0067C88.0644 62.2209 88.0645 62.4351 88.0645 62.6493V66.4249C88.0645 67.1889 88.2843 67.4102 89.0614 67.4102C90.9373 67.4129 92.8126 67.4155 94.688 67.407C94.741 67.407 94.7973 67.4096 94.8548 67.4122C95.1966 67.4277 95.5796 67.445 95.5687 66.9381C95.5562 66.4752 95.1826 66.4877 94.8541 66.4987C94.8251 66.4997 94.7965 66.5006 94.7685 66.5013L94.7426 66.5017L94.7218 66.5019C94.7138 66.502 94.7058 66.502 94.698 66.5019Z" fill="#949494"/>
<path d="M166.903 58.211C166.992 58.3547 166.997 58.5643 166.997 58.7435C166.999 61.3453 167 63.9467 167 66.5476V66.6985C166.984 67.0469 166.885 67.3703 166.473 67.3703C166.05 67.3685 165.969 67.0214 165.966 66.686C165.959 65.9666 165.96 65.2471 165.961 64.5274L165.961 64.1204C165.962 64.0021 165.962 63.8837 165.962 63.7654V63.0847H162.771C162.568 63.0847 162.366 63.0867 162.164 63.0888L162.161 63.0888C161.682 63.0936 161.203 63.0985 160.724 63.0762C160.316 63.0573 160.183 63.2042 160.188 63.589C160.2 64.3242 160.197 65.0594 160.193 65.7947C160.193 66.0161 160.192 66.2375 160.191 66.4589C160.191 66.501 160.193 66.5442 160.195 66.5877C160.201 66.7178 160.207 66.8497 160.158 66.9565C160.088 67.1159 159.934 67.3287 159.795 67.3452C159.642 67.3627 159.399 67.2203 159.317 67.0787C159.215 66.9059 159.212 66.6613 159.212 66.4481C159.209 63.9132 159.208 61.3786 159.208 58.8443C159.209 58.1796 159.372 57.8831 159.736 57.9311C160.225 57.9951 160.209 58.3362 160.195 58.6571C160.192 58.7198 160.189 58.7817 160.19 58.8407C160.206 59.7985 160.206 60.7552 160.19 61.7106C160.183 62.1173 160.324 62.266 160.753 62.2601C162.305 62.2369 163.857 62.2328 165.409 62.2601C165.877 62.2673 165.984 62.1047 165.972 61.6779C165.948 60.8433 165.955 60.0078 165.963 59.1723C165.965 59.034 165.966 58.8957 165.967 58.7574C165.967 58.5764 165.971 58.3695 166.058 58.2231C166.138 58.0883 166.33 57.9423 166.476 57.9423C166.622 57.9423 166.821 58.0766 166.903 58.211Z" fill="#949494"/>
<path fill-rule="evenodd" clip-rule="evenodd" d="M110.995 58.3108C110.885 58.1012 110.621 57.8213 110.443 57.8312C110.226 57.8437 109.944 58.0856 109.829 58.3005C108.624 60.5937 107.438 62.8961 106.252 65.1978C106.036 65.6158 105.821 66.0338 105.605 66.4517C105.585 66.492 105.566 66.5328 105.546 66.5762C105.528 66.6182 105.509 66.6627 105.488 66.7115L105.475 66.7408C105.449 66.8024 105.42 66.871 105.386 66.9502C105.421 66.9869 105.457 67.0336 105.493 67.0812C105.577 67.1909 105.664 67.3047 105.758 67.3085C105.955 67.3192 106.254 67.2265 106.348 67.0787C106.695 66.5238 106.992 65.9358 107.278 65.3468C107.424 65.0472 107.627 64.9339 107.959 64.9357C109.597 64.9446 111.234 64.9469 112.872 64.9357C113.23 64.933 113.43 65.07 113.576 65.3858C113.731 65.7247 113.905 66.0549 114.079 66.3853L114.081 66.3882C114.173 66.563 114.265 66.7378 114.354 66.9139C114.524 67.2471 114.758 67.4935 115.159 67.3103C115.574 67.1207 115.418 66.8253 115.271 66.5451L115.25 66.5041C115.018 66.0576 114.786 65.6109 114.555 65.1641C114.329 64.7272 114.102 64.2901 113.876 63.8531L113.875 63.8515C112.918 62.003 111.962 60.1545 110.995 58.3108ZM107.907 64.1049L110.414 59.1784L112.915 64.1049H107.907Z" fill="#949494"/>
<path d="M148.504 57.9154C148.822 57.9154 149.166 57.9154 149.185 58.3301C149.204 58.7811 148.825 58.8223 148.503 58.8295L148.465 58.8304C147.589 58.8507 146.715 58.8709 145.843 58.8268C145.303 58.7995 145.191 58.9925 145.197 59.4852C145.217 61.3186 145.216 63.1526 145.214 64.9865C145.214 65.4691 145.213 65.9517 145.213 66.4343C145.213 66.4479 145.214 66.4617 145.214 66.4758L145.215 66.4945C145.216 66.5081 145.217 66.5218 145.218 66.5356C145.219 66.552 145.221 66.5684 145.222 66.5849C145.233 66.7117 145.244 66.8396 145.191 66.9296C145.086 67.107 144.885 67.3398 144.722 67.3421C144.567 67.3439 144.374 67.1016 144.264 66.9265C144.215 66.8488 144.226 66.7341 144.236 66.6203C144.241 66.5727 144.245 66.5253 144.245 66.4808C144.245 65.9025 144.244 65.3239 144.243 64.7451V64.7445C144.241 62.9738 144.239 61.2014 144.253 59.4305C144.257 58.98 144.137 58.8062 143.652 58.829C143.037 58.8573 142.42 58.8501 141.803 58.8429H141.801C141.6 58.8406 141.398 58.8382 141.196 58.8371C141.166 58.8369 141.135 58.8373 141.103 58.8378H141.102C140.957 58.84 140.804 58.8423 140.697 58.7784C140.581 58.7099 140.493 58.5981 140.404 58.4861L140.404 58.4858C140.364 58.4361 140.325 58.3864 140.283 58.3404C140.335 58.2965 140.385 58.2433 140.435 58.19C140.545 58.0743 140.654 57.9585 140.779 57.9373C141.051 57.8915 141.334 57.9 141.617 57.9086C141.667 57.9101 141.717 57.9116 141.767 57.9128C141.829 57.9143 141.891 57.9154 141.952 57.9154H148.504Z" fill="#949494"/>
<path d="M132.163 66.5014C131.035 66.4939 129.907 66.495 128.779 66.4961C128.372 66.4966 127.965 66.497 127.558 66.497C126.78 66.497 126.779 66.497 126.779 65.749V58.5997C126.779 58.2477 126.728 57.9405 126.288 57.9279C125.827 57.9154 125.793 58.2522 125.793 58.5872C125.79 59.9469 125.79 61.3063 125.793 62.6655C125.793 63.1018 125.792 63.5382 125.792 63.9746C125.791 64.8473 125.79 65.7201 125.793 66.5928C125.796 67.3125 125.898 67.412 126.62 67.4129C128.462 67.4149 130.304 67.4149 132.146 67.4129C132.18 67.4129 132.216 67.4133 132.252 67.4137C132.624 67.4183 133.066 67.4238 133.076 66.965C133.086 66.4911 132.646 66.4963 132.283 66.5007C132.242 66.5012 132.201 66.5017 132.163 66.5014Z" fill="#949494"/>
<path fill-rule="evenodd" clip-rule="evenodd" d="M56.8751 32.7421C57.9511 32.0031 59.2841 31.9171 60.44 32.5124C61.6527 33.1371 62.4067 34.3916 62.4067 35.7863V56.9413C62.4067 58.1899 61.7981 59.3391 60.7789 60.0163L49.6321 67.4178C49.0623 67.7972 48.3906 67.9999 47.7031 68C47.0156 67.9999 46.3439 67.7972 45.7742 67.4178L34.6274 60.0163C33.6081 59.3391 33 58.1899 33 56.9413V35.7616C33 34.3733 33.7512 33.1192 34.9607 32.4922C36.1135 31.8956 37.4443 31.978 38.5207 32.7117L46.639 38.2415C46.9662 38.4671 47.356 38.5878 47.7553 38.5871C48.1546 38.5864 48.544 38.4643 48.8704 38.2374L56.8751 32.7421ZM60.7021 46.8961C60.4133 45.2972 58.6319 40.6393 47.7576 40.6393C36.9356 40.6393 35.0448 45.3258 34.7159 46.909C39.6871 48.6065 43.6181 52.5213 46.1075 58.2687C46.7258 59.7033 47.2372 61.1804 47.6377 62.6883C47.9975 61.1839 48.4758 59.7095 49.0684 58.2786C51.4729 52.511 55.4871 48.5881 60.7021 46.8961ZM35.6566 33.8C34.9308 34.1753 34.4975 34.9089 34.4975 35.763L34.4984 43.8716C34.6784 43.6256 34.8724 43.3898 35.0793 43.1653C37.2004 40.8637 40.6881 39.5461 45.4626 39.2353L37.6682 33.9263C37.3447 33.6999 36.9585 33.5767 36.5618 33.5734C36.2458 33.5751 35.9351 33.6529 35.6566 33.8ZM34.4975 48.4004V56.9413C34.4975 57.6977 34.859 58.3892 35.464 58.7914L46.157 65.8914L46.7021 65.3213C46.4127 63.7887 45.83 61.3698 44.7168 58.812C42.4086 53.5097 38.9731 50.0128 34.4975 48.4004ZM59.9422 58.7914C60.5454 58.3892 60.9088 57.6977 60.9088 56.9413V48.387C56.192 49.9953 52.6774 53.5066 50.4555 58.8398C49.3913 61.3944 48.8831 63.7981 48.6465 65.3168L49.2269 65.9067L59.9422 58.7914ZM60.1021 42.8715C60.3947 43.1635 60.6644 43.477 60.9088 43.8094V35.7849C60.9088 34.9295 60.4732 34.195 59.7465 33.8201C59.0847 33.4811 58.3499 33.529 57.7303 33.9545L50.0363 39.2362C54.5973 39.5327 57.9797 40.7504 60.1021 42.8715Z" fill="#949494"/>
</g>
</svg>
