<svg width="200" height="100" viewBox="0 0 200 100" fill="none" xmlns="http://www.w3.org/2000/svg">
<mask id="mask0_2935_265" style="mask-type:alpha" maskUnits="userSpaceOnUse" x="0" y="0" width="200" height="100">
<rect width="200" height="100" fill="#222222"/>
</mask>
<g mask="url(#mask0_2935_265)">
<path d="M56.3398 37.8879C56.4094 35.276 57.1554 34.091 58.5303 31.9073C58.6028 31.7922 58.677 31.6743 58.7529 31.5534C58.8528 31.3941 58.9558 31.2295 59.0617 31.0586C58.0924 32.2628 56.3012 33.9087 54.8949 34.7407C53.5985 33.6327 52.8396 31.5079 52.5292 30C52.2375 31.4998 51.4719 33.6261 50.1635 34.7407C48.7129 33.8845 47.0107 32.3232 45.994 31.0586C46.1815 31.3614 46.3595 31.6447 46.5281 31.9129C47.899 34.094 48.6438 35.279 48.7134 37.8879C48.7134 37.9094 48.7134 37.9308 48.7137 37.952C48.7139 37.9675 48.7143 37.9828 48.7149 37.9979C48.7154 38.0106 48.7161 38.0231 48.7171 38.0355V38.1256L49.1004 38.05L49.1762 38.0359L49.2598 38.0203C49.3259 38.0072 49.3926 37.9962 49.4567 37.9825C49.5822 37.9599 49.703 37.9387 49.8213 37.9186C50.0978 37.8728 50.3557 37.8319 50.6026 37.8008L50.6296 37.7957C50.666 37.7928 50.7004 37.7879 50.7352 37.7831L50.7385 37.7826C50.7744 37.7776 50.8098 37.7746 50.8427 37.7695C50.8645 37.766 50.8869 37.7645 50.9073 37.7615L51.0057 37.7514C51.2349 37.7265 51.4555 37.7086 51.6677 37.6975C51.7338 37.6925 51.8 37.6889 51.8661 37.6874C52.0901 37.6809 52.3073 37.6789 52.5261 37.6824C52.7448 37.6859 52.962 37.6824 53.1844 37.6874H53.1881C53.2029 37.6874 53.2177 37.6877 53.2326 37.6882C53.2513 37.6888 53.2701 37.6897 53.289 37.6908C53.3204 37.6927 53.3522 37.6951 53.385 37.6975C53.5969 37.7086 53.8157 37.7267 54.0464 37.7514L54.1449 37.7615C54.1534 37.7627 54.1624 37.7637 54.1715 37.7647L54.1737 37.765C54.1855 37.7663 54.1976 37.7676 54.2095 37.7695C54.2433 37.7746 54.2808 37.7776 54.3162 37.7826C54.3324 37.7849 54.3486 37.7872 54.365 37.7893C54.3847 37.7918 54.4047 37.7941 54.4251 37.7957L54.4522 37.8008C54.6965 37.8319 54.9543 37.8728 55.2309 37.9186C55.348 37.9387 55.4704 37.9599 55.5954 37.9825C55.6312 37.9901 55.6675 37.9968 55.7039 38.0036L55.7104 38.0048L55.7398 38.0103C55.7573 38.0135 55.7748 38.0168 55.7923 38.0203C55.825 38.0267 55.8576 38.0329 55.8911 38.0391C55.9109 38.0428 55.9311 38.0465 55.9517 38.05C56.0757 38.0747 56.2048 38.1004 56.3351 38.1256V37.8879H56.3398Z" fill="#949494"/>
<path d="M141.493 31.0946L141.47 31.1228L141.51 31.0586L141.522 31.0596L141.493 31.0946Z" fill="#949494"/>
<path d="M141.47 31.1228C140.491 32.3208 138.737 33.9241 137.352 34.7417C136.056 33.6337 135.297 31.5089 134.987 30.001C134.695 31.5008 133.93 33.6271 132.621 34.7417C131.17 33.8855 129.47 32.3242 128.454 31.0596C128.642 31.363 128.821 31.6467 128.99 31.9153L128.992 31.9185C130.361 34.0957 131.106 35.281 131.175 37.8879V38.1256L131.561 38.05L131.717 38.0203C131.783 38.0072 131.849 37.9962 131.914 37.9825C132.04 37.9599 132.162 37.9387 132.279 37.9186C132.555 37.8728 132.813 37.8319 133.06 37.8008L133.089 37.7957C133.104 37.7944 133.12 37.7927 133.135 37.7908C133.151 37.7888 133.167 37.7866 133.184 37.7844L133.197 37.7826C133.235 37.7776 133.269 37.7746 133.302 37.7695C133.314 37.7675 133.327 37.7661 133.34 37.7647C133.349 37.7637 133.358 37.7627 133.368 37.7615L133.464 37.7514C133.695 37.7267 133.914 37.7086 134.128 37.6975C134.194 37.6925 134.258 37.6889 134.324 37.6874C134.548 37.6809 134.766 37.6789 134.983 37.6824C135.081 37.684 135.179 37.6842 135.279 37.6843C135.399 37.6845 135.52 37.6847 135.643 37.6874C135.707 37.6874 135.774 37.6925 135.84 37.6975C136.054 37.7086 136.272 37.7267 136.502 37.7514L136.6 37.7615C136.607 37.7625 136.614 37.7634 136.621 37.7642L136.628 37.7649C136.64 37.7663 136.652 37.7676 136.665 37.7695C136.681 37.7718 136.696 37.7736 136.712 37.7754L136.715 37.7757C136.733 37.7778 136.751 37.7799 136.769 37.7826C136.783 37.7848 136.798 37.7869 136.814 37.7889C136.835 37.7916 136.856 37.794 136.877 37.7957L136.905 37.8008C137.151 37.8319 137.408 37.8728 137.683 37.9186C137.802 37.9387 137.925 37.9599 138.048 37.9825C138.066 37.9864 138.085 37.99 138.103 37.9935C138.123 37.9974 138.143 38.0011 138.163 38.0048C138.19 38.0099 138.218 38.0149 138.245 38.0203C138.297 38.0304 138.349 38.0405 138.405 38.05L138.788 38.1256V37.8879C138.858 35.2797 139.603 34.0944 140.973 31.9166C141.131 31.6663 141.297 31.403 141.47 31.1228Z" fill="#949494"/>
<path fill-rule="evenodd" clip-rule="evenodd" d="M39.4401 45.747C39.4401 42.3782 36.5588 40.1321 32.2367 40.1321H25V40.3617H26.0047C27.3824 40.3617 27.5251 40.4896 27.5251 41.714V56.903C27.5251 58.1288 27.3824 58.2568 26.0047 58.2568H25V58.4864H32.0315V58.2568H31.3153C29.9377 58.2568 29.7642 58.1288 29.7642 56.903V51.3389H32.2336C36.5567 51.3389 39.437 49.1028 39.437 45.7485L39.4401 45.747ZM36.94 45.747C36.94 49.0826 34.992 50.8796 31.3742 50.8796H29.7653V42.3274C29.7653 41.7401 29.6231 41.1524 29.2783 40.744V40.6176H31.3742C34.992 40.6176 36.94 42.413 36.94 45.747Z" fill="#949494"/>
<path fill-rule="evenodd" clip-rule="evenodd" d="M63.1473 49.2977C63.1473 43.6761 58.9102 39.9301 52.5552 39.9301C46.1675 39.9301 41.9085 43.6761 41.9085 49.2977C41.9074 54.9323 46.1664 58.6879 52.5531 58.6879C58.9075 58.6879 63.1452 54.9303 63.1452 49.2941L63.1473 49.2977ZM60.6472 49.7816C60.6472 55.2753 57.844 58.2321 52.6396 58.2321C47.2857 58.2321 44.4023 54.9439 44.4023 48.8383C44.4023 43.3487 47.2149 40.3879 52.4391 40.3879C57.7747 40.3879 60.6472 43.6761 60.6472 49.7816Z" fill="#949494"/>
<path d="M79.4479 40.3597H80.1959V40.13H74.5993V40.3597H75.6597C77.0374 40.3597 77.2973 40.9469 77.2973 42.1728V54.2992C77.2973 56.8556 75.6394 58.2306 72.5612 58.2306C70.3043 58.2306 69.0876 57.1769 69.0876 55.2179V41.7155C69.0876 40.4911 69.2314 40.3632 70.6096 40.3632H71.8721V40.1336H64.5531V40.3632H65.3C66.6776 40.3632 66.849 40.4911 66.849 41.7155V54.2992C66.849 56.9342 69.1335 58.6899 72.5612 58.6899C75.9754 58.6879 77.8145 57.1543 77.8145 54.2992V42.1733C77.8145 40.949 78.0749 40.3602 79.4505 40.3602L79.4479 40.3597Z" fill="#949494"/>
<path d="M98.0768 57.7713L98.707 57.2873L98.5507 57.105L97.9195 57.5889C97.6885 57.7737 97.3978 57.8742 97.0981 57.873C96.1834 57.873 95.0261 56.3057 94.2855 55.2707L92.8515 53.2562C92.2203 52.3688 91.014 51.6219 89.6665 51.4935V51.3424L90.2395 51.3162C93.6828 51.0357 96.323 48.9174 96.323 45.803C96.323 42.4065 93.2807 40.1356 88.6884 40.1356H81.2001V40.3652H82.2048C83.583 40.3652 83.7272 40.4931 83.7272 41.7175V56.903C83.7272 58.1288 83.583 58.2568 82.2048 58.2568H81.2001V58.4864H89.1795V58.2568H87.5128C86.1346 58.2568 85.9617 58.1288 85.9617 56.903V41.9451C85.9617 41.3559 85.819 40.9227 85.4747 40.6176V40.5914H88.4597C91.9494 40.5914 93.8271 42.4145 93.8271 45.7994C93.8271 49.2009 91.9484 51.0322 88.4597 51.0322H87.1414V51.4653H87.4857C88.7769 51.4653 89.3795 52.1301 90.3265 53.433L92.3359 56.1878C93.2401 57.4298 94.2381 58.7539 95.7074 58.7539C96.3845 58.7539 97.1616 58.4718 98.0768 57.7713Z" fill="#949494"/>
<path d="M124.483 40.3617H124.828V40.1321H118.569V40.3617H121.038C122.02 40.3617 122.433 40.7143 122.433 41.238C122.433 41.4481 122.367 41.6878 122.243 41.9431L115.815 55.7038C115.555 56.2402 115.526 56.5862 115.526 56.7242H115.154C115.154 56.3566 114.963 55.8892 114.924 55.8056L108.323 41.5875C108.151 41.1524 107.835 40.5405 107.433 40.4126V40.3622H109.643V40.1326H103.961V40.3622H104.391C105.34 40.3622 105.558 40.7838 106.084 41.9456L113.689 58.7166L115.238 58.6158L122.816 41.9451C123.334 40.821 123.563 40.3617 124.483 40.3617Z" fill="#949494"/>
<path fill-rule="evenodd" clip-rule="evenodd" d="M145.611 49.2957C145.611 43.6741 141.375 39.9281 135.02 39.9281C128.631 39.9281 124.372 43.6741 124.372 49.2957C124.372 54.9318 128.631 58.6894 135.02 58.6894C141.374 58.6894 145.611 54.9318 145.611 49.2957ZM143.111 49.7796C143.111 55.2732 140.309 58.23 135.105 58.23C129.75 58.23 126.867 54.9418 126.867 48.8363C126.867 43.3467 129.68 40.3859 134.904 40.3859C140.239 40.3859 143.111 43.6741 143.111 49.7796Z" fill="#949494"/>
<path d="M161.341 40.3612H162.088V40.1315H156.486V40.3612H157.546C158.924 40.3612 159.184 40.9484 159.184 42.1743V54.2992C159.184 56.8556 157.526 58.2306 154.448 58.2306C152.191 58.2306 150.974 57.1769 150.974 55.2179V41.7155C150.974 40.4911 151.118 40.3632 152.496 40.3632H153.759V40.1336H146.44V40.3632H147.186C148.564 40.3632 148.736 40.4911 148.736 41.7155V54.2992C148.736 56.9342 151.021 58.6899 154.448 58.6899C157.862 58.6899 159.7 57.1543 159.7 54.2992V42.1733C159.7 40.949 159.958 40.3602 161.335 40.3602L161.341 40.3612Z" fill="#949494"/>
<path d="M173.419 45.4615L173.935 45.4403L173.619 39.4149H173.333L173.419 40.7686C173.448 41.1268 173.475 41.4073 173.533 41.586L173.333 41.6364C173.304 41.5594 173.072 41.1771 172.873 41.0487C171.984 40.4615 170.778 39.9266 169.056 39.9266C165.664 39.9266 163.402 41.579 163.402 44.0614C163.402 47.0363 165.999 48.4606 168.483 49.7882C170.726 50.9873 172.844 52.2887 172.844 54.5022C172.844 56.7302 171.129 58.229 168.552 58.229C165.837 58.229 163.541 56.2749 163.373 53.2557L163.316 52.2086L162.8 52.2303L163.173 59.1985L163.433 59.189L163.347 57.591C163.332 57.2837 163.289 56.7489 163.233 56.493L163.347 56.4683C163.433 56.698 163.865 57.182 164.065 57.3104C165.538 58.217 166.834 58.6803 168.599 58.6803C172.439 58.6803 175 56.8456 175 54.0942C175 50.8911 172.274 49.278 169.726 47.9162C167.496 46.7251 165.414 45.6076 165.414 43.5009C165.414 41.4757 166.727 40.3849 169.06 40.3849C171.9 40.3849 173.25 42.3737 173.365 44.3903L173.419 45.4615Z" fill="#949494"/>
<path d="M48.4749 67.8625H47.8743V64.3315H48.4749V67.8625Z" fill="#949494"/>
<path d="M54.6855 67.9985L52.1896 65.5407L52.1885 67.8625H51.5974V64.1951L54.0917 66.6533V64.3315H54.6855V67.9985Z" fill="#949494"/>
<path d="M63.6234 67.8625H61.2905V64.3315H61.891V67.3422H63.6234V67.8625Z" fill="#949494"/>
<path fill-rule="evenodd" clip-rule="evenodd" d="M69.9606 66.0983C69.9632 66.4225 69.873 66.7411 69.7002 67.0189C69.5321 67.2967 69.2916 67.5269 69.0027 67.6867C68.7115 67.8516 68.3797 67.9372 68.0423 67.9345C67.7049 67.937 67.3731 67.8514 67.0818 67.6867C66.7931 67.5268 66.5526 67.2965 66.3844 67.0189C66.2124 66.7407 66.1224 66.4224 66.124 66.0983C66.1227 65.7744 66.2127 65.4562 66.3844 65.1781C66.5524 64.9003 66.7929 64.67 67.0818 64.5103C67.373 64.3454 67.7049 64.2598 68.0423 64.2626C68.3797 64.2596 68.7116 64.3453 69.0027 64.5103C69.2918 64.6699 69.5324 64.9002 69.7002 65.1781C69.8728 65.4559 69.9629 65.7742 69.9606 66.0983ZM69.1626 66.7354C69.2773 66.5412 69.337 66.3212 69.3356 66.0976C69.337 65.8741 69.2773 65.6542 69.1626 65.4602C69.0493 65.2691 68.8867 65.1096 68.6907 64.9973C68.4948 64.8843 68.2705 64.8252 68.0423 64.8266C67.8142 64.8253 67.5902 64.8844 67.3943 64.9973C67.1984 65.1096 67.0358 65.2691 66.9224 65.4602C66.8074 65.6543 66.7477 65.8745 66.7495 66.0983C66.7477 66.3222 66.8074 66.5425 66.9224 66.7369C67.0352 66.9282 67.1979 67.0877 67.3943 67.1992C67.5903 67.3117 67.8144 67.3702 68.0423 67.3685C68.2705 67.3699 68.4948 67.3108 68.6907 67.1977C68.8872 67.0862 69.0499 66.9267 69.1626 66.7354Z" fill="#949494"/>
<path d="M76.3811 64.3331L74.2498 68L72.1211 64.3331H72.7878L74.2524 66.8875L75.7108 64.3331H76.3811Z" fill="#949494"/>
<path d="M81.3636 67.864H79.1271V64.3315H81.3636V64.8629H79.7276V65.846H81.2871V66.3496H79.7276V67.3422H81.3636V67.864Z" fill="#949494"/>
<path d="M92.3937 64.3331L91.0786 68L89.9738 65.5045L88.8743 68L87.5607 64.3331H88.2092L88.9525 66.5546L89.9738 64.1966L91.0004 66.5516L91.7406 64.3331H92.3937Z" fill="#949494"/>
<path d="M95.8048 67.864H95.2037V64.3315H95.8048V67.864Z" fill="#949494"/>
<path d="M101.623 64.8644H100.429V67.8625H99.8232V64.8629H98.6299V64.3315H101.623V64.8644Z" fill="#949494"/>
<path d="M107.354 67.864H106.748V66.3597H105.051V67.8625H104.45V64.3315H105.051V65.8344H106.748V64.3315H107.354V67.864Z" fill="#949494"/>
<path fill-rule="evenodd" clip-rule="evenodd" d="M117.845 67.864H117.174L116.711 67.0537H114.714L114.249 67.864H113.584L115.713 64.1966L117.845 67.864ZM114.99 66.5757H116.436L115.712 65.3091L114.99 66.5757Z" fill="#949494"/>
<path d="M123.681 68L121.185 65.5423L121.184 67.8625H120.592V64.1951L123.087 66.6533V64.3315H123.681V68Z" fill="#949494"/>
<path d="M127.4 67.864H126.8L126.8 64.3315H127.4V67.864Z" fill="#949494"/>
<path d="M134.588 67.864H133.993L133.995 65.9311L132.556 67.996L131.117 65.9311V67.8625H130.525V64.1951L132.556 67.0436L134.588 64.1951V67.864Z" fill="#949494"/>
<path fill-rule="evenodd" clip-rule="evenodd" d="M141.592 67.864H140.922L140.459 67.0537H138.462L137.998 67.864H137.331L139.463 64.1966L141.592 67.864ZM138.737 66.5757H140.184L139.458 65.3091L138.737 66.5757Z" fill="#949494"/>
<path d="M146.671 67.864H144.338V64.3315H144.941V67.3422H146.671V67.864Z" fill="#949494"/>
<path d="M151.735 65.243L151.734 65.2451L151.74 65.2472C151.739 65.2458 151.737 65.2444 151.735 65.243Z" fill="#949494"/>
<path d="M151.994 64.7974L151.735 65.243C151.368 64.9411 151.005 64.7914 150.646 64.7914C150.393 64.791 150.207 64.8385 150.087 64.9339C150.029 64.9764 149.982 65.0315 149.95 65.0948C149.918 65.158 149.902 65.2277 149.903 65.298C149.901 65.3456 149.91 65.393 149.93 65.4366C149.949 65.4803 149.979 65.519 150.017 65.5499C150.101 65.6157 150.199 65.6637 150.304 65.6908C150.417 65.7221 150.575 65.7583 150.776 65.7961C151.011 65.837 151.244 65.8938 151.472 65.9663C151.65 66.0266 151.81 66.1308 151.935 66.2685C152.063 66.4082 152.128 66.6012 152.128 66.8477C152.128 67.1979 151.995 67.4665 151.731 67.6535C151.466 67.8405 151.105 67.934 150.646 67.934C150.348 67.9398 150.052 67.8885 149.775 67.7829C149.556 67.7004 149.355 67.5798 149.182 67.4268L149.447 66.958C149.608 67.0907 149.79 67.197 149.987 67.2727C150.2 67.3571 150.429 67.3996 150.66 67.3977C150.943 67.3977 151.154 67.3483 151.288 67.2516C151.353 67.2079 151.405 67.1497 151.441 67.0819C151.477 67.0141 151.495 66.9389 151.493 66.8628C151.495 66.8147 151.485 66.7668 151.466 66.7226C151.446 66.6783 151.417 66.6387 151.38 66.6064C151.296 66.538 151.198 66.4877 151.093 66.4589C150.981 66.4262 150.82 66.3899 150.616 66.3506C150.383 66.3093 150.152 66.2517 149.927 66.1784C149.751 66.1201 149.595 66.0176 149.474 65.8812C149.349 65.7437 149.284 65.5534 149.284 65.3086C149.28 65.1117 149.339 64.9184 149.452 64.7546C149.572 64.5915 149.737 64.465 149.929 64.3905C150.158 64.2997 150.404 64.2556 150.652 64.2611C150.922 64.2567 151.189 64.3134 151.433 64.4267C151.639 64.5212 151.828 64.6462 151.994 64.7974Z" fill="#949494"/>
</g>
</svg>
