<svg width="200" height="100" viewBox="0 0 200 100" fill="none" xmlns="http://www.w3.org/2000/svg">
<mask id="mask0_1429_149" style="mask-type:alpha" maskUnits="userSpaceOnUse" x="0" y="0" width="200" height="100">
<rect width="200" height="100" fill="#222222"/>
</mask>
<g mask="url(#mask0_1429_149)">
<path d="M137.48 59.6275H136.353L138.192 62.6072V65.5277H139.171V62.609L141.049 59.6275H139.912L138.82 61.3809C138.761 61.4765 138.71 61.576 138.665 61.6785C138.634 61.6086 138.584 61.4992 138.521 61.388L137.488 59.6382L137.48 59.6275ZM133.372 59.6275H129.877V60.5239H131.135V65.5438H132.122V60.5239H133.38L133.372 59.6275ZM126.566 59.6275H124.116V60.4468H124.851V64.7155H124.116V65.5277H126.566V64.7155H125.83V60.4396H126.566V59.6275ZM109.336 59.6275H108.35V63.4408C108.35 64.158 108.554 64.7209 108.957 65.1028C109.335 65.4452 109.838 65.6277 110.353 65.6102C111.614 65.6102 112.366 64.7998 112.366 63.4408V59.6275H111.378V63.5896C111.378 64.2512 110.948 64.7317 110.353 64.7317C109.759 64.7317 109.336 64.2512 109.336 63.5896V59.6275ZM99.2055 62.5803C99.204 63.3831 99.5293 64.1537 100.11 64.723C100.691 65.2924 101.48 65.614 102.303 65.6173C102.739 65.6202 103.17 65.5313 103.567 65.3567C103.963 65.1822 104.317 64.9262 104.603 64.6062L104.629 64.5811L103.893 63.9608L103.871 63.9841C103.672 64.2012 103.429 64.3768 103.159 64.5C102.888 64.6233 102.595 64.6917 102.296 64.7012C102.013 64.6996 101.734 64.643 101.474 64.5346C101.214 64.4262 100.978 64.2682 100.782 64.0699C100.586 63.8716 100.432 63.637 100.33 63.38C100.228 63.1229 100.179 62.8486 100.188 62.5731C100.179 62.0207 100.396 61.4877 100.791 61.091C101.186 60.6944 101.726 60.4665 102.292 60.4576C102.585 60.4657 102.873 60.531 103.139 60.6496C103.405 60.7682 103.644 60.9376 103.841 61.1478L103.865 61.1711L104.584 60.5329L104.561 60.506C104.274 60.2001 103.925 59.9564 103.535 59.7908C103.146 59.6253 102.725 59.5415 102.3 59.545C101.477 59.5474 100.689 59.8675 100.109 60.4351C99.5279 61.0027 99.2018 61.7716 99.2018 62.5731L99.2055 62.5803ZM85.5519 63.907L84.7112 64.3767L84.7223 64.4036C84.8651 64.7689 85.1215 65.0816 85.4556 65.2979C85.7897 65.5143 86.1849 65.6234 86.5858 65.6102C86.825 65.6196 87.0637 65.5817 87.2874 65.4985C87.5111 65.4154 87.7151 65.2889 87.8872 65.1266C88.0592 64.9643 88.1956 64.7697 88.2881 64.5545C88.3806 64.3393 88.4273 64.108 88.4254 63.8747C88.4254 62.9317 87.6196 62.349 86.9721 61.8829C86.5067 61.5476 86.1075 61.259 86.1075 60.9309C86.104 60.8633 86.1146 60.7958 86.1388 60.7324C86.1629 60.669 86.2 60.6111 86.2479 60.5621C86.2957 60.5131 86.3533 60.4742 86.417 60.4476C86.4808 60.421 86.5495 60.4073 86.6189 60.4074C86.7388 60.4173 86.8541 60.4571 86.9537 60.5231C87.0533 60.589 87.1337 60.6788 87.1873 60.7839L87.2094 60.8161L87.9232 60.246L87.9066 60.2209C87.7672 60.0057 87.5729 59.8295 87.3427 59.7095C87.1124 59.5894 86.8542 59.5297 86.5931 59.5361C86.4025 59.5306 86.2127 59.5623 86.0348 59.6294C85.857 59.6965 85.6947 59.7976 85.5576 59.9267C85.4204 60.0558 85.3112 60.2104 85.2363 60.3813C85.1614 60.5523 85.1223 60.7361 85.1215 60.9219C85.1215 61.7305 85.8205 62.2414 86.4349 62.6932C86.9482 63.0679 87.432 63.4229 87.432 63.8819C87.432 64.3982 87.1027 64.7317 86.595 64.7317C86.1387 64.7317 85.7543 64.4377 85.5666 63.9464L85.5519 63.907ZM64.3266 39.4474H64.2898H64.3247H64.3266ZM63.3074 39.2681H63.2835H63.3074ZM77.0621 56.0777C78.0006 53.933 78.4831 51.6252 78.4805 49.2936C78.4832 47.4189 78.1725 45.5563 77.5607 43.7789C76.3759 40.347 74.1157 37.3641 71.0987 35.2509C68.0817 33.1376 64.4602 32.0005 60.7449 32C57.8637 31.9984 55.0255 32.6813 52.4762 33.9897C49.9269 35.298 47.7433 37.1922 46.1145 39.5084C44.0812 42.3864 42.9949 45.7994 43 49.2936C42.9969 52.0446 43.6699 54.7563 44.9629 57.2018V62.6843C44.9631 64.0581 45.5086 65.3786 46.4852 66.3694C47.4617 67.3601 48.7936 67.9445 50.2021 68V49.5877C50.2021 49.5679 50.2021 49.5482 50.2021 49.5303C50.2021 49.5124 50.2021 49.4837 50.2021 49.4604V49.4442C50.1961 47.0379 51.0525 44.705 52.6233 42.8484C54.1942 40.9919 56.3809 39.7281 58.8059 39.2753C59.5283 39.171 60.2574 39.1177 60.9877 39.1157C61.2618 39.1157 61.5285 39.148 61.7989 39.1624C61.7162 39.1624 61.6352 39.1373 61.5506 39.1319C61.9847 39.1444 62.4134 39.1749 62.8383 39.2197C62.498 39.1821 62.1485 39.1785 61.8008 39.1624C64.4075 39.427 66.8206 40.6252 68.5726 42.5248C70.3246 44.4244 71.2908 46.8901 71.2839 49.4442V49.4604C71.2842 49.9626 71.2461 50.4642 71.1699 50.961C71.1709 50.9711 71.1709 50.9813 71.1699 50.9914C71.1515 51.1116 71.1294 51.2281 71.1073 51.35C71.0981 51.4038 71.0889 51.4576 71.0779 51.5096C71.0669 51.5616 71.0448 51.653 71.0282 51.7247C71.0062 51.8233 70.9841 51.9237 70.9583 52.0223C70.9583 52.0456 70.9455 52.0689 70.9381 52.0922C70.3655 54.2391 69.0964 56.1482 67.3198 57.5349C65.5432 58.9215 63.3544 59.7115 61.0797 59.7871H61.3942H61.0797C59.9452 59.7594 58.8169 59.6158 57.7132 59.3586H57.6929H57.7077C57.1729 59.2 56.6519 59.0003 56.1495 58.7616V58.9086V66.0082C57.6495 66.3994 59.1957 66.5971 60.7485 66.5962C64.2255 66.5943 67.6254 65.597 70.5259 63.7283C73.4265 61.8597 75.6999 59.2018 77.064 56.0849L77.0621 56.0777ZM56.2985 48.1964C56.1991 48.5669 56.149 48.9483 56.1495 49.3313C56.1495 50.52 56.634 51.66 57.4965 52.5006C58.359 53.3411 59.5288 53.8133 60.7485 53.8133C61.9683 53.8133 63.138 53.3411 64.0005 52.5006C64.863 51.66 65.3475 50.52 65.3475 49.3313C65.3475 48.1426 64.863 47.0025 64.0005 46.162C63.138 45.3214 61.9683 44.8492 60.7485 44.8492C60.2825 44.8487 59.8191 44.9177 59.3743 45.0536C58.632 45.2807 57.961 45.6877 57.424 46.2364C56.8871 46.7852 56.5017 47.4577 56.304 48.191L56.2985 48.1964ZM91.8323 46.1562C91.8323 47.5546 90.9125 48.3578 89.2955 48.3578H87.2204V43.9349H89.2955C90.907 43.9349 91.8323 44.747 91.8323 46.1598V46.1562ZM93.648 49.9659C94.5844 49.0444 95.0792 47.7285 95.0792 46.1598C95.0792 44.591 94.5844 43.2697 93.648 42.3428C92.7117 41.4159 91.3853 40.9301 89.8051 40.9301H83.8521V56.811H87.2149V51.3679H89.7904C91.3724 51.3679 92.7025 50.8821 93.6333 49.9659H93.648ZM92.1193 65.5277H95.6146V64.6564H93.098V62.8635H94.9891V61.9976H93.098V60.4988H95.6146V59.6275H92.1193V65.5277ZM104.185 47.0293C104.185 46.6128 104.016 46.2133 103.715 45.9173C103.415 45.6213 103.007 45.4527 102.579 45.448C100.997 45.448 100.037 46.4699 99.4924 47.395C99.5409 47.0983 99.5697 46.7989 99.5789 46.4986V45.7187H96.2676V56.811H99.5789V51.3321C99.5789 49.6791 100.758 48.6124 102.579 48.6124C103.01 48.6119 103.423 48.4449 103.727 48.1482C104.032 47.8514 104.203 47.449 104.204 47.0293H104.185ZM107.636 49.9659C107.944 48.806 108.773 48.1139 109.862 48.1139C110.782 48.1139 111.792 48.6877 112.022 49.9659H107.636ZM107.537 51.9775H115.251V51.5598C115.251 49.7669 114.824 48.2753 114.012 47.2408C113.093 46.0665 111.704 45.4713 109.884 45.4713C108.212 45.4713 106.774 46.0612 105.727 47.1745C104.711 48.2961 104.163 49.7483 104.193 51.2442C104.193 54.6022 106.626 57.0386 109.978 57.0386C112.653 57.0386 113.841 56.1566 115.013 54.6309L115.035 54.6022L112.85 53.0693L112.82 53.0478L112.798 53.0765C112.514 53.502 112.122 53.849 111.661 54.0839C111.199 54.3188 110.683 54.4337 110.162 54.4175C109.303 54.4175 107.824 54.0984 107.537 51.9793V51.9775ZM118.427 60.5096C119.106 60.5096 119.496 60.8681 119.496 61.4831C119.496 62.098 119.116 62.4494 118.427 62.4494H117.508V60.5078L118.427 60.5096ZM118.521 59.6221H116.527V65.5277H117.504V63.3333H118.608C118.935 64.1131 119.242 64.8231 119.548 65.5062L119.559 65.5277H120.607L119.522 63.1074C120.109 62.8026 120.442 62.211 120.442 61.4813C120.447 60.3446 119.688 59.6275 118.512 59.6275L118.521 59.6221ZM120.975 48.8705C120.975 46.0468 123.107 43.8506 125.867 43.8506C127.373 43.8506 128.626 44.5964 129.644 45.6345L132.101 43.5566C130.525 41.7637 128.485 40.7562 125.889 40.7562C124.799 40.7588 123.721 40.9709 122.716 41.3804C121.711 41.7899 120.799 42.3888 120.031 43.1426C119.264 43.8964 118.657 44.7905 118.245 45.7734C117.833 46.7563 117.625 47.8088 117.631 48.8705C117.631 53.3651 121.246 57.0028 125.882 57.0028C128.663 57.0028 130.703 55.8285 132.256 54.0213L129.706 52.0331C128.663 53.1392 127.388 53.9084 125.86 53.9084C123.1 53.9084 120.975 51.739 120.975 48.8705ZM141.446 51.2424C141.446 52.9367 140.356 54.1791 138.711 54.1791C137.066 54.1791 135.952 52.9367 135.952 51.2424C135.952 49.5482 137.042 48.3291 138.711 48.3291C140.38 48.3291 141.446 49.5715 141.446 51.2424ZM144.622 51.2424C144.622 47.9669 142.026 45.5054 138.711 45.5054C135.396 45.5054 132.8 47.9669 132.8 51.2424C132.8 54.5179 135.396 56.9795 138.711 56.9795C142.026 56.9795 144.622 54.5179 144.622 51.2424ZM152.962 50.1363C152.962 51.4235 152.127 52.1227 150.852 52.1227C149.625 52.1227 148.72 51.445 148.72 50.1363C148.72 48.8275 149.555 48.0799 150.852 48.0799C152.149 48.0799 152.962 48.8257 152.962 50.1363ZM147.933 58.9677C148.132 58.9951 148.333 59.01 148.534 59.0126C150.181 59.0126 151.432 58.4944 152.685 58.4944C154.817 58.4944 154.933 61.25 150.845 61.25C148.064 61.25 147.3 60.1205 147.926 58.9677H147.933ZM155.008 47.3789L156.353 46.0701L156.038 45.7869C155.832 45.5981 155.588 45.4518 155.323 45.3568C155.057 45.2617 154.774 45.2198 154.491 45.2335C154.209 45.2472 153.931 45.3163 153.677 45.4366C153.422 45.557 153.195 45.7261 153.008 45.9339C152.325 45.6585 151.592 45.5201 150.852 45.5269C148.003 45.5269 145.661 47.3789 145.661 50.1363C145.661 51.4235 146.079 52.5082 146.844 53.2988C145.289 54.4731 144.944 56.4147 145.777 57.6805C143.786 60.2335 144.99 63.9303 150.852 63.9303C158.665 63.9303 158.711 55.8966 152.801 55.8966C151.248 55.8966 150.553 56.3251 149.489 56.3251C147.959 56.3251 148.052 55.3319 149.05 54.5179C149.641 54.659 150.248 54.727 150.856 54.7205C153.707 54.7205 156.025 52.8918 156.025 50.1363C156.028 49.1294 155.668 48.1537 155.008 47.3789Z" fill="#949494"/>
</g>
</svg>
