<svg width="200" height="100" viewBox="0 0 200 100" fill="none" xmlns="http://www.w3.org/2000/svg">
<mask id="mask0_1429_214" style="mask-type:alpha" maskUnits="userSpaceOnUse" x="0" y="0" width="200" height="100">
<rect width="200" height="100" fill="#222222"/>
</mask>
<g mask="url(#mask0_1429_214)">
<path fill-rule="evenodd" clip-rule="evenodd" d="M44 48.4262C44 42.146 48.8479 37 55.8134 37C62.8541 37 67.702 42.146 67.702 48.4262C67.702 52.7339 65.425 56.493 61.7816 58.4632L64.2432 63H58.1224L56.6218 59.8523C56.486 59.8523 56.3508 59.861 56.2159 59.8697C56.0816 59.8783 55.9475 59.8869 55.8134 59.8869C48.8479 59.8869 44 54.7042 44 48.4262ZM61.9319 48.4262C61.9319 44.6282 59.2404 42.1093 55.8248 42.1093C52.4775 42.1093 49.7838 44.6282 49.7838 48.4262C49.7838 52.2241 52.4661 54.7409 55.8248 54.7409C59.2404 54.7409 61.9319 52.2219 61.9319 48.4262Z" fill="#7D7D7D"/>
<path fill-rule="evenodd" clip-rule="evenodd" d="M90.9532 59.4678H85.1011L83.7121 55.6224H75.0843L73.6953 59.4678H67.8432L76.4346 38.1104H82.355L90.9532 59.4678ZM76.5462 51.5652H82.2502L79.3971 43.6626L76.5462 51.5652Z" fill="#7D7D7D"/>
<path d="M109.147 59.4678H113.348V38.1104H107.947V50.3554L97.1446 38.1104H92.9411V59.4678H98.3423V47.009L109.147 59.4678Z" fill="#7D7D7D"/>
<path d="M129.716 38.1104H135.568L127.689 51.1677V59.4613H122.249V51.2455L114.346 38.1104H120.198L123.987 44.5915L124.961 46.7519L125.938 44.5915L129.716 38.1104Z" fill="#7D7D7D"/>
<path fill-rule="evenodd" clip-rule="evenodd" d="M153.104 59.4678H154.672L146.074 38.1104H140.154L131.562 59.4678H137.415L138.804 55.6224H147.434C147.838 56.7443 148.602 57.7183 149.619 58.4078C150.635 59.0974 151.854 59.468 153.104 59.4678ZM145.969 51.5652H140.265L143.119 43.6626L145.969 51.5652Z" fill="#7D7D7D"/>
<path fill-rule="evenodd" clip-rule="evenodd" d="M153.957 38.9811C154.483 38.9811 154.852 39.2986 154.852 39.7501C154.856 39.9239 154.795 40.0935 154.681 40.2293C154.567 40.365 154.406 40.4585 154.226 40.4933L154.909 41.4655H154.351L153.691 40.5106H153.338V41.4655H152.883V38.9811H153.957ZM153.343 39.357V40.1239H153.967C154.021 40.1299 154.077 40.1245 154.129 40.1083C154.181 40.092 154.229 40.0652 154.269 40.0297C154.309 39.9941 154.341 39.9508 154.362 39.9025C154.383 39.8542 154.392 39.8023 154.39 39.7501C154.395 39.6966 154.387 39.6428 154.367 39.5925C154.347 39.5422 154.316 39.4967 154.276 39.4591C154.235 39.4216 154.187 39.393 154.133 39.3753C154.08 39.3576 154.023 39.3514 153.967 39.357H153.343Z" fill="#7D7D7D"/>
<path fill-rule="evenodd" clip-rule="evenodd" d="M153.778 38.1104C153.338 38.1104 152.908 38.2341 152.543 38.4658C152.177 38.6975 151.893 39.0268 151.724 39.412C151.556 39.7973 151.512 40.2213 151.598 40.6303C151.684 41.0393 151.895 41.415 152.206 41.7099C152.517 42.0048 152.913 42.2056 153.344 42.2869C153.775 42.3683 154.222 42.3265 154.628 42.167C155.034 42.0074 155.381 41.7371 155.625 41.3904C155.87 41.0436 156 40.636 156 40.2189C156.001 39.9418 155.944 39.6672 155.833 39.411C155.721 39.1548 155.558 38.9221 155.351 38.7261C155.145 38.5301 154.899 38.3748 154.629 38.2692C154.359 38.1635 154.07 38.1096 153.778 38.1104ZM153.778 41.8846C153.43 41.8846 153.091 41.7869 152.802 41.6039C152.513 41.4209 152.288 41.1607 152.156 40.8564C152.023 40.552 151.988 40.2171 152.056 39.894C152.123 39.5709 152.291 39.2741 152.536 39.0412C152.782 38.8082 153.095 38.6496 153.435 38.5853C153.776 38.521 154.129 38.554 154.449 38.6801C154.77 38.8062 155.044 39.0196 155.237 39.2936C155.43 39.5675 155.533 39.8895 155.533 40.2189C155.53 40.6592 155.344 41.0806 155.015 41.3913C154.686 41.702 154.242 41.877 153.778 41.8781V41.8846Z" fill="#7D7D7D"/>
</g>
</svg>
