<svg width="348" height="85" viewBox="0 0 348 85" fill="none" xmlns="http://www.w3.org/2000/svg">
<path d="M0.14917 37.3654C0.14917 16.8334 15.1914 0 36.7994 0C58.6452 0 73.6875 16.8334 73.6875 37.3654C73.6875 51.453 66.6428 63.7496 55.3025 70.1956L62.9425 85H43.9621L39.3056 74.7324C38.4708 74.7324 37.6343 74.8521 36.7994 74.8521C15.1914 74.8521 0.14917 57.9006 0.14917 37.3654ZM55.7798 37.3654C55.7798 24.9507 47.4246 16.7136 36.7994 16.7136C26.412 16.7136 18.0569 24.9507 18.0569 37.3654C18.0569 49.78 26.412 58.0204 36.7994 58.0204C47.4246 58.0204 55.7798 49.7866 55.7798 37.3654Z" fill="white"/>
<path d="M145.827 73.476H127.668L123.361 60.9039H96.5883L92.2828 73.476H74.1241L100.779 3.63477H119.171L145.827 73.476ZM101.128 47.6347H118.823L109.976 21.7934L101.128 47.6347Z" fill="white"/>
<path d="M215.312 73.476H202.271L168.75 32.7286V73.476H151.989V3.63477H165.026L198.55 43.6769V3.63477H215.312V73.476Z" fill="white"/>
<path d="M266.09 3.63477H284.249L259.81 46.3554V73.476H242.929V46.5866L218.367 3.63477H236.525L248.281 24.8212L251.312 31.92L254.34 24.8212L266.09 3.63477Z" fill="white"/>
<path d="M343.527 73.476H338.657C334.78 73.476 330.999 72.2641 327.845 70.0099C324.69 67.7558 322.319 64.572 321.062 60.9039H294.286L289.979 73.476H271.824L298.478 3.63477H316.872L343.527 73.476ZM298.828 47.6347H316.522L307.665 21.7934L298.828 47.6347Z" fill="white"/>
<path d="M340.749 3.63485C339.844 3.63291 338.947 3.80976 338.11 4.15527C337.273 4.50078 336.513 5.00813 335.873 5.64821C335.233 6.28828 334.726 7.04847 334.38 7.88514C334.035 8.72181 333.858 9.61849 333.86 10.5237C333.86 12.3507 334.586 14.1029 335.878 15.3948C337.169 16.6867 338.922 17.4125 340.749 17.4125C341.654 17.4145 342.551 17.2376 343.387 16.8921C344.224 16.5466 344.984 16.0392 345.624 15.3992C346.264 14.7591 346.772 13.9989 347.117 13.1622C347.463 12.3256 347.639 11.4289 347.638 10.5237C347.642 9.61775 347.467 8.71991 347.122 7.88205C346.778 7.0442 346.271 6.28297 345.63 5.64237C344.989 5.00177 344.228 4.49452 343.39 4.14994C342.552 3.80536 341.655 3.63029 340.749 3.63485ZM340.749 15.9741C339.305 15.971 337.921 15.3962 336.9 14.3753C335.88 13.3544 335.305 11.9707 335.302 10.527C335.297 9.81037 335.435 9.09999 335.707 8.43705C335.979 7.77411 336.38 7.17181 336.887 6.66509C337.394 6.15836 337.996 5.75731 338.659 5.48519C339.322 5.21306 340.032 5.07529 340.749 5.07987C341.465 5.07529 342.176 5.21306 342.839 5.48519C343.502 5.75731 344.104 6.15836 344.611 6.66509C345.117 7.17181 345.518 7.77411 345.79 8.43705C346.063 9.09999 346.2 9.81037 346.196 10.527C346.193 11.9708 345.618 13.3548 344.598 14.3758C343.577 15.3967 342.193 15.9715 340.749 15.9741Z" fill="white"/>
<path d="M344.079 8.99964C344.079 7.52346 342.931 6.48193 341.302 6.48193H337.972V14.6042H339.391V11.4878H340.487L342.535 14.6042H344.267L342.135 11.4288C342.692 11.3153 343.192 11.01 343.547 10.5662C343.902 10.1223 344.09 9.56797 344.079 8.99964ZM339.391 10.2216V7.71208H341.295C342.115 7.71208 342.607 8.19266 342.607 8.99964C342.607 9.75249 342.101 10.2216 341.295 10.2216H339.391Z" fill="white"/>
</svg>
