<svg width="200" height="100" viewBox="0 0 200 100" fill="none" xmlns="http://www.w3.org/2000/svg">
<mask id="mask0_2935_232" style="mask-type:alpha" maskUnits="userSpaceOnUse" x="0" y="0" width="200" height="100">
<rect width="200" height="100" fill="#222222"/>
</mask>
<g mask="url(#mask0_2935_232)">
<path d="M43.362 58.8948H50.3383L45.2317 50.1904L45.5062 50.0146C47.8238 48.5237 49.2595 45.9762 49.2595 43.3698C49.2595 38.758 45.4603 35 40.788 35H31V41.0076H40.788C41.9449 41.0076 42.85 42.0462 42.85 43.3698C42.85 44.6933 41.9449 45.7323 40.788 45.7323H32.0347C31.7737 45.808 31.5389 45.9536 31.3564 46.1529C31.1739 46.3522 31.0507 46.5975 31.0004 46.8616H40.7885C42.5897 46.8616 43.9934 45.3301 43.9934 43.3698C43.9934 41.4094 42.5897 39.8783 40.7885 39.8783H32.1434V36.1289H40.7885C44.8297 36.1289 48.1148 39.3768 48.1148 43.3715C48.1148 45.8787 46.5743 48.2725 44.1831 49.4694L43.6439 49.7407L48.3573 57.7672H44.0112L39.4363 49.5319H31.0004V58.8948H32.1429V50.6594H38.7815L43.362 58.8948Z" fill="#949494"/>
<path d="M81.8402 44.7156C78.2191 43.6325 77.6543 42.9102 77.6543 41.8596C77.6543 40.9409 78.485 40.1192 80.146 40.1192C82.272 40.1192 83.3691 41.1377 84.1656 42.7788L88.6503 40.1856C86.956 36.805 83.9663 35 80.146 35C76.1264 35 72.3393 37.5603 72.3393 41.991C72.3393 46.3892 75.7279 48.0303 79.1823 48.9824C82.6705 49.9341 83.9997 50.4921 83.9997 51.9038C83.9997 52.7896 83.3682 53.7743 80.8437 53.7743C78.2191 53.7743 76.7907 52.4944 75.9601 50.5905L71.3761 53.2163C72.6715 56.5969 75.7937 58.8948 80.6774 58.8948C85.7269 58.8948 89.3147 56.2691 89.3147 51.8379C89.3147 46.9801 85.3613 45.7678 81.8402 44.7156Z" fill="#949494"/>
<path d="M101.537 41.5643C99.3448 41.5643 97.6826 42.3522 96.7869 43.5666V35.4596H91.8063V58.4344H96.7869V49.4745C96.7869 47.1445 98.0494 46.0939 99.8767 46.0939C101.471 46.0939 102.766 47.0456 102.766 49.0808V58.4344H107.75V48.3585C107.75 43.9278 104.894 41.5643 101.537 41.5643Z" fill="#949494"/>
<path fill-rule="evenodd" clip-rule="evenodd" d="M118.277 41.5643C120.504 41.5643 122.131 42.3192 123.228 43.5666L123.227 42.0239H128.207V58.4331H123.227V56.8926C122.131 58.14 120.503 58.8948 118.277 58.8948C113.926 58.8948 110.337 55.1205 110.337 50.2298C110.337 45.3391 113.925 41.5643 118.277 41.5643ZM115.32 50.2298C115.32 52.6934 116.981 54.2339 119.273 54.2339C121.568 54.2339 123.226 52.6916 123.226 50.2298C123.226 47.768 121.565 46.2253 119.273 46.2253C116.981 46.2253 115.32 47.7662 115.32 50.2298Z" fill="#949494"/>
<path fill-rule="evenodd" clip-rule="evenodd" d="M141.794 41.5643C139.569 41.5643 137.94 42.3192 136.844 43.5666V42.0261H131.864V65H136.844V56.8938C137.941 58.1412 139.569 58.8961 141.794 58.8961C146.146 58.8961 149.733 55.1214 149.733 50.2311C149.733 45.3408 146.147 41.5643 141.794 41.5643ZM140.798 54.2339C138.506 54.2339 136.845 52.6934 136.845 50.2298C136.845 47.7662 138.506 46.2253 140.798 46.2253C143.09 46.2253 144.751 47.768 144.751 50.2298C144.751 52.6916 143.091 54.2339 140.798 54.2339Z" fill="#949494"/>
<path fill-rule="evenodd" clip-rule="evenodd" d="M160.562 41.5643C165.412 41.5643 169 45.2732 169 50.2298C169.004 50.8912 168.939 51.5513 168.806 52.1995H157.013C157.642 53.9061 159.171 54.497 160.997 54.497C162.359 54.497 163.522 53.9716 164.186 53.2497L168.171 55.5142C166.543 57.7458 164.085 58.8948 160.929 58.8948C155.248 58.8948 151.727 55.1205 151.727 50.2298C151.727 45.3391 155.313 41.5643 160.562 41.5643ZM160.531 45.9296C158.637 45.9296 157.375 46.8488 156.909 48.5228H164.051C163.519 46.619 162.025 45.9296 160.531 45.9296Z" fill="#949494"/>
<path d="M68.6078 49.4116C68.4228 45.1123 64.8337 41.6662 60.4373 41.6662C55.9296 41.6662 52.2587 45.2933 52.2587 49.7467C52.2587 54.2001 55.9309 57.8237 60.4386 57.8237C61.9726 57.8253 63.4759 57.3987 64.7753 56.593L65.0784 56.4069L62.67 54.0323C61.9784 54.3857 61.2112 54.5701 60.4326 54.5702C59.1382 54.5698 57.8969 54.0615 56.9817 53.1572C56.0664 52.2529 55.552 51.0264 55.5515 49.7475C55.5516 49.1142 55.6779 48.4871 55.9233 47.9021C56.1687 47.317 56.5284 46.7855 56.9817 46.3378C57.435 45.8901 57.9732 45.535 58.5655 45.2929C59.1577 45.0507 59.7925 44.9263 60.4334 44.9265C61.497 44.9253 62.5318 45.2674 63.3804 45.9009C64.229 46.5343 64.8449 47.4243 65.1343 48.4355C65.2325 48.779 65.2929 49.1319 65.3145 49.4882H59.0722C59.1194 49.2414 59.2348 49.0123 59.4056 48.8264C59.5765 48.6404 59.7961 48.5048 60.0402 48.4347H64.0035C63.7321 47.7154 63.2445 47.0954 62.6062 46.6579C61.9679 46.2204 61.2094 45.9862 60.4326 45.9869C59.9327 45.9866 59.4376 46.0836 58.9756 46.2725C58.5137 46.4614 58.094 46.7384 57.7405 47.0876C57.387 47.4369 57.1067 47.8516 56.9155 48.308C56.7244 48.7644 56.6262 49.2536 56.6265 49.7475C56.6261 50.2415 56.7243 50.7308 56.9154 51.1872C57.1065 51.6437 57.3868 52.0585 57.7403 52.4078C58.0938 52.7572 58.5136 53.0343 58.9755 53.2232C59.4375 53.4121 59.9326 53.5093 60.4326 53.509C60.9224 53.5101 61.4078 53.4173 61.8618 53.2355C62.2282 53.0878 62.569 52.8847 62.8722 52.6334L66.7381 56.4488C66.4039 56.7552 66.0493 57.0389 65.6765 57.2982C64.1345 58.3447 62.3067 58.9027 60.436 58.8982C55.3289 58.8982 51.1768 54.7949 51.1768 49.7497C51.1768 44.7044 55.3289 40.5964 60.436 40.5964C65.4275 40.5964 69.506 44.5209 69.6905 49.4116H68.6078Z" fill="#949494"/>
</g>
</svg>
