<svg width="200" height="100" viewBox="0 0 200 100" fill="none" xmlns="http://www.w3.org/2000/svg">
<mask id="mask0_1429_217" style="mask-type:alpha" maskUnits="userSpaceOnUse" x="0" y="0" width="200" height="100">
<rect width="200" height="100" fill="#222222"/>
</mask>
<g mask="url(#mask0_1429_217)">
<path fill-rule="evenodd" clip-rule="evenodd" d="M72.3097 50C72.3097 43.3821 77.7874 38 84.5227 38C91.258 38 96.7386 43.3821 96.7414 50C96.7414 56.6179 91.2609 62 84.5256 62C77.7902 62 72.3097 56.6151 72.3097 50ZM78.1884 49.9972C78.1884 53.5492 81.0304 56.4402 84.5227 56.4402C88.0178 56.4402 90.857 53.5492 90.857 49.9972C90.857 46.4453 88.015 43.5543 84.5227 43.5543C81.0304 43.5543 78.1884 46.4453 78.1884 49.9972Z" fill="#949494"/>
<path d="M59.916 61.6417H54V38.4165H69.923V43.2765H65.8291C64.9725 43.3071 64.0299 43.3237 63.0015 43.3237H59.916V61.6417Z" fill="#949494"/>
<path fill-rule="evenodd" clip-rule="evenodd" d="M119.03 39.9634C117.111 38.7248 114.813 38 112.35 38C105.614 38 100.134 43.3821 100.134 49.9972C100.134 56.6124 105.614 61.9972 112.35 61.9972C114.813 61.9972 117.111 61.2724 119.033 60.0338V61.639H124.944V38.4138H119.033V39.9634H119.03ZM112.35 56.4402C108.857 56.4402 106.015 53.5492 106.015 49.9972C106.015 46.4453 108.857 43.5543 112.35 43.5543C115.842 43.5543 118.684 46.4453 118.684 49.9972C118.684 53.552 115.842 56.4402 112.35 56.4402Z" fill="#949494"/>
<path d="M130.077 61.6389V38.4165H146V43.2765H141.906C141.049 43.307 140.107 43.3237 139.078 43.3237H135.993V61.6389H130.077Z" fill="#949494"/>
<path fill-rule="evenodd" clip-rule="evenodd" d="M143.674 59.4783C143.768 59.5144 143.845 59.5588 143.903 59.6116C144.009 59.7116 144.143 59.8782 144.295 60.1198L144.622 60.6169H144.092L143.854 60.217C143.668 59.9004 143.516 59.706 143.401 59.6255C143.324 59.5672 143.207 59.5366 143.055 59.5366H142.8V60.6141H142.367V58.0786H143.29C143.605 58.0786 143.834 58.1008 143.974 58.148C144.115 58.1952 144.229 58.2758 144.312 58.3924C144.395 58.509 144.438 58.634 144.438 58.7645C144.438 58.9506 144.37 59.1117 144.229 59.2478C144.089 59.3839 143.906 59.4616 143.674 59.4783ZM142.805 59.1839H143.33C143.582 59.1839 143.754 59.1478 143.845 59.0784C143.937 59.0089 143.983 58.9145 143.983 58.7979C143.983 58.7257 143.96 58.6562 143.917 58.5979C143.874 58.5368 143.811 58.4952 143.734 58.4646C143.653 58.4341 143.51 58.4202 143.298 58.4202H142.805V59.1839Z" fill="#949494"/>
<path fill-rule="evenodd" clip-rule="evenodd" d="M144.694 57.2566C144.296 57.0539 143.886 56.9511 143.468 56.9511C143.049 56.9511 142.64 57.0511 142.241 57.2566C141.843 57.4593 141.531 57.7509 141.307 58.1286C141.084 58.5063 140.972 58.9007 140.972 59.3117C140.972 59.7171 141.081 60.1087 141.302 60.4836C141.522 60.8585 141.829 61.1501 142.227 61.3556C142.622 61.5639 143.038 61.6667 143.468 61.6667C143.9 61.6667 144.313 61.5639 144.708 61.3556C145.103 61.1501 145.41 60.8585 145.631 60.4836C145.848 60.1087 145.96 59.7171 145.96 59.3117C145.96 58.9007 145.848 58.5063 145.625 58.1286C145.401 57.7509 145.092 57.4593 144.694 57.2566ZM145.27 60.2864C145.086 60.5975 144.828 60.8391 144.499 61.014C144.169 61.189 143.823 61.2751 143.465 61.2751C143.107 61.2751 142.76 61.189 142.43 61.014C142.101 60.8391 141.843 60.5975 141.66 60.2864C141.476 59.9754 141.385 59.6505 141.385 59.3117C141.385 58.9701 141.476 58.6424 141.666 58.3258C141.852 58.0092 142.112 57.7676 142.445 57.5982C142.777 57.4288 143.118 57.3427 143.468 57.3427C143.814 57.3427 144.155 57.4288 144.487 57.5982C144.82 57.7676 145.081 58.0092 145.267 58.3258C145.453 58.6424 145.545 58.9701 145.545 59.3117C145.545 59.6477 145.453 59.9726 145.27 60.2864Z" fill="#949494"/>
</g>
</svg>
