<svg width="200" height="100" viewBox="0 0 200 100" fill="none" xmlns="http://www.w3.org/2000/svg">
<mask id="mask0_1429_188" style="mask-type:alpha" maskUnits="userSpaceOnUse" x="0" y="0" width="200" height="100">
<rect width="200" height="100" fill="#222222"/>
</mask>
<g mask="url(#mask0_1429_188)">
<path d="M23.671 41.9536C23.2658 42.014 22.8522 41.9971 22.4539 41.9041C21.6493 41.7164 20.9555 41.2298 20.525 40.5514C20.0945 39.873 19.9626 39.0583 20.1584 38.2867C20.2553 37.9046 20.4297 37.5445 20.6717 37.2271C20.9137 36.9096 21.2185 36.641 21.5688 36.4366C21.919 36.2321 22.3078 36.0958 22.713 36.0355C23.1181 35.9751 23.5317 35.9919 23.9301 36.0849C24.7347 36.2726 25.4286 36.7593 25.8591 37.4377C26.2896 38.1162 26.4215 38.9308 26.2258 39.7026C26.1289 40.0847 25.9544 40.4447 25.7124 40.7621C25.4704 41.0796 25.1655 41.3482 24.8153 41.5526C24.465 41.7571 24.0762 41.8933 23.671 41.9536Z" fill="#949494"/>
<path d="M43.2596 39.9758C42.2933 39.7505 41.2732 39.9026 40.4237 40.3985C39.5741 40.8944 38.9648 41.6937 38.7296 42.6205C38.6131 43.0794 38.592 43.5559 38.6675 44.0227C38.743 44.4895 38.9136 44.9374 39.1696 45.341C39.4256 45.7445 39.762 46.0957 40.1596 46.3746C40.5571 46.6534 41.008 46.8545 41.4865 46.9662C41.9651 47.078 42.462 47.0983 42.9488 47.0259C43.4356 46.9534 43.9027 46.7897 44.3235 46.5441C44.7443 46.2985 45.1105 45.9758 45.4012 45.5944C45.6919 45.213 45.9014 44.7804 46.0178 44.3213C46.1342 43.8623 46.1552 43.3857 46.0796 42.9189C46.004 42.4521 45.8333 42.0041 45.5772 41.6006C45.3211 41.1971 44.9846 40.8459 44.5869 40.5671C44.1893 40.2883 43.7383 40.0874 43.2596 39.9758Z" fill="#949494"/>
<path d="M182.37 47.7747C182.626 48.1975 182.798 48.662 182.879 49.1448C182.959 49.6115 183 50.1516 183 50.7502V56.4404C183 57.1698 182.808 57.7443 182.43 58.1483C182.042 58.565 181.507 58.7851 180.883 58.7851C180.197 58.7851 179.664 58.5663 179.298 58.1348C178.96 57.7367 178.789 57.1666 178.789 56.4404V51.4227C178.789 50.5703 178.664 49.9204 178.417 49.4923C178.347 49.3712 178.135 49.0035 177.23 49.0035C176.793 49.0035 176.412 49.1186 176.063 49.3555C175.71 49.5973 175.451 49.9202 175.271 50.3437C175.173 50.6103 175.058 51.2027 175.058 52.5127V56.4404C175.058 57.1574 174.873 57.7275 174.508 58.135C174.127 58.5604 173.582 58.7851 172.931 58.7851C172.245 58.7851 171.712 58.5663 171.346 58.1348C171.102 57.8464 170.946 57.4667 170.878 57.0039C170.815 57.4504 170.553 57.9824 169.762 58.3501C169.133 58.6429 168.286 58.7851 167.169 58.7851C166.079 58.7851 165.26 58.6036 164.661 58.2301C164.045 57.845 163.636 57.3047 163.444 56.624C163.275 56.0219 163.192 55.2536 163.192 54.2753V49.1096C162.676 49.0855 162.257 48.9377 161.948 48.6693C161.597 48.366 161.411 47.9603 161.411 47.4973C161.411 47.0278 161.608 46.6215 161.98 46.319C162.285 46.0713 162.692 45.9304 163.193 45.8992V44.6469C163.193 44.1453 163.207 43.7603 163.235 43.4705C163.269 43.1205 163.369 42.8087 163.532 42.5444C163.706 42.2586 163.955 42.022 164.254 41.8589C164.571 41.6827 164.931 41.5915 165.298 41.5948C165.836 41.5948 166.323 41.786 166.746 42.1631C167.042 42.4228 167.242 42.7665 167.319 43.1437C167.383 43.4531 167.415 43.8665 167.415 44.4077V45.8932H167.987C168.566 45.8932 169.031 46.0396 169.367 46.3298C169.715 46.6311 169.899 47.0347 169.899 47.4973C169.899 48.0971 169.614 48.5654 169.097 48.8159C168.685 49.0161 168.14 49.1133 167.431 49.1133H167.415V54.0359C167.415 54.4748 167.43 54.8119 167.461 55.0378C167.48 55.1778 167.523 55.2814 167.592 55.3545C167.607 55.3708 167.691 55.4117 167.896 55.4117C167.994 55.4117 168.182 55.3977 168.519 55.3306C168.871 55.2607 169.146 55.227 169.359 55.227C169.756 55.227 170.127 55.3809 170.431 55.6728C170.627 55.8597 170.768 56.0931 170.839 56.3491V43.559C170.839 42.8277 171.02 42.2551 171.377 41.8538C171.751 41.4349 172.289 41.2136 172.933 41.2136C173.592 41.2136 174.122 41.4298 174.508 41.8559C174.874 42.2603 175.06 42.833 175.06 43.5585V46.684C175.149 46.6155 175.237 46.5514 175.325 46.4916C175.754 46.202 176.23 45.9829 176.734 45.8431C177.261 45.6993 177.807 45.628 178.355 45.6312C179.232 45.6312 180.027 45.8144 180.717 46.1759C181.415 46.5426 181.972 47.0804 182.37 47.7747Z" fill="#949494"/>
<path d="M126.209 47.7747C125.811 47.0804 125.254 46.5424 124.556 46.1759C123.866 45.8144 123.07 45.6312 122.193 45.6312C121.645 45.628 121.1 45.6994 120.573 45.8431C120.069 45.9829 119.592 46.202 119.163 46.4916C119.076 46.5514 118.987 46.6155 118.898 46.684V43.5585C118.898 42.833 118.713 42.2601 118.347 41.8559C117.96 41.4303 117.43 41.214 116.772 41.214C116.128 41.214 115.59 41.4353 115.216 41.8543C114.86 42.2541 114.679 42.8277 114.679 43.559V56.4404C114.679 57.1666 114.85 57.7367 115.188 58.1348C115.553 58.5663 116.086 58.7851 116.772 58.7851C117.423 58.7851 117.968 58.5604 118.349 58.135C118.714 57.7278 118.899 57.1574 118.899 56.4404V52.5127C118.899 51.2028 119.014 50.6103 119.112 50.3437C119.292 49.9202 119.551 49.5973 119.905 49.3555C120.253 49.1186 120.634 49.0035 121.071 49.0035C121.976 49.0035 122.188 49.3712 122.258 49.4923C122.505 49.9204 122.63 50.5703 122.63 51.4227V56.4404C122.63 57.1666 122.802 57.7367 123.139 58.1348C123.505 58.5663 124.038 58.7851 124.724 58.7851C125.348 58.7851 125.884 58.565 126.271 58.1483C126.648 57.7434 126.84 57.1686 126.84 56.4404V50.7502C126.84 50.1511 126.799 49.6111 126.72 49.1448C126.639 48.6617 126.466 48.1972 126.209 47.7747Z" fill="#949494"/>
<path fill-rule="evenodd" clip-rule="evenodd" d="M140.124 53.084C140.771 52.7639 141.097 52.1142 141.097 51.1536C141.097 50.2631 140.857 49.3799 140.384 48.5284C139.905 47.6673 139.181 46.9577 138.228 46.419C137.275 45.8803 136.135 45.6103 134.829 45.6103C133.834 45.6103 132.91 45.7673 132.084 46.077C131.245 46.3921 130.526 46.8527 129.949 47.4463C129.376 48.0357 128.935 48.7495 128.638 49.5679C128.347 50.3722 128.199 51.2535 128.199 52.1877C128.199 54.1885 128.81 55.8047 130.014 56.9908C131.223 58.1816 132.919 58.7856 135.056 58.7856C135.983 58.7856 136.82 58.6663 137.545 58.4308C138.27 58.1952 138.887 57.8898 139.377 57.5244C139.874 57.1539 140.255 56.7547 140.51 56.3376C140.783 55.8902 140.915 55.4933 140.915 55.1242C140.915 54.5465 140.652 54.2016 140.431 54.0133C140.129 53.7578 139.744 53.6279 139.287 53.6279C138.856 53.6279 138.504 53.7376 138.241 53.9536L138.221 53.9704C137.843 54.3126 137.531 54.5863 137.295 54.7841C137.066 54.9756 136.822 55.1508 136.567 55.3083C136.338 55.4515 136.089 55.5614 135.827 55.6344C135.546 55.7072 135.256 55.7425 134.965 55.7392C134.511 55.7392 134.11 55.6358 133.738 55.4232C133.369 55.2129 133.079 54.9032 132.85 54.4757C132.685 54.1623 132.577 53.8247 132.529 53.477H137.982C138.892 53.476 139.592 53.3478 140.124 53.084ZM133.239 49.3491C133.627 48.949 134.113 48.7543 134.727 48.7543C135.381 48.7543 135.887 48.9462 136.275 49.3411C136.584 49.655 136.795 50.1146 136.907 50.7121H132.579C132.708 50.1261 132.929 49.6692 133.239 49.3491Z" fill="#949494"/>
<path fill-rule="evenodd" clip-rule="evenodd" d="M154.363 52.506C154.359 52.9927 154.353 53.534 154.346 54.1296C154.346 54.6256 154.435 55.1601 154.611 55.7121C154.888 56.5794 154.925 56.8701 154.925 57.039C154.925 57.3592 154.814 57.8339 154.285 58.2772C153.882 58.6146 153.416 58.7856 152.9 58.7856C152.433 58.7856 151.985 58.5903 151.568 58.2051C151.325 57.9806 151.08 57.697 150.826 57.3454C150.209 57.7622 149.602 58.0909 149.014 58.3255C148.249 58.6302 147.385 58.7851 146.445 58.7851C145.563 58.7851 144.772 58.6128 144.092 58.2727C143.401 57.9268 142.859 57.4474 142.482 56.8499C142.107 56.2616 141.91 55.5849 141.913 54.8954C141.913 53.9497 142.232 53.1295 142.862 52.4573C143.477 51.8009 144.322 51.3572 145.372 51.1377C145.57 51.0938 146.052 50.9968 146.843 50.8424C147.615 50.6914 148.283 50.5517 148.827 50.4274C149.243 50.3325 149.693 50.2203 150.169 50.0925C150.096 49.5398 149.949 49.2457 149.827 49.0915C149.726 48.9655 149.416 48.7543 148.464 48.7543C147.609 48.7543 147.174 48.8895 146.961 49.0025C146.647 49.1685 146.371 49.4268 146.14 49.7701C145.837 50.2192 145.633 50.5009 145.497 50.6558C145.266 50.921 144.878 51.0499 144.312 51.0499C143.825 51.0499 143.397 50.8966 143.039 50.5944C142.666 50.2796 142.469 49.8556 142.469 49.3686C142.469 48.7298 142.701 48.1086 143.16 47.5221C143.606 46.9522 144.292 46.4831 145.201 46.1281C146.081 45.7838 147.179 45.6094 148.464 45.6094C149.913 45.6094 151.033 45.7739 151.889 46.1124C152.799 46.473 153.454 47.0567 153.835 47.848C154.189 48.5838 154.369 49.5529 154.369 50.7286C154.369 51.4192 154.367 52.0172 154.363 52.506ZM149.865 54.6412C150.005 54.415 150.171 53.9506 150.201 53.0084H150.2C149.834 53.1051 149.405 53.2037 148.905 53.3062C148.052 53.4816 147.455 53.6114 147.132 53.6925C146.882 53.7553 146.635 53.8835 146.398 54.0738C146.289 54.1609 146.145 54.3183 146.145 54.6777C146.145 54.9774 146.258 55.2164 146.498 55.4301C146.748 55.6521 147.081 55.7599 147.512 55.7599C148.039 55.7599 148.509 55.6535 148.95 55.4343C149.373 55.2242 149.671 54.9671 149.86 54.6497L149.865 54.6412Z" fill="#949494"/>
<path d="M158.48 41.214C157.852 41.214 157.32 41.4362 156.939 41.8563C156.573 42.2603 156.388 42.833 156.388 43.559V56.4404C156.388 57.1528 156.578 57.7213 156.952 58.1327C157.34 58.5597 157.869 58.7851 158.481 58.7851C159.103 58.7851 159.621 58.5753 160.022 58.1612C160.411 57.7588 160.608 57.1797 160.608 56.4404V43.559C160.608 42.8211 160.414 42.2429 160.03 41.8405C159.632 41.4247 159.111 41.214 158.48 41.214Z" fill="#949494"/>
<path d="M64.1469 51.3303C63.4999 50.9987 62.6632 50.7116 61.6612 50.4768C60.8657 50.2916 60.2333 50.1321 59.7819 50.005C59.3885 49.8937 59.0796 49.757 58.8635 49.5987C58.7303 49.501 58.6761 49.4029 58.6761 49.2599C58.6761 49.1949 58.6761 49.0428 58.974 48.8591C59.2505 48.6884 59.6175 48.602 60.0651 48.602C60.5082 48.602 60.8494 48.6659 61.0796 48.792C61.3383 48.9357 61.5648 49.1271 61.746 49.3551C62.0616 49.7375 62.3402 50.0215 62.5973 50.2217C62.9222 50.4745 63.3142 50.6039 63.763 50.6039C64.3489 50.6039 64.8207 50.443 65.1659 50.1288C65.5112 49.8147 65.6976 49.3863 65.6976 48.9007C65.6976 48.4839 65.5539 48.0624 65.2709 47.648C65.0073 47.261 64.624 46.9085 64.1332 46.6003C63.6566 46.3016 63.0627 46.0617 62.3675 45.8879C61.6849 45.7174 60.9102 45.6312 60.0651 45.6312C58.9682 45.6312 58.01 45.8068 57.2176 46.1529C56.4029 46.5089 55.7725 46.9993 55.3451 47.6103C54.9138 48.2278 54.6938 48.8973 54.6938 49.5971C54.6938 50.3917 54.9404 51.0759 55.4268 51.6304C55.882 52.1496 56.4916 52.5706 57.2377 52.8818C57.9326 53.1718 58.8383 53.4505 59.9341 53.7114C61.0363 53.9642 61.5634 54.1898 61.8102 54.3337C61.972 54.4277 62.1576 54.5899 62.1576 55.0151C62.1576 55.0718 62.1576 55.2449 61.8033 55.4811C61.5042 55.6806 61.0988 55.7817 60.5983 55.7817C59.9437 55.7817 59.434 55.6769 59.0835 55.4701C58.724 55.2582 58.4068 54.9245 58.1382 54.478C57.9487 54.1498 57.7493 53.8964 57.5289 53.7031C57.2488 53.4581 56.8695 53.3338 56.4013 53.3338C55.878 53.3338 55.4352 53.5041 55.0851 53.8394C54.9166 53.9982 54.7831 54.1878 54.6926 54.397C54.602 54.6063 54.5562 54.8308 54.5579 55.0574C54.5579 55.6664 54.7858 56.2703 55.2353 56.8524C55.6717 57.4173 56.3406 57.888 57.2241 58.2508C58.0848 58.6047 59.1208 58.784 60.304 58.784C61.5323 58.784 62.5983 58.6199 63.4726 58.2963C64.3899 57.9569 65.0979 57.4435 65.5774 56.7704C66.0568 56.0973 66.2993 55.2874 66.2993 54.361C66.2993 53.7061 66.1059 53.1125 65.7242 52.597C65.3612 52.1071 64.8305 51.6805 64.1469 51.3303Z" fill="#949494"/>
<path d="M81.9465 45.653C82.8844 45.653 83.711 45.836 84.404 46.197C85.1194 46.5693 85.66 47.1103 86.0129 47.805C86.3194 48.4264 86.4668 49.3309 86.4668 50.5763V56.3772C86.4668 57.136 86.2688 57.7289 85.8788 58.1426C85.4741 58.5693 84.9412 58.7861 84.2942 58.7861C83.6712 58.7861 83.1292 58.5613 82.7269 58.1361C82.3328 57.72 82.1329 57.1277 82.1329 56.376V51.3822C82.1329 50.7723 82.1061 50.2814 82.0534 49.9236C82.0127 49.6472 81.9087 49.4247 81.7362 49.2441C81.5986 49.1002 81.3564 49.0271 81.0159 49.0271C80.7173 49.0271 80.4382 49.1119 80.1626 49.2864C79.8818 49.4637 79.6553 49.7096 79.5063 49.9988C79.3741 50.3007 79.2188 50.9658 79.2188 52.4258V56.3763C79.2188 57.1351 79.0209 57.728 78.6308 58.1417C78.2261 58.5684 77.6932 58.7851 77.0463 58.7851C76.4221 58.7851 75.883 58.5613 75.4876 58.138C75.1028 57.7259 74.9078 57.1335 74.9078 56.3751V51.6422C74.9078 50.9212 74.8824 50.3577 74.8325 49.9671C74.7927 49.658 74.694 49.4169 74.5306 49.233C74.4091 49.0952 74.1791 49.0262 73.8475 49.0262C72.8071 49.0262 72.4978 49.419 72.3554 49.7143C72.0679 50.3069 71.9241 51.1972 71.9241 52.3605V56.3751C71.9241 57.1241 71.7298 57.7144 71.3464 58.1302C70.9508 58.5588 70.4072 58.7851 69.7741 58.7851C69.1514 58.7851 68.6094 58.5604 68.2068 58.1352C67.8129 57.7193 67.6128 57.127 67.6128 56.3751V47.8788C67.6128 47.1861 67.7961 46.6378 68.1572 46.2471C68.5303 45.8438 69.0426 45.6308 69.638 45.6308C70.214 45.6308 70.7045 45.821 71.0961 46.1966C71.284 46.3761 71.4309 46.5913 71.5273 46.8283C71.8544 46.5588 72.2147 46.3289 72.6003 46.1439C73.2885 45.818 74.0591 45.653 74.891 45.653C75.7624 45.653 76.5297 45.8256 77.1711 46.1664C77.6227 46.4088 78.021 46.7329 78.3438 47.1209C78.7734 46.7113 79.2294 46.3868 79.7052 46.1529C80.3797 45.8213 81.134 45.653 81.9465 45.653Z" fill="#949494"/>
<path d="M91.9016 41.8384C91.5035 41.5158 90.9981 41.3406 90.4769 41.3446C89.9191 41.3446 89.424 41.5284 89.0054 41.8917C88.5763 42.2636 88.3496 42.7606 88.3496 43.3306C88.3496 43.9561 88.5696 44.4566 89.0033 44.8152C89.413 45.155 89.9088 45.3272 90.4769 45.3272C91.0323 45.3272 91.5204 45.1507 91.9275 44.806C92.3537 44.4422 92.5713 43.946 92.5713 43.3306C92.5713 42.537 92.2066 42.0813 91.9016 41.8384Z" fill="#949494"/>
<path d="M88.9221 46.2517C89.3097 45.8461 89.8357 45.6312 90.4428 45.6312C91.0543 45.6312 91.569 45.8376 91.9723 46.2446C92.3691 46.6445 92.5713 47.1866 92.5713 47.8565V56.4404C92.5713 57.1728 92.3708 57.7501 91.9775 58.1561C91.5733 58.5735 91.0553 58.7851 90.4428 58.7851C89.8304 58.7851 89.3016 58.5597 88.9134 58.1327C88.5391 57.7213 88.3496 57.1528 88.3496 56.4404V47.9427C88.3496 47.2192 88.5423 46.6504 88.9221 46.2517Z" fill="#949494"/>
<path d="M96.7383 41.214C96.1106 41.214 95.5777 41.4362 95.1969 41.8563C94.8308 42.2603 94.6458 42.8333 94.6458 43.559V56.4404C94.6458 57.1528 94.8356 57.7213 95.2096 58.1327C95.5978 58.5597 96.1269 58.7851 96.7391 58.7851C97.3606 58.7851 97.8789 58.5753 98.2795 58.1612C98.6689 57.7588 98.8663 57.1799 98.8663 56.4404V43.559C98.8663 42.8211 98.6718 42.2429 98.2877 41.8405C97.8906 41.4247 97.3688 41.214 96.7383 41.214Z" fill="#949494"/>
<path fill-rule="evenodd" clip-rule="evenodd" d="M111.451 53.6275C111.908 53.6275 112.293 53.7573 112.594 54.0129C112.815 54.2009 113.079 54.5458 113.08 55.1245C113.08 55.4938 112.946 55.8907 112.673 56.3381C112.418 56.7547 112.037 57.1539 111.54 57.5246C111.05 57.89 110.433 58.1954 109.708 58.431C108.984 58.6665 108.147 58.7858 107.22 58.7858C105.083 58.7858 103.386 58.1819 102.177 56.9908C100.973 55.8047 100.362 54.1885 100.362 52.1877C100.362 51.2533 100.51 50.3722 100.802 49.5679C101.099 48.7495 101.539 48.0357 102.113 47.4463C102.69 46.8527 103.408 46.3919 104.247 46.077C105.073 45.7673 105.997 45.6103 106.993 45.6103C108.299 45.6103 109.438 45.8815 110.391 46.4199C111.343 46.9584 112.068 47.6683 112.547 48.5294C113.02 49.3806 113.26 50.264 113.26 51.1545C113.26 52.1151 112.932 52.7648 112.286 53.0849C111.755 53.3487 111.054 53.477 110.145 53.477H104.692C104.74 53.8247 104.849 54.1623 105.013 54.4757C105.242 54.9032 105.533 55.2129 105.901 55.4232C106.273 55.6358 106.675 55.7392 107.128 55.7392C107.419 55.7425 107.71 55.7072 107.991 55.6344C108.253 55.5614 108.502 55.4515 108.73 55.3083C108.986 55.1507 109.229 54.9753 109.459 54.7837C109.693 54.5872 110.005 54.3132 110.385 53.9699L110.404 53.9531C110.667 53.7371 111.019 53.6275 111.451 53.6275ZM106.891 48.7543C106.277 48.7543 105.79 48.949 105.402 49.3491C105.092 49.6692 104.871 50.1261 104.743 50.7121H109.07C108.959 50.1146 108.747 49.655 108.438 49.3411C108.05 48.9462 107.544 48.7543 106.891 48.7543Z" fill="#949494"/>
<path d="M21.5798 53.701C22.0513 51.0718 23.343 49.3652 23.3974 49.2946L24.3353 48.0741C24.2855 47.3593 23.9995 46.6782 23.5188 46.1298C23.0382 45.5814 22.3878 45.1942 21.6622 45.0243C19.7776 44.5856 17.8775 45.6935 17.4211 47.5007C15.896 53.5094 18.6323 59.5263 23.7104 62.349C21.3114 58.98 21.1976 55.8413 21.5798 53.701Z" fill="#949494"/>
<path d="M40.0129 49.4056C40.2929 49.4054 40.5718 49.4375 40.8437 49.5015C41.2918 49.6059 41.7141 49.7939 42.0864 50.0549C42.4587 50.3159 42.7738 50.6447 43.0136 51.0225C43.2534 51.4003 43.4132 51.8198 43.4839 52.2568C43.5546 52.6939 43.5348 53.1401 43.4257 53.5698C41.8498 59.7869 36.2178 64 30.1127 64C29.0963 63.9999 28.0835 63.883 27.0961 63.6521C26.5366 63.5228 25.9873 63.3565 25.4519 63.1543C19.2292 56.1386 24.1038 49.7922 24.1038 49.7922C23.5903 53.1665 25.569 56.3641 28.7558 57.1089C29.2018 57.2129 29.6591 57.2654 30.118 57.2652C33.0539 57.2652 35.8059 55.1164 36.6035 51.9777C36.9926 50.4379 38.4301 49.4056 40.0129 49.4056Z" fill="#949494"/>
</g>
</svg>
