<svg width="200" height="100" viewBox="0 0 200 100" fill="none" xmlns="http://www.w3.org/2000/svg">
<mask id="mask0_2935_308" style="mask-type:alpha" maskUnits="userSpaceOnUse" x="0" y="0" width="200" height="100">
<rect width="200" height="100" fill="#222222"/>
</mask>
<g mask="url(#mask0_2935_308)">
<path d="M24.9811 45.6605C25.6839 41.3454 30.2551 37.709 34.6715 37.709H44.8352C42.2846 35.9997 39.1966 35 35.8699 35C31.4872 35 27.5188 36.7353 24.6481 39.5392C21.7767 42.3438 20 46.2197 20 50.4996C20 54.7796 21.7767 58.6555 24.6474 61.4601C24.8409 61.6491 25.0394 61.8325 25.2415 62.0109L26.4895 57.5469H35.1679L34.5039 59.9208L42.2493 55.4639L36.9949 51.0062L36.3259 53.4019H32.0029C27.6807 53.4019 24.2618 50.0648 24.9804 45.6605H24.9811Z" fill="#949494"/>
<path d="M37.1732 41.1452L29.4278 45.6015L34.6823 50.0584L35.3692 47.5981H39.7347C44.0735 47.5981 47.4729 50.9563 46.7579 55.3395C46.0544 59.6539 41.4854 63.291 37.0668 63.291H26.9031C29.4537 65.0003 32.5424 66 35.8699 66C40.2525 66 44.2202 64.2647 47.0916 61.4608C49.9631 58.6563 51.7397 54.7803 51.7397 50.5004C51.7397 46.2204 49.9631 42.3445 47.0916 39.5399C46.8874 39.3404 46.678 39.1464 46.4622 38.9582L45.2028 43.4664H36.5244L37.1732 41.1452Z" fill="#949494"/>
<path d="M65.762 46.4586L65.7618 46.46L65.7603 46.4586H65.762Z" fill="#949494"/>
<path d="M68.7001 46.4586H65.762C65.7813 46.3086 65.7949 46.1362 65.8049 45.9394C65.8143 45.742 65.8193 45.475 65.8193 45.1371C65.8193 44.3116 65.738 43.725 65.5741 43.3772C65.4108 43.0294 65.0223 42.8566 64.4073 42.8566C64.1383 42.8566 63.9168 42.8805 63.7442 42.9269C63.5708 42.9739 63.432 43.0814 63.3262 43.2507C63.2205 43.4201 63.1486 43.654 63.1105 43.9547C63.0716 44.2547 63.0529 44.6579 63.0529 45.1652C63.0529 45.6155 63.0572 45.9724 63.0666 46.2345C63.0759 46.4972 63.1004 46.7136 63.1385 46.8822C63.1773 47.0515 63.2349 47.1871 63.3118 47.2904C63.3881 47.3937 63.5039 47.511 63.6571 47.6424C63.888 47.83 64.1671 48.0225 64.4929 48.2199C64.8195 48.4166 65.1655 48.6042 65.5309 48.7826C65.8963 48.9611 66.2466 49.1388 66.5839 49.3173C66.9199 49.4957 67.2033 49.6594 67.4334 49.8097C67.7787 50.0353 68.0628 50.2601 68.2836 50.4856C68.5045 50.7104 68.6821 51.0062 68.8166 51.3722C68.9504 51.7382 69.0425 52.2167 69.09 52.8075C69.1382 53.3991 69.1619 54.1726 69.1619 55.1302C69.1619 56.4439 69.0799 57.5181 68.9174 58.3527C68.7541 59.1888 68.485 59.84 68.1103 60.3101C67.7362 60.7787 67.2414 61.0983 66.6264 61.2669C66.0114 61.4355 65.2424 61.5205 64.3203 61.5205C63.5132 61.5205 62.8313 61.4503 62.2739 61.3091C61.7164 61.1679 61.2554 60.9051 60.89 60.5208C60.5246 60.1365 60.2606 59.6012 60.0973 58.9162C59.934 58.2312 59.8527 57.3348 59.8527 56.2275C59.8527 55.7772 59.8722 55.3641 59.9103 54.9889C59.9484 54.6138 59.9966 54.2948 60.0549 54.0321H63.0234C62.9846 54.1817 62.9659 54.3602 62.9659 54.5674V55.2707C62.9659 55.8524 62.9903 56.3217 63.0378 56.6786C63.086 57.0348 63.163 57.3116 63.2687 57.5083C63.3744 57.7057 63.5183 57.8371 63.701 57.9017C63.8837 57.9678 64.1095 58.0008 64.3786 58.0008C64.667 58.0008 64.9073 57.9727 65.0993 57.9165C65.2914 57.861 65.4446 57.7338 65.5604 57.5371C65.6754 57.3397 65.7575 57.0488 65.8049 56.6638C65.8531 56.2795 65.8769 55.7491 65.8769 55.0732C65.8769 54.6798 65.8718 54.3651 65.8625 54.1304C65.8531 53.8958 65.8244 53.6991 65.7762 53.5396C65.728 53.3801 65.6618 53.2438 65.5741 53.1314C65.4877 53.019 65.3777 52.8876 65.2424 52.7373C64.9929 52.4935 64.6814 52.2588 64.3059 52.0333C63.9312 51.8085 63.542 51.5921 63.1385 51.3856C62.735 51.1797 62.3408 50.9633 61.9567 50.7385C61.5726 50.5137 61.246 50.2783 60.977 50.0346C60.7461 49.828 60.5541 49.6123 60.4001 49.3868C60.2469 49.1613 60.1268 48.8613 60.0398 48.4861C59.9534 48.111 59.8959 47.6227 59.8671 47.0227C59.8383 46.4221 59.8232 45.6338 59.8232 44.6572C59.8232 43.6807 59.9002 42.8039 60.0541 42.1379C60.2081 41.4719 60.4627 40.9415 60.818 40.5473C61.1734 40.1525 61.6438 39.8764 62.23 39.7169C62.817 39.5574 63.5413 39.4773 64.4066 39.4773C65.2719 39.4773 66.0538 39.5574 66.64 39.7169C67.2263 39.8764 67.6873 40.1391 68.024 40.5052C68.3606 40.8712 68.5908 41.3496 68.7152 41.9412C68.8404 42.532 68.9022 43.2592 68.9022 44.1226C68.9022 44.7233 68.8878 45.1968 68.8591 45.5439C68.8303 45.8916 68.7771 46.1965 68.7001 46.4586Z" fill="#949494"/>
<path d="M73.9172 61.1552V43.3639H70.8328V39.8448H80.5175V43.3639H77.4619V61.1552H73.9172Z" fill="#949494"/>
<path d="M82.8509 39.8448V61.1552H91.0365V57.4675H86.3963V51.9497H90.979V48.6H86.3963V43.3639H91.0645V39.8448H82.8509Z" fill="#949494"/>
<path d="M93.8597 61.1552V39.8448H102.074V43.3639H97.4052V48.6H101.988V51.9497H97.4052V57.4675H102.045V61.1552H93.8597Z" fill="#949494"/>
<path d="M104.869 39.8448V61.1552H112.679V57.4675H108.413V39.8448H104.869Z" fill="#949494"/>
<path d="M119.278 49.0503H111.352V51.8092H119.278V49.0503Z" fill="#949494"/>
<path d="M122.246 39.8448H125.878V61.1552H122.246V39.8448Z" fill="#949494"/>
<path d="M140.287 61.1552V46.4326H140.142C140.104 46.8078 140.047 47.1927 139.97 47.5869C139.893 47.981 139.806 48.3653 139.71 48.7412L136.972 61.1559H135.357L132.562 48.7131C132.485 48.3569 132.408 47.981 132.331 47.5876C132.254 47.1935 132.197 46.8085 132.158 46.4333H132.013V61.1559H128.815V39.8448H134.061L135.502 47.5581C135.637 48.2522 135.742 48.8346 135.819 49.3039C135.896 49.7732 135.963 50.2425 136.021 50.7111H136.194C136.252 50.2425 136.324 49.7732 136.411 49.3039C136.497 48.8346 136.607 48.2529 136.742 47.5581L138.269 39.8448H143.486V61.1552H140.287Z" fill="#949494"/>
<path fill-rule="evenodd" clip-rule="evenodd" d="M146.396 39.8448V61.1559H149.941V54.5119H151.93C152.757 54.5119 153.444 54.3805 153.991 54.1185C154.538 53.8557 154.971 53.4286 155.288 52.837C155.606 52.2462 155.826 51.4769 155.951 50.5292C156.075 49.5814 156.138 48.4222 156.138 47.0522C156.138 45.6823 156.076 44.5378 155.951 43.6182C155.826 42.6978 155.605 41.9566 155.288 41.3939C154.971 40.8305 154.539 40.4314 153.991 40.1968C153.444 39.9621 152.757 39.8448 151.93 39.8448H146.396ZM151.873 50.8945C151.719 51.0167 151.536 51.0778 151.325 51.0778L151.326 51.0785H149.942V43.3372H151.239C151.47 43.3372 151.667 43.3835 151.83 43.4777C151.993 43.5711 152.127 43.7496 152.233 44.0123C152.339 44.2751 152.42 44.646 152.478 45.1244C152.536 45.6029 152.565 46.2169 152.565 46.9679C152.565 47.7752 152.54 48.4454 152.493 48.9807C152.444 49.5154 152.367 49.9369 152.262 50.2467C152.156 50.5573 152.026 50.7722 151.873 50.8945Z" fill="#949494"/>
<path d="M158.702 61.1552V39.8448H166.917V43.3639H162.247V48.6H166.83V51.9497H162.247V57.4675H166.888V61.1552H158.702Z" fill="#949494"/>
<path d="M175.417 57.0453C175.629 58.0774 175.899 59.4473 176.224 61.1552V61.1545H180V61.0421L177.32 49.5568L179.625 39.9853V39.8448H176.196C175.888 41.2899 175.638 42.4435 175.446 43.3069C175.253 44.1711 175.11 44.8413 175.013 45.3205C174.917 45.7989 174.85 46.141 174.811 46.3476C174.773 46.5534 174.753 46.7136 174.753 46.826H174.494C174.494 46.7136 174.475 46.5541 174.436 46.3476C174.398 46.141 174.336 45.7989 174.249 45.3205C174.163 44.8413 174.038 44.1704 173.874 43.3069C173.711 42.4442 173.485 41.2899 173.197 39.8448H169.537V39.9853L171.757 49.5849L169.047 61.0428V61.1552H172.708C173.053 59.4473 173.332 58.0774 173.544 57.0453C173.755 56.0126 173.918 55.1962 174.034 54.5962C174.149 53.9955 174.231 53.5593 174.279 53.2867C174.327 53.0141 174.351 52.7843 174.351 52.5968H174.61C174.61 52.7843 174.634 53.0141 174.682 53.2867C174.73 53.5593 174.812 53.9955 174.927 54.5962C175.043 55.1969 175.206 56.0133 175.417 57.0453Z" fill="#949494"/>
</g>
</svg>
