<svg width="200" height="100" viewBox="0 0 200 100" fill="none" xmlns="http://www.w3.org/2000/svg">
<mask id="mask0_2935_244" style="mask-type:alpha" maskUnits="userSpaceOnUse" x="0" y="0" width="200" height="100">
<rect width="200" height="100" fill="#222222"/>
</mask>
<g mask="url(#mask0_2935_244)">
<path fill-rule="evenodd" clip-rule="evenodd" d="M88.205 66.818H54V33H88.205V66.818ZM74.8196 53.5832H82.9429L82.9416 46.2327H74.8183V38.2022H67.385V46.2327H59.2622V53.5832H67.385V61.6149H74.8196V53.5832Z" fill="#949494"/>
<path fill-rule="evenodd" clip-rule="evenodd" d="M111.344 56.2453C111.343 54.4703 110.778 53.0959 109.646 52.1222V52.1205C108.515 51.1487 106.912 50.6628 104.837 50.6628H97.9345V66.7464H101.606V62.1497H104.837C106.896 62.1494 108.495 61.6326 109.635 60.5992C110.774 59.5657 111.344 58.1144 111.344 56.2453ZM107.858 56.3602C107.857 57.2637 107.582 57.9491 107.032 58.4164L107.03 58.4181C106.481 58.8851 105.687 59.1186 104.65 59.1186H101.606V53.6715H104.65C105.687 53.6715 106.481 53.8975 107.032 54.3495C107.582 54.8015 107.858 55.4718 107.858 56.3602Z" fill="#949494"/>
<path fill-rule="evenodd" clip-rule="evenodd" d="M120.688 62.151L123.269 66.746L127.427 66.7451L123.965 61.4384C124.957 60.978 125.713 60.3072 126.232 59.4259C126.751 58.5447 127.01 57.4839 127.01 56.2436C127.012 54.4667 126.431 53.0923 125.268 52.1205C124.105 51.1487 122.462 50.6628 120.339 50.6628H113.275V66.7464H116.946V62.151H120.688ZM120.339 59.1186H116.946L116.946 53.6731H120.34C121.362 53.6731 122.149 53.8991 122.699 54.3512C123.248 54.8032 123.523 55.4734 123.523 56.3619C123.523 57.2657 123.248 57.9511 122.698 58.4181C122.148 58.8851 121.362 59.1186 120.339 59.1186Z" fill="#949494"/>
<path fill-rule="evenodd" clip-rule="evenodd" d="M144.803 54.4665C144.036 53.2029 142.987 52.211 141.654 51.4908C140.322 50.7708 138.842 50.4109 137.216 50.4109C135.574 50.4109 134.09 50.7708 132.765 51.4908C131.467 52.1852 130.384 53.2134 129.628 54.4665C128.861 55.7301 128.478 57.1353 128.478 58.6821C128.478 60.2445 128.861 61.6576 129.628 62.9214C130.395 64.1853 131.445 65.1808 132.777 65.908C134.11 66.6357 135.589 66.9997 137.216 67C138.842 67.0003 140.321 66.6364 141.654 65.9084C142.986 65.1801 144.036 64.1806 144.803 62.9098C145.571 61.639 145.954 60.2297 145.954 58.6821C145.954 57.1353 145.57 55.7301 144.803 54.4665ZM132.916 56.1074C133.352 55.3415 133.986 54.7037 134.752 54.2591C135.511 53.8118 136.378 53.5773 137.261 53.5807C138.134 53.574 138.991 53.8087 139.736 54.2583C140.486 54.7091 141.103 55.3467 141.526 56.1074C141.967 56.889 142.188 57.747 142.188 58.6813C142.188 59.6306 141.967 60.4999 141.526 61.2893C141.106 62.0554 140.489 62.6976 139.736 63.1501C138.991 63.6004 138.134 63.8353 137.261 63.8281C136.38 63.8328 135.515 63.5939 134.763 63.1384C134 62.6837 133.368 62.0428 132.928 61.2772C132.471 60.4964 132.242 59.6311 132.242 58.6813C132.242 57.7473 132.467 56.8893 132.916 56.1074Z" fill="#949494"/>
<path d="M120.223 45.159L117.395 36.9873L117.379 36.9419H116.271L113.427 45.159L110.584 36.9798H108.991C110.273 40.4549 111.552 43.9311 112.828 47.4084H113.989L116.815 39.4316L119.62 47.4084H120.783C122.064 43.9342 123.343 40.458 124.62 36.9798H123.066L120.223 45.159Z" fill="#949494"/>
<path d="M103.857 39.5804C105.495 39.9102 106.666 40.3708 107.428 41.0118C108.199 41.6598 108.554 42.4886 108.555 43.5486C108.555 44.7255 108.062 45.7192 107.218 46.4189C106.374 47.1186 105.177 47.5238 103.771 47.5238C102.679 47.5238 101.693 47.351 100.764 46.9866C99.8339 46.6222 98.9594 46.0645 98.087 45.2949L97.9092 45.1391L98.8941 44.0221L99.0756 44.1887C99.8469 44.8913 100.567 45.3794 101.326 45.6909C102.085 46.0025 102.888 46.1391 103.829 46.1391C104.783 46.1391 105.597 45.8808 106.161 45.4498C106.725 45.0187 107.054 44.4061 107.054 43.686C107.054 43.0459 106.91 42.5299 106.388 42.0996C105.855 41.6615 104.928 41.3058 103.37 40.9951C101.667 40.6561 100.467 40.1926 99.6915 39.5446C98.9067 38.889 98.5541 38.0531 98.5541 36.9495C98.5541 35.8458 99.0525 34.8837 99.8832 34.1995C100.714 33.5152 101.876 33.1062 103.199 33.1062C104.161 33.1062 104.993 33.2295 105.777 33.5035C106.562 33.7776 107.294 34.2024 108.052 34.8055L108.24 34.9541L107.287 36.1261L107.098 35.9641C106.501 35.4552 105.899 35.0866 105.257 34.8463C104.614 34.606 103.928 34.4923 103.162 34.4923C102.256 34.4923 101.472 34.7421 100.925 35.1528C100.378 35.5634 100.054 36.1415 100.054 36.8108C100.054 37.4647 100.202 37.9928 100.742 38.4351C101.293 38.8865 102.248 39.2543 103.857 39.5804Z" fill="#949494"/>
<path d="M144.911 42.3341C144.265 41.8839 143.404 41.6065 142.535 41.3654C141.762 41.1455 141.103 40.9402 140.639 40.6728C140.192 40.4133 139.929 40.0935 139.929 39.6387C139.929 39.2043 140.134 38.8349 140.487 38.5737C140.84 38.3126 141.357 38.1539 141.962 38.1539C142.464 38.1584 142.963 38.2409 143.44 38.3984C143.957 38.5672 144.45 38.8039 144.904 39.1023L145.108 39.2359L145.873 38.0407L145.678 37.9111C145.127 37.555 144.528 37.2782 143.899 37.089C143.284 36.8966 142.643 36.795 141.998 36.7875C140.976 36.7875 140.093 37.0998 139.465 37.6321C139.148 37.8974 138.894 38.2288 138.721 38.6024C138.549 38.9761 138.462 39.3828 138.466 39.7936C138.466 41.7038 140.333 42.2376 141.98 42.7085L141.982 42.709L142.07 42.7335C142.753 42.9243 143.378 43.1188 143.828 43.3957C144.265 43.6644 144.538 44.0134 144.538 44.5181C144.538 44.9987 144.318 45.4073 143.941 45.6955C143.563 45.9837 143.014 46.1578 142.37 46.1578C141.771 46.1567 141.177 46.051 140.616 45.8454C140.009 45.6202 139.441 45.3049 138.931 44.9105L138.736 44.763L137.888 45.8954L138.067 46.0383C138.628 46.4902 139.325 46.8621 140.063 47.1211C140.801 47.3802 141.582 47.5259 142.312 47.5259C143.38 47.5259 144.302 47.1969 144.957 46.6372C145.289 46.3568 145.554 46.0077 145.734 45.6147C145.915 45.2216 146.005 44.7943 146 44.3628C146 43.4215 145.567 42.7906 144.911 42.3341Z" fill="#949494"/>
<path d="M133.657 41.3641C134.528 41.6065 135.389 41.8839 136.035 42.3341C136.69 42.7906 137.124 43.4215 137.124 44.3628C137.129 44.7943 137.038 45.2218 136.858 45.6147C136.677 46.0077 136.412 46.3566 136.079 46.6368C135.424 47.1969 134.502 47.5259 133.434 47.5259C132.704 47.5259 131.923 47.3802 131.185 47.1211C130.447 46.8621 129.75 46.4902 129.19 46.0383L129.011 45.895L129.861 44.763L130.055 44.9105C130.566 45.3048 131.134 45.6201 131.74 45.8454C132.302 46.051 132.896 46.1567 133.494 46.1578C134.138 46.1578 134.688 45.9837 135.065 45.6955C135.443 45.4073 135.663 44.9987 135.663 44.5181C135.663 44.0134 135.39 43.6644 134.952 43.3957C134.502 43.1188 133.878 42.9243 133.194 42.7335L133.106 42.709C131.459 42.2379 129.591 41.7036 129.591 39.7936C129.586 39.3828 129.673 38.9761 129.846 38.6025C130.018 38.2288 130.272 37.8975 130.589 37.6321C131.217 37.0998 132.1 36.7875 133.122 36.7875C133.767 36.7951 134.407 36.8967 135.023 37.089C135.652 37.2782 136.25 37.5551 136.801 37.9111L136.997 38.0407L136.229 39.2343L136.024 39.101C135.57 38.8027 135.077 38.566 134.56 38.3972C134.083 38.2396 133.584 38.1571 133.081 38.1527C132.479 38.1527 131.968 38.3072 131.609 38.5725C131.257 38.8336 131.051 39.2026 131.051 39.6374C131.051 40.0922 131.314 40.4121 131.762 40.6715C132.225 40.9389 132.884 41.1442 133.657 41.3641Z" fill="#949494"/>
<path d="M126.054 47.3318H127.496V36.9811H126.054V47.3318Z" fill="#949494"/>
<path d="M125.937 34.8817V33.1075H127.613V34.8817H125.937Z" fill="#949494"/>
</g>
</svg>
