<svg width="200" height="100" viewBox="0 0 200 100" fill="none" xmlns="http://www.w3.org/2000/svg">
<mask id="mask0_1429_270" style="mask-type:alpha" maskUnits="userSpaceOnUse" x="0" y="0" width="200" height="100">
<rect width="200" height="100" fill="#222222"/>
</mask>
<g mask="url(#mask0_1429_270)">
<path d="M130.917 58.075L128.453 60.7668V66.5284H120.096V33H128.453V50.3305L135.796 41.9722H145.7L136.038 52.4556L146.714 66.5253H137.584L130.917 58.075Z" fill="#949494"/>
<path d="M60.5819 59.2555V65.44C59.6163 66.479 57.3458 66.8091 55.4612 66.8091C50.437 66.8091 46.8142 64.4481 46.8142 58.3092V48.3947H43V41.9722H46.8166V35.691H55.1741V41.9722H60.4854V48.3947H55.1718V57.0801C55.1718 58.2134 55.8479 59.6312 58.2149 59.6312C59.0188 59.6236 59.8169 59.4969 60.5819 59.2555Z" fill="#949494"/>
<path fill-rule="evenodd" clip-rule="evenodd" d="M62.3209 54.2499C62.3209 45.6558 68.601 41.4998 74.2049 41.4998C78.6011 41.4998 80.9681 43.8607 81.1642 44.2828H81.3097V41.969H89.6641V66.5284H81.3066V64.2139H81.1611C80.9681 64.6391 78.6011 66.9969 74.2017 66.9969C68.601 67 62.3209 62.8448 62.3209 54.2499ZM81.4995 54.2499C81.4995 50.7557 78.987 48.7248 75.9921 48.7248C73.0937 48.7248 70.5354 50.8028 70.5354 54.2499C70.5354 57.697 73.0961 59.775 75.9921 59.775C78.987 59.775 81.4995 57.7449 81.4995 54.2499Z" fill="#949494"/>
<path d="M106.185 41.4998C99.4207 41.4998 92.7057 45.8916 92.7057 54.2027C92.7057 62.609 99.4207 67 106.188 67C110.628 67 114.492 64.9228 117.054 60.9554L111.018 57.0832C109.905 58.453 108.361 59.6807 106.188 59.6807C103.289 59.6807 100.922 57.5084 100.922 54.2027C100.922 50.9914 103.289 48.8199 106.188 48.8199C108.358 48.8199 109.905 50.0452 111.012 51.4166L117.054 47.5444C114.493 43.4835 110.628 41.4998 106.185 41.4998Z" fill="#949494"/>
<path d="M152.314 57.8392C149.802 57.8392 147.628 59.6366 147.628 62.4196C147.628 65.2057 149.805 67 152.314 67C154.778 67 157 65.2057 157 62.4196C157 59.6335 154.778 57.8392 152.314 57.8392Z" fill="#949494"/>
</g>
</svg>
