<svg width="200" height="100" viewBox="0 0 200 100" fill="none" xmlns="http://www.w3.org/2000/svg">
<mask id="mask0_2981_81" style="mask-type:alpha" maskUnits="userSpaceOnUse" x="0" y="0" width="200" height="100">
<rect width="200" height="100" fill="#222222"/>
</mask>
<g mask="url(#mask0_2981_81)">
<path fill-rule="evenodd" clip-rule="evenodd" d="M38.2331 38.6656H35.4464L34.8342 40.828H32.7053L35.4753 31.1522H38.4128L41.0838 40.828H38.7844L38.2331 38.6656ZM36.9113 32.8191H36.7575L35.8255 37.0277H37.8296L36.9113 32.8191Z" fill="#949494"/>
<path d="M36.8078 40.5359C36.7743 40.5359 34.8677 42.5898 34.8677 44.2368C34.8677 46.0185 36.252 46.4436 36.7179 46.4436C36.7377 46.4436 36.7697 46.4405 36.8002 46.439H36.8185L36.8478 46.4409L36.8523 46.4412C36.8696 46.4424 36.8857 46.4436 36.9007 46.4436C37.3682 46.4436 38.7509 46.0169 38.7509 44.2368C38.7509 42.5913 36.8398 40.5359 36.8093 40.5359H36.8078Z" fill="#949494"/>
<path d="M24.6008 59.9595L24.5643 59.9855L21.4882 62.567L21.9907 63.1634L25.0942 60.5575L24.6008 59.9595Z" fill="#949494"/>
<path d="M21.9405 57.4071C21.699 57.533 21.3399 57.72 21.2613 57.7589L21.2598 57.7574C21.3237 57.8767 22.012 59.2102 22.012 59.2102L21.444 59.539C21.444 59.539 20.7466 58.1764 20.6872 58.0617C20.5654 58.1213 19.1156 58.8737 19.1156 58.8737L18.77 58.1825L22.3197 56.3275L22.3592 56.3076C22.3592 56.3076 22.6729 56.9774 22.9288 57.4531C23.1816 57.9287 23.5288 58.5036 23.5288 58.5036L22.9684 58.8325C22.9684 58.8325 22.5435 58.1198 22.1521 57.2971C22.1209 57.3132 22.0409 57.3549 21.9405 57.4071Z" fill="#949494"/>
<path d="M20.9918 47.2924H24.6556V45.5964H20.9918V43.3498H24.7759V41.66H18.8111V51.3358H20.9918V47.2924Z" fill="#949494"/>
<path d="M30.0373 64.2736L29.7845 64.8777C29.7845 64.8777 30.316 65.1637 31.082 65.4497C31.0591 65.5161 30.7816 66.3168 30.5098 67.1007L29.9718 68.652L30.7028 68.9058C30.7028 68.9058 31.7703 65.8427 31.8175 65.7066C32.6383 65.9589 33.1424 66.0492 33.1424 66.0492L33.3266 65.4313C32.7982 65.3136 32.2591 65.1423 31.6241 64.9206C30.6936 64.6009 30.0373 64.2721 30.0373 64.2721V64.2736Z" fill="#949494"/>
<path fill-rule="evenodd" clip-rule="evenodd" d="M23.6521 64.8578L27.4379 62.7168V62.7184L27.4775 62.6939L28.0911 63.1359L27.2947 67.4331L26.5896 67.0264C26.5896 67.0264 26.7663 66.1501 26.7876 66.066C26.7764 66.0567 26.7271 66.0254 26.6521 65.9779C26.4922 65.8767 26.216 65.7019 25.9455 65.5093C25.7141 65.3434 25.4867 65.1659 25.3271 65.0394L25.2715 64.9952L25.2101 64.9462C25.1554 64.9025 25.1197 64.874 25.1095 64.867C25.0786 64.8856 24.9318 64.9728 24.7684 65.0697L24.2536 65.3747L23.6521 64.8578ZM26.2912 64.9893C26.5683 65.1836 26.8455 65.3671 26.9262 65.4038V65.4053C26.9347 65.3664 26.9546 65.2702 26.9811 65.1405L27.0803 64.6529C27.1716 64.2033 27.2745 63.6966 27.3069 63.5503C27.0769 63.6879 25.845 64.422 25.6836 64.5199C25.7551 64.581 26.0186 64.7952 26.2912 64.9893Z" fill="#949494"/>
<path d="M54.9324 55.1147C54.1835 54.8625 53.7207 55.333 53.3462 55.7137L53.3456 55.7142C53.0776 55.9895 52.8461 56.225 52.575 56.1332C52.4593 56.0965 52.3771 56.0262 52.3329 55.9329C52.24 55.754 52.2964 55.5169 52.3421 55.3931C52.4365 55.1224 52.5248 54.9985 52.7228 54.7569L52.7837 54.685L52.1761 54.3684L52.1411 54.4173C51.9644 54.6406 51.8106 54.9266 51.7208 55.205C51.5776 55.6194 51.5837 56.0139 51.736 56.3244C51.8609 56.5783 52.0847 56.7679 52.3832 56.8688C53.0624 57.1013 53.4735 56.673 53.8329 56.2938L53.8351 56.2915C54.1296 55.9881 54.3835 55.7267 54.7192 55.8442C55.1273 55.9818 55.1349 56.4375 55.0405 56.7067C54.943 57.0126 54.6796 57.3199 54.6065 57.4102L54.5441 57.4836L55.173 57.7772L55.2095 57.7298L55.223 57.711C55.3792 57.493 55.5473 57.2585 55.6405 56.982C55.9557 56.0552 55.6968 55.3762 54.9354 55.1163L54.9324 55.1147Z" fill="#949494"/>
<path d="M48.7757 60.3786C48.7757 60.3786 50.6868 62.0287 51.0096 62.3376C50.5741 62.2229 47.8056 61.3925 47.8056 61.3925L47.1295 62.0012L50.0122 64.9436L50.5497 64.4556C50.5497 64.4556 48.7696 62.5716 48.4467 62.2596C48.8807 62.3774 51.7497 63.2185 51.7497 63.2185L52.301 62.5701L49.2401 59.828L48.7741 60.377L48.7757 60.3786Z" fill="#949494"/>
<path d="M53.8237 60.4719L50.2604 58.4012L50.6395 57.7833L54.1847 59.8479L53.8237 60.4719Z" fill="#949494"/>
<path fill-rule="evenodd" clip-rule="evenodd" d="M44.6381 63.7339L45.2275 68.0526L45.8975 67.7314C45.8975 67.7314 45.7605 66.8673 45.7437 66.7741C45.752 66.7692 45.7761 66.7567 45.8125 66.7379L45.8146 66.7367C45.9523 66.6654 46.2597 66.506 46.5493 66.3306C46.8128 66.1745 47.063 66.0058 47.2107 65.9063L47.2693 65.867C47.2942 65.8502 47.3137 65.8373 47.327 65.829L47.3362 65.8233L47.3427 65.8198C47.3652 65.8366 47.4537 65.9038 47.5634 65.9873L48.1178 66.4101L48.7406 65.9696L45.232 63.3882L44.6381 63.7339ZM46.8142 65.4115C46.7635 65.4521 46.6868 65.5046 46.591 65.5664C46.5027 65.6234 46.3982 65.6882 46.2828 65.7586C46.0117 65.9222 45.7406 66.0706 45.6356 66.1226C45.6082 65.9436 45.3965 64.578 45.3508 64.2905C45.5777 64.4679 46.6742 65.3044 46.8158 65.4115H46.8142Z" fill="#949494"/>
<path fill-rule="evenodd" clip-rule="evenodd" d="M52.0071 51.5025C49.2371 51.5025 47.9244 49.3416 47.9244 46.4987C47.9244 43.6557 49.2295 41.4948 52.0071 41.4948C54.7847 41.4948 56.1126 43.6557 56.1126 46.4987C56.1126 49.3416 54.7771 51.5025 52.0071 51.5025ZM53.7933 46.4987C53.7933 44.6421 53.3197 43.1312 52.0071 43.1312C50.7005 43.1312 50.2467 44.6405 50.2467 46.4987C50.2467 48.3568 50.6929 49.8692 52.0071 49.8692C53.3212 49.8692 53.7933 48.3552 53.7933 46.4987Z" fill="#949494"/>
<path fill-rule="evenodd" clip-rule="evenodd" d="M42.8183 65.0918C42.4909 64.919 42.0432 64.9175 41.5057 65.0842L40.4305 65.4191L41.6336 69.3341L42.3432 69.1505C42.3432 69.1505 41.9168 67.7742 41.8757 67.6457C41.9201 67.6324 42.0086 67.6053 42.0967 67.5782C42.2203 67.5401 42.3432 67.502 42.3432 67.502C43.0574 67.2757 43.4534 66.8306 43.4534 66.2632C43.4534 66.1256 43.4275 65.9834 43.3803 65.8335C43.2752 65.4818 43.0818 65.2325 42.8168 65.0933L42.8183 65.0918ZM42.6371 66.5094C42.5168 66.7419 42.2625 66.8429 42.1559 66.875C42.1559 66.875 41.8331 66.979 41.6838 67.0218L41.6698 66.9768C41.6003 66.7529 41.3475 65.9384 41.3153 65.8289C41.3618 65.8141 41.4493 65.7865 41.53 65.7611L41.7082 65.7051C41.8925 65.65 42.1848 65.621 42.4041 65.7372C42.532 65.8045 42.6158 65.9115 42.663 66.0522C42.6828 66.1256 42.6965 66.1945 42.6965 66.2602C42.6965 66.3129 42.6889 66.3641 42.6745 66.4126C42.6647 66.4457 42.6517 66.4776 42.6356 66.5079L42.6371 66.5094Z" fill="#949494"/>
<path fill-rule="evenodd" clip-rule="evenodd" d="M13 50.0007C13 36.7678 23.7222 26 36.8991 26C50.0776 26 60.7968 36.7662 60.7968 50.0007C60.7968 63.2353 50.0761 74 36.8991 74C23.7222 74 13 63.2338 13 50.0007ZM46.3802 30.8968C43.5249 29.4638 40.3057 28.6518 36.8991 28.6518C33.4941 28.6518 30.2749 29.4623 27.4165 30.8968C29.3444 35.0519 33.9601 45.0046 33.9982 45.0734L34.0034 45.0845C34.0062 45.0904 34.0096 45.0971 34.0119 45.1009C34.4407 45.9441 34.9568 46.3529 35.4301 46.7278C35.9921 47.173 36.4939 47.5705 36.7179 48.5908L36.8184 49.4013H36.9768L37.0773 48.5908C37.3007 47.5699 37.8039 47.1726 38.3681 46.727C38.8426 46.3523 39.3603 45.9435 39.791 45.1009C39.792 45.0995 39.7932 45.0975 39.7946 45.0951L39.7994 45.0866C39.803 45.0798 39.8062 45.0734 39.8062 45.0734C39.83 45.0135 43.3238 37.4838 45.503 32.7874L46.3802 30.8968ZM26.8506 31.1948C26.3261 31.4804 25.8137 31.7874 25.312 32.1157C27.2658 36.5215 33.2337 49.9809 33.2383 49.9977C33.7719 51.1265 34.5331 51.6295 35.1976 52.0687C35.7089 52.4065 36.1629 52.7065 36.4118 53.2245C36.7382 53.8931 36.7825 54.4957 36.7901 54.5992L36.791 54.6116H37.0088L37.0096 54.6009C37.0173 54.5025 37.0641 53.8969 37.388 53.2245C37.6375 52.7068 38.0914 52.4068 38.6024 52.0693C39.2672 51.63 40.0286 51.127 40.5615 49.9977C40.5625 49.994 40.8401 49.3672 41.2946 48.3418L43.7958 42.7004C45.5328 38.7832 47.5126 34.3182 48.4878 32.1157C47.9914 31.7868 47.4751 31.4779 46.9467 31.1935L40.4245 46.0368C40.5138 47.2561 40.4725 47.5583 40.4005 48.0841L40.4002 48.0868C40.39 48.1611 40.3792 48.2398 40.3681 48.3262C40.1351 50.1705 38.3458 51.602 36.9174 51.9246H36.887C35.4509 51.602 33.6616 50.169 33.4286 48.3262C33.4177 48.2347 33.4071 48.1517 33.3971 48.0736C33.3303 47.5531 33.2912 47.2482 33.3799 46.0368L26.8506 31.1948ZM35.8804 71.3237C36.0083 70.3878 36.1347 68.8845 36.1347 67.1243V66.8276C36.1347 64.3501 36.0449 63.5136 34.3972 62.9646C31.8541 62.1173 30.814 59.2683 31.3713 55.7172L22.8618 33.9844C18.4365 37.9025 15.6436 43.6282 15.6436 50.0007C15.6436 61.4307 24.6374 70.79 35.8804 71.3237ZM36.7758 60.5972H37.0286C37.0286 60.5972 37.0332 60.322 37.1748 59.6919C37.4567 58.4119 38.1726 58.0149 38.9823 57.566C39.8173 57.103 40.7518 56.5849 41.4128 54.9863C41.4176 54.9725 43.4749 50.0695 45.655 44.8737C47.5994 40.2395 49.6416 35.3725 50.4126 33.5333C49.9573 33.1586 49.4868 32.7977 48.9979 32.4598L41.5498 50.8251C41.5498 53.5762 40.292 56.673 36.9052 57.4667H36.8915C33.5063 56.673 32.25 53.5762 32.25 50.8251L24.7988 32.4598C24.313 32.7977 23.841 33.1586 23.3841 33.5333C25.0227 37.4345 32.3779 54.9603 32.387 54.9863C33.0474 56.585 33.9829 57.1032 34.8188 57.5662C35.6293 58.0151 36.3462 58.4121 36.6281 59.6919C36.7667 60.322 36.7758 60.5972 36.7758 60.5972ZM37.6621 67.1258C37.6621 68.886 37.7946 70.3893 37.9149 71.3252V71.3237C49.167 70.7885 58.1577 61.4307 58.1577 50.0007C58.1577 43.6282 55.3603 37.9025 50.9411 33.9844L42.4239 55.7188C42.9904 59.2698 41.9427 62.1204 39.3996 62.9662C37.7535 63.5151 37.6621 64.3516 37.6621 66.8291V67.1258Z" fill="#949494"/>
<path d="M74.2722 36.3793H71.3743V40.4946H69.6489V31.0436H74.4077V32.4261H71.3743V34.9983H74.2722V36.3793Z" fill="#949494"/>
<path fill-rule="evenodd" clip-rule="evenodd" d="M78.1798 40.6032C79.596 40.6032 81.2269 39.9258 81.2269 37.0017C81.2269 34.0777 79.5944 33.414 78.1798 33.414C76.7651 33.414 75.1204 34.1588 75.1204 37.0017C75.1204 39.8447 76.7635 40.6032 78.1798 40.6032ZM78.1798 34.6053C79.2594 34.6053 79.5016 35.838 79.5016 37.0017C79.5016 38.1655 79.2594 39.4104 78.1798 39.4104C77.1001 39.4104 76.8458 38.164 76.8458 37.0017C76.8458 35.8395 77.1016 34.6053 78.1798 34.6053Z" fill="#949494"/>
<path fill-rule="evenodd" clip-rule="evenodd" d="M88.4633 37.0017C88.4633 39.9258 86.8324 40.6032 85.4162 40.6032C84 40.6032 82.3569 39.8447 82.3569 37.0017C82.3569 34.1588 84.0015 33.414 85.4162 33.414C86.8309 33.414 88.4633 34.0777 88.4633 37.0017ZM86.738 37.0017C86.738 35.838 86.4959 34.6053 85.4162 34.6053C84.3381 34.6053 84.0822 35.8395 84.0822 37.0017C84.0822 38.164 84.3365 39.4104 85.4162 39.4104C86.4959 39.4104 86.738 38.1655 86.738 37.0017Z" fill="#949494"/>
<path fill-rule="evenodd" clip-rule="evenodd" d="M92.0329 40.6032C93.1126 40.6032 93.6105 40.0068 93.88 39.4119H93.9212C93.9212 39.886 93.9471 40.2928 93.9745 40.4946H95.5369C95.4973 40.2378 95.4836 39.8034 95.4836 39.3033V30.3401H93.8115V34.5243H93.7856C93.5435 33.9814 92.9892 33.414 91.9917 33.414C90.4948 33.414 89.5933 34.7414 89.5933 37.0155C89.5933 38.9516 90.3075 40.6032 92.0329 40.6032ZM92.5171 34.6466C93.4339 34.6466 93.8115 35.6346 93.8115 36.9895C93.8115 38.3444 93.475 39.3721 92.4912 39.3721C91.5075 39.3721 91.2654 38.5601 91.2654 36.9498C91.2654 35.555 91.5882 34.6481 92.5186 34.6481L92.5171 34.6466Z" fill="#949494"/>
<path fill-rule="evenodd" clip-rule="evenodd" d="M103.057 33.414C105.213 33.414 105.712 34.4708 105.712 36.2157L105.711 36.2142V39.2605C105.711 39.7606 105.766 40.2209 105.805 40.4916H104.295C104.214 40.2224 104.2 39.8829 104.2 39.5449H104.173C103.756 40.1139 103.232 40.6017 102.233 40.6017C101.153 40.6017 100.157 39.8569 100.157 38.557C100.157 36.6623 101.694 36.1882 103.81 36.1882H104.148V35.9297C104.148 35.24 103.81 34.6038 102.854 34.6038C102.016 34.6038 101.276 35.0106 100.952 35.2813L100.858 33.9278C101.331 33.7123 101.991 33.414 103.057 33.414ZM102.787 39.4654C103.784 39.4654 104.148 38.7207 104.148 37.4758V37.0843H104.001C102.571 37.0843 101.721 37.381 101.721 38.3965C101.721 39.0327 102.14 39.4654 102.787 39.4654Z" fill="#949494"/>
<path d="M107.261 40.4946H108.932V36.4329C108.932 35.5397 109.242 34.7949 110.118 34.7949C110.806 34.7949 111.076 35.2416 111.076 36.3121V40.4946H112.746V36.0001C112.746 34.5931 112.274 33.414 110.698 33.414C109.565 33.414 109.095 34.1725 108.851 34.5916H108.823C108.823 34.3777 108.809 34.1588 108.794 33.9409C108.785 33.8004 108.776 33.6604 108.77 33.5226H107.208C107.247 33.8331 107.261 34.2398 107.261 34.6726V40.4946Z" fill="#949494"/>
<path fill-rule="evenodd" clip-rule="evenodd" d="M119.955 30.3401V39.3033H119.957C119.957 39.8034 119.971 40.2378 120.01 40.4946H118.448C118.441 40.4489 118.435 40.3925 118.429 40.3271C118.425 40.2837 118.421 40.2363 118.417 40.1854C118.403 39.9757 118.393 39.7068 118.393 39.4119H118.352C118.082 40.0068 117.584 40.6032 116.505 40.6032C114.779 40.6032 114.065 38.9516 114.065 37.0155C114.065 34.7414 114.967 33.414 116.463 33.414C117.462 33.414 118.015 33.9814 118.257 34.5243H118.283V30.3401H119.955ZM115.736 36.9482C115.736 38.5586 115.993 39.3706 116.963 39.3706V39.3721C117.947 39.3721 118.283 38.3444 118.283 36.9895C118.283 35.6346 117.919 34.6466 116.989 34.6466C116.058 34.6466 115.736 35.5535 115.736 36.9482Z" fill="#949494"/>
<path fill-rule="evenodd" clip-rule="evenodd" d="M125.98 38.2191H129.213L129.875 40.4931H131.655L128.622 31.0436H126.735L123.58 40.4931H125.305L125.98 38.2191ZM127.635 32.4781H127.661L128.847 36.8917H126.34L127.635 32.4781Z" fill="#949494"/>
<path fill-rule="evenodd" clip-rule="evenodd" d="M136.559 39.3171C136.288 39.8585 135.817 40.4946 134.724 40.4946C133.754 40.4946 132.298 39.8447 132.298 37.0293C132.298 35.1069 132.985 33.414 134.804 33.414C135.817 33.414 136.288 33.9967 136.638 34.6053H136.691C136.691 34.2398 136.732 33.8881 136.746 33.5226H138.255C138.229 33.8881 138.202 34.2536 138.202 34.6191V39.7637C138.202 41.9429 137.541 43.4998 134.993 43.4998C133.888 43.4998 133.012 43.2152 132.608 43.0669L132.701 41.5774C133.093 41.7945 133.874 42.1738 134.751 42.1738C136.327 42.1738 136.584 41.0773 136.584 39.9808V39.3171H136.559ZM136.584 36.9207C136.584 35.4602 136.032 34.6742 135.237 34.6879V34.6864C134.36 34.7002 134.023 35.5122 134.023 36.9345C134.023 38.5723 134.548 39.2636 135.115 39.2636C136.166 39.2636 136.584 38.505 136.584 36.9207Z" fill="#949494"/>
<path d="M139.778 40.4946H141.448V36.6775C141.448 35.3776 142.202 34.9586 142.891 34.9586C143.066 34.9586 143.213 34.9861 143.363 35.0259V33.4537C143.332 33.4493 143.303 33.4437 143.274 33.438C143.213 33.426 143.153 33.414 143.079 33.414C142.041 33.414 141.517 34.2536 141.314 34.7949H141.287C141.287 34.7478 141.286 34.7006 141.286 34.6533C141.285 34.6148 141.284 34.5763 141.283 34.5377C141.28 34.4525 141.276 34.3669 141.272 34.2813C141.27 34.2403 141.268 34.1994 141.265 34.1584L141.258 34.0236C141.248 33.8558 141.239 33.6882 141.234 33.5226H139.725C139.749 33.7122 139.763 33.9378 139.771 34.1832C139.774 34.2881 139.776 34.3965 139.777 34.5073L139.778 34.5912L139.778 34.6726V40.4946Z" fill="#949494"/>
<path d="M144.626 33.5226H146.299V40.4946H144.626V33.5226Z" fill="#949494"/>
<path d="M146.326 30.5573H144.601V32.2089H146.326V30.5573Z" fill="#949494"/>
<path d="M152.688 40.3188C152.298 40.4671 151.718 40.6032 151.044 40.6032H151.042C148.75 40.6032 147.78 39.0051 147.78 37.0155C147.78 35.0259 148.804 33.414 151.137 33.414C151.663 33.414 152.283 33.5776 152.594 33.6984L152.5 35.0259C152.203 34.876 151.785 34.6864 151.325 34.6864C150.06 34.6864 149.507 35.5397 149.507 37.0293C149.507 38.3292 150.127 39.3309 151.408 39.3309C151.811 39.3309 152.364 39.1413 152.594 38.9929L152.688 40.3188Z" fill="#949494"/>
<path d="M157.525 33.5226V37.5171C157.525 38.4102 157.267 39.2238 156.378 39.2238C155.678 39.2238 155.382 38.7772 155.382 37.7083V33.5241H153.712V38.0187C153.712 39.4272 154.182 40.6048 155.76 40.6048C156.852 40.6048 157.283 39.9411 157.607 39.4272L157.593 39.4134L157.633 39.4272C157.633 39.779 157.672 40.1444 157.688 40.4962H159.252C159.212 40.1857 159.198 39.779 159.198 39.3462V33.5226H157.525Z" fill="#949494"/>
<path d="M160.866 30.3401H162.538V40.4946H160.866V30.3401Z" fill="#949494"/>
<path d="M167.889 40.3723V39.181C167.769 39.2483 167.551 39.3309 167.256 39.3309C166.77 39.3309 166.502 39.1137 166.502 38.3689V34.7536H167.889V33.5226H166.502V31.5727L164.83 32.0881V33.5226H163.724V34.7536H164.83V38.5708C164.83 40.0343 165.53 40.6032 166.77 40.6032C167.269 40.6032 167.633 40.4946 167.889 40.3723Z" fill="#949494"/>
<path d="M172.834 39.4119L172.847 39.4257V39.4272C172.525 39.9411 172.094 40.6048 171 40.6048C169.423 40.6048 168.952 39.4272 168.952 38.0187V33.5241H170.623V37.7083C170.623 38.7772 170.92 39.2238 171.62 39.2238C172.509 39.2238 172.767 38.4102 172.767 37.5171V33.5226H174.439V39.3446C174.439 39.7774 174.451 40.1842 174.492 40.4946H172.928C172.922 40.362 172.913 40.2274 172.904 40.0924C172.9 40.0355 172.896 39.9786 172.893 39.9218C172.888 39.8515 172.884 39.7813 172.881 39.7113C172.879 39.6695 172.877 39.6278 172.876 39.5862L172.875 39.5602C172.875 39.5483 172.875 39.5364 172.874 39.5244L172.874 39.4755C172.873 39.4588 172.873 39.4423 172.873 39.4257L172.834 39.4119Z" fill="#949494"/>
<path d="M177.536 34.7949H177.509C177.509 34.594 177.5 34.3898 177.489 34.1854C177.477 33.9636 177.463 33.7415 177.456 33.5226H175.946C175.986 33.8331 176 34.2398 176 34.6726V40.4946H177.672V36.6775C177.672 35.3776 178.427 34.9586 179.114 34.9586C179.147 34.9586 179.179 34.9596 179.21 34.9614C179.228 34.9624 179.245 34.9637 179.262 34.9653C179.304 34.9692 179.345 34.9746 179.386 34.9814C179.425 34.988 179.463 34.9958 179.501 35.0046C179.529 35.0112 179.558 35.0184 179.586 35.0259V33.4537C179.492 33.44 179.411 33.414 179.301 33.414C178.263 33.414 177.739 34.2536 177.536 34.7949Z" fill="#949494"/>
<path fill-rule="evenodd" clip-rule="evenodd" d="M183.222 33.414C184.719 33.414 186 34.2949 186 37.1379L185.999 37.1394V37.4636H181.983C181.983 38.6533 182.453 39.3721 183.748 39.3721C184.771 39.3721 185.257 39.0602 185.566 38.8308L185.648 40.1567C185.298 40.305 184.57 40.6032 183.573 40.6032C181.334 40.6032 180.364 38.9929 180.364 37.1103C180.364 35.0259 181.456 33.414 183.222 33.414ZM183.224 34.5518C182.348 34.5518 181.984 35.4862 181.984 36.4068H184.384C184.384 35.1742 183.979 34.5518 183.224 34.5518Z" fill="#949494"/>
<path fill-rule="evenodd" clip-rule="evenodd" d="M73.0189 46.2081C71.0636 46.2081 69.2713 47.6701 69.2713 51.0682C69.2713 54.4663 71.0652 55.9283 73.0189 55.9283C74.9727 55.9283 76.7666 54.4663 76.7666 51.0682C76.7666 47.6701 74.9742 46.2081 73.0189 46.2081ZM73.0189 54.6024C71.9271 54.6024 71.0499 53.668 71.0499 51.0682C71.0499 48.4684 71.9271 47.5356 73.0189 47.5356C74.1108 47.5356 74.9879 48.47 74.9879 51.0682C74.9879 53.6665 74.1108 54.6024 73.0189 54.6024Z" fill="#949494"/>
<path d="M79.7011 50.0924H79.7285V50.0955C79.931 49.5542 80.4564 48.7146 81.495 48.7146C81.6046 48.7146 81.6838 48.7406 81.7797 48.7543V50.3249C81.6305 50.2852 81.4812 50.2576 81.3061 50.2576C80.6193 50.2576 79.864 50.6767 79.864 51.9766V55.7937H78.192V49.9717C78.192 49.5389 78.1782 49.1321 78.1386 48.8201H79.6478C79.6531 48.984 79.6624 49.1497 79.6717 49.3158L79.6718 49.3185L79.672 49.3207C79.6865 49.5791 79.7011 49.8383 79.7011 50.0924Z" fill="#949494"/>
<path fill-rule="evenodd" clip-rule="evenodd" d="M88.4619 49.9166C88.4619 49.57 88.4865 49.2233 88.5112 48.8766L88.5152 48.8201H87.006C87.0006 48.9652 86.9911 49.108 86.9816 49.2505L86.9815 49.2519C86.9671 49.4679 86.9527 49.6829 86.9527 49.9029H86.8979C86.5477 49.2942 86.0771 48.7115 85.0644 48.7115C83.2447 48.7115 82.5564 50.4044 82.5564 52.3268C82.5564 55.1422 84.0122 55.7921 84.9822 55.7921C86.0756 55.7921 86.5461 55.156 86.8172 54.6146H86.8431V55.2783C86.8431 56.3748 86.5857 57.4713 85.0096 57.4713C84.1325 57.4713 83.3513 57.092 82.9599 56.8749L82.8655 58.3645C83.269 58.5128 84.1462 58.7973 85.2517 58.7973C87.7994 58.7973 88.4603 57.2404 88.4603 55.0612V49.9166H88.4619ZM85.3736 54.5611C84.8071 54.5611 84.2817 53.8698 84.2817 52.232C84.2817 50.8097 84.6183 49.9977 85.4954 49.9839C86.2903 49.9701 86.8431 50.7562 86.8431 52.2167C86.8431 53.801 86.4243 54.5596 85.3736 54.5596V54.5611Z" fill="#949494"/>
<path fill-rule="evenodd" clip-rule="evenodd" d="M89.6177 53.8577C89.6177 51.9614 91.1542 51.4873 93.2709 51.4873H93.6074V51.2288C93.6074 50.5391 93.2694 49.9029 92.313 49.9029C91.4755 49.9029 90.7354 50.3097 90.411 50.5804L90.3166 49.2269C90.7902 49.0098 91.4496 48.7131 92.5156 48.7131C94.6719 48.7131 95.1714 49.7699 95.1714 51.5147V54.5611C95.1714 55.0612 95.2262 55.5215 95.2658 55.7922H93.7551C93.6744 55.523 93.6608 55.185 93.6608 54.8456H93.6333C93.2161 55.4144 92.6922 55.9023 91.6932 55.9023C90.6136 55.9023 89.6177 55.1576 89.6177 53.8577ZM92.2476 54.763C93.245 54.763 93.609 54.0182 93.609 52.7733V52.3803H93.4613C92.0313 52.3803 91.1816 52.6786 91.1816 53.694C91.1816 54.3287 91.6004 54.763 92.2476 54.763Z" fill="#949494"/>
<path d="M100.536 51.6096V55.7921H102.208V51.2976C102.208 49.8906 101.736 48.7115 100.159 48.7115C99.0256 48.7115 98.5551 49.47 98.3114 49.8891H98.284C98.284 49.8034 98.2817 49.7168 98.278 49.6298C98.2724 49.5006 98.2637 49.3704 98.255 49.2404L98.2517 49.1914C98.2475 49.1275 98.2434 49.0638 98.2397 49.0004C98.2362 48.9395 98.2331 48.8789 98.2307 48.8186H96.6683C96.7079 49.1306 96.7216 49.5373 96.7216 49.9701V55.7921H98.3937V51.7304C98.3937 50.8372 98.7043 50.0924 99.5799 50.0924C100.268 50.0924 100.538 50.5391 100.538 51.6096H100.536Z" fill="#949494"/>
<path d="M103.876 48.8202H105.548V55.7922H103.876V48.8202Z" fill="#949494"/>
<path d="M105.575 45.8548H103.85V47.5065H105.575V45.8548Z" fill="#949494"/>
<path d="M108.566 54.5199H111.572V55.7922H106.841V54.344L109.807 50.0925H106.935V48.8202H111.479V50.2546L108.566 54.5199Z" fill="#949494"/>
<path fill-rule="evenodd" clip-rule="evenodd" d="M117.893 51.5132C117.893 49.7683 117.394 48.7115 115.238 48.7115C114.172 48.7115 113.512 49.0082 113.039 49.2253L113.133 50.5788C113.456 50.3081 114.198 49.9013 115.035 49.9013C115.991 49.9013 116.329 50.5375 116.329 51.2272V51.4857H115.991C113.875 51.4857 112.338 51.9598 112.338 53.8561C112.338 55.156 113.334 55.9007 114.414 55.9007C115.413 55.9007 115.937 55.4129 116.354 54.844H116.381C116.381 55.1835 116.395 55.5214 116.476 55.7906H117.985C117.945 55.5199 117.89 55.0596 117.89 54.5596V51.5132H117.893ZM116.328 52.7733C116.328 54.0182 115.964 54.7629 114.967 54.7629C114.319 54.7629 113.901 54.3286 113.901 53.694C113.901 52.6785 114.75 52.3803 116.18 52.3803H116.328V52.7733Z" fill="#949494"/>
<path d="M120.06 50.0528H118.953V48.8202H120.059V47.3857L121.731 46.8703V48.8202H123.12V50.0528H121.731V53.6681C121.731 54.4128 122 54.63 122.486 54.63C122.782 54.63 122.999 54.5474 123.12 54.4801V55.6714C122.864 55.7938 122.5 55.9023 122 55.9023C120.761 55.9023 120.06 55.3319 120.06 53.8699V50.0528Z" fill="#949494"/>
<path d="M126.044 45.8548H124.318V47.5065H126.044V45.8548Z" fill="#949494"/>
<path d="M124.346 48.8202H126.018V55.7922H124.346V48.8202Z" fill="#949494"/>
<path fill-rule="evenodd" clip-rule="evenodd" d="M130.559 48.7115C129.142 48.7115 127.498 49.4563 127.498 52.2992C127.498 55.1422 129.142 55.9007 130.559 55.9007C131.975 55.9007 133.606 55.2233 133.606 52.2992C133.606 49.3752 131.973 48.7115 130.559 48.7115ZM130.559 54.7095C129.481 54.7095 129.225 53.463 129.225 52.2992C129.225 51.1355 129.481 49.9029 130.559 49.9029C131.637 49.9029 131.881 51.1355 131.881 52.2992C131.881 53.463 131.638 54.7095 130.559 54.7095Z" fill="#949494"/>
<path d="M136.514 49.8891C136.758 49.47 137.229 48.7115 138.362 48.7115H138.363C139.941 48.7115 140.413 49.8906 140.413 51.2976V55.7921H138.741V51.6096C138.741 50.5391 138.471 50.0924 137.783 50.0924C136.907 50.0924 136.597 50.8372 136.597 51.7304V55.7921H134.925V49.9701C134.925 49.5373 134.911 49.1306 134.871 48.8186H136.434C136.447 49.1719 136.487 49.5373 136.487 49.8891H136.514Z" fill="#949494"/>
<path fill-rule="evenodd" clip-rule="evenodd" d="M148.294 55.9007C149.71 55.9007 151.341 55.2233 151.341 52.2992C151.341 49.3752 149.708 48.7115 148.294 48.7115C146.879 48.7115 145.234 49.4563 145.234 52.2992C145.234 55.1422 146.879 55.9007 148.294 55.9007ZM148.294 49.9029C149.373 49.9029 149.615 51.1355 149.615 52.2992C149.615 53.463 149.373 54.7095 148.294 54.7095C147.214 54.7095 146.96 53.463 146.96 52.2992C146.96 51.1355 147.217 49.9029 148.294 49.9029Z" fill="#949494"/>
<path d="M153.198 48.8202V47.3979C153.198 46.3962 153.671 45.4756 155.193 45.4756C155.637 45.4756 156.069 45.5719 156.392 45.6392L156.325 46.8581C156.125 46.8045 155.908 46.7495 155.665 46.7495C155.181 46.7495 154.871 47.089 154.871 47.6166V48.8202H156.138V50.0528H154.871V55.7938H153.198V50.0528H152.038V48.8202H153.198Z" fill="#949494"/>
<path d="M162.94 46.8703L161.269 47.3857V48.8202H160.164V50.0528H161.269V53.8699C161.269 55.3319 161.968 55.9023 163.21 55.9023C163.709 55.9023 164.071 55.7938 164.327 55.6714V54.4801C164.207 54.5474 163.989 54.63 163.694 54.63C163.21 54.63 162.94 54.4128 162.94 53.6681V50.0528H164.327V48.8202H162.94V46.8703Z" fill="#949494"/>
<path d="M167.105 49.7133C167.4 49.2805 167.792 48.7115 168.83 48.7115H168.833C170.409 48.7115 170.881 49.8906 170.881 51.2976V55.7922H169.209V51.6096C169.209 50.5406 168.938 50.094 168.252 50.094C167.376 50.094 167.065 50.8388 167.065 51.7319V55.7922H165.393V45.6392H167.065V49.7133H167.105Z" fill="#949494"/>
<path fill-rule="evenodd" clip-rule="evenodd" d="M175.056 48.7115C173.289 48.7115 172.197 50.3234 172.197 52.4078C172.197 54.2904 173.167 55.9023 175.406 55.9023C176.405 55.9023 177.131 55.604 177.481 55.4557L177.399 54.1298C177.09 54.3592 176.604 54.6712 175.581 54.6712C174.286 54.6712 173.816 53.9524 173.816 52.7611H177.832V52.4369C177.832 49.5939 176.552 48.713 175.056 48.713V48.7115ZM173.816 51.7028C173.816 50.7837 174.18 49.8478 175.056 49.8478C175.811 49.8478 176.216 50.4718 176.216 51.7028H173.816Z" fill="#949494"/>
<path d="M72.7753 69.8448C73.7605 69.8448 74.2448 69.331 74.2448 67.7604V61.6402H75.9702V67.7604C75.9702 70.2517 74.5539 71.2258 72.7753 71.2258C70.9966 71.2258 69.5667 70.2517 69.5667 67.7604V61.6402H71.2921V67.7604C71.2921 69.331 71.79 69.8448 72.7753 69.8448Z" fill="#949494"/>
<path d="M81.0762 64.0091C79.9432 64.0091 79.4726 64.7676 79.229 65.1867H79.2016C79.2016 64.9728 79.187 64.754 79.1725 64.5362C79.1631 64.3957 79.1537 64.2556 79.1483 64.1177H77.5859C77.6255 64.4282 77.6392 64.8349 77.6392 65.2677V71.0897H79.3112V67.028C79.3112 66.1348 79.6219 65.39 80.4975 65.39C81.1858 65.39 81.4554 65.8366 81.4554 66.9071V71.0913H83.1274V66.5952C83.1274 65.1882 82.6554 64.0091 81.0777 64.0091H81.0762Z" fill="#949494"/>
<path d="M84.7949 64.1177H86.4669V71.0897H84.7949V64.1177Z" fill="#949494"/>
<path d="M86.4944 61.1524H84.769V62.804H86.4944V61.1524Z" fill="#949494"/>
<path d="M88.7573 64.1177V62.6832L90.4293 62.1678V64.1177H91.8166V65.3487H90.4293V68.964C90.4293 69.7088 90.6973 69.9259 91.1831 69.9259C91.4785 69.9259 91.6963 69.8433 91.8166 69.7761V70.9674C91.5608 71.0897 91.1968 71.1983 90.6973 71.1983C89.4578 71.1983 88.7573 70.6294 88.7573 69.1674V65.3487H87.6517V64.1177H88.7573Z" fill="#949494"/>
<path fill-rule="evenodd" clip-rule="evenodd" d="M95.5491 64.0106C93.7826 64.0106 92.6907 65.6209 92.6907 67.7054C92.6907 69.588 93.6608 71.1998 95.8993 71.1998C96.8968 71.1998 97.6247 70.9016 97.9734 70.7532L97.8912 69.4273C97.5821 69.6567 97.0962 69.9687 96.0729 69.9687C94.7785 69.9687 94.308 69.2499 94.308 68.0602H98.3236V67.7359C98.3236 64.893 97.043 64.0137 95.546 64.0137L95.5491 64.0106ZM94.3095 67.0019C94.3095 66.0813 94.6734 65.1469 95.5491 65.1469C96.3044 65.1469 96.7095 65.7708 96.7095 67.0019H94.3095Z" fill="#949494"/>
<path fill-rule="evenodd" clip-rule="evenodd" d="M103.647 60.9368H105.321V69.9C105.321 70.4 105.335 70.8344 105.374 71.0913H103.812C103.783 70.8879 103.757 70.4811 103.757 70.007H103.716C103.446 70.6019 102.948 71.1984 101.869 71.1984C100.143 71.1984 99.4292 69.5467 99.4292 67.6106C99.4292 65.3366 100.332 64.0107 101.829 64.0107C102.827 64.0107 103.379 64.5765 103.622 65.1194H103.647V60.9368ZM101.1 67.5434C101.1 69.1552 101.357 69.9672 102.327 69.9672C103.311 69.9672 103.647 68.9396 103.647 67.5847C103.647 66.2296 103.283 65.2417 102.353 65.2417C101.423 65.2417 101.1 66.1486 101.1 67.5434Z" fill="#949494"/>
<path d="M115.792 69.0603H115.765L112.637 61.6402H110.587V71.0897H112.151V63.7262H112.178L115.292 71.0897H117.354V61.6402H115.792V69.0603Z" fill="#949494"/>
<path fill-rule="evenodd" clip-rule="evenodd" d="M121.626 64.0106C123.782 64.0106 124.282 65.0658 124.282 66.8122H124.279V69.8587C124.279 70.3602 124.333 70.8205 124.373 71.0912H122.864C122.783 70.8205 122.769 70.4825 122.769 70.1431H122.742C122.325 70.7119 121.801 71.1998 120.802 71.1998C119.722 71.1998 118.726 70.4551 118.726 69.1552C118.726 67.2589 120.263 66.7848 122.38 66.7848H122.718V66.5263C122.718 65.8366 122.38 65.2004 121.423 65.2004C120.586 65.2004 119.844 65.6072 119.521 65.8779L119.427 64.5244C119.9 64.3088 120.56 64.0106 121.626 64.0106ZM121.355 70.062C122.352 70.062 122.716 69.3188 122.716 68.0724V67.6794H122.568C121.139 67.6794 120.289 67.9776 120.289 68.9931C120.289 69.6293 120.708 70.062 121.355 70.062Z" fill="#949494"/>
<path d="M128.119 62.1678L126.449 62.6832V64.1177H125.343V65.3487H126.449V69.1674C126.449 70.6294 127.149 71.1983 128.389 71.1983C128.888 71.1983 129.252 71.0897 129.508 70.9674V69.7761C129.388 69.8433 129.17 69.9259 128.874 69.9259C128.389 69.9259 128.119 69.7088 128.119 68.964V65.3487H129.508V64.1177H128.119V62.1678Z" fill="#949494"/>
<path d="M130.706 61.1524H132.432V62.804H130.706V61.1524Z" fill="#949494"/>
<path d="M132.404 64.1177H130.732V71.0897H132.404V64.1177Z" fill="#949494"/>
<path fill-rule="evenodd" clip-rule="evenodd" d="M133.886 67.5983C133.886 64.7538 135.531 64.0106 136.947 64.0106C138.362 64.0106 139.994 64.6743 139.994 67.5983C139.994 70.5223 138.363 71.1998 136.947 71.1998C135.531 71.1998 133.886 70.4428 133.886 67.5983ZM135.613 67.5983C135.613 68.7621 135.869 70.0085 136.947 70.0085C138.027 70.0085 138.269 68.7621 138.269 67.5983C138.269 66.4345 138.025 65.2019 136.947 65.2019C135.869 65.2019 135.613 66.4345 135.613 67.5983Z" fill="#949494"/>
<path d="M144.75 64.0091C143.617 64.0091 143.146 64.7676 142.903 65.1867H142.875C142.875 64.9728 142.861 64.7539 142.846 64.536C142.837 64.3955 142.827 64.2555 142.822 64.1177H141.26C141.272 64.2139 141.282 64.3194 141.289 64.4322C141.306 64.6829 141.313 64.9691 141.313 65.2677V71.0897H142.985V67.028C142.985 66.1348 143.296 65.39 144.171 65.39C144.859 65.39 145.129 65.8366 145.129 66.9071V71.0913H146.801V66.5952C146.801 65.1882 146.329 64.0091 144.751 64.0091H144.75Z" fill="#949494"/>
<path d="M150.435 66.8535L151.258 67.3812L151.257 67.3827C152.12 67.9379 152.551 68.3309 152.551 69.1429C152.551 70.4291 151.472 71.2013 149.962 71.2013C149.101 71.2013 148.385 70.9979 148.035 70.8618L148.117 69.4671C148.154 69.4819 148.198 69.5012 148.249 69.5235C148.575 69.665 149.18 69.9274 149.856 69.9274C150.462 69.9274 150.934 69.7776 150.934 69.2362C150.934 68.9655 150.798 68.7071 150.192 68.3553L149.506 67.95L149.477 67.933C148.785 67.5174 148.036 67.0681 148.036 65.9864C148.036 65.0261 148.967 64.0106 150.436 64.0106C151.327 64.0106 152.014 64.24 152.175 64.295L152.081 65.5949C151.663 65.4313 151.217 65.2829 150.611 65.2829C149.937 65.2829 149.653 65.5399 149.653 65.9604C149.653 66.3397 149.95 66.5415 150.435 66.8535Z" fill="#949494"/>
</g>
</svg>
