<svg width="200" height="100" viewBox="0 0 200 100" fill="none" xmlns="http://www.w3.org/2000/svg">
<mask id="mask0_3181_106" style="mask-type:alpha" maskUnits="userSpaceOnUse" x="0" y="0" width="200" height="100">
<rect width="200" height="100" fill="#222222"/>
</mask>
<g mask="url(#mask0_3181_106)">
<path d="M127.796 22H100.284V49.5121H127.796V22Z" fill="#949494"/>
<path d="M157 22H129.488V49.5121H157V22Z" fill="#949494"/>
<path d="M157 51.2046H129.488V78.7167H157V51.2046Z" fill="#949494"/>
<path d="M127.764 51.2358H100.252V78.748H127.764V51.2358Z" fill="#949494"/>
<path d="M98.7794 22H42V78.7794H98.7794V22Z" fill="#949494"/>
<path d="M107.24 26.5127V37.3237C107.24 43.0579 110.092 45.1891 113.852 45.1891C117.831 45.1891 120.808 42.902 120.808 37.2615V26.5127H118.396V37.4175C118.396 41.4597 116.61 43.2454 113.915 43.2454C111.471 43.2454 109.622 41.4903 109.622 37.4175V26.5127H107.24Z" fill="#0F0F0F"/>
<path d="M138.575 44.9389V37.0735C138.575 34.0342 138.543 31.8092 138.418 29.4904L138.512 29.4588C139.421 31.4331 140.643 33.5327 141.927 35.6007L147.755 44.9389H150.168V26.5765H147.943V34.2849C147.943 37.1367 148.005 39.3617 148.225 41.8058L148.1 41.8374C147.254 39.9264 146.157 38.0143 144.841 35.8525L138.982 26.5459H136.35V44.9073H138.575V44.9389Z" fill="#0F0F0F"/>
<path d="M147.13 61.2011C147.13 58.757 145.406 57.5665 142.805 57.5665C141.77 57.5665 140.988 57.6603 140.58 57.7541V64.8989C141.081 65.0243 141.77 65.0864 142.554 65.0864C145.406 65.118 147.13 63.6768 147.13 61.2011ZM149.511 60.9504C149.511 62.6107 149.01 63.9276 148.07 64.8673C146.817 66.1831 144.78 66.8732 142.461 66.8732C141.741 66.8732 141.082 66.8416 140.55 66.7162V74.1117H138.168V55.9684C139.328 55.7493 140.8 55.5923 142.712 55.5923C145.063 55.5923 146.786 56.1254 147.851 57.1272C148.916 57.9732 149.511 59.3206 149.511 60.9504Z" fill="#0F0F0F"/>
<path d="M119.711 64.5216C119.743 60.1348 117.267 57.44 112.254 57.44C111.032 57.44 110.092 57.5338 109.465 57.6907V72.2301C110.06 72.3238 110.938 72.3238 111.878 72.3238C116.954 72.3554 119.711 69.5036 119.711 64.5216ZM122.219 64.4595C122.219 67.4672 121.279 69.9113 119.587 71.6043C117.832 73.3278 115.012 74.2359 111.44 74.2359C109.717 74.2359 108.338 74.1738 107.116 74.0168V55.9366C108.589 55.7175 110.312 55.5605 112.193 55.5605C115.608 55.5605 118.02 56.3127 119.65 57.8171C121.248 59.3215 122.22 61.4833 122.22 64.4605L122.219 64.4595Z" fill="#0F0F0F"/>
<path d="M84.8352 62.4541C83.55 62.7986 82.1404 62.9239 80.8867 63.3632C83.0179 61.5144 82.9231 58.6941 84.3338 56.5007C84.8036 55.8739 85.1797 55.2471 85.6812 54.6519C84.8036 56.407 85.1797 58.6625 84.1768 60.3544C83.8007 61.0129 83.2371 61.6703 82.6418 62.2033C82.8294 62.2033 83.0179 62.0158 83.1749 61.921C84.8047 60.2912 86.9349 59.853 88.69 58.5372C89.379 57.9735 90.0374 57.2519 90.3503 56.4375C90.0374 59.1324 87.3426 61.6387 84.8352 62.4541Z" fill="#0F0F0F"/>
<path d="M90.6946 51.5807C89.9108 52.709 88.9395 53.7741 88.2189 54.9024C88.3126 53.9932 88.4064 52.866 88.0619 52.02C87.4351 50.1712 86.902 48.2907 86.7461 46.2542L86.7777 45.4704C87.2476 47.5385 89.285 48.9796 89.1597 51.2984C89.1913 51.862 89.0343 52.3329 88.9405 52.8333L88.9721 52.865L89.0659 52.7712C89.3788 51.6429 89.5042 50.4208 89.9751 49.3557C90.6335 47.8208 91.4795 46.2532 91.135 44.4043C92.1063 46.5977 91.7934 49.5117 90.6967 51.5797" fill="#0F0F0F"/>
<path d="M89.4409 39.7994C90.7883 41.6167 91.0706 44.5001 90.0993 46.5987C89.7232 47.4762 89.4725 48.416 89.3471 49.3873C89.2849 49.2303 89.2533 48.9796 89.1901 48.7921C88.6571 46.7556 86.7144 45.3134 85.9317 43.3707C85.6809 42.7439 85.4618 42.0855 85.3364 41.3965C86.1824 42.963 88.282 43.7785 88.8456 45.5009C89.0648 45.9392 89.0648 46.4722 89.2217 46.9421C89.2533 46.9421 89.2839 46.9105 89.2839 46.88C89.0332 45.0943 89.0964 43.2454 89.346 41.4903C89.346 40.5505 89.2523 39.6098 88.7192 38.8892C89.0321 39.1083 89.1891 39.4844 89.4398 39.7983" fill="#0F0F0F"/>
<path d="M88.4694 39.4235C88.8139 41.0217 88.3125 42.5566 88.6264 44.1548C87.7489 42.4629 85.9316 41.6475 84.6474 40.3011C83.9268 39.4867 83.5823 38.5154 83.4253 37.4493C84.1459 39.2044 86.0885 39.5805 87.2168 41.0533C87.5929 41.3978 87.7183 41.8676 87.969 42.2437L88.0006 42.2121C87.3422 40.8331 87.1231 39.2981 86.6848 37.8254C86.4657 37.1985 85.9958 36.5717 85.3995 36.165C86.9039 36.5095 88.1882 38.0455 88.4705 39.4235" fill="#0F0F0F"/>
<path d="M84.5526 35.7881C85.6493 36.791 86.1508 38.0752 86.4953 39.3921L86.6828 39.8304C85.0846 38.6705 83.6119 37.1039 82.5784 35.4752L81.3247 34.1899C82.4214 34.6598 83.6119 34.9421 84.5526 35.7881Z" fill="#0F0F0F"/>
<path d="M59.1082 34.4097C57.9799 35.381 57.2277 36.6347 56.4134 37.763C55.6612 38.6721 54.7214 39.2979 53.8755 40.0817C54.3137 39.142 54.3453 38.0137 54.9722 37.1677C55.9119 35.5696 57.6038 35.0059 59.1082 34.4107" fill="#0F0F0F"/>
<path d="M53.0301 37.7937C53.5631 37.1353 54.2521 36.6654 55.0359 36.4463C53.5315 37.4808 53.6263 39.3287 53.1554 40.8647C52.9984 41.4283 52.7477 41.9614 52.6223 42.525L52.654 42.5566C52.9047 41.8981 53.3429 41.2713 53.876 40.7393C54.9411 39.768 56.5077 39.1411 57.0407 37.7C57.0091 39.7058 55.3172 41.304 53.719 42.4312C53.0606 43.0264 52.4032 43.6849 52.0587 44.4371C52.0271 43.9356 52.1209 43.4025 52.0903 42.8705C51.9334 41.1154 51.7774 39.1106 53.0301 37.7937Z" fill="#0F0F0F"/>
<path d="M49.9903 43.8413C49.9587 42.0556 50.6793 40.5829 51.7454 39.266C51.777 39.266 51.8076 39.2344 51.8392 39.2344C50.6793 40.9895 51.6517 43.1829 51.5885 45.1877L51.4315 47.2241C51.4631 47.2241 51.4631 47.2863 51.4936 47.2863C51.5558 47.0671 51.5874 46.8164 51.619 46.5973C51.9014 44.9675 53.3109 43.7771 54.5646 42.6488C54.8153 42.3664 55.0661 42.0535 55.1914 41.709C55.0977 42.5234 54.8469 43.3388 54.5024 44.1216C53.5311 46.0021 51.7454 47.5686 51.3999 49.7304C51.2745 47.5992 49.8649 46.0326 49.9903 43.8392" fill="#0F0F0F"/>
<path d="M49.1444 46.38C49.2698 45.8164 49.3636 45.2517 49.6143 44.7197C49.1444 47.0701 50.7426 48.7936 51.2746 50.83C51.4937 51.5822 51.5569 52.4282 51.8698 53.1488C51.9014 53.1488 51.932 53.1488 51.932 53.1172C51.1482 50.9238 52.2765 48.9179 53.4048 47.226C53.6871 46.7561 53.843 46.2547 53.9684 45.7216C54.0938 46.6929 53.843 47.8528 53.6861 48.8547C53.4037 50.1705 52.9971 51.3926 52.6515 52.6463C52.4324 53.4301 52.464 54.3382 52.5894 55.1536L52.464 55.0598C51.6497 53.5249 49.9883 52.365 49.5184 50.6731C49.1107 49.3572 48.86 47.8212 49.1423 46.38" fill="#0F0F0F"/>
<path d="M49.0501 50.9855C49.2376 53.4928 51.9324 54.8086 53.1861 56.8766C53.4684 57.3149 53.7497 57.7542 54.1258 58.1303C54.0637 57.8796 53.8129 57.6288 53.7181 57.3781C53.2799 56.5005 53.1229 55.4671 53.2166 54.4325C53.342 53.1473 53.8751 51.9568 53.6549 50.6094C54.7516 52.9913 54.4071 55.9359 55.0339 58.5054C55.1909 59.069 55.5038 59.5704 55.7229 60.1035C53.4663 58.5686 50.3964 57.0958 49.3935 54.3061C49.0174 53.3032 48.9552 52.1127 49.049 50.9844" fill="#0F0F0F"/>
<path d="M50.3975 56.7522C51.6511 59.604 54.8158 59.8232 56.9155 61.5783C57.2916 61.9228 57.6993 62.2051 58.1375 62.4243L58.1691 62.3926C57.6993 61.9544 57.1346 61.4529 56.7901 60.8883C55.568 59.1647 55.9757 56.7522 55.0666 54.9033C55.9125 55.9063 56.6647 56.9397 57.1662 58.0996C57.9184 59.9485 58.2007 62.0787 59.9548 63.4577C58.0743 62.8309 55.8504 63.0195 54.189 61.8596C52.3717 60.7313 50.742 58.8202 50.3975 56.7522Z" fill="#0F0F0F"/>
<path d="M53.625 62.0477C55.6309 64.3348 58.9209 63.5826 61.6158 64.1789C61.9919 64.241 62.3364 64.398 62.7441 64.3359C62.4312 64.1167 61.9919 64.1483 61.6474 63.9598C59.5478 63.2076 59.2349 60.952 58.075 59.416C59.5478 60.3873 60.7698 61.7032 62.1173 62.9568C63.0886 63.8028 64.2485 64.2105 65.4705 64.4612C65.1882 64.555 64.7816 64.5234 64.4676 64.6182C62.2742 65.1513 59.7985 66.0594 57.4798 65.245C55.9754 64.7436 54.4088 63.5531 53.6261 62.0487" fill="#0F0F0F"/>
<path d="M80.9802 67.4057C78.7236 68.2517 76.3427 67.3741 74.557 66.0267C73.8364 65.5568 73.2096 64.8984 72.2699 64.9616C71.9254 64.9616 71.6114 64.9616 71.3302 65.0554C73.0537 65.8697 74.6518 66.9664 76.1246 68.377C75.8739 68.6594 75.561 68.9101 75.2471 69.1608C73.8375 67.6259 72.2699 66.1837 70.5158 65.3377C70.1713 65.3693 69.8574 65.5884 69.5445 65.7454C68.1349 66.6546 66.7243 67.8134 65.6592 69.2241L64.75 68.4719C66.1912 66.9991 67.821 65.8708 69.5761 65.0564C67.8526 64.5233 66.7243 65.9656 65.4084 66.6862C63.8735 67.7513 61.6791 68.2527 59.8312 67.5321C58.8283 67.156 57.8886 66.5924 57.168 65.7148C58.6092 66.7178 60.772 66.8115 62.4323 66.1531C64.6573 65.1818 66.9444 63.9597 69.6077 64.5549C70.0154 64.5549 70.422 64.9932 70.8297 64.6171C72.804 64.1156 75.0595 64.4601 76.7831 65.3693L78.5382 66.0583C80.168 66.6535 82.2981 66.4965 83.6772 65.4947C82.9882 66.3722 82.0169 67.0296 80.9823 67.4057" fill="#0F0F0F"/>
<path d="M83.4247 65.0555C80.8868 66.0268 78.3173 64.8364 75.8732 64.4287L75.4033 64.3665C76.5632 64.1158 77.6905 63.7397 78.6312 62.9253C80.0103 61.6095 81.2323 60.2621 82.7357 59.2275C81.6074 60.6687 81.482 62.7367 79.6331 63.6775C79.1633 63.9904 78.5986 64.022 78.0982 64.2727C78.7872 64.2727 79.414 64.0536 80.0724 63.9904C82.5798 63.5827 85.4305 63.9904 87.1857 61.8592C86.5272 63.2688 84.8985 64.5224 83.4257 65.0555" fill="#0F0F0F"/>
<path d="M88.0629 57.8796C87.06 58.538 86.0265 59.1649 85.0552 59.8855V59.7917C86.528 57.316 85.8074 53.9321 86.7155 51.2373L87.06 50.3281C86.8725 52.02 87.5931 53.4612 87.5615 55.1542C87.4993 56.1887 87.1854 57.0969 86.6523 57.9112H86.746C87.4666 56.9715 88.0313 55.937 88.8773 55.0288C90.1931 53.7436 91.5405 52.4594 91.6975 50.7042C92.1357 53.6182 90.507 56.2193 88.0629 57.8796Z" fill="#0F0F0F"/>
<path d="M84.7716 48.6983C84.6146 52.2391 83.2988 55.31 80.9801 57.9417L80.9179 58.0671C80.448 57.534 79.8212 56.8766 79.226 56.4067C79.5705 56.1876 79.8528 55.7483 80.1035 55.4354C81.5447 53.4612 82.3907 51.2362 82.5161 48.7299L82.4539 48.5108L82.5793 48.6045H84.7411L84.8664 48.5424L84.7727 48.6993L84.7716 48.6983ZM70.8896 62.5486L70.7327 62.6424C70.7948 61.8586 70.7948 61.0442 70.7327 60.2604C71.1088 60.3858 71.5165 60.2604 71.9231 60.2604L73.083 60.0413C73.6466 60.1667 74.0544 61.0758 74.7128 60.5112C74.9319 60.2604 75.308 60.2604 75.465 59.9159C75.8411 59.7906 75.9349 59.4145 76.1856 59.1637C76.4363 58.4432 77.2507 58.3494 77.7205 57.8479C78.065 57.535 78.5349 57.2527 78.7551 56.845L78.7867 57.0325L80.3848 58.5675C77.69 61.0116 74.5253 62.3906 70.8907 62.5465L70.8896 62.5486ZM70.858 57.7226C71.1404 57.8479 71.6102 57.5972 71.7672 57.9101C71.6734 58.0976 71.5481 58.2546 71.6102 58.4432C71.7356 58.7255 71.8926 59.1016 72.2371 59.1321C72.3308 59.2575 72.4562 59.2891 72.5816 59.3197C71.9863 59.4134 71.3279 59.3818 70.7643 59.5704C70.8264 58.9436 70.7643 58.3167 70.7643 57.6899L70.6389 57.5329C70.7327 57.5645 70.7959 57.6583 70.858 57.7204V57.7226ZM70.2944 53.8689C70.1374 53.9005 69.9815 53.8689 69.8562 53.8067C69.794 53.8067 69.8246 53.7129 69.794 53.6813C70.0131 53.6813 70.1069 53.4306 70.3576 53.4622C70.483 53.3368 70.5146 53.1493 70.7021 53.0545C70.64 52.867 70.8896 52.9923 70.9212 52.867C70.9834 52.8048 71.0782 52.7416 71.172 52.8048C71.329 53.0239 71.6418 52.9302 71.7988 53.1809C71.861 53.2125 71.8926 53.1188 71.8926 53.0872V52.9934C72.1433 52.9618 72.2687 53.3063 72.5194 53.0872C72.5816 53.025 72.551 52.9302 72.5194 52.868C72.4878 52.868 72.4572 52.8364 72.4572 52.8059C72.6448 52.7121 72.7396 53.0566 72.9587 52.9628C73.1462 52.8059 73.2411 52.65 73.4918 52.65L73.5539 52.7121C73.5855 53.1504 73.2094 53.4327 72.865 53.6518C72.6458 53.7456 72.2381 53.714 72.2697 54.0595C72.019 54.2787 71.7999 53.9342 71.4859 54.0279C71.329 53.9658 71.4859 53.7456 71.2668 53.715C70.9223 53.8088 70.5462 53.5275 70.2955 53.872L70.2944 53.8689ZM68.4771 62.4549C65.4378 62.0472 62.7745 60.7313 60.4242 58.6949L61.9907 57.1284L62.0223 57.0346C64.1841 59.1026 66.7852 60.1677 69.7308 60.3563L69.9499 60.2941L69.8878 60.4195V62.4559L70.0131 62.6435C69.5117 62.4865 68.948 62.5497 68.4782 62.4559L68.4771 62.4549ZM57.8231 55.2795C56.7264 53.2431 56.0996 51.0497 55.9742 48.6361H58.0738L58.293 48.574C58.2613 48.6993 58.2613 48.8247 58.2613 49.0122V48.9806C58.1992 49.0122 58.293 49.0428 58.293 49.106C58.3246 49.9203 58.4805 50.6725 58.669 51.3931L58.7628 51.5501C58.6058 51.3931 58.5437 51.2372 58.4183 51.0802C58.2308 51.1118 58.0422 51.1424 57.9169 51.2678C58.0106 51.4869 57.7915 51.4247 57.6977 51.4869C57.6661 51.4247 57.604 51.3615 57.5408 51.3299C57.3838 51.3299 57.2279 51.3615 57.133 51.5174C57.1647 51.6428 57.0393 51.6744 56.9761 51.7682C56.9445 52.1127 56.8191 52.552 57.0698 52.8333C57.0698 53.084 57.1952 53.3031 57.3827 53.4601C57.4449 53.4601 57.5081 53.4285 57.5397 53.3979C57.7588 53.5549 57.8526 53.931 58.1665 53.8362C58.2603 53.8046 58.2287 53.7108 58.2603 53.6171C58.4173 53.774 58.4794 54.0869 58.7934 54.0553C58.8555 54.1175 58.9187 54.2745 59.0441 54.2745C59.357 54.1807 59.2632 54.6506 59.4824 54.7759C59.6699 54.9013 59.7647 55.152 60.0154 55.0267L60.1092 54.9013C60.2029 54.9634 60.1092 55.1204 60.2029 55.1836C60.3283 55.4344 60.579 55.5913 60.8298 55.6535C61.0489 55.9042 61.268 56.1866 61.5188 56.3741L61.3312 56.4362L59.8268 58.0028C59.1379 57.1884 58.3541 56.2793 57.821 55.2763L57.8231 55.2795ZM56.068 46.4427C56.4441 43.3096 57.7915 40.5832 59.9533 38.1707L60.0154 38.3898C60.5169 38.8913 61.05 39.4243 61.5504 39.8942C61.1121 40.1765 60.8919 40.678 60.5474 41.0541C59.2 42.9651 58.4162 45.128 58.2908 47.5405L58.353 47.8228C57.6008 47.7607 56.7864 47.7607 56.0026 47.8228C56.0342 47.353 55.971 46.8831 56.0648 46.4438L56.068 46.4427ZM61.7084 36.6347C64.1209 34.9111 66.8158 33.8777 69.8551 33.7523L69.7613 33.9398L69.7929 35.7571L69.8551 35.9446C66.9095 36.07 64.34 37.1983 62.115 39.2031L62.0834 39.2969C61.582 38.7638 61.0184 38.137 60.4231 37.6987H60.361C60.8308 37.4164 61.2385 36.9465 61.7084 36.6336V36.6347ZM69.8867 41.9928C69.479 41.899 69.1345 42.0865 68.7584 42.1181C67.9125 42.3373 67.1603 42.8071 66.4397 43.3086C66.4081 43.3707 66.3775 43.4339 66.3143 43.4656C65.7812 42.9957 65.2798 42.3689 64.7161 41.9612C66.1889 40.7707 67.8492 39.9553 69.7613 39.8299L69.8867 39.7678C69.7929 40.4884 69.7929 41.2722 69.8867 41.9928ZM69.2915 44.4369C69.2599 44.3431 69.3852 44.2177 69.2599 44.1545C68.9154 44.3115 69.0408 44.6876 68.8216 44.9383C68.79 45.1259 68.5393 45.0321 68.4139 45.1575C68.3202 45.0005 68.1316 45.0321 68.0062 45.0953C67.8187 45.0953 67.7871 44.7192 67.5985 44.9078C67.5364 44.9699 67.5669 45.0953 67.4415 45.0648C67.4099 45.0026 67.3478 45.0026 67.3162 44.971C67.3162 44.8456 67.5037 44.8772 67.4415 44.7519C67.3162 44.5011 67.0033 44.5327 66.8147 44.3758H66.6272C67.5047 43.4361 68.633 43.0283 69.8551 42.8408C69.8551 43.3739 69.7929 44.0007 69.9805 44.5011C69.7929 44.2504 69.5106 44.5327 69.2915 44.439V44.4369ZM67.1919 50.5788C67.3172 50.4534 67.4426 50.2659 67.5048 50.0773L67.7555 50.2027C67.5047 50.2343 67.3794 50.485 67.1919 50.5788ZM69.6044 52.8659C69.5106 53.0534 69.5728 53.3042 69.5422 53.4928C68.5393 53.3052 67.6312 52.8975 66.8158 52.2391C67.2856 51.7376 67.8808 51.2678 68.2253 50.7347C68.2569 50.9854 68.5698 51.0792 68.7584 51.2046C69.1661 51.3921 69.636 51.6744 70.1058 51.4869C70.0742 51.5185 70.0437 51.5491 70.0121 51.5807C70.1374 51.706 69.9183 51.8314 70.0742 51.9568C70.1058 52.0505 69.9805 52.0505 69.9805 52.1137C70.0426 52.2391 69.9489 52.4898 70.168 52.552C70.2302 52.6141 70.168 52.7395 70.0742 52.7395C69.8867 52.7079 69.6981 52.7079 69.6044 52.8649V52.8659ZM64.9353 44.7192C64.7161 44.8446 64.5592 45.0637 64.4338 45.2523C64.2463 45.3777 64.0261 45.346 63.8702 45.5652C63.8702 45.6589 63.9639 45.7527 63.8702 45.8159C63.6827 45.9729 63.3371 45.7843 63.2433 46.0982C63.2117 46.3806 62.8672 46.5365 62.8989 46.8504C62.7113 46.9758 62.7419 47.1949 62.7735 47.3835C62.8672 47.5089 62.7419 47.728 62.8989 47.8218C62.6165 47.7902 62.2099 47.728 61.9591 47.8534C62.1161 47.5089 62.0529 47.1012 62.1467 46.7251C62.429 45.1585 63.1496 43.7795 64.1831 42.5258C64.7161 43.0273 65.2798 43.6541 65.8434 44.0924C65.4051 44.0924 65.4051 44.7192 64.9342 44.7192H64.9353ZM63.9007 53.6497L63.8386 53.1799C63.4003 52.8038 63.5562 52.1148 63.4625 51.6449C63.1496 51.3942 63.4003 51.0181 63.1801 50.7358C63.1801 50.2975 62.4911 50.1405 62.7103 49.6707C62.6165 49.5453 62.5228 49.3883 62.6165 49.2324C62.7419 49.0754 63.0548 49.2324 63.1496 49.0133L63.2117 48.6056C63.3687 48.5118 63.5878 48.7309 63.6816 48.5118C63.8386 48.1357 63.118 47.6659 63.7438 47.4773C63.9629 47.4457 64.2136 47.4151 64.3074 47.6648C64.339 47.9471 64.4327 48.26 64.3074 48.5424C64.4949 48.6045 64.339 48.7931 64.339 48.9185C64.2136 48.9806 64.1199 49.106 63.9629 49.0438C63.9007 48.9501 63.8059 48.7615 63.65 48.7931C63.5246 48.9501 63.6816 49.106 63.6816 49.2946C63.65 49.3883 63.6816 49.5137 63.6194 49.6075C63.5573 49.5758 63.5257 49.5453 63.4319 49.5453C63.3066 49.6075 63.4003 49.7644 63.4319 49.8276C63.5573 49.9214 63.651 50.0468 63.8396 50.0468L63.9018 49.953C63.8702 49.7023 63.9955 49.5147 63.9955 49.2946L64.2147 49.4199C64.4022 50.3596 64.8415 51.2056 65.3746 52.021L65.6569 52.3034C64.9679 52.8986 64.3095 53.6192 63.7143 54.2776C63.7143 54.246 63.6827 54.1206 63.5889 54.1839C63.5267 53.9015 63.9966 53.9963 63.9018 53.6508L63.9007 53.6497ZM68.7268 56.3446L69.1029 56.5016C67.7871 56.1887 66.3765 55.7177 65.2492 54.778C65.0617 54.6527 64.9363 54.4019 64.6856 54.4019C65.2187 53.9637 65.7507 53.399 66.19 52.867C66.3775 53.2431 66.8168 53.4306 67.1297 53.6813C67.6933 53.9321 68.2896 54.4335 68.9786 54.3082C68.7595 54.3703 68.5709 54.4957 68.415 54.6843C68.3212 54.9034 68.3528 55.1857 68.0705 55.2795C68.0705 55.6556 68.4466 56.0317 68.7289 56.3446H68.7268ZM66.4702 50.4218C66.4702 50.484 66.564 50.5788 66.6577 50.5156C66.7515 50.3902 66.4702 50.2027 66.6577 50.1395C66.7831 50.2648 66.7199 50.5156 66.7831 50.6725C66.8453 50.7663 66.8769 50.8601 66.8453 50.9549C66.6261 51.2056 66.3438 51.4247 66.2184 51.7071C66.0931 51.3626 65.7802 51.0802 65.6548 50.7358C65.4357 50.328 65.3103 49.8898 65.1217 49.5137C65.3093 49.7328 65.7802 49.4821 65.7802 49.9214C65.8118 49.953 65.8423 49.9214 65.9055 49.9214C65.947 49.88 65.9993 49.8694 66.0625 49.8898C66.0941 49.9519 66.2816 50.0152 66.1247 50.0773C66.1563 50.2343 66.3122 50.3902 66.4692 50.4218H66.4702ZM69.8541 39.0156C69.4463 38.9218 69.0702 39.0777 68.6636 39.1093C66.9717 39.4538 65.4051 40.1744 64.1199 41.3965L64.0577 41.2395C63.5562 40.7696 63.0864 40.1744 62.5228 39.8299C62.9926 39.5476 63.4319 39.1093 63.9018 38.7954C65.6569 37.6049 67.6312 36.9465 69.8246 36.8211C69.7624 37.5417 69.8246 38.2939 69.8562 39.0145L69.8541 39.0156ZM61.268 47.8207L61.0805 47.7586L59.0125 47.7902C59.2 45.4714 59.8268 43.3402 61.1743 41.5229L61.9886 40.4884V40.3314C62.4585 40.895 63.0232 41.4281 63.5868 41.9295C62.0824 43.5277 61.3302 45.4704 61.1743 47.6016C61.2059 47.6954 61.2059 47.7891 61.268 47.8207ZM59.7331 51.3299C59.514 51.3615 59.5761 51.5807 59.514 51.706C59.5456 51.173 59.2948 50.6715 59.2316 50.1395L59.0746 48.7604L58.9809 48.6351C59.6393 48.7288 60.3905 48.6667 61.0805 48.6972L61.2375 48.6351C61.1753 48.9796 61.1753 49.4494 61.3945 49.7318C61.3007 49.638 61.1753 49.3873 60.9867 49.3873C60.6106 49.4189 60.579 49.9203 60.1724 49.9203C59.8595 50.1711 59.7963 50.5472 59.7341 50.9233C59.8911 51.017 59.6404 51.174 59.7341 51.331L59.7331 51.3299ZM62.0202 48.7288L61.9265 48.5413C62.1456 48.6983 62.3963 48.6667 62.6471 48.6035C62.271 48.7288 62.4279 49.1671 62.271 49.4494C62.2394 49.5748 62.4585 49.6369 62.4279 49.7623C62.2404 49.8561 62.2088 50.0447 62.1456 50.2006C62.2394 49.6991 62.0518 49.2292 62.0202 48.7278V48.7288ZM69.9478 59.6336L69.7287 59.4766C66.9085 59.3197 64.496 58.1608 62.3963 56.3435C62.7408 56.3119 62.8662 56.7512 63.2423 56.6564C63.65 56.6248 63.9629 56.2803 64.4022 56.3435C64.6213 56.3435 64.8721 56.3435 64.9974 56.1244C65.0596 55.9053 64.8099 55.7799 64.7783 55.5913C66.2195 56.6564 67.8176 57.3465 69.6665 57.4086L69.8541 57.3465V59.3523L69.9478 59.6347V59.6336ZM70.2923 45.5957L70.4177 45.6579C70.2607 45.6579 70.0732 45.5641 69.9478 45.6895C69.8541 45.7516 69.9162 45.877 69.9478 45.9718C70.2302 46.0656 70.2923 46.5354 70.6368 46.3479C70.7938 46.3795 70.9813 46.4101 71.0445 46.5671C71.2636 46.6608 71.2952 47.0369 71.5776 46.9432C71.5776 47.1001 71.5154 47.3509 71.7029 47.4446C71.6713 47.57 71.4838 47.6321 71.4838 47.7891C71.4522 47.8207 71.4217 47.9145 71.4522 47.9766C71.7345 48.0082 71.7029 48.3211 71.8599 48.5097C71.7978 48.7288 71.8599 48.948 72.079 49.0733C72.0474 49.3241 71.9221 49.5432 71.8283 49.7623C71.546 49.9193 71.0445 49.5432 70.9507 50.0752C70.7938 50.2627 70.9191 50.6704 70.6063 50.6704C69.9794 50.702 69.4158 50.5767 68.9459 50.2322C69.2588 50.0752 69.7919 50.2943 69.8857 49.8245C69.9794 49.7623 70.011 49.6369 69.9478 49.5421C70.1048 49.3852 70.1353 49.1976 70.2302 49.0407C70.1048 48.9153 70.168 48.8531 70.1985 48.7278C69.8857 48.4149 69.478 48.5708 69.0702 48.5708C68.8195 48.6962 69.0702 48.9785 68.9133 49.1344C68.6004 49.166 68.6004 49.4789 68.3802 49.6359C68.2548 49.5737 68.1611 49.4168 68.1611 49.2914H68.1927C68.1611 49.3536 68.2243 49.4168 68.2548 49.4168C68.5372 49.4484 68.4424 49.1344 68.5372 48.9785C68.5688 48.791 69.007 48.5403 68.6625 48.4149C68.6309 48.3527 68.6941 48.2274 68.6004 48.1958C68.5066 48.2274 68.3181 48.2274 68.3181 48.4149C68.3802 48.5403 68.3181 48.6972 68.1927 48.791H68.1305C68.1621 48.6972 68.0989 48.634 68.0368 48.6035C67.8492 48.6035 67.7239 48.7288 67.5353 48.6972C67.2846 48.7594 67.0338 48.791 66.7831 48.791C66.7515 48.634 66.9706 48.6972 67.0338 48.5719C67.0022 48.3527 67.1592 48.1958 67.253 48.0388C67.3151 47.9766 67.4405 48.0072 67.5037 48.0388C67.5659 48.1009 67.6291 48.1642 67.7228 48.1326L67.785 48.0072C68.0041 48.1326 67.8787 48.791 68.3181 48.5087C68.3802 48.2263 68.3181 47.8818 68.4434 47.6311C68.3497 47.3804 68.6004 47.2866 68.6625 47.1296C68.8817 47.1612 68.8817 46.8789 68.9754 46.7535C69.3199 46.6598 69.696 46.566 69.9468 46.1899C69.853 46.0024 69.9152 45.72 69.7592 45.5631C69.9162 45.5315 70.1669 45.4693 70.2923 45.5947V45.5957ZM71.5776 36.8843C72.8934 37.0413 74.0849 37.4174 75.2438 37.9494C75.4313 38.2002 75.7452 38.3571 75.8074 38.67C75.6199 39.1399 76.4342 39.1083 76.0581 39.5792C76.0265 39.7362 76.1519 39.7983 76.2151 39.9237C76.2467 40.0491 76.1835 40.2366 76.3404 40.3314C76.6228 40.3935 76.7165 40.0185 76.9989 40.1123C77.3434 40.363 77.4371 40.8013 77.4371 41.1774C77.4687 41.4281 77.6879 41.5851 77.907 41.6788C78.3453 41.5534 78.1577 42.0549 78.4401 42.1803C78.7846 42.2119 78.9731 42.6817 79.3492 42.6185C79.6937 42.8693 79.8823 43.2454 80.1952 43.5277C80.1952 43.5899 80.2268 43.6531 80.289 43.6847C80.4765 43.7163 80.5713 43.5909 80.7272 43.5909C81.3224 44.7814 81.6048 46.0982 81.6985 47.5078L81.7607 47.6648C81.0401 47.6648 80.2879 47.6648 79.5357 47.727C79.5041 47.2887 79.5357 46.8494 79.3166 46.5049C79.4419 46.2858 79.4736 45.9718 79.4419 45.7211C79.4103 45.5957 79.285 45.7211 79.2544 45.7211C79.0037 45.9402 78.9721 46.2847 78.8467 46.5671C78.6276 46.8494 78.596 47.3193 78.7214 47.6321L78.8151 47.7259H77.9692C78.1883 47.6005 77.7816 47.3498 78.0008 47.1307L78.3769 47.0685C78.5022 46.7862 78.8151 46.5987 78.7846 46.2542C78.9415 46.035 79.0975 45.7843 78.9721 45.502C78.7846 45.0943 79.285 44.656 78.9099 44.2799C78.9415 44.1545 78.8783 43.9976 78.7224 43.9976C78.597 43.966 78.4717 43.9976 78.4717 43.8406C78.5338 43.7468 78.7224 43.6215 78.6592 43.4645C78.5654 43.3391 78.4401 43.4645 78.3147 43.4329C78.2831 43.2454 78.6276 43.0568 78.3147 42.8998C78.0956 42.8682 78.0018 43.1189 77.7816 43.0252C77.6879 42.963 77.6247 42.8061 77.7195 42.7123L77.2812 42.1487C77.2496 42.0865 77.0937 42.1803 77.0937 42.0865C77.1253 41.6483 76.5922 41.3975 76.5606 40.9582C76.4037 40.8013 76.529 40.52 76.3099 40.3946C76.1845 40.3008 76.0592 40.2071 75.8716 40.2692C75.6841 39.9869 75.4639 39.7362 75.2132 39.4854C75.151 39.4538 75.0878 39.517 75.0562 39.5476C75.0878 39.7667 75.3386 39.8921 75.3386 40.1112C75.307 40.1112 75.2764 40.1112 75.2448 40.1428C75.2764 40.3619 75.4639 40.5505 75.5893 40.6759C74.3988 39.7667 72.9882 39.2969 71.5154 39.0461C71.2331 39.0461 70.9202 38.9208 70.6379 39.0145C70.7 38.3561 70.6695 37.6049 70.6695 36.9149L70.6073 36.7579C70.9518 36.9149 71.2657 36.8201 71.5786 36.8833L71.5776 36.8843ZM72.1728 33.845C75.2122 34.2527 77.907 35.4748 80.1941 37.6365L79.9434 37.7303C79.5357 38.1686 79.0342 38.5447 78.8151 39.0461C78.7835 38.8891 78.5644 38.7954 78.5022 38.67C78.4706 38.2623 78.064 37.8557 77.6879 37.6355C77.4055 37.5733 77.3118 37.134 76.9673 37.2594C76.6544 37.0087 76.2783 37.1972 75.996 37.3215V37.3531C74.5548 36.5388 72.9566 36.0373 71.2331 35.912C71.1393 35.912 71.1077 35.9741 71.014 35.9741C71.1077 35.912 71.0456 35.7234 71.0456 35.6296C71.014 35.5675 70.9202 35.4727 70.7948 35.5359C70.7632 35.598 70.7327 35.6612 70.7327 35.7234C70.7643 35.0649 70.7948 34.219 70.7011 33.6238C71.1393 33.8113 71.6724 33.7491 72.1739 33.8429L72.1728 33.845ZM73.5824 53.3663C74.2408 53.4285 74.8666 53.5855 75.4629 53.8046C75.6199 53.8046 75.7758 53.8046 75.8706 53.6792C75.839 53.4285 76.1213 53.3031 76.0897 53.0524C76.2151 52.8333 76.1213 52.5509 76.3088 52.3634C76.3404 52.1127 76.3088 51.7998 76.1213 51.6112C75.9643 51.5174 75.8084 51.6428 75.6515 51.6734C75.4639 51.7987 75.5261 52.2064 75.2132 52.1116C75.151 52.2054 74.9941 52.2054 74.9003 52.1738C74.8687 52.1422 74.8382 52.1422 74.8382 52.08C75.0573 51.9546 75.465 52.0484 75.4966 51.6723C75.6536 51.5153 75.9348 51.5785 76.0918 51.4216C76.2172 51.2341 76.2488 51.0771 76.4047 50.9201C76.4047 50.858 76.4363 50.7631 76.4363 50.701C76.4679 50.7947 76.4679 50.9517 76.6238 51.0139C76.8114 51.076 76.8746 50.9201 76.9367 50.7947C76.9367 50.7326 76.9683 50.6378 77.0305 50.701C77.218 50.858 77.4687 50.7326 77.6889 50.7326C77.8764 50.6704 78.0966 50.6388 78.2842 50.6388C78.0966 51.4848 77.6889 52.237 77.1875 52.9892C76.9999 53.2083 76.843 53.459 76.6238 53.7098C76.5617 53.5223 76.5617 53.3021 76.4047 53.1462L76.3109 53.1778C76.1856 53.4285 75.9349 53.616 75.9665 53.8984C75.7789 54.1807 75.3396 53.93 75.0573 54.0859C74.7444 54.1796 74.5558 53.8667 74.3051 53.8035C74.0227 53.6782 73.6783 53.6782 73.4275 53.5212C73.4897 53.4274 73.5213 53.3642 73.5845 53.3642L73.5824 53.3663ZM75.6504 42.1487C75.2427 42.5869 74.7412 43.0262 74.3967 43.4961L74.3346 43.3391C73.3317 42.5248 72.2034 42.1171 70.9507 41.9601L70.7632 41.9917V39.9553L70.7011 39.7983C71.547 39.9237 72.3614 40.0491 73.1452 40.2998C74.1165 40.6443 75.0257 41.1774 75.8716 41.8663L76.0592 41.9285L75.6515 42.1476L75.6504 42.1487ZM78.8151 48.5719C78.6898 48.9796 78.6898 49.4494 78.596 49.8571C78.5644 49.9193 78.5644 50.0141 78.5338 50.0763C78.4085 49.8255 78.2831 49.481 78.0008 49.3241C77.75 49.1987 77.907 48.8542 77.6879 48.6972L77.4687 48.4781C77.8132 48.6351 78.3463 48.6035 78.8162 48.5719H78.8151ZM77.4677 44.5612C77.7184 44.6233 77.8754 44.9057 78.1261 44.9689C78.3453 45.3134 78.439 45.7211 78.5644 46.0972C78.3453 46.3163 78.3453 46.8178 77.9059 46.7556C77.8122 46.5049 78.0935 46.3795 78.0313 46.1288C78.0935 46.0666 78.2188 46.035 78.2504 45.9097C78.2188 45.6905 77.9376 45.7221 77.9059 45.502C77.8122 45.3766 77.6552 45.3766 77.5299 45.345C77.2475 45.2196 76.9662 45.9402 76.903 45.345C76.9968 45.2828 77.06 45.1575 76.9652 45.0627C76.7144 44.9373 76.6828 44.5928 76.4321 44.4358C76.056 44.4358 75.7115 44.2789 75.367 44.3737C75.1479 44.3115 74.8655 44.1545 74.678 44.4053C74.678 44.5928 74.5527 44.7498 74.5211 44.9383C74.4273 44.9067 74.3641 44.813 74.3019 44.7192C74.9604 43.967 75.7431 43.2148 76.4332 42.4942L76.4648 42.4005C76.8093 42.8387 77.217 43.278 77.4677 43.7479C77.5615 44.0608 76.9978 44.3747 77.4677 44.5622V44.5612ZM73.2063 51.7998C73.2063 52.0821 72.7986 52.0505 72.6111 52.238C72.5173 52.2064 72.5795 52.0811 72.6111 52.0189C72.7986 51.9251 72.924 51.7682 73.2063 51.7998ZM72.5478 45.5325C72.4225 45.5641 72.2971 45.6579 72.1717 45.5947C72.0464 45.4693 71.8894 45.2818 71.6703 45.2502C71.5133 45.2818 71.4195 45.4693 71.2626 45.3755C71.5449 45.0932 72.0148 45.0311 72.2339 44.6233C72.2961 44.4358 72.3593 44.2156 72.3277 44.0281C72.2655 43.9344 72.1401 43.8406 72.0453 43.9344C71.8884 44.1851 71.5439 44.2472 71.3869 44.498L70.8538 44.3105C70.7601 43.809 70.8854 43.1822 70.7601 42.7439C71.0424 42.8377 71.3553 42.8693 71.6692 42.9314C72.453 43.1189 73.142 43.495 73.831 43.9028C73.674 43.9649 73.5181 44.1535 73.3928 44.2789C73.3928 44.4042 73.5497 44.3726 73.5803 44.4664L73.7373 44.4042C73.4244 44.9994 72.6406 44.9057 72.5468 45.5325H72.5478ZM76.7776 57.2832C76.3699 56.9071 77.0284 56.6248 77.1537 56.2803C77.0916 55.9358 76.6839 55.7167 76.4015 55.6219C76.2446 55.5281 76.3078 55.3711 76.3078 55.2458C76.4332 55.1204 76.5901 54.995 76.6523 54.8075L76.7144 54.9645L77.6542 55.9358C77.6542 56.1549 77.6858 56.3435 77.9049 56.4373C77.9987 56.4689 78.124 56.4057 78.2178 56.4373H78.1556C77.7479 56.8755 77.2781 57.2211 76.8082 57.5656L76.7144 57.7226C76.6207 57.535 76.902 57.4402 76.7766 57.2843L76.7776 57.2832ZM78.5633 55.0899C78.3758 54.9023 78.3758 54.5568 78.0303 54.5568C77.9049 54.5568 77.8733 54.6506 77.8733 54.7443C77.8733 54.8065 77.9049 54.8697 77.8417 54.9013L77.1527 54.3061C77.4656 54.1491 77.7163 53.7108 77.9671 53.3969C78.5939 52.5193 78.97 51.5164 79.2829 50.5145C79.3766 50.6083 79.5336 50.6083 79.6274 50.5461C79.7211 50.4524 79.7527 50.2954 79.6895 50.2016L79.4704 49.8887C79.502 49.4189 79.6274 48.9796 79.5642 48.5413L79.7211 48.6035C80.4101 48.6035 81.1307 48.6351 81.8207 48.5719L81.727 48.6972C81.5395 51.4237 80.5987 53.8984 78.6876 55.9042C78.7814 55.6219 78.5307 55.3711 78.5623 55.0899H78.5633ZM84.7368 46.9115C84.7684 47.1623 84.7052 47.4752 84.8622 47.6953L82.6688 47.727C82.6067 47.7586 82.5435 47.7891 82.4813 47.7891L82.5435 47.6953C82.5118 45.9718 82.042 44.4369 81.3835 42.9946C81.3519 42.3362 80.7251 41.8979 80.4744 41.3343C80.0045 40.9898 79.8475 40.4252 79.2839 40.1123C79.1902 39.9869 79.127 39.7994 78.971 39.7678L79.2218 39.7056C79.7548 39.1725 80.3185 38.6405 80.7262 38.0758C83.0133 40.6453 84.4556 43.5277 84.7368 46.9126V46.9115ZM84.0162 41.5534C81.5405 36.2575 76.0887 32.9053 70.385 32.9053C67.8777 32.9369 65.5905 33.5005 63.4909 34.535C59.7615 36.3207 56.7222 40.1755 55.6887 43.9986C54.0284 50.4534 56.2839 56.9714 61.799 60.763C65.7781 63.6148 72.1085 64.1468 76.5891 61.985C80.5681 60.3247 83.953 56.2192 84.9865 52.1769C86.0211 48.7931 85.5817 44.5938 84.0152 41.5545L84.0162 41.5534Z" fill="#0F0F0F"/>
<path d="M77.0952 36.7907C77.0952 36.8845 77.0952 36.9477 77.1574 37.0099C77.4703 37.1352 77.5019 37.5735 77.9096 37.4797C78.0349 37.3544 77.8474 37.1974 77.878 37.0099C77.8158 36.8529 77.6904 36.7907 77.5335 36.7275C77.3459 36.9151 77.2206 36.6338 77.0952 36.7897" fill="#0F0F0F"/>
<path d="M71.048 35.5066C71.4557 36.0081 72.1447 35.7258 72.6462 35.632C73.0223 35.789 73.3668 35.6004 73.6175 35.3813V35.3191C73.3668 34.943 72.8653 34.9114 72.4271 34.8809L71.3304 35.3507C71.2366 35.3191 71.0796 35.257 71.0175 35.3823C70.9859 35.4445 71.0175 35.4761 71.0491 35.5077" fill="#0F0F0F"/>
</g>
</svg>
