<svg width="200" height="100" viewBox="0 0 200 100" fill="none" xmlns="http://www.w3.org/2000/svg">
<mask id="mask0_3181_106" style="mask-type:alpha" maskUnits="userSpaceOnUse" x="0" y="0" width="200" height="100">
<rect width="200" height="100" fill="#222222"/>
</mask>
<g mask="url(#mask0_3181_106)">
<path d="M84.7713 48.6985C84.6143 52.2393 83.2985 55.3103 80.9797 57.9419L80.9176 58.0673C80.4477 57.5342 79.8209 56.8768 79.2256 56.407C79.4948 56.2358 79.726 55.9302 79.9338 55.6555C79.992 55.5786 80.0484 55.5041 80.1032 55.4356C81.5444 53.4614 82.3904 51.2364 82.5157 48.7301L82.4536 48.511L82.5789 48.6048H84.7407L84.8661 48.5426L84.7723 48.6996L84.7713 48.6985Z" fill="#7D7D7D"/>
<path d="M70.8893 62.5489L70.7323 62.6426C70.7945 61.8588 70.7945 61.0445 70.7323 60.2607C70.982 60.3439 71.2457 60.3166 71.5137 60.2889C71.6494 60.2748 71.7861 60.2607 71.9228 60.2607L73.0827 60.0415C73.2809 60.0856 73.4598 60.2267 73.6372 60.3664C73.9641 60.6241 74.2856 60.8775 74.7125 60.5114C74.8046 60.406 74.9244 60.3449 75.044 60.2839C75.209 60.1998 75.3737 60.1159 75.4647 59.9162C75.7096 59.8345 75.8348 59.6465 75.9616 59.456C76.0295 59.354 76.0978 59.2514 76.1852 59.164C76.3384 58.7238 76.7018 58.5176 77.0686 58.3094C77.3023 58.1767 77.5373 58.0433 77.7202 57.8482C77.819 57.7584 77.9282 57.6712 78.0388 57.5828C78.3137 57.363 78.5977 57.1359 78.7547 56.8452L78.7863 57.0328L80.3845 58.5677C77.6896 61.0118 74.5249 62.3909 70.8904 62.5468L70.8893 62.5489Z" fill="#7D7D7D"/>
<path d="M70.8577 57.7228C70.971 57.7731 71.1145 57.7629 71.2558 57.7528C71.4667 57.7377 71.6729 57.723 71.7669 57.9103C71.749 57.946 71.7301 57.9805 71.7115 58.0144C71.6323 58.1585 71.5596 58.2908 71.6099 58.4434L71.6206 58.4676C71.7443 58.7468 71.902 59.1027 72.2367 59.1324C72.3305 59.2577 72.4559 59.2894 72.5812 59.3199C72.3645 59.354 72.1394 59.3716 71.9136 59.3891C71.5191 59.4198 71.1224 59.4507 70.7639 59.5706C70.8054 59.1527 70.7916 58.7349 70.7778 58.317C70.7709 58.108 70.7639 57.8991 70.7639 57.6901L70.6386 57.5332C70.7098 57.5572 70.7634 57.6171 70.8123 57.6717C70.8235 57.6842 70.8345 57.6965 70.8453 57.7079L70.8577 57.7207V57.7228Z" fill="#7D7D7D"/>
<path d="M70.2941 53.8691C70.1371 53.9007 69.9812 53.8691 69.8558 53.8069C69.8184 53.8069 69.8146 53.7729 69.8108 53.7389C69.8083 53.7165 69.8058 53.6941 69.7937 53.6816C69.8951 53.6816 69.9697 53.6278 70.0455 53.5732C70.1333 53.5099 70.2227 53.4455 70.3573 53.4624C70.4052 53.4145 70.4395 53.3574 70.474 53.3C70.5297 53.2072 70.586 53.1133 70.7018 53.0547C70.6671 52.95 70.7296 52.9429 70.7971 52.9352C70.8505 52.929 70.907 52.9226 70.9209 52.8672C70.9831 52.8051 71.0779 52.7419 71.1716 52.8051C71.2468 52.91 71.3578 52.9432 71.4702 52.9768C71.5926 53.0134 71.7167 53.0505 71.7985 53.1812C71.8606 53.2128 71.8922 53.119 71.8922 53.0874V52.9936C71.9962 52.9805 72.0786 53.0321 72.1573 53.0813C72.2684 53.1508 72.3723 53.2157 72.5191 53.0874C72.5812 53.0252 72.5507 52.9304 72.5191 52.8683C72.4875 52.8683 72.4569 52.8367 72.4569 52.8061C72.5483 52.7604 72.6177 52.8188 72.6902 52.8799C72.7664 52.9441 72.8461 53.0111 72.9584 52.9631C72.9999 52.9283 73.0369 52.8936 73.072 52.8607C73.1955 52.7447 73.2962 52.6502 73.4915 52.6502L73.5536 52.7124C73.5852 53.1506 73.2091 53.4329 72.8646 53.6521C72.8075 53.6765 72.7375 53.6924 72.6659 53.7088C72.4627 53.755 72.246 53.8043 72.2694 54.0598C72.132 54.1799 72.004 54.1307 71.8648 54.0771C71.75 54.0329 71.6275 53.9858 71.4856 54.0282C71.4142 53.9999 71.4077 53.9389 71.4013 53.878C71.3936 53.8049 71.3859 53.7319 71.2665 53.7153C71.1361 53.7508 71.0012 53.7325 70.8702 53.7148C70.6552 53.6858 70.451 53.6582 70.2951 53.8723L70.2941 53.8691Z" fill="#7D7D7D"/>
<path d="M68.4768 62.4551C65.4375 62.0474 62.7742 60.7316 60.4238 58.6952L61.9904 57.1286L62.022 57.0349C64.1838 59.1029 66.7849 60.168 69.7305 60.3565L69.9496 60.2944L69.8874 60.4198V62.4562L70.0128 62.6437C69.7221 62.5527 69.4105 62.5357 69.1084 62.5192C68.8894 62.5073 68.6753 62.4956 68.4778 62.4562L68.4768 62.4551Z" fill="#7D7D7D"/>
<path d="M57.8228 55.2797C56.7261 53.2433 56.0992 51.0499 55.9739 48.6364H58.0735L58.2926 48.5742C58.261 48.6996 58.261 48.8249 58.261 49.0125V48.9809C58.2259 48.9987 58.2405 49.0162 58.2599 49.0394C58.2748 49.0574 58.2926 49.0787 58.2926 49.1062C58.3242 49.9206 58.4801 50.6728 58.6687 51.3934L58.7625 51.5503C58.6682 51.456 58.6081 51.3621 58.5479 51.2681C58.508 51.2056 58.468 51.1431 58.418 51.0805L58.4115 51.0816C58.2261 51.1128 58.0404 51.1441 57.9165 51.268C57.9819 51.4207 57.8952 51.4368 57.805 51.4536C57.7657 51.4609 57.7258 51.4683 57.6974 51.4871C57.6658 51.425 57.6036 51.3618 57.5404 51.3302C57.3834 51.3302 57.2275 51.3618 57.1327 51.5177C57.1537 51.601 57.1054 51.6429 57.0521 51.6892C57.0252 51.7125 56.997 51.737 56.9757 51.7684C56.9699 51.8324 56.9608 51.8997 56.9514 51.9686C56.9105 52.2707 56.8654 52.6045 57.0695 52.8335C57.0695 53.0842 57.1949 53.3034 57.3824 53.4603C57.4446 53.4603 57.5078 53.4287 57.5394 53.3982C57.6129 53.4508 57.6723 53.5281 57.7306 53.604C57.8462 53.7545 57.9576 53.8995 58.1662 53.8364C58.2297 53.815 58.2357 53.7651 58.2428 53.7059C58.2462 53.6778 58.2498 53.6475 58.26 53.6173C58.3058 53.6631 58.3435 53.7222 58.3818 53.7821C58.4746 53.9275 58.5707 54.0779 58.793 54.0556C58.8102 54.0727 58.8274 54.0971 58.846 54.1234C58.8948 54.1924 58.953 54.2747 59.0438 54.2747C59.2257 54.2202 59.2701 54.3562 59.3185 54.5042C59.3534 54.6108 59.3903 54.7237 59.482 54.7762C59.5366 54.8126 59.5833 54.8597 59.6283 54.9051C59.7379 55.0156 59.8373 55.1158 60.0151 55.0269L60.1089 54.9015C60.1557 54.9326 60.1557 54.9874 60.1557 55.0423C60.1557 55.0972 60.1557 55.1523 60.2026 55.1839C60.328 55.4346 60.5787 55.5916 60.8294 55.6537C60.8718 55.7022 60.9142 55.7519 60.9568 55.8018C61.1345 56.0101 61.3162 56.223 61.5184 56.3743L61.3309 56.4365L59.8265 58.003L59.7389 57.8995C59.0719 57.1119 58.3313 56.2372 57.8207 55.2766L57.8228 55.2797Z" fill="#7D7D7D"/>
<path d="M56.0676 46.443C56.4437 43.3099 57.7912 40.5834 59.9529 38.1709L60.0151 38.39C60.5166 38.8915 61.0496 39.4246 61.55 39.8944C61.2711 40.0742 61.0804 40.3427 60.8899 40.6111C60.7811 40.7644 60.6723 40.9177 60.5471 41.0543C59.1997 42.9654 58.4159 45.1282 58.2905 47.5407L58.3527 47.8231C57.6005 47.7609 56.7861 47.7609 56.0023 47.8231C56.0142 47.6459 56.0127 47.4688 56.0111 47.2933C56.0086 47.0033 56.0061 46.7177 56.0645 46.444L56.0676 46.443Z" fill="#7D7D7D"/>
<path d="M61.7081 36.6349C64.1206 34.9114 66.8154 33.8779 69.8548 33.7525L69.761 33.9401L69.7926 35.7573L69.8548 35.9449C66.9092 36.0702 64.3397 37.1985 62.1147 39.2033L62.0831 39.2971C62.0282 39.2388 61.9726 39.1793 61.9163 39.1191C61.4579 38.6291 60.9529 38.0892 60.4228 37.6989H60.3606C60.6114 37.5483 60.8445 37.3442 61.0787 37.139C61.2834 36.9598 61.489 36.7797 61.7081 36.6338V36.6349Z" fill="#7D7D7D"/>
<path d="M69.8864 41.993C69.6236 41.9326 69.3871 41.989 69.1514 42.0452C69.0215 42.0762 68.8918 42.1071 68.7581 42.1184C67.9121 42.3375 67.1599 42.8074 66.4393 43.3088L66.4363 43.3147C66.4058 43.3749 66.3752 43.4352 66.314 43.4658C66.1002 43.2774 65.8915 43.0637 65.6818 42.849C65.3687 42.5284 65.0534 42.2056 64.7158 41.9614C66.1886 40.7709 67.8489 39.9555 69.761 39.8302L69.8864 39.768C69.7926 40.4886 69.7926 41.2724 69.8864 41.993Z" fill="#7D7D7D"/>
<path d="M69.2912 44.4371C69.2789 44.4007 69.2903 44.3595 69.3015 44.3191C69.3191 44.2554 69.3362 44.1934 69.2595 44.1548C69.0588 44.2462 69.0176 44.4121 68.9748 44.5841C68.9442 44.7074 68.9128 44.8339 68.8213 44.9386C68.8033 45.0455 68.7141 45.061 68.6175 45.0778C68.5446 45.0904 68.4675 45.1038 68.4136 45.1577C68.3198 45.0007 68.1313 45.0323 68.0059 45.0956C67.9252 45.0956 67.8734 45.0259 67.8255 44.9616C67.7621 44.8765 67.7056 44.8006 67.5982 44.908C67.5762 44.93 67.5658 44.9598 67.5561 44.9879C67.5382 45.0393 67.5223 45.0848 67.4412 45.065C67.4214 45.0261 67.3897 45.0116 67.361 44.9984C67.3438 44.9905 67.3277 44.9831 67.3158 44.9712C67.3158 44.9126 67.3569 44.8883 67.3942 44.8662C67.4367 44.8411 67.4743 44.8188 67.4412 44.7521C67.366 44.6017 67.2233 44.5529 67.0805 44.504C66.9852 44.4714 66.8898 44.4388 66.8144 44.376H66.6269C67.5044 43.4363 68.6327 43.0286 69.8548 42.8411C69.8548 42.9453 69.8524 43.0532 69.85 43.163C69.84 43.6144 69.8293 44.0989 69.9801 44.5014C69.8703 44.3545 69.728 44.3905 69.5848 44.4267C69.4836 44.4524 69.3819 44.4781 69.2912 44.4392V44.4371Z" fill="#7D7D7D"/>
<path d="M67.1915 50.579C67.3169 50.4536 67.4423 50.2661 67.5044 50.0776L67.7551 50.2029C67.6021 50.2222 67.4958 50.3231 67.3936 50.4201C67.3283 50.4821 67.2646 50.5425 67.1915 50.579Z" fill="#7D7D7D"/>
<path d="M69.604 52.8662C69.5451 52.984 69.5478 53.1267 69.5503 53.2634C69.5518 53.3442 69.5532 53.4229 69.5419 53.493C68.539 53.3055 67.6308 52.8978 66.8154 52.2393C66.972 52.0722 67.1426 51.9085 67.3131 51.7449C67.6542 51.4176 67.9953 51.0903 68.225 50.7349C68.249 50.925 68.4345 51.0248 68.605 51.1166C68.6595 51.1459 68.7124 51.1744 68.7581 51.2048C68.8076 51.2276 68.8581 51.2518 68.9094 51.2764C69.28 51.454 69.6928 51.6519 70.1055 51.4871L70.0117 51.5809C70.0718 51.6409 70.0528 51.7009 70.0339 51.761C70.0133 51.8263 69.9926 51.8917 70.0739 51.957C70.0921 52.0109 70.0584 52.0338 70.0265 52.0555C70.0028 52.0716 69.9801 52.0871 69.9801 52.114C70.001 52.156 70.0043 52.2121 70.0077 52.2704C70.0146 52.3862 70.022 52.5109 70.1677 52.5522C70.2298 52.6144 70.1677 52.7397 70.0739 52.7397C69.8864 52.7081 69.6978 52.7081 69.604 52.8651V52.8662Z" fill="#7D7D7D"/>
<path d="M64.9349 44.7195C64.7158 44.8448 64.5588 45.064 64.4335 45.2525C64.3619 45.3004 64.2856 45.3253 64.21 45.3501C64.0873 45.3903 63.9663 45.4299 63.8698 45.5654C63.8698 45.5979 63.8811 45.6304 63.8919 45.6616C63.9123 45.7204 63.9311 45.7748 63.8698 45.8161C63.7936 45.88 63.6911 45.8867 63.5901 45.8933C63.4429 45.9029 63.2986 45.9123 63.243 46.0985C63.2287 46.226 63.1506 46.3278 63.0721 46.43C62.9769 46.554 62.8812 46.6786 62.8985 46.8507C62.711 46.9761 62.7415 47.1952 62.7732 47.3838C62.8141 47.4385 62.8133 47.5112 62.8124 47.5836C62.8113 47.6767 62.8101 47.7692 62.8985 47.822L62.8227 47.8133C62.547 47.7811 62.1878 47.7391 61.9588 47.8536C62.0507 47.652 62.0671 47.4287 62.0838 47.2028C62.0956 47.0427 62.1074 46.8813 62.1463 46.7253C62.4287 45.1588 63.1493 43.7797 64.1827 42.5261C64.3611 42.6938 64.5428 42.8756 64.7268 43.0596C65.0928 43.4258 65.468 43.801 65.8431 44.0926C65.6279 44.0926 65.5183 44.2437 65.4068 44.3976C65.2913 44.5571 65.1736 44.7195 64.9339 44.7195H64.9349Z" fill="#7D7D7D"/>
<path d="M63.9004 53.65L63.8382 53.1801C63.5308 52.9163 63.5158 52.4984 63.5018 52.1103C63.4959 51.9452 63.4901 51.7854 63.4621 51.6452C63.2916 51.5085 63.2885 51.3347 63.2853 51.1591C63.2827 51.0124 63.28 50.8645 63.1798 50.736C63.1798 50.542 63.0449 50.4032 62.9134 50.2679C62.7478 50.0975 62.5878 49.9328 62.7099 49.6709C62.6162 49.5455 62.5224 49.3886 62.6162 49.2326C62.6733 49.1612 62.7692 49.1548 62.8657 49.1484C62.9812 49.1406 63.0976 49.1329 63.1493 49.0135L63.2114 48.6058C63.2775 48.5663 63.3547 48.5823 63.4288 48.5977C63.5307 48.6189 63.627 48.6389 63.6813 48.5121C63.7452 48.3588 63.6635 48.19 63.5865 48.031C63.4745 47.7998 63.3726 47.5893 63.7434 47.4775C63.9626 47.4459 64.2133 47.4154 64.307 47.665C64.3137 47.7247 64.3232 47.7857 64.3327 47.8475C64.3685 48.0782 64.4059 48.3199 64.307 48.5426C64.4366 48.5855 64.4022 48.6888 64.3686 48.7899C64.3536 48.8351 64.3387 48.8799 64.3387 48.9187C64.305 48.9354 64.2736 48.9567 64.2426 48.9776C64.1583 49.0347 64.0774 49.0895 63.9626 49.0441L63.9501 49.0248L63.9389 49.0071C63.877 48.9085 63.787 48.7655 63.6497 48.7933C63.571 48.8918 63.6035 48.9899 63.6386 49.0959C63.6595 49.1588 63.6813 49.2246 63.6813 49.2948C63.6685 49.3328 63.666 49.3759 63.6635 49.42C63.6599 49.4849 63.6561 49.5519 63.6191 49.6077C63.6137 49.6049 63.6085 49.6022 63.6035 49.5995C63.6018 49.5986 63.6001 49.5976 63.5984 49.5967L63.5852 49.5893C63.5421 49.5652 63.5069 49.5455 63.4316 49.5455C63.3156 49.603 63.3872 49.7417 63.4236 49.8122L63.4316 49.8279C63.4593 49.8486 63.4855 49.8709 63.5115 49.893C63.6031 49.9709 63.6924 50.047 63.8393 50.047L63.9014 49.9532C63.8836 49.8117 63.9158 49.6903 63.9472 49.5718C63.9714 49.4804 63.9952 49.3907 63.9952 49.2948L64.2143 49.4202C64.4019 50.3599 64.8412 51.2058 65.3742 52.0213L65.6566 52.3036C64.9676 52.8988 64.3092 53.6194 63.7139 54.2779C63.7139 54.2463 63.6823 54.1209 63.5886 54.1841C63.5593 54.051 63.6482 54.0017 63.7405 53.9506C63.8439 53.8933 63.9516 53.8337 63.9014 53.651L63.9004 53.65Z" fill="#7D7D7D"/>
<path d="M68.7265 56.3448L69.1026 56.5018C67.7868 56.1889 66.3761 55.718 65.2489 54.7783C65.1865 54.7366 65.131 54.681 65.0754 54.6254C64.9641 54.5138 64.8526 54.4022 64.6853 54.4022C65.2183 53.9639 65.7503 53.3992 66.1896 52.8672C66.3223 53.1333 66.581 53.305 66.8317 53.4714C66.9355 53.5403 67.0378 53.6082 67.1294 53.6816C67.2734 53.7457 67.4196 53.8261 67.569 53.9083C68.0039 54.1477 68.4654 54.4017 68.9783 54.3084C68.7591 54.3706 68.5706 54.4959 68.4146 54.6845C68.3883 54.7461 68.3718 54.8127 68.3555 54.8787C68.3138 55.0475 68.2731 55.2123 68.0701 55.2797C68.0701 55.6229 68.3833 55.9661 68.6526 56.2612C68.6784 56.2896 68.7039 56.3174 68.7286 56.3448H68.7265Z" fill="#7D7D7D"/>
<path d="M66.4699 50.422C66.4699 50.4842 66.5636 50.579 66.6574 50.5158C66.7004 50.4583 66.6645 50.3878 66.6312 50.3221C66.5918 50.2446 66.5559 50.1739 66.6574 50.1397C66.7323 50.2146 66.7399 50.3343 66.7473 50.452C66.7524 50.5312 66.7573 50.6096 66.7828 50.6728C66.8449 50.7665 66.8765 50.8603 66.8449 50.9551C66.779 51.0306 66.7073 51.1031 66.636 51.1754C66.4701 51.3434 66.3057 51.5099 66.2181 51.7073C66.1554 51.5351 66.0458 51.3784 65.9363 51.2217C65.8267 51.0649 65.7172 50.9082 65.6545 50.736C65.5347 50.5131 65.4429 50.2812 65.3535 50.0552C65.2794 49.8678 65.2069 49.6845 65.1214 49.5139C65.197 49.6023 65.3188 49.6143 65.4371 49.6259C65.6122 49.6431 65.7798 49.6595 65.7798 49.9216C65.7993 49.9411 65.8184 49.9366 65.845 49.9302C65.8616 49.9263 65.881 49.9216 65.9052 49.9216C65.9466 49.8802 65.999 49.8697 66.0622 49.89C66.072 49.9093 66.0968 49.9287 66.1217 49.9482C66.177 49.9913 66.2326 50.0347 66.1243 50.0776C66.1559 50.2345 66.3119 50.3904 66.4688 50.422H66.4699Z" fill="#7D7D7D"/>
<path d="M69.8537 39.0158C69.5835 38.9537 69.3271 39.0012 69.0665 39.0495C68.934 39.0741 68.8004 39.0989 68.6633 39.1096C66.9713 39.4541 65.4048 40.1747 64.1195 41.3967L64.0574 41.2397C63.9007 41.0929 63.747 40.9338 63.5927 40.774C63.2531 40.4224 62.9099 40.067 62.5224 39.8302C62.7799 39.6755 63.0281 39.474 63.2773 39.2717C63.4829 39.1049 63.689 38.9376 63.9014 38.7956C65.6566 37.6052 67.6308 36.9467 69.8242 36.8214C69.7739 37.4045 69.805 38.0083 69.8355 38.5993C69.8426 38.7384 69.8498 38.8775 69.8558 39.0148L69.8537 39.0158Z" fill="#7D7D7D"/>
<path d="M61.2677 47.821L61.0802 47.7588L59.0122 47.7904C59.1997 45.4717 59.8265 43.3404 61.1739 41.5231L61.9883 40.4886V40.3316C62.4582 40.8953 63.0228 41.4283 63.5865 41.9298C62.0821 43.5279 61.3299 45.4706 61.1739 47.6018C61.1831 47.6291 61.1897 47.6564 61.1958 47.6821C61.2108 47.7449 61.2236 47.7985 61.2677 47.821Z" fill="#7D7D7D"/>
<path d="M59.7328 51.3302C59.5814 51.352 59.5642 51.4634 59.5476 51.5715C59.5402 51.6198 59.5328 51.6675 59.5136 51.7063C59.5325 51.3876 59.4505 51.0803 59.368 50.7709C59.3125 50.5628 59.2567 50.3537 59.2313 50.1397L59.0743 48.7607L58.9806 48.6353C59.3935 48.6941 59.843 48.6916 60.2909 48.6891C60.5571 48.6876 60.823 48.6861 61.0802 48.6975L61.2372 48.6353C61.175 48.9798 61.175 49.4497 61.3941 49.732C61.37 49.7079 61.3439 49.6735 61.3151 49.6356C61.2318 49.526 61.1266 49.3875 60.9864 49.3875C60.8054 49.4027 60.7042 49.5268 60.6025 49.6514C60.493 49.7857 60.383 49.9206 60.1721 49.9206C59.8592 50.1713 59.796 50.5474 59.7338 50.9235C59.8161 50.9727 59.7864 51.0392 59.7529 51.1139C59.7226 51.1818 59.6892 51.2565 59.7338 51.3312L59.7328 51.3302Z" fill="#7D7D7D"/>
<path d="M61.9261 48.5415C62.1453 48.6985 62.396 48.6669 62.6467 48.6037C62.4091 48.6829 62.3843 48.887 62.3586 49.0977C62.3437 49.2206 62.3284 49.3457 62.2706 49.4497C62.2548 49.5125 62.3019 49.5594 62.349 49.6063C62.3959 49.6531 62.4429 49.7 62.4276 49.7626C62.2749 49.8389 62.2256 49.9782 62.1784 50.1115C62.1676 50.1418 62.157 50.1719 62.1453 50.2008C62.2052 49.88 62.1501 49.5721 62.0943 49.2606C62.0629 49.0852 62.0313 48.9087 62.0199 48.728V48.7291L61.9261 48.5415Z" fill="#7D7D7D"/>
<path d="M69.7284 59.4769L69.947 59.6335L69.8537 59.3526V57.3467L69.6662 57.4089C67.8173 57.3467 66.2191 56.6567 64.778 55.5916C64.7909 55.6689 64.8405 55.7356 64.8903 55.8024C64.9619 55.8987 65.0338 55.9953 64.9971 56.1246C64.8717 56.3438 64.621 56.3438 64.4019 56.3438C64.153 56.308 63.9447 56.403 63.7368 56.4978C63.5776 56.5704 63.4187 56.643 63.242 56.6567C63.0419 56.7071 62.9127 56.6064 62.7838 56.5058C62.6704 56.4173 62.5572 56.329 62.396 56.3438C64.4956 58.1611 66.9081 59.3199 69.7284 59.4769Z" fill="#7D7D7D"/>
<path d="M70.292 45.596L70.4173 45.6581C70.3706 45.6581 70.321 45.6498 70.2713 45.6414C70.1541 45.6217 70.0355 45.6017 69.9475 45.6897C69.8657 45.7439 69.9025 45.8462 69.9342 45.9343C69.9389 45.9472 69.9434 45.96 69.9475 45.9721C70.0581 46.0088 70.1349 46.1032 70.2081 46.1932C70.3218 46.333 70.4269 46.4622 70.6365 46.3482L70.6579 46.3524C70.8101 46.3828 70.9838 46.4174 71.0442 46.5673C71.1317 46.6047 71.1893 46.6872 71.2448 46.7667C71.3285 46.8865 71.4076 46.9997 71.5772 46.9434C71.5772 46.9731 71.575 47.0062 71.5727 47.0409C71.5627 47.1897 71.5506 47.3689 71.7026 47.4449C71.6888 47.4996 71.6453 47.5423 71.6006 47.5861C71.543 47.6426 71.4835 47.7009 71.4835 47.7894C71.4519 47.821 71.4213 47.9147 71.4519 47.9769C71.6328 47.9971 71.6848 48.133 71.7402 48.2775C71.7712 48.3585 71.8032 48.4422 71.8596 48.5099C71.7974 48.7291 71.8596 48.9482 72.0787 49.0736C72.0542 49.2677 71.9736 49.4428 71.8949 49.6137C71.8719 49.6636 71.8492 49.7131 71.828 49.7626C71.7233 49.8208 71.5884 49.8057 71.4553 49.7908C71.2297 49.7655 71.0094 49.7408 70.9504 50.0754C70.8898 50.1479 70.8713 50.2532 70.8533 50.3552C70.8249 50.5171 70.7979 50.6707 70.6059 50.6707C69.9791 50.7023 69.4155 50.5769 68.9456 50.2324C69.0559 50.1771 69.1935 50.1685 69.3296 50.16C69.5796 50.1443 69.8246 50.129 69.8853 49.8247C69.9791 49.7626 70.0107 49.6372 69.9475 49.5424C70.0485 49.4414 70.0971 49.3278 70.1442 49.2178C70.1704 49.1568 70.196 49.0969 70.2298 49.0409C70.13 48.9411 70.1497 48.8813 70.1774 48.7978C70.1844 48.7765 70.192 48.7535 70.1982 48.728C69.9646 48.4944 69.6781 48.5221 69.3782 48.5512C69.2765 48.561 69.1732 48.5711 69.0699 48.5711C68.9316 48.6402 68.9459 48.7571 68.9601 48.8741C68.9717 48.9694 68.9834 49.0647 68.9129 49.1347C68.7234 49.1538 68.6487 49.2762 68.5703 49.4046C68.5193 49.4881 68.4667 49.5743 68.3799 49.6361C68.2545 49.574 68.1607 49.417 68.1607 49.2916H68.1924C68.1607 49.3538 68.224 49.417 68.2545 49.417C68.4431 49.4381 68.4634 49.3051 68.4844 49.1679C68.4948 49.0997 68.5054 49.0305 68.5368 48.9788C68.5477 48.9144 68.6063 48.8427 68.6648 48.7712C68.777 48.634 68.8886 48.4975 68.6622 48.4151C68.6503 48.3918 68.6518 48.3595 68.6534 48.3266C68.6559 48.272 68.6586 48.2157 68.6001 48.196C68.5824 48.2019 68.5615 48.2068 68.5391 48.2119C68.4695 48.2279 68.386 48.2471 68.3442 48.3129C68.3481 48.2596 68.3503 48.2056 68.3525 48.1515C68.3601 47.9668 68.3677 47.7821 68.4431 47.6313C68.3808 47.4647 68.4706 47.3674 68.5562 47.2748C68.5993 47.228 68.6414 47.1825 68.6622 47.1299C68.813 47.1516 68.86 47.0246 68.9053 46.9025C68.9258 46.8472 68.9459 46.7928 68.9751 46.7538L69.0025 46.7463C69.3394 46.6549 69.7023 46.5563 69.9464 46.1901C69.9072 46.1118 69.8953 46.0169 69.8833 45.9215C69.8665 45.7886 69.8497 45.6547 69.7589 45.5633L69.7906 45.5568C69.9479 45.5244 70.1748 45.4777 70.292 45.5949V45.596Z" fill="#7D7D7D"/>
<path d="M68.3177 48.5089C68.3224 48.4877 68.3264 48.4661 68.3298 48.4442C68.3701 48.564 68.3082 48.7046 68.1924 48.7912H68.1302C68.1618 48.6975 68.0986 48.6343 68.0364 48.6037C67.9518 48.6037 67.8799 48.6292 67.8091 48.6543C67.723 48.6849 67.6385 48.7148 67.535 48.6975C67.2842 48.7596 67.0335 48.7912 66.7828 48.7912C66.7652 48.7037 66.8254 48.6847 66.8932 48.6632C66.947 48.6461 67.0055 48.6276 67.0335 48.5721C67.0087 48.4 67.1001 48.2663 67.186 48.1408C67.2094 48.1065 67.2325 48.0727 67.2526 48.039C67.3148 47.9769 67.4402 48.0074 67.5034 48.039C67.5655 48.1012 67.6287 48.1644 67.7225 48.1328L67.7846 48.0074C67.8665 48.0543 67.9003 48.1755 67.9334 48.2942C67.9889 48.4934 68.0425 48.6858 68.3177 48.5089Z" fill="#7D7D7D"/>
<path d="M71.5772 36.8846C72.8931 37.0416 74.0846 37.4177 75.2434 37.9497C75.3093 38.0377 75.3908 38.1142 75.4714 38.19C75.6204 38.3299 75.7667 38.4673 75.807 38.6703C75.7185 38.8922 75.8534 39.0022 75.9808 39.1062C76.1232 39.2224 76.2563 39.3309 76.0578 39.5794C76.0365 39.6852 76.0865 39.7479 76.1407 39.816C76.1669 39.8489 76.1941 39.883 76.2147 39.9239C76.2243 39.9618 76.2252 40.0053 76.2261 40.0503C76.2283 40.1541 76.2305 40.2655 76.3401 40.3316C76.4776 40.3619 76.5703 40.2885 76.6619 40.2161C76.7585 40.1397 76.8537 40.0644 76.9986 40.1125C77.343 40.3632 77.4368 40.8015 77.4368 41.1776C77.4684 41.4283 77.6875 41.5853 77.9067 41.6791C78.1621 41.606 78.205 41.7459 78.2522 41.9002C78.286 42.0105 78.322 42.1282 78.4397 42.1805C78.5954 42.1948 78.7192 42.2986 78.8429 42.4022C78.9929 42.5279 79.1427 42.6534 79.3489 42.6188C79.5427 42.7598 79.6871 42.9405 79.8321 43.1218C79.9448 43.2629 80.058 43.4044 80.1949 43.5279C80.1949 43.5901 80.2265 43.6533 80.2886 43.6849C80.3945 43.7028 80.4709 43.6706 80.5453 43.6391C80.6027 43.6149 80.659 43.5912 80.7269 43.5912C81.3221 44.7816 81.6045 46.0985 81.6982 47.5081L81.7604 47.665C81.0398 47.665 80.2876 47.665 79.5354 47.7272C79.5291 47.6402 79.5253 47.5532 79.5216 47.4668C79.5064 47.1184 79.4918 46.7811 79.3162 46.5051C79.4416 46.286 79.4732 45.9721 79.4416 45.7213C79.4183 45.6288 79.3438 45.6729 79.2942 45.7023C79.2766 45.7127 79.2621 45.7213 79.2541 45.7213C79.0798 45.8737 79.0114 46.0866 78.9438 46.2971C78.9141 46.3894 78.8846 46.4813 78.8464 46.5673C78.6273 46.8496 78.5957 47.3195 78.721 47.6324L78.8148 47.7261H77.9688C78.0745 47.6657 78.0346 47.576 77.9896 47.4748C77.9413 47.3663 77.887 47.2444 78.0004 47.1309L78.3765 47.0688C78.4216 46.9673 78.4909 46.878 78.5597 46.7894C78.6824 46.6313 78.8038 46.4751 78.7842 46.2544C78.9412 46.0353 79.0971 45.7845 78.9718 45.5022C78.8889 45.3221 78.9404 45.1359 78.9912 44.9519C79.0555 44.7193 79.1189 44.4901 78.9096 44.2801C78.9412 44.1548 78.878 43.9978 78.7221 43.9978C78.6926 43.9904 78.6631 43.9864 78.6352 43.9827C78.5446 43.9706 78.4713 43.9609 78.4713 43.8408C78.4873 43.8168 78.5116 43.7906 78.5378 43.7624C78.6137 43.6806 78.7059 43.5814 78.6589 43.4647C78.6019 43.3886 78.5332 43.405 78.46 43.4225C78.4127 43.4338 78.3636 43.4455 78.3144 43.4331C78.3027 43.3637 78.3425 43.2942 78.3814 43.2262C78.4477 43.1104 78.5115 42.999 78.3144 42.9001C78.2136 42.8855 78.1394 42.9307 78.0672 42.9746C77.9823 43.0262 77.9003 43.0761 77.7813 43.0254C77.6875 42.9633 77.6243 42.8063 77.7191 42.7125L77.2809 42.1489C77.2665 42.1206 77.2264 42.1246 77.187 42.1286C77.1397 42.1333 77.0934 42.1379 77.0934 42.0868C77.1099 41.8576 76.972 41.6797 76.8321 41.4992C76.7046 41.3347 76.5754 41.168 76.5603 40.9585C76.4897 40.8878 76.4762 40.792 76.4628 40.6966C76.4464 40.5799 76.4301 40.4638 76.3096 40.3948C76.1842 40.3011 76.0588 40.2073 75.8713 40.2695C75.6838 39.9871 75.4636 39.7364 75.2129 39.4857C75.1521 39.4548 75.0902 39.5146 75.058 39.5458L75.0559 39.5478C75.0709 39.6518 75.1352 39.7346 75.1986 39.8164C75.269 39.907 75.3382 39.9963 75.3382 40.1115C75.3066 40.1115 75.2761 40.1115 75.2445 40.1431C75.2761 40.3622 75.4636 40.5508 75.589 40.6761C74.3985 39.767 72.9879 39.2971 71.5151 39.0464C71.4134 39.0464 71.3078 39.0301 71.2011 39.0137C71.0114 38.9845 70.8182 38.9548 70.6375 39.0148C70.6844 38.5182 70.6785 37.9689 70.6728 37.4329C70.671 37.2581 70.6691 37.0848 70.6691 36.9151L70.607 36.7582C70.8186 36.8546 71.0186 36.856 71.214 36.8574C71.3367 36.8583 71.4576 36.8591 71.5783 36.8835L71.5772 36.8846Z" fill="#7D7D7D"/>
<path fill-rule="evenodd" clip-rule="evenodd" d="M72.1725 33.8452C75.2118 34.2529 77.9067 35.475 80.1938 37.6368L79.9431 37.7305C79.8301 37.852 79.7099 37.9687 79.5905 38.0846C79.2791 38.3869 78.9732 38.6839 78.8148 39.0464C78.7966 38.9563 78.7168 38.887 78.6402 38.8207C78.5834 38.7714 78.5284 38.7237 78.5019 38.6703C78.4703 38.2626 78.0636 37.8559 77.6875 37.6357C77.5718 37.6102 77.4877 37.5214 77.4051 37.434C77.2862 37.3083 77.1702 37.1857 76.9669 37.2596C76.6704 37.0219 76.317 37.179 76.0405 37.3019L75.9956 37.3218V37.3534C74.5544 36.539 72.9563 36.0376 71.2327 35.9122C71.1859 35.9122 71.1545 35.9277 71.1232 35.9433C71.0918 35.9588 71.0605 35.9744 71.0136 35.9744C71.0828 35.9285 71.0671 35.8137 71.0541 35.719C71.0495 35.6855 71.0452 35.6544 71.0452 35.6299C71.0136 35.5677 70.9199 35.4729 70.7945 35.5361C70.7629 35.5983 70.7323 35.6615 70.7323 35.7236C70.7639 35.0652 70.7945 34.2192 70.7007 33.624C70.9717 33.74 71.2789 33.7604 71.5925 33.7814C71.7861 33.7943 71.9821 33.8073 72.1735 33.8431L72.1725 33.8452ZM77.1571 37.01C77.0949 36.9478 77.0949 36.8846 77.0949 36.7909V36.7898C77.1538 36.7166 77.2127 36.7398 77.2781 36.7656C77.3518 36.7947 77.4337 36.8271 77.5332 36.7276C77.6901 36.7909 77.8155 36.853 77.8777 37.01C77.8645 37.091 77.892 37.1663 77.9173 37.2358C77.9507 37.3272 77.9805 37.4086 77.9093 37.4798C77.6641 37.5362 77.5549 37.4002 77.4388 37.2556C77.3618 37.1597 77.2818 37.06 77.1571 37.01ZM71.0477 35.5066C71.3871 35.924 71.9214 35.7983 72.3801 35.6903C72.4725 35.6686 72.5618 35.6476 72.6458 35.6319C73.0219 35.7889 73.3664 35.6003 73.6172 35.3812V35.319C73.3687 34.9464 72.8741 34.9119 72.4388 34.8816L72.4267 34.8808L71.33 35.3506L71.3142 35.3452C71.2195 35.3128 71.0759 35.2637 71.0171 35.3822C70.9859 35.4437 71.0164 35.4753 71.0477 35.5066Z" fill="#7D7D7D"/>
<path d="M73.5821 53.3666C74.2405 53.4287 74.8663 53.5857 75.4626 53.8048C75.6195 53.8048 75.7754 53.8048 75.8703 53.6795C75.8545 53.5541 75.9171 53.4601 75.9798 53.3661C76.0425 53.272 76.1052 53.178 76.0894 53.0526C76.1441 52.957 76.1571 52.8493 76.1699 52.7427C76.1865 52.6051 76.2028 52.4693 76.3085 52.3636C76.3401 52.1129 76.3085 51.8 76.121 51.6114C76.0115 51.5461 75.9025 51.5873 75.7934 51.6285C75.746 51.6464 75.6986 51.6644 75.6511 51.6736C75.5786 51.7221 75.5435 51.8127 75.5095 51.9002C75.4556 52.0391 75.4048 52.17 75.2129 52.1119C75.1507 52.2056 74.9937 52.2056 74.9 52.174C74.8916 52.1656 74.8832 52.1594 74.8755 52.1537C74.8543 52.138 74.8378 52.1258 74.8378 52.0803C74.908 52.0401 74.9975 52.0224 75.0878 52.0046C75.2795 51.9668 75.4748 51.9282 75.4963 51.6726C75.5747 51.5941 75.6843 51.5706 75.7939 51.5472C75.9034 51.5237 76.013 51.5003 76.0915 51.4218C76.1399 51.3494 76.1744 51.2815 76.2074 51.2164C76.2598 51.113 76.3087 51.0167 76.4044 50.9204C76.4044 50.8893 76.4123 50.85 76.4202 50.8108C76.4281 50.7715 76.436 50.7323 76.436 50.7012C76.4425 50.7206 76.4477 50.7427 76.4532 50.7661C76.4743 50.8558 76.4998 50.9648 76.6235 51.0141C76.8004 51.0727 76.8667 50.9373 76.9258 50.8166L76.9364 50.795C76.9364 50.7328 76.968 50.638 77.0302 50.7012C77.1602 50.81 77.3205 50.7832 77.48 50.7565C77.5506 50.7446 77.621 50.7328 77.6886 50.7328C77.8761 50.6707 78.0963 50.6391 78.2838 50.6391C78.0963 51.485 77.6886 52.2372 77.1871 52.9894C77.1 53.0912 77.0195 53.1998 76.9363 53.3121C76.8405 53.4413 76.7407 53.576 76.6235 53.71C76.6056 53.6559 76.5928 53.5991 76.58 53.5419C76.5483 53.4008 76.5161 53.2573 76.4044 53.1464L76.3106 53.178C76.2695 53.2602 76.215 53.3356 76.1613 53.4097C76.0512 53.5618 75.9449 53.7088 75.9661 53.8986C75.86 54.0584 75.6732 54.0474 75.4799 54.0361C75.3316 54.0274 75.1795 54.0184 75.057 54.0861C74.8607 54.1449 74.7133 54.0437 74.5689 53.9445C74.483 53.8856 74.3982 53.8273 74.3048 53.8038C74.1808 53.7487 74.0449 53.7179 73.9102 53.6873C73.738 53.6482 73.5679 53.6095 73.4272 53.5214L73.4499 53.4867C73.498 53.4124 73.5291 53.3645 73.5842 53.3645L73.5821 53.3666Z" fill="#7D7D7D"/>
<path d="M75.2237 42.5853C74.9278 42.8812 74.6269 43.1819 74.3964 43.4963L74.3343 43.3394C73.3313 42.525 72.203 42.1173 70.9504 41.9603L70.7629 41.9919V39.9555L70.7007 39.7986C71.5467 39.9239 72.361 40.0493 73.1449 40.3C74.1162 40.6445 75.0253 41.1776 75.8713 41.8666L76.0588 41.9287L75.6511 42.1479L75.6501 42.1489C75.5153 42.2938 75.37 42.4391 75.2237 42.5853Z" fill="#7D7D7D"/>
<path d="M78.6824 49.3035C78.7129 49.0548 78.7436 48.8035 78.8148 48.5722C78.3452 48.6038 77.8126 48.6352 77.4684 48.4783L77.6875 48.6975C77.7924 48.7726 77.8111 48.8906 77.8296 49.007C77.8498 49.1339 77.8697 49.2589 78.0004 49.3243C78.2396 49.4573 78.3661 49.7248 78.4754 49.9559L78.4759 49.9569C78.4955 49.9983 78.5145 50.0385 78.5335 50.0765C78.5486 50.0459 78.5562 50.0073 78.5639 49.9686C78.5717 49.9288 78.5796 49.8889 78.5957 49.8574C78.6362 49.681 78.6592 49.493 78.6824 49.3035Z" fill="#7D7D7D"/>
<path d="M77.4674 44.5614C77.5929 44.5926 77.695 44.6789 77.7971 44.7653C77.8989 44.8514 78.0007 44.9376 78.1258 44.9691C78.2963 45.2371 78.3909 45.5433 78.4835 45.8432C78.5099 45.9288 78.5362 46.0139 78.564 46.0974C78.491 46.1704 78.4424 46.2748 78.3937 46.3792C78.2962 46.5881 78.1986 46.7973 77.9056 46.7559C77.857 46.6259 77.9092 46.5296 77.9621 46.432C78.0112 46.3414 78.0609 46.2498 78.031 46.129C78.0506 46.1094 78.0766 46.0928 78.1039 46.0754C78.163 46.0376 78.2285 45.9957 78.2501 45.9099C78.2343 45.8005 78.1563 45.7536 78.0782 45.7066C77.9998 45.6596 77.9214 45.6124 77.9056 45.5022C77.832 45.4038 77.7194 45.3826 77.6137 45.3628C77.5848 45.3574 77.5564 45.352 77.5295 45.3452C77.4087 45.2916 77.2882 45.3928 77.1848 45.4795C77.0464 45.5956 76.9389 45.6858 76.9027 45.3452C76.9964 45.2831 77.0597 45.1577 76.9648 45.0629C76.8361 44.9985 76.7651 44.8763 76.6925 44.7514C76.6238 44.6331 76.5537 44.5124 76.4318 44.4361C76.2843 44.4361 76.1418 44.4119 76.0022 44.3883C75.7856 44.3517 75.5761 44.3163 75.3667 44.3739C75.3309 44.3637 75.2933 44.351 75.2548 44.338C75.0578 44.2713 74.8346 44.1958 74.6777 44.4055C74.6777 44.5112 74.6379 44.6072 74.5975 44.7046C74.5662 44.78 74.5345 44.8563 74.5207 44.9386C74.427 44.907 74.3638 44.8132 74.3016 44.7195C74.742 44.2164 75.238 43.7133 75.7246 43.2196C75.9656 42.9752 76.2043 42.7331 76.4328 42.4945L76.4644 42.4007C76.5523 42.5125 76.6443 42.6243 76.7367 42.7367C77.0067 43.065 77.2806 43.3981 77.4674 43.7481C77.5054 43.8749 77.4354 44.0019 77.37 44.1206C77.274 44.2947 77.1879 44.451 77.4674 44.5625V44.5614Z" fill="#7D7D7D"/>
<path d="M73.206 51.8C73.206 51.9715 73.0556 52.0272 72.8955 52.0864C72.792 52.1248 72.6844 52.1646 72.6107 52.2383C72.517 52.2067 72.5791 52.0813 72.6107 52.0192C72.66 51.9945 72.705 51.9655 72.7496 51.9367C72.875 51.8559 72.9978 51.7767 73.206 51.8Z" fill="#7D7D7D"/>
<path d="M72.5475 45.5328C72.512 45.5417 72.4764 45.5557 72.4408 45.5697C72.351 45.6049 72.2612 45.6402 72.1714 45.5949L72.1476 45.5708L72.1253 45.5479C72.0078 45.4272 71.863 45.2783 71.67 45.2504C71.6103 45.2624 71.5597 45.297 71.5113 45.3301C71.4325 45.384 71.3595 45.4339 71.2622 45.3758C71.3754 45.2627 71.5186 45.1849 71.6637 45.1061C71.8808 44.9882 72.1022 44.8679 72.2336 44.6236C72.2957 44.4361 72.3589 44.2159 72.3273 44.0284C72.2652 43.9346 72.1398 43.8408 72.045 43.9346C71.9665 44.06 71.8411 44.1382 71.7158 44.2164C71.5904 44.2946 71.465 44.3729 71.3866 44.4982L70.8535 44.3107C70.8097 44.0765 70.8137 43.8149 70.8176 43.558C70.8221 43.2648 70.8265 42.9777 70.7597 42.7441C70.9542 42.8087 71.1632 42.8438 71.3771 42.8797C71.4736 42.8959 71.5713 42.9123 71.6689 42.9317C72.4527 43.1192 73.1417 43.4953 73.8307 43.903C73.7045 43.9529 73.5791 44.0845 73.4696 44.1993C73.4429 44.2274 73.417 44.2545 73.3924 44.2791C73.3924 44.3487 73.4408 44.3699 73.4891 44.3911C73.5278 44.408 73.5664 44.4249 73.5799 44.4666L73.7369 44.4045C73.5918 44.6806 73.3453 44.8084 73.1134 44.9287C72.8453 45.0678 72.5967 45.1967 72.5465 45.5328H72.5475Z" fill="#7D7D7D"/>
<path d="M76.7773 57.2835C76.5078 57.0348 76.7042 56.8272 76.9046 56.6154C77.0072 56.5069 77.1109 56.3973 77.1534 56.2806C77.0913 55.9361 76.6836 55.7169 76.4012 55.6221C76.2786 55.5489 76.2903 55.4371 76.3013 55.332C76.3044 55.3025 76.3075 55.2735 76.3075 55.246C76.3281 55.2254 76.3496 55.2048 76.3713 55.1839C76.4818 55.0778 76.6001 54.9643 76.652 54.8078L76.7141 54.9647L77.6538 55.9361C77.6538 56.1552 77.6854 56.3438 77.9046 56.4375C77.9514 56.4533 78.0062 56.4454 78.061 56.4375C78.1158 56.4296 78.1706 56.4217 78.2175 56.4375H78.1553C77.7476 56.8758 77.2777 57.2213 76.8079 57.5658L76.7141 57.7228C76.6678 57.6302 76.7129 57.5603 76.7554 57.4944C76.799 57.4268 76.8397 57.3635 76.7763 57.2845L76.7773 57.2835Z" fill="#7D7D7D"/>
<path d="M78.563 55.0901C78.4994 55.0265 78.4573 54.9446 78.416 54.8643C78.3357 54.7078 78.2582 54.557 78.0299 54.557C77.9046 54.557 77.873 54.6508 77.873 54.7446C77.873 54.7606 77.8751 54.7766 77.8771 54.7922C77.8829 54.8372 77.8883 54.8781 77.8414 54.9015L77.1524 54.3063C77.3861 54.189 77.5851 53.9149 77.7754 53.6528C77.8398 53.564 77.9033 53.4766 77.9667 53.3971C78.5936 52.5196 78.9697 51.5166 79.2825 50.5148C79.3763 50.6085 79.5333 50.6085 79.627 50.5464C79.7208 50.4526 79.7524 50.2956 79.6892 50.2019L79.4701 49.889C79.4809 49.7283 79.5027 49.5711 79.5241 49.4164C79.5654 49.1188 79.6054 48.8298 79.5638 48.5415L79.7208 48.6037C79.892 48.6037 80.0653 48.6057 80.2395 48.6076C80.7661 48.6136 81.3019 48.6196 81.8204 48.5721L81.7267 48.6975C81.5391 51.4239 80.5984 53.8986 78.6873 55.9045C78.7387 55.7497 78.6866 55.6044 78.6342 55.4584C78.591 55.3381 78.5477 55.2172 78.5619 55.0901H78.563Z" fill="#7D7D7D"/>
<path d="M84.7365 46.9118C84.746 46.9874 84.7469 47.0687 84.7479 47.1513C84.75 47.3428 84.7522 47.5418 84.8619 47.6956L82.6685 47.7272C82.6063 47.7588 82.5431 47.7894 82.481 47.7894L82.5431 47.6956C82.5115 45.9721 82.0417 44.4371 81.3832 42.9949C81.3637 42.588 81.1168 42.2651 80.8719 41.9448C80.7205 41.7469 80.5698 41.5499 80.474 41.3346C80.2648 41.1812 80.1177 40.9841 79.969 40.7851C79.7838 40.5371 79.5963 40.2861 79.2836 40.1125C79.2586 40.079 79.2357 40.0412 79.2127 40.003C79.1495 39.8982 79.085 39.7912 78.9707 39.768L79.2214 39.7059C79.2979 39.6294 79.375 39.553 79.4521 39.4765C79.913 39.0195 80.3766 38.5598 80.7258 38.0761C83.013 40.6456 84.4552 43.5279 84.7365 46.9128V46.9118Z" fill="#7D7D7D"/>
<path fill-rule="evenodd" clip-rule="evenodd" d="M98.7794 22H42V78.7794H98.7794V22ZM83.1945 62.8073C83.7493 62.702 84.3028 62.5969 84.8349 62.4543C87.3422 61.6389 90.0371 59.1326 90.3499 56.4377C90.0371 57.2521 89.3786 57.9737 88.6896 58.5373C87.9439 59.0964 87.1305 59.497 86.3166 59.898C85.2147 60.4407 84.1119 60.9839 83.1746 61.9212C83.1319 61.947 83.0868 61.9796 83.0401 62.0135C82.9151 62.1042 82.778 62.2035 82.6415 62.2035C83.2367 61.6705 83.8003 61.0131 84.1764 60.3546C84.7021 59.4679 84.8489 58.4262 84.996 57.383C85.1295 56.4358 85.2632 55.4873 85.6808 54.652C85.3745 55.0157 85.1149 55.3911 84.8522 55.7711C84.6849 56.0131 84.5162 56.257 84.3334 56.5009C83.7663 57.3828 83.4425 58.366 83.1195 59.3466C82.6392 60.8051 82.1607 62.2579 80.8864 63.3634C81.6207 63.1061 82.4095 62.9563 83.1945 62.8073ZM89.5847 53.0484C89.1019 53.6614 88.621 54.2721 88.2183 54.9026C88.3121 53.9934 88.4059 52.8662 88.0614 52.0202C87.4345 50.1713 86.9015 48.2908 86.7456 46.2544L86.7772 45.4706C86.9743 46.3382 87.4473 47.0954 87.9207 47.8534C88.5759 48.9022 89.2319 49.9526 89.1591 51.2986C89.1828 51.7212 89.1005 52.0918 89.0183 52.4617C88.9909 52.585 88.9634 52.7085 88.94 52.8335L88.9716 52.8651L89.0654 52.7714C89.1761 52.3722 89.2633 51.9613 89.3507 51.5497C89.5102 50.798 89.6702 50.0442 89.9745 49.3559C90.0511 49.1775 90.1301 48.9987 90.2095 48.8191C90.8134 47.453 91.4389 46.0383 91.1344 44.4045C92.1058 46.5979 91.7929 49.5118 90.6962 51.5799L90.6941 51.5809C90.3483 52.0787 89.9658 52.5643 89.5847 53.0484ZM90.099 46.5988C91.0703 44.5002 90.7879 41.6168 89.4405 39.7995L89.4395 39.7984C89.3538 39.6911 89.279 39.5765 89.2053 39.4634C89.0633 39.2458 88.9247 39.0334 88.7189 38.8893C89.2519 39.6099 89.3457 40.5506 89.3457 41.4904C89.096 43.2455 89.0328 45.0944 89.2835 46.8801C89.2835 46.9106 89.253 46.9422 89.2214 46.9422C89.1561 46.7467 89.1179 46.5402 89.0799 46.3342C89.0265 46.0451 88.9732 45.7569 88.8453 45.501C88.5358 44.5552 87.7631 43.8828 86.9891 43.2094C86.3537 42.6565 85.7175 42.1029 85.3361 41.3966C85.4614 42.0856 85.6806 42.744 85.9313 43.3709C86.2858 44.2505 86.8781 45.0276 87.4696 45.8037C88.1844 46.7415 88.8981 47.6779 89.1898 48.7922C89.2195 48.8804 89.2423 48.9826 89.2645 49.0824C89.2895 49.1948 89.3138 49.3043 89.3468 49.3874C89.4721 48.4161 89.7229 47.4764 90.099 46.5988ZM88.4692 39.4237C88.6446 40.2374 88.6007 41.0347 88.5567 41.8323C88.5144 42.6013 88.472 43.3705 88.6261 44.1549C88.0736 43.0897 87.1486 42.3719 86.2186 41.6503C85.6715 41.2257 85.1227 40.7999 84.6471 40.3012C83.9265 39.4869 83.582 38.5155 83.425 37.4494C83.8375 38.4542 84.6506 39.007 85.482 39.5723C86.103 39.9946 86.7342 40.4238 87.2166 41.0534C87.4592 41.2757 87.5975 41.5502 87.7324 41.8179C87.8066 41.9652 87.8798 42.1104 87.9688 42.2439L88.0004 42.2123C87.5587 41.2872 87.3147 40.292 87.0696 39.2925C86.9494 38.8021 86.8288 38.3103 86.6845 37.8255C86.4654 37.1987 85.9956 36.5718 85.3993 36.1652C86.9037 36.5097 88.1879 38.0457 88.4702 39.4237H88.4692ZM86.4948 39.3921C86.1503 38.0752 85.6489 36.791 84.5522 35.7881C83.8495 35.1562 83.0075 34.8388 82.1694 34.5228C81.8854 34.4158 81.6018 34.3089 81.3243 34.1899L82.5779 35.4752C83.6114 37.1039 85.0842 38.6705 86.6824 39.8304L86.4948 39.3921ZM59.1079 34.4098L59.1057 34.4118C58.9964 34.455 58.8861 34.4981 58.7751 34.5414C57.36 35.0941 55.8429 35.6866 54.9719 37.1679C54.5991 37.671 54.4368 38.274 54.2744 38.8778C54.1636 39.2892 54.0528 39.701 53.8752 40.0819C54.1706 39.8082 54.4775 39.5537 54.7838 39.2998C55.3544 38.8267 55.9238 38.3546 56.4131 37.7631C56.5815 37.5298 56.7473 37.291 56.9143 37.0505C57.5541 36.1291 58.2119 35.1818 59.1057 34.4118L59.1079 34.4109V34.4098ZM55.0354 36.4464C54.2516 36.6655 53.5627 37.1354 53.0296 37.7938C51.777 39.1107 51.9329 41.1155 52.0899 42.8707C52.1052 43.1375 52.0892 43.4046 52.0735 43.6678C52.0579 43.9295 52.0425 44.1873 52.0583 44.4372C52.4027 43.685 53.0601 43.0266 53.7186 42.4313C55.3167 41.3041 57.0086 39.7059 57.0403 37.7001C56.6732 38.6923 55.8163 39.2985 54.9705 39.897C54.5878 40.1677 54.2073 40.4368 53.8755 40.7394C53.3425 41.2714 52.9042 41.8983 52.6535 42.5567L52.6219 42.5251C52.6928 42.2064 52.8038 41.8974 52.9152 41.5871C53.0008 41.3488 53.0868 41.1096 53.1549 40.8648C53.2787 40.4611 53.3634 40.0359 53.4483 39.6096C53.6865 38.4137 53.9264 37.2091 55.0354 36.4464ZM51.7453 39.2658C50.6795 40.5823 49.959 42.0546 49.9901 43.8396C49.9223 45.028 50.3051 46.0324 50.69 47.0423C51.0154 47.8962 51.3423 48.754 51.3998 49.7302C51.6217 48.3416 52.4379 47.1986 53.2507 46.0602C53.7033 45.4264 54.1549 44.794 54.5023 44.1214C54.8468 43.3386 55.0975 42.5232 55.1913 41.7089C55.0659 42.0534 54.8152 42.3663 54.5645 42.6486L54.3722 42.8212C53.1704 43.8991 51.8869 45.0502 51.6189 46.5971L51.6081 46.6729C51.5797 46.8727 51.5486 47.0918 51.4935 47.2861C51.4784 47.2861 51.4707 47.2708 51.463 47.2554C51.4552 47.2398 51.4473 47.224 51.4314 47.224L51.5883 45.1875C51.609 44.5307 51.5186 43.8537 51.4284 43.1785C51.2433 41.7926 51.0592 40.4143 51.8391 39.2342C51.8233 39.2342 51.8077 39.2421 51.7922 39.25C51.7766 39.2579 51.7611 39.2658 51.7453 39.2658ZM49.2034 46.1053C49.184 46.1966 49.1644 46.2886 49.144 46.38H49.1419C48.8596 47.8212 49.1103 49.3572 49.518 50.673C49.7929 51.6629 50.4756 52.4706 51.158 53.2779C51.6419 53.8505 52.1257 54.4229 52.4636 55.0598L52.589 55.1535C52.4636 54.3381 52.432 53.43 52.6511 52.6462C52.7606 52.2491 52.8761 51.8553 52.992 51.4605C53.2418 50.609 53.4927 49.7537 53.6857 48.8547C53.7113 48.691 53.7395 48.5231 53.7681 48.3525C53.9145 47.4788 54.0729 46.5342 53.968 45.7216C53.8426 46.2546 53.6867 46.7561 53.4044 47.226C52.2761 48.9179 51.1478 50.9237 51.9316 53.1171C51.9316 53.1487 51.901 53.1487 51.8694 53.1487C51.6781 52.7082 51.5802 52.2208 51.4829 51.7367C51.421 51.4289 51.3594 51.1223 51.2742 50.83C51.0937 50.139 50.7905 49.4841 50.4869 48.8285C49.8958 47.5519 49.3034 46.2726 49.6139 44.7197C49.4039 45.1652 49.304 45.6338 49.2034 46.1053ZM49.0496 50.9856C49.1673 52.5596 50.273 53.664 51.3901 54.7797C52.0525 55.4414 52.7189 56.107 53.1856 56.8768L53.1963 56.8934C53.475 57.3261 53.754 57.7591 54.1253 58.1305C54.0913 57.9932 54.0008 57.856 53.9102 57.7187C53.8354 57.6052 53.7605 57.4918 53.7176 57.3783C53.2794 56.5007 53.1224 55.4672 53.2162 54.4327C53.2603 53.9799 53.3551 53.5388 53.4497 53.0986C53.6236 52.2891 53.797 51.4823 53.6544 50.6095C54.3097 52.0327 54.4504 53.6566 54.5913 55.2814C54.6862 56.3761 54.7811 57.4712 55.0334 58.5055C55.1324 58.8608 55.2933 59.1915 55.4537 59.5209C55.5477 59.714 55.6414 59.9067 55.7224 60.1037C55.3156 59.827 54.8824 59.5523 54.4396 59.2715C52.4262 57.9949 50.2151 56.593 49.393 54.3063C49.0169 53.3033 48.9548 52.1129 49.0485 50.9846L49.0496 50.9856ZM54.3293 60.0647C52.756 59.3104 51.1922 58.5607 50.3971 56.752C50.7416 58.82 52.3713 60.731 54.1886 61.8593C55.2237 62.582 56.4772 62.7812 57.7299 62.9803C58.4878 63.1008 59.2456 63.2212 59.9544 63.4575C58.6328 62.4185 58.1467 60.9531 57.6656 59.5028C57.5082 59.0282 57.3513 58.5553 57.1658 58.0994C56.6643 56.9395 55.9121 55.906 55.0662 54.9031C55.4727 55.7297 55.6159 56.669 55.7593 57.609C55.9366 58.7715 56.114 59.9351 56.7897 60.888C57.105 61.4048 57.6046 61.8686 58.0473 62.2795L58.1687 62.3924L58.1371 62.424C57.6989 62.2049 57.2912 61.9225 56.9151 61.5781C56.1471 60.9361 55.2366 60.4996 54.3293 60.0647ZM53.6259 62.0491C54.4087 63.5533 55.9751 64.7436 57.4794 65.245C59.4465 65.9359 61.5265 65.3871 63.4513 64.8793C63.7954 64.7885 64.1346 64.6991 64.4673 64.6182C64.6232 64.5711 64.802 64.5552 64.9771 64.5396C65.1545 64.5239 65.3281 64.5084 65.4702 64.4612C64.2481 64.2105 63.0882 63.8028 62.1169 62.9568C61.7964 62.6587 61.4831 62.357 61.1718 62.0573C60.1741 61.0968 59.1971 60.1563 58.0746 59.416C58.4484 59.911 58.7342 60.4806 59.0201 61.0506C59.6217 62.2495 60.224 63.4499 61.647 63.9598C61.8068 64.0472 61.987 64.0873 62.1656 64.1271C62.3719 64.173 62.576 64.2184 62.7437 64.3359C62.46 64.3791 62.207 64.3163 61.9526 64.2531C61.8413 64.2255 61.7298 64.1978 61.6154 64.1789C60.7866 63.9955 59.9014 63.9397 59.0146 63.8837C57.0188 63.7578 55.0148 63.6314 53.6259 62.0491ZM74.557 66.0267C76.3426 67.3741 78.7235 68.2517 80.9801 67.4057H80.9823C82.0168 67.0296 82.9881 66.3722 83.6771 65.4947C82.2981 66.4965 80.1679 66.6535 78.5381 66.0583L76.783 65.3693C75.0595 64.4601 72.8039 64.1156 70.8297 64.6171C70.5647 64.8616 70.3001 64.7619 70.0354 64.6623C69.8929 64.6086 69.7503 64.5549 69.6076 64.5549C67.2133 64.0198 65.1229 64.9535 63.1084 65.8533C62.8822 65.9544 62.6569 66.055 62.4322 66.1531C60.7719 66.8115 58.6091 66.7178 57.1679 65.7148C57.8885 66.5924 58.8282 67.156 59.8311 67.5321C61.679 68.2527 63.8734 67.7512 65.4084 66.6862C65.7541 66.4968 66.0869 66.2577 66.4209 66.0176C67.3582 65.3441 68.3053 64.6634 69.576 65.0564C67.8209 65.8708 66.1911 66.999 64.7499 68.4718L65.6591 69.224C66.7242 67.8134 68.1348 66.6546 69.5444 65.7454C69.6169 65.709 69.6894 65.6693 69.7624 65.6294C70.0044 65.4969 70.2511 65.362 70.5157 65.3377C72.2698 66.1836 73.8374 67.6259 75.247 69.1608C75.5609 68.9101 75.8738 68.6594 76.1246 68.377C74.6518 66.9664 73.0536 65.8697 71.3301 65.0553C71.6114 64.9616 71.9253 64.9616 72.2698 64.9616C73.0094 64.9118 73.5553 65.3091 74.1055 65.7097C74.2544 65.818 74.4035 65.9266 74.557 66.0267ZM83.4241 65.0557C81.5429 65.7757 79.6443 65.3079 77.7923 64.8515C77.1459 64.6923 76.5049 64.5343 75.8726 64.4289L75.4028 64.3667C76.5627 64.116 77.6899 63.7399 78.6307 62.9255C78.9617 62.6097 79.2837 62.292 79.6027 61.9773C80.6126 60.9809 81.5926 60.014 82.7351 59.2278C82.3228 59.7545 82.0444 60.3649 81.7668 60.9734C81.285 62.03 80.8058 63.0808 79.6326 63.6777C79.3671 63.8545 79.0714 63.9415 78.774 64.029C78.5451 64.0963 78.3153 64.1639 78.0976 64.273C78.5027 64.273 78.8864 64.1972 79.2675 64.1219C79.5347 64.0692 79.8006 64.0167 80.0719 63.9906C80.681 63.8916 81.3104 63.8407 81.9395 63.7898C83.8997 63.6312 85.8564 63.4729 87.1851 61.8594C86.5267 63.269 84.898 64.5226 83.4252 65.0557H83.4241ZM87.224 58.4224L87.2257 58.4214L87.2275 58.4202C87.5069 58.2407 87.7859 58.0614 88.0626 57.8798C90.5067 56.2195 92.1354 53.6184 91.6972 50.7044C91.5432 52.4259 90.244 53.6944 88.9526 54.9551L88.8769 55.029C88.3482 55.5966 87.9294 56.2135 87.5137 56.8258C87.2643 57.1932 87.0159 57.559 86.7457 57.9114H86.652C87.185 57.097 87.499 56.1889 87.5611 55.1544C87.5755 54.3828 87.4337 53.6636 87.2928 52.949C87.1245 52.0957 86.9576 51.2491 87.0597 50.3283L86.7152 51.2375C86.3281 52.3862 86.2369 53.6602 86.1456 54.9356C86.0228 56.6522 85.8998 58.3715 85.0549 59.7919V59.8857C85.757 59.3647 86.4919 58.8927 87.224 58.4224ZM84.0159 41.5537C81.5402 36.2577 76.0883 32.9055 70.3847 32.9055C67.8774 32.9371 65.5902 33.5007 63.4906 34.5353C59.7612 36.321 56.7219 40.1757 55.6884 43.9989C54.0281 50.4537 56.2836 56.9717 61.7987 60.7632C65.7777 63.615 72.1082 64.147 76.5887 61.9853C80.5678 60.3249 83.9527 56.2195 84.9862 52.1772C86.0207 48.7933 85.5814 44.5941 84.0149 41.5547L84.0159 41.5537Z" fill="#7D7D7D"/>
<path fill-rule="evenodd" clip-rule="evenodd" d="M100.284 22H127.796V49.5121H100.284V22ZM107.24 26.5122V37.3232C107.24 43.0574 110.092 45.1886 113.852 45.1886C117.831 45.1886 120.808 42.9015 120.808 37.2611V26.5122H118.395V37.417C118.395 41.4593 116.61 43.2449 113.915 43.2449C111.471 43.2449 109.622 41.4898 109.622 37.417V26.5122H107.24Z" fill="#7D7D7D"/>
<path fill-rule="evenodd" clip-rule="evenodd" d="M129.488 22H157V49.5121H129.488V22ZM138.575 44.9068V37.073C138.575 34.0337 138.544 31.8087 138.418 29.4899L138.512 29.4583C139.421 31.4326 140.643 33.5322 141.927 35.6002L147.755 44.9385H150.168V26.576H147.943V34.2844C147.943 37.1362 148.005 39.3612 148.225 41.8053L148.1 41.837C147.254 39.9259 146.157 38.0138 144.841 35.852L138.982 26.5454H136.35V44.9068H138.575Z" fill="#7D7D7D"/>
<path d="M142.805 57.5665C145.406 57.5665 147.13 58.757 147.13 61.2011C147.13 63.6768 145.406 65.118 142.554 65.0864C141.771 65.0864 141.082 65.0243 140.58 64.8989V57.7541C140.988 57.6603 141.771 57.5665 142.805 57.5665Z" fill="#7D7D7D"/>
<path fill-rule="evenodd" clip-rule="evenodd" d="M157 51.2046H129.488V78.7167H157V51.2046ZM148.07 64.8673C149.01 63.9276 149.512 62.6107 149.512 60.9504C149.512 59.3206 148.916 57.9732 147.851 57.1272C146.786 56.1254 145.063 55.5923 142.712 55.5923C140.8 55.5923 139.329 55.7493 138.169 55.9684V74.1117H140.551V66.7162C141.083 66.8416 141.741 66.8732 142.462 66.8732C144.78 66.8732 146.817 66.1831 148.07 64.8673Z" fill="#7D7D7D"/>
<path d="M119.711 64.5211C119.743 60.1344 117.267 57.4395 112.253 57.4395C111.031 57.4395 110.092 57.5333 109.465 57.6902V72.2296C110.06 72.3233 110.938 72.3233 111.877 72.3233C116.954 72.3549 119.711 69.5031 119.711 64.5211Z" fill="#7D7D7D"/>
<path fill-rule="evenodd" clip-rule="evenodd" d="M100.252 51.2358H127.764V78.748H100.252V51.2358ZM122.218 64.459C122.218 67.4667 121.279 69.9108 119.587 71.6038C117.832 73.3273 115.011 74.2354 111.44 74.2354C109.716 74.2354 108.337 74.1733 107.115 74.0163V55.9362C108.588 55.717 110.312 55.5601 112.192 55.5601C115.608 55.5601 118.02 56.3123 119.65 57.8167C121.248 59.3211 122.219 61.4828 122.219 64.46L122.218 64.459Z" fill="#7D7D7D"/>
</g>
</svg>
