<svg width="200" height="100" viewBox="0 0 200 100" fill="none" xmlns="http://www.w3.org/2000/svg">
<mask id="mask0_1429_267" style="mask-type:alpha" maskUnits="userSpaceOnUse" x="0" y="0" width="200" height="100">
<rect width="200" height="100" fill="#222222"/>
</mask>
<g mask="url(#mask0_1429_267)">
<path d="M83.4557 57.2745H85.9763L84.7038 53.8939L83.4557 57.2745Z" fill="#949494"/>
<path d="M92.2227 67.4596C92.4624 67.3035 92.7457 67.2226 93.0343 67.2279C93.2532 67.2199 93.471 67.263 93.6693 67.3534C93.8676 67.4438 94.0407 67.5789 94.1742 67.7475C94.4578 68.0898 94.5978 68.5768 94.5978 69.1961C94.5978 69.8154 94.4578 70.2952 94.1742 70.6446C94.0414 70.8132 93.869 70.9484 93.6713 71.0391C93.4737 71.1299 93.2566 71.1734 93.038 71.1661C92.7454 71.1731 92.4581 71.0901 92.2171 70.9289C91.9735 70.7564 91.7874 70.5185 91.6817 70.2445C91.4304 69.5656 91.4304 68.823 91.6817 68.1441C91.7878 67.8688 91.9762 67.6305 92.2227 67.4596Z" fill="#949494"/>
<path d="M110.048 67.2448C110.214 67.177 110.394 67.1447 110.574 67.15C110.759 67.1426 110.943 67.1734 111.114 67.2402C111.285 67.307 111.44 67.4083 111.568 67.5375C111.82 67.797 111.965 68.1875 112.003 68.709H109.152C109.171 68.2825 109.331 67.8734 109.609 67.5429C109.732 67.4142 109.881 67.3126 110.048 67.2448Z" fill="#949494"/>
<path fill-rule="evenodd" clip-rule="evenodd" d="M69 39.7868V81H131V39.7868L100.001 19L69 39.7868ZM81.4519 41.4653C81.4312 41.1949 81.5143 40.9266 81.6851 40.712C81.7621 40.6289 81.8569 40.5632 81.9631 40.5197C82.0692 40.4762 82.1838 40.456 82.2989 40.4604C82.4163 40.4548 82.5336 40.4745 82.6423 40.518C82.7509 40.5615 82.8484 40.6277 82.9276 40.712C83.0996 40.926 83.1828 41.1948 83.1609 41.4653V45.4941C83.1512 45.8825 83.2048 46.2699 83.3195 46.6421C83.4131 46.9396 83.6111 47.1958 83.8792 47.3663C84.2225 47.5543 84.6144 47.6423 85.0079 47.6199C85.6758 47.6199 86.1479 47.4478 86.424 47.1038C86.7001 46.7598 86.8382 46.2371 86.8382 45.5357V41.4653C86.8165 41.1942 86.8981 40.9249 87.0677 40.7084C87.1459 40.626 87.2417 40.5612 87.3483 40.5183C87.3987 40.4981 87.4509 40.483 87.5042 40.4732C87.5637 40.4623 87.6244 40.4579 87.6852 40.4604C87.8013 40.4562 87.917 40.4762 88.0245 40.519C88.132 40.5618 88.2287 40.6264 88.3084 40.7084C88.4844 40.922 88.5698 41.1927 88.5472 41.4653V45.4054C88.5621 45.9453 88.4993 46.4847 88.3607 47.0078C88.2292 47.4415 87.9775 47.8317 87.633 48.1359C87.3266 48.412 86.9608 48.6185 86.5621 48.7407C86.0993 48.8752 85.6178 48.9393 85.1348 48.9308C84.5678 48.9414 84.0023 48.8725 83.4557 48.7262C83.0253 48.612 82.6314 48.3947 82.3101 48.0943C82.0025 47.7909 81.7786 47.4173 81.659 47.0078C81.5109 46.4886 81.4412 45.9513 81.4519 45.4126V41.4653ZM88.5603 71.2892C88.582 71.5631 88.496 71.8349 88.3196 72.0497C88.2404 72.1321 88.144 72.1972 88.0369 72.2406C87.9298 72.284 87.8144 72.3047 87.6983 72.3014C87.5823 72.306 87.4667 72.2855 87.3599 72.2414C87.2531 72.1972 87.1577 72.1305 87.0807 72.0461C86.912 71.8293 86.8304 71.5602 86.8513 71.2892V68.5352H83.1609V71.2892C83.1826 71.5631 83.0966 71.8349 82.9202 72.0497C82.8965 72.0743 82.8714 72.0973 82.8449 72.1186C82.7825 72.1689 82.7126 72.21 82.6374 72.2404C82.5303 72.2838 82.4149 72.3046 82.2989 72.3014C82.1829 72.306 82.0673 72.2855 81.9604 72.2414C81.8536 72.1972 81.7583 72.1305 81.6813 72.0461C81.5125 71.8293 81.431 71.5602 81.4519 71.2892V64.8359C81.431 64.5664 81.5119 64.2986 81.6795 64.0827C81.7569 63.9986 81.8527 63.9324 81.9598 63.8888C81.9862 63.8781 82.013 63.8689 82.0403 63.8611C82.0648 63.854 82.0897 63.8482 82.1149 63.8435C82.1473 63.8375 82.1801 63.8335 82.2131 63.8315C82.2416 63.8298 82.2703 63.8297 82.2989 63.831C82.3389 63.8296 82.3789 63.831 82.4186 63.8353C82.4938 63.8434 82.5677 63.8616 82.6381 63.8897C82.7456 63.9324 82.8424 63.997 82.9221 64.079C83.0981 64.2926 83.1835 64.5633 83.1609 64.8359V67.1898H86.8513V64.8359C86.8294 64.5654 86.9125 64.2967 87.0845 64.0827C87.1615 63.9995 87.2564 63.9338 87.3625 63.8904C87.4686 63.8469 87.5833 63.8266 87.6983 63.831C87.8144 63.8268 87.9301 63.8467 88.0376 63.8895C88.1451 63.9323 88.2419 63.9969 88.3215 64.079C88.4975 64.2926 88.5829 64.5633 88.5603 64.8359V71.2892ZM88.4204 60.378C88.3438 60.4542 88.252 60.5146 88.1507 60.5554C88.0493 60.5961 87.9405 60.6165 87.8308 60.6152C87.7116 60.6188 87.5932 60.5945 87.4856 60.5446C87.3918 60.5027 87.3089 60.4408 87.2431 60.3635C87.1587 60.2511 87.0879 60.1295 87.0322 60.0014C86.992 59.9125 86.955 59.829 86.9219 59.7509C86.8935 59.6842 86.868 59.6216 86.8457 59.5632L86.4427 58.5347H83.006L82.603 59.5849C82.5058 59.877 82.3704 60.1557 82.2 60.4142C82.1336 60.4903 82.0492 60.5497 81.954 60.5872C81.8588 60.6247 81.7556 60.6393 81.6534 60.6297C81.5477 60.63 81.443 60.61 81.3453 60.5708C81.2477 60.5317 81.1589 60.4741 81.0843 60.4015C81.0043 60.3358 80.94 60.254 80.8959 60.1618C80.8517 60.0695 80.8288 59.9691 80.8287 59.8674C80.8294 59.7493 80.8489 59.632 80.8865 59.5197C80.9238 59.402 80.9873 59.2355 81.0731 59.0236L83.2318 53.7038C83.2657 53.6173 83.3045 53.521 83.3473 53.4157C83.3799 53.3357 83.4149 53.2505 83.4519 53.1606C83.5243 52.9732 83.6175 52.7941 83.7299 52.6264C83.8283 52.4839 83.9599 52.366 84.1143 52.2824C84.2992 52.1954 84.502 52.1502 84.7075 52.1502C84.9131 52.1502 85.1159 52.1954 85.3009 52.2824C85.4543 52.3654 85.5864 52.4812 85.6871 52.621C85.7848 52.7602 85.8673 52.9088 85.9333 53.0646L85.941 53.0827C86.007 53.2393 86.0903 53.437 86.1908 53.6983L88.3942 58.9838C88.5323 59.2591 88.6201 59.5556 88.6536 59.8601C88.6525 59.9572 88.6312 60.0531 88.5911 60.1421C88.5769 60.1737 88.5603 60.2043 88.5417 60.2335C88.5079 60.2864 88.4672 60.335 88.4204 60.378ZM89.7637 55.3243C89.7437 55.0781 89.8204 54.8337 89.9782 54.6399C90.0492 54.5653 90.136 54.5064 90.2326 54.4673C90.3292 54.4282 90.4334 54.4099 90.5379 54.4136C90.6451 54.4096 90.7519 54.428 90.8511 54.4677C90.9503 54.5074 91.0395 54.5674 91.1126 54.6435C91.2731 54.8348 91.3519 55.0784 91.3327 55.3243V57.767C91.3266 58.0664 91.3573 58.3655 91.4242 58.6578C91.4719 58.8745 91.588 59.0713 91.7563 59.221C91.9378 59.3659 92.169 59.439 92.4037 59.4256C92.6707 59.4242 92.9311 59.344 93.15 59.1956C93.3779 59.0503 93.556 58.8423 93.6612 58.5981C93.7507 58.3826 93.7936 57.91 93.7936 57.1803V55.3243C93.7748 55.0788 93.8528 54.8354 94.012 54.6435C94.0847 54.5678 94.1732 54.5082 94.2717 54.4685C94.3702 54.4288 94.4763 54.4101 94.5829 54.4136C94.6875 54.4099 94.7916 54.4282 94.8882 54.4673C94.9849 54.5064 95.0716 54.5653 95.1426 54.6399C95.2998 54.8339 95.3757 55.0783 95.3553 55.3243V59.7443C95.3739 59.9791 95.3014 60.2123 95.1519 60.3979C95.1193 60.4329 95.0831 60.4644 95.0438 60.4917C95.0033 60.5199 94.9597 60.5439 94.9135 60.5629C94.8227 60.6004 94.7245 60.6183 94.6258 60.6152C94.5914 60.616 94.5571 60.6143 94.5232 60.6101C94.4578 60.6021 94.3938 60.585 94.3332 60.5593C94.241 60.5202 94.1588 60.462 94.0922 60.3889C93.9422 60.211 93.8674 59.9845 93.8832 59.7551V59.5596C93.71 59.7755 93.5108 59.9706 93.2899 60.1408C93.0866 60.2953 92.8567 60.4137 92.6108 60.4903C92.338 60.5701 92.0542 60.6085 91.7693 60.6043C91.4148 60.6103 91.0643 60.5313 90.7488 60.3744C90.4586 60.2332 90.2159 60.0146 90.0492 59.7443C89.8526 59.4195 89.7544 58.9536 89.7544 58.3464L89.7637 55.3243ZM95.9523 70.4599C95.8161 70.8293 95.6005 71.1663 95.3198 71.4486C95.0408 71.7275 94.7028 71.9443 94.3291 72.0841C93.9157 72.2362 93.4764 72.3112 93.0343 72.305C92.5954 72.3119 92.1594 72.2356 91.7507 72.0805C91.3768 71.936 91.0389 71.7159 90.7594 71.435C90.4799 71.154 90.2651 70.8186 90.1294 70.4509C89.9813 70.0471 89.9087 69.621 89.9148 69.1924C89.9096 68.7607 89.9835 68.3316 90.1331 67.925C90.2679 67.5578 90.4816 67.2227 90.76 66.9418C91.0395 66.6653 91.3775 66.4509 91.7507 66.3135C92.5831 66.0177 93.4966 66.0177 94.3291 66.3135C94.7056 66.4547 95.0461 66.6735 95.327 66.9548C95.6079 67.2362 95.8225 67.5734 95.956 67.9431C96.247 68.757 96.247 69.6424 95.956 70.4563L95.9523 70.4599ZM95.262 48.5994C94.6927 48.8345 94.0782 48.9488 93.4597 48.9344C92.746 48.9594 92.0381 48.8014 91.4074 48.4763C91.0289 48.2589 90.7092 47.9573 90.4745 47.5963C90.2519 47.2802 90.127 46.9089 90.1144 46.5262C90.1144 46.4848 90.1181 46.4435 90.1253 46.4029C90.1349 46.3486 90.151 46.2954 90.1731 46.2443C90.2119 46.1551 90.2687 46.0744 90.3402 46.0069C90.3745 45.9745 90.4117 45.9455 90.4515 45.9202C90.4947 45.8927 90.5409 45.8695 90.5893 45.8512C90.6265 45.8371 90.6648 45.826 90.7036 45.8179C90.7618 45.8057 90.8214 45.8003 90.8813 45.8019C91.0502 45.7972 91.2143 45.857 91.3384 45.9685C91.4822 46.1089 91.5913 46.2791 91.6574 46.4664C91.7487 46.696 91.8657 46.9152 92.0063 47.1201C92.1428 47.3038 92.3234 47.4523 92.5324 47.5528C92.8123 47.6773 93.1185 47.7356 93.4261 47.723C93.865 47.7428 94.2983 47.6219 94.6594 47.379C94.8052 47.2853 94.925 47.1581 95.0079 47.0087C95.091 46.8593 95.1346 46.6923 95.1351 46.5226C95.1369 46.4816 95.1359 46.4406 95.132 46.4C95.1244 46.3201 95.1059 46.2414 95.0768 46.166C95.0329 46.0521 94.9658 45.948 94.8795 45.8599C94.6937 45.6814 94.4666 45.5485 94.2172 45.4723C93.8604 45.3594 93.498 45.264 93.1313 45.1863C92.6083 45.0755 92.0982 44.9135 91.6089 44.7028C91.2235 44.5371 90.8887 44.2776 90.6368 43.9496C90.3874 43.6019 90.261 43.1851 90.2768 42.7617C90.2676 42.3334 90.3982 41.9132 90.6499 41.5613C90.9267 41.1933 91.3088 40.9125 91.7488 40.7537C92.2889 40.5548 92.8635 40.4589 93.441 40.4712C93.8959 40.4609 94.3496 40.5221 94.7843 40.6523C95.128 40.759 95.4477 40.9279 95.7265 41.1502C95.9524 41.3286 96.1384 41.5498 96.2732 41.8003C96.3834 42.0064 96.4428 42.2344 96.4467 42.4666C96.4463 42.6642 96.369 42.8543 96.2303 42.999C96.1644 43.0751 96.0818 43.136 95.9885 43.177C95.8952 43.2181 95.7936 43.2383 95.6911 43.2361C95.5292 43.2472 95.3692 43.1966 95.2452 43.0949C95.1127 42.9553 95.0015 42.7979 94.9149 42.6278C94.7846 42.3499 94.5936 42.1028 94.3552 41.9035C94.1388 41.7297 93.793 41.6427 93.3179 41.6427C92.9404 41.6254 92.5669 41.7242 92.2507 41.9252C92.1299 41.9965 92.0294 42.0959 91.9584 42.2145C91.9319 42.2587 91.9099 42.3049 91.8924 42.3527C91.8767 42.3957 91.8647 42.4399 91.8565 42.4849C91.8493 42.5242 91.8451 42.5641 91.844 42.6042C91.8407 42.7563 91.8892 42.9053 91.982 43.0279C92.0828 43.1548 92.2099 43.2597 92.3552 43.3357C92.5107 43.4186 92.6745 43.4859 92.844 43.5367C93.01 43.5856 93.2824 43.6562 93.663 43.7486C94.0995 43.8478 94.5304 43.9687 94.9541 44.1107C95.3038 44.2231 95.6355 44.3828 95.9392 44.5851C96.2059 44.7673 96.423 45.0097 96.5717 45.2913C96.7324 45.6182 96.8105 45.9776 96.7993 46.3397C96.8061 46.8124 96.6692 47.2766 96.4057 47.6742C96.1233 48.0814 95.7264 48.4013 95.262 48.5958V48.5994ZM109.374 70.4907C109.493 70.7333 109.681 70.9376 109.917 71.0792C110.152 71.2208 110.424 71.2937 110.701 71.2892C110.875 71.2908 111.048 71.2694 111.216 71.2259C111.376 71.1804 111.529 71.1127 111.669 71.0249C111.81 70.9363 111.944 70.8383 112.07 70.7315C112.15 70.6633 112.246 70.5798 112.357 70.4804C112.388 70.4527 112.42 70.4237 112.454 70.3935C112.485 70.3654 112.517 70.3363 112.55 70.306C112.649 70.2336 112.771 70.1983 112.895 70.2065C113.037 70.1996 113.176 70.2456 113.285 70.335C113.336 70.3807 113.376 70.4369 113.403 70.4995C113.414 70.5278 113.423 70.5571 113.429 70.5869C113.436 70.6231 113.438 70.6601 113.436 70.6971C113.425 70.8698 113.367 71.0364 113.268 71.1806C113.137 71.3872 112.966 71.5674 112.764 71.7111C112.509 71.8967 112.223 72.0393 111.919 72.133C111.541 72.251 111.145 72.3078 110.748 72.3014C109.739 72.3014 108.954 72.022 108.393 71.4631C107.832 70.9042 107.55 70.1473 107.548 69.1924C107.543 68.7658 107.613 68.3414 107.755 67.9376C107.883 67.57 108.089 67.2326 108.359 66.9472C108.631 66.6663 108.966 66.449 109.337 66.3116C109.749 66.1611 110.186 66.0868 110.626 66.0926C111.178 66.0773 111.724 66.2074 112.207 66.4692C112.623 66.6975 112.965 67.0351 113.193 67.4433C113.405 67.8168 113.518 68.2356 113.522 68.6619C113.522 69.0458 113.41 69.2939 113.182 69.4079C112.882 69.5361 112.555 69.5944 112.227 69.5781H109.152C109.152 69.895 109.228 70.2075 109.374 70.4907ZM116.251 68.0807C116.421 68.1971 116.61 68.283 116.811 68.3342C117.045 68.4018 117.367 68.4839 117.778 68.5805C118.192 68.6699 118.594 68.8086 118.974 68.9933C119.249 69.1273 119.489 69.3212 119.675 69.56C119.834 69.7781 119.917 70.0392 119.914 70.306C119.932 70.6923 119.819 71.0737 119.593 71.3921C119.367 71.7105 119.04 71.9484 118.662 72.0697C118.179 72.2353 117.669 72.3138 117.156 72.3014C116.661 72.3132 116.167 72.2275 115.707 72.0497C115.357 71.9209 115.048 71.704 114.813 71.4214C114.635 71.2062 114.534 70.9405 114.526 70.6646C114.525 70.5842 114.541 70.5044 114.573 70.4303C114.587 70.3984 114.603 70.3679 114.622 70.339C114.648 70.3007 114.678 70.2653 114.712 70.2336C114.773 70.1739 114.846 70.127 114.926 70.0959C115.006 70.0648 115.092 70.05 115.179 70.0525C115.314 70.0453 115.447 70.0872 115.552 70.1702C115.654 70.2662 115.74 70.3774 115.805 70.4998C115.941 70.7654 116.156 70.985 116.422 71.1297C116.689 71.2745 116.994 71.3377 117.298 71.311C117.572 71.322 117.842 71.2505 118.072 71.1064C118.159 71.0594 118.232 70.992 118.285 70.9103C118.338 70.8287 118.369 70.7354 118.375 70.6392C118.379 70.5792 118.374 70.5192 118.361 70.4609C118.349 70.4063 118.329 70.3533 118.303 70.3032C118.247 70.1998 118.164 70.113 118.061 70.0525C117.735 69.8888 117.387 69.7706 117.028 69.7013C116.577 69.599 116.135 69.4616 115.707 69.2902C115.394 69.1647 115.115 68.9708 114.891 68.7235C114.686 68.4798 114.578 68.1726 114.587 67.858C114.588 67.5478 114.686 67.2453 114.869 66.9907C115.078 66.7026 115.366 66.4773 115.701 66.3406C116.12 66.1683 116.573 66.0855 117.028 66.098C117.397 66.0931 117.766 66.1345 118.125 66.2211C118.412 66.2875 118.686 66.3988 118.936 66.5506C119.133 66.6714 119.302 66.8312 119.431 67.0196C119.536 67.1632 119.595 67.334 119.6 67.5103C119.603 67.5909 119.587 67.671 119.555 67.7453C119.537 67.7875 119.513 67.8273 119.485 67.8639C119.464 67.8917 119.44 67.9176 119.414 67.9413C119.271 68.0595 119.086 68.1192 118.899 68.1078C118.75 68.1124 118.604 68.0648 118.488 67.9739C118.344 67.8541 118.213 67.7192 118.098 67.5719C117.985 67.4254 117.842 67.3023 117.679 67.2097C117.476 67.1103 117.249 67.0641 117.022 67.0758C116.773 67.0681 116.527 67.131 116.315 67.2568C116.284 67.2725 116.255 67.2909 116.228 67.312C116.217 67.3209 116.206 67.3304 116.195 67.3403C116.164 67.3696 116.136 67.4026 116.113 67.4388C116.063 67.5158 116.036 67.6043 116.033 67.695C116.034 67.7712 116.053 67.8461 116.09 67.9133C116.128 67.9805 116.181 68.0379 116.246 68.0807H116.251ZM110.604 55.2918C110.586 55.057 110.659 54.8241 110.807 54.6381C110.842 54.5992 110.882 54.5645 110.925 54.5347C110.964 54.5079 111.006 54.485 111.051 54.4666C111.144 54.4277 111.245 54.4096 111.346 54.4136C111.446 54.4111 111.545 54.4285 111.637 54.4646C111.69 54.4852 111.74 54.5117 111.786 54.5434C111.821 54.5673 111.854 54.5941 111.884 54.6236C111.958 54.7007 112.016 54.7917 112.053 54.8909C112.09 54.9902 112.106 55.0958 112.1 55.2012V55.3461C112.339 55.057 112.637 54.8196 112.975 54.649C113.298 54.4973 113.652 54.4204 114.011 54.4244C114.365 54.4155 114.716 54.4946 115.029 54.6544C115.325 54.8176 115.568 55.057 115.733 55.3461C115.965 55.061 116.255 54.8245 116.584 54.6508C116.896 54.4983 117.241 54.4207 117.591 54.4244C117.98 54.4137 118.365 54.4984 118.71 54.6707C119.014 54.8272 119.258 55.074 119.406 55.375C119.541 55.6503 119.608 56.0842 119.608 56.6769V59.6537C119.629 59.9138 119.549 60.1723 119.384 60.378C119.309 60.4579 119.217 60.5209 119.115 60.5626C119.012 60.6042 118.902 60.6234 118.791 60.6188C118.681 60.6226 118.572 60.6027 118.471 60.5608C118.37 60.5189 118.28 60.4558 118.207 60.3762C118.04 60.171 117.959 59.9125 117.979 59.6519V57.0898C117.983 56.8266 117.968 56.5635 117.936 56.3021C117.912 56.117 117.831 55.9433 117.703 55.8042C117.627 55.7332 117.537 55.6787 117.438 55.644C117.339 55.6094 117.233 55.5955 117.128 55.6032C116.917 55.6045 116.711 55.6676 116.537 55.7843C116.351 55.9038 116.2 56.0695 116.102 56.2641C115.989 56.5212 115.932 56.9757 115.931 57.6276V59.6555C115.952 59.916 115.872 60.1747 115.705 60.3798C115.63 60.4597 115.538 60.5228 115.436 60.5644C115.38 60.587 115.322 60.603 115.262 60.6122C115.213 60.6199 115.162 60.6227 115.111 60.6206C115.003 60.6238 114.895 60.6039 114.795 60.5623C114.695 60.5207 114.606 60.4584 114.533 60.3798C114.37 60.1731 114.291 59.9151 114.313 59.6555V57.2238C114.318 56.9257 114.304 56.6276 114.272 56.3311C114.255 56.1393 114.179 55.957 114.054 55.8078C113.982 55.7359 113.894 55.6802 113.797 55.6449C113.701 55.6095 113.597 55.5953 113.494 55.6032C112.979 55.6032 112.64 55.7746 112.477 56.1174C112.291 56.5875 112.207 57.0901 112.233 57.5931V59.6537C112.253 59.9134 112.174 60.1713 112.011 60.378C111.997 60.3928 111.983 60.407 111.968 60.4206C111.96 60.4284 111.951 60.4361 111.942 60.4435C111.884 60.4927 111.818 60.533 111.747 60.5626C111.716 60.5754 111.684 60.5861 111.652 60.5947C111.625 60.6021 111.597 60.608 111.568 60.6124C111.522 60.6195 111.474 60.6222 111.427 60.6206C111.317 60.6244 111.208 60.6046 111.107 60.5626C111.006 60.5207 110.916 60.4576 110.843 60.378C110.675 60.1733 110.594 59.9144 110.615 59.6537L110.604 55.2918ZM107.522 58.3699C107.196 58.2027 106.848 58.0808 106.488 58.0078C106.037 57.9071 105.595 57.7703 105.167 57.5986C104.854 57.4729 104.575 57.2782 104.352 57.03C104.145 56.7871 104.036 56.4795 104.046 56.1645C104.047 55.8547 104.146 55.5528 104.329 55.299C104.538 55.0105 104.825 54.7846 105.16 54.6471C105.58 54.4756 106.033 54.3929 106.488 54.4045C106.857 54.4005 107.225 54.4419 107.583 54.5276C107.871 54.5944 108.146 54.7056 108.397 54.8572C108.592 54.9757 108.76 55.1316 108.891 55.3153C108.996 55.4599 109.055 55.6311 109.061 55.8078C109.063 55.8881 109.048 55.9679 109.015 56.042C108.999 56.0809 108.977 56.1177 108.952 56.1518C108.929 56.1826 108.903 56.2111 108.874 56.2369C108.732 56.3565 108.547 56.417 108.359 56.4053C108.21 56.4091 108.064 56.3616 107.947 56.2714C107.804 56.1505 107.674 56.0158 107.559 55.8694C107.444 55.723 107.301 55.5999 107.137 55.5072C106.934 55.4089 106.709 55.3628 106.482 55.3732C106.233 55.3653 105.987 55.4282 105.774 55.5543C105.691 55.5969 105.621 55.6601 105.571 55.7374C105.522 55.8147 105.494 55.9033 105.492 55.9943C105.491 56.0362 105.496 56.0779 105.507 56.1182C105.516 56.1518 105.529 56.1845 105.545 56.2157C105.561 56.2459 105.58 56.2743 105.602 56.3003C105.63 56.3333 105.663 56.3626 105.699 56.3872C105.868 56.5041 106.058 56.59 106.259 56.6407C106.494 56.7095 106.816 56.7916 107.227 56.887C107.641 56.9769 108.042 57.1162 108.421 57.3016C108.697 57.4345 108.938 57.6286 109.122 57.8684C109.282 58.0852 109.366 58.3461 109.361 58.6126C109.381 58.9991 109.269 59.3812 109.043 59.6999C108.817 60.0186 108.489 60.2563 108.109 60.3762C107.626 60.5418 107.116 60.6204 106.604 60.608C106.108 60.6204 105.615 60.5348 105.154 60.3563C104.804 60.2281 104.496 60.0111 104.262 59.7279C104.083 59.513 103.982 59.2472 103.973 58.9711C103.972 58.8907 103.988 58.811 104.021 58.7369C104.053 58.6628 104.1 58.5959 104.16 58.5401C104.193 58.5076 104.23 58.479 104.27 58.4545C104.303 58.4344 104.337 58.4171 104.374 58.403C104.454 58.3719 104.54 58.3569 104.626 58.3591C104.761 58.3518 104.894 58.3938 104.999 58.4768C105.101 58.5725 105.186 58.6838 105.251 58.8063C105.389 59.0526 105.588 59.2617 105.829 59.4147C106.111 59.5619 106.43 59.6314 106.749 59.6157C107.024 59.6283 107.296 59.5581 107.527 59.4147C107.614 59.3682 107.687 59.3011 107.74 59.2197C107.771 59.172 107.794 59.1204 107.81 59.0664C107.82 59.0283 107.827 58.9891 107.83 58.9494C107.836 58.8336 107.809 58.7184 107.752 58.6162C107.696 58.5141 107.611 58.4289 107.509 58.3699H107.522ZM101.352 52.4218C101.503 52.2846 101.704 52.21 101.911 52.2136C102.108 52.2101 102.3 52.2742 102.453 52.3946C102.533 52.4635 102.595 52.5492 102.636 52.6452C102.677 52.7413 102.695 52.8451 102.688 52.9487C102.692 53.05 102.674 53.1511 102.635 53.2449C102.595 53.3387 102.535 53.423 102.458 53.4919C102.308 53.6223 102.113 53.6927 101.911 53.6893C101.706 53.6938 101.507 53.6241 101.352 53.4937C101.277 53.423 101.218 53.3386 101.177 53.2453C101.137 53.152 101.116 53.0518 101.116 52.9505C101.116 52.8493 101.137 52.7491 101.177 52.6558C101.218 52.5625 101.277 52.478 101.352 52.4073V52.4218ZM101.113 55.3189C101.094 55.0736 101.171 54.8302 101.329 54.6381C101.4 54.5625 101.486 54.5027 101.583 54.463C101.604 54.4544 101.625 54.4469 101.646 54.4403C101.657 54.4369 101.668 54.4338 101.679 54.431C101.748 54.4135 101.818 54.4057 101.889 54.4081C101.996 54.4047 102.102 54.4234 102.2 54.463C102.299 54.5027 102.387 54.5624 102.46 54.6381C102.618 54.8136 102.699 55.0427 102.684 55.2755V59.6827C102.703 59.9331 102.623 60.181 102.46 60.3762C102.388 60.4525 102.299 60.5129 102.201 60.5532C102.102 60.5935 101.996 60.6128 101.889 60.6098C101.783 60.613 101.678 60.5931 101.581 60.5514C101.484 60.5097 101.398 60.4473 101.329 60.3689C101.172 60.1739 101.095 59.9295 101.113 59.6827V55.3189ZM101.751 66.3334C102.046 66.4979 102.289 66.7377 102.454 67.0269C102.686 66.7408 102.975 66.5041 103.305 66.3316C103.617 66.1791 103.963 66.1015 104.313 66.1052C104.701 66.0936 105.087 66.1784 105.432 66.3515C105.736 66.5074 105.98 66.7545 106.128 67.0558C106.262 67.3311 106.329 67.7644 106.329 68.3559V71.3345C106.351 71.5946 106.271 71.8531 106.106 72.0588C106.031 72.1383 105.939 72.201 105.836 72.2426C105.827 72.2464 105.818 72.25 105.808 72.2534C105.769 72.2677 105.728 72.2787 105.687 72.2865C105.63 72.2973 105.571 72.3018 105.512 72.2996C105.497 72.3001 105.481 72.3001 105.466 72.2997C105.372 72.2971 105.279 72.2771 105.192 72.2408C105.091 72.1985 105.001 72.1351 104.928 72.0552C104.761 71.8504 104.679 71.5916 104.701 71.3309V68.776C104.704 68.5128 104.69 68.2497 104.658 67.9884C104.635 67.803 104.553 67.6291 104.425 67.4904C104.349 67.4192 104.258 67.3645 104.159 67.3299C104.059 67.2952 103.953 67.2814 103.848 67.2894C103.637 67.2911 103.432 67.3542 103.259 67.4705C103.072 67.5896 102.922 67.7554 102.824 67.9503C102.709 68.2074 102.652 68.6619 102.652 69.3138V71.3418C102.674 71.6022 102.593 71.861 102.426 72.066C102.404 72.0902 102.379 72.1128 102.354 72.1337C102.33 72.1529 102.305 72.1707 102.28 72.1869C102.241 72.2114 102.2 72.2325 102.157 72.2499C102.115 72.2671 102.071 72.2805 102.026 72.2901C101.963 72.3036 101.898 72.3092 101.833 72.3069C101.724 72.31 101.616 72.2901 101.516 72.2485C101.417 72.2069 101.327 72.1446 101.255 72.066C101.091 71.8596 101.012 71.6015 101.033 71.3418V68.91C101.037 68.6114 101.024 68.3127 100.993 68.0155C100.975 67.8246 100.899 67.6432 100.775 67.494C100.703 67.4221 100.616 67.3665 100.519 67.3311C100.422 67.2957 100.319 67.2815 100.215 67.2894C99.7024 67.2894 99.3628 67.4705 99.2006 67.8037C99.0139 68.273 98.9306 68.7751 98.9561 69.2775V71.34C98.9773 71.5997 98.8981 71.8579 98.7341 72.0642C98.6591 72.1415 98.5686 72.2031 98.4682 72.2452C98.3678 72.2873 98.2595 72.309 98.1501 72.309C98.0407 72.309 97.9325 72.2873 97.8321 72.2452C97.7317 72.2031 97.6411 72.1415 97.5661 72.0642C97.3971 71.8601 97.315 71.6009 97.3366 71.34V66.9762C97.3197 66.7412 97.3929 66.5084 97.5419 66.3225C97.609 66.2492 97.692 66.1912 97.7849 66.1527C97.837 66.1311 97.8916 66.1159 97.9472 66.1074C97.9907 66.1008 98.0349 66.0982 98.0792 66.0998C98.123 66.0985 98.1667 66.101 98.2098 66.1073C98.265 66.1154 98.3191 66.1295 98.3711 66.1496C98.4638 66.1854 98.548 66.2394 98.6184 66.308C98.6928 66.3855 98.7502 66.4768 98.7875 66.5763C98.8246 66.6759 98.8408 66.7817 98.8348 66.8874V67.0323C99.0731 66.7427 99.3712 66.5047 99.7099 66.3334C100.033 66.1823 100.387 66.106 100.745 66.1106C101.092 66.1045 101.436 66.183 101.744 66.3388L101.751 66.3334ZM98.7957 58.9982C98.8069 59.1141 98.8551 59.2236 98.9337 59.3115C98.9834 59.3563 99.0425 59.3901 99.1069 59.4107C99.1713 59.4313 99.2395 59.4383 99.3069 59.431C99.4325 59.4267 99.5574 59.4109 99.68 59.3839C99.8025 59.3561 99.9275 59.3403 100.053 59.3368C100.117 59.3375 100.181 59.3508 100.239 59.376C100.298 59.4012 100.351 59.4378 100.395 59.4835C100.444 59.5306 100.483 59.5871 100.509 59.6493C100.536 59.7116 100.549 59.7784 100.548 59.8457C100.546 59.9694 100.505 60.0897 100.431 60.1905C100.357 60.2914 100.253 60.3681 100.133 60.4106C99.7554 60.5593 99.3485 60.626 98.9412 60.6061C98.5521 60.6307 98.1637 60.5472 97.8218 60.3653C97.574 60.2141 97.3956 59.9762 97.3236 59.7008C97.2354 59.3293 97.1959 58.9484 97.2061 58.5673V55.6485H96.999C96.812 55.6616 96.6269 55.606 96.4803 55.4927C96.4211 55.444 96.3736 55.3832 96.3414 55.3147C96.3346 55.3004 96.3286 55.2858 96.3233 55.2711C96.3166 55.2523 96.311 55.2333 96.3065 55.2139C96.2976 55.1754 96.2933 55.1359 96.2937 55.0962C96.2921 55.021 96.308 54.9464 96.3403 54.8781C96.3567 54.8434 96.377 54.8109 96.4009 54.781C96.4242 54.7518 96.4508 54.7251 96.4803 54.7015C96.6375 54.5895 96.8305 54.535 97.0251 54.5476H97.1986V53.6313C97.1986 53.539 97.1986 53.4538 97.1996 53.3761C97.2013 53.2482 97.2056 53.1405 97.2173 53.0537C97.2273 52.9264 97.2662 52.8027 97.3311 52.6916C97.3937 52.585 97.4853 52.4973 97.596 52.4381C97.7127 52.3724 97.8455 52.3386 97.9804 52.3403C98.183 52.3414 98.3772 52.4194 98.5214 52.5576C98.6284 52.6536 98.7004 52.7807 98.7267 52.9198C98.7594 53.116 98.7738 53.3148 98.7696 53.5136V54.553H99.346C99.5291 54.541 99.7101 54.596 99.8536 54.7069C99.9111 54.756 99.9569 54.8169 99.9875 54.8851C100.018 54.9533 100.033 55.0273 100.031 55.1016C100.038 55.1894 100.018 55.2774 99.9731 55.3539C99.9494 55.3943 99.9194 55.4305 99.8843 55.4613C99.8529 55.4891 99.8175 55.5125 99.7789 55.5308C99.553 55.6247 99.3079 55.6668 99.0624 55.6539H98.7696V58.4586C98.7647 58.6405 98.771 58.8225 98.7882 59.0037L98.7957 58.9982Z" fill="#949494"/>
<path fill-rule="evenodd" clip-rule="evenodd" d="M128.444 32.7703H128.218V33.7264H127.838V31.4829H128.653C128.856 31.4749 129.06 31.4956 129.257 31.5445C129.375 31.5834 129.477 31.6565 129.55 31.7536C129.623 31.8508 129.664 31.9674 129.666 32.0877C129.666 32.1678 129.65 32.2471 129.618 32.3208C129.586 32.3946 129.539 32.4613 129.479 32.5168C129.347 32.6412 129.171 32.7134 128.987 32.7196C129.061 32.7479 129.129 32.7883 129.188 32.8391C129.322 32.9749 129.439 33.1242 129.539 33.2846L129.828 33.7227H129.36L129.151 33.3697C129.051 33.1736 128.915 32.9968 128.75 32.8482C128.66 32.7902 128.552 32.7628 128.444 32.7703ZM128.655 31.7835H128.218V32.4607H128.683C128.841 32.4762 129 32.4433 129.138 32.3665C129.202 32.3163 129.245 32.2441 129.256 32.1647C129.267 32.0853 129.247 32.0047 129.2 31.9392C129.16 31.8854 129.104 31.8449 129.039 31.8233C128.954 31.8004 128.866 31.7869 128.777 31.7829C128.737 31.781 128.696 31.7812 128.655 31.7835Z" fill="#949494"/>
<path fill-rule="evenodd" clip-rule="evenodd" d="M128.797 34.6554C128.414 34.6554 128.037 34.5606 127.701 34.38C127.358 34.2037 127.075 33.9353 126.884 33.6069C126.694 33.293 126.592 32.9355 126.591 32.5711C126.593 32.203 126.695 31.8418 126.888 31.5246C127.081 31.1959 127.368 30.9285 127.714 30.755C128.046 30.578 128.419 30.4852 128.797 30.4852C129.176 30.4852 129.549 30.578 129.881 30.755C130.227 30.9281 130.513 31.1956 130.705 31.5246C130.896 31.8423 130.998 32.2032 131 32.5711C130.998 32.9352 130.898 33.2925 130.709 33.6069C130.519 33.9353 130.236 34.2037 129.894 34.38C129.558 34.5606 129.181 34.6554 128.797 34.6554ZM127.894 31.0556C127.605 31.202 127.366 31.4257 127.205 31.7002H127.198C127.036 31.9625 126.951 32.2622 126.951 32.5675C126.951 32.8729 127.036 33.1726 127.198 33.4349C127.357 33.7077 127.593 33.9306 127.879 34.0777C128.158 34.2303 128.473 34.3104 128.794 34.3104C129.114 34.3104 129.43 34.2303 129.709 34.0777C129.994 33.9312 130.23 33.708 130.388 33.4349C130.548 33.1722 130.633 32.8727 130.633 32.5675C130.633 32.2624 130.548 31.9629 130.388 31.7002C130.228 31.4251 129.989 31.2011 129.7 31.0556C129.423 30.9084 129.112 30.8312 128.797 30.8312C128.481 30.8312 128.17 30.9084 127.894 31.0556Z" fill="#949494"/>
</g>
</svg>
