<svg width="100" height="100" viewBox="0 0 100 100" fill="none" xmlns="http://www.w3.org/2000/svg">
<circle cx="50" cy="50" r="50" fill="#0F0F0F"/>
<path d="M38.2174 46L44.6654 34.576H43.0494L37.6254 44.512H37.5934L36.4254 34.576H34.8734L36.5054 46H38.2174ZM46.4374 36.24L46.7894 34.576H45.4134L45.0614 36.24H46.4374ZM44.7574 37.728L43.0454 46H44.3894L46.1174 37.728H44.7574ZM48.2243 42.272H54.4483C54.4696 42.1547 54.4963 42 54.5283 41.808C54.5603 41.616 54.5763 41.4133 54.5763 41.2C54.5763 40.0373 54.2936 39.136 53.7283 38.496C53.1736 37.856 52.2883 37.536 51.0723 37.536C50.5069 37.536 49.9629 37.664 49.4403 37.92C48.9283 38.176 48.4749 38.5387 48.0803 39.008C47.6963 39.4773 47.3869 40.0427 47.1523 40.704C46.9283 41.3547 46.8163 42.0747 46.8163 42.864C46.8163 43.2267 46.8696 43.6053 46.9763 44C47.0829 44.384 47.2696 44.7413 47.5363 45.072C47.8029 45.392 48.1603 45.6587 48.6083 45.872C49.0669 46.0747 49.6376 46.176 50.3203 46.176C50.7683 46.176 51.1949 46.1173 51.6003 46C52.0056 45.8827 52.3736 45.712 52.7043 45.488C53.0349 45.2533 53.3176 44.9653 53.5523 44.624C53.7869 44.272 53.9576 43.8667 54.0643 43.408H52.7043C52.5123 43.92 52.2189 44.3147 51.8243 44.592C51.4296 44.8587 50.9283 44.992 50.3203 44.992C50.0429 44.992 49.7763 44.9493 49.5203 44.864C49.2643 44.768 49.0349 44.64 48.8323 44.48C48.6296 44.3093 48.4696 44.1013 48.3523 43.856C48.2349 43.6 48.1763 43.312 48.1763 42.992C48.1763 42.7467 48.1923 42.5067 48.2243 42.272ZM53.2163 41.072H48.4163C48.5123 40.752 48.6403 40.4533 48.8003 40.176C48.9603 39.888 49.1576 39.6373 49.3923 39.424C49.6269 39.2107 49.8989 39.0453 50.2083 38.928C50.5283 38.8 50.8856 38.736 51.2803 38.736C51.6536 38.736 51.9683 38.8053 52.2243 38.944C52.4803 39.072 52.6829 39.248 52.8323 39.472C52.9923 39.6853 53.0989 39.936 53.1523 40.224C53.2163 40.5013 53.2376 40.784 53.2163 41.072ZM63.17 46L67.442 37.728H65.97L62.834 44.304H62.802L62.402 37.728H60.866L57.89 44.304H57.858L57.346 37.728H55.906L56.882 46H58.322L61.282 39.568H61.314L61.73 46H63.17ZM33.9534 56.728L32.2094 65H33.5534L34.4814 60.664C34.5668 60.2587 34.6628 59.9173 34.7694 59.64C34.8761 59.352 35.0734 59.0693 35.3614 58.792C35.6068 58.5147 35.9108 58.2693 36.2734 58.056C36.6468 57.8427 37.0201 57.736 37.3934 57.736C37.7668 57.736 38.0494 57.832 38.2414 58.024C38.4441 58.216 38.5454 58.4827 38.5454 58.824C38.5454 58.92 38.5188 59.1067 38.4654 59.384C38.4228 59.6613 38.3641 59.96 38.2894 60.28L37.2974 65H38.6574L39.5694 60.728C39.6441 60.376 39.7348 60.04 39.8414 59.72C39.9481 59.4 40.1134 59.1173 40.3374 58.872C40.4548 58.7227 40.5934 58.5787 40.7534 58.44C40.9134 58.3013 41.0841 58.184 41.2654 58.088C41.4468 57.9813 41.6334 57.896 41.8254 57.832C42.0281 57.768 42.2254 57.736 42.4174 57.736C42.7801 57.736 43.0788 57.8427 43.3134 58.056C43.5588 58.2693 43.6814 58.536 43.6814 58.856C43.6814 58.9733 43.6654 59.1227 43.6334 59.304C43.6121 59.4747 43.5854 59.624 43.5534 59.752L42.4014 65H43.7614L44.8014 60.04C44.8548 59.8053 44.9081 59.5333 44.9614 59.224C45.0148 58.9147 45.0414 58.6373 45.0414 58.392C45.0414 58.0507 44.9774 57.7627 44.8494 57.528C44.7214 57.2933 44.5454 57.1067 44.3214 56.968C44.1081 56.8187 43.8628 56.712 43.5854 56.648C43.3081 56.5733 43.0254 56.536 42.7374 56.536C42.1828 56.536 41.6494 56.6747 41.1374 56.952C40.6361 57.2187 40.2254 57.576 39.9054 58.024C39.7881 57.48 39.5428 57.096 39.1694 56.872C38.7961 56.648 38.3481 56.536 37.8254 56.536C37.2494 56.536 36.7108 56.6693 36.2094 56.936C35.7188 57.192 35.2974 57.544 34.9454 57.992L34.9134 57.96L35.2174 56.728H33.9534ZM46.1704 61.736C46.1704 62.2373 46.2504 62.7013 46.4104 63.128C46.5704 63.544 46.7998 63.9067 47.0984 64.216C47.3971 64.5147 47.7598 64.7493 48.1864 64.92C48.6238 65.0907 49.1144 65.176 49.6584 65.176C50.3838 65.176 51.0291 65.032 51.5944 64.744C52.1598 64.456 52.6398 64.072 53.0344 63.592C53.4291 63.1013 53.7278 62.5413 53.9304 61.912C54.1331 61.2827 54.2344 60.632 54.2344 59.96C54.2344 58.84 53.9411 57.992 53.3544 57.416C52.7678 56.8293 51.9144 56.536 50.7944 56.536C50.0691 56.536 49.4184 56.68 48.8424 56.968C48.2771 57.256 47.7918 57.64 47.3864 58.12C46.9918 58.6 46.6878 59.1547 46.4744 59.784C46.2718 60.4133 46.1704 61.064 46.1704 61.736ZM47.5304 61.72C47.5304 61.2933 47.5944 60.8453 47.7224 60.376C47.8611 59.9067 48.0638 59.48 48.3304 59.096C48.5971 58.7013 48.9278 58.376 49.3224 58.12C49.7171 57.864 50.1758 57.736 50.6984 57.736C51.0718 57.736 51.3918 57.8 51.6584 57.928C51.9358 58.0453 52.1651 58.2107 52.3464 58.424C52.5278 58.6267 52.6611 58.872 52.7464 59.16C52.8318 59.448 52.8744 59.752 52.8744 60.072C52.8744 60.4773 52.8051 60.9093 52.6664 61.368C52.5384 61.8267 52.3411 62.2533 52.0744 62.648C51.8184 63.032 51.4984 63.352 51.1144 63.608C50.7411 63.864 50.3038 63.992 49.8024 63.992C49.0558 63.992 48.4904 63.784 48.1064 63.368C47.7224 62.952 47.5304 62.4027 47.5304 61.72ZM56.7339 56.728L55.0219 65H56.3659L57.1499 61.336C57.2139 61.0267 57.2993 60.696 57.4059 60.344C57.5126 59.9813 57.6566 59.6667 57.8379 59.4C58.0513 59.0693 58.3019 58.7867 58.5899 58.552C58.8886 58.3173 59.2246 58.152 59.5979 58.056C59.7579 58.0133 59.8913 57.992 59.9979 57.992C60.1046 57.9813 60.2433 57.976 60.4139 57.976H60.6059C60.7019 57.976 60.7713 57.9813 60.8139 57.992L61.1339 56.536C61.0486 56.5147 60.9686 56.5093 60.8939 56.52C60.8193 56.5307 60.7393 56.536 60.6539 56.536C59.9606 56.536 59.3633 56.7227 58.8619 57.096C58.3713 57.4693 57.9659 57.9387 57.6459 58.504H57.6139L58.0139 56.728H56.7339ZM61.7008 61.272H67.9248C67.9461 61.1547 67.9728 61 68.0048 60.808C68.0368 60.616 68.0528 60.4133 68.0528 60.2C68.0528 59.0373 67.7701 58.136 67.2048 57.496C66.6501 56.856 65.7648 56.536 64.5488 56.536C63.9835 56.536 63.4395 56.664 62.9168 56.92C62.4048 57.176 61.9515 57.5387 61.5568 58.008C61.1728 58.4773 60.8635 59.0427 60.6288 59.704C60.4048 60.3547 60.2928 61.0747 60.2928 61.864C60.2928 62.2267 60.3461 62.6053 60.4528 63C60.5595 63.384 60.7461 63.7413 61.0128 64.072C61.2795 64.392 61.6368 64.6587 62.0848 64.872C62.5435 65.0747 63.1141 65.176 63.7968 65.176C64.2448 65.176 64.6715 65.1173 65.0768 65C65.4821 64.8827 65.8501 64.712 66.1808 64.488C66.5115 64.2533 66.7941 63.9653 67.0288 63.624C67.2635 63.272 67.4341 62.8667 67.5408 62.408H66.1808C65.9888 62.92 65.6955 63.3147 65.3008 63.592C64.9061 63.8587 64.4048 63.992 63.7968 63.992C63.5195 63.992 63.2528 63.9493 62.9968 63.864C62.7408 63.768 62.5115 63.64 62.3088 63.48C62.1061 63.3093 61.9461 63.1013 61.8288 62.856C61.7115 62.6 61.6528 62.312 61.6528 61.992C61.6528 61.7467 61.6688 61.5067 61.7008 61.272ZM66.6928 60.072H61.8928C61.9888 59.752 62.1168 59.4533 62.2768 59.176C62.4368 58.888 62.6341 58.6373 62.8688 58.424C63.1035 58.2107 63.3755 58.0453 63.6848 57.928C64.0048 57.8 64.3621 57.736 64.7568 57.736C65.1301 57.736 65.4448 57.8053 65.7008 57.944C65.9568 58.072 66.1595 58.248 66.3088 58.472C66.4688 58.6853 66.5755 58.936 66.6288 59.224C66.6928 59.5013 66.7141 59.784 66.6928 60.072Z" fill="white"/>
</svg>
