<svg width="200" height="100" viewBox="0 0 200 100" fill="none" xmlns="http://www.w3.org/2000/svg">
<mask id="mask0_1429_182" style="mask-type:alpha" maskUnits="userSpaceOnUse" x="0" y="0" width="200" height="100">
<rect width="200" height="100" fill="#222222"/>
</mask>
<g mask="url(#mask0_1429_182)">
<path d="M139.232 58.3401C138.305 58.6465 137.334 58.8023 136.356 58.8016C131.409 58.8016 127.386 54.8535 127.386 50.0003C127.386 45.1471 131.409 41.1981 136.356 41.1981C138.184 41.1942 139.969 41.7417 141.47 42.7665C141.714 42.9274 142.012 42.9877 142.301 42.9344C142.59 42.8811 142.846 42.7185 143.014 42.4816C143.182 42.2448 143.248 41.9527 143.198 41.6684C143.149 41.3841 142.987 41.1303 142.748 40.962C140.873 39.6808 138.641 38.9959 136.356 39C130.174 39.0013 125.146 43.937 125.146 50.0003C125.146 56.0637 130.174 61 136.356 61C137.578 61.001 138.792 60.8062 139.95 60.4233C140.231 60.33 140.463 60.1308 140.595 59.8696C140.727 59.6084 140.748 59.3065 140.653 59.0303C140.558 58.7542 140.355 58.5264 140.088 58.3971C139.822 58.2677 139.514 58.2475 139.233 58.3407L139.232 58.3401Z" fill="#7D7D7D"/>
<path fill-rule="evenodd" clip-rule="evenodd" d="M67.6131 39.0013C61.4327 39.0013 56.4026 43.937 56.4026 50.0003C56.4026 56.0637 61.4327 61 67.6131 61C73.7935 61 78.8233 56.0653 78.8233 50.0003C78.8233 43.9354 73.7941 39.0013 67.6131 39.0013ZM67.6131 58.8016C62.6668 58.8016 58.6432 54.8535 58.6432 50.0003C58.6432 45.1471 62.6668 41.1981 67.6131 41.1981C72.5595 41.1981 76.583 45.1474 76.583 50.0003C76.583 54.8532 72.5592 58.8016 67.6131 58.8016Z" fill="#7D7D7D"/>
<path fill-rule="evenodd" clip-rule="evenodd" d="M98.6751 50.0003C98.6751 43.937 103.705 39.0013 109.887 39.0013C116.068 39.0013 121.096 43.9354 121.096 50.0003C121.096 56.0653 116.069 61 109.887 61C103.705 61 98.6751 56.0637 98.6751 50.0003ZM100.917 50.0003C100.917 54.8535 104.941 58.8016 109.887 58.8016C114.832 58.8016 118.856 54.8532 118.856 50.0003C118.856 45.1474 114.832 41.1981 109.887 41.1981C104.941 41.1981 100.917 45.1471 100.917 50.0003Z" fill="#7D7D7D"/>
<path d="M95.3523 58.1607H85.8591V40.327C85.8593 40.0357 85.7417 39.7563 85.532 39.5501C85.3223 39.344 85.0377 39.228 84.7409 39.2276C84.4438 39.2278 84.159 39.3437 83.9489 39.5498C83.7389 39.756 83.6209 40.0355 83.6208 40.327V59.26C83.6209 59.5514 83.739 59.8308 83.9491 60.0368C84.1591 60.2429 84.4439 60.3586 84.7409 60.3587H95.3523C95.6494 60.3587 95.9343 60.2429 96.1444 60.0368C96.3544 59.8307 96.4725 59.5512 96.4725 59.2597C96.4725 58.9682 96.3544 58.6887 96.1444 58.4826C95.9343 58.2765 95.6494 58.1607 95.3523 58.1607Z" fill="#7D7D7D"/>
<path d="M138.168 49.7667H144.363C144.549 49.7664 144.731 49.8115 144.895 49.8978C145.058 49.9841 145.198 50.109 145.3 50.2611C145.402 50.4133 145.464 50.588 145.48 50.7695C145.496 50.951 145.466 51.1336 145.392 51.3008V59.5364C145.394 59.6823 145.367 59.8272 145.312 59.9627C145.257 60.0982 145.175 60.2215 145.071 60.3255C144.966 60.4296 144.842 60.5122 144.705 60.5686C144.568 60.625 144.421 60.654 144.272 60.654C144.123 60.654 143.976 60.625 143.839 60.5686C143.702 60.5122 143.577 60.4296 143.473 60.3255C143.369 60.2215 143.287 60.0982 143.232 59.9627C143.177 59.8272 143.149 59.6823 143.152 59.5364V51.9632H138.168C137.874 51.9583 137.594 51.8405 137.388 51.635C137.183 51.4296 137.067 51.1531 137.067 50.865C137.067 50.5769 137.183 50.3003 137.388 50.0949C137.594 49.8895 137.874 49.7716 138.168 49.7667Z" fill="#7D7D7D"/>
<path d="M38.1538 39.9593C38.0399 39.6902 37.8218 39.4764 37.5474 39.3649C37.2731 39.2534 36.9648 39.2533 36.6903 39.3646C36.5546 39.4199 36.4312 39.5009 36.3273 39.6029C36.2234 39.705 36.1411 39.8261 36.0849 39.9595C36.0287 40.0928 35.9999 40.2356 36 40.3799C36.0001 40.5241 36.0292 40.6669 36.0855 40.8001L44.0913 59.7678C44.1764 59.9685 44.3201 60.14 44.5044 60.2607C44.6886 60.3814 44.9051 60.446 45.1267 60.4462C45.2736 60.4463 45.4191 60.4178 45.5547 60.3622C45.6906 60.307 45.8141 60.2261 45.9181 60.1241C46.0221 60.0221 46.1046 59.9009 46.1609 59.7676C46.2172 59.6343 46.2462 59.4914 46.2462 59.3471C46.2461 59.2028 46.2171 59.0599 46.1608 58.9266L38.1538 39.9593Z" fill="#7D7D7D"/>
<path d="M162.452 39.3645C162.727 39.253 163.035 39.253 163.31 39.3646C163.584 39.4765 163.801 39.6904 163.915 39.9595C164.028 40.2287 164.028 40.531 163.915 40.8001L155.909 59.7678C155.854 59.9024 155.772 60.0249 155.668 60.1282C155.564 60.2315 155.44 60.3136 155.304 60.3697C155.167 60.4259 155.021 60.4549 154.873 60.4552C154.725 60.4556 154.579 60.4271 154.442 60.3715C154.305 60.316 154.181 60.2344 154.077 60.1315C153.973 60.0287 153.89 59.9065 153.834 59.7722C153.778 59.6378 153.75 59.4939 153.751 59.3488C153.752 59.2037 153.782 59.0602 153.84 58.9266L161.846 39.9593C161.96 39.69 162.178 39.4761 162.452 39.3645Z" fill="#7D7D7D"/>
<path d="M53.3092 39.2128C53.172 39.1609 53.0258 39.1361 52.8788 39.1398C52.7318 39.1435 52.587 39.1756 52.4526 39.2342C52.3183 39.2929 52.1971 39.377 52.0959 39.4817C51.9948 39.5864 51.9157 39.7096 51.8631 39.8444L46.8863 52.5824C46.7802 52.8545 46.7886 53.1567 46.9094 53.4227C47.0303 53.6887 47.2538 53.8968 47.5309 54.0013C47.659 54.0495 47.795 54.0745 47.9323 54.075C48.159 54.0746 48.3803 54.0069 48.5671 53.8807C48.7538 53.7546 48.8973 53.5759 48.9786 53.3682L53.9545 40.6314C54.0604 40.3593 54.0519 40.0571 53.9309 39.7911C53.81 39.5252 53.5864 39.3172 53.3092 39.2128Z" fill="#7D7D7D"/>
<path d="M154.54 50.2255C154.433 50.3247 154.308 50.4022 154.17 50.4537C154.042 50.5026 153.906 50.5276 153.769 50.5276C153.543 50.5275 153.321 50.4599 153.135 50.3337C152.948 50.2076 152.805 50.0289 152.724 49.8212L149.135 40.6314C149.028 40.3593 149.036 40.0569 149.157 39.7907C149.217 39.6588 149.303 39.5399 149.41 39.4406C149.516 39.3413 149.642 39.2636 149.779 39.2119C150.057 39.1075 150.365 39.1155 150.636 39.2341C150.771 39.2929 150.892 39.377 150.993 39.4817C151.094 39.5864 151.173 39.7096 151.226 39.8444L154.814 49.0348C154.867 49.1694 154.893 49.313 154.889 49.4572C154.885 49.6015 154.853 49.7436 154.793 49.8755C154.733 50.0073 154.647 50.1263 154.54 50.2255Z" fill="#7D7D7D"/>
</g>
</svg>
