<svg width="200" height="100" viewBox="0 0 200 100" fill="none" xmlns="http://www.w3.org/2000/svg">
<mask id="mask0_1429_238" style="mask-type:alpha" maskUnits="userSpaceOnUse" x="0" y="0" width="200" height="100">
<rect width="200" height="100" fill="#222222"/>
</mask>
<g mask="url(#mask0_1429_238)">
<path d="M143.213 48.6007C143.722 47.7485 144.685 44.977 145 43.8385L144.45 43.6683C142.997 46.5286 141.401 48.5888 137.674 48.5888C131.755 48.5888 128.386 44.1519 128.386 37.6347C128.386 32.3906 131.144 27.7623 137.048 27.7623C138.34 27.7623 139.758 27.9271 140.825 28.3283C142.745 29.0493 143.323 30.4627 143.952 32.5321L144.513 32.4269C144.359 31.3849 144.232 30.0469 144.111 28.7799C144.075 28.4055 144.04 28.0373 144.005 27.6847C143.722 27.6526 143.357 27.5878 142.921 27.5102C141.744 27.3012 140.048 27 138.047 27C130.24 27 125.092 31.4174 125.092 38.2343C125.092 43.9491 128.978 49.3597 137.495 49.3597C139.822 49.3597 142.327 48.8176 143.213 48.6007Z" fill="#949494"/>
<path d="M114.299 43.6889C113.795 44.9586 113.259 45.9204 112.651 46.7146C111.76 47.8835 110.998 47.9577 109.005 47.9577C108.728 47.9577 108.339 47.9641 107.939 47.9707C107.516 47.9777 107.08 47.9848 106.751 47.9848C104.557 47.9848 104.116 47.8672 104.116 45.5772V31.187C104.116 28.4622 104.356 28.3136 106.9 27.8799V27.4614H91.4894V27.8799C94.3387 28.1906 94.6357 28.7294 94.7487 30.3965C94.8232 31.3908 94.8616 32.4106 94.8616 35.2791V39.6445C94.8616 44.874 93.8452 47.9209 88.7187 47.9209C83.9614 47.9209 81.9992 45.0307 81.9992 40.0961V31.515C81.9992 28.5549 82.2143 28.3402 84.7711 27.8783V27.4597H70.0126V27.8729C73.1363 28.3011 73.2012 28.7712 72.4039 30.8866C70.8794 34.9625 68.2746 41.7296 66.9397 44.9857C65.8844 42.3026 62.0492 32.3971 61.2367 29.9981C60.8002 28.705 61.0001 28.3011 63.3536 27.8729V27.4597H55V27.8729C57.2417 28.235 57.685 28.5337 58.7008 31.2033C59.3956 33.0443 60.1382 35.001 60.9023 37.0145C62.4376 41.0597 64.0598 45.3342 65.5558 49.3586H66.0978C68.6642 42.9575 72.2526 34.2534 73.3667 31.6305C74.4774 29.0878 75.675 27.8799 77.0748 27.8799C78.7569 27.8799 79.2612 28.9024 79.2612 31.5166V40.3493C79.2612 44.1193 79.9196 46.1882 82.0466 47.8255C83.4137 48.8696 85.4882 49.3586 87.5775 49.3586C89.9564 49.3586 92.0982 48.7682 93.6295 47.2806C95.6002 45.3327 95.9367 42.758 95.9367 39.6233V35.3073C95.9367 32.9032 96.0033 31.7485 96.0492 30.9532C96.0585 30.7908 96.067 30.6434 96.0739 30.5033C96.1688 28.9853 96.9734 27.8799 98.9689 27.8799C100.754 27.8799 101.352 28.7045 101.352 31.187V45.0573C101.352 47.7805 101.182 48.0439 98.1332 48.4451V48.8642H113.514C113.86 47.8038 114.59 44.8491 114.786 43.8222L114.299 43.6889Z" fill="#949494"/>
<path d="M116.018 48.8642V48.4451C118.704 47.9903 118.959 47.7051 118.959 45.0746V31.2694C118.959 28.4768 118.719 28.2946 116.018 27.8783V27.4597H124.697V27.8799C121.968 28.254 121.722 28.473 121.722 31.271V45.0692C121.722 47.6899 121.956 47.9632 124.697 48.4451V48.8642H116.018Z" fill="#949494"/>
<path d="M144.815 51.9994C142.132 52.3654 141.772 52.7362 140.688 55.5711C139.574 58.4195 135.797 68.5474 134.226 73H133.597C131.531 67.7412 127.834 59.0598 126.693 56.4282C125.546 59.2904 124.19 62.6576 122.881 65.9063L122.878 65.9137C121.858 68.4467 120.867 70.9073 120.027 73H119.368C117.779 68.3349 116.091 63.6388 114.411 58.9645C113.985 57.7802 113.56 56.5973 113.137 55.4166C112.173 52.7151 111.862 52.3323 109.259 52.0011V51.5972H118.25V52.0011C115.578 52.393 115.464 52.8143 116.08 54.6169C117.591 59.0246 119.25 63.687 120.924 68.215C121.972 65.6037 123.212 62.457 124.404 59.4311L124.404 59.4301C125.5 56.6479 126.556 53.9679 127.386 51.9002H127.987C129.837 56.4242 131.805 61.005 133.741 65.5118L133.742 65.5149C134.121 66.3982 134.5 67.2787 134.876 68.1554C136.622 63.4159 138.691 57.4887 139.527 54.9124C140.156 52.9238 140.022 52.4033 136.627 51.9994V51.5955H144.814L144.815 51.9994Z" fill="#949494"/>
<path fill-rule="evenodd" clip-rule="evenodd" d="M105.893 51.1493C108.026 57.113 110.255 63.0896 112.547 69.1486C113.626 72.0398 114.027 72.1248 116.128 72.5698L116.183 72.5815V73H108.145V72.5815C110.118 72.222 110.546 71.9412 110.097 70.6601C109.656 69.3036 108.849 67.0228 107.876 64.4504H101.094C101.038 64.6061 100.984 64.753 100.93 64.9C100.902 64.9747 100.875 65.0494 100.847 65.1253H100.842L97.8283 72.9984H81.2341V72.5798C84.2833 72.1786 84.4527 71.9152 84.4527 69.1914V55.3228C84.4527 52.5817 84.1562 52.3632 81.4933 52.0157V51.5972H90.001V52.0157C87.4566 52.4494 87.2167 52.598 87.2167 55.3228V69.713C87.2167 72.003 87.6588 72.1206 89.8525 72.1206C90.1808 72.1206 91.0468 72.1135 91.8883 72.1065C92.6835 72.0999 93.4569 72.0935 93.734 72.0935C95.4562 72.0935 96.2586 72.0344 97.0197 71.2657C97.3896 70.7539 97.7538 70.0209 98.2055 68.9149L105.333 51.228L105.893 51.1493ZM102.938 59.5528C102.443 60.8756 101.953 62.1856 101.449 63.4783H107.549L104.57 55.2594C104.006 56.7015 103.469 58.1345 102.938 59.5528Z" fill="#949494"/>
</g>
</svg>
